G04 (created by PCBNEW-RS274X (2011-05-25)-stable) date Mon 08 Dec 2014 09:37:15 GMT*
G01*
G70*
G90*
%MOIN*%
G04 Gerber Fmt 3.4, Leading zero omitted, Abs format*
%FSLAX34Y34*%
G04 APERTURE LIST*
%ADD10C,0.006000*%
%ADD11C,0.009800*%
%ADD12R,0.030000X0.020000*%
%ADD13R,0.025000X0.045000*%
%ADD14R,0.045000X0.025000*%
%ADD15C,0.078700*%
%ADD16O,0.074800X0.051200*%
%ADD17O,0.078300X0.051200*%
%ADD18R,0.040200X0.035400*%
%ADD19R,0.055100X0.047200*%
%ADD20R,0.035400X0.040200*%
%ADD21O,0.078700X0.039400*%
%ADD22C,0.025000*%
%ADD23C,0.007900*%
%ADD24C,0.019700*%
%ADD25C,0.027600*%
%ADD26C,0.011800*%
%ADD27C,0.015700*%
%ADD28C,0.023600*%
%ADD29C,0.010000*%
G04 APERTURE END LIST*
G54D10*
G36*
X59001Y-35843D02*
X59425Y-36267D01*
X59355Y-36337D01*
X58931Y-35913D01*
X59001Y-35843D01*
X59001Y-35843D01*
G37*
G54D11*
X59216Y-36407D02*
X58862Y-36053D01*
X59076Y-36546D02*
X58722Y-36192D01*
X58937Y-36685D02*
X58583Y-36331D01*
X58798Y-36825D02*
X58444Y-36471D01*
X58659Y-36963D02*
X58305Y-36609D01*
X58520Y-37103D02*
X58166Y-36749D01*
X58380Y-37242D02*
X58026Y-36888D01*
X58241Y-37381D02*
X57887Y-37027D01*
X58102Y-37520D02*
X57748Y-37166D01*
X57963Y-37660D02*
X57609Y-37306D01*
X57824Y-37798D02*
X57470Y-37444D01*
X57685Y-37938D02*
X57331Y-37584D01*
X57545Y-38077D02*
X57191Y-37723D01*
X57406Y-38216D02*
X57052Y-37862D01*
X57267Y-38356D02*
X56913Y-38002D01*
X56041Y-38046D02*
X55687Y-38400D01*
X55902Y-37907D02*
X55548Y-38261D01*
X55763Y-37767D02*
X55409Y-38121D01*
X55623Y-37628D02*
X55269Y-37982D01*
X55484Y-37489D02*
X55130Y-37843D01*
X55346Y-37350D02*
X54992Y-37704D01*
X55206Y-37211D02*
X54852Y-37565D01*
X55067Y-37072D02*
X54713Y-37426D01*
X54928Y-36932D02*
X54574Y-37286D01*
X54788Y-36793D02*
X54434Y-37147D01*
X54649Y-36654D02*
X54295Y-37008D01*
X54510Y-36515D02*
X54156Y-36869D01*
X54371Y-36376D02*
X54017Y-36730D01*
X54232Y-36237D02*
X53878Y-36591D01*
X54093Y-36097D02*
X53739Y-36451D01*
X53953Y-35958D02*
X53599Y-36312D01*
X53953Y-35042D02*
X53599Y-34688D01*
X54093Y-34903D02*
X53739Y-34549D01*
X54232Y-34763D02*
X53878Y-34409D01*
X54371Y-34624D02*
X54017Y-34270D01*
X54510Y-34485D02*
X54156Y-34131D01*
X54649Y-34346D02*
X54295Y-33992D01*
X54788Y-34207D02*
X54434Y-33853D01*
X54928Y-34068D02*
X54574Y-33714D01*
X55067Y-33928D02*
X54713Y-33574D01*
X55206Y-33789D02*
X54852Y-33435D01*
X55346Y-33650D02*
X54992Y-33296D01*
X55484Y-33511D02*
X55130Y-33157D01*
X55623Y-33372D02*
X55269Y-33018D01*
X55763Y-33233D02*
X55409Y-32879D01*
X55902Y-33093D02*
X55548Y-32739D01*
X56041Y-32954D02*
X55687Y-32600D01*
X57267Y-32644D02*
X56913Y-32998D01*
X57406Y-32784D02*
X57052Y-33138D01*
X57685Y-33062D02*
X57331Y-33416D01*
X57550Y-32918D02*
X57196Y-33272D01*
X57824Y-33202D02*
X57470Y-33556D01*
X57963Y-33340D02*
X57609Y-33694D01*
X58102Y-33480D02*
X57748Y-33834D01*
X58241Y-33619D02*
X57887Y-33973D01*
X58380Y-33758D02*
X58026Y-34112D01*
X58520Y-33897D02*
X58166Y-34251D01*
X58657Y-34035D02*
X58303Y-34389D01*
X58796Y-34174D02*
X58442Y-34528D01*
X58935Y-34313D02*
X58581Y-34667D01*
X59075Y-34453D02*
X58721Y-34807D01*
X59213Y-34591D02*
X58859Y-34945D01*
X59353Y-34730D02*
X58999Y-35084D01*
G54D12*
X61646Y-35820D03*
X61646Y-35070D03*
X62646Y-35820D03*
X61646Y-35445D03*
X62646Y-35070D03*
G54D10*
G36*
X53540Y-38038D02*
X53222Y-37720D01*
X53398Y-37544D01*
X53716Y-37862D01*
X53540Y-38038D01*
X53540Y-38038D01*
G37*
G36*
X53964Y-37614D02*
X53646Y-37296D01*
X53822Y-37120D01*
X54140Y-37438D01*
X53964Y-37614D01*
X53964Y-37614D01*
G37*
G54D13*
X60930Y-38878D03*
X60330Y-38878D03*
X51334Y-33720D03*
X51934Y-33720D03*
X52663Y-32165D03*
X53263Y-32165D03*
X51649Y-33051D03*
X52249Y-33051D03*
X50704Y-34350D03*
X51304Y-34350D03*
X60355Y-35370D03*
X59755Y-35370D03*
G54D14*
X51260Y-36117D03*
X51260Y-36717D03*
G54D13*
X59847Y-39016D03*
X59247Y-39016D03*
X60290Y-33091D03*
X59690Y-33091D03*
X54641Y-38724D03*
X55241Y-38724D03*
G54D14*
X52280Y-36204D03*
X52280Y-36804D03*
G54D13*
X54739Y-32185D03*
X55339Y-32185D03*
X60103Y-34035D03*
X59503Y-34035D03*
X56180Y-32441D03*
X56780Y-32441D03*
X53410Y-36815D03*
X52810Y-36815D03*
G54D14*
X58701Y-39040D03*
X58701Y-38440D03*
G54D15*
X66000Y-38000D03*
X66000Y-37000D03*
X66000Y-36000D03*
X66000Y-35000D03*
X66000Y-34000D03*
X66000Y-33000D03*
X47000Y-38000D03*
X47000Y-37000D03*
X47000Y-36000D03*
X47000Y-35000D03*
X47000Y-34000D03*
G54D16*
X48000Y-38000D03*
G54D17*
X48000Y-37000D03*
G54D15*
X48000Y-36000D03*
X48000Y-32500D03*
X47000Y-32500D03*
G54D18*
X49500Y-38146D03*
X49500Y-36854D03*
X50276Y-39189D03*
X50276Y-37897D03*
G54D13*
X58139Y-39016D03*
X57539Y-39016D03*
G54D15*
X47000Y-40000D03*
X48000Y-40000D03*
X49000Y-40000D03*
X50000Y-40000D03*
X51000Y-40000D03*
X52000Y-40000D03*
X53000Y-40000D03*
X54000Y-40000D03*
X55000Y-40000D03*
X56000Y-40000D03*
X57000Y-40000D03*
X58000Y-40000D03*
X59000Y-40000D03*
X60000Y-40000D03*
X61000Y-40000D03*
X62000Y-40000D03*
X63000Y-40000D03*
X64000Y-40000D03*
X65000Y-40000D03*
X66000Y-40000D03*
X47000Y-31000D03*
X48000Y-31000D03*
X49000Y-31000D03*
X50000Y-31000D03*
X51000Y-31000D03*
X52000Y-31000D03*
X53000Y-31000D03*
X54000Y-31000D03*
X55000Y-31000D03*
X56000Y-31000D03*
X57000Y-31000D03*
X58000Y-31000D03*
X59000Y-31000D03*
X60000Y-31000D03*
X61000Y-31000D03*
X62000Y-31000D03*
X63000Y-31000D03*
X64000Y-31000D03*
X65000Y-31000D03*
X66000Y-31000D03*
G54D19*
X59689Y-37921D03*
X60555Y-37173D03*
X59689Y-37173D03*
X60555Y-37921D03*
G54D15*
X65032Y-33269D03*
X62212Y-32243D03*
X65071Y-38070D03*
X62251Y-39096D03*
G54D20*
X49078Y-31929D03*
X50370Y-31929D03*
G54D13*
X64739Y-37185D03*
X65339Y-37185D03*
G54D14*
X65098Y-36599D03*
X65098Y-35999D03*
G54D13*
X65280Y-34016D03*
X64680Y-34016D03*
G54D14*
X65039Y-34759D03*
X65039Y-35359D03*
X49213Y-33716D03*
X49213Y-34316D03*
X49213Y-32613D03*
X49213Y-33213D03*
X49961Y-33716D03*
X49961Y-34316D03*
G54D21*
X56516Y-39291D03*
X52933Y-33543D03*
G54D22*
X51634Y-37028D03*
X55543Y-35016D03*
X55102Y-35197D03*
X53307Y-35169D03*
X56606Y-34138D03*
X55339Y-35496D03*
X55150Y-36177D03*
X63091Y-36457D03*
X63091Y-34961D03*
X54616Y-35089D03*
X63091Y-35945D03*
X55000Y-32772D03*
X63110Y-35394D03*
X54335Y-32862D03*
X56654Y-38898D03*
X55890Y-34291D03*
X55799Y-33736D03*
X55988Y-33988D03*
X57228Y-32209D03*
X54488Y-33161D03*
X50906Y-33110D03*
X54819Y-36157D03*
X57850Y-32339D03*
X58094Y-31961D03*
X58299Y-32205D03*
X58630Y-32067D03*
X59098Y-32024D03*
X57118Y-34051D03*
X61516Y-31959D03*
X57224Y-34350D03*
X61732Y-32776D03*
X57667Y-36831D03*
X58528Y-37744D03*
X57642Y-31972D03*
X53992Y-38461D03*
X53642Y-38465D03*
X54291Y-33594D03*
X61240Y-37402D03*
X61663Y-33159D03*
X51800Y-32150D03*
X54252Y-35069D03*
X56850Y-37606D03*
X56772Y-33465D03*
X50827Y-38622D03*
X51083Y-37067D03*
X62709Y-37882D03*
X54508Y-36083D03*
X57343Y-36831D03*
X56161Y-35679D03*
X64291Y-36949D03*
X64350Y-33839D03*
X64508Y-34449D03*
X64390Y-37402D03*
X58425Y-35815D03*
X60512Y-37835D03*
X61043Y-35413D03*
X55935Y-36014D03*
X55750Y-38825D03*
X53228Y-37319D03*
X56484Y-34476D03*
X55949Y-37484D03*
X57835Y-38406D03*
X61555Y-34665D03*
X55965Y-37028D03*
X50600Y-33550D03*
X53098Y-35909D03*
X52425Y-32600D03*
X52894Y-34567D03*
X61398Y-36319D03*
X48799Y-33425D03*
X50197Y-38740D03*
X50295Y-35394D03*
X61594Y-39213D03*
X49854Y-37835D03*
X50531Y-36850D03*
X55709Y-32087D03*
X55709Y-32087D03*
X53976Y-32126D03*
X55335Y-34622D03*
X54071Y-33358D03*
X51378Y-35591D03*
X49567Y-35157D03*
X51004Y-31988D03*
X61154Y-34437D03*
X59185Y-37807D03*
X59803Y-35591D03*
X52756Y-37264D03*
X56890Y-34409D03*
X56890Y-32441D03*
X62217Y-37449D03*
X55217Y-36762D03*
X56654Y-36969D03*
X58220Y-36189D03*
X53327Y-38563D03*
X51803Y-34618D03*
X51811Y-36378D03*
X48898Y-38780D03*
X48642Y-37894D03*
X50059Y-36850D03*
X51142Y-37579D03*
X49528Y-34567D03*
X53039Y-37031D03*
X52870Y-37862D03*
X53228Y-32697D03*
X55874Y-34917D03*
X51358Y-33524D03*
X47657Y-39331D03*
X51732Y-37343D03*
X51831Y-38465D03*
X51831Y-35217D03*
X51535Y-34823D03*
X48327Y-36496D03*
X50118Y-37441D03*
X64543Y-35939D03*
X64543Y-34939D03*
X64543Y-36439D03*
X64543Y-35439D03*
X49724Y-31732D03*
G54D23*
X54611Y-36970D02*
X54605Y-36970D01*
X53465Y-38232D02*
X52717Y-38091D01*
X51909Y-37185D02*
X51634Y-37028D01*
X52717Y-38091D02*
X51909Y-37185D01*
G54D10*
X54307Y-37488D02*
X53563Y-38213D01*
X53563Y-38213D02*
X53465Y-38232D01*
X54350Y-37224D02*
X54307Y-37488D01*
G54D23*
X54351Y-37224D02*
X54350Y-37224D01*
X54605Y-36970D02*
X54351Y-37224D01*
X55029Y-37388D02*
X55034Y-37388D01*
X56417Y-35551D02*
X55543Y-35016D01*
X56427Y-36114D02*
X56417Y-35551D01*
X55590Y-36792D02*
X56427Y-36114D01*
X55335Y-37087D02*
X55590Y-36792D01*
X55034Y-37388D02*
X55335Y-37087D01*
X55102Y-35197D02*
X54764Y-34461D01*
X54764Y-34461D02*
X54472Y-34169D01*
X53307Y-35169D02*
X53315Y-35169D01*
X55517Y-39026D02*
X55504Y-38661D01*
X55504Y-38661D02*
X55587Y-38500D01*
X55587Y-38500D02*
X55864Y-38223D01*
X54445Y-39181D02*
X55433Y-39122D01*
X55433Y-39122D02*
X55517Y-39026D01*
X53224Y-39189D02*
X54445Y-39181D01*
X51531Y-39035D02*
X53224Y-39189D01*
X50803Y-36016D02*
X50768Y-36988D01*
X50768Y-36988D02*
X50571Y-38386D01*
X50571Y-38386D02*
X50582Y-38648D01*
X50582Y-38648D02*
X50679Y-38838D01*
X50679Y-38838D02*
X51531Y-39035D01*
X53315Y-35169D02*
X51713Y-35492D01*
X51713Y-35492D02*
X51417Y-35295D01*
X51161Y-35450D02*
X50803Y-36016D01*
X51417Y-35295D02*
X51161Y-35450D01*
X52249Y-33051D02*
X52933Y-33051D01*
X52933Y-33051D02*
X52933Y-33543D01*
X54333Y-34308D02*
X54328Y-34308D01*
X54328Y-34308D02*
X54075Y-34055D01*
X54075Y-34055D02*
X53228Y-33051D01*
X53228Y-33051D02*
X52249Y-33051D01*
X50704Y-34350D02*
X50394Y-34350D01*
X50591Y-33819D02*
X50591Y-33819D01*
X50748Y-33799D02*
X51157Y-33297D01*
X51157Y-33297D02*
X51161Y-32323D01*
X51161Y-32323D02*
X51890Y-31614D01*
X50591Y-33819D02*
X50748Y-33799D01*
X51890Y-31614D02*
X57244Y-31594D01*
X59370Y-32008D02*
X59327Y-32315D01*
X59252Y-31791D02*
X59370Y-32008D01*
X57244Y-31594D02*
X59252Y-31791D01*
X59327Y-32315D02*
X58925Y-34045D01*
X58925Y-34045D02*
X58619Y-34351D01*
X50591Y-33819D02*
X50394Y-33996D01*
X50394Y-33996D02*
X50394Y-34350D01*
X50394Y-34350D02*
X50394Y-34866D01*
X50394Y-34866D02*
X48720Y-34862D01*
X48720Y-34862D02*
X47000Y-32500D01*
G54D10*
X56496Y-33386D02*
X56693Y-33228D01*
X56693Y-33228D02*
X56998Y-33189D01*
X56998Y-33189D02*
X57229Y-32961D01*
X56606Y-34138D02*
X56528Y-33583D01*
X56528Y-33583D02*
X56496Y-33386D01*
G54D23*
X57504Y-33791D02*
X57786Y-33517D01*
G54D10*
X56917Y-33870D02*
X57161Y-33594D01*
G54D23*
X56606Y-34138D02*
X56917Y-33870D01*
X57161Y-33594D02*
X57504Y-33791D01*
G54D10*
X54744Y-34882D02*
X54570Y-34823D01*
X54570Y-34823D02*
X54194Y-34447D01*
X54292Y-34823D02*
X54055Y-34586D01*
X54744Y-34882D02*
X54292Y-34823D01*
X55339Y-35496D02*
X55059Y-35433D01*
X55059Y-35433D02*
X54819Y-35276D01*
X54819Y-35276D02*
X54850Y-35012D01*
X54850Y-35012D02*
X54744Y-34882D01*
G54D23*
X54059Y-36414D02*
X54295Y-36177D01*
G54D10*
X54295Y-36177D02*
X54276Y-35969D01*
G54D23*
X54276Y-35969D02*
X54417Y-35871D01*
X54417Y-35871D02*
X54708Y-35795D01*
X54708Y-35795D02*
X55017Y-35996D01*
X55017Y-35996D02*
X55150Y-36177D01*
X54059Y-36414D02*
X54055Y-36414D01*
X62646Y-35070D02*
X62902Y-35071D01*
X62902Y-35071D02*
X63091Y-34961D01*
X59039Y-36230D02*
X59025Y-36230D01*
X59025Y-36230D02*
X58740Y-35945D01*
X58740Y-35945D02*
X58760Y-35807D01*
X58760Y-35807D02*
X59508Y-34941D01*
X59508Y-34941D02*
X60650Y-34941D01*
G54D10*
X60650Y-34941D02*
X60650Y-34941D01*
X60650Y-34941D02*
X61099Y-35087D01*
X61099Y-35087D02*
X61346Y-35441D01*
X61346Y-35441D02*
X61646Y-35445D01*
G54D23*
X54311Y-35315D02*
X54616Y-35089D01*
X53776Y-34865D02*
X53995Y-35089D01*
G54D10*
X53995Y-35089D02*
X54114Y-35256D01*
X54114Y-35256D02*
X54311Y-35315D01*
G54D23*
X55169Y-33473D02*
X55166Y-33473D01*
X55166Y-33473D02*
X54862Y-33169D01*
X54862Y-33169D02*
X54862Y-32835D01*
X54862Y-32835D02*
X55000Y-32772D01*
X55009Y-33612D02*
X55029Y-33612D01*
X54689Y-32963D02*
X54335Y-32862D01*
G54D10*
X54752Y-33355D02*
X54689Y-32963D01*
G54D23*
X55009Y-33612D02*
X54752Y-33355D01*
X57368Y-37900D02*
X57368Y-37899D01*
X57368Y-37899D02*
X57114Y-37645D01*
X57114Y-37645D02*
X57114Y-37523D01*
X57114Y-37523D02*
X56965Y-37374D01*
X56965Y-37374D02*
X56752Y-37374D01*
X56752Y-37374D02*
X56594Y-37532D01*
X56594Y-37532D02*
X56594Y-38590D01*
X56594Y-38590D02*
X56654Y-38898D01*
X57229Y-38039D02*
X57229Y-38040D01*
X58405Y-39405D02*
X59000Y-40000D01*
X57214Y-39389D02*
X58405Y-39405D01*
X57118Y-39245D02*
X57214Y-39389D01*
X57118Y-38630D02*
X57118Y-39245D01*
X57205Y-38543D02*
X57118Y-38630D01*
G54D10*
X57382Y-38531D02*
X57205Y-38543D01*
X57531Y-38394D02*
X57382Y-38531D01*
G54D23*
X57531Y-38342D02*
X57531Y-38394D01*
X57229Y-38040D02*
X57531Y-38342D01*
X55307Y-33334D02*
X55314Y-33334D01*
X55314Y-33334D02*
X55591Y-33611D01*
X55591Y-33611D02*
X55547Y-33846D01*
X55547Y-33846D02*
X55890Y-34291D01*
X55890Y-34291D02*
X55890Y-34291D01*
X55446Y-33195D02*
X55447Y-33195D01*
X55447Y-33195D02*
X55854Y-33602D01*
X55854Y-33602D02*
X55799Y-33736D01*
X55586Y-33056D02*
X55586Y-33058D01*
X55586Y-33058D02*
X55984Y-33456D01*
X55984Y-33456D02*
X56075Y-33693D01*
X56075Y-33693D02*
X55988Y-33988D01*
G54D10*
X57090Y-32821D02*
X57100Y-32821D01*
X57177Y-32260D02*
X57228Y-32209D01*
X57177Y-32744D02*
X57177Y-32260D01*
X57100Y-32821D02*
X57177Y-32744D01*
G54D23*
X54606Y-33472D02*
X54606Y-33303D01*
X54606Y-33303D02*
X54488Y-33161D01*
X54885Y-33751D02*
X54890Y-33751D01*
X54885Y-33751D02*
X54606Y-33472D01*
X49961Y-33661D02*
X50512Y-33110D01*
X50512Y-33110D02*
X50906Y-33110D01*
X49961Y-33716D02*
X49961Y-33661D01*
X49961Y-33716D02*
X49961Y-33465D01*
X49961Y-33465D02*
X49213Y-33465D01*
X49213Y-33716D02*
X49213Y-33465D01*
X49213Y-33465D02*
X49213Y-33213D01*
X54472Y-36831D02*
X54472Y-36828D01*
X54472Y-36828D02*
X54819Y-36481D01*
X54819Y-36481D02*
X54819Y-36157D01*
X57925Y-33657D02*
X57930Y-33657D01*
X57930Y-33657D02*
X58169Y-33418D01*
X58169Y-33418D02*
X58169Y-33244D01*
G54D10*
X58169Y-33244D02*
X58043Y-33118D01*
X58043Y-33118D02*
X58043Y-32574D01*
G54D23*
X58043Y-32574D02*
X57850Y-32339D01*
X58064Y-33796D02*
X58064Y-33791D01*
X58064Y-33791D02*
X58319Y-33536D01*
X58319Y-33536D02*
X58319Y-33205D01*
G54D10*
X58319Y-33205D02*
X58173Y-33059D01*
X58083Y-32252D02*
X58083Y-32060D01*
X58181Y-32535D02*
X58083Y-32252D01*
X58173Y-33059D02*
X58181Y-32535D01*
G54D23*
X58083Y-32060D02*
X58094Y-31961D01*
X58203Y-33935D02*
X58203Y-33934D01*
X58203Y-33934D02*
X58453Y-33684D01*
G54D10*
X58453Y-33684D02*
X58453Y-33138D01*
G54D23*
X58453Y-33138D02*
X58327Y-33012D01*
X58327Y-33012D02*
X58327Y-32233D01*
X58327Y-32233D02*
X58299Y-32205D01*
X58343Y-34074D02*
X58343Y-34067D01*
X58343Y-34067D02*
X58591Y-33819D01*
G54D10*
X58591Y-33819D02*
X58591Y-33076D01*
G54D23*
X58591Y-33076D02*
X58469Y-32954D01*
X58469Y-32954D02*
X58469Y-32374D01*
X58469Y-32374D02*
X58547Y-32296D01*
X58547Y-32296D02*
X58547Y-32150D01*
X58547Y-32150D02*
X58630Y-32067D01*
X58480Y-34212D02*
X58480Y-34206D01*
X58799Y-32323D02*
X59098Y-32024D01*
X58799Y-33887D02*
X58799Y-32323D01*
X58480Y-34206D02*
X58799Y-33887D01*
G54D10*
X58758Y-34490D02*
X58488Y-34760D01*
X58488Y-34760D02*
X57689Y-34760D01*
X57689Y-34760D02*
X57429Y-34146D01*
X57429Y-34146D02*
X57118Y-34051D01*
G54D23*
X61516Y-31959D02*
X63000Y-31000D01*
X58898Y-34630D02*
X58890Y-34630D01*
X58890Y-34630D02*
X58630Y-34890D01*
X58630Y-34890D02*
X57422Y-34890D01*
X57422Y-34890D02*
X57224Y-34350D01*
X61732Y-32776D02*
X62618Y-32854D01*
X62618Y-32854D02*
X64000Y-31000D01*
X58203Y-37065D02*
X58203Y-37057D01*
X58203Y-37057D02*
X57913Y-36772D01*
X57913Y-36772D02*
X57667Y-36831D01*
X58064Y-37204D02*
X58064Y-37205D01*
X58064Y-37205D02*
X58351Y-37492D01*
X58351Y-37492D02*
X58528Y-37744D01*
X57647Y-33379D02*
X57647Y-33377D01*
X57647Y-33377D02*
X57913Y-33111D01*
X57913Y-33111D02*
X57913Y-32945D01*
G54D10*
X57913Y-32945D02*
X57917Y-32941D01*
X57917Y-32941D02*
X57917Y-32760D01*
X57917Y-32760D02*
X57630Y-32473D01*
X57630Y-32473D02*
X57630Y-32260D01*
G54D23*
X57630Y-32260D02*
X57642Y-31972D01*
G54D10*
X58899Y-36369D02*
X58909Y-36369D01*
X63307Y-38307D02*
X65000Y-40000D01*
X62690Y-38307D02*
X63307Y-38307D01*
X61691Y-37349D02*
X62690Y-38307D01*
X61732Y-37008D02*
X61691Y-37349D01*
X61437Y-36614D02*
X61732Y-37008D01*
X59134Y-36614D02*
X61437Y-36614D01*
X58909Y-36369D02*
X59134Y-36614D01*
X58760Y-36508D02*
X59035Y-36772D01*
X63228Y-38504D02*
X64000Y-40000D01*
X61516Y-37382D02*
X62598Y-38504D01*
X62598Y-38504D02*
X63228Y-38504D01*
X61556Y-37060D02*
X61516Y-37382D01*
X61339Y-36772D02*
X61556Y-37060D01*
X59035Y-36772D02*
X61339Y-36772D01*
X57786Y-37483D02*
X57794Y-37483D01*
X60650Y-39449D02*
X61000Y-40000D01*
X59685Y-39449D02*
X60650Y-39449D01*
X59547Y-39311D02*
X59685Y-39449D01*
X59547Y-38661D02*
X59547Y-39311D01*
X58909Y-38055D02*
X59547Y-38661D01*
X58201Y-37890D02*
X58909Y-38055D01*
X57794Y-37483D02*
X58201Y-37890D01*
G54D23*
X54890Y-37249D02*
X54885Y-37249D01*
X54094Y-38169D02*
X53992Y-38461D01*
X54508Y-37717D02*
X54094Y-38169D01*
X54594Y-37540D02*
X54508Y-37717D01*
X54885Y-37249D02*
X54594Y-37540D01*
X54751Y-37109D02*
X54742Y-37109D01*
G54D10*
X54742Y-37109D02*
X54449Y-37402D01*
X54449Y-37402D02*
X54449Y-37517D01*
X54449Y-37517D02*
X53642Y-38324D01*
G54D23*
X53642Y-38324D02*
X53642Y-38465D01*
X54751Y-33891D02*
X54749Y-33891D01*
X54749Y-33891D02*
X54417Y-33559D01*
X54417Y-33559D02*
X54291Y-33594D01*
G54D10*
X57508Y-37761D02*
X57525Y-37761D01*
X58115Y-38351D02*
X58139Y-39016D01*
X57525Y-37761D02*
X58115Y-38351D01*
X58139Y-39016D02*
X58375Y-39130D01*
X58375Y-39130D02*
X58654Y-39130D01*
X58654Y-39130D02*
X58630Y-39106D01*
X58630Y-39106D02*
X58701Y-39040D01*
X59685Y-38878D02*
X59685Y-38563D01*
X58878Y-37378D02*
X58807Y-37181D01*
X58843Y-37587D02*
X58878Y-37378D01*
X58937Y-37874D02*
X58843Y-37587D01*
X59173Y-38091D02*
X58937Y-37874D01*
X59331Y-38248D02*
X59173Y-38091D01*
X58807Y-37181D02*
X58577Y-37160D01*
X58343Y-36926D02*
X58577Y-37160D01*
X59685Y-38563D02*
X59331Y-38248D01*
X59685Y-38878D02*
X59847Y-39016D01*
G54D23*
X59847Y-39016D02*
X60024Y-39020D01*
X60024Y-39020D02*
X60177Y-39173D01*
X60177Y-39173D02*
X60177Y-39291D01*
X60177Y-39291D02*
X60197Y-39311D01*
X60197Y-39311D02*
X61161Y-39311D01*
X61161Y-39311D02*
X61339Y-39133D01*
X61339Y-39133D02*
X61339Y-38366D01*
X61339Y-38366D02*
X61220Y-38247D01*
X61220Y-38247D02*
X61240Y-37402D01*
X61663Y-33159D02*
X62717Y-33228D01*
X62717Y-33228D02*
X65000Y-31000D01*
G54D24*
X59847Y-39016D02*
X60157Y-39020D01*
X60157Y-39020D02*
X60330Y-38878D01*
G54D10*
X51649Y-33051D02*
X51418Y-33051D01*
X51417Y-32533D02*
X51800Y-32150D01*
X51417Y-33050D02*
X51417Y-32533D01*
X51418Y-33051D02*
X51417Y-33050D01*
X52663Y-32165D02*
X51820Y-32165D01*
X51811Y-32156D02*
X51800Y-32150D01*
X51820Y-32165D02*
X51811Y-32156D01*
X58621Y-36648D02*
X58628Y-36648D01*
X59516Y-37000D02*
X59689Y-37173D01*
X58980Y-37000D02*
X59516Y-37000D01*
X58628Y-36648D02*
X58980Y-37000D01*
G54D23*
X57090Y-38179D02*
X57090Y-38422D01*
X57090Y-38422D02*
X56949Y-38544D01*
X56949Y-38544D02*
X56949Y-38957D01*
X56949Y-38957D02*
X56516Y-39291D01*
X53916Y-34726D02*
X53916Y-34733D01*
X54252Y-35069D02*
X53916Y-34733D01*
G54D10*
X57087Y-38179D02*
X56841Y-37933D01*
X56841Y-37933D02*
X56850Y-37606D01*
X57090Y-38179D02*
X57087Y-38179D01*
G54D23*
X57338Y-33095D02*
X57008Y-33425D01*
X57008Y-33425D02*
X56772Y-33465D01*
X57338Y-33095D02*
X57373Y-33095D01*
X55443Y-37805D02*
X55114Y-38142D01*
G54D10*
X55114Y-38142D02*
X54921Y-38142D01*
G54D23*
X54921Y-38142D02*
X54370Y-38386D01*
X54370Y-38386D02*
X54370Y-38386D01*
X54350Y-38661D02*
X54142Y-38858D01*
X54370Y-38386D02*
X54350Y-38661D01*
X54142Y-38858D02*
X53399Y-39025D01*
X53399Y-39025D02*
X53169Y-39004D01*
X53169Y-39004D02*
X50827Y-38622D01*
X55446Y-37805D02*
X55443Y-37805D01*
X55307Y-37666D02*
X55307Y-37685D01*
X55307Y-37685D02*
X55004Y-38008D01*
X55004Y-38008D02*
X54882Y-37972D01*
X54079Y-38689D02*
X53444Y-38843D01*
X54232Y-38268D02*
X54213Y-38563D01*
X54213Y-38563D02*
X54079Y-38689D01*
X54882Y-37972D02*
X54232Y-38268D01*
X53444Y-38843D02*
X53268Y-38858D01*
X53268Y-38858D02*
X51508Y-37547D01*
X51508Y-37547D02*
X51083Y-37067D01*
X54194Y-36553D02*
X54195Y-36553D01*
X61646Y-36390D02*
X62421Y-37264D01*
X62421Y-37264D02*
X62709Y-37882D01*
X61646Y-35820D02*
X61646Y-36390D01*
X54195Y-36553D02*
X54508Y-36240D01*
X54508Y-36240D02*
X54508Y-36083D01*
X57925Y-37343D02*
X57925Y-37334D01*
X57925Y-37334D02*
X57687Y-37106D01*
X57687Y-37106D02*
X57480Y-37047D01*
X57480Y-37047D02*
X57343Y-36831D01*
G54D10*
X54772Y-35409D02*
X54114Y-35492D01*
X55344Y-35758D02*
X54772Y-35409D01*
G54D23*
X55935Y-35748D02*
X55344Y-35758D01*
X56161Y-35679D02*
X55935Y-35748D01*
X53350Y-34815D02*
X52820Y-34910D01*
X53830Y-35300D02*
X53350Y-34815D01*
X54114Y-35492D02*
X53830Y-35300D01*
X52820Y-34910D02*
X52244Y-34390D01*
X52244Y-34390D02*
X52244Y-33720D01*
X52244Y-33720D02*
X51934Y-33720D01*
X57508Y-33239D02*
X57509Y-33239D01*
X57509Y-33239D02*
X57756Y-32992D01*
X57756Y-32992D02*
X57756Y-32795D01*
X57756Y-32795D02*
X57457Y-32496D01*
X57457Y-32496D02*
X57465Y-32161D01*
X57386Y-32012D02*
X57165Y-31831D01*
X57465Y-32161D02*
X57386Y-32012D01*
X57165Y-31831D02*
X56969Y-31791D01*
X56969Y-31791D02*
X53878Y-31791D01*
X53878Y-31791D02*
X53661Y-31890D01*
X53661Y-31890D02*
X53406Y-32165D01*
X53406Y-32165D02*
X53263Y-32165D01*
G54D25*
X48000Y-40000D02*
X47000Y-40000D01*
X49500Y-38146D02*
X49508Y-39075D01*
X49508Y-39075D02*
X48583Y-39213D01*
X48583Y-39213D02*
X48000Y-40000D01*
X50276Y-39189D02*
X50276Y-39508D01*
X50276Y-39508D02*
X50000Y-40000D01*
X50000Y-40000D02*
X49000Y-40000D01*
G54D23*
X65098Y-36599D02*
X65098Y-36752D01*
X65098Y-36752D02*
X65039Y-36811D01*
X65039Y-36811D02*
X65039Y-37461D01*
X65039Y-37461D02*
X65117Y-37539D01*
X65117Y-37539D02*
X65539Y-37539D01*
X65539Y-37539D02*
X66000Y-38000D01*
G54D10*
X65339Y-37185D02*
X65815Y-37185D01*
X65815Y-37185D02*
X66000Y-37000D01*
G54D24*
X66000Y-37000D02*
X65977Y-37000D01*
G54D23*
X65039Y-34759D02*
X65039Y-34587D01*
X65039Y-34587D02*
X65098Y-34528D01*
X65098Y-34528D02*
X65528Y-34528D01*
X65528Y-34528D02*
X66000Y-35000D01*
X65280Y-34016D02*
X65531Y-34016D01*
X65531Y-34016D02*
X66000Y-34000D01*
G54D26*
X57835Y-38406D02*
X57815Y-38559D01*
X57398Y-39016D02*
X57539Y-39016D01*
X57311Y-38929D02*
X57398Y-39016D01*
X57311Y-38748D02*
X57311Y-38929D01*
X57376Y-38683D02*
X57311Y-38748D01*
X57691Y-38683D02*
X57376Y-38683D01*
X57815Y-38559D02*
X57691Y-38683D01*
G54D23*
X59178Y-36090D02*
X59181Y-36090D01*
G54D27*
X60634Y-35437D02*
X60630Y-35728D01*
X60567Y-35370D02*
X60634Y-35437D01*
G54D24*
X59606Y-36378D02*
X60630Y-35728D01*
G54D27*
X59469Y-36378D02*
X59606Y-36378D01*
X60567Y-35370D02*
X60355Y-35370D01*
G54D23*
X59181Y-36090D02*
X59469Y-36378D01*
X59176Y-34907D02*
X59176Y-34902D01*
G54D26*
X60335Y-34055D02*
X60315Y-34035D01*
X60335Y-34310D02*
X60335Y-34055D01*
X60275Y-34370D02*
X60335Y-34310D01*
X59398Y-34693D02*
X60275Y-34370D01*
G54D23*
X59176Y-34902D02*
X59398Y-34693D01*
X59176Y-34907D02*
X59172Y-34907D01*
X59172Y-34907D02*
X58878Y-35205D01*
X58878Y-35205D02*
X58886Y-35205D01*
G54D26*
X58425Y-35815D02*
X58886Y-35205D01*
G54D10*
X60555Y-37921D02*
X60555Y-37173D01*
G54D25*
X60555Y-37921D02*
X60512Y-37835D01*
G54D24*
X60355Y-35370D02*
X60814Y-35370D01*
X60814Y-35370D02*
X61043Y-35413D01*
G54D25*
X61555Y-34665D02*
X61555Y-34302D01*
X61288Y-34035D02*
X60103Y-34035D01*
X61555Y-34302D02*
X61288Y-34035D01*
G54D10*
X53776Y-36135D02*
X53715Y-36027D01*
G54D25*
X53091Y-35906D02*
X52280Y-36204D01*
X53715Y-36027D02*
X53091Y-35906D01*
G54D23*
X53776Y-36135D02*
X53776Y-36129D01*
X53776Y-36129D02*
X54037Y-35868D01*
G54D27*
X54037Y-35868D02*
X54173Y-35732D01*
X54173Y-35732D02*
X54744Y-35600D01*
X54744Y-35600D02*
X55404Y-36024D01*
G54D24*
X55404Y-36024D02*
X55935Y-36014D01*
X52280Y-35891D02*
X52280Y-36204D01*
G54D26*
X51260Y-35906D02*
X51496Y-35906D01*
X51496Y-35906D02*
X51555Y-35846D01*
G54D24*
X51555Y-35846D02*
X51693Y-35709D01*
X51693Y-35709D02*
X52169Y-35780D01*
X52169Y-35780D02*
X52280Y-35891D01*
G54D26*
X51260Y-36117D02*
X51260Y-35906D01*
G54D23*
X54641Y-38724D02*
X54816Y-38724D01*
X54816Y-38724D02*
X54941Y-38599D01*
X54941Y-38599D02*
X54941Y-38350D01*
X54941Y-38350D02*
X54988Y-38303D01*
X54988Y-38303D02*
X55227Y-38303D01*
X55227Y-38303D02*
X55586Y-37944D01*
G54D10*
X60930Y-38878D02*
X61181Y-38878D01*
X61181Y-38878D02*
X61181Y-38504D01*
X61181Y-38504D02*
X60551Y-38346D01*
X60551Y-38346D02*
X60555Y-37921D01*
X60103Y-34035D02*
X60315Y-34035D01*
G54D24*
X60315Y-34035D02*
X60354Y-33996D01*
X60354Y-33996D02*
X61142Y-33130D01*
X61142Y-33130D02*
X60290Y-33091D01*
G54D26*
X56180Y-32441D02*
X55673Y-32441D01*
G54D10*
X55864Y-32773D02*
X55610Y-32539D01*
X55610Y-32539D02*
X55673Y-32441D01*
X55864Y-32773D02*
X55864Y-32777D01*
G54D25*
X62646Y-35820D02*
X62185Y-35827D01*
G54D24*
X62165Y-34685D02*
X61555Y-34665D01*
G54D25*
X62185Y-35827D02*
X62165Y-34685D01*
G54D10*
X56142Y-33071D02*
X55864Y-32777D01*
G54D24*
X56484Y-34476D02*
X56224Y-34299D01*
X56224Y-34299D02*
X56295Y-34031D01*
X56295Y-34031D02*
X56291Y-33685D01*
G54D27*
X56291Y-33685D02*
X56142Y-33071D01*
G54D10*
X55856Y-37674D02*
X55586Y-37944D01*
X55949Y-37484D02*
X55856Y-37674D01*
G54D23*
X49961Y-34316D02*
X49961Y-34567D01*
X49961Y-34567D02*
X49528Y-34567D01*
X49213Y-34316D02*
X49213Y-34567D01*
X49213Y-34567D02*
X49528Y-34567D01*
X51304Y-34350D02*
X51575Y-34350D01*
X51732Y-34449D02*
X51803Y-34618D01*
X51575Y-34350D02*
X51732Y-34449D01*
G54D26*
X55339Y-32185D02*
X55611Y-32185D01*
X55611Y-32185D02*
X55709Y-32087D01*
X59036Y-34768D02*
X59036Y-34763D01*
X59036Y-34763D02*
X59252Y-34547D01*
X59291Y-34035D02*
X59311Y-34035D01*
X59252Y-34547D02*
X59291Y-34035D01*
X59036Y-34768D02*
X58787Y-35020D01*
X58094Y-35697D02*
X58220Y-36189D01*
X58094Y-35697D02*
X58787Y-35020D01*
G54D28*
X51000Y-40000D02*
X52000Y-40000D01*
X49000Y-31000D02*
X50000Y-31000D01*
G54D24*
X59689Y-38214D02*
X59689Y-37921D01*
X59775Y-38300D02*
X59689Y-38214D01*
X55339Y-32185D02*
X55618Y-32181D01*
G54D26*
X56969Y-32441D02*
X56890Y-32441D01*
X56969Y-32077D02*
X56969Y-32441D01*
G54D27*
X56831Y-32004D02*
X56969Y-32077D01*
G54D24*
X55795Y-32004D02*
X56831Y-32004D01*
X55618Y-32181D02*
X55795Y-32004D01*
G54D10*
X56890Y-32441D02*
X56780Y-32441D01*
X58701Y-38440D02*
X58630Y-38488D01*
X59146Y-38749D02*
X59247Y-39016D01*
X59146Y-38736D02*
X59146Y-38749D01*
X58957Y-38449D02*
X59146Y-38736D01*
X58689Y-38449D02*
X58957Y-38449D01*
X58630Y-38488D02*
X58689Y-38449D01*
X58701Y-38440D02*
X58701Y-38209D01*
X58213Y-38189D02*
X58398Y-38154D01*
X57648Y-37621D02*
X58213Y-38189D01*
X57648Y-37621D02*
X57647Y-37621D01*
X58701Y-38209D02*
X58398Y-38154D01*
G54D26*
X51756Y-36673D02*
X51756Y-36512D01*
G54D10*
X51756Y-36512D02*
X51811Y-36378D01*
X52756Y-37264D02*
X52806Y-37264D01*
X52806Y-37264D02*
X53039Y-37031D01*
G54D26*
X52756Y-37264D02*
X52548Y-37264D01*
G54D10*
X52278Y-37152D02*
X52280Y-36804D01*
G54D26*
X52548Y-37264D02*
X52278Y-37152D01*
G54D10*
X52280Y-36804D02*
X52799Y-36804D01*
X52799Y-36804D02*
X52810Y-36815D01*
G54D27*
X51260Y-36717D02*
X51260Y-36417D01*
X51535Y-36417D02*
X51811Y-36378D01*
X51260Y-36417D02*
X51535Y-36417D01*
G54D26*
X51756Y-36673D02*
X51945Y-36850D01*
G54D10*
X51945Y-36850D02*
X51948Y-36969D01*
X51948Y-36969D02*
X52028Y-37046D01*
G54D27*
X52028Y-37046D02*
X52283Y-37047D01*
G54D10*
X52283Y-37047D02*
X52280Y-36804D01*
G54D23*
X55241Y-38724D02*
X55241Y-38597D01*
X55241Y-38597D02*
X55453Y-38385D01*
X55453Y-38385D02*
X55453Y-38356D01*
X55453Y-38356D02*
X55725Y-38084D01*
G54D24*
X61646Y-35070D02*
X61646Y-34961D01*
G54D10*
X61646Y-34961D02*
X61634Y-34921D01*
G54D23*
X61634Y-34921D02*
X61280Y-34902D01*
G54D24*
X61280Y-34902D02*
X61154Y-34584D01*
X61154Y-34584D02*
X61154Y-34437D01*
G54D27*
X55000Y-40000D02*
X54662Y-40000D01*
X54662Y-40000D02*
X54724Y-39390D01*
G54D24*
X59347Y-37921D02*
X59185Y-37807D01*
X59689Y-37921D02*
X59347Y-37921D01*
G54D10*
X59755Y-35370D02*
X59755Y-35535D01*
X59755Y-35535D02*
X59803Y-35591D01*
G54D24*
X52000Y-40000D02*
X52000Y-39858D01*
G54D28*
X52000Y-39858D02*
X51673Y-39390D01*
G54D24*
X51000Y-40000D02*
X51142Y-40000D01*
G54D28*
X51142Y-40000D02*
X51673Y-39390D01*
G54D25*
X56358Y-37421D02*
X56654Y-36969D01*
X56122Y-38524D02*
X56343Y-38150D01*
X56343Y-38150D02*
X56358Y-37421D01*
G54D24*
X55669Y-39390D02*
X56024Y-38957D01*
X56024Y-38957D02*
X56122Y-38524D01*
X54724Y-39390D02*
X55669Y-39390D01*
X51673Y-39390D02*
X54724Y-39390D01*
X56654Y-36969D02*
X56213Y-37638D01*
G54D10*
X55972Y-37846D02*
X55725Y-38084D01*
G54D24*
X56213Y-37638D02*
X55972Y-37846D01*
G54D25*
X57087Y-36575D02*
X56654Y-36969D01*
X58220Y-36189D02*
X57087Y-36575D01*
X56654Y-36969D02*
X56654Y-36969D01*
G54D10*
X52756Y-37264D02*
X52808Y-37264D01*
X53154Y-37610D02*
X53406Y-37862D01*
X52933Y-37496D02*
X53154Y-37610D01*
X52808Y-37264D02*
X52933Y-37496D01*
X53406Y-37862D02*
X53469Y-37791D01*
G54D26*
X59311Y-34035D02*
X59291Y-33465D01*
X59370Y-33091D02*
X59690Y-33091D01*
X59291Y-33465D02*
X59370Y-33091D01*
G54D10*
X59311Y-34035D02*
X59503Y-34035D01*
X56780Y-32441D02*
X56819Y-32437D01*
X56819Y-32437D02*
X56890Y-32441D01*
G54D24*
X58220Y-36189D02*
X56969Y-34685D01*
X56969Y-34685D02*
X56890Y-34409D01*
G54D10*
X57333Y-37307D02*
X57647Y-37621D01*
G54D24*
X56654Y-36969D02*
X57333Y-37307D01*
G54D25*
X48000Y-31000D02*
X48000Y-31346D01*
X48000Y-31346D02*
X48583Y-31929D01*
X48583Y-31929D02*
X49078Y-31929D01*
G54D23*
X49078Y-31929D02*
X48583Y-31929D01*
X48583Y-31929D02*
X48583Y-31910D01*
X48583Y-32166D02*
X48583Y-31910D01*
X48779Y-32362D02*
X48583Y-32166D01*
X49173Y-32362D02*
X48779Y-32362D01*
X49213Y-32402D02*
X49173Y-32362D01*
X49213Y-32613D02*
X49213Y-32402D01*
X54611Y-34030D02*
X54382Y-33807D01*
X54173Y-33819D02*
X53878Y-33485D01*
X53878Y-33485D02*
X53228Y-32697D01*
G54D10*
X54382Y-33807D02*
X54173Y-33819D01*
G54D23*
X55169Y-37527D02*
X55190Y-37527D01*
X55190Y-37527D02*
X55463Y-37254D01*
X55463Y-37254D02*
X55592Y-37016D01*
X55592Y-37016D02*
X56594Y-36187D01*
X56594Y-36187D02*
X56594Y-35326D01*
X56594Y-35326D02*
X55874Y-34917D01*
X51334Y-33720D02*
X51456Y-33622D01*
X51456Y-33622D02*
X51358Y-33524D01*
X53893Y-37367D02*
X53963Y-37438D01*
X53963Y-37438D02*
X53988Y-37413D01*
X53988Y-37413D02*
X53988Y-37125D01*
X53988Y-37125D02*
X53984Y-37121D01*
X53984Y-37121D02*
X53984Y-37044D01*
X53984Y-37044D02*
X54333Y-36695D01*
X54333Y-36695D02*
X54333Y-36692D01*
G54D10*
X55725Y-32916D02*
X55723Y-32916D01*
X54488Y-32185D02*
X54739Y-32185D01*
X54488Y-32539D02*
X54488Y-32185D01*
X54980Y-32539D02*
X54488Y-32539D01*
X55723Y-32916D02*
X55433Y-32626D01*
X55433Y-32626D02*
X54980Y-32539D01*
G54D23*
X53916Y-36274D02*
X53916Y-36277D01*
X53916Y-36277D02*
X53551Y-36642D01*
X53551Y-36642D02*
X53551Y-36674D01*
X53551Y-36674D02*
X53410Y-36815D01*
G54D25*
X50118Y-37499D02*
X50118Y-37441D01*
X50276Y-37657D02*
X50118Y-37499D01*
G54D23*
X50276Y-37897D02*
X50276Y-37657D01*
G54D25*
X47000Y-37000D02*
X47500Y-37500D01*
X47500Y-37500D02*
X48406Y-37500D01*
X48406Y-37500D02*
X48676Y-37382D01*
X48676Y-37382D02*
X50086Y-37382D01*
X50086Y-37382D02*
X50276Y-37657D01*
G54D23*
X65039Y-35359D02*
X65039Y-35572D01*
X65039Y-35572D02*
X64942Y-35669D01*
X64942Y-35669D02*
X64813Y-35669D01*
X64813Y-35669D02*
X64543Y-35939D01*
G54D10*
X64547Y-35943D02*
X64543Y-35939D01*
X64547Y-35943D02*
X64547Y-35945D01*
G54D23*
X65098Y-35999D02*
X65098Y-35768D01*
X65098Y-35768D02*
X65157Y-35709D01*
X65157Y-35709D02*
X65373Y-35709D01*
X65373Y-35709D02*
X65453Y-35629D01*
X65453Y-35629D02*
X65453Y-35197D01*
X65453Y-35197D02*
X65315Y-35059D01*
X65315Y-35059D02*
X64663Y-35059D01*
X64663Y-35059D02*
X64543Y-34939D01*
X64545Y-34941D02*
X64547Y-34941D01*
X64545Y-34941D02*
X64543Y-34939D01*
G54D10*
X64545Y-36437D02*
X64547Y-36437D01*
X64545Y-36437D02*
X64543Y-36439D01*
G54D23*
X64739Y-37185D02*
X64528Y-37185D01*
X64528Y-37185D02*
X64528Y-36454D01*
X64528Y-36454D02*
X64543Y-36439D01*
X64680Y-34016D02*
X64488Y-34016D01*
X64488Y-34016D02*
X64213Y-34291D01*
X64213Y-34291D02*
X64213Y-35147D01*
X64213Y-35147D02*
X64543Y-35439D01*
X64547Y-35435D02*
X64547Y-35433D01*
X64547Y-35435D02*
X64543Y-35439D01*
G54D25*
X49961Y-31949D02*
X50370Y-31929D01*
X49961Y-31949D02*
X49724Y-31732D01*
X48000Y-37000D02*
X48500Y-37000D01*
X48500Y-37000D02*
X49000Y-36500D01*
X49000Y-36500D02*
X49500Y-36500D01*
X49500Y-36500D02*
X49500Y-36854D01*
G54D10*
G36*
X49153Y-37767D02*
X49090Y-37830D01*
X49053Y-37920D01*
X49053Y-38018D01*
X49053Y-38372D01*
X49090Y-38462D01*
X49117Y-38489D01*
X49120Y-38743D01*
X48526Y-38832D01*
X48496Y-38842D01*
X48496Y-38069D01*
X48470Y-38009D01*
X48009Y-38009D01*
X48009Y-38385D01*
X48168Y-38385D01*
X48312Y-38337D01*
X48426Y-38237D01*
X48493Y-38101D01*
X48496Y-38069D01*
X48496Y-38842D01*
X48435Y-38864D01*
X48384Y-38883D01*
X48273Y-38984D01*
X48029Y-39313D01*
X48029Y-39257D01*
X47972Y-39120D01*
X47868Y-39016D01*
X47731Y-38959D01*
X47583Y-38959D01*
X47446Y-39016D01*
X47342Y-39120D01*
X47339Y-39127D01*
X47339Y-38352D01*
X47000Y-38013D01*
X46661Y-38352D01*
X46701Y-38426D01*
X46886Y-38508D01*
X47089Y-38513D01*
X47279Y-38440D01*
X47299Y-38426D01*
X47339Y-38352D01*
X47339Y-39127D01*
X47285Y-39257D01*
X47285Y-39405D01*
X47295Y-39429D01*
X47128Y-39360D01*
X46873Y-39360D01*
X46638Y-39457D01*
X46572Y-39523D01*
X46572Y-38296D01*
X46574Y-38299D01*
X46648Y-38339D01*
X46987Y-38000D01*
X46648Y-37661D01*
X46574Y-37701D01*
X46572Y-37705D01*
X46572Y-37477D01*
X46637Y-37542D01*
X46705Y-37570D01*
X46701Y-37574D01*
X46661Y-37648D01*
X46965Y-37952D01*
X47000Y-37987D01*
X47013Y-38000D01*
X47048Y-38035D01*
X47352Y-38339D01*
X47426Y-38299D01*
X47508Y-38114D01*
X47508Y-38103D01*
X47574Y-38237D01*
X47688Y-38337D01*
X47832Y-38385D01*
X47991Y-38385D01*
X47991Y-38059D01*
X47991Y-38009D01*
X47991Y-37991D01*
X48009Y-37991D01*
X48059Y-37991D01*
X48470Y-37991D01*
X48496Y-37931D01*
X48493Y-37899D01*
X48479Y-37870D01*
X48486Y-37869D01*
X48553Y-37856D01*
X48556Y-37853D01*
X48560Y-37853D01*
X48756Y-37767D01*
X49153Y-37767D01*
X49153Y-37767D01*
G37*
G54D29*
X49153Y-37767D02*
X49090Y-37830D01*
X49053Y-37920D01*
X49053Y-38018D01*
X49053Y-38372D01*
X49090Y-38462D01*
X49117Y-38489D01*
X49120Y-38743D01*
X48526Y-38832D01*
X48496Y-38842D01*
X48496Y-38069D01*
X48470Y-38009D01*
X48009Y-38009D01*
X48009Y-38385D01*
X48168Y-38385D01*
X48312Y-38337D01*
X48426Y-38237D01*
X48493Y-38101D01*
X48496Y-38069D01*
X48496Y-38842D01*
X48435Y-38864D01*
X48384Y-38883D01*
X48273Y-38984D01*
X48029Y-39313D01*
X48029Y-39257D01*
X47972Y-39120D01*
X47868Y-39016D01*
X47731Y-38959D01*
X47583Y-38959D01*
X47446Y-39016D01*
X47342Y-39120D01*
X47339Y-39127D01*
X47339Y-38352D01*
X47000Y-38013D01*
X46661Y-38352D01*
X46701Y-38426D01*
X46886Y-38508D01*
X47089Y-38513D01*
X47279Y-38440D01*
X47299Y-38426D01*
X47339Y-38352D01*
X47339Y-39127D01*
X47285Y-39257D01*
X47285Y-39405D01*
X47295Y-39429D01*
X47128Y-39360D01*
X46873Y-39360D01*
X46638Y-39457D01*
X46572Y-39523D01*
X46572Y-38296D01*
X46574Y-38299D01*
X46648Y-38339D01*
X46987Y-38000D01*
X46648Y-37661D01*
X46574Y-37701D01*
X46572Y-37705D01*
X46572Y-37477D01*
X46637Y-37542D01*
X46705Y-37570D01*
X46701Y-37574D01*
X46661Y-37648D01*
X46965Y-37952D01*
X47000Y-37987D01*
X47013Y-38000D01*
X47048Y-38035D01*
X47352Y-38339D01*
X47426Y-38299D01*
X47508Y-38114D01*
X47508Y-38103D01*
X47574Y-38237D01*
X47688Y-38337D01*
X47832Y-38385D01*
X47991Y-38385D01*
X47991Y-38059D01*
X47991Y-38009D01*
X47991Y-37991D01*
X48009Y-37991D01*
X48059Y-37991D01*
X48470Y-37991D01*
X48496Y-37931D01*
X48493Y-37899D01*
X48479Y-37870D01*
X48486Y-37869D01*
X48553Y-37856D01*
X48556Y-37853D01*
X48560Y-37853D01*
X48756Y-37767D01*
X49153Y-37767D01*
G54D10*
G36*
X50108Y-34578D02*
X49952Y-34577D01*
X49952Y-34538D01*
X49952Y-34325D01*
X49639Y-34325D01*
X49607Y-34357D01*
X49607Y-34466D01*
X49626Y-34513D01*
X49662Y-34550D01*
X49710Y-34570D01*
X49761Y-34570D01*
X49920Y-34570D01*
X49952Y-34538D01*
X49952Y-34577D01*
X49567Y-34577D01*
X49567Y-34466D01*
X49567Y-34357D01*
X49535Y-34325D01*
X49222Y-34325D01*
X49222Y-34538D01*
X49254Y-34570D01*
X49413Y-34570D01*
X49464Y-34570D01*
X49512Y-34550D01*
X49548Y-34513D01*
X49567Y-34466D01*
X49567Y-34577D01*
X49204Y-34576D01*
X49204Y-34538D01*
X49204Y-34325D01*
X48891Y-34325D01*
X48859Y-34357D01*
X48859Y-34466D01*
X48878Y-34513D01*
X48914Y-34550D01*
X48962Y-34570D01*
X49013Y-34570D01*
X49172Y-34570D01*
X49204Y-34538D01*
X49204Y-34576D01*
X48867Y-34576D01*
X47798Y-33109D01*
X47872Y-33140D01*
X48127Y-33140D01*
X48362Y-33043D01*
X48542Y-32863D01*
X48640Y-32628D01*
X48640Y-32606D01*
X48669Y-32626D01*
X48670Y-32626D01*
X48742Y-32640D01*
X48742Y-32787D01*
X48779Y-32877D01*
X48815Y-32913D01*
X48779Y-32949D01*
X48742Y-33039D01*
X48742Y-33053D01*
X48725Y-33053D01*
X48588Y-33110D01*
X48484Y-33214D01*
X48427Y-33351D01*
X48427Y-33499D01*
X48484Y-33636D01*
X48588Y-33740D01*
X48725Y-33797D01*
X48742Y-33797D01*
X48742Y-33890D01*
X48779Y-33980D01*
X48849Y-34050D01*
X48920Y-34079D01*
X48914Y-34082D01*
X48878Y-34119D01*
X48859Y-34166D01*
X48859Y-34275D01*
X48891Y-34307D01*
X49154Y-34307D01*
X49204Y-34307D01*
X49222Y-34307D01*
X49272Y-34307D01*
X49535Y-34307D01*
X49567Y-34275D01*
X49567Y-34166D01*
X49548Y-34119D01*
X49512Y-34082D01*
X49505Y-34079D01*
X49577Y-34050D01*
X49587Y-34040D01*
X49597Y-34050D01*
X49668Y-34079D01*
X49662Y-34082D01*
X49626Y-34119D01*
X49607Y-34166D01*
X49607Y-34275D01*
X49639Y-34307D01*
X49902Y-34307D01*
X49952Y-34307D01*
X49970Y-34307D01*
X49970Y-34325D01*
X49970Y-34375D01*
X49970Y-34538D01*
X50002Y-34570D01*
X50108Y-34570D01*
X50108Y-34578D01*
X50108Y-34578D01*
G37*
G54D29*
X50108Y-34578D02*
X49952Y-34577D01*
X49952Y-34538D01*
X49952Y-34325D01*
X49639Y-34325D01*
X49607Y-34357D01*
X49607Y-34466D01*
X49626Y-34513D01*
X49662Y-34550D01*
X49710Y-34570D01*
X49761Y-34570D01*
X49920Y-34570D01*
X49952Y-34538D01*
X49952Y-34577D01*
X49567Y-34577D01*
X49567Y-34466D01*
X49567Y-34357D01*
X49535Y-34325D01*
X49222Y-34325D01*
X49222Y-34538D01*
X49254Y-34570D01*
X49413Y-34570D01*
X49464Y-34570D01*
X49512Y-34550D01*
X49548Y-34513D01*
X49567Y-34466D01*
X49567Y-34577D01*
X49204Y-34576D01*
X49204Y-34538D01*
X49204Y-34325D01*
X48891Y-34325D01*
X48859Y-34357D01*
X48859Y-34466D01*
X48878Y-34513D01*
X48914Y-34550D01*
X48962Y-34570D01*
X49013Y-34570D01*
X49172Y-34570D01*
X49204Y-34538D01*
X49204Y-34576D01*
X48867Y-34576D01*
X47798Y-33109D01*
X47872Y-33140D01*
X48127Y-33140D01*
X48362Y-33043D01*
X48542Y-32863D01*
X48640Y-32628D01*
X48640Y-32606D01*
X48669Y-32626D01*
X48670Y-32626D01*
X48742Y-32640D01*
X48742Y-32787D01*
X48779Y-32877D01*
X48815Y-32913D01*
X48779Y-32949D01*
X48742Y-33039D01*
X48742Y-33053D01*
X48725Y-33053D01*
X48588Y-33110D01*
X48484Y-33214D01*
X48427Y-33351D01*
X48427Y-33499D01*
X48484Y-33636D01*
X48588Y-33740D01*
X48725Y-33797D01*
X48742Y-33797D01*
X48742Y-33890D01*
X48779Y-33980D01*
X48849Y-34050D01*
X48920Y-34079D01*
X48914Y-34082D01*
X48878Y-34119D01*
X48859Y-34166D01*
X48859Y-34275D01*
X48891Y-34307D01*
X49154Y-34307D01*
X49204Y-34307D01*
X49222Y-34307D01*
X49272Y-34307D01*
X49535Y-34307D01*
X49567Y-34275D01*
X49567Y-34166D01*
X49548Y-34119D01*
X49512Y-34082D01*
X49505Y-34079D01*
X49577Y-34050D01*
X49587Y-34040D01*
X49597Y-34050D01*
X49668Y-34079D01*
X49662Y-34082D01*
X49626Y-34119D01*
X49607Y-34166D01*
X49607Y-34275D01*
X49639Y-34307D01*
X49902Y-34307D01*
X49952Y-34307D01*
X49970Y-34307D01*
X49970Y-34325D01*
X49970Y-34375D01*
X49970Y-34538D01*
X50002Y-34570D01*
X50108Y-34570D01*
X50108Y-34578D01*
G54D10*
G36*
X50577Y-31482D02*
X50498Y-31482D01*
X50169Y-31482D01*
X50279Y-31440D01*
X50299Y-31426D01*
X50339Y-31352D01*
X50035Y-31048D01*
X50000Y-31013D01*
X49987Y-31000D01*
X49952Y-30965D01*
X49648Y-30661D01*
X49574Y-30701D01*
X49498Y-30872D01*
X49440Y-30721D01*
X49426Y-30701D01*
X49352Y-30661D01*
X49013Y-31000D01*
X49352Y-31339D01*
X49426Y-31299D01*
X49501Y-31127D01*
X49560Y-31279D01*
X49574Y-31299D01*
X49602Y-31314D01*
X49583Y-31334D01*
X49617Y-31368D01*
X49561Y-31383D01*
X49517Y-31415D01*
X49513Y-31417D01*
X49508Y-31421D01*
X49440Y-31472D01*
X49411Y-31518D01*
X49409Y-31521D01*
X49406Y-31526D01*
X49404Y-31529D01*
X49394Y-31519D01*
X49304Y-31482D01*
X49206Y-31482D01*
X49169Y-31482D01*
X49279Y-31440D01*
X49299Y-31426D01*
X49339Y-31352D01*
X49000Y-31013D01*
X48661Y-31352D01*
X48701Y-31426D01*
X48839Y-31487D01*
X48762Y-31519D01*
X48739Y-31541D01*
X48547Y-31349D01*
X48570Y-31294D01*
X48574Y-31299D01*
X48648Y-31339D01*
X48987Y-31000D01*
X48648Y-30661D01*
X48574Y-30701D01*
X48571Y-30706D01*
X48543Y-30638D01*
X48477Y-30572D01*
X48703Y-30572D01*
X48701Y-30574D01*
X48661Y-30648D01*
X49000Y-30987D01*
X49339Y-30648D01*
X49299Y-30574D01*
X49294Y-30572D01*
X49703Y-30572D01*
X49701Y-30574D01*
X49661Y-30648D01*
X50000Y-30987D01*
X50339Y-30648D01*
X50299Y-30574D01*
X50294Y-30572D01*
X50523Y-30572D01*
X50458Y-30637D01*
X50429Y-30705D01*
X50426Y-30701D01*
X50352Y-30661D01*
X50013Y-31000D01*
X50352Y-31339D01*
X50426Y-31299D01*
X50428Y-31293D01*
X50457Y-31362D01*
X50577Y-31482D01*
X50577Y-31482D01*
G37*
G54D29*
X50577Y-31482D02*
X50498Y-31482D01*
X50169Y-31482D01*
X50279Y-31440D01*
X50299Y-31426D01*
X50339Y-31352D01*
X50035Y-31048D01*
X50000Y-31013D01*
X49987Y-31000D01*
X49952Y-30965D01*
X49648Y-30661D01*
X49574Y-30701D01*
X49498Y-30872D01*
X49440Y-30721D01*
X49426Y-30701D01*
X49352Y-30661D01*
X49013Y-31000D01*
X49352Y-31339D01*
X49426Y-31299D01*
X49501Y-31127D01*
X49560Y-31279D01*
X49574Y-31299D01*
X49602Y-31314D01*
X49583Y-31334D01*
X49617Y-31368D01*
X49561Y-31383D01*
X49517Y-31415D01*
X49513Y-31417D01*
X49508Y-31421D01*
X49440Y-31472D01*
X49411Y-31518D01*
X49409Y-31521D01*
X49406Y-31526D01*
X49404Y-31529D01*
X49394Y-31519D01*
X49304Y-31482D01*
X49206Y-31482D01*
X49169Y-31482D01*
X49279Y-31440D01*
X49299Y-31426D01*
X49339Y-31352D01*
X49000Y-31013D01*
X48661Y-31352D01*
X48701Y-31426D01*
X48839Y-31487D01*
X48762Y-31519D01*
X48739Y-31541D01*
X48547Y-31349D01*
X48570Y-31294D01*
X48574Y-31299D01*
X48648Y-31339D01*
X48987Y-31000D01*
X48648Y-30661D01*
X48574Y-30701D01*
X48571Y-30706D01*
X48543Y-30638D01*
X48477Y-30572D01*
X48703Y-30572D01*
X48701Y-30574D01*
X48661Y-30648D01*
X49000Y-30987D01*
X49339Y-30648D01*
X49299Y-30574D01*
X49294Y-30572D01*
X49703Y-30572D01*
X49701Y-30574D01*
X49661Y-30648D01*
X50000Y-30987D01*
X50339Y-30648D01*
X50299Y-30574D01*
X50294Y-30572D01*
X50523Y-30572D01*
X50458Y-30637D01*
X50429Y-30705D01*
X50426Y-30701D01*
X50352Y-30661D01*
X50013Y-31000D01*
X50352Y-31339D01*
X50426Y-31299D01*
X50428Y-31293D01*
X50457Y-31362D01*
X50577Y-31482D01*
G54D10*
G36*
X51248Y-35062D02*
X51013Y-35205D01*
X51003Y-35213D01*
X50996Y-35217D01*
X50965Y-35248D01*
X50931Y-35281D01*
X50927Y-35289D01*
X50919Y-35298D01*
X50561Y-35863D01*
X50552Y-35886D01*
X50544Y-35898D01*
X50537Y-35926D01*
X50522Y-35967D01*
X50522Y-35987D01*
X50518Y-36006D01*
X50500Y-36478D01*
X50457Y-36478D01*
X50320Y-36535D01*
X50216Y-36639D01*
X50159Y-36776D01*
X50159Y-36924D01*
X50198Y-37019D01*
X50189Y-37017D01*
X50155Y-37004D01*
X50122Y-37004D01*
X50086Y-36997D01*
X49947Y-36997D01*
X49947Y-36982D01*
X49947Y-36628D01*
X49910Y-36538D01*
X49885Y-36513D01*
X49885Y-36500D01*
X49856Y-36353D01*
X49772Y-36228D01*
X49647Y-36144D01*
X49500Y-36115D01*
X49000Y-36115D01*
X48852Y-36144D01*
X48728Y-36228D01*
X48650Y-36305D01*
X48642Y-36285D01*
X48594Y-36237D01*
X48640Y-36128D01*
X48640Y-35873D01*
X48543Y-35638D01*
X48363Y-35458D01*
X48128Y-35360D01*
X47873Y-35360D01*
X47638Y-35457D01*
X47500Y-35595D01*
X47405Y-35500D01*
X47542Y-35363D01*
X47640Y-35128D01*
X47640Y-34873D01*
X47543Y-34638D01*
X47405Y-34500D01*
X47542Y-34363D01*
X47640Y-34128D01*
X47640Y-33873D01*
X47630Y-33850D01*
X48490Y-35029D01*
X48501Y-35039D01*
X48518Y-35064D01*
X48555Y-35089D01*
X48572Y-35104D01*
X48585Y-35108D01*
X48611Y-35126D01*
X48660Y-35135D01*
X48677Y-35142D01*
X48688Y-35141D01*
X48720Y-35148D01*
X50012Y-35150D01*
X49980Y-35183D01*
X49923Y-35320D01*
X49923Y-35468D01*
X49980Y-35605D01*
X50084Y-35709D01*
X50221Y-35766D01*
X50369Y-35766D01*
X50506Y-35709D01*
X50610Y-35605D01*
X50667Y-35468D01*
X50667Y-35320D01*
X50610Y-35183D01*
X50535Y-35108D01*
X50596Y-35068D01*
X50596Y-35067D01*
X50658Y-34975D01*
X50658Y-34974D01*
X50680Y-34866D01*
X50680Y-34865D01*
X50680Y-34821D01*
X50878Y-34821D01*
X50968Y-34784D01*
X51038Y-34714D01*
X51067Y-34642D01*
X51070Y-34649D01*
X51107Y-34685D01*
X51154Y-34704D01*
X51181Y-34704D01*
X51163Y-34749D01*
X51163Y-34897D01*
X51220Y-35034D01*
X51248Y-35062D01*
X51248Y-35062D01*
G37*
G54D29*
X51248Y-35062D02*
X51013Y-35205D01*
X51003Y-35213D01*
X50996Y-35217D01*
X50965Y-35248D01*
X50931Y-35281D01*
X50927Y-35289D01*
X50919Y-35298D01*
X50561Y-35863D01*
X50552Y-35886D01*
X50544Y-35898D01*
X50537Y-35926D01*
X50522Y-35967D01*
X50522Y-35987D01*
X50518Y-36006D01*
X50500Y-36478D01*
X50457Y-36478D01*
X50320Y-36535D01*
X50216Y-36639D01*
X50159Y-36776D01*
X50159Y-36924D01*
X50198Y-37019D01*
X50189Y-37017D01*
X50155Y-37004D01*
X50122Y-37004D01*
X50086Y-36997D01*
X49947Y-36997D01*
X49947Y-36982D01*
X49947Y-36628D01*
X49910Y-36538D01*
X49885Y-36513D01*
X49885Y-36500D01*
X49856Y-36353D01*
X49772Y-36228D01*
X49647Y-36144D01*
X49500Y-36115D01*
X49000Y-36115D01*
X48852Y-36144D01*
X48728Y-36228D01*
X48650Y-36305D01*
X48642Y-36285D01*
X48594Y-36237D01*
X48640Y-36128D01*
X48640Y-35873D01*
X48543Y-35638D01*
X48363Y-35458D01*
X48128Y-35360D01*
X47873Y-35360D01*
X47638Y-35457D01*
X47500Y-35595D01*
X47405Y-35500D01*
X47542Y-35363D01*
X47640Y-35128D01*
X47640Y-34873D01*
X47543Y-34638D01*
X47405Y-34500D01*
X47542Y-34363D01*
X47640Y-34128D01*
X47640Y-33873D01*
X47630Y-33850D01*
X48490Y-35029D01*
X48501Y-35039D01*
X48518Y-35064D01*
X48555Y-35089D01*
X48572Y-35104D01*
X48585Y-35108D01*
X48611Y-35126D01*
X48660Y-35135D01*
X48677Y-35142D01*
X48688Y-35141D01*
X48720Y-35148D01*
X50012Y-35150D01*
X49980Y-35183D01*
X49923Y-35320D01*
X49923Y-35468D01*
X49980Y-35605D01*
X50084Y-35709D01*
X50221Y-35766D01*
X50369Y-35766D01*
X50506Y-35709D01*
X50610Y-35605D01*
X50667Y-35468D01*
X50667Y-35320D01*
X50610Y-35183D01*
X50535Y-35108D01*
X50596Y-35068D01*
X50596Y-35067D01*
X50658Y-34975D01*
X50658Y-34974D01*
X50680Y-34866D01*
X50680Y-34865D01*
X50680Y-34821D01*
X50878Y-34821D01*
X50968Y-34784D01*
X51038Y-34714D01*
X51067Y-34642D01*
X51070Y-34649D01*
X51107Y-34685D01*
X51154Y-34704D01*
X51181Y-34704D01*
X51163Y-34749D01*
X51163Y-34897D01*
X51220Y-35034D01*
X51248Y-35062D01*
G54D10*
G36*
X51269Y-36726D02*
X51251Y-36726D01*
X51251Y-36708D01*
X51269Y-36708D01*
X51269Y-36726D01*
X51269Y-36726D01*
G37*
G54D29*
X51269Y-36726D02*
X51251Y-36726D01*
X51251Y-36708D01*
X51269Y-36708D01*
X51269Y-36726D01*
G54D10*
G36*
X51596Y-31501D02*
X50962Y-32118D01*
X50961Y-32118D01*
X50959Y-32120D01*
X50899Y-32210D01*
X50897Y-32213D01*
X50874Y-32322D01*
X50872Y-32738D01*
X50832Y-32738D01*
X50695Y-32795D01*
X50666Y-32824D01*
X50512Y-32824D01*
X50402Y-32846D01*
X50310Y-32908D01*
X50025Y-33192D01*
X49961Y-33179D01*
X49684Y-33179D01*
X49684Y-33039D01*
X49647Y-32949D01*
X49611Y-32913D01*
X49647Y-32877D01*
X49684Y-32787D01*
X49684Y-32689D01*
X49684Y-32439D01*
X49647Y-32349D01*
X49577Y-32279D01*
X49487Y-32242D01*
X49475Y-32242D01*
X49501Y-32179D01*
X49501Y-32081D01*
X49501Y-32049D01*
X49701Y-32233D01*
X49703Y-32234D01*
X49829Y-32311D01*
X49830Y-32311D01*
X49832Y-32312D01*
X49977Y-32333D01*
X49980Y-32334D01*
X50045Y-32330D01*
X50054Y-32339D01*
X50144Y-32376D01*
X50242Y-32376D01*
X50596Y-32376D01*
X50686Y-32339D01*
X50756Y-32269D01*
X50793Y-32179D01*
X50793Y-32081D01*
X50793Y-31679D01*
X50757Y-31592D01*
X50872Y-31640D01*
X51127Y-31640D01*
X51362Y-31543D01*
X51500Y-31405D01*
X51596Y-31501D01*
X51596Y-31501D01*
G37*
G54D29*
X51596Y-31501D02*
X50962Y-32118D01*
X50961Y-32118D01*
X50959Y-32120D01*
X50899Y-32210D01*
X50897Y-32213D01*
X50874Y-32322D01*
X50872Y-32738D01*
X50832Y-32738D01*
X50695Y-32795D01*
X50666Y-32824D01*
X50512Y-32824D01*
X50402Y-32846D01*
X50310Y-32908D01*
X50025Y-33192D01*
X49961Y-33179D01*
X49684Y-33179D01*
X49684Y-33039D01*
X49647Y-32949D01*
X49611Y-32913D01*
X49647Y-32877D01*
X49684Y-32787D01*
X49684Y-32689D01*
X49684Y-32439D01*
X49647Y-32349D01*
X49577Y-32279D01*
X49487Y-32242D01*
X49475Y-32242D01*
X49501Y-32179D01*
X49501Y-32081D01*
X49501Y-32049D01*
X49701Y-32233D01*
X49703Y-32234D01*
X49829Y-32311D01*
X49830Y-32311D01*
X49832Y-32312D01*
X49977Y-32333D01*
X49980Y-32334D01*
X50045Y-32330D01*
X50054Y-32339D01*
X50144Y-32376D01*
X50242Y-32376D01*
X50596Y-32376D01*
X50686Y-32339D01*
X50756Y-32269D01*
X50793Y-32179D01*
X50793Y-32081D01*
X50793Y-31679D01*
X50757Y-31592D01*
X50872Y-31640D01*
X51127Y-31640D01*
X51362Y-31543D01*
X51500Y-31405D01*
X51596Y-31501D01*
G54D10*
G36*
X51762Y-38093D02*
X51757Y-38093D01*
X51620Y-38150D01*
X51516Y-38254D01*
X51459Y-38391D01*
X51459Y-38435D01*
X51109Y-38378D01*
X51038Y-38307D01*
X50901Y-38250D01*
X50878Y-38250D01*
X50994Y-37432D01*
X51009Y-37439D01*
X51030Y-37439D01*
X51294Y-37737D01*
X51318Y-37755D01*
X51337Y-37776D01*
X51762Y-38093D01*
X51762Y-38093D01*
G37*
G54D29*
X51762Y-38093D02*
X51757Y-38093D01*
X51620Y-38150D01*
X51516Y-38254D01*
X51459Y-38391D01*
X51459Y-38435D01*
X51109Y-38378D01*
X51038Y-38307D01*
X50901Y-38250D01*
X50878Y-38250D01*
X50994Y-37432D01*
X51009Y-37439D01*
X51030Y-37439D01*
X51294Y-37737D01*
X51318Y-37755D01*
X51337Y-37776D01*
X51762Y-38093D01*
G54D10*
G36*
X51987Y-36567D02*
X51981Y-36570D01*
X51945Y-36607D01*
X51926Y-36654D01*
X51926Y-36745D01*
X51926Y-36763D01*
X51926Y-36794D01*
X51845Y-36713D01*
X51708Y-36656D01*
X51614Y-36656D01*
X51614Y-36567D01*
X51595Y-36520D01*
X51559Y-36483D01*
X51552Y-36480D01*
X51624Y-36451D01*
X51694Y-36381D01*
X51731Y-36291D01*
X51731Y-36193D01*
X51731Y-36135D01*
X51798Y-36091D01*
X51809Y-36080D01*
X51809Y-36128D01*
X51809Y-36378D01*
X51846Y-36468D01*
X51916Y-36538D01*
X51987Y-36567D01*
X51987Y-36567D01*
G37*
G54D29*
X51987Y-36567D02*
X51981Y-36570D01*
X51945Y-36607D01*
X51926Y-36654D01*
X51926Y-36745D01*
X51926Y-36763D01*
X51926Y-36794D01*
X51845Y-36713D01*
X51708Y-36656D01*
X51614Y-36656D01*
X51614Y-36567D01*
X51595Y-36520D01*
X51559Y-36483D01*
X51552Y-36480D01*
X51624Y-36451D01*
X51694Y-36381D01*
X51731Y-36291D01*
X51731Y-36193D01*
X51731Y-36135D01*
X51798Y-36091D01*
X51809Y-36080D01*
X51809Y-36128D01*
X51809Y-36378D01*
X51846Y-36468D01*
X51916Y-36538D01*
X51987Y-36567D01*
G54D10*
G36*
X52532Y-35035D02*
X52187Y-35104D01*
X52146Y-35006D01*
X52042Y-34902D01*
X51907Y-34845D01*
X51907Y-34749D01*
X51850Y-34612D01*
X51746Y-34508D01*
X51609Y-34451D01*
X51558Y-34451D01*
X51558Y-34391D01*
X51526Y-34359D01*
X51363Y-34359D01*
X51313Y-34359D01*
X51295Y-34359D01*
X51295Y-34341D01*
X51313Y-34341D01*
X51363Y-34341D01*
X51526Y-34341D01*
X51558Y-34309D01*
X51558Y-34170D01*
X51598Y-34154D01*
X51634Y-34118D01*
X51670Y-34154D01*
X51760Y-34191D01*
X51858Y-34191D01*
X51958Y-34191D01*
X51958Y-34390D01*
X51959Y-34398D01*
X51959Y-34404D01*
X51968Y-34443D01*
X51980Y-34499D01*
X51984Y-34505D01*
X51986Y-34513D01*
X52019Y-34557D01*
X52042Y-34592D01*
X52047Y-34595D01*
X52052Y-34602D01*
X52532Y-35035D01*
X52532Y-35035D01*
G37*
G54D29*
X52532Y-35035D02*
X52187Y-35104D01*
X52146Y-35006D01*
X52042Y-34902D01*
X51907Y-34845D01*
X51907Y-34749D01*
X51850Y-34612D01*
X51746Y-34508D01*
X51609Y-34451D01*
X51558Y-34451D01*
X51558Y-34391D01*
X51526Y-34359D01*
X51363Y-34359D01*
X51313Y-34359D01*
X51295Y-34359D01*
X51295Y-34341D01*
X51313Y-34341D01*
X51363Y-34341D01*
X51526Y-34341D01*
X51558Y-34309D01*
X51558Y-34170D01*
X51598Y-34154D01*
X51634Y-34118D01*
X51670Y-34154D01*
X51760Y-34191D01*
X51858Y-34191D01*
X51958Y-34191D01*
X51958Y-34390D01*
X51959Y-34398D01*
X51959Y-34404D01*
X51968Y-34443D01*
X51980Y-34499D01*
X51984Y-34505D01*
X51986Y-34513D01*
X52019Y-34557D01*
X52042Y-34592D01*
X52047Y-34595D01*
X52052Y-34602D01*
X52532Y-35035D01*
G54D10*
G36*
X52705Y-39429D02*
X52638Y-39457D01*
X52458Y-39637D01*
X52429Y-39705D01*
X52426Y-39701D01*
X52352Y-39661D01*
X52339Y-39674D01*
X52339Y-39648D01*
X52299Y-39574D01*
X52114Y-39492D01*
X51911Y-39487D01*
X51721Y-39560D01*
X51701Y-39574D01*
X51661Y-39648D01*
X52000Y-39987D01*
X52339Y-39648D01*
X52339Y-39674D01*
X52013Y-40000D01*
X52352Y-40339D01*
X52426Y-40299D01*
X52428Y-40293D01*
X52457Y-40362D01*
X52523Y-40428D01*
X52296Y-40428D01*
X52299Y-40426D01*
X52339Y-40352D01*
X52000Y-40013D01*
X51987Y-40026D01*
X51987Y-40000D01*
X51648Y-39661D01*
X51574Y-39701D01*
X51498Y-39872D01*
X51440Y-39721D01*
X51426Y-39701D01*
X51352Y-39661D01*
X51339Y-39674D01*
X51013Y-40000D01*
X51352Y-40339D01*
X51426Y-40299D01*
X51501Y-40127D01*
X51560Y-40279D01*
X51574Y-40299D01*
X51648Y-40339D01*
X51987Y-40000D01*
X51987Y-40026D01*
X51661Y-40352D01*
X51701Y-40426D01*
X51705Y-40428D01*
X51296Y-40428D01*
X51299Y-40426D01*
X51339Y-40352D01*
X51000Y-40013D01*
X50661Y-40352D01*
X50701Y-40426D01*
X50705Y-40428D01*
X50477Y-40428D01*
X50542Y-40363D01*
X50570Y-40294D01*
X50574Y-40299D01*
X50648Y-40339D01*
X50952Y-40035D01*
X50987Y-40000D01*
X51000Y-39987D01*
X51035Y-39952D01*
X51339Y-39648D01*
X51299Y-39574D01*
X51114Y-39492D01*
X50911Y-39487D01*
X50721Y-39560D01*
X50701Y-39574D01*
X50685Y-39602D01*
X50666Y-39583D01*
X50640Y-39608D01*
X50642Y-39602D01*
X50658Y-39554D01*
X50656Y-39534D01*
X50686Y-39505D01*
X50723Y-39415D01*
X50723Y-39317D01*
X50723Y-39141D01*
X51466Y-39313D01*
X51483Y-39313D01*
X51505Y-39320D01*
X52705Y-39429D01*
X52705Y-39429D01*
G37*
G54D29*
X52705Y-39429D02*
X52638Y-39457D01*
X52458Y-39637D01*
X52429Y-39705D01*
X52426Y-39701D01*
X52352Y-39661D01*
X52339Y-39674D01*
X52339Y-39648D01*
X52299Y-39574D01*
X52114Y-39492D01*
X51911Y-39487D01*
X51721Y-39560D01*
X51701Y-39574D01*
X51661Y-39648D01*
X52000Y-39987D01*
X52339Y-39648D01*
X52339Y-39674D01*
X52013Y-40000D01*
X52352Y-40339D01*
X52426Y-40299D01*
X52428Y-40293D01*
X52457Y-40362D01*
X52523Y-40428D01*
X52296Y-40428D01*
X52299Y-40426D01*
X52339Y-40352D01*
X52000Y-40013D01*
X51987Y-40026D01*
X51987Y-40000D01*
X51648Y-39661D01*
X51574Y-39701D01*
X51498Y-39872D01*
X51440Y-39721D01*
X51426Y-39701D01*
X51352Y-39661D01*
X51339Y-39674D01*
X51013Y-40000D01*
X51352Y-40339D01*
X51426Y-40299D01*
X51501Y-40127D01*
X51560Y-40279D01*
X51574Y-40299D01*
X51648Y-40339D01*
X51987Y-40000D01*
X51987Y-40026D01*
X51661Y-40352D01*
X51701Y-40426D01*
X51705Y-40428D01*
X51296Y-40428D01*
X51299Y-40426D01*
X51339Y-40352D01*
X51000Y-40013D01*
X50661Y-40352D01*
X50701Y-40426D01*
X50705Y-40428D01*
X50477Y-40428D01*
X50542Y-40363D01*
X50570Y-40294D01*
X50574Y-40299D01*
X50648Y-40339D01*
X50952Y-40035D01*
X50987Y-40000D01*
X51000Y-39987D01*
X51035Y-39952D01*
X51339Y-39648D01*
X51299Y-39574D01*
X51114Y-39492D01*
X50911Y-39487D01*
X50721Y-39560D01*
X50701Y-39574D01*
X50685Y-39602D01*
X50666Y-39583D01*
X50640Y-39608D01*
X50642Y-39602D01*
X50658Y-39554D01*
X50656Y-39534D01*
X50686Y-39505D01*
X50723Y-39415D01*
X50723Y-39317D01*
X50723Y-39141D01*
X51466Y-39313D01*
X51483Y-39313D01*
X51505Y-39320D01*
X52705Y-39429D01*
G54D10*
G36*
X53301Y-36344D02*
X53236Y-36344D01*
X53146Y-36381D01*
X53076Y-36451D01*
X53046Y-36522D01*
X53044Y-36516D01*
X53007Y-36480D01*
X52960Y-36461D01*
X52851Y-36461D01*
X52819Y-36493D01*
X52819Y-36756D01*
X52819Y-36806D01*
X52819Y-36824D01*
X52819Y-36874D01*
X52819Y-37137D01*
X52851Y-37169D01*
X52887Y-37169D01*
X52856Y-37245D01*
X52856Y-37393D01*
X52913Y-37530D01*
X53017Y-37634D01*
X53103Y-37669D01*
X53093Y-37693D01*
X53092Y-37745D01*
X53112Y-37793D01*
X53148Y-37829D01*
X53211Y-37893D01*
X52864Y-37827D01*
X52801Y-37756D01*
X52179Y-37058D01*
X52239Y-37058D01*
X52271Y-37026D01*
X52271Y-36863D01*
X52271Y-36813D01*
X52271Y-36795D01*
X52289Y-36795D01*
X52289Y-36813D01*
X52289Y-36863D01*
X52289Y-37026D01*
X52321Y-37058D01*
X52480Y-37058D01*
X52531Y-37058D01*
X52556Y-37047D01*
X52556Y-37066D01*
X52576Y-37114D01*
X52613Y-37150D01*
X52660Y-37169D01*
X52769Y-37169D01*
X52801Y-37137D01*
X52801Y-36874D01*
X52801Y-36824D01*
X52801Y-36806D01*
X52801Y-36756D01*
X52801Y-36493D01*
X52769Y-36461D01*
X52716Y-36461D01*
X52720Y-36451D01*
X53122Y-36304D01*
X53301Y-36339D01*
X53301Y-36344D01*
X53301Y-36344D01*
G37*
G54D29*
X53301Y-36344D02*
X53236Y-36344D01*
X53146Y-36381D01*
X53076Y-36451D01*
X53046Y-36522D01*
X53044Y-36516D01*
X53007Y-36480D01*
X52960Y-36461D01*
X52851Y-36461D01*
X52819Y-36493D01*
X52819Y-36756D01*
X52819Y-36806D01*
X52819Y-36824D01*
X52819Y-36874D01*
X52819Y-37137D01*
X52851Y-37169D01*
X52887Y-37169D01*
X52856Y-37245D01*
X52856Y-37393D01*
X52913Y-37530D01*
X53017Y-37634D01*
X53103Y-37669D01*
X53093Y-37693D01*
X53092Y-37745D01*
X53112Y-37793D01*
X53148Y-37829D01*
X53211Y-37893D01*
X52864Y-37827D01*
X52801Y-37756D01*
X52179Y-37058D01*
X52239Y-37058D01*
X52271Y-37026D01*
X52271Y-36863D01*
X52271Y-36813D01*
X52271Y-36795D01*
X52289Y-36795D01*
X52289Y-36813D01*
X52289Y-36863D01*
X52289Y-37026D01*
X52321Y-37058D01*
X52480Y-37058D01*
X52531Y-37058D01*
X52556Y-37047D01*
X52556Y-37066D01*
X52576Y-37114D01*
X52613Y-37150D01*
X52660Y-37169D01*
X52769Y-37169D01*
X52801Y-37137D01*
X52801Y-36874D01*
X52801Y-36824D01*
X52801Y-36806D01*
X52801Y-36756D01*
X52801Y-36493D01*
X52769Y-36461D01*
X52716Y-36461D01*
X52720Y-36451D01*
X53122Y-36304D01*
X53301Y-36339D01*
X53301Y-36344D01*
G54D10*
G36*
X53482Y-37791D02*
X53469Y-37804D01*
X53456Y-37791D01*
X53469Y-37778D01*
X53482Y-37791D01*
X53482Y-37791D01*
G37*
G54D29*
X53482Y-37791D02*
X53469Y-37804D01*
X53456Y-37791D01*
X53469Y-37778D01*
X53482Y-37791D01*
G54D10*
G36*
X54233Y-32077D02*
X54232Y-32079D01*
X54211Y-32185D01*
X54211Y-32510D01*
X54124Y-32547D01*
X54020Y-32651D01*
X53963Y-32788D01*
X53963Y-32936D01*
X54020Y-33073D01*
X54116Y-33169D01*
X54116Y-33235D01*
X54126Y-33259D01*
X54080Y-33279D01*
X54079Y-33279D01*
X53600Y-32698D01*
X53600Y-32623D01*
X53571Y-32554D01*
X53597Y-32529D01*
X53634Y-32439D01*
X53634Y-32341D01*
X53634Y-32339D01*
X53831Y-32126D01*
X53940Y-32077D01*
X54233Y-32077D01*
X54233Y-32077D01*
G37*
G54D29*
X54233Y-32077D02*
X54232Y-32079D01*
X54211Y-32185D01*
X54211Y-32510D01*
X54124Y-32547D01*
X54020Y-32651D01*
X53963Y-32788D01*
X53963Y-32936D01*
X54020Y-33073D01*
X54116Y-33169D01*
X54116Y-33235D01*
X54126Y-33259D01*
X54080Y-33279D01*
X54079Y-33279D01*
X53600Y-32698D01*
X53600Y-32623D01*
X53571Y-32554D01*
X53597Y-32529D01*
X53634Y-32439D01*
X53634Y-32341D01*
X53634Y-32339D01*
X53831Y-32126D01*
X53940Y-32077D01*
X54233Y-32077D01*
G54D10*
G36*
X55348Y-32194D02*
X55330Y-32194D01*
X55330Y-32176D01*
X55348Y-32176D01*
X55348Y-32194D01*
X55348Y-32194D01*
G37*
G54D29*
X55348Y-32194D02*
X55330Y-32194D01*
X55330Y-32176D01*
X55348Y-32176D01*
X55348Y-32194D01*
G54D10*
G36*
X55664Y-36364D02*
X55410Y-36570D01*
X55392Y-36590D01*
X55373Y-36606D01*
X55201Y-36803D01*
X55199Y-36801D01*
X55182Y-36761D01*
X55101Y-36679D01*
X55058Y-36661D01*
X55049Y-36640D01*
X55061Y-36622D01*
X55082Y-36591D01*
X55083Y-36590D01*
X55091Y-36549D01*
X55224Y-36549D01*
X55361Y-36492D01*
X55465Y-36388D01*
X55473Y-36367D01*
X55664Y-36364D01*
X55664Y-36364D01*
G37*
G54D29*
X55664Y-36364D02*
X55410Y-36570D01*
X55392Y-36590D01*
X55373Y-36606D01*
X55201Y-36803D01*
X55199Y-36801D01*
X55182Y-36761D01*
X55101Y-36679D01*
X55058Y-36661D01*
X55049Y-36640D01*
X55061Y-36622D01*
X55082Y-36591D01*
X55083Y-36590D01*
X55091Y-36549D01*
X55224Y-36549D01*
X55361Y-36492D01*
X55465Y-36388D01*
X55473Y-36367D01*
X55664Y-36364D01*
G54D10*
G36*
X55671Y-34598D02*
X55663Y-34602D01*
X55619Y-34645D01*
X55617Y-34644D01*
X55469Y-34644D01*
X55332Y-34701D01*
X55234Y-34798D01*
X55041Y-34380D01*
X55041Y-34378D01*
X55058Y-34339D01*
X55099Y-34322D01*
X55181Y-34241D01*
X55198Y-34198D01*
X55238Y-34182D01*
X55320Y-34101D01*
X55337Y-34059D01*
X55346Y-34055D01*
X55518Y-34277D01*
X55518Y-34365D01*
X55575Y-34502D01*
X55671Y-34598D01*
X55671Y-34598D01*
G37*
G54D29*
X55671Y-34598D02*
X55663Y-34602D01*
X55619Y-34645D01*
X55617Y-34644D01*
X55469Y-34644D01*
X55332Y-34701D01*
X55234Y-34798D01*
X55041Y-34380D01*
X55041Y-34378D01*
X55058Y-34339D01*
X55099Y-34322D01*
X55181Y-34241D01*
X55198Y-34198D01*
X55238Y-34182D01*
X55320Y-34101D01*
X55337Y-34059D01*
X55346Y-34055D01*
X55518Y-34277D01*
X55518Y-34365D01*
X55575Y-34502D01*
X55671Y-34598D01*
G54D10*
G36*
X55846Y-32077D02*
X55822Y-32135D01*
X55673Y-32135D01*
X55593Y-32150D01*
X55593Y-32144D01*
X55593Y-32126D01*
X55593Y-32077D01*
X55846Y-32077D01*
X55846Y-32077D01*
G37*
G54D29*
X55846Y-32077D02*
X55822Y-32135D01*
X55673Y-32135D01*
X55593Y-32150D01*
X55593Y-32144D01*
X55593Y-32126D01*
X55593Y-32077D01*
X55846Y-32077D01*
G54D10*
G36*
X55885Y-39171D02*
X55872Y-39204D01*
X55872Y-39360D01*
X55638Y-39457D01*
X55458Y-39637D01*
X55429Y-39705D01*
X55426Y-39701D01*
X55352Y-39661D01*
X55339Y-39674D01*
X55339Y-39648D01*
X55299Y-39574D01*
X55114Y-39492D01*
X54911Y-39487D01*
X54721Y-39560D01*
X54701Y-39574D01*
X54661Y-39648D01*
X55000Y-39987D01*
X55339Y-39648D01*
X55339Y-39674D01*
X55013Y-40000D01*
X55352Y-40339D01*
X55426Y-40299D01*
X55428Y-40293D01*
X55457Y-40362D01*
X55523Y-40428D01*
X55296Y-40428D01*
X55299Y-40426D01*
X55339Y-40352D01*
X55000Y-40013D01*
X54661Y-40352D01*
X54701Y-40426D01*
X54705Y-40428D01*
X54477Y-40428D01*
X54542Y-40363D01*
X54570Y-40294D01*
X54574Y-40299D01*
X54648Y-40339D01*
X54987Y-40000D01*
X54648Y-39661D01*
X54574Y-39701D01*
X54571Y-39706D01*
X54543Y-39638D01*
X54371Y-39466D01*
X54447Y-39466D01*
X54453Y-39464D01*
X54462Y-39466D01*
X55449Y-39408D01*
X55452Y-39407D01*
X55557Y-39379D01*
X55557Y-39378D01*
X55560Y-39378D01*
X55623Y-39329D01*
X55646Y-39312D01*
X55646Y-39311D01*
X55648Y-39310D01*
X55726Y-39221D01*
X55732Y-39215D01*
X55742Y-39197D01*
X55824Y-39197D01*
X55885Y-39171D01*
X55885Y-39171D01*
G37*
G54D29*
X55885Y-39171D02*
X55872Y-39204D01*
X55872Y-39360D01*
X55638Y-39457D01*
X55458Y-39637D01*
X55429Y-39705D01*
X55426Y-39701D01*
X55352Y-39661D01*
X55339Y-39674D01*
X55339Y-39648D01*
X55299Y-39574D01*
X55114Y-39492D01*
X54911Y-39487D01*
X54721Y-39560D01*
X54701Y-39574D01*
X54661Y-39648D01*
X55000Y-39987D01*
X55339Y-39648D01*
X55339Y-39674D01*
X55013Y-40000D01*
X55352Y-40339D01*
X55426Y-40299D01*
X55428Y-40293D01*
X55457Y-40362D01*
X55523Y-40428D01*
X55296Y-40428D01*
X55299Y-40426D01*
X55339Y-40352D01*
X55000Y-40013D01*
X54661Y-40352D01*
X54701Y-40426D01*
X54705Y-40428D01*
X54477Y-40428D01*
X54542Y-40363D01*
X54570Y-40294D01*
X54574Y-40299D01*
X54648Y-40339D01*
X54987Y-40000D01*
X54648Y-39661D01*
X54574Y-39701D01*
X54571Y-39706D01*
X54543Y-39638D01*
X54371Y-39466D01*
X54447Y-39466D01*
X54453Y-39464D01*
X54462Y-39466D01*
X55449Y-39408D01*
X55452Y-39407D01*
X55557Y-39379D01*
X55557Y-39378D01*
X55560Y-39378D01*
X55623Y-39329D01*
X55646Y-39312D01*
X55646Y-39311D01*
X55648Y-39310D01*
X55726Y-39221D01*
X55732Y-39215D01*
X55742Y-39197D01*
X55824Y-39197D01*
X55885Y-39171D01*
G54D10*
G36*
X56326Y-38716D02*
X56282Y-38824D01*
X56282Y-38855D01*
X56222Y-38855D01*
X56122Y-38896D01*
X56122Y-38751D01*
X56065Y-38614D01*
X55974Y-38523D01*
X56294Y-38203D01*
X56308Y-38169D01*
X56308Y-38590D01*
X56313Y-38616D01*
X56313Y-38645D01*
X56326Y-38716D01*
X56326Y-38716D01*
G37*
G54D29*
X56326Y-38716D02*
X56282Y-38824D01*
X56282Y-38855D01*
X56222Y-38855D01*
X56122Y-38896D01*
X56122Y-38751D01*
X56065Y-38614D01*
X55974Y-38523D01*
X56294Y-38203D01*
X56308Y-38169D01*
X56308Y-38590D01*
X56313Y-38616D01*
X56313Y-38645D01*
X56326Y-38716D01*
G54D10*
G36*
X56880Y-32077D02*
X56875Y-32087D01*
X56821Y-32087D01*
X56789Y-32119D01*
X56789Y-32382D01*
X56789Y-32432D01*
X56789Y-32450D01*
X56771Y-32450D01*
X56771Y-32432D01*
X56771Y-32382D01*
X56771Y-32119D01*
X56739Y-32087D01*
X56630Y-32087D01*
X56583Y-32106D01*
X56546Y-32142D01*
X56543Y-32148D01*
X56514Y-32077D01*
X56880Y-32077D01*
X56880Y-32077D01*
G37*
G54D29*
X56880Y-32077D02*
X56875Y-32087D01*
X56821Y-32087D01*
X56789Y-32119D01*
X56789Y-32382D01*
X56789Y-32432D01*
X56789Y-32450D01*
X56771Y-32450D01*
X56771Y-32432D01*
X56771Y-32382D01*
X56771Y-32119D01*
X56739Y-32087D01*
X56630Y-32087D01*
X56583Y-32106D01*
X56546Y-32142D01*
X56543Y-32148D01*
X56514Y-32077D01*
X56880Y-32077D01*
G54D10*
G36*
X58524Y-35176D02*
X58309Y-35460D01*
X58214Y-35500D01*
X58110Y-35604D01*
X58053Y-35741D01*
X58053Y-35889D01*
X58110Y-36026D01*
X58214Y-36130D01*
X58322Y-36175D01*
X58312Y-36200D01*
X58273Y-36217D01*
X58191Y-36298D01*
X58174Y-36338D01*
X58134Y-36355D01*
X58052Y-36436D01*
X58034Y-36478D01*
X57995Y-36495D01*
X57988Y-36501D01*
X57982Y-36499D01*
X57956Y-36490D01*
X57935Y-36490D01*
X57911Y-36486D01*
X57878Y-36492D01*
X57845Y-36494D01*
X57832Y-36497D01*
X57741Y-36459D01*
X57593Y-36459D01*
X57505Y-36495D01*
X57417Y-36459D01*
X57269Y-36459D01*
X57132Y-36516D01*
X57028Y-36620D01*
X56971Y-36757D01*
X56971Y-36905D01*
X57028Y-37042D01*
X57132Y-37146D01*
X57229Y-37186D01*
X57238Y-37200D01*
X57275Y-37238D01*
X57303Y-37271D01*
X57309Y-37274D01*
X57311Y-37275D01*
X57311Y-37276D01*
X57311Y-37286D01*
X57281Y-37286D01*
X57167Y-37172D01*
X57075Y-37110D01*
X56965Y-37088D01*
X56752Y-37088D01*
X56643Y-37110D01*
X56611Y-37131D01*
X56549Y-37172D01*
X56392Y-37330D01*
X56330Y-37422D01*
X56321Y-37467D01*
X56321Y-37410D01*
X56264Y-37273D01*
X56255Y-37264D01*
X56280Y-37239D01*
X56337Y-37102D01*
X56337Y-36954D01*
X56280Y-36817D01*
X56776Y-36408D01*
X56785Y-36395D01*
X56796Y-36389D01*
X56818Y-36354D01*
X56846Y-36321D01*
X56849Y-36308D01*
X56858Y-36296D01*
X56867Y-36249D01*
X56878Y-36214D01*
X56876Y-36202D01*
X56880Y-36187D01*
X56880Y-35326D01*
X56871Y-35283D01*
X56869Y-35250D01*
X56861Y-35235D01*
X56858Y-35217D01*
X56836Y-35184D01*
X56819Y-35150D01*
X56805Y-35138D01*
X56796Y-35124D01*
X56766Y-35104D01*
X56735Y-35077D01*
X56222Y-34785D01*
X56189Y-34707D01*
X56273Y-34791D01*
X56410Y-34848D01*
X56558Y-34848D01*
X56695Y-34791D01*
X56799Y-34687D01*
X56856Y-34550D01*
X56856Y-34433D01*
X56909Y-34561D01*
X57013Y-34665D01*
X57038Y-34675D01*
X57153Y-34988D01*
X57157Y-34994D01*
X57158Y-34999D01*
X57178Y-35029D01*
X57211Y-35083D01*
X57216Y-35087D01*
X57220Y-35092D01*
X57256Y-35116D01*
X57301Y-35149D01*
X57308Y-35150D01*
X57313Y-35154D01*
X57371Y-35165D01*
X57410Y-35175D01*
X57414Y-35174D01*
X57422Y-35176D01*
X58524Y-35176D01*
X58524Y-35176D01*
G37*
G54D29*
X58524Y-35176D02*
X58309Y-35460D01*
X58214Y-35500D01*
X58110Y-35604D01*
X58053Y-35741D01*
X58053Y-35889D01*
X58110Y-36026D01*
X58214Y-36130D01*
X58322Y-36175D01*
X58312Y-36200D01*
X58273Y-36217D01*
X58191Y-36298D01*
X58174Y-36338D01*
X58134Y-36355D01*
X58052Y-36436D01*
X58034Y-36478D01*
X57995Y-36495D01*
X57988Y-36501D01*
X57982Y-36499D01*
X57956Y-36490D01*
X57935Y-36490D01*
X57911Y-36486D01*
X57878Y-36492D01*
X57845Y-36494D01*
X57832Y-36497D01*
X57741Y-36459D01*
X57593Y-36459D01*
X57505Y-36495D01*
X57417Y-36459D01*
X57269Y-36459D01*
X57132Y-36516D01*
X57028Y-36620D01*
X56971Y-36757D01*
X56971Y-36905D01*
X57028Y-37042D01*
X57132Y-37146D01*
X57229Y-37186D01*
X57238Y-37200D01*
X57275Y-37238D01*
X57303Y-37271D01*
X57309Y-37274D01*
X57311Y-37275D01*
X57311Y-37276D01*
X57311Y-37286D01*
X57281Y-37286D01*
X57167Y-37172D01*
X57075Y-37110D01*
X56965Y-37088D01*
X56752Y-37088D01*
X56643Y-37110D01*
X56611Y-37131D01*
X56549Y-37172D01*
X56392Y-37330D01*
X56330Y-37422D01*
X56321Y-37467D01*
X56321Y-37410D01*
X56264Y-37273D01*
X56255Y-37264D01*
X56280Y-37239D01*
X56337Y-37102D01*
X56337Y-36954D01*
X56280Y-36817D01*
X56776Y-36408D01*
X56785Y-36395D01*
X56796Y-36389D01*
X56818Y-36354D01*
X56846Y-36321D01*
X56849Y-36308D01*
X56858Y-36296D01*
X56867Y-36249D01*
X56878Y-36214D01*
X56876Y-36202D01*
X56880Y-36187D01*
X56880Y-35326D01*
X56871Y-35283D01*
X56869Y-35250D01*
X56861Y-35235D01*
X56858Y-35217D01*
X56836Y-35184D01*
X56819Y-35150D01*
X56805Y-35138D01*
X56796Y-35124D01*
X56766Y-35104D01*
X56735Y-35077D01*
X56222Y-34785D01*
X56189Y-34707D01*
X56273Y-34791D01*
X56410Y-34848D01*
X56558Y-34848D01*
X56695Y-34791D01*
X56799Y-34687D01*
X56856Y-34550D01*
X56856Y-34433D01*
X56909Y-34561D01*
X57013Y-34665D01*
X57038Y-34675D01*
X57153Y-34988D01*
X57157Y-34994D01*
X57158Y-34999D01*
X57178Y-35029D01*
X57211Y-35083D01*
X57216Y-35087D01*
X57220Y-35092D01*
X57256Y-35116D01*
X57301Y-35149D01*
X57308Y-35150D01*
X57313Y-35154D01*
X57371Y-35165D01*
X57410Y-35175D01*
X57414Y-35174D01*
X57422Y-35176D01*
X58524Y-35176D01*
G54D10*
G36*
X58710Y-38449D02*
X58692Y-38449D01*
X58692Y-38431D01*
X58710Y-38431D01*
X58710Y-38449D01*
X58710Y-38449D01*
G37*
G54D29*
X58710Y-38449D02*
X58692Y-38449D01*
X58692Y-38431D01*
X58710Y-38431D01*
X58710Y-38449D01*
G54D10*
G36*
X59301Y-39432D02*
X59151Y-39370D01*
X59206Y-39370D01*
X59238Y-39338D01*
X59238Y-39075D01*
X59238Y-39025D01*
X59238Y-39007D01*
X59256Y-39007D01*
X59256Y-39025D01*
X59256Y-39075D01*
X59256Y-39338D01*
X59280Y-39362D01*
X59291Y-39417D01*
X59301Y-39432D01*
X59301Y-39432D01*
G37*
G54D29*
X59301Y-39432D02*
X59151Y-39370D01*
X59206Y-39370D01*
X59238Y-39338D01*
X59238Y-39075D01*
X59238Y-39025D01*
X59238Y-39007D01*
X59256Y-39007D01*
X59256Y-39025D01*
X59256Y-39075D01*
X59256Y-39338D01*
X59280Y-39362D01*
X59291Y-39417D01*
X59301Y-39432D01*
G54D10*
G36*
X59698Y-37930D02*
X59680Y-37930D01*
X59680Y-37912D01*
X59698Y-37912D01*
X59698Y-37930D01*
X59698Y-37930D01*
G37*
G54D29*
X59698Y-37930D02*
X59680Y-37930D01*
X59680Y-37912D01*
X59698Y-37912D01*
X59698Y-37930D01*
G54D10*
G36*
X60011Y-35711D02*
X59746Y-35879D01*
X59525Y-36020D01*
X59218Y-35713D01*
X59501Y-35385D01*
X59501Y-35411D01*
X59501Y-35429D01*
X59501Y-35570D01*
X59501Y-35621D01*
X59521Y-35669D01*
X59558Y-35705D01*
X59605Y-35724D01*
X59714Y-35724D01*
X59746Y-35692D01*
X59746Y-35429D01*
X59746Y-35379D01*
X59746Y-35361D01*
X59764Y-35361D01*
X59764Y-35379D01*
X59764Y-35429D01*
X59764Y-35692D01*
X59796Y-35724D01*
X59905Y-35724D01*
X59952Y-35705D01*
X59989Y-35669D01*
X59991Y-35662D01*
X60011Y-35711D01*
X60011Y-35711D01*
G37*
G54D29*
X60011Y-35711D02*
X59746Y-35879D01*
X59525Y-36020D01*
X59218Y-35713D01*
X59501Y-35385D01*
X59501Y-35411D01*
X59501Y-35429D01*
X59501Y-35570D01*
X59501Y-35621D01*
X59521Y-35669D01*
X59558Y-35705D01*
X59605Y-35724D01*
X59714Y-35724D01*
X59746Y-35692D01*
X59746Y-35429D01*
X59746Y-35379D01*
X59746Y-35361D01*
X59764Y-35361D01*
X59764Y-35379D01*
X59764Y-35429D01*
X59764Y-35692D01*
X59796Y-35724D01*
X59905Y-35724D01*
X59952Y-35705D01*
X59989Y-35669D01*
X59991Y-35662D01*
X60011Y-35711D01*
G54D10*
G36*
X61219Y-34842D02*
X61218Y-34842D01*
X61184Y-34823D01*
X60783Y-34693D01*
X60759Y-34677D01*
X60650Y-34655D01*
X60384Y-34655D01*
X60386Y-34654D01*
X60392Y-34653D01*
X60425Y-34630D01*
X60482Y-34596D01*
X60487Y-34588D01*
X60491Y-34586D01*
X60551Y-34527D01*
X60551Y-34526D01*
X60595Y-34460D01*
X60617Y-34428D01*
X60618Y-34427D01*
X60619Y-34420D01*
X61128Y-34420D01*
X61170Y-34461D01*
X61170Y-34665D01*
X61183Y-34730D01*
X61183Y-34739D01*
X61186Y-34746D01*
X61199Y-34812D01*
X61219Y-34842D01*
X61219Y-34842D01*
G37*
G54D29*
X61219Y-34842D02*
X61218Y-34842D01*
X61184Y-34823D01*
X60783Y-34693D01*
X60759Y-34677D01*
X60650Y-34655D01*
X60384Y-34655D01*
X60386Y-34654D01*
X60392Y-34653D01*
X60425Y-34630D01*
X60482Y-34596D01*
X60487Y-34588D01*
X60491Y-34586D01*
X60551Y-34527D01*
X60551Y-34526D01*
X60595Y-34460D01*
X60617Y-34428D01*
X60618Y-34427D01*
X60619Y-34420D01*
X61128Y-34420D01*
X61170Y-34461D01*
X61170Y-34665D01*
X61183Y-34730D01*
X61183Y-34739D01*
X61186Y-34746D01*
X61199Y-34812D01*
X61219Y-34842D01*
G54D10*
G36*
X61636Y-31541D02*
X61564Y-31587D01*
X61442Y-31587D01*
X61305Y-31644D01*
X61201Y-31748D01*
X61144Y-31885D01*
X61144Y-32033D01*
X61201Y-32170D01*
X61305Y-32274D01*
X61442Y-32331D01*
X61572Y-32331D01*
X61572Y-32370D01*
X61596Y-32429D01*
X61521Y-32461D01*
X61417Y-32565D01*
X61360Y-32702D01*
X61360Y-32850D01*
X61369Y-32872D01*
X61331Y-32849D01*
X61287Y-32817D01*
X61269Y-32812D01*
X61258Y-32806D01*
X61217Y-32799D01*
X61157Y-32785D01*
X60638Y-32761D01*
X60624Y-32727D01*
X60554Y-32657D01*
X60464Y-32620D01*
X60366Y-32620D01*
X60116Y-32620D01*
X60026Y-32657D01*
X59956Y-32727D01*
X59926Y-32798D01*
X59924Y-32792D01*
X59887Y-32756D01*
X59840Y-32737D01*
X59731Y-32737D01*
X59699Y-32769D01*
X59699Y-33032D01*
X59699Y-33082D01*
X59699Y-33100D01*
X59699Y-33150D01*
X59699Y-33413D01*
X59731Y-33445D01*
X59840Y-33445D01*
X59887Y-33426D01*
X59924Y-33390D01*
X59926Y-33383D01*
X59956Y-33455D01*
X60026Y-33525D01*
X60116Y-33562D01*
X60214Y-33562D01*
X60282Y-33562D01*
X60279Y-33565D01*
X60277Y-33564D01*
X60179Y-33564D01*
X59929Y-33564D01*
X59839Y-33601D01*
X59769Y-33671D01*
X59739Y-33742D01*
X59737Y-33736D01*
X59700Y-33700D01*
X59681Y-33692D01*
X59653Y-33681D01*
X59544Y-33681D01*
X59512Y-33713D01*
X59512Y-33976D01*
X59512Y-34026D01*
X59512Y-34044D01*
X59494Y-34044D01*
X59444Y-34044D01*
X59281Y-34044D01*
X59249Y-34076D01*
X59249Y-34201D01*
X59248Y-34200D01*
X59205Y-34182D01*
X59190Y-34144D01*
X59191Y-34136D01*
X59204Y-34110D01*
X59249Y-33916D01*
X59249Y-33994D01*
X59281Y-34026D01*
X59494Y-34026D01*
X59494Y-33713D01*
X59462Y-33681D01*
X59353Y-33681D01*
X59306Y-33700D01*
X59297Y-33708D01*
X59436Y-33108D01*
X59436Y-33132D01*
X59436Y-33150D01*
X59436Y-33291D01*
X59436Y-33342D01*
X59456Y-33390D01*
X59493Y-33426D01*
X59540Y-33445D01*
X59649Y-33445D01*
X59681Y-33413D01*
X59681Y-33150D01*
X59681Y-33100D01*
X59681Y-33082D01*
X59681Y-33032D01*
X59681Y-32769D01*
X59649Y-32737D01*
X59540Y-32737D01*
X59521Y-32744D01*
X59606Y-32380D01*
X59606Y-32365D01*
X59610Y-32355D01*
X59653Y-32049D01*
X59650Y-32011D01*
X59654Y-31978D01*
X59648Y-31959D01*
X59647Y-31938D01*
X59631Y-31906D01*
X59621Y-31872D01*
X59503Y-31655D01*
X59483Y-31631D01*
X59472Y-31610D01*
X59452Y-31594D01*
X59432Y-31569D01*
X59405Y-31555D01*
X59386Y-31539D01*
X59370Y-31534D01*
X59500Y-31405D01*
X59637Y-31542D01*
X59872Y-31640D01*
X60127Y-31640D01*
X60362Y-31543D01*
X60500Y-31405D01*
X60637Y-31542D01*
X60872Y-31640D01*
X61127Y-31640D01*
X61362Y-31543D01*
X61500Y-31405D01*
X61636Y-31541D01*
X61636Y-31541D01*
G37*
G54D29*
X61636Y-31541D02*
X61564Y-31587D01*
X61442Y-31587D01*
X61305Y-31644D01*
X61201Y-31748D01*
X61144Y-31885D01*
X61144Y-32033D01*
X61201Y-32170D01*
X61305Y-32274D01*
X61442Y-32331D01*
X61572Y-32331D01*
X61572Y-32370D01*
X61596Y-32429D01*
X61521Y-32461D01*
X61417Y-32565D01*
X61360Y-32702D01*
X61360Y-32850D01*
X61369Y-32872D01*
X61331Y-32849D01*
X61287Y-32817D01*
X61269Y-32812D01*
X61258Y-32806D01*
X61217Y-32799D01*
X61157Y-32785D01*
X60638Y-32761D01*
X60624Y-32727D01*
X60554Y-32657D01*
X60464Y-32620D01*
X60366Y-32620D01*
X60116Y-32620D01*
X60026Y-32657D01*
X59956Y-32727D01*
X59926Y-32798D01*
X59924Y-32792D01*
X59887Y-32756D01*
X59840Y-32737D01*
X59731Y-32737D01*
X59699Y-32769D01*
X59699Y-33032D01*
X59699Y-33082D01*
X59699Y-33100D01*
X59699Y-33150D01*
X59699Y-33413D01*
X59731Y-33445D01*
X59840Y-33445D01*
X59887Y-33426D01*
X59924Y-33390D01*
X59926Y-33383D01*
X59956Y-33455D01*
X60026Y-33525D01*
X60116Y-33562D01*
X60214Y-33562D01*
X60282Y-33562D01*
X60279Y-33565D01*
X60277Y-33564D01*
X60179Y-33564D01*
X59929Y-33564D01*
X59839Y-33601D01*
X59769Y-33671D01*
X59739Y-33742D01*
X59737Y-33736D01*
X59700Y-33700D01*
X59681Y-33692D01*
X59653Y-33681D01*
X59544Y-33681D01*
X59512Y-33713D01*
X59512Y-33976D01*
X59512Y-34026D01*
X59512Y-34044D01*
X59494Y-34044D01*
X59444Y-34044D01*
X59281Y-34044D01*
X59249Y-34076D01*
X59249Y-34201D01*
X59248Y-34200D01*
X59205Y-34182D01*
X59190Y-34144D01*
X59191Y-34136D01*
X59204Y-34110D01*
X59249Y-33916D01*
X59249Y-33994D01*
X59281Y-34026D01*
X59494Y-34026D01*
X59494Y-33713D01*
X59462Y-33681D01*
X59353Y-33681D01*
X59306Y-33700D01*
X59297Y-33708D01*
X59436Y-33108D01*
X59436Y-33132D01*
X59436Y-33150D01*
X59436Y-33291D01*
X59436Y-33342D01*
X59456Y-33390D01*
X59493Y-33426D01*
X59540Y-33445D01*
X59649Y-33445D01*
X59681Y-33413D01*
X59681Y-33150D01*
X59681Y-33100D01*
X59681Y-33082D01*
X59681Y-33032D01*
X59681Y-32769D01*
X59649Y-32737D01*
X59540Y-32737D01*
X59521Y-32744D01*
X59606Y-32380D01*
X59606Y-32365D01*
X59610Y-32355D01*
X59653Y-32049D01*
X59650Y-32011D01*
X59654Y-31978D01*
X59648Y-31959D01*
X59647Y-31938D01*
X59631Y-31906D01*
X59621Y-31872D01*
X59503Y-31655D01*
X59483Y-31631D01*
X59472Y-31610D01*
X59452Y-31594D01*
X59432Y-31569D01*
X59405Y-31555D01*
X59386Y-31539D01*
X59370Y-31534D01*
X59500Y-31405D01*
X59637Y-31542D01*
X59872Y-31640D01*
X60127Y-31640D01*
X60362Y-31543D01*
X60500Y-31405D01*
X60637Y-31542D01*
X60872Y-31640D01*
X61127Y-31640D01*
X61362Y-31543D01*
X61500Y-31405D01*
X61636Y-31541D01*
G54D10*
G36*
X61655Y-35079D02*
X61637Y-35079D01*
X61637Y-35061D01*
X61655Y-35061D01*
X61655Y-35079D01*
X61655Y-35079D01*
G37*
G54D29*
X61655Y-35079D02*
X61637Y-35079D01*
X61637Y-35061D01*
X61655Y-35061D01*
X61655Y-35079D01*
G54D10*
G36*
X62264Y-39096D02*
X62251Y-39109D01*
X62207Y-39065D01*
X62247Y-39084D01*
X62248Y-39080D01*
X62264Y-39096D01*
X62264Y-39096D01*
G37*
G54D29*
X62264Y-39096D02*
X62251Y-39109D01*
X62207Y-39065D01*
X62247Y-39084D01*
X62248Y-39080D01*
X62264Y-39096D01*
G54D10*
G36*
X66428Y-31950D02*
X66339Y-31950D01*
X66339Y-31352D01*
X66000Y-31013D01*
X65661Y-31352D01*
X65701Y-31426D01*
X65886Y-31508D01*
X66089Y-31513D01*
X66279Y-31440D01*
X66299Y-31426D01*
X66339Y-31352D01*
X66339Y-31950D01*
X64979Y-31950D01*
X63450Y-33479D01*
X63450Y-34855D01*
X63406Y-34750D01*
X63302Y-34646D01*
X63165Y-34589D01*
X63017Y-34589D01*
X62880Y-34646D01*
X62802Y-34724D01*
X62747Y-34724D01*
X62550Y-34724D01*
X62550Y-34678D01*
X62518Y-34532D01*
X62432Y-34408D01*
X62306Y-34326D01*
X62158Y-34300D01*
X62012Y-34332D01*
X62008Y-34334D01*
X61940Y-34332D01*
X61940Y-34302D01*
X61911Y-34155D01*
X61910Y-34154D01*
X61882Y-34113D01*
X61827Y-34030D01*
X61827Y-34029D01*
X61560Y-33763D01*
X61436Y-33679D01*
X61288Y-33650D01*
X61135Y-33650D01*
X61370Y-33392D01*
X61452Y-33474D01*
X61589Y-33531D01*
X61737Y-33531D01*
X61874Y-33474D01*
X61888Y-33459D01*
X62698Y-33513D01*
X62705Y-33512D01*
X62714Y-33514D01*
X62768Y-33503D01*
X62809Y-33498D01*
X62814Y-33494D01*
X62823Y-33493D01*
X62880Y-33456D01*
X62905Y-33442D01*
X62906Y-33439D01*
X62917Y-33433D01*
X64788Y-31605D01*
X64872Y-31640D01*
X65127Y-31640D01*
X65362Y-31543D01*
X65542Y-31363D01*
X65570Y-31294D01*
X65574Y-31299D01*
X65648Y-31339D01*
X65987Y-31000D01*
X65648Y-30661D01*
X65574Y-30701D01*
X65571Y-30706D01*
X65543Y-30638D01*
X65477Y-30572D01*
X65703Y-30572D01*
X65701Y-30574D01*
X65661Y-30648D01*
X66000Y-30987D01*
X66339Y-30648D01*
X66299Y-30574D01*
X66294Y-30572D01*
X66428Y-30572D01*
X66428Y-30703D01*
X66426Y-30701D01*
X66352Y-30661D01*
X66013Y-31000D01*
X66352Y-31339D01*
X66426Y-31299D01*
X66428Y-31294D01*
X66428Y-31950D01*
X66428Y-31950D01*
G37*
G54D29*
X66428Y-31950D02*
X66339Y-31950D01*
X66339Y-31352D01*
X66000Y-31013D01*
X65661Y-31352D01*
X65701Y-31426D01*
X65886Y-31508D01*
X66089Y-31513D01*
X66279Y-31440D01*
X66299Y-31426D01*
X66339Y-31352D01*
X66339Y-31950D01*
X64979Y-31950D01*
X63450Y-33479D01*
X63450Y-34855D01*
X63406Y-34750D01*
X63302Y-34646D01*
X63165Y-34589D01*
X63017Y-34589D01*
X62880Y-34646D01*
X62802Y-34724D01*
X62747Y-34724D01*
X62550Y-34724D01*
X62550Y-34678D01*
X62518Y-34532D01*
X62432Y-34408D01*
X62306Y-34326D01*
X62158Y-34300D01*
X62012Y-34332D01*
X62008Y-34334D01*
X61940Y-34332D01*
X61940Y-34302D01*
X61911Y-34155D01*
X61910Y-34154D01*
X61882Y-34113D01*
X61827Y-34030D01*
X61827Y-34029D01*
X61560Y-33763D01*
X61436Y-33679D01*
X61288Y-33650D01*
X61135Y-33650D01*
X61370Y-33392D01*
X61452Y-33474D01*
X61589Y-33531D01*
X61737Y-33531D01*
X61874Y-33474D01*
X61888Y-33459D01*
X62698Y-33513D01*
X62705Y-33512D01*
X62714Y-33514D01*
X62768Y-33503D01*
X62809Y-33498D01*
X62814Y-33494D01*
X62823Y-33493D01*
X62880Y-33456D01*
X62905Y-33442D01*
X62906Y-33439D01*
X62917Y-33433D01*
X64788Y-31605D01*
X64872Y-31640D01*
X65127Y-31640D01*
X65362Y-31543D01*
X65542Y-31363D01*
X65570Y-31294D01*
X65574Y-31299D01*
X65648Y-31339D01*
X65987Y-31000D01*
X65648Y-30661D01*
X65574Y-30701D01*
X65571Y-30706D01*
X65543Y-30638D01*
X65477Y-30572D01*
X65703Y-30572D01*
X65701Y-30574D01*
X65661Y-30648D01*
X66000Y-30987D01*
X66339Y-30648D01*
X66299Y-30574D01*
X66294Y-30572D01*
X66428Y-30572D01*
X66428Y-30703D01*
X66426Y-30701D01*
X66352Y-30661D01*
X66013Y-31000D01*
X66352Y-31339D01*
X66426Y-31299D01*
X66428Y-31294D01*
X66428Y-31950D01*
G54D10*
G36*
X66428Y-40428D02*
X66296Y-40428D01*
X66299Y-40426D01*
X66339Y-40352D01*
X66000Y-40013D01*
X65661Y-40352D01*
X65701Y-40426D01*
X65705Y-40428D01*
X65477Y-40428D01*
X65542Y-40363D01*
X65570Y-40294D01*
X65574Y-40299D01*
X65648Y-40339D01*
X65987Y-40000D01*
X65648Y-39661D01*
X65574Y-39701D01*
X65571Y-39706D01*
X65543Y-39638D01*
X65363Y-39458D01*
X65128Y-39360D01*
X64873Y-39360D01*
X64787Y-39395D01*
X63503Y-38111D01*
X63413Y-38051D01*
X63307Y-38030D01*
X63050Y-38030D01*
X63081Y-37956D01*
X63081Y-37808D01*
X63024Y-37671D01*
X62920Y-37567D01*
X62867Y-37545D01*
X62680Y-37143D01*
X62657Y-37112D01*
X62635Y-37074D01*
X61932Y-36281D01*
X61932Y-36130D01*
X61935Y-36129D01*
X61943Y-36120D01*
X62044Y-36185D01*
X62191Y-36212D01*
X62191Y-36211D01*
X62192Y-36212D01*
X62192Y-36211D01*
X62652Y-36205D01*
X62794Y-36174D01*
X62821Y-36201D01*
X62776Y-36246D01*
X62719Y-36383D01*
X62719Y-36531D01*
X62776Y-36668D01*
X62880Y-36772D01*
X63017Y-36829D01*
X63165Y-36829D01*
X63302Y-36772D01*
X63406Y-36668D01*
X63450Y-36562D01*
X63450Y-37521D01*
X64979Y-39050D01*
X66428Y-39050D01*
X66428Y-39703D01*
X66426Y-39701D01*
X66352Y-39661D01*
X66339Y-39674D01*
X66339Y-39648D01*
X66299Y-39574D01*
X66114Y-39492D01*
X65911Y-39487D01*
X65721Y-39560D01*
X65701Y-39574D01*
X65661Y-39648D01*
X66000Y-39987D01*
X66339Y-39648D01*
X66339Y-39674D01*
X66013Y-40000D01*
X66352Y-40339D01*
X66426Y-40299D01*
X66428Y-40294D01*
X66428Y-40428D01*
X66428Y-40428D01*
G37*
G54D29*
X66428Y-40428D02*
X66296Y-40428D01*
X66299Y-40426D01*
X66339Y-40352D01*
X66000Y-40013D01*
X65661Y-40352D01*
X65701Y-40426D01*
X65705Y-40428D01*
X65477Y-40428D01*
X65542Y-40363D01*
X65570Y-40294D01*
X65574Y-40299D01*
X65648Y-40339D01*
X65987Y-40000D01*
X65648Y-39661D01*
X65574Y-39701D01*
X65571Y-39706D01*
X65543Y-39638D01*
X65363Y-39458D01*
X65128Y-39360D01*
X64873Y-39360D01*
X64787Y-39395D01*
X63503Y-38111D01*
X63413Y-38051D01*
X63307Y-38030D01*
X63050Y-38030D01*
X63081Y-37956D01*
X63081Y-37808D01*
X63024Y-37671D01*
X62920Y-37567D01*
X62867Y-37545D01*
X62680Y-37143D01*
X62657Y-37112D01*
X62635Y-37074D01*
X61932Y-36281D01*
X61932Y-36130D01*
X61935Y-36129D01*
X61943Y-36120D01*
X62044Y-36185D01*
X62191Y-36212D01*
X62191Y-36211D01*
X62192Y-36212D01*
X62192Y-36211D01*
X62652Y-36205D01*
X62794Y-36174D01*
X62821Y-36201D01*
X62776Y-36246D01*
X62719Y-36383D01*
X62719Y-36531D01*
X62776Y-36668D01*
X62880Y-36772D01*
X63017Y-36829D01*
X63165Y-36829D01*
X63302Y-36772D01*
X63406Y-36668D01*
X63450Y-36562D01*
X63450Y-37521D01*
X64979Y-39050D01*
X66428Y-39050D01*
X66428Y-39703D01*
X66426Y-39701D01*
X66352Y-39661D01*
X66339Y-39674D01*
X66339Y-39648D01*
X66299Y-39574D01*
X66114Y-39492D01*
X65911Y-39487D01*
X65721Y-39560D01*
X65701Y-39574D01*
X65661Y-39648D01*
X66000Y-39987D01*
X66339Y-39648D01*
X66339Y-39674D01*
X66013Y-40000D01*
X66352Y-40339D01*
X66426Y-40299D01*
X66428Y-40294D01*
X66428Y-40428D01*
M02*
