G04 (created by PCBNEW-RS274X (2011-05-25)-stable) date Mon 08 Dec 2014 09:37:15 GMT*
G01*
G70*
G90*
%MOIN*%
G04 Gerber Fmt 3.4, Leading zero omitted, Abs format*
%FSLAX34Y34*%
G04 APERTURE LIST*
%ADD10C,0.006000*%
%ADD11R,0.059400X0.047600*%
%ADD12R,0.047600X0.059400*%
%ADD13R,0.040000X0.050000*%
%ADD14R,0.050000X0.040000*%
%ADD15R,0.065000X0.040000*%
%ADD16R,0.075000X0.055000*%
%ADD17R,0.055000X0.075000*%
%ADD18R,0.045000X0.065000*%
%ADD19R,0.065000X0.045000*%
%ADD20C,0.098700*%
%ADD21O,0.094800X0.071200*%
%ADD22O,0.098300X0.071200*%
%ADD23R,0.070000X0.035000*%
%ADD24R,0.035000X0.070000*%
%ADD25R,0.030600X0.059400*%
%ADD26R,0.059400X0.030600*%
%ADD27R,0.051400X0.051400*%
%ADD28R,0.060200X0.055400*%
%ADD29O,0.075100X0.230200*%
%ADD30R,0.039700X0.035700*%
%ADD31O,0.090900X0.059400*%
%ADD32O,0.098700X0.059400*%
%ADD33O,0.059400X0.098700*%
%ADD34R,0.080000X0.100000*%
%ADD35R,0.100000X0.080000*%
G04 APERTURE END LIST*
G54D10*
G54D11*
X53256Y-35137D03*
X53256Y-35512D03*
X53256Y-35887D03*
X52256Y-35887D03*
X52256Y-35512D03*
X52256Y-35137D03*
G54D12*
X58416Y-34368D03*
X58041Y-34368D03*
X57666Y-34368D03*
X57666Y-33368D03*
X58041Y-33368D03*
X58416Y-33368D03*
G54D13*
X49192Y-34890D03*
X49942Y-34890D03*
X49192Y-33890D03*
X49567Y-34890D03*
X49942Y-33890D03*
G54D14*
X59969Y-39233D03*
X59969Y-38483D03*
X58969Y-39233D03*
X59969Y-38858D03*
X58969Y-38483D03*
G54D15*
X62543Y-33939D03*
X62543Y-34439D03*
X62543Y-34939D03*
X62543Y-35439D03*
X62543Y-35939D03*
X62543Y-36439D03*
X62543Y-36939D03*
X62543Y-37439D03*
X64543Y-37439D03*
X64543Y-36939D03*
X64543Y-36439D03*
X64543Y-35939D03*
X64543Y-35439D03*
X64543Y-34939D03*
X64543Y-34439D03*
X64543Y-33939D03*
G54D16*
X49055Y-36379D03*
X49055Y-35629D03*
G54D17*
X48916Y-37067D03*
X49666Y-37067D03*
G54D18*
X60290Y-31821D03*
X59690Y-31821D03*
X61107Y-32539D03*
X60507Y-32539D03*
G54D19*
X54303Y-34631D03*
X54303Y-34031D03*
G54D18*
X55438Y-38780D03*
X54838Y-38780D03*
G54D19*
X60925Y-36973D03*
X60925Y-36373D03*
X61693Y-38450D03*
X61693Y-37850D03*
G54D18*
X46865Y-38957D03*
X47465Y-38957D03*
G54D19*
X53500Y-34650D03*
X53500Y-34050D03*
G54D18*
X52072Y-39134D03*
X51472Y-39134D03*
G54D10*
G36*
X56664Y-33409D02*
X56204Y-33869D01*
X55886Y-33551D01*
X56346Y-33091D01*
X56664Y-33409D01*
X56664Y-33409D01*
G37*
G36*
X56240Y-32985D02*
X55780Y-33445D01*
X55462Y-33127D01*
X55922Y-32667D01*
X56240Y-32985D01*
X56240Y-32985D01*
G37*
G54D18*
X54198Y-38937D03*
X53598Y-38937D03*
X52141Y-34016D03*
X52741Y-34016D03*
X54434Y-35531D03*
X53834Y-35531D03*
G54D19*
X54744Y-37653D03*
X54744Y-38253D03*
X54745Y-36580D03*
X54745Y-37180D03*
G54D18*
X50525Y-34775D03*
X51125Y-34775D03*
G54D19*
X48937Y-32338D03*
X48937Y-32938D03*
X47854Y-34276D03*
X47854Y-33676D03*
G54D18*
X47810Y-35138D03*
X48410Y-35138D03*
G54D10*
G36*
X56040Y-32884D02*
X55580Y-32424D01*
X55898Y-32106D01*
X56358Y-32566D01*
X56040Y-32884D01*
X56040Y-32884D01*
G37*
G36*
X56464Y-32460D02*
X56004Y-32000D01*
X56322Y-31682D01*
X56782Y-32142D01*
X56464Y-32460D01*
X56464Y-32460D01*
G37*
G54D18*
X48450Y-38957D03*
X47850Y-38957D03*
G54D19*
X49744Y-35842D03*
X49744Y-36442D03*
X61547Y-35007D03*
X61547Y-35607D03*
X58071Y-38135D03*
X58071Y-37535D03*
G54D18*
X60154Y-37976D03*
X59554Y-37976D03*
X61107Y-33130D03*
X60507Y-33130D03*
G54D19*
X59646Y-32741D03*
X59646Y-33341D03*
X65236Y-36865D03*
X65236Y-37465D03*
G54D18*
X52535Y-39134D03*
X53135Y-39134D03*
G54D19*
X50079Y-32957D03*
X50079Y-32357D03*
G54D18*
X53942Y-36752D03*
X53342Y-36752D03*
G54D19*
X56398Y-38026D03*
X56398Y-37426D03*
G54D18*
X52613Y-32165D03*
X53213Y-32165D03*
X52761Y-36457D03*
X52161Y-36457D03*
X50566Y-35512D03*
X51166Y-35512D03*
G54D19*
X48583Y-33735D03*
X48583Y-34335D03*
G54D18*
X52603Y-34606D03*
X52003Y-34606D03*
X49788Y-38996D03*
X49188Y-38996D03*
G54D20*
X66000Y-38000D03*
X66000Y-37000D03*
X66000Y-36000D03*
X66000Y-35000D03*
X66000Y-34000D03*
X66000Y-33000D03*
X47000Y-38000D03*
X47000Y-37000D03*
X47000Y-36000D03*
X47000Y-35000D03*
X47000Y-34000D03*
G54D21*
X48000Y-38000D03*
G54D22*
X48000Y-37000D03*
G54D20*
X48000Y-36000D03*
X48000Y-32500D03*
X47000Y-32500D03*
G54D23*
X52125Y-37341D03*
X52125Y-37597D03*
X52125Y-37853D03*
X52125Y-38109D03*
X53825Y-38109D03*
X53825Y-37853D03*
X53825Y-37597D03*
X53825Y-37341D03*
G54D24*
X50356Y-38030D03*
X50612Y-38030D03*
X50868Y-38030D03*
X51124Y-38030D03*
X51124Y-36330D03*
X50868Y-36330D03*
X50612Y-36330D03*
X50356Y-36330D03*
G54D25*
X51400Y-32375D03*
X51200Y-32375D03*
X51000Y-32375D03*
X50800Y-32375D03*
X50600Y-32375D03*
X50600Y-34125D03*
X50800Y-34125D03*
X51000Y-34125D03*
X51200Y-34125D03*
X51400Y-34125D03*
G54D26*
X51920Y-32596D03*
X51920Y-32796D03*
X51920Y-32996D03*
X51920Y-33196D03*
X51920Y-33396D03*
X53670Y-33396D03*
X53670Y-33196D03*
X53670Y-32996D03*
X53670Y-32796D03*
X53670Y-32596D03*
G54D27*
X55020Y-34067D03*
X55020Y-34657D03*
X60984Y-37874D03*
X60984Y-38464D03*
G54D28*
X58445Y-36689D03*
X58445Y-35397D03*
G54D29*
X60364Y-34635D03*
X59182Y-34635D03*
G54D20*
X47000Y-40000D03*
X48000Y-40000D03*
X49000Y-40000D03*
X50000Y-40000D03*
X51000Y-40000D03*
X52000Y-40000D03*
X53000Y-40000D03*
X54000Y-40000D03*
X55000Y-40000D03*
X56000Y-40000D03*
X57000Y-40000D03*
X58000Y-40000D03*
X59000Y-40000D03*
X60000Y-40000D03*
X61000Y-40000D03*
X62000Y-40000D03*
X63000Y-40000D03*
X64000Y-40000D03*
X65000Y-40000D03*
X66000Y-40000D03*
X47000Y-31000D03*
X48000Y-31000D03*
X49000Y-31000D03*
X50000Y-31000D03*
X51000Y-31000D03*
X52000Y-31000D03*
X53000Y-31000D03*
X54000Y-31000D03*
X55000Y-31000D03*
X56000Y-31000D03*
X57000Y-31000D03*
X58000Y-31000D03*
X59000Y-31000D03*
X60000Y-31000D03*
X61000Y-31000D03*
X62000Y-31000D03*
X63000Y-31000D03*
X64000Y-31000D03*
X65000Y-31000D03*
X66000Y-31000D03*
G54D30*
X49646Y-38350D03*
X49646Y-37838D03*
X48898Y-37838D03*
X48898Y-38094D03*
X48898Y-38350D03*
G54D20*
X65032Y-33269D03*
X62212Y-32243D03*
X65071Y-38070D03*
X62251Y-39096D03*
G54D19*
X65197Y-35586D03*
X65197Y-36186D03*
X65217Y-34267D03*
X65217Y-34867D03*
G54D31*
X53937Y-36181D03*
G54D32*
X52441Y-38543D03*
G54D33*
X55433Y-37558D03*
G54D34*
X60276Y-36220D03*
X58976Y-36220D03*
G54D16*
X57323Y-38249D03*
X57323Y-37499D03*
G54D34*
X60280Y-37154D03*
X58980Y-37154D03*
G54D35*
X56772Y-35019D03*
X56772Y-36319D03*
G54D10*
G36*
X56654Y-33365D02*
X56194Y-32905D01*
X56512Y-32587D01*
X56972Y-33047D01*
X56654Y-33365D01*
X56654Y-33365D01*
G37*
G36*
X57078Y-32941D02*
X56618Y-32481D01*
X56936Y-32163D01*
X57396Y-32623D01*
X57078Y-32941D01*
X57078Y-32941D01*
G37*
G54D35*
X57717Y-35019D03*
X57717Y-36319D03*
M02*
