G04 (created by PCBNEW-RS274X (2011-05-25)-stable) date Mon 08 Dec 2014 09:37:15 GMT*
G01*
G70*
G90*
%MOIN*%
G04 Gerber Fmt 3.4, Leading zero omitted, Abs format*
%FSLAX34Y34*%
G04 APERTURE LIST*
%ADD10C,0.006000*%
%ADD11C,0.003900*%
%ADD12C,0.004400*%
%ADD13C,0.015000*%
%ADD14C,0.005000*%
%ADD15C,0.008000*%
%ADD16C,0.012000*%
%ADD17C,0.002600*%
%ADD18C,0.004000*%
G04 APERTURE END LIST*
G54D10*
G54D11*
X47965Y-31556D02*
X48024Y-31851D01*
X48083Y-31556D01*
X48142Y-31851D02*
X48142Y-31556D01*
X48226Y-31851D02*
X48226Y-31556D01*
X48327Y-31851D01*
X48327Y-31556D01*
X48411Y-31739D02*
X48546Y-31739D01*
X48479Y-31851D02*
X48479Y-31626D01*
G54D12*
X46803Y-31576D02*
X46862Y-31871D01*
X46921Y-31576D01*
X46980Y-31871D02*
X46980Y-31576D01*
X47064Y-31871D02*
X47064Y-31576D01*
X47165Y-31871D01*
X47165Y-31576D01*
X47249Y-31759D02*
X47384Y-31759D01*
X47317Y-31871D02*
X47317Y-31646D01*
G54D13*
X65000Y-39000D02*
X66500Y-39000D01*
X63500Y-37500D02*
X65000Y-39000D01*
X63500Y-33500D02*
X63500Y-37500D01*
X65000Y-32000D02*
X63500Y-33500D01*
X66500Y-32000D02*
X65000Y-32000D01*
G54D14*
X52456Y-35312D02*
X52656Y-35012D01*
X52456Y-36012D02*
X52456Y-34987D01*
X52456Y-34987D02*
X53056Y-34987D01*
X53056Y-34987D02*
X53056Y-36012D01*
X53056Y-36012D02*
X52456Y-36012D01*
X58241Y-33568D02*
X58541Y-33768D01*
X57541Y-33568D02*
X58566Y-33568D01*
X58566Y-33568D02*
X58566Y-34168D01*
X58566Y-34168D02*
X57541Y-34168D01*
X57541Y-34168D02*
X57541Y-33568D01*
X50167Y-34040D02*
X50167Y-34740D01*
X50167Y-34740D02*
X48967Y-34740D01*
X48967Y-34740D02*
X48967Y-34040D01*
X48967Y-34040D02*
X50167Y-34040D01*
X59119Y-38258D02*
X59819Y-38258D01*
X59819Y-38258D02*
X59819Y-39458D01*
X59819Y-39458D02*
X59119Y-39458D01*
X59119Y-39458D02*
X59119Y-38258D01*
G54D15*
X64243Y-33539D02*
X64243Y-37839D01*
X64243Y-37839D02*
X62843Y-37839D01*
X62843Y-37839D02*
X62843Y-33539D01*
X62843Y-33539D02*
X64243Y-33539D01*
X63743Y-33539D02*
X63743Y-33839D01*
X63743Y-33839D02*
X63343Y-33839D01*
X63343Y-33839D02*
X63343Y-33539D01*
G54D14*
X49405Y-36654D02*
X49404Y-36663D01*
X49401Y-36673D01*
X49396Y-36681D01*
X49390Y-36689D01*
X49382Y-36695D01*
X49374Y-36700D01*
X49365Y-36702D01*
X49355Y-36703D01*
X49346Y-36703D01*
X49337Y-36700D01*
X49328Y-36695D01*
X49321Y-36689D01*
X49314Y-36682D01*
X49310Y-36673D01*
X49307Y-36664D01*
X49306Y-36654D01*
X49306Y-36645D01*
X49309Y-36636D01*
X49313Y-36627D01*
X49320Y-36620D01*
X49327Y-36613D01*
X49335Y-36609D01*
X49345Y-36606D01*
X49354Y-36605D01*
X49363Y-36605D01*
X49373Y-36608D01*
X49381Y-36612D01*
X49389Y-36618D01*
X49395Y-36626D01*
X49400Y-36634D01*
X49403Y-36643D01*
X49404Y-36653D01*
X49405Y-36654D01*
X49355Y-36204D02*
X49355Y-36604D01*
X49355Y-36604D02*
X48755Y-36604D01*
X48755Y-36604D02*
X48755Y-36204D01*
X48755Y-35804D02*
X48755Y-35404D01*
X48755Y-35404D02*
X49355Y-35404D01*
X49355Y-35404D02*
X49355Y-35804D01*
X48691Y-37367D02*
X48690Y-37376D01*
X48687Y-37386D01*
X48682Y-37394D01*
X48676Y-37402D01*
X48668Y-37408D01*
X48660Y-37413D01*
X48651Y-37415D01*
X48641Y-37416D01*
X48632Y-37416D01*
X48623Y-37413D01*
X48614Y-37408D01*
X48607Y-37402D01*
X48600Y-37395D01*
X48596Y-37386D01*
X48593Y-37377D01*
X48592Y-37367D01*
X48592Y-37358D01*
X48595Y-37349D01*
X48599Y-37340D01*
X48606Y-37333D01*
X48613Y-37326D01*
X48621Y-37322D01*
X48631Y-37319D01*
X48640Y-37318D01*
X48649Y-37318D01*
X48659Y-37321D01*
X48667Y-37325D01*
X48675Y-37331D01*
X48681Y-37339D01*
X48686Y-37347D01*
X48689Y-37356D01*
X48690Y-37366D01*
X48691Y-37367D01*
X49091Y-37367D02*
X48691Y-37367D01*
X48691Y-37367D02*
X48691Y-36767D01*
X48691Y-36767D02*
X49091Y-36767D01*
X49491Y-36767D02*
X49891Y-36767D01*
X49891Y-36767D02*
X49891Y-37367D01*
X49891Y-37367D02*
X49491Y-37367D01*
X60440Y-32071D02*
X59540Y-32071D01*
X59540Y-32071D02*
X59540Y-31571D01*
X59540Y-31571D02*
X60440Y-31571D01*
X60440Y-31571D02*
X60440Y-32071D01*
X61257Y-32789D02*
X60357Y-32789D01*
X60357Y-32789D02*
X60357Y-32289D01*
X60357Y-32289D02*
X61257Y-32289D01*
X61257Y-32289D02*
X61257Y-32789D01*
X54053Y-34781D02*
X54053Y-33881D01*
X54053Y-33881D02*
X54553Y-33881D01*
X54553Y-33881D02*
X54553Y-34781D01*
X54553Y-34781D02*
X54053Y-34781D01*
X55588Y-39030D02*
X54688Y-39030D01*
X54688Y-39030D02*
X54688Y-38530D01*
X54688Y-38530D02*
X55588Y-38530D01*
X55588Y-38530D02*
X55588Y-39030D01*
X60675Y-37123D02*
X60675Y-36223D01*
X60675Y-36223D02*
X61175Y-36223D01*
X61175Y-36223D02*
X61175Y-37123D01*
X61175Y-37123D02*
X60675Y-37123D01*
X61443Y-38600D02*
X61443Y-37700D01*
X61443Y-37700D02*
X61943Y-37700D01*
X61943Y-37700D02*
X61943Y-38600D01*
X61943Y-38600D02*
X61443Y-38600D01*
X46715Y-38707D02*
X47615Y-38707D01*
X47615Y-38707D02*
X47615Y-39207D01*
X47615Y-39207D02*
X46715Y-39207D01*
X46715Y-39207D02*
X46715Y-38707D01*
X53250Y-34800D02*
X53250Y-33900D01*
X53250Y-33900D02*
X53750Y-33900D01*
X53750Y-33900D02*
X53750Y-34800D01*
X53750Y-34800D02*
X53250Y-34800D01*
X52222Y-39384D02*
X51322Y-39384D01*
X51322Y-39384D02*
X51322Y-38884D01*
X51322Y-38884D02*
X52222Y-38884D01*
X52222Y-38884D02*
X52222Y-39384D01*
X56204Y-33763D02*
X55568Y-33127D01*
X55568Y-33127D02*
X55922Y-32773D01*
X55922Y-32773D02*
X56558Y-33409D01*
X56558Y-33409D02*
X56204Y-33763D01*
X54348Y-39187D02*
X53448Y-39187D01*
X53448Y-39187D02*
X53448Y-38687D01*
X53448Y-38687D02*
X54348Y-38687D01*
X54348Y-38687D02*
X54348Y-39187D01*
X51991Y-33766D02*
X52891Y-33766D01*
X52891Y-33766D02*
X52891Y-34266D01*
X52891Y-34266D02*
X51991Y-34266D01*
X51991Y-34266D02*
X51991Y-33766D01*
X54584Y-35781D02*
X53684Y-35781D01*
X53684Y-35781D02*
X53684Y-35281D01*
X53684Y-35281D02*
X54584Y-35281D01*
X54584Y-35281D02*
X54584Y-35781D01*
X54994Y-37503D02*
X54994Y-38403D01*
X54994Y-38403D02*
X54494Y-38403D01*
X54494Y-38403D02*
X54494Y-37503D01*
X54494Y-37503D02*
X54994Y-37503D01*
X54995Y-36430D02*
X54995Y-37330D01*
X54995Y-37330D02*
X54495Y-37330D01*
X54495Y-37330D02*
X54495Y-36430D01*
X54495Y-36430D02*
X54995Y-36430D01*
X50375Y-34525D02*
X51275Y-34525D01*
X51275Y-34525D02*
X51275Y-35025D01*
X51275Y-35025D02*
X50375Y-35025D01*
X50375Y-35025D02*
X50375Y-34525D01*
X49187Y-32188D02*
X49187Y-33088D01*
X49187Y-33088D02*
X48687Y-33088D01*
X48687Y-33088D02*
X48687Y-32188D01*
X48687Y-32188D02*
X49187Y-32188D01*
X47604Y-34426D02*
X47604Y-33526D01*
X47604Y-33526D02*
X48104Y-33526D01*
X48104Y-33526D02*
X48104Y-34426D01*
X48104Y-34426D02*
X47604Y-34426D01*
X47660Y-34888D02*
X48560Y-34888D01*
X48560Y-34888D02*
X48560Y-35388D01*
X48560Y-35388D02*
X47660Y-35388D01*
X47660Y-35388D02*
X47660Y-34888D01*
X55686Y-32424D02*
X56322Y-31788D01*
X56322Y-31788D02*
X56676Y-32142D01*
X56676Y-32142D02*
X56040Y-32778D01*
X56040Y-32778D02*
X55686Y-32424D01*
X48600Y-39207D02*
X47700Y-39207D01*
X47700Y-39207D02*
X47700Y-38707D01*
X47700Y-38707D02*
X48600Y-38707D01*
X48600Y-38707D02*
X48600Y-39207D01*
X49994Y-35692D02*
X49994Y-36592D01*
X49994Y-36592D02*
X49494Y-36592D01*
X49494Y-36592D02*
X49494Y-35692D01*
X49494Y-35692D02*
X49994Y-35692D01*
X61797Y-34857D02*
X61797Y-35757D01*
X61797Y-35757D02*
X61297Y-35757D01*
X61297Y-35757D02*
X61297Y-34857D01*
X61297Y-34857D02*
X61797Y-34857D01*
X57821Y-38285D02*
X57821Y-37385D01*
X57821Y-37385D02*
X58321Y-37385D01*
X58321Y-37385D02*
X58321Y-38285D01*
X58321Y-38285D02*
X57821Y-38285D01*
X60304Y-38226D02*
X59404Y-38226D01*
X59404Y-38226D02*
X59404Y-37726D01*
X59404Y-37726D02*
X60304Y-37726D01*
X60304Y-37726D02*
X60304Y-38226D01*
X61257Y-33380D02*
X60357Y-33380D01*
X60357Y-33380D02*
X60357Y-32880D01*
X60357Y-32880D02*
X61257Y-32880D01*
X61257Y-32880D02*
X61257Y-33380D01*
X59896Y-32591D02*
X59896Y-33491D01*
X59896Y-33491D02*
X59396Y-33491D01*
X59396Y-33491D02*
X59396Y-32591D01*
X59396Y-32591D02*
X59896Y-32591D01*
X65486Y-36715D02*
X65486Y-37615D01*
X65486Y-37615D02*
X64986Y-37615D01*
X64986Y-37615D02*
X64986Y-36715D01*
X64986Y-36715D02*
X65486Y-36715D01*
X52385Y-38884D02*
X53285Y-38884D01*
X53285Y-38884D02*
X53285Y-39384D01*
X53285Y-39384D02*
X52385Y-39384D01*
X52385Y-39384D02*
X52385Y-38884D01*
X49829Y-33107D02*
X49829Y-32207D01*
X49829Y-32207D02*
X50329Y-32207D01*
X50329Y-32207D02*
X50329Y-33107D01*
X50329Y-33107D02*
X49829Y-33107D01*
X54092Y-37002D02*
X53192Y-37002D01*
X53192Y-37002D02*
X53192Y-36502D01*
X53192Y-36502D02*
X54092Y-36502D01*
X54092Y-36502D02*
X54092Y-37002D01*
X56148Y-38176D02*
X56148Y-37276D01*
X56148Y-37276D02*
X56648Y-37276D01*
X56648Y-37276D02*
X56648Y-38176D01*
X56648Y-38176D02*
X56148Y-38176D01*
X52463Y-31915D02*
X53363Y-31915D01*
X53363Y-31915D02*
X53363Y-32415D01*
X53363Y-32415D02*
X52463Y-32415D01*
X52463Y-32415D02*
X52463Y-31915D01*
X52911Y-36707D02*
X52011Y-36707D01*
X52011Y-36707D02*
X52011Y-36207D01*
X52011Y-36207D02*
X52911Y-36207D01*
X52911Y-36207D02*
X52911Y-36707D01*
X50416Y-35262D02*
X51316Y-35262D01*
X51316Y-35262D02*
X51316Y-35762D01*
X51316Y-35762D02*
X50416Y-35762D01*
X50416Y-35762D02*
X50416Y-35262D01*
X48833Y-33585D02*
X48833Y-34485D01*
X48833Y-34485D02*
X48333Y-34485D01*
X48333Y-34485D02*
X48333Y-33585D01*
X48333Y-33585D02*
X48833Y-33585D01*
X52753Y-34856D02*
X51853Y-34856D01*
X51853Y-34856D02*
X51853Y-34356D01*
X51853Y-34356D02*
X52753Y-34356D01*
X52753Y-34356D02*
X52753Y-34856D01*
X49938Y-39246D02*
X49038Y-39246D01*
X49038Y-39246D02*
X49038Y-38746D01*
X49038Y-38746D02*
X49938Y-38746D01*
X49938Y-38746D02*
X49938Y-39246D01*
G54D16*
X66500Y-38500D02*
X65500Y-38500D01*
X65500Y-38500D02*
X65500Y-32500D01*
X65500Y-32500D02*
X66500Y-32500D01*
X66500Y-32500D02*
X66500Y-38500D01*
X66500Y-37500D02*
X65500Y-37500D01*
X47500Y-38500D02*
X46500Y-38500D01*
X46500Y-38500D02*
X46500Y-33500D01*
X46500Y-33500D02*
X47500Y-33500D01*
X47500Y-33500D02*
X47500Y-38500D01*
X47500Y-37500D02*
X46500Y-37500D01*
X48500Y-38500D02*
X47500Y-38500D01*
X47500Y-38500D02*
X47500Y-35500D01*
X47500Y-35500D02*
X48500Y-35500D01*
X48500Y-35500D02*
X48500Y-38500D01*
X47500Y-37500D02*
X48500Y-37500D01*
X48500Y-32000D02*
X48500Y-33000D01*
X48500Y-33000D02*
X46500Y-33000D01*
X46500Y-33000D02*
X46500Y-32000D01*
X46500Y-32000D02*
X48500Y-32000D01*
G54D15*
X52350Y-37600D02*
X52825Y-37100D01*
X52350Y-37100D02*
X52350Y-38350D01*
X52350Y-38350D02*
X53600Y-38350D01*
X53600Y-38350D02*
X53600Y-37100D01*
X53600Y-37100D02*
X52350Y-37100D01*
X50615Y-37805D02*
X50115Y-37330D01*
X50115Y-37805D02*
X51365Y-37805D01*
X51365Y-37805D02*
X51365Y-36555D01*
X51365Y-36555D02*
X50115Y-36555D01*
X50115Y-36555D02*
X50115Y-37805D01*
X51500Y-32850D02*
X51498Y-32869D01*
X51492Y-32888D01*
X51483Y-32905D01*
X51470Y-32920D01*
X51455Y-32932D01*
X51438Y-32942D01*
X51420Y-32947D01*
X51400Y-32949D01*
X51382Y-32948D01*
X51363Y-32942D01*
X51346Y-32933D01*
X51331Y-32921D01*
X51318Y-32906D01*
X51309Y-32889D01*
X51303Y-32870D01*
X51301Y-32851D01*
X51302Y-32832D01*
X51308Y-32814D01*
X51316Y-32796D01*
X51329Y-32781D01*
X51343Y-32768D01*
X51360Y-32759D01*
X51379Y-32753D01*
X51398Y-32751D01*
X51417Y-32752D01*
X51436Y-32757D01*
X51453Y-32766D01*
X51468Y-32778D01*
X51481Y-32793D01*
X51491Y-32810D01*
X51497Y-32828D01*
X51499Y-32848D01*
X51500Y-32850D01*
X50400Y-32650D02*
X51600Y-32650D01*
X51600Y-32650D02*
X51600Y-33850D01*
X51600Y-33850D02*
X50400Y-33850D01*
X50400Y-33850D02*
X50400Y-32650D01*
X52495Y-32596D02*
X52493Y-32615D01*
X52487Y-32634D01*
X52478Y-32651D01*
X52465Y-32666D01*
X52450Y-32678D01*
X52433Y-32688D01*
X52415Y-32693D01*
X52395Y-32695D01*
X52377Y-32694D01*
X52358Y-32688D01*
X52341Y-32679D01*
X52326Y-32667D01*
X52313Y-32652D01*
X52304Y-32635D01*
X52298Y-32616D01*
X52296Y-32597D01*
X52297Y-32578D01*
X52303Y-32560D01*
X52311Y-32542D01*
X52324Y-32527D01*
X52338Y-32514D01*
X52355Y-32505D01*
X52374Y-32499D01*
X52393Y-32497D01*
X52412Y-32498D01*
X52431Y-32503D01*
X52448Y-32512D01*
X52463Y-32524D01*
X52476Y-32539D01*
X52486Y-32556D01*
X52492Y-32574D01*
X52494Y-32594D01*
X52495Y-32596D01*
X52195Y-33596D02*
X52195Y-32396D01*
X52195Y-32396D02*
X53395Y-32396D01*
X53395Y-32396D02*
X53395Y-33596D01*
X53395Y-33596D02*
X52195Y-33596D01*
G54D17*
X55197Y-34539D02*
X54843Y-34539D01*
X54843Y-34539D02*
X54843Y-34696D01*
X55197Y-34696D02*
X54843Y-34696D01*
X55197Y-34539D02*
X55197Y-34696D01*
X55197Y-34028D02*
X54843Y-34028D01*
X54843Y-34028D02*
X54843Y-34185D01*
X55197Y-34185D02*
X54843Y-34185D01*
X55197Y-34028D02*
X55197Y-34185D01*
X55197Y-34362D02*
X55138Y-34362D01*
X55138Y-34362D02*
X55138Y-34480D01*
X55197Y-34480D02*
X55138Y-34480D01*
X55197Y-34362D02*
X55197Y-34480D01*
X54902Y-34362D02*
X54843Y-34362D01*
X54843Y-34362D02*
X54843Y-34480D01*
X54902Y-34480D02*
X54843Y-34480D01*
X54902Y-34362D02*
X54902Y-34480D01*
X55079Y-34362D02*
X54961Y-34362D01*
X54961Y-34362D02*
X54961Y-34480D01*
X55079Y-34480D02*
X54961Y-34480D01*
X55079Y-34362D02*
X55079Y-34480D01*
G54D18*
X55177Y-34539D02*
X55177Y-34185D01*
X54863Y-34539D02*
X54863Y-34185D01*
G54D17*
X61161Y-38346D02*
X60807Y-38346D01*
X60807Y-38346D02*
X60807Y-38503D01*
X61161Y-38503D02*
X60807Y-38503D01*
X61161Y-38346D02*
X61161Y-38503D01*
X61161Y-37835D02*
X60807Y-37835D01*
X60807Y-37835D02*
X60807Y-37992D01*
X61161Y-37992D02*
X60807Y-37992D01*
X61161Y-37835D02*
X61161Y-37992D01*
X61161Y-38169D02*
X61102Y-38169D01*
X61102Y-38169D02*
X61102Y-38287D01*
X61161Y-38287D02*
X61102Y-38287D01*
X61161Y-38169D02*
X61161Y-38287D01*
X60866Y-38169D02*
X60807Y-38169D01*
X60807Y-38169D02*
X60807Y-38287D01*
X60866Y-38287D02*
X60807Y-38287D01*
X60866Y-38169D02*
X60866Y-38287D01*
X61043Y-38169D02*
X60925Y-38169D01*
X60925Y-38169D02*
X60925Y-38287D01*
X61043Y-38287D02*
X60925Y-38287D01*
X61043Y-38169D02*
X61043Y-38287D01*
G54D18*
X61141Y-38346D02*
X61141Y-37992D01*
X60827Y-38346D02*
X60827Y-37992D01*
G54D13*
X58839Y-36712D02*
X58760Y-36712D01*
X58839Y-35334D02*
X58760Y-35334D01*
X58839Y-36712D02*
X58839Y-35334D01*
X58130Y-35334D02*
X58051Y-35334D01*
X58051Y-35334D02*
X58051Y-36712D01*
X58051Y-36712D02*
X58130Y-36712D01*
X60403Y-35580D02*
X59182Y-35580D01*
X59182Y-35580D02*
X58710Y-35107D01*
X58710Y-35107D02*
X58710Y-34241D01*
X58710Y-34241D02*
X59104Y-33690D01*
X59104Y-33690D02*
X60403Y-33690D01*
X60403Y-33690D02*
X60836Y-34123D01*
X60836Y-34123D02*
X60836Y-35147D01*
X60836Y-35147D02*
X60403Y-35580D01*
X66500Y-40500D02*
X66500Y-39500D01*
X46500Y-40500D02*
X66500Y-40500D01*
X46500Y-39500D02*
X66500Y-39500D01*
G54D16*
X46500Y-40500D02*
X46500Y-39500D01*
X47500Y-39500D02*
X47500Y-40500D01*
G54D13*
X66500Y-31500D02*
X66500Y-30500D01*
X46500Y-31500D02*
X66500Y-31500D01*
X46500Y-30500D02*
X66500Y-30500D01*
G54D16*
X46500Y-31500D02*
X46500Y-30500D01*
X47500Y-30500D02*
X47500Y-31500D01*
G54D13*
X49863Y-37602D02*
X49863Y-38586D01*
X49863Y-38586D02*
X48681Y-38586D01*
X48681Y-38586D02*
X48681Y-37602D01*
X48681Y-37602D02*
X49863Y-37602D01*
G54D16*
X65032Y-33269D02*
X64844Y-33201D01*
X62212Y-32243D02*
X62400Y-32311D01*
X62400Y-32311D02*
X62264Y-32687D01*
X62264Y-32687D02*
X64707Y-33577D01*
X64707Y-33577D02*
X64980Y-32825D01*
X64980Y-32825D02*
X62537Y-31935D01*
X62537Y-31935D02*
X62400Y-32311D01*
X64775Y-33389D02*
X64519Y-33508D01*
X65071Y-38070D02*
X64883Y-38138D01*
X62251Y-39096D02*
X62439Y-39028D01*
X62439Y-39028D02*
X62576Y-39404D01*
X62576Y-39404D02*
X65019Y-38514D01*
X65019Y-38514D02*
X64746Y-37762D01*
X64746Y-37762D02*
X62303Y-38652D01*
X62303Y-38652D02*
X62439Y-39028D01*
X64951Y-38326D02*
X64831Y-38583D01*
G54D14*
X65447Y-35436D02*
X65447Y-36336D01*
X65447Y-36336D02*
X64947Y-36336D01*
X64947Y-36336D02*
X64947Y-35436D01*
X64947Y-35436D02*
X65447Y-35436D01*
X65467Y-34117D02*
X65467Y-35017D01*
X65467Y-35017D02*
X64967Y-35017D01*
X64967Y-35017D02*
X64967Y-34117D01*
X64967Y-34117D02*
X65467Y-34117D01*
X60626Y-36670D02*
X60626Y-35770D01*
X60626Y-35770D02*
X59976Y-35770D01*
X59276Y-36670D02*
X58626Y-36670D01*
X58626Y-36670D02*
X58626Y-35770D01*
X58626Y-35770D02*
X59276Y-35770D01*
X59976Y-36670D02*
X60626Y-36670D01*
X57673Y-38524D02*
X57672Y-38533D01*
X57669Y-38543D01*
X57664Y-38551D01*
X57658Y-38559D01*
X57650Y-38565D01*
X57642Y-38570D01*
X57633Y-38572D01*
X57623Y-38573D01*
X57614Y-38573D01*
X57605Y-38570D01*
X57596Y-38565D01*
X57589Y-38559D01*
X57582Y-38552D01*
X57578Y-38543D01*
X57575Y-38534D01*
X57574Y-38524D01*
X57574Y-38515D01*
X57577Y-38506D01*
X57581Y-38497D01*
X57588Y-38490D01*
X57595Y-38483D01*
X57603Y-38479D01*
X57613Y-38476D01*
X57622Y-38475D01*
X57631Y-38475D01*
X57641Y-38478D01*
X57649Y-38482D01*
X57657Y-38488D01*
X57663Y-38496D01*
X57668Y-38504D01*
X57671Y-38513D01*
X57672Y-38523D01*
X57673Y-38524D01*
X57623Y-38074D02*
X57623Y-38474D01*
X57623Y-38474D02*
X57023Y-38474D01*
X57023Y-38474D02*
X57023Y-38074D01*
X57023Y-37674D02*
X57023Y-37274D01*
X57023Y-37274D02*
X57623Y-37274D01*
X57623Y-37274D02*
X57623Y-37674D01*
X60630Y-37604D02*
X60630Y-36704D01*
X60630Y-36704D02*
X59980Y-36704D01*
X59280Y-37604D02*
X58630Y-37604D01*
X58630Y-37604D02*
X58630Y-36704D01*
X58630Y-36704D02*
X59280Y-36704D01*
X59980Y-37604D02*
X60630Y-37604D01*
X57222Y-34669D02*
X56322Y-34669D01*
X56322Y-34669D02*
X56322Y-35319D01*
X57222Y-36019D02*
X57222Y-36669D01*
X57222Y-36669D02*
X56322Y-36669D01*
X56322Y-36669D02*
X56322Y-36019D01*
X57222Y-35319D02*
X57222Y-34669D01*
X56300Y-32905D02*
X56936Y-32269D01*
X56936Y-32269D02*
X57290Y-32623D01*
X57290Y-32623D02*
X56654Y-33259D01*
X56654Y-33259D02*
X56300Y-32905D01*
X58167Y-34669D02*
X57267Y-34669D01*
X57267Y-34669D02*
X57267Y-35319D01*
X58167Y-36019D02*
X58167Y-36669D01*
X58167Y-36669D02*
X57267Y-36669D01*
X57267Y-36669D02*
X57267Y-36019D01*
X58167Y-35319D02*
X58167Y-34669D01*
M02*
