G04 (created by PCBNEW-RS274X (2011-05-25)-stable) date Mon 08 Dec 2014 09:37:15 GMT*
G01*
G70*
G90*
%MOIN*%
G04 Gerber Fmt 3.4, Leading zero omitted, Abs format*
%FSLAX34Y34*%
G04 APERTURE LIST*
%ADD10C,0.006000*%
%ADD11C,0.006900*%
%ADD12C,0.007400*%
%ADD13C,0.015000*%
%ADD14C,0.004300*%
%ADD15C,0.008000*%
%ADD16C,0.005000*%
G04 APERTURE END LIST*
G54D10*
G54D11*
X53574Y-38551D02*
X53443Y-38551D01*
X53601Y-38663D02*
X53509Y-38269D01*
X53417Y-38663D01*
X53324Y-38663D02*
X53324Y-38401D01*
X53324Y-38269D02*
X53337Y-38288D01*
X53324Y-38307D01*
X53311Y-38288D01*
X53324Y-38269D01*
X53324Y-38307D01*
X53193Y-38663D02*
X53193Y-38401D01*
X53193Y-38476D02*
X53180Y-38438D01*
X53167Y-38420D01*
X53141Y-38401D01*
X53114Y-38401D01*
X52970Y-38269D02*
X52917Y-38269D01*
X52891Y-38288D01*
X52865Y-38326D01*
X52851Y-38401D01*
X52851Y-38532D01*
X52865Y-38607D01*
X52891Y-38645D01*
X52917Y-38663D01*
X52970Y-38663D01*
X52996Y-38645D01*
X53022Y-38607D01*
X53035Y-38532D01*
X53035Y-38401D01*
X53022Y-38326D01*
X52996Y-38288D01*
X52970Y-38269D01*
X52746Y-38645D02*
X52707Y-38663D01*
X52641Y-38663D01*
X52615Y-38645D01*
X52602Y-38626D01*
X52589Y-38588D01*
X52589Y-38551D01*
X52602Y-38513D01*
X52615Y-38495D01*
X52641Y-38476D01*
X52694Y-38457D01*
X52720Y-38438D01*
X52733Y-38420D01*
X52746Y-38382D01*
X52746Y-38345D01*
X52733Y-38307D01*
X52720Y-38288D01*
X52694Y-38269D01*
X52628Y-38269D01*
X52589Y-38288D01*
X52470Y-38663D02*
X52470Y-38269D01*
X52405Y-38269D01*
X52365Y-38288D01*
X52339Y-38326D01*
X52326Y-38363D01*
X52313Y-38438D01*
X52313Y-38495D01*
X52326Y-38570D01*
X52339Y-38607D01*
X52365Y-38645D01*
X52405Y-38663D01*
X52470Y-38663D01*
X52024Y-38269D02*
X51932Y-38663D01*
X51840Y-38269D01*
X51603Y-38663D02*
X51760Y-38663D01*
X51682Y-38663D02*
X51682Y-38269D01*
X51708Y-38326D01*
X51734Y-38363D01*
X51760Y-38382D01*
X51484Y-38626D02*
X51471Y-38645D01*
X51484Y-38663D01*
X51497Y-38645D01*
X51484Y-38626D01*
X51484Y-38663D01*
X51301Y-38269D02*
X51274Y-38269D01*
X51248Y-38288D01*
X51235Y-38307D01*
X51222Y-38345D01*
X51209Y-38420D01*
X51209Y-38513D01*
X51222Y-38588D01*
X51235Y-38626D01*
X51248Y-38645D01*
X51274Y-38663D01*
X51301Y-38663D01*
X51327Y-38645D01*
X51340Y-38626D01*
X51353Y-38588D01*
X51366Y-38513D01*
X51366Y-38420D01*
X51353Y-38345D01*
X51340Y-38307D01*
X51327Y-38288D01*
X51301Y-38269D01*
G54D12*
X52351Y-35561D02*
X52388Y-35537D01*
X52426Y-35488D01*
X52482Y-35415D01*
X52519Y-35390D01*
X52557Y-35390D01*
X52538Y-35512D02*
X52576Y-35488D01*
X52613Y-35439D01*
X52632Y-35342D01*
X52632Y-35171D01*
X52613Y-35073D01*
X52576Y-35025D01*
X52538Y-35000D01*
X52463Y-35000D01*
X52426Y-35025D01*
X52388Y-35073D01*
X52369Y-35171D01*
X52369Y-35342D01*
X52388Y-35439D01*
X52426Y-35488D01*
X52463Y-35512D01*
X52538Y-35512D01*
X52031Y-35171D02*
X52031Y-35512D01*
X52200Y-35171D02*
X52200Y-35439D01*
X52181Y-35488D01*
X52144Y-35512D01*
X52088Y-35512D01*
X52050Y-35488D01*
X52031Y-35463D01*
X51675Y-35512D02*
X51675Y-35244D01*
X51694Y-35195D01*
X51732Y-35171D01*
X51807Y-35171D01*
X51844Y-35195D01*
X51675Y-35488D02*
X51713Y-35512D01*
X51807Y-35512D01*
X51844Y-35488D01*
X51863Y-35439D01*
X51863Y-35390D01*
X51844Y-35342D01*
X51807Y-35317D01*
X51713Y-35317D01*
X51675Y-35293D01*
X51488Y-35171D02*
X51488Y-35512D01*
X51488Y-35220D02*
X51469Y-35195D01*
X51432Y-35171D01*
X51376Y-35171D01*
X51338Y-35195D01*
X51319Y-35244D01*
X51319Y-35512D01*
X51188Y-35171D02*
X51038Y-35171D01*
X51132Y-35000D02*
X51132Y-35439D01*
X51113Y-35488D01*
X51076Y-35512D01*
X51038Y-35512D01*
X50907Y-35512D02*
X50907Y-35171D01*
X50907Y-35268D02*
X50888Y-35220D01*
X50870Y-35195D01*
X50832Y-35171D01*
X50795Y-35171D01*
X50494Y-35512D02*
X50494Y-35244D01*
X50513Y-35195D01*
X50551Y-35171D01*
X50626Y-35171D01*
X50663Y-35195D01*
X50494Y-35488D02*
X50532Y-35512D01*
X50626Y-35512D01*
X50663Y-35488D01*
X50682Y-35439D01*
X50682Y-35390D01*
X50663Y-35342D01*
X50626Y-35317D01*
X50532Y-35317D01*
X50494Y-35293D01*
X50138Y-35488D02*
X50176Y-35512D01*
X50251Y-35512D01*
X50288Y-35488D01*
X50307Y-35463D01*
X50326Y-35415D01*
X50326Y-35268D01*
X50307Y-35220D01*
X50288Y-35195D01*
X50251Y-35171D01*
X50176Y-35171D01*
X50138Y-35195D01*
X49969Y-35512D02*
X49969Y-35000D01*
X49932Y-35317D02*
X49819Y-35512D01*
X49819Y-35171D02*
X49969Y-35366D01*
X49500Y-35488D02*
X49538Y-35512D01*
X49613Y-35512D01*
X49650Y-35488D01*
X49669Y-35439D01*
X49669Y-35244D01*
X49650Y-35195D01*
X49613Y-35171D01*
X49538Y-35171D01*
X49500Y-35195D01*
X49481Y-35244D01*
X49481Y-35293D01*
X49669Y-35342D01*
X49312Y-35512D02*
X49312Y-35171D01*
X49312Y-35268D02*
X49293Y-35220D01*
X49275Y-35195D01*
X49237Y-35171D01*
X49200Y-35171D01*
G54D13*
X63000Y-38500D02*
X62500Y-39000D01*
X63000Y-32500D02*
X63000Y-38500D01*
X62500Y-32000D02*
X63000Y-32500D01*
X64500Y-38500D02*
X66500Y-38500D01*
X63500Y-37500D02*
X64500Y-38500D01*
X64500Y-32500D02*
X66500Y-32500D01*
X63500Y-33500D02*
X64500Y-32500D01*
X63500Y-33500D02*
X63500Y-37500D01*
G54D14*
X64135Y-33854D02*
X63840Y-33854D01*
X63840Y-33895D01*
X63854Y-33920D01*
X63882Y-33937D01*
X63910Y-33945D01*
X63966Y-33953D01*
X64008Y-33953D01*
X64065Y-33945D01*
X64093Y-33937D01*
X64121Y-33920D01*
X64135Y-33895D01*
X64135Y-33854D01*
X64135Y-34027D02*
X63840Y-34027D01*
X63854Y-34200D02*
X63840Y-34183D01*
X63840Y-34159D01*
X63854Y-34134D01*
X63882Y-34117D01*
X63910Y-34109D01*
X63966Y-34101D01*
X64008Y-34101D01*
X64065Y-34109D01*
X64093Y-34117D01*
X64121Y-34134D01*
X64135Y-34159D01*
X64135Y-34175D01*
X64121Y-34200D01*
X64107Y-34208D01*
X64008Y-34208D01*
X64008Y-34175D01*
X64135Y-34282D02*
X63840Y-34282D01*
X63840Y-34339D02*
X63840Y-34438D01*
X64135Y-34389D02*
X63840Y-34389D01*
X64051Y-34488D02*
X64051Y-34570D01*
X64135Y-34471D02*
X63840Y-34529D01*
X64135Y-34587D01*
X64135Y-34727D02*
X64135Y-34644D01*
X63840Y-34644D01*
X64135Y-34867D02*
X64135Y-34784D01*
X63840Y-34784D01*
X63994Y-34957D02*
X64135Y-34957D01*
X63840Y-34899D02*
X63994Y-34957D01*
X63840Y-35015D01*
X64135Y-35204D02*
X63840Y-35204D01*
X64121Y-35278D02*
X64135Y-35303D01*
X64135Y-35344D01*
X64121Y-35360D01*
X64107Y-35369D01*
X64079Y-35377D01*
X64051Y-35377D01*
X64023Y-35369D01*
X64008Y-35360D01*
X63994Y-35344D01*
X63980Y-35311D01*
X63966Y-35294D01*
X63952Y-35286D01*
X63924Y-35278D01*
X63896Y-35278D01*
X63868Y-35286D01*
X63854Y-35294D01*
X63840Y-35311D01*
X63840Y-35352D01*
X63854Y-35377D01*
X63840Y-35484D02*
X63840Y-35517D01*
X63854Y-35534D01*
X63882Y-35550D01*
X63938Y-35558D01*
X64037Y-35558D01*
X64093Y-35550D01*
X64121Y-35534D01*
X64135Y-35517D01*
X64135Y-35484D01*
X64121Y-35468D01*
X64093Y-35451D01*
X64037Y-35443D01*
X63938Y-35443D01*
X63882Y-35451D01*
X63854Y-35468D01*
X63840Y-35484D01*
X64135Y-35715D02*
X64135Y-35632D01*
X63840Y-35632D01*
X64051Y-35764D02*
X64051Y-35846D01*
X64135Y-35747D02*
X63840Y-35805D01*
X64135Y-35863D01*
X63840Y-35895D02*
X63840Y-35994D01*
X64135Y-35945D02*
X63840Y-35945D01*
X63980Y-36052D02*
X63980Y-36110D01*
X64135Y-36135D02*
X64135Y-36052D01*
X63840Y-36052D01*
X63840Y-36135D01*
X64135Y-36209D02*
X63840Y-36209D01*
X63840Y-36250D01*
X63854Y-36275D01*
X63882Y-36292D01*
X63910Y-36300D01*
X63966Y-36308D01*
X64008Y-36308D01*
X64065Y-36300D01*
X64093Y-36292D01*
X64121Y-36275D01*
X64135Y-36250D01*
X64135Y-36209D01*
X64135Y-36514D02*
X63840Y-36514D01*
X63840Y-36580D01*
X63854Y-36597D01*
X63868Y-36605D01*
X63896Y-36613D01*
X63938Y-36613D01*
X63966Y-36605D01*
X63980Y-36597D01*
X63994Y-36580D01*
X63994Y-36514D01*
X63840Y-36720D02*
X63840Y-36753D01*
X63854Y-36770D01*
X63882Y-36786D01*
X63938Y-36794D01*
X64037Y-36794D01*
X64093Y-36786D01*
X64121Y-36770D01*
X64135Y-36753D01*
X64135Y-36720D01*
X64121Y-36704D01*
X64093Y-36687D01*
X64037Y-36679D01*
X63938Y-36679D01*
X63882Y-36687D01*
X63854Y-36704D01*
X63840Y-36720D01*
X64135Y-36967D02*
X63994Y-36909D01*
X64135Y-36868D02*
X63840Y-36868D01*
X63840Y-36934D01*
X63854Y-36951D01*
X63868Y-36959D01*
X63896Y-36967D01*
X63938Y-36967D01*
X63966Y-36959D01*
X63980Y-36951D01*
X63994Y-36934D01*
X63994Y-36868D01*
X63840Y-37016D02*
X63840Y-37115D01*
X64135Y-37066D02*
X63840Y-37066D01*
X65529Y-32874D02*
X65414Y-33169D01*
X65414Y-32874D02*
X65529Y-33169D01*
X65373Y-32874D02*
X65274Y-32874D01*
X65323Y-33169D02*
X65323Y-32874D01*
X65232Y-32874D02*
X65117Y-33169D01*
X65117Y-32874D02*
X65232Y-33169D01*
X65018Y-32874D02*
X64985Y-32874D01*
X64968Y-32888D01*
X64952Y-32916D01*
X64944Y-32972D01*
X64944Y-33071D01*
X64952Y-33127D01*
X64968Y-33155D01*
X64985Y-33169D01*
X65018Y-33169D01*
X65034Y-33155D01*
X65051Y-33127D01*
X65059Y-33071D01*
X65059Y-32972D01*
X65051Y-32916D01*
X65034Y-32888D01*
X65018Y-32874D01*
X64878Y-32902D02*
X64870Y-32888D01*
X64853Y-32874D01*
X64812Y-32874D01*
X64796Y-32888D01*
X64787Y-32902D01*
X64779Y-32930D01*
X64779Y-32958D01*
X64787Y-33000D01*
X64886Y-33169D01*
X64779Y-33169D01*
X65529Y-33774D02*
X65414Y-34069D01*
X65414Y-33774D02*
X65529Y-34069D01*
X65373Y-33774D02*
X65274Y-33774D01*
X65323Y-34069D02*
X65323Y-33774D01*
X65232Y-33774D02*
X65117Y-34069D01*
X65117Y-33774D02*
X65232Y-34069D01*
X65018Y-33774D02*
X64985Y-33774D01*
X64968Y-33788D01*
X64952Y-33816D01*
X64944Y-33872D01*
X64944Y-33971D01*
X64952Y-34027D01*
X64968Y-34055D01*
X64985Y-34069D01*
X65018Y-34069D01*
X65034Y-34055D01*
X65051Y-34027D01*
X65059Y-33971D01*
X65059Y-33872D01*
X65051Y-33816D01*
X65034Y-33788D01*
X65018Y-33774D01*
X64779Y-34069D02*
X64878Y-34069D01*
X64829Y-34069D02*
X64829Y-33774D01*
X64845Y-33816D01*
X64862Y-33844D01*
X64878Y-33858D01*
X65566Y-34874D02*
X65451Y-35169D01*
X65451Y-34874D02*
X65566Y-35169D01*
X65154Y-35169D02*
X65212Y-35028D01*
X65253Y-35169D02*
X65253Y-34874D01*
X65187Y-34874D01*
X65170Y-34888D01*
X65162Y-34902D01*
X65154Y-34930D01*
X65154Y-34972D01*
X65162Y-35000D01*
X65170Y-35014D01*
X65187Y-35028D01*
X65253Y-35028D01*
X65096Y-34874D02*
X64981Y-35169D01*
X64981Y-34874D02*
X65096Y-35169D01*
X64915Y-35169D02*
X64915Y-34874D01*
X64742Y-35169D02*
X64841Y-35169D01*
X64792Y-35169D02*
X64792Y-34874D01*
X64808Y-34916D01*
X64825Y-34944D01*
X64841Y-34958D01*
X65529Y-37774D02*
X65414Y-38069D01*
X65414Y-37774D02*
X65529Y-38069D01*
X65373Y-37774D02*
X65274Y-37774D01*
X65323Y-38069D02*
X65323Y-37774D01*
X65232Y-37774D02*
X65117Y-38069D01*
X65117Y-37774D02*
X65232Y-38069D01*
X65018Y-37774D02*
X64985Y-37774D01*
X64968Y-37788D01*
X64952Y-37816D01*
X64944Y-37872D01*
X64944Y-37971D01*
X64952Y-38027D01*
X64968Y-38055D01*
X64985Y-38069D01*
X65018Y-38069D01*
X65034Y-38055D01*
X65051Y-38027D01*
X65059Y-37971D01*
X65059Y-37872D01*
X65051Y-37816D01*
X65034Y-37788D01*
X65018Y-37774D01*
X64878Y-37802D02*
X64870Y-37788D01*
X64853Y-37774D01*
X64812Y-37774D01*
X64796Y-37788D01*
X64787Y-37802D01*
X64779Y-37830D01*
X64779Y-37858D01*
X64787Y-37900D01*
X64886Y-38069D01*
X64779Y-38069D01*
X65471Y-35774D02*
X65356Y-36069D01*
X65356Y-35774D02*
X65471Y-36069D01*
X65290Y-35957D02*
X65158Y-35957D01*
X65224Y-36069D02*
X65224Y-35844D01*
X64993Y-35774D02*
X65076Y-35774D01*
X65084Y-35914D01*
X65076Y-35900D01*
X65059Y-35886D01*
X65018Y-35886D01*
X65002Y-35900D01*
X64993Y-35914D01*
X64985Y-35942D01*
X64985Y-36013D01*
X64993Y-36041D01*
X65002Y-36055D01*
X65018Y-36069D01*
X65059Y-36069D01*
X65076Y-36055D01*
X65084Y-36041D01*
X64936Y-35774D02*
X64878Y-36069D01*
X64820Y-35774D01*
X65521Y-36724D02*
X65406Y-37019D01*
X65406Y-36724D02*
X65521Y-37019D01*
X65249Y-36738D02*
X65266Y-36724D01*
X65290Y-36724D01*
X65315Y-36738D01*
X65332Y-36766D01*
X65340Y-36794D01*
X65348Y-36850D01*
X65348Y-36892D01*
X65340Y-36949D01*
X65332Y-36977D01*
X65315Y-37005D01*
X65290Y-37019D01*
X65274Y-37019D01*
X65249Y-37005D01*
X65241Y-36991D01*
X65241Y-36892D01*
X65274Y-36892D01*
X65167Y-37019D02*
X65167Y-36724D01*
X65068Y-37019D01*
X65068Y-36724D01*
X64986Y-37019D02*
X64986Y-36724D01*
X64945Y-36724D01*
X64920Y-36738D01*
X64903Y-36766D01*
X64895Y-36794D01*
X64887Y-36850D01*
X64887Y-36892D01*
X64895Y-36949D01*
X64903Y-36977D01*
X64920Y-37005D01*
X64945Y-37019D01*
X64986Y-37019D01*
X47069Y-38712D02*
X47052Y-38726D01*
X47028Y-38726D01*
X47003Y-38712D01*
X46986Y-38684D01*
X46978Y-38656D01*
X46970Y-38600D01*
X46970Y-38558D01*
X46978Y-38501D01*
X46986Y-38473D01*
X47003Y-38445D01*
X47028Y-38431D01*
X47044Y-38431D01*
X47069Y-38445D01*
X47077Y-38459D01*
X47077Y-38558D01*
X47044Y-38558D01*
X47151Y-38431D02*
X47151Y-38726D01*
X47250Y-38431D01*
X47250Y-38726D01*
X47332Y-38431D02*
X47332Y-38726D01*
X47373Y-38726D01*
X47398Y-38712D01*
X47415Y-38684D01*
X47423Y-38656D01*
X47431Y-38600D01*
X47431Y-38558D01*
X47423Y-38501D01*
X47415Y-38473D01*
X47398Y-38445D01*
X47373Y-38431D01*
X47332Y-38431D01*
X47869Y-38662D02*
X47852Y-38676D01*
X47828Y-38676D01*
X47803Y-38662D01*
X47786Y-38634D01*
X47778Y-38606D01*
X47770Y-38550D01*
X47770Y-38508D01*
X47778Y-38451D01*
X47786Y-38423D01*
X47803Y-38395D01*
X47828Y-38381D01*
X47844Y-38381D01*
X47869Y-38395D01*
X47877Y-38409D01*
X47877Y-38508D01*
X47844Y-38508D01*
X47951Y-38381D02*
X47951Y-38676D01*
X48050Y-38381D01*
X48050Y-38676D01*
X48132Y-38381D02*
X48132Y-38676D01*
X48173Y-38676D01*
X48198Y-38662D01*
X48215Y-38634D01*
X48223Y-38606D01*
X48231Y-38550D01*
X48231Y-38508D01*
X48223Y-38451D01*
X48215Y-38423D01*
X48198Y-38395D01*
X48173Y-38381D01*
X48132Y-38381D01*
X48741Y-36388D02*
X48755Y-36380D01*
X48769Y-36355D01*
X48769Y-36339D01*
X48755Y-36314D01*
X48727Y-36297D01*
X48699Y-36289D01*
X48642Y-36281D01*
X48600Y-36281D01*
X48544Y-36289D01*
X48516Y-36297D01*
X48488Y-36314D01*
X48474Y-36339D01*
X48474Y-36355D01*
X48488Y-36380D01*
X48502Y-36388D01*
X48769Y-36536D02*
X48614Y-36536D01*
X48586Y-36528D01*
X48572Y-36512D01*
X48572Y-36479D01*
X48586Y-36462D01*
X48755Y-36536D02*
X48769Y-36520D01*
X48769Y-36479D01*
X48755Y-36462D01*
X48727Y-36454D01*
X48699Y-36454D01*
X48671Y-36462D01*
X48657Y-36479D01*
X48657Y-36520D01*
X48642Y-36536D01*
X48769Y-36619D02*
X48572Y-36619D01*
X48600Y-36619D02*
X48586Y-36627D01*
X48572Y-36644D01*
X48572Y-36669D01*
X48586Y-36685D01*
X48614Y-36693D01*
X48769Y-36693D01*
X48614Y-36693D02*
X48586Y-36702D01*
X48572Y-36718D01*
X48572Y-36743D01*
X48586Y-36759D01*
X48614Y-36767D01*
X48769Y-36767D01*
X48474Y-36825D02*
X48769Y-36883D01*
X48474Y-36941D01*
X48657Y-36998D02*
X48657Y-37130D01*
X48769Y-37064D02*
X48544Y-37064D01*
X48474Y-37245D02*
X48474Y-37278D01*
X48488Y-37295D01*
X48516Y-37311D01*
X48572Y-37319D01*
X48671Y-37319D01*
X48727Y-37311D01*
X48755Y-37295D01*
X48769Y-37278D01*
X48769Y-37245D01*
X48755Y-37229D01*
X48727Y-37212D01*
X48671Y-37204D01*
X48572Y-37204D01*
X48516Y-37212D01*
X48488Y-37229D01*
X48474Y-37245D01*
X47274Y-36321D02*
X47569Y-36379D01*
X47274Y-36437D01*
X47372Y-36469D02*
X47372Y-36535D01*
X47274Y-36494D02*
X47527Y-36494D01*
X47555Y-36502D01*
X47569Y-36519D01*
X47569Y-36535D01*
X47274Y-36568D02*
X47569Y-36626D01*
X47274Y-36684D01*
X47457Y-36741D02*
X47457Y-36873D01*
X47569Y-36807D02*
X47344Y-36807D01*
X47274Y-36988D02*
X47274Y-37021D01*
X47288Y-37038D01*
X47316Y-37054D01*
X47372Y-37062D01*
X47471Y-37062D01*
X47527Y-37054D01*
X47555Y-37038D01*
X47569Y-37021D01*
X47569Y-36988D01*
X47555Y-36972D01*
X47527Y-36955D01*
X47471Y-36947D01*
X47372Y-36947D01*
X47316Y-36955D01*
X47288Y-36972D01*
X47274Y-36988D01*
X48541Y-35211D02*
X48555Y-35203D01*
X48569Y-35178D01*
X48569Y-35162D01*
X48555Y-35137D01*
X48527Y-35120D01*
X48499Y-35112D01*
X48442Y-35104D01*
X48400Y-35104D01*
X48344Y-35112D01*
X48316Y-35120D01*
X48288Y-35137D01*
X48274Y-35162D01*
X48274Y-35178D01*
X48288Y-35203D01*
X48302Y-35211D01*
X48485Y-35277D02*
X48485Y-35359D01*
X48569Y-35260D02*
X48274Y-35318D01*
X48569Y-35376D01*
X48569Y-35433D02*
X48274Y-35433D01*
X48485Y-35491D01*
X48274Y-35549D01*
X48569Y-35549D01*
X48569Y-35631D02*
X48274Y-35631D01*
X48372Y-35713D02*
X48569Y-35713D01*
X48400Y-35713D02*
X48386Y-35721D01*
X48372Y-35738D01*
X48372Y-35763D01*
X48386Y-35779D01*
X48414Y-35787D01*
X48569Y-35787D01*
X47324Y-35332D02*
X47619Y-35390D01*
X47324Y-35448D01*
X47422Y-35480D02*
X47422Y-35546D01*
X47324Y-35505D02*
X47577Y-35505D01*
X47605Y-35513D01*
X47619Y-35530D01*
X47619Y-35546D01*
X47619Y-35588D02*
X47422Y-35678D01*
X47422Y-35588D02*
X47619Y-35678D01*
X47324Y-35777D02*
X47324Y-35810D01*
X47338Y-35827D01*
X47366Y-35843D01*
X47422Y-35851D01*
X47521Y-35851D01*
X47577Y-35843D01*
X47605Y-35827D01*
X47619Y-35810D01*
X47619Y-35777D01*
X47605Y-35761D01*
X47577Y-35744D01*
X47521Y-35736D01*
X47422Y-35736D01*
X47366Y-35744D01*
X47338Y-35761D01*
X47324Y-35777D01*
X47735Y-34396D02*
X47735Y-34478D01*
X47819Y-34379D02*
X47524Y-34437D01*
X47819Y-34495D01*
X47524Y-34552D02*
X47763Y-34552D01*
X47791Y-34560D01*
X47805Y-34569D01*
X47819Y-34585D01*
X47819Y-34618D01*
X47805Y-34635D01*
X47791Y-34643D01*
X47763Y-34651D01*
X47524Y-34651D01*
X47819Y-34733D02*
X47524Y-34733D01*
X47524Y-34774D01*
X47538Y-34799D01*
X47566Y-34816D01*
X47594Y-34824D01*
X47650Y-34832D01*
X47692Y-34832D01*
X47749Y-34824D01*
X47777Y-34816D01*
X47805Y-34799D01*
X47819Y-34774D01*
X47819Y-34733D01*
X47819Y-35005D02*
X47678Y-34947D01*
X47819Y-34906D02*
X47524Y-34906D01*
X47524Y-34972D01*
X47538Y-34989D01*
X47552Y-34997D01*
X47580Y-35005D01*
X47622Y-35005D01*
X47650Y-34997D01*
X47664Y-34989D01*
X47678Y-34972D01*
X47678Y-34906D01*
X47735Y-33512D02*
X47735Y-33594D01*
X47819Y-33495D02*
X47524Y-33553D01*
X47819Y-33611D01*
X47524Y-33668D02*
X47763Y-33668D01*
X47791Y-33676D01*
X47805Y-33685D01*
X47819Y-33701D01*
X47819Y-33734D01*
X47805Y-33751D01*
X47791Y-33759D01*
X47763Y-33767D01*
X47524Y-33767D01*
X47819Y-33849D02*
X47524Y-33849D01*
X47524Y-33890D01*
X47538Y-33915D01*
X47566Y-33932D01*
X47594Y-33940D01*
X47650Y-33948D01*
X47692Y-33948D01*
X47749Y-33940D01*
X47777Y-33932D01*
X47805Y-33915D01*
X47819Y-33890D01*
X47819Y-33849D01*
X47819Y-34105D02*
X47819Y-34022D01*
X47524Y-34022D01*
X66012Y-39381D02*
X66026Y-39398D01*
X66026Y-39422D01*
X66012Y-39447D01*
X65984Y-39464D01*
X65956Y-39472D01*
X65900Y-39480D01*
X65858Y-39480D01*
X65801Y-39472D01*
X65773Y-39464D01*
X65745Y-39447D01*
X65731Y-39422D01*
X65731Y-39406D01*
X65745Y-39381D01*
X65759Y-39373D01*
X65858Y-39373D01*
X65858Y-39406D01*
X65731Y-39299D02*
X66026Y-39299D01*
X65731Y-39200D01*
X66026Y-39200D01*
X65731Y-39118D02*
X66026Y-39118D01*
X66026Y-39077D01*
X66012Y-39052D01*
X65984Y-39035D01*
X65956Y-39027D01*
X65900Y-39019D01*
X65858Y-39019D01*
X65801Y-39027D01*
X65773Y-39035D01*
X65745Y-39052D01*
X65731Y-39077D01*
X65731Y-39118D01*
X64831Y-39547D02*
X65126Y-39547D01*
X65126Y-39481D01*
X65112Y-39464D01*
X65098Y-39456D01*
X65070Y-39448D01*
X65028Y-39448D01*
X65000Y-39456D01*
X64986Y-39464D01*
X64972Y-39481D01*
X64972Y-39547D01*
X64859Y-39275D02*
X64845Y-39283D01*
X64831Y-39308D01*
X64831Y-39324D01*
X64845Y-39349D01*
X64873Y-39366D01*
X64901Y-39374D01*
X64958Y-39382D01*
X65000Y-39382D01*
X65056Y-39374D01*
X65084Y-39366D01*
X65112Y-39349D01*
X65126Y-39324D01*
X65126Y-39308D01*
X65112Y-39283D01*
X65098Y-39275D01*
X64831Y-39110D02*
X64831Y-39209D01*
X64831Y-39160D02*
X65126Y-39160D01*
X65084Y-39176D01*
X65056Y-39193D01*
X65042Y-39209D01*
X65028Y-38962D02*
X64831Y-38962D01*
X65140Y-39003D02*
X64929Y-39044D01*
X64929Y-38937D01*
X63831Y-39547D02*
X64126Y-39547D01*
X64126Y-39481D01*
X64112Y-39464D01*
X64098Y-39456D01*
X64070Y-39448D01*
X64028Y-39448D01*
X64000Y-39456D01*
X63986Y-39464D01*
X63972Y-39481D01*
X63972Y-39547D01*
X63859Y-39275D02*
X63845Y-39283D01*
X63831Y-39308D01*
X63831Y-39324D01*
X63845Y-39349D01*
X63873Y-39366D01*
X63901Y-39374D01*
X63958Y-39382D01*
X64000Y-39382D01*
X64056Y-39374D01*
X64084Y-39366D01*
X64112Y-39349D01*
X64126Y-39324D01*
X64126Y-39308D01*
X64112Y-39283D01*
X64098Y-39275D01*
X63831Y-39110D02*
X63831Y-39209D01*
X63831Y-39160D02*
X64126Y-39160D01*
X64084Y-39176D01*
X64056Y-39193D01*
X64042Y-39209D01*
X64126Y-38953D02*
X64126Y-39036D01*
X63986Y-39044D01*
X64000Y-39036D01*
X64014Y-39019D01*
X64014Y-38978D01*
X64000Y-38962D01*
X63986Y-38953D01*
X63958Y-38945D01*
X63887Y-38945D01*
X63859Y-38953D01*
X63845Y-38962D01*
X63831Y-38978D01*
X63831Y-39019D01*
X63845Y-39036D01*
X63859Y-39044D01*
X62831Y-39564D02*
X63126Y-39564D01*
X63126Y-39498D01*
X63112Y-39481D01*
X63098Y-39473D01*
X63070Y-39465D01*
X63028Y-39465D01*
X63000Y-39473D01*
X62986Y-39481D01*
X62972Y-39498D01*
X62972Y-39564D01*
X62859Y-39292D02*
X62845Y-39300D01*
X62831Y-39325D01*
X62831Y-39341D01*
X62845Y-39366D01*
X62873Y-39383D01*
X62901Y-39391D01*
X62958Y-39399D01*
X63000Y-39399D01*
X63056Y-39391D01*
X63084Y-39383D01*
X63112Y-39366D01*
X63126Y-39341D01*
X63126Y-39325D01*
X63112Y-39300D01*
X63098Y-39292D01*
X63126Y-39185D02*
X63126Y-39168D01*
X63112Y-39152D01*
X63098Y-39144D01*
X63070Y-39135D01*
X63014Y-39127D01*
X62943Y-39127D01*
X62887Y-39135D01*
X62859Y-39144D01*
X62845Y-39152D01*
X62831Y-39168D01*
X62831Y-39185D01*
X62845Y-39201D01*
X62859Y-39210D01*
X62887Y-39218D01*
X62943Y-39226D01*
X63014Y-39226D01*
X63070Y-39218D01*
X63098Y-39210D01*
X63112Y-39201D01*
X63126Y-39185D01*
X61831Y-39564D02*
X62126Y-39564D01*
X62126Y-39498D01*
X62112Y-39481D01*
X62098Y-39473D01*
X62070Y-39465D01*
X62028Y-39465D01*
X62000Y-39473D01*
X61986Y-39481D01*
X61972Y-39498D01*
X61972Y-39564D01*
X61859Y-39292D02*
X61845Y-39300D01*
X61831Y-39325D01*
X61831Y-39341D01*
X61845Y-39366D01*
X61873Y-39383D01*
X61901Y-39391D01*
X61958Y-39399D01*
X62000Y-39399D01*
X62056Y-39391D01*
X62084Y-39383D01*
X62112Y-39366D01*
X62126Y-39341D01*
X62126Y-39325D01*
X62112Y-39300D01*
X62098Y-39292D01*
X61831Y-39127D02*
X61831Y-39226D01*
X61831Y-39177D02*
X62126Y-39177D01*
X62084Y-39193D01*
X62056Y-39210D01*
X62042Y-39226D01*
X60686Y-39281D02*
X60686Y-39576D01*
X60752Y-39576D01*
X60769Y-39562D01*
X60777Y-39548D01*
X60785Y-39520D01*
X60785Y-39478D01*
X60777Y-39450D01*
X60769Y-39436D01*
X60752Y-39422D01*
X60686Y-39422D01*
X60958Y-39309D02*
X60950Y-39295D01*
X60925Y-39281D01*
X60909Y-39281D01*
X60884Y-39295D01*
X60867Y-39323D01*
X60859Y-39351D01*
X60851Y-39408D01*
X60851Y-39450D01*
X60859Y-39506D01*
X60867Y-39534D01*
X60884Y-39562D01*
X60909Y-39576D01*
X60925Y-39576D01*
X60950Y-39562D01*
X60958Y-39548D01*
X61016Y-39576D02*
X61123Y-39576D01*
X61065Y-39464D01*
X61090Y-39464D01*
X61106Y-39450D01*
X61115Y-39436D01*
X61123Y-39408D01*
X61123Y-39337D01*
X61115Y-39309D01*
X61106Y-39295D01*
X61090Y-39281D01*
X61040Y-39281D01*
X61024Y-39295D01*
X61016Y-39309D01*
X59748Y-39331D02*
X59748Y-39626D01*
X59814Y-39626D01*
X59831Y-39612D01*
X59839Y-39598D01*
X59847Y-39570D01*
X59847Y-39528D01*
X59839Y-39500D01*
X59831Y-39486D01*
X59814Y-39472D01*
X59748Y-39472D01*
X59913Y-39415D02*
X59995Y-39415D01*
X59896Y-39331D02*
X59954Y-39626D01*
X60012Y-39331D01*
X60102Y-39626D02*
X60119Y-39626D01*
X60135Y-39612D01*
X60143Y-39598D01*
X60152Y-39570D01*
X60160Y-39514D01*
X60160Y-39443D01*
X60152Y-39387D01*
X60143Y-39359D01*
X60135Y-39345D01*
X60119Y-39331D01*
X60102Y-39331D01*
X60086Y-39345D01*
X60077Y-39359D01*
X60069Y-39387D01*
X60061Y-39443D01*
X60061Y-39514D01*
X60069Y-39570D01*
X60077Y-39598D01*
X60086Y-39612D01*
X60102Y-39626D01*
X58748Y-39331D02*
X58748Y-39626D01*
X58814Y-39626D01*
X58831Y-39612D01*
X58839Y-39598D01*
X58847Y-39570D01*
X58847Y-39528D01*
X58839Y-39500D01*
X58831Y-39486D01*
X58814Y-39472D01*
X58748Y-39472D01*
X58913Y-39415D02*
X58995Y-39415D01*
X58896Y-39331D02*
X58954Y-39626D01*
X59012Y-39331D01*
X59160Y-39331D02*
X59061Y-39331D01*
X59110Y-39331D02*
X59110Y-39626D01*
X59094Y-39584D01*
X59077Y-39556D01*
X59061Y-39542D01*
X57736Y-39331D02*
X57736Y-39626D01*
X57802Y-39626D01*
X57819Y-39612D01*
X57827Y-39598D01*
X57835Y-39570D01*
X57835Y-39528D01*
X57827Y-39500D01*
X57819Y-39486D01*
X57802Y-39472D01*
X57736Y-39472D01*
X58008Y-39359D02*
X58000Y-39345D01*
X57975Y-39331D01*
X57959Y-39331D01*
X57934Y-39345D01*
X57917Y-39373D01*
X57909Y-39401D01*
X57901Y-39458D01*
X57901Y-39500D01*
X57909Y-39556D01*
X57917Y-39584D01*
X57934Y-39612D01*
X57959Y-39626D01*
X57975Y-39626D01*
X58000Y-39612D01*
X58008Y-39598D01*
X58156Y-39528D02*
X58156Y-39331D01*
X58115Y-39640D02*
X58074Y-39429D01*
X58181Y-39429D01*
X56831Y-39564D02*
X57126Y-39564D01*
X57126Y-39498D01*
X57112Y-39481D01*
X57098Y-39473D01*
X57070Y-39465D01*
X57028Y-39465D01*
X57000Y-39473D01*
X56986Y-39481D01*
X56972Y-39498D01*
X56972Y-39564D01*
X56859Y-39292D02*
X56845Y-39300D01*
X56831Y-39325D01*
X56831Y-39341D01*
X56845Y-39366D01*
X56873Y-39383D01*
X56901Y-39391D01*
X56958Y-39399D01*
X57000Y-39399D01*
X57056Y-39391D01*
X57084Y-39383D01*
X57112Y-39366D01*
X57126Y-39341D01*
X57126Y-39325D01*
X57112Y-39300D01*
X57098Y-39292D01*
X57126Y-39135D02*
X57126Y-39218D01*
X56986Y-39226D01*
X57000Y-39218D01*
X57014Y-39201D01*
X57014Y-39160D01*
X57000Y-39144D01*
X56986Y-39135D01*
X56958Y-39127D01*
X56887Y-39127D01*
X56859Y-39135D01*
X56845Y-39144D01*
X56831Y-39160D01*
X56831Y-39201D01*
X56845Y-39218D01*
X56859Y-39226D01*
X55831Y-39564D02*
X56126Y-39564D01*
X56126Y-39498D01*
X56112Y-39481D01*
X56098Y-39473D01*
X56070Y-39465D01*
X56028Y-39465D01*
X56000Y-39473D01*
X55986Y-39481D01*
X55972Y-39498D01*
X55972Y-39564D01*
X55986Y-39333D02*
X55972Y-39308D01*
X55958Y-39300D01*
X55929Y-39292D01*
X55887Y-39292D01*
X55859Y-39300D01*
X55845Y-39308D01*
X55831Y-39325D01*
X55831Y-39391D01*
X56126Y-39391D01*
X56126Y-39333D01*
X56112Y-39317D01*
X56098Y-39308D01*
X56070Y-39300D01*
X56042Y-39300D01*
X56014Y-39308D01*
X56000Y-39317D01*
X55986Y-39333D01*
X55986Y-39391D01*
X55831Y-39127D02*
X55831Y-39226D01*
X55831Y-39177D02*
X56126Y-39177D01*
X56084Y-39193D01*
X56056Y-39210D01*
X56042Y-39226D01*
X54869Y-39512D02*
X54852Y-39526D01*
X54828Y-39526D01*
X54803Y-39512D01*
X54786Y-39484D01*
X54778Y-39456D01*
X54770Y-39400D01*
X54770Y-39358D01*
X54778Y-39301D01*
X54786Y-39273D01*
X54803Y-39245D01*
X54828Y-39231D01*
X54844Y-39231D01*
X54869Y-39245D01*
X54877Y-39259D01*
X54877Y-39358D01*
X54844Y-39358D01*
X54951Y-39231D02*
X54951Y-39526D01*
X55050Y-39231D01*
X55050Y-39526D01*
X55132Y-39231D02*
X55132Y-39526D01*
X55173Y-39526D01*
X55198Y-39512D01*
X55215Y-39484D01*
X55223Y-39456D01*
X55231Y-39400D01*
X55231Y-39358D01*
X55223Y-39301D01*
X55215Y-39273D01*
X55198Y-39245D01*
X55173Y-39231D01*
X55132Y-39231D01*
X53943Y-39522D02*
X53943Y-39390D01*
X53831Y-39456D02*
X54056Y-39456D01*
X54126Y-39324D02*
X54126Y-39217D01*
X54014Y-39275D01*
X54014Y-39250D01*
X54000Y-39234D01*
X53986Y-39225D01*
X53958Y-39217D01*
X53887Y-39217D01*
X53859Y-39225D01*
X53845Y-39234D01*
X53831Y-39250D01*
X53831Y-39300D01*
X53845Y-39316D01*
X53859Y-39324D01*
X54126Y-39168D02*
X53831Y-39110D01*
X54126Y-39052D01*
X52943Y-39522D02*
X52943Y-39390D01*
X52831Y-39456D02*
X53056Y-39456D01*
X53126Y-39225D02*
X53126Y-39308D01*
X52986Y-39316D01*
X53000Y-39308D01*
X53014Y-39291D01*
X53014Y-39250D01*
X53000Y-39234D01*
X52986Y-39225D01*
X52958Y-39217D01*
X52887Y-39217D01*
X52859Y-39225D01*
X52845Y-39234D01*
X52831Y-39250D01*
X52831Y-39291D01*
X52845Y-39308D01*
X52859Y-39316D01*
X53126Y-39168D02*
X52831Y-39110D01*
X53126Y-39052D01*
X51369Y-39562D02*
X51352Y-39576D01*
X51328Y-39576D01*
X51303Y-39562D01*
X51286Y-39534D01*
X51278Y-39506D01*
X51270Y-39450D01*
X51270Y-39408D01*
X51278Y-39351D01*
X51286Y-39323D01*
X51303Y-39295D01*
X51328Y-39281D01*
X51344Y-39281D01*
X51369Y-39295D01*
X51377Y-39309D01*
X51377Y-39408D01*
X51344Y-39408D01*
X51451Y-39281D02*
X51451Y-39576D01*
X51550Y-39281D01*
X51550Y-39576D01*
X51632Y-39281D02*
X51632Y-39576D01*
X51673Y-39576D01*
X51698Y-39562D01*
X51715Y-39534D01*
X51723Y-39506D01*
X51731Y-39450D01*
X51731Y-39408D01*
X51723Y-39351D01*
X51715Y-39323D01*
X51698Y-39295D01*
X51673Y-39281D01*
X51632Y-39281D01*
G54D13*
X52450Y-39100D02*
X52450Y-40350D01*
X50850Y-39100D02*
X52450Y-39100D01*
X48500Y-39100D02*
X49650Y-39100D01*
X50500Y-39550D02*
X50500Y-40350D01*
G54D14*
X48677Y-39576D02*
X48735Y-39281D01*
X48793Y-39576D01*
X48825Y-39576D02*
X48924Y-39576D01*
X48875Y-39281D02*
X48875Y-39576D01*
X48966Y-39576D02*
X49081Y-39281D01*
X49081Y-39576D02*
X48966Y-39281D01*
X49254Y-39576D02*
X49312Y-39281D01*
X49370Y-39576D01*
X49427Y-39393D02*
X49559Y-39393D01*
X49493Y-39281D02*
X49493Y-39506D01*
X49641Y-39281D02*
X49641Y-39576D01*
X49723Y-39478D02*
X49723Y-39281D01*
X49723Y-39450D02*
X49731Y-39464D01*
X49748Y-39478D01*
X49773Y-39478D01*
X49789Y-39464D01*
X49797Y-39436D01*
X49797Y-39281D01*
G54D13*
X48500Y-39100D02*
X48500Y-40300D01*
X46700Y-39100D02*
X48500Y-39100D01*
G54D14*
X47034Y-39259D02*
X47026Y-39245D01*
X47001Y-39231D01*
X46985Y-39231D01*
X46960Y-39245D01*
X46943Y-39273D01*
X46935Y-39301D01*
X46927Y-39358D01*
X46927Y-39400D01*
X46935Y-39456D01*
X46943Y-39484D01*
X46960Y-39512D01*
X46985Y-39526D01*
X47001Y-39526D01*
X47026Y-39512D01*
X47034Y-39498D01*
X47100Y-39315D02*
X47182Y-39315D01*
X47083Y-39231D02*
X47141Y-39526D01*
X47199Y-39231D01*
X47256Y-39231D02*
X47256Y-39526D01*
X47314Y-39315D01*
X47372Y-39526D01*
X47372Y-39231D01*
X47561Y-39526D02*
X47619Y-39231D01*
X47677Y-39526D01*
X47734Y-39343D02*
X47866Y-39343D01*
X47800Y-39231D02*
X47800Y-39456D01*
X47948Y-39231D02*
X47948Y-39526D01*
X48030Y-39428D02*
X48030Y-39231D01*
X48030Y-39400D02*
X48038Y-39414D01*
X48055Y-39428D01*
X48080Y-39428D01*
X48096Y-39414D01*
X48104Y-39386D01*
X48104Y-39231D01*
X65842Y-31601D02*
X65828Y-31584D01*
X65828Y-31560D01*
X65842Y-31535D01*
X65870Y-31518D01*
X65898Y-31510D01*
X65954Y-31502D01*
X65996Y-31502D01*
X66053Y-31510D01*
X66081Y-31518D01*
X66109Y-31535D01*
X66123Y-31560D01*
X66123Y-31576D01*
X66109Y-31601D01*
X66095Y-31609D01*
X65996Y-31609D01*
X65996Y-31576D01*
X66123Y-31683D02*
X65828Y-31683D01*
X66123Y-31782D01*
X65828Y-31782D01*
X66123Y-31864D02*
X65828Y-31864D01*
X65828Y-31905D01*
X65842Y-31930D01*
X65870Y-31947D01*
X65898Y-31955D01*
X65954Y-31963D01*
X65996Y-31963D01*
X66053Y-31955D01*
X66081Y-31947D01*
X66109Y-31930D01*
X66123Y-31905D01*
X66123Y-31864D01*
X65158Y-31429D02*
X64863Y-31429D01*
X65158Y-31528D01*
X64863Y-31528D01*
X65158Y-31709D02*
X65017Y-31651D01*
X65158Y-31610D02*
X64863Y-31610D01*
X64863Y-31676D01*
X64877Y-31693D01*
X64891Y-31701D01*
X64919Y-31709D01*
X64961Y-31709D01*
X64989Y-31701D01*
X65003Y-31693D01*
X65017Y-31676D01*
X65017Y-31610D01*
X65144Y-31775D02*
X65158Y-31800D01*
X65158Y-31841D01*
X65144Y-31857D01*
X65130Y-31866D01*
X65102Y-31874D01*
X65074Y-31874D01*
X65046Y-31866D01*
X65031Y-31857D01*
X65017Y-31841D01*
X65003Y-31808D01*
X64989Y-31791D01*
X64975Y-31783D01*
X64947Y-31775D01*
X64919Y-31775D01*
X64891Y-31783D01*
X64877Y-31791D01*
X64863Y-31808D01*
X64863Y-31849D01*
X64877Y-31874D01*
X64863Y-31923D02*
X64863Y-32022D01*
X65158Y-31973D02*
X64863Y-31973D01*
X64213Y-31400D02*
X63918Y-31400D01*
X63918Y-31466D01*
X63932Y-31483D01*
X63946Y-31491D01*
X63974Y-31499D01*
X64016Y-31499D01*
X64044Y-31491D01*
X64058Y-31483D01*
X64072Y-31466D01*
X64072Y-31400D01*
X64058Y-31631D02*
X64072Y-31656D01*
X64086Y-31664D01*
X64115Y-31672D01*
X64157Y-31672D01*
X64185Y-31664D01*
X64199Y-31656D01*
X64213Y-31639D01*
X64213Y-31573D01*
X63918Y-31573D01*
X63918Y-31631D01*
X63932Y-31647D01*
X63946Y-31656D01*
X63974Y-31664D01*
X64002Y-31664D01*
X64030Y-31656D01*
X64044Y-31647D01*
X64058Y-31631D01*
X64058Y-31573D01*
X64213Y-31754D02*
X64213Y-31787D01*
X64199Y-31804D01*
X64185Y-31812D01*
X64143Y-31829D01*
X64086Y-31837D01*
X63974Y-31837D01*
X63946Y-31829D01*
X63932Y-31820D01*
X63918Y-31804D01*
X63918Y-31771D01*
X63932Y-31754D01*
X63946Y-31746D01*
X63974Y-31738D01*
X64044Y-31738D01*
X64072Y-31746D01*
X64086Y-31754D01*
X64101Y-31771D01*
X64101Y-31804D01*
X64086Y-31820D01*
X64072Y-31829D01*
X64044Y-31837D01*
X63150Y-31440D02*
X62855Y-31440D01*
X62855Y-31506D01*
X62869Y-31523D01*
X62883Y-31531D01*
X62911Y-31539D01*
X62953Y-31539D01*
X62981Y-31531D01*
X62995Y-31523D01*
X63009Y-31506D01*
X63009Y-31440D01*
X62995Y-31671D02*
X63009Y-31696D01*
X63023Y-31704D01*
X63052Y-31712D01*
X63094Y-31712D01*
X63122Y-31704D01*
X63136Y-31696D01*
X63150Y-31679D01*
X63150Y-31613D01*
X62855Y-31613D01*
X62855Y-31671D01*
X62869Y-31687D01*
X62883Y-31696D01*
X62911Y-31704D01*
X62939Y-31704D01*
X62967Y-31696D01*
X62981Y-31687D01*
X62995Y-31671D01*
X62995Y-31613D01*
X62981Y-31811D02*
X62967Y-31794D01*
X62953Y-31786D01*
X62925Y-31778D01*
X62911Y-31778D01*
X62883Y-31786D01*
X62869Y-31794D01*
X62855Y-31811D01*
X62855Y-31844D01*
X62869Y-31860D01*
X62883Y-31869D01*
X62911Y-31877D01*
X62925Y-31877D01*
X62953Y-31869D01*
X62967Y-31860D01*
X62981Y-31844D01*
X62981Y-31811D01*
X62995Y-31794D01*
X63009Y-31786D01*
X63038Y-31778D01*
X63094Y-31778D01*
X63122Y-31786D01*
X63136Y-31794D01*
X63150Y-31811D01*
X63150Y-31844D01*
X63136Y-31860D01*
X63122Y-31869D01*
X63094Y-31877D01*
X63038Y-31877D01*
X63009Y-31869D01*
X62995Y-31860D01*
X62981Y-31844D01*
X62186Y-31459D02*
X61891Y-31459D01*
X61891Y-31525D01*
X61905Y-31542D01*
X61919Y-31550D01*
X61947Y-31558D01*
X61989Y-31558D01*
X62017Y-31550D01*
X62031Y-31542D01*
X62045Y-31525D01*
X62045Y-31459D01*
X62031Y-31690D02*
X62045Y-31715D01*
X62059Y-31723D01*
X62088Y-31731D01*
X62130Y-31731D01*
X62158Y-31723D01*
X62172Y-31715D01*
X62186Y-31698D01*
X62186Y-31632D01*
X61891Y-31632D01*
X61891Y-31690D01*
X61905Y-31706D01*
X61919Y-31715D01*
X61947Y-31723D01*
X61975Y-31723D01*
X62003Y-31715D01*
X62017Y-31706D01*
X62031Y-31690D01*
X62031Y-31632D01*
X61891Y-31789D02*
X61891Y-31904D01*
X62186Y-31830D01*
X61143Y-31459D02*
X60848Y-31459D01*
X60848Y-31525D01*
X60862Y-31542D01*
X60876Y-31550D01*
X60904Y-31558D01*
X60946Y-31558D01*
X60974Y-31550D01*
X60988Y-31542D01*
X61002Y-31525D01*
X61002Y-31459D01*
X60988Y-31690D02*
X61002Y-31715D01*
X61016Y-31723D01*
X61045Y-31731D01*
X61087Y-31731D01*
X61115Y-31723D01*
X61129Y-31715D01*
X61143Y-31698D01*
X61143Y-31632D01*
X60848Y-31632D01*
X60848Y-31690D01*
X60862Y-31706D01*
X60876Y-31715D01*
X60904Y-31723D01*
X60932Y-31723D01*
X60960Y-31715D01*
X60974Y-31706D01*
X60988Y-31690D01*
X60988Y-31632D01*
X60848Y-31879D02*
X60848Y-31846D01*
X60862Y-31830D01*
X60876Y-31822D01*
X60918Y-31805D01*
X60974Y-31797D01*
X61087Y-31797D01*
X61115Y-31805D01*
X61129Y-31813D01*
X61143Y-31830D01*
X61143Y-31863D01*
X61129Y-31879D01*
X61115Y-31888D01*
X61087Y-31896D01*
X61016Y-31896D01*
X60988Y-31888D01*
X60974Y-31879D01*
X60960Y-31863D01*
X60960Y-31830D01*
X60974Y-31813D01*
X60988Y-31805D01*
X61016Y-31797D01*
X60178Y-31440D02*
X59883Y-31440D01*
X59883Y-31506D01*
X59897Y-31523D01*
X59911Y-31531D01*
X59939Y-31539D01*
X59981Y-31539D01*
X60009Y-31531D01*
X60023Y-31523D01*
X60037Y-31506D01*
X60037Y-31440D01*
X60023Y-31671D02*
X60037Y-31696D01*
X60051Y-31704D01*
X60080Y-31712D01*
X60122Y-31712D01*
X60150Y-31704D01*
X60164Y-31696D01*
X60178Y-31679D01*
X60178Y-31613D01*
X59883Y-31613D01*
X59883Y-31671D01*
X59897Y-31687D01*
X59911Y-31696D01*
X59939Y-31704D01*
X59967Y-31704D01*
X59995Y-31696D01*
X60009Y-31687D01*
X60023Y-31671D01*
X60023Y-31613D01*
X59883Y-31869D02*
X59883Y-31786D01*
X60023Y-31778D01*
X60009Y-31786D01*
X59995Y-31803D01*
X59995Y-31844D01*
X60009Y-31860D01*
X60023Y-31869D01*
X60051Y-31877D01*
X60122Y-31877D01*
X60150Y-31869D01*
X60164Y-31860D01*
X60178Y-31844D01*
X60178Y-31803D01*
X60164Y-31786D01*
X60150Y-31778D01*
X59154Y-31420D02*
X58859Y-31420D01*
X58859Y-31486D01*
X58873Y-31503D01*
X58887Y-31511D01*
X58915Y-31519D01*
X58957Y-31519D01*
X58985Y-31511D01*
X58999Y-31503D01*
X59013Y-31486D01*
X59013Y-31420D01*
X58999Y-31651D02*
X59013Y-31676D01*
X59027Y-31684D01*
X59056Y-31692D01*
X59098Y-31692D01*
X59126Y-31684D01*
X59140Y-31676D01*
X59154Y-31659D01*
X59154Y-31593D01*
X58859Y-31593D01*
X58859Y-31651D01*
X58873Y-31667D01*
X58887Y-31676D01*
X58915Y-31684D01*
X58943Y-31684D01*
X58971Y-31676D01*
X58985Y-31667D01*
X58999Y-31651D01*
X58999Y-31593D01*
X58957Y-31840D02*
X59154Y-31840D01*
X58845Y-31799D02*
X59056Y-31758D01*
X59056Y-31865D01*
X58170Y-31459D02*
X57875Y-31459D01*
X57875Y-31525D01*
X57889Y-31542D01*
X57903Y-31550D01*
X57931Y-31558D01*
X57973Y-31558D01*
X58001Y-31550D01*
X58015Y-31542D01*
X58029Y-31525D01*
X58029Y-31459D01*
X58015Y-31690D02*
X58029Y-31715D01*
X58043Y-31723D01*
X58072Y-31731D01*
X58114Y-31731D01*
X58142Y-31723D01*
X58156Y-31715D01*
X58170Y-31698D01*
X58170Y-31632D01*
X57875Y-31632D01*
X57875Y-31690D01*
X57889Y-31706D01*
X57903Y-31715D01*
X57931Y-31723D01*
X57959Y-31723D01*
X57987Y-31715D01*
X58001Y-31706D01*
X58015Y-31690D01*
X58015Y-31632D01*
X57875Y-31789D02*
X57875Y-31896D01*
X57987Y-31838D01*
X57987Y-31863D01*
X58001Y-31879D01*
X58015Y-31888D01*
X58043Y-31896D01*
X58114Y-31896D01*
X58142Y-31888D01*
X58156Y-31879D01*
X58170Y-31863D01*
X58170Y-31813D01*
X58156Y-31797D01*
X58142Y-31789D01*
X57127Y-31396D02*
X56832Y-31396D01*
X56832Y-31462D01*
X56846Y-31479D01*
X56860Y-31487D01*
X56888Y-31495D01*
X56930Y-31495D01*
X56958Y-31487D01*
X56972Y-31479D01*
X56986Y-31462D01*
X56986Y-31396D01*
X57099Y-31668D02*
X57113Y-31660D01*
X57127Y-31635D01*
X57127Y-31619D01*
X57113Y-31594D01*
X57085Y-31577D01*
X57057Y-31569D01*
X57000Y-31561D01*
X56958Y-31561D01*
X56902Y-31569D01*
X56874Y-31577D01*
X56846Y-31594D01*
X56832Y-31619D01*
X56832Y-31635D01*
X56846Y-31660D01*
X56860Y-31668D01*
X57127Y-31833D02*
X57127Y-31734D01*
X57127Y-31783D02*
X56832Y-31783D01*
X56874Y-31767D01*
X56902Y-31750D01*
X56916Y-31734D01*
X56860Y-31899D02*
X56846Y-31907D01*
X56832Y-31924D01*
X56832Y-31965D01*
X56846Y-31981D01*
X56860Y-31990D01*
X56888Y-31998D01*
X56916Y-31998D01*
X56958Y-31990D01*
X57127Y-31891D01*
X57127Y-31998D01*
X56202Y-31468D02*
X55907Y-31468D01*
X55907Y-31534D01*
X55921Y-31551D01*
X55935Y-31559D01*
X55963Y-31567D01*
X56005Y-31567D01*
X56033Y-31559D01*
X56047Y-31551D01*
X56061Y-31534D01*
X56061Y-31468D01*
X56118Y-31633D02*
X56118Y-31715D01*
X56202Y-31616D02*
X55907Y-31674D01*
X56202Y-31732D01*
X56202Y-31880D02*
X56202Y-31781D01*
X56202Y-31830D02*
X55907Y-31830D01*
X55949Y-31814D01*
X55977Y-31797D01*
X55991Y-31781D01*
X56005Y-32028D02*
X56202Y-32028D01*
X55893Y-31987D02*
X56104Y-31946D01*
X56104Y-32053D01*
X55323Y-31792D02*
X55323Y-31497D01*
X55257Y-31497D01*
X55240Y-31511D01*
X55232Y-31525D01*
X55224Y-31553D01*
X55224Y-31595D01*
X55232Y-31623D01*
X55240Y-31637D01*
X55257Y-31651D01*
X55323Y-31651D01*
X55158Y-31708D02*
X55076Y-31708D01*
X55175Y-31792D02*
X55117Y-31497D01*
X55059Y-31792D01*
X54911Y-31792D02*
X55010Y-31792D01*
X54961Y-31792D02*
X54961Y-31497D01*
X54977Y-31539D01*
X54994Y-31567D01*
X55010Y-31581D01*
X54853Y-31497D02*
X54746Y-31497D01*
X54804Y-31609D01*
X54779Y-31609D01*
X54763Y-31623D01*
X54754Y-31637D01*
X54746Y-31665D01*
X54746Y-31736D01*
X54754Y-31764D01*
X54763Y-31778D01*
X54779Y-31792D01*
X54829Y-31792D01*
X54845Y-31778D01*
X54853Y-31764D01*
X54154Y-31409D02*
X53859Y-31409D01*
X53859Y-31475D01*
X53873Y-31492D01*
X53887Y-31500D01*
X53915Y-31508D01*
X53957Y-31508D01*
X53985Y-31500D01*
X53999Y-31492D01*
X54013Y-31475D01*
X54013Y-31409D01*
X54070Y-31574D02*
X54070Y-31656D01*
X54154Y-31557D02*
X53859Y-31615D01*
X54154Y-31673D01*
X54154Y-31821D02*
X54154Y-31722D01*
X54154Y-31771D02*
X53859Y-31771D01*
X53901Y-31755D01*
X53929Y-31738D01*
X53943Y-31722D01*
X53887Y-31887D02*
X53873Y-31895D01*
X53859Y-31912D01*
X53859Y-31953D01*
X53873Y-31969D01*
X53887Y-31978D01*
X53915Y-31986D01*
X53943Y-31986D01*
X53985Y-31978D01*
X54154Y-31879D01*
X54154Y-31986D01*
X53315Y-31773D02*
X53315Y-31478D01*
X53249Y-31478D01*
X53232Y-31492D01*
X53224Y-31506D01*
X53216Y-31534D01*
X53216Y-31576D01*
X53224Y-31604D01*
X53232Y-31618D01*
X53249Y-31632D01*
X53315Y-31632D01*
X53150Y-31689D02*
X53068Y-31689D01*
X53167Y-31773D02*
X53109Y-31478D01*
X53051Y-31773D01*
X52903Y-31773D02*
X53002Y-31773D01*
X52953Y-31773D02*
X52953Y-31478D01*
X52969Y-31520D01*
X52986Y-31548D01*
X53002Y-31562D01*
X52738Y-31773D02*
X52837Y-31773D01*
X52788Y-31773D02*
X52788Y-31478D01*
X52804Y-31520D01*
X52821Y-31548D01*
X52837Y-31562D01*
X52186Y-31511D02*
X51891Y-31511D01*
X51891Y-31577D01*
X51905Y-31594D01*
X51919Y-31602D01*
X51947Y-31610D01*
X51989Y-31610D01*
X52017Y-31602D01*
X52031Y-31594D01*
X52045Y-31577D01*
X52045Y-31511D01*
X52102Y-31676D02*
X52102Y-31758D01*
X52186Y-31659D02*
X51891Y-31717D01*
X52186Y-31775D01*
X52017Y-31857D02*
X52003Y-31840D01*
X51989Y-31832D01*
X51961Y-31824D01*
X51947Y-31824D01*
X51919Y-31832D01*
X51905Y-31840D01*
X51891Y-31857D01*
X51891Y-31890D01*
X51905Y-31906D01*
X51919Y-31915D01*
X51947Y-31923D01*
X51961Y-31923D01*
X51989Y-31915D01*
X52003Y-31906D01*
X52017Y-31890D01*
X52017Y-31857D01*
X52031Y-31840D01*
X52045Y-31832D01*
X52074Y-31824D01*
X52130Y-31824D01*
X52158Y-31832D01*
X52172Y-31840D01*
X52186Y-31857D01*
X52186Y-31890D01*
X52172Y-31906D01*
X52158Y-31915D01*
X52130Y-31923D01*
X52074Y-31923D01*
X52045Y-31915D01*
X52031Y-31906D01*
X52017Y-31890D01*
X51182Y-31518D02*
X50887Y-31518D01*
X50887Y-31584D01*
X50901Y-31601D01*
X50915Y-31609D01*
X50943Y-31617D01*
X50985Y-31617D01*
X51013Y-31609D01*
X51027Y-31601D01*
X51041Y-31584D01*
X51041Y-31518D01*
X51154Y-31790D02*
X51168Y-31782D01*
X51182Y-31757D01*
X51182Y-31741D01*
X51168Y-31716D01*
X51140Y-31699D01*
X51112Y-31691D01*
X51055Y-31683D01*
X51013Y-31683D01*
X50957Y-31691D01*
X50929Y-31699D01*
X50901Y-31716D01*
X50887Y-31741D01*
X50887Y-31757D01*
X50901Y-31782D01*
X50915Y-31790D01*
X51182Y-31872D02*
X51182Y-31905D01*
X51168Y-31922D01*
X51154Y-31930D01*
X51112Y-31947D01*
X51055Y-31955D01*
X50943Y-31955D01*
X50915Y-31947D01*
X50901Y-31938D01*
X50887Y-31922D01*
X50887Y-31889D01*
X50901Y-31872D01*
X50915Y-31864D01*
X50943Y-31856D01*
X51013Y-31856D01*
X51041Y-31864D01*
X51055Y-31872D01*
X51070Y-31889D01*
X51070Y-31922D01*
X51055Y-31938D01*
X51041Y-31947D01*
X51013Y-31955D01*
G54D13*
X48484Y-32047D02*
X48484Y-32028D01*
X48504Y-32067D02*
X48484Y-32047D01*
X48504Y-33366D02*
X48504Y-32067D01*
X46614Y-33366D02*
X48504Y-33366D01*
G54D14*
X47711Y-33190D02*
X47711Y-32895D01*
X47645Y-32895D01*
X47628Y-32909D01*
X47620Y-32923D01*
X47612Y-32951D01*
X47612Y-32993D01*
X47620Y-33021D01*
X47628Y-33035D01*
X47645Y-33049D01*
X47711Y-33049D01*
X47439Y-33190D02*
X47497Y-33049D01*
X47538Y-33190D02*
X47538Y-32895D01*
X47472Y-32895D01*
X47455Y-32909D01*
X47447Y-32923D01*
X47439Y-32951D01*
X47439Y-32993D01*
X47447Y-33021D01*
X47455Y-33035D01*
X47472Y-33049D01*
X47538Y-33049D01*
X47332Y-32895D02*
X47299Y-32895D01*
X47282Y-32909D01*
X47266Y-32937D01*
X47258Y-32993D01*
X47258Y-33092D01*
X47266Y-33148D01*
X47282Y-33176D01*
X47299Y-33190D01*
X47332Y-33190D01*
X47348Y-33176D01*
X47365Y-33148D01*
X47373Y-33092D01*
X47373Y-32993D01*
X47365Y-32937D01*
X47348Y-32909D01*
X47332Y-32895D01*
X47093Y-32909D02*
X47110Y-32895D01*
X47134Y-32895D01*
X47159Y-32909D01*
X47176Y-32937D01*
X47184Y-32965D01*
X47192Y-33021D01*
X47192Y-33063D01*
X47184Y-33120D01*
X47176Y-33148D01*
X47159Y-33176D01*
X47134Y-33190D01*
X47118Y-33190D01*
X47093Y-33176D01*
X47085Y-33162D01*
X47085Y-33063D01*
X47118Y-33063D01*
G54D13*
X50453Y-31949D02*
X50453Y-31220D01*
X48484Y-31949D02*
X50453Y-31949D01*
G54D14*
X49600Y-31472D02*
X49617Y-31458D01*
X49641Y-31458D01*
X49666Y-31472D01*
X49683Y-31500D01*
X49691Y-31528D01*
X49699Y-31584D01*
X49699Y-31626D01*
X49691Y-31683D01*
X49683Y-31711D01*
X49666Y-31739D01*
X49641Y-31753D01*
X49625Y-31753D01*
X49600Y-31739D01*
X49592Y-31725D01*
X49592Y-31626D01*
X49625Y-31626D01*
X49518Y-31753D02*
X49518Y-31458D01*
X49419Y-31753D01*
X49419Y-31458D01*
X49337Y-31753D02*
X49337Y-31458D01*
X49296Y-31458D01*
X49271Y-31472D01*
X49254Y-31500D01*
X49246Y-31528D01*
X49238Y-31584D01*
X49238Y-31626D01*
X49246Y-31683D01*
X49254Y-31711D01*
X49271Y-31739D01*
X49296Y-31753D01*
X49337Y-31753D01*
G54D13*
X48386Y-32008D02*
X48386Y-31280D01*
X46614Y-32008D02*
X48386Y-32008D01*
G54D14*
X48299Y-31418D02*
X48241Y-31713D01*
X48183Y-31418D01*
X48126Y-31713D02*
X48126Y-31418D01*
X48044Y-31713D02*
X48044Y-31418D01*
X47945Y-31713D01*
X47945Y-31418D01*
X47813Y-31825D02*
X47822Y-31811D01*
X47838Y-31769D01*
X47846Y-31741D01*
X47855Y-31699D01*
X47863Y-31629D01*
X47863Y-31572D01*
X47855Y-31502D01*
X47846Y-31460D01*
X47838Y-31432D01*
X47822Y-31390D01*
X47813Y-31376D01*
X47723Y-31544D02*
X47740Y-31530D01*
X47748Y-31516D01*
X47756Y-31488D01*
X47756Y-31474D01*
X47748Y-31446D01*
X47740Y-31432D01*
X47723Y-31418D01*
X47690Y-31418D01*
X47674Y-31432D01*
X47665Y-31446D01*
X47657Y-31474D01*
X47657Y-31488D01*
X47665Y-31516D01*
X47674Y-31530D01*
X47690Y-31544D01*
X47723Y-31544D01*
X47740Y-31558D01*
X47748Y-31572D01*
X47756Y-31601D01*
X47756Y-31657D01*
X47748Y-31685D01*
X47740Y-31699D01*
X47723Y-31713D01*
X47690Y-31713D01*
X47674Y-31699D01*
X47665Y-31685D01*
X47657Y-31657D01*
X47657Y-31601D01*
X47665Y-31572D01*
X47674Y-31558D01*
X47690Y-31544D01*
X47583Y-31601D02*
X47451Y-31601D01*
X47377Y-31446D02*
X47369Y-31432D01*
X47352Y-31418D01*
X47311Y-31418D01*
X47295Y-31432D01*
X47286Y-31446D01*
X47278Y-31474D01*
X47278Y-31502D01*
X47286Y-31544D01*
X47385Y-31713D01*
X47278Y-31713D01*
X47121Y-31418D02*
X47204Y-31418D01*
X47212Y-31558D01*
X47204Y-31544D01*
X47187Y-31530D01*
X47146Y-31530D01*
X47130Y-31544D01*
X47121Y-31558D01*
X47113Y-31586D01*
X47113Y-31657D01*
X47121Y-31685D01*
X47130Y-31699D01*
X47146Y-31713D01*
X47187Y-31713D01*
X47204Y-31699D01*
X47212Y-31685D01*
X46932Y-31418D02*
X46874Y-31713D01*
X46816Y-31418D01*
X46775Y-31825D02*
X46767Y-31811D01*
X46751Y-31769D01*
X46742Y-31741D01*
X46734Y-31699D01*
X46726Y-31629D01*
X46726Y-31572D01*
X46734Y-31502D01*
X46742Y-31460D01*
X46751Y-31432D01*
X46767Y-31390D01*
X46775Y-31376D01*
G54D15*
X58866Y-35500D02*
X58863Y-35528D01*
X58854Y-35556D01*
X58841Y-35582D01*
X58822Y-35604D01*
X58800Y-35623D01*
X58774Y-35637D01*
X58746Y-35645D01*
X58718Y-35648D01*
X58690Y-35646D01*
X58662Y-35638D01*
X58636Y-35624D01*
X58613Y-35606D01*
X58595Y-35584D01*
X58581Y-35558D01*
X58572Y-35530D01*
X58569Y-35502D01*
X58571Y-35474D01*
X58579Y-35446D01*
X58592Y-35420D01*
X58610Y-35397D01*
X58632Y-35378D01*
X58658Y-35364D01*
X58686Y-35355D01*
X58714Y-35352D01*
X58742Y-35354D01*
X58770Y-35362D01*
X58796Y-35375D01*
X58819Y-35393D01*
X58838Y-35415D01*
X58853Y-35440D01*
X58862Y-35467D01*
X58865Y-35496D01*
X58866Y-35500D01*
X53626Y-35500D02*
X56455Y-32672D01*
X56455Y-32672D02*
X59106Y-35323D01*
X59106Y-35323D02*
X59106Y-35677D01*
X59106Y-35677D02*
X56455Y-38328D01*
X56455Y-38328D02*
X53626Y-35500D01*
G54D16*
X62496Y-34845D02*
X61796Y-34845D01*
X61796Y-34845D02*
X61796Y-36045D01*
X61796Y-36045D02*
X62496Y-36045D01*
X62496Y-36045D02*
X62496Y-34845D01*
X53540Y-38074D02*
X54176Y-37438D01*
X54176Y-37438D02*
X53822Y-37084D01*
X53822Y-37084D02*
X53186Y-37720D01*
X53186Y-37720D02*
X53540Y-38074D01*
X61080Y-38628D02*
X60180Y-38628D01*
X60180Y-38628D02*
X60180Y-39128D01*
X60180Y-39128D02*
X61080Y-39128D01*
X61080Y-39128D02*
X61080Y-38628D01*
X51184Y-33970D02*
X52084Y-33970D01*
X52084Y-33970D02*
X52084Y-33470D01*
X52084Y-33470D02*
X51184Y-33470D01*
X51184Y-33470D02*
X51184Y-33970D01*
X52513Y-32415D02*
X53413Y-32415D01*
X53413Y-32415D02*
X53413Y-31915D01*
X53413Y-31915D02*
X52513Y-31915D01*
X52513Y-31915D02*
X52513Y-32415D01*
X51499Y-33301D02*
X52399Y-33301D01*
X52399Y-33301D02*
X52399Y-32801D01*
X52399Y-32801D02*
X51499Y-32801D01*
X51499Y-32801D02*
X51499Y-33301D01*
X50554Y-34600D02*
X51454Y-34600D01*
X51454Y-34600D02*
X51454Y-34100D01*
X51454Y-34100D02*
X50554Y-34100D01*
X50554Y-34100D02*
X50554Y-34600D01*
X60505Y-35120D02*
X59605Y-35120D01*
X59605Y-35120D02*
X59605Y-35620D01*
X59605Y-35620D02*
X60505Y-35620D01*
X60505Y-35620D02*
X60505Y-35120D01*
X51010Y-35967D02*
X51010Y-36867D01*
X51010Y-36867D02*
X51510Y-36867D01*
X51510Y-36867D02*
X51510Y-35967D01*
X51510Y-35967D02*
X51010Y-35967D01*
X59997Y-38766D02*
X59097Y-38766D01*
X59097Y-38766D02*
X59097Y-39266D01*
X59097Y-39266D02*
X59997Y-39266D01*
X59997Y-39266D02*
X59997Y-38766D01*
X60440Y-32841D02*
X59540Y-32841D01*
X59540Y-32841D02*
X59540Y-33341D01*
X59540Y-33341D02*
X60440Y-33341D01*
X60440Y-33341D02*
X60440Y-32841D01*
X54491Y-38974D02*
X55391Y-38974D01*
X55391Y-38974D02*
X55391Y-38474D01*
X55391Y-38474D02*
X54491Y-38474D01*
X54491Y-38474D02*
X54491Y-38974D01*
X52030Y-36054D02*
X52030Y-36954D01*
X52030Y-36954D02*
X52530Y-36954D01*
X52530Y-36954D02*
X52530Y-36054D01*
X52530Y-36054D02*
X52030Y-36054D01*
X54589Y-32435D02*
X55489Y-32435D01*
X55489Y-32435D02*
X55489Y-31935D01*
X55489Y-31935D02*
X54589Y-31935D01*
X54589Y-31935D02*
X54589Y-32435D01*
X60253Y-33785D02*
X59353Y-33785D01*
X59353Y-33785D02*
X59353Y-34285D01*
X59353Y-34285D02*
X60253Y-34285D01*
X60253Y-34285D02*
X60253Y-33785D01*
X56030Y-32691D02*
X56930Y-32691D01*
X56930Y-32691D02*
X56930Y-32191D01*
X56930Y-32191D02*
X56030Y-32191D01*
X56030Y-32191D02*
X56030Y-32691D01*
X53560Y-36565D02*
X52660Y-36565D01*
X52660Y-36565D02*
X52660Y-37065D01*
X52660Y-37065D02*
X53560Y-37065D01*
X53560Y-37065D02*
X53560Y-36565D01*
X58951Y-39190D02*
X58951Y-38290D01*
X58951Y-38290D02*
X58451Y-38290D01*
X58451Y-38290D02*
X58451Y-39190D01*
X58451Y-39190D02*
X58951Y-39190D01*
G54D13*
X49106Y-38169D02*
X49185Y-38169D01*
X49106Y-36791D02*
X49185Y-36791D01*
X49106Y-38169D02*
X49106Y-36791D01*
X49815Y-36791D02*
X49894Y-36791D01*
X49894Y-36791D02*
X49894Y-38169D01*
X49894Y-38169D02*
X49815Y-38169D01*
X49882Y-39212D02*
X49961Y-39212D01*
X49882Y-37834D02*
X49961Y-37834D01*
X49882Y-39212D02*
X49882Y-37834D01*
X50591Y-37834D02*
X50670Y-37834D01*
X50670Y-37834D02*
X50670Y-39212D01*
X50670Y-39212D02*
X50591Y-39212D01*
G54D16*
X58289Y-38766D02*
X57389Y-38766D01*
X57389Y-38766D02*
X57389Y-39266D01*
X57389Y-39266D02*
X58289Y-39266D01*
X58289Y-39266D02*
X58289Y-38766D01*
G54D13*
X61106Y-38236D02*
X61106Y-36661D01*
X61106Y-36661D02*
X59138Y-36661D01*
X59138Y-36661D02*
X59138Y-38433D01*
X59138Y-38433D02*
X60909Y-38433D01*
X61244Y-38433D02*
X61241Y-38459D01*
X61233Y-38485D01*
X61220Y-38509D01*
X61203Y-38530D01*
X61183Y-38547D01*
X61159Y-38560D01*
X61133Y-38568D01*
X61106Y-38570D01*
X61081Y-38568D01*
X61055Y-38560D01*
X61031Y-38548D01*
X61010Y-38531D01*
X60993Y-38510D01*
X60980Y-38487D01*
X60972Y-38461D01*
X60969Y-38434D01*
X60971Y-38409D01*
X60978Y-38383D01*
X60991Y-38359D01*
X61007Y-38338D01*
X61028Y-38320D01*
X61051Y-38307D01*
X61077Y-38299D01*
X61104Y-38296D01*
X61129Y-38298D01*
X61155Y-38305D01*
X61179Y-38317D01*
X61201Y-38334D01*
X61218Y-38354D01*
X61232Y-38377D01*
X61240Y-38403D01*
X61243Y-38430D01*
X61244Y-38433D01*
X49055Y-31535D02*
X49055Y-31614D01*
X50433Y-31535D02*
X50433Y-31614D01*
X49055Y-31535D02*
X50433Y-31535D01*
X50433Y-32244D02*
X50433Y-32323D01*
X50433Y-32323D02*
X49055Y-32323D01*
X49055Y-32323D02*
X49055Y-32244D01*
G54D16*
X64589Y-37435D02*
X65489Y-37435D01*
X65489Y-37435D02*
X65489Y-36935D01*
X65489Y-36935D02*
X64589Y-36935D01*
X64589Y-36935D02*
X64589Y-37435D01*
X65348Y-36749D02*
X65348Y-35849D01*
X65348Y-35849D02*
X64848Y-35849D01*
X64848Y-35849D02*
X64848Y-36749D01*
X64848Y-36749D02*
X65348Y-36749D01*
X65430Y-33766D02*
X64530Y-33766D01*
X64530Y-33766D02*
X64530Y-34266D01*
X64530Y-34266D02*
X65430Y-34266D01*
X65430Y-34266D02*
X65430Y-33766D01*
X64789Y-34609D02*
X64789Y-35509D01*
X64789Y-35509D02*
X65289Y-35509D01*
X65289Y-35509D02*
X65289Y-34609D01*
X65289Y-34609D02*
X64789Y-34609D01*
X48963Y-33566D02*
X48963Y-34466D01*
X48963Y-34466D02*
X49463Y-34466D01*
X49463Y-34466D02*
X49463Y-33566D01*
X49463Y-33566D02*
X48963Y-33566D01*
X48963Y-32463D02*
X48963Y-33363D01*
X48963Y-33363D02*
X49463Y-33363D01*
X49463Y-33363D02*
X49463Y-32463D01*
X49463Y-32463D02*
X48963Y-32463D01*
X49711Y-33566D02*
X49711Y-34466D01*
X49711Y-34466D02*
X50211Y-34466D01*
X50211Y-34466D02*
X50211Y-33566D01*
X50211Y-33566D02*
X49711Y-33566D01*
M02*
