M48
INCH,TZ
T1C0.013
T2C0.039
%
G90
G05
T1
X47657Y-39331
X48327Y-36496
X48642Y-37894
X48799Y-33425
X48898Y-38780
X49528Y-34567
X49567Y-35157
X49724Y-31732
X49854Y-37835
X50059Y-36850
X50118Y-37441
X50197Y-38740
X50295Y-35394
X50531Y-36850
X50600Y-33550
X50827Y-38622
X50906Y-33110
X51004Y-31988
X51083Y-37067
X51142Y-37579
X51358Y-33524
X51378Y-35591
X51535Y-34823
X51634Y-37028
X51732Y-37343
X51800Y-32150
X51803Y-34618
X51811Y-36378
X51831Y-35217
X51831Y-38465
X52425Y-32600
X52756Y-37264
X52870Y-37862
X52894Y-34567
X53039Y-37031
X53098Y-35909
X53228Y-32697
X53228Y-37319
X53307Y-35169
X53327Y-38563
X53642Y-38465
X53976Y-32126
X53992Y-38461
X54071Y-33358
X54252Y-35069
X54291Y-33594
X54335Y-32862
X54488Y-33161
X54508Y-36083
X54616Y-35089
X54819Y-36157
X55000Y-32772
X55102Y-35197
X55150Y-36177
X55217Y-36762
X55335Y-34622
X55339Y-35496
X55543Y-35016
X55709Y-32087
X55709Y-32087
X55750Y-38825
X55799Y-33736
X55874Y-34917
X55890Y-34291
X55935Y-36014
X55949Y-37484
X55965Y-37028
X55988Y-33988
X56161Y-35679
X56484Y-34476
X56606Y-34138
X56654Y-36969
X56654Y-38898
X56772Y-33465
X56850Y-37606
X56890Y-32441
X56890Y-34409
X57118Y-34051
X57224Y-34350
X57228Y-32209
X57343Y-36831
X57642Y-31972
X57667Y-36831
X57835Y-38406
X57850Y-32339
X58094Y-31961
X58220Y-36189
X58299Y-32205
X58425Y-35815
X58528Y-37744
X58630Y-32067
X59098Y-32024
X59185Y-37807
X59803Y-35591
X60512Y-37835
X61043Y-35413
X61154Y-34437
X61240Y-37402
X61398Y-36319
X61516Y-31959
X61555Y-34665
X61594Y-39213
X61663Y-33159
X61732Y-32776
X62217Y-37449
X62709Y-37882
X63091Y-34961
X63091Y-35945
X63091Y-36457
X63110Y-35394
X64291Y-36949
X64350Y-33839
X64390Y-37402
X64508Y-34449
X64543Y-34939
X64543Y-35439
X64543Y-35939
X64543Y-36439
T2
X47000Y-31000
X47000Y-32500
X47000Y-34000
X47000Y-35000
X47000Y-36000
X47000Y-37000
X47000Y-38000
X47000Y-40000
X48000Y-31000
X48000Y-32500
X48000Y-36000
X48000Y-37000
X48000Y-38000
X48000Y-40000
X49000Y-31000
X49000Y-40000
X50000Y-31000
X50000Y-40000
X51000Y-31000
X51000Y-40000
X52000Y-31000
X52000Y-40000
X53000Y-31000
X53000Y-40000
X54000Y-31000
X54000Y-40000
X55000Y-31000
X55000Y-40000
X56000Y-31000
X56000Y-40000
X57000Y-31000
X57000Y-40000
X58000Y-31000
X58000Y-40000
X59000Y-31000
X59000Y-40000
X60000Y-31000
X60000Y-40000
X61000Y-31000
X61000Y-40000
X62000Y-31000
X62000Y-40000
X62212Y-32243
X62251Y-39096
X63000Y-31000
X63000Y-40000
X64000Y-31000
X64000Y-40000
X65000Y-31000
X65000Y-40000
X65032Y-33269
X65071Y-38070
X66000Y-31000
X66000Y-33000
X66000Y-34000
X66000Y-35000
X66000Y-36000
X66000Y-37000
X66000Y-38000
X66000Y-40000
T0
M30
