G04 (created by PCBNEW-RS274X (2011-05-25)-stable) date Mon 08 Dec 2014 09:37:15 GMT*
G01*
G70*
G90*
%MOIN*%
G04 Gerber Fmt 3.4, Leading zero omitted, Abs format*
%FSLAX34Y34*%
G04 APERTURE LIST*
%ADD10C,0.006000*%
%ADD11C,0.078700*%
%ADD12O,0.074800X0.051200*%
%ADD13O,0.078300X0.051200*%
%ADD14C,0.025000*%
%ADD15C,0.007900*%
%ADD16C,0.019700*%
%ADD17C,0.011800*%
%ADD18C,0.027600*%
%ADD19C,0.023600*%
%ADD20C,0.010000*%
G04 APERTURE END LIST*
G54D10*
G54D11*
X66000Y-38000D03*
X66000Y-37000D03*
X66000Y-36000D03*
X66000Y-35000D03*
X66000Y-34000D03*
X66000Y-33000D03*
X47000Y-38000D03*
X47000Y-37000D03*
X47000Y-36000D03*
X47000Y-35000D03*
X47000Y-34000D03*
G54D12*
X48000Y-38000D03*
G54D13*
X48000Y-37000D03*
G54D11*
X48000Y-36000D03*
X48000Y-32500D03*
X47000Y-32500D03*
X47000Y-40000D03*
X48000Y-40000D03*
X49000Y-40000D03*
X50000Y-40000D03*
X51000Y-40000D03*
X52000Y-40000D03*
X53000Y-40000D03*
X54000Y-40000D03*
X55000Y-40000D03*
X56000Y-40000D03*
X57000Y-40000D03*
X58000Y-40000D03*
X59000Y-40000D03*
X60000Y-40000D03*
X61000Y-40000D03*
X62000Y-40000D03*
X63000Y-40000D03*
X64000Y-40000D03*
X65000Y-40000D03*
X66000Y-40000D03*
X47000Y-31000D03*
X48000Y-31000D03*
X49000Y-31000D03*
X50000Y-31000D03*
X51000Y-31000D03*
X52000Y-31000D03*
X53000Y-31000D03*
X54000Y-31000D03*
X55000Y-31000D03*
X56000Y-31000D03*
X57000Y-31000D03*
X58000Y-31000D03*
X59000Y-31000D03*
X60000Y-31000D03*
X61000Y-31000D03*
X62000Y-31000D03*
X63000Y-31000D03*
X64000Y-31000D03*
X65000Y-31000D03*
X66000Y-31000D03*
X65032Y-33269D03*
X62212Y-32243D03*
X65071Y-38070D03*
X62251Y-39096D03*
G54D14*
X51634Y-37028D03*
X55543Y-35016D03*
X55102Y-35197D03*
X53307Y-35169D03*
X56606Y-34138D03*
X55339Y-35496D03*
X55150Y-36177D03*
X63091Y-36457D03*
X63091Y-34961D03*
X54616Y-35089D03*
X63091Y-35945D03*
X55000Y-32772D03*
X63110Y-35394D03*
X54335Y-32862D03*
X56654Y-38898D03*
X55890Y-34291D03*
X55799Y-33736D03*
X55988Y-33988D03*
X57228Y-32209D03*
X54488Y-33161D03*
X50906Y-33110D03*
X54819Y-36157D03*
X57850Y-32339D03*
X58094Y-31961D03*
X58299Y-32205D03*
X58630Y-32067D03*
X59098Y-32024D03*
X57118Y-34051D03*
X61516Y-31959D03*
X57224Y-34350D03*
X61732Y-32776D03*
X57667Y-36831D03*
X58528Y-37744D03*
X57642Y-31972D03*
X53992Y-38461D03*
X53642Y-38465D03*
X54291Y-33594D03*
X61240Y-37402D03*
X61663Y-33159D03*
X51800Y-32150D03*
X54252Y-35069D03*
X56850Y-37606D03*
X56772Y-33465D03*
X50827Y-38622D03*
X51083Y-37067D03*
X62709Y-37882D03*
X54508Y-36083D03*
X57343Y-36831D03*
X56161Y-35679D03*
X64291Y-36949D03*
X64350Y-33839D03*
X64508Y-34449D03*
X64390Y-37402D03*
X58425Y-35815D03*
X60512Y-37835D03*
X61043Y-35413D03*
X55935Y-36014D03*
X55750Y-38825D03*
X53228Y-37319D03*
X56484Y-34476D03*
X55949Y-37484D03*
X57835Y-38406D03*
X61555Y-34665D03*
X55965Y-37028D03*
X50600Y-33550D03*
X53098Y-35909D03*
X52425Y-32600D03*
X52894Y-34567D03*
X61398Y-36319D03*
X48799Y-33425D03*
X50197Y-38740D03*
X50295Y-35394D03*
X61594Y-39213D03*
X49854Y-37835D03*
X50531Y-36850D03*
X55709Y-32087D03*
X55709Y-32087D03*
X53976Y-32126D03*
X55335Y-34622D03*
X54071Y-33358D03*
X51378Y-35591D03*
X49567Y-35157D03*
X51004Y-31988D03*
X61154Y-34437D03*
X59185Y-37807D03*
X59803Y-35591D03*
X52756Y-37264D03*
X56890Y-34409D03*
X56890Y-32441D03*
X62217Y-37449D03*
X55217Y-36762D03*
X56654Y-36969D03*
X58220Y-36189D03*
X53327Y-38563D03*
X51803Y-34618D03*
X51811Y-36378D03*
X48898Y-38780D03*
X48642Y-37894D03*
X50059Y-36850D03*
X51142Y-37579D03*
X49528Y-34567D03*
X53039Y-37031D03*
X52870Y-37862D03*
X53228Y-32697D03*
X55874Y-34917D03*
X51358Y-33524D03*
X47657Y-39331D03*
X51732Y-37343D03*
X51831Y-38465D03*
X51831Y-35217D03*
X51535Y-34823D03*
X48327Y-36496D03*
X50118Y-37441D03*
X64543Y-35939D03*
X64543Y-34939D03*
X64543Y-36439D03*
X64543Y-35439D03*
X49724Y-31732D03*
G54D15*
X56654Y-38898D02*
X56634Y-38898D01*
X57607Y-39154D02*
X57727Y-39291D01*
X57727Y-39291D02*
X59429Y-39291D01*
X56634Y-38898D02*
X57607Y-39154D01*
X59429Y-39291D02*
X60000Y-40000D01*
X53504Y-32264D02*
X53504Y-32264D01*
X55890Y-34291D02*
X54705Y-33051D01*
X54705Y-33051D02*
X54547Y-32657D01*
X54547Y-32657D02*
X54370Y-32579D01*
X54370Y-32579D02*
X53799Y-32559D01*
X53799Y-32559D02*
X53799Y-32559D01*
X53799Y-32559D02*
X53622Y-32461D01*
X53622Y-32461D02*
X53504Y-32264D01*
X53504Y-32264D02*
X53407Y-31531D01*
X53407Y-31531D02*
X53000Y-31000D01*
X55799Y-33736D02*
X55276Y-32677D01*
X54252Y-32402D02*
X53839Y-32382D01*
X53839Y-32382D02*
X53681Y-32224D01*
X53681Y-32224D02*
X53642Y-31437D01*
X53642Y-31437D02*
X54000Y-31000D01*
X55276Y-32677D02*
X55079Y-32520D01*
X55079Y-32520D02*
X54252Y-32402D01*
X55988Y-33988D02*
X56184Y-33702D01*
X56184Y-33702D02*
X56417Y-32835D01*
X56417Y-32835D02*
X56220Y-32047D01*
X56220Y-32047D02*
X56096Y-31835D01*
X56096Y-31835D02*
X56096Y-31835D01*
X56096Y-31835D02*
X55276Y-31417D01*
X55276Y-31417D02*
X55000Y-31000D01*
G54D10*
X56019Y-31000D02*
X56000Y-31000D01*
X57228Y-32209D02*
X56359Y-31603D01*
X56359Y-31603D02*
X56000Y-31000D01*
X56000Y-31000D02*
X56019Y-31000D01*
G54D15*
X57850Y-32339D02*
X57878Y-32283D01*
G54D10*
X57878Y-32283D02*
X57874Y-31850D01*
X57874Y-31850D02*
X57874Y-31850D01*
G54D15*
X57874Y-31850D02*
X58000Y-31000D01*
X58094Y-31961D02*
X58091Y-31969D01*
X58091Y-31969D02*
X59000Y-31000D01*
X58457Y-31886D02*
X58885Y-31575D01*
X58299Y-32205D02*
X58457Y-31886D01*
X58885Y-31575D02*
X59528Y-31575D01*
X59528Y-31575D02*
X60000Y-31000D01*
X58630Y-32067D02*
X59055Y-31776D01*
X59055Y-31776D02*
X60118Y-31772D01*
X60118Y-31772D02*
X60472Y-31614D01*
X60472Y-31614D02*
X61000Y-31000D01*
X60197Y-31949D02*
X61457Y-31535D01*
X59098Y-32024D02*
X60197Y-31949D01*
X61457Y-31535D02*
X61457Y-31535D01*
X61457Y-31535D02*
X61925Y-31000D01*
X61925Y-31000D02*
X62000Y-31000D01*
X57667Y-36831D02*
X58819Y-37185D01*
X58819Y-37185D02*
X59483Y-37343D01*
X59483Y-37343D02*
X60433Y-38110D01*
X60433Y-38110D02*
X61969Y-38153D01*
X61969Y-38153D02*
X62618Y-38268D01*
X62618Y-38268D02*
X63228Y-38898D01*
X63228Y-38898D02*
X63146Y-39671D01*
X63146Y-39671D02*
X63000Y-40000D01*
X58528Y-37744D02*
X58957Y-37425D01*
X58957Y-37425D02*
X59272Y-37461D01*
X59272Y-37461D02*
X60394Y-38386D01*
X60394Y-38386D02*
X60394Y-38386D01*
X60394Y-38386D02*
X62067Y-38465D01*
X62067Y-38465D02*
X62520Y-38563D01*
X62520Y-38563D02*
X62520Y-38563D01*
X62520Y-38563D02*
X62913Y-38957D01*
X62913Y-38957D02*
X62752Y-39463D01*
X62752Y-39463D02*
X62000Y-40000D01*
X57642Y-31972D02*
X57000Y-31480D01*
X57000Y-31480D02*
X57000Y-31000D01*
X57406Y-39390D02*
X58000Y-40000D01*
X54700Y-39169D02*
X56586Y-39169D01*
X56586Y-39169D02*
X56787Y-39390D01*
X56787Y-39390D02*
X57406Y-39390D01*
X53992Y-38461D02*
X54700Y-39169D01*
X53642Y-38465D02*
X54547Y-39370D01*
X54547Y-39370D02*
X56370Y-39370D01*
X56370Y-39370D02*
X57000Y-40000D01*
G54D16*
X65032Y-33269D02*
X65354Y-34311D01*
X65354Y-34311D02*
X65374Y-35256D01*
X65374Y-35256D02*
X66000Y-36000D01*
X64350Y-33839D02*
X65079Y-34508D01*
X65079Y-34508D02*
X65157Y-35591D01*
X65157Y-35591D02*
X66000Y-36000D01*
X64508Y-34449D02*
X64823Y-34705D01*
X64823Y-34705D02*
X64862Y-36122D01*
X64862Y-36122D02*
X65701Y-37000D01*
X65701Y-37000D02*
X66000Y-37000D01*
X66004Y-37008D02*
X66000Y-37000D01*
X64390Y-37402D02*
X66004Y-37008D01*
X65071Y-38070D02*
X65591Y-37441D01*
X65591Y-37441D02*
X66000Y-37000D01*
G54D17*
X55750Y-38825D02*
X55719Y-38829D01*
X55719Y-38829D02*
X54469Y-38091D01*
X54469Y-38091D02*
X53224Y-37319D01*
X53224Y-37319D02*
X53228Y-37319D01*
G54D18*
X55965Y-37028D02*
X55935Y-36014D01*
X55935Y-36014D02*
X54134Y-35512D01*
X53689Y-34870D02*
X52894Y-34567D01*
X54134Y-35512D02*
X53689Y-34870D01*
G54D16*
X55965Y-37028D02*
X55965Y-37028D01*
X52894Y-34567D02*
X50610Y-33543D01*
X50610Y-33543D02*
X50600Y-33550D01*
X52894Y-34567D02*
X52894Y-34547D01*
X52894Y-34547D02*
X53098Y-35909D01*
G54D18*
X52425Y-32600D02*
X52913Y-34606D01*
X52913Y-34606D02*
X52894Y-34567D01*
X49606Y-36890D02*
X50090Y-35927D01*
X50531Y-36850D02*
X51161Y-36430D01*
X50090Y-35927D02*
X49213Y-35433D01*
X49213Y-35433D02*
X48799Y-33425D01*
X50090Y-35927D02*
X51161Y-36430D01*
X51161Y-36430D02*
X52280Y-36963D01*
X52280Y-36963D02*
X52280Y-36964D01*
G54D16*
X50979Y-38194D02*
X50501Y-38352D01*
X50501Y-38352D02*
X50197Y-38740D01*
X49854Y-37835D02*
X50979Y-38194D01*
G54D18*
X50090Y-35927D02*
X50295Y-35394D01*
X53012Y-36654D02*
X53425Y-36791D01*
X61594Y-39213D02*
X57697Y-38780D01*
X53622Y-37205D02*
X53425Y-36791D01*
X55768Y-38484D02*
X53622Y-37205D01*
X56634Y-38543D02*
X55768Y-38484D01*
X57697Y-38780D02*
X56634Y-38543D01*
X52433Y-36791D02*
X53012Y-36654D01*
X52280Y-36964D02*
X52433Y-36791D01*
X50979Y-38194D02*
X51504Y-38732D01*
X52129Y-37134D02*
X52280Y-36964D01*
G54D16*
X52129Y-38698D02*
X52129Y-37134D01*
G54D18*
X51818Y-38929D02*
X52129Y-38698D01*
X51504Y-38732D02*
X51818Y-38929D01*
X49606Y-36890D02*
X49606Y-36890D01*
X52480Y-37953D02*
X53000Y-40000D01*
G54D16*
X53012Y-36654D02*
X52437Y-37087D01*
X52437Y-37087D02*
X52480Y-37953D01*
X50531Y-36850D02*
X50535Y-36846D01*
X49878Y-37752D02*
X49854Y-37835D01*
G54D18*
X55709Y-32087D02*
X54015Y-32087D01*
X54015Y-32087D02*
X53976Y-32126D01*
X51000Y-40000D02*
X52000Y-40000D01*
G54D19*
X49000Y-31000D02*
X50000Y-31000D01*
G54D16*
X55335Y-34622D02*
X55331Y-34625D01*
X55331Y-34625D02*
X55331Y-34622D01*
X54071Y-33358D02*
X53937Y-33661D01*
G54D18*
X54980Y-34606D02*
X55331Y-34622D01*
G54D16*
X53937Y-33661D02*
X54980Y-34606D01*
G54D18*
X57139Y-35775D02*
X56654Y-36969D01*
X55331Y-34622D02*
X55681Y-34626D01*
X56287Y-34949D02*
X57139Y-35775D01*
G54D16*
X56083Y-34626D02*
X56287Y-34949D01*
X55681Y-34626D02*
X56083Y-34626D01*
G54D18*
X50374Y-35020D02*
X49567Y-35157D01*
X51378Y-35591D02*
X50374Y-35020D01*
X59803Y-35591D02*
X59600Y-36725D01*
G54D16*
X52598Y-36220D02*
X51811Y-36378D01*
G54D18*
X59185Y-37807D02*
X58524Y-38209D01*
X58110Y-37933D02*
X56654Y-36969D01*
X58524Y-38209D02*
X58110Y-37933D01*
X49984Y-33647D02*
X49000Y-31000D01*
X52598Y-36220D02*
X52174Y-35092D01*
X49984Y-33647D02*
X49984Y-33647D01*
X51467Y-34371D02*
X49984Y-33647D01*
X51803Y-34618D02*
X51467Y-34371D01*
X52174Y-35092D02*
X51803Y-34618D01*
X59803Y-35591D02*
X61142Y-34429D01*
X61142Y-34429D02*
X64941Y-31791D01*
X64941Y-31791D02*
X64941Y-31791D01*
X64941Y-31791D02*
X65433Y-31614D01*
X65433Y-31614D02*
X66000Y-31000D01*
X58220Y-36189D02*
X57972Y-35827D01*
G54D10*
X57972Y-35827D02*
X57008Y-34713D01*
X57008Y-34713D02*
X56890Y-34409D01*
G54D18*
X58220Y-36189D02*
X58465Y-36339D01*
X58465Y-36339D02*
X59600Y-36725D01*
X59600Y-36725D02*
X60748Y-37244D01*
X60748Y-37244D02*
X60984Y-37677D01*
X60984Y-37677D02*
X61339Y-37756D01*
X61339Y-37756D02*
X62217Y-37449D01*
X55217Y-36762D02*
X52598Y-36220D01*
G54D16*
X52598Y-36220D02*
X51378Y-35591D01*
G54D18*
X58220Y-36189D02*
X57139Y-35775D01*
X53327Y-38563D02*
X52870Y-37862D01*
G54D16*
X48898Y-38780D02*
X48642Y-38524D01*
X48642Y-38524D02*
X48642Y-37894D01*
X48000Y-38000D02*
X48536Y-38000D01*
X48536Y-38000D02*
X48642Y-37894D01*
G54D17*
X50059Y-36850D02*
X50984Y-37579D01*
X50984Y-37579D02*
X51142Y-37579D01*
G54D18*
X53039Y-37031D02*
X52795Y-37303D01*
X52795Y-37303D02*
X52870Y-37862D01*
G54D16*
X49000Y-31000D02*
X50000Y-31000D01*
G54D18*
X47000Y-38000D02*
X48000Y-38000D01*
X51000Y-40000D02*
X50295Y-39291D01*
X50295Y-39291D02*
X48957Y-39291D01*
X48957Y-39291D02*
X47720Y-38720D01*
X47720Y-38720D02*
X47000Y-38000D01*
G54D15*
X51713Y-38385D02*
X51732Y-37343D01*
X51831Y-38465D02*
X51713Y-38385D01*
X51831Y-35217D02*
X51535Y-34823D01*
X48445Y-35472D02*
X47000Y-35000D01*
X48657Y-35945D02*
X48445Y-35472D01*
X48583Y-36315D02*
X48657Y-35945D01*
X48425Y-36496D02*
X48583Y-36315D01*
X48327Y-36496D02*
X48425Y-36496D01*
G54D10*
G36*
X50379Y-36488D02*
X50317Y-36530D01*
X50211Y-36635D01*
X50154Y-36775D01*
X50153Y-36925D01*
X50211Y-37064D01*
X50232Y-37085D01*
X50192Y-37069D01*
X50044Y-37069D01*
X49907Y-37126D01*
X49892Y-37140D01*
X49910Y-37113D01*
X49950Y-37063D01*
X49962Y-37037D01*
X50265Y-36435D01*
X50379Y-36488D01*
X50379Y-36488D01*
G37*
G54D20*
X50379Y-36488D02*
X50317Y-36530D01*
X50211Y-36635D01*
X50154Y-36775D01*
X50153Y-36925D01*
X50211Y-37064D01*
X50232Y-37085D01*
X50192Y-37069D01*
X50044Y-37069D01*
X49907Y-37126D01*
X49892Y-37140D01*
X49910Y-37113D01*
X49950Y-37063D01*
X49962Y-37037D01*
X50265Y-36435D01*
X50379Y-36488D01*
G54D10*
G36*
X51440Y-37577D02*
X51431Y-38106D01*
X51255Y-37925D01*
X51131Y-37840D01*
X50984Y-37809D01*
X50936Y-37818D01*
X50428Y-37656D01*
X50433Y-37652D01*
X50490Y-37515D01*
X50490Y-37367D01*
X50433Y-37230D01*
X50412Y-37209D01*
X50456Y-37227D01*
X50606Y-37228D01*
X50726Y-37177D01*
X50768Y-37278D01*
X50872Y-37382D01*
X51009Y-37439D01*
X51157Y-37439D01*
X51294Y-37382D01*
X51360Y-37316D01*
X51360Y-37417D01*
X51417Y-37554D01*
X51440Y-37577D01*
X51440Y-37577D01*
G37*
G54D20*
X51440Y-37577D02*
X51431Y-38106D01*
X51255Y-37925D01*
X51131Y-37840D01*
X50984Y-37809D01*
X50936Y-37818D01*
X50428Y-37656D01*
X50433Y-37652D01*
X50490Y-37515D01*
X50490Y-37367D01*
X50433Y-37230D01*
X50412Y-37209D01*
X50456Y-37227D01*
X50606Y-37228D01*
X50726Y-37177D01*
X50768Y-37278D01*
X50872Y-37382D01*
X51009Y-37439D01*
X51157Y-37439D01*
X51294Y-37382D01*
X51360Y-37316D01*
X51360Y-37417D01*
X51417Y-37554D01*
X51440Y-37577D01*
G54D10*
G36*
X53227Y-32325D02*
X53154Y-32325D01*
X53017Y-32382D01*
X52913Y-32486D01*
X52856Y-32623D01*
X52856Y-32742D01*
X52799Y-32509D01*
X52736Y-32373D01*
X52625Y-32271D01*
X52484Y-32219D01*
X52334Y-32226D01*
X52198Y-32289D01*
X52172Y-32317D01*
X52172Y-32224D01*
X52172Y-32076D01*
X52115Y-31939D01*
X52011Y-31835D01*
X51874Y-31778D01*
X51726Y-31778D01*
X51589Y-31835D01*
X51485Y-31939D01*
X51428Y-32076D01*
X51428Y-32224D01*
X51485Y-32361D01*
X51589Y-32465D01*
X51726Y-32522D01*
X51874Y-32522D01*
X52011Y-32465D01*
X52115Y-32361D01*
X52172Y-32224D01*
X52172Y-32317D01*
X52096Y-32400D01*
X52044Y-32541D01*
X52051Y-32691D01*
X52357Y-33946D01*
X51706Y-33655D01*
X51730Y-33598D01*
X51730Y-33450D01*
X51673Y-33313D01*
X51569Y-33209D01*
X51432Y-33152D01*
X51284Y-33152D01*
X51278Y-33154D01*
X51278Y-33036D01*
X51221Y-32899D01*
X51117Y-32795D01*
X50980Y-32738D01*
X50832Y-32738D01*
X50695Y-32795D01*
X50591Y-32899D01*
X50534Y-33036D01*
X50534Y-33178D01*
X50526Y-33178D01*
X50389Y-33235D01*
X50339Y-33285D01*
X50339Y-31352D01*
X50035Y-31048D01*
X50000Y-31013D01*
X49987Y-31000D01*
X49952Y-30965D01*
X49648Y-30661D01*
X49574Y-30701D01*
X49498Y-30872D01*
X49440Y-30721D01*
X49426Y-30701D01*
X49352Y-30661D01*
X49013Y-31000D01*
X49352Y-31339D01*
X49426Y-31299D01*
X49501Y-31127D01*
X49560Y-31279D01*
X49574Y-31299D01*
X49602Y-31314D01*
X49583Y-31334D01*
X49621Y-31372D01*
X49513Y-31417D01*
X49409Y-31521D01*
X49352Y-31658D01*
X49352Y-31806D01*
X49409Y-31943D01*
X49513Y-32047D01*
X49650Y-32104D01*
X49798Y-32104D01*
X49935Y-32047D01*
X50039Y-31943D01*
X50096Y-31806D01*
X50096Y-31658D01*
X50039Y-31521D01*
X50029Y-31511D01*
X50089Y-31513D01*
X50279Y-31440D01*
X50299Y-31426D01*
X50339Y-31352D01*
X50339Y-33285D01*
X50285Y-33339D01*
X50228Y-33476D01*
X50228Y-33624D01*
X50285Y-33761D01*
X50389Y-33865D01*
X50526Y-33922D01*
X50612Y-33922D01*
X52583Y-34803D01*
X52734Y-35814D01*
X52726Y-35835D01*
X52726Y-35983D01*
X52783Y-36120D01*
X52887Y-36224D01*
X53003Y-36272D01*
X52985Y-36270D01*
X52953Y-36278D01*
X52922Y-36280D01*
X52344Y-36416D01*
X52298Y-36436D01*
X52263Y-36446D01*
X52240Y-36463D01*
X52208Y-36478D01*
X52203Y-36483D01*
X52203Y-35291D01*
X52203Y-35143D01*
X52146Y-35006D01*
X52042Y-34902D01*
X51911Y-34847D01*
X51907Y-34841D01*
X51907Y-34749D01*
X51850Y-34612D01*
X51746Y-34508D01*
X51609Y-34451D01*
X51461Y-34451D01*
X51324Y-34508D01*
X51220Y-34612D01*
X51163Y-34749D01*
X51163Y-34897D01*
X51220Y-35034D01*
X51324Y-35138D01*
X51454Y-35192D01*
X51459Y-35198D01*
X51459Y-35291D01*
X51516Y-35428D01*
X51620Y-35532D01*
X51757Y-35589D01*
X51905Y-35589D01*
X52042Y-35532D01*
X52146Y-35428D01*
X52203Y-35291D01*
X52203Y-36483D01*
X52192Y-36495D01*
X51327Y-36083D01*
X51324Y-36082D01*
X50577Y-35731D01*
X50654Y-35532D01*
X50663Y-35475D01*
X50667Y-35468D01*
X50667Y-35458D01*
X50680Y-35384D01*
X50667Y-35327D01*
X50667Y-35320D01*
X50662Y-35310D01*
X50646Y-35237D01*
X50613Y-35190D01*
X50610Y-35183D01*
X50602Y-35175D01*
X50559Y-35114D01*
X50509Y-35082D01*
X50506Y-35079D01*
X50499Y-35076D01*
X50433Y-35034D01*
X50373Y-35024D01*
X50369Y-35022D01*
X50361Y-35022D01*
X50285Y-35009D01*
X50228Y-35022D01*
X50221Y-35022D01*
X50211Y-35026D01*
X50138Y-35043D01*
X50090Y-35076D01*
X50084Y-35079D01*
X50078Y-35084D01*
X50015Y-35129D01*
X49982Y-35180D01*
X49980Y-35183D01*
X49978Y-35187D01*
X49935Y-35256D01*
X49890Y-35372D01*
X49552Y-35182D01*
X49339Y-34143D01*
X49339Y-31352D01*
X49000Y-31013D01*
X48661Y-31352D01*
X48701Y-31426D01*
X48886Y-31508D01*
X49089Y-31513D01*
X49279Y-31440D01*
X49299Y-31426D01*
X49339Y-31352D01*
X49339Y-34143D01*
X49176Y-33348D01*
X49118Y-33209D01*
X49011Y-33104D01*
X48871Y-33047D01*
X48722Y-33048D01*
X48583Y-33106D01*
X48478Y-33213D01*
X48421Y-33353D01*
X48422Y-33502D01*
X48834Y-35511D01*
X48842Y-35531D01*
X48843Y-35536D01*
X48852Y-35555D01*
X48892Y-35649D01*
X48905Y-35662D01*
X48910Y-35671D01*
X48943Y-35699D01*
X48999Y-35754D01*
X49015Y-35760D01*
X49024Y-35768D01*
X49581Y-36082D01*
X49262Y-36717D01*
X49258Y-36730D01*
X49250Y-36743D01*
X49238Y-36802D01*
X49222Y-36861D01*
X49223Y-36875D01*
X49221Y-36890D01*
X49234Y-36956D01*
X49241Y-37011D01*
X49246Y-37021D01*
X49250Y-37037D01*
X49285Y-37090D01*
X49315Y-37142D01*
X49326Y-37151D01*
X49334Y-37162D01*
X49382Y-37194D01*
X49433Y-37234D01*
X49446Y-37237D01*
X49459Y-37246D01*
X49518Y-37257D01*
X49577Y-37274D01*
X49591Y-37272D01*
X49606Y-37275D01*
X49672Y-37261D01*
X49727Y-37255D01*
X49737Y-37249D01*
X49753Y-37246D01*
X49806Y-37210D01*
X49844Y-37188D01*
X49803Y-37230D01*
X49746Y-37367D01*
X49746Y-37438D01*
X49711Y-37450D01*
X49608Y-37537D01*
X49588Y-37574D01*
X49539Y-37624D01*
X49482Y-37761D01*
X49482Y-37909D01*
X49539Y-38046D01*
X49643Y-38150D01*
X49780Y-38207D01*
X49884Y-38207D01*
X50118Y-38281D01*
X50015Y-38412D01*
X49986Y-38425D01*
X49882Y-38529D01*
X49825Y-38666D01*
X49825Y-38814D01*
X49882Y-38951D01*
X49986Y-39055D01*
X50123Y-39112D01*
X50271Y-39112D01*
X50408Y-39055D01*
X50512Y-38951D01*
X50546Y-38867D01*
X50616Y-38937D01*
X50753Y-38994D01*
X50901Y-38994D01*
X51038Y-38937D01*
X51102Y-38872D01*
X51228Y-39000D01*
X51263Y-39024D01*
X51299Y-39058D01*
X51613Y-39255D01*
X51617Y-39256D01*
X51620Y-39259D01*
X51689Y-39283D01*
X51753Y-39308D01*
X51756Y-39307D01*
X51762Y-39310D01*
X51846Y-39305D01*
X51903Y-39304D01*
X51906Y-39302D01*
X51912Y-39302D01*
X52007Y-39256D01*
X52041Y-39242D01*
X52042Y-39240D01*
X52048Y-39238D01*
X52352Y-39011D01*
X52501Y-39593D01*
X52458Y-39637D01*
X52429Y-39705D01*
X52426Y-39701D01*
X52352Y-39661D01*
X52339Y-39674D01*
X52339Y-39648D01*
X52299Y-39574D01*
X52114Y-39492D01*
X51911Y-39487D01*
X51721Y-39560D01*
X51701Y-39574D01*
X51661Y-39648D01*
X52000Y-39987D01*
X52339Y-39648D01*
X52339Y-39674D01*
X52013Y-40000D01*
X52352Y-40339D01*
X52426Y-40299D01*
X52428Y-40293D01*
X52457Y-40362D01*
X52523Y-40428D01*
X52296Y-40428D01*
X52299Y-40426D01*
X52339Y-40352D01*
X52000Y-40013D01*
X51987Y-40026D01*
X51987Y-40000D01*
X51648Y-39661D01*
X51574Y-39701D01*
X51498Y-39872D01*
X51440Y-39721D01*
X51426Y-39701D01*
X51352Y-39661D01*
X51339Y-39674D01*
X51339Y-39648D01*
X51299Y-39574D01*
X51114Y-39492D01*
X50911Y-39487D01*
X50721Y-39560D01*
X50701Y-39574D01*
X50661Y-39648D01*
X51000Y-39987D01*
X51339Y-39648D01*
X51339Y-39674D01*
X51013Y-40000D01*
X51352Y-40339D01*
X51426Y-40299D01*
X51501Y-40127D01*
X51560Y-40279D01*
X51574Y-40299D01*
X51648Y-40339D01*
X51987Y-40000D01*
X51987Y-40026D01*
X51661Y-40352D01*
X51701Y-40426D01*
X51705Y-40428D01*
X51296Y-40428D01*
X51299Y-40426D01*
X51339Y-40352D01*
X51000Y-40013D01*
X50661Y-40352D01*
X50701Y-40426D01*
X50705Y-40428D01*
X50477Y-40428D01*
X50542Y-40363D01*
X50570Y-40294D01*
X50574Y-40299D01*
X50648Y-40339D01*
X50987Y-40000D01*
X50648Y-39661D01*
X50574Y-39701D01*
X50571Y-39706D01*
X50543Y-39638D01*
X50363Y-39458D01*
X50128Y-39360D01*
X49873Y-39360D01*
X49638Y-39457D01*
X49500Y-39595D01*
X49363Y-39458D01*
X49128Y-39360D01*
X48873Y-39360D01*
X48638Y-39457D01*
X48500Y-39595D01*
X48496Y-39591D01*
X48496Y-38069D01*
X48496Y-37931D01*
X48493Y-37899D01*
X48426Y-37763D01*
X48312Y-37663D01*
X48168Y-37615D01*
X48009Y-37615D01*
X48009Y-37991D01*
X48470Y-37991D01*
X48496Y-37931D01*
X48496Y-38069D01*
X48470Y-38009D01*
X48009Y-38009D01*
X48009Y-38385D01*
X48168Y-38385D01*
X48312Y-38337D01*
X48426Y-38237D01*
X48493Y-38101D01*
X48496Y-38069D01*
X48496Y-39591D01*
X48363Y-39458D01*
X48128Y-39360D01*
X48029Y-39360D01*
X48029Y-39257D01*
X47991Y-39165D01*
X47991Y-38385D01*
X47991Y-38059D01*
X47991Y-38009D01*
X47991Y-37991D01*
X47991Y-37941D01*
X47991Y-37615D01*
X47832Y-37615D01*
X47688Y-37663D01*
X47574Y-37763D01*
X47507Y-37897D01*
X47440Y-37721D01*
X47426Y-37701D01*
X47352Y-37661D01*
X47013Y-38000D01*
X47352Y-38339D01*
X47426Y-38299D01*
X47508Y-38114D01*
X47508Y-38103D01*
X47574Y-38237D01*
X47688Y-38337D01*
X47832Y-38385D01*
X47991Y-38385D01*
X47991Y-39165D01*
X47972Y-39120D01*
X47868Y-39016D01*
X47731Y-38959D01*
X47583Y-38959D01*
X47446Y-39016D01*
X47342Y-39120D01*
X47339Y-39127D01*
X47339Y-38352D01*
X47000Y-38013D01*
X46661Y-38352D01*
X46701Y-38426D01*
X46886Y-38508D01*
X47089Y-38513D01*
X47279Y-38440D01*
X47299Y-38426D01*
X47339Y-38352D01*
X47339Y-39127D01*
X47285Y-39257D01*
X47285Y-39405D01*
X47295Y-39429D01*
X47128Y-39360D01*
X46873Y-39360D01*
X46638Y-39457D01*
X46572Y-39523D01*
X46572Y-38296D01*
X46574Y-38299D01*
X46648Y-38339D01*
X46987Y-38000D01*
X46648Y-37661D01*
X46574Y-37701D01*
X46572Y-37705D01*
X46572Y-37477D01*
X46637Y-37542D01*
X46705Y-37570D01*
X46701Y-37574D01*
X46661Y-37648D01*
X47000Y-37987D01*
X47339Y-37648D01*
X47299Y-37574D01*
X47293Y-37571D01*
X47362Y-37543D01*
X47530Y-37374D01*
X47574Y-37418D01*
X47755Y-37493D01*
X47951Y-37493D01*
X48245Y-37493D01*
X48426Y-37418D01*
X48565Y-37279D01*
X48640Y-37098D01*
X48640Y-36902D01*
X48583Y-36765D01*
X48642Y-36707D01*
X48661Y-36660D01*
X48798Y-36503D01*
X48806Y-36488D01*
X48821Y-36474D01*
X48836Y-36435D01*
X48853Y-36407D01*
X48855Y-36389D01*
X48863Y-36371D01*
X48937Y-36001D01*
X48937Y-35965D01*
X48942Y-35937D01*
X48937Y-35914D01*
X48937Y-35890D01*
X48925Y-35861D01*
X48918Y-35828D01*
X48706Y-35355D01*
X48701Y-35349D01*
X48700Y-35343D01*
X48671Y-35306D01*
X48641Y-35265D01*
X48634Y-35261D01*
X48630Y-35255D01*
X48584Y-35228D01*
X48547Y-35205D01*
X48541Y-35204D01*
X48534Y-35200D01*
X47640Y-34907D01*
X47640Y-34873D01*
X47543Y-34638D01*
X47405Y-34500D01*
X47542Y-34363D01*
X47640Y-34128D01*
X47640Y-33873D01*
X47543Y-33638D01*
X47363Y-33458D01*
X47128Y-33360D01*
X46873Y-33360D01*
X46638Y-33457D01*
X46572Y-33523D01*
X46572Y-32977D01*
X46637Y-33042D01*
X46872Y-33140D01*
X47127Y-33140D01*
X47362Y-33043D01*
X47500Y-32905D01*
X47637Y-33042D01*
X47872Y-33140D01*
X48127Y-33140D01*
X48362Y-33043D01*
X48542Y-32863D01*
X48640Y-32628D01*
X48640Y-32373D01*
X48543Y-32138D01*
X48363Y-31958D01*
X48128Y-31860D01*
X47873Y-31860D01*
X47638Y-31957D01*
X47500Y-32095D01*
X47363Y-31958D01*
X47128Y-31860D01*
X46873Y-31860D01*
X46638Y-31957D01*
X46572Y-32023D01*
X46572Y-31477D01*
X46637Y-31542D01*
X46872Y-31640D01*
X47127Y-31640D01*
X47362Y-31543D01*
X47500Y-31405D01*
X47637Y-31542D01*
X47872Y-31640D01*
X48127Y-31640D01*
X48362Y-31543D01*
X48542Y-31363D01*
X48570Y-31294D01*
X48574Y-31299D01*
X48648Y-31339D01*
X48987Y-31000D01*
X48648Y-30661D01*
X48574Y-30701D01*
X48571Y-30706D01*
X48543Y-30638D01*
X48477Y-30572D01*
X48703Y-30572D01*
X48701Y-30574D01*
X48661Y-30648D01*
X49000Y-30987D01*
X49339Y-30648D01*
X49299Y-30574D01*
X49294Y-30572D01*
X49703Y-30572D01*
X49701Y-30574D01*
X49661Y-30648D01*
X50000Y-30987D01*
X50339Y-30648D01*
X50299Y-30574D01*
X50294Y-30572D01*
X50523Y-30572D01*
X50458Y-30637D01*
X50429Y-30705D01*
X50426Y-30701D01*
X50352Y-30661D01*
X50013Y-31000D01*
X50352Y-31339D01*
X50426Y-31299D01*
X50428Y-31293D01*
X50457Y-31362D01*
X50637Y-31542D01*
X50872Y-31640D01*
X51127Y-31640D01*
X51362Y-31543D01*
X51500Y-31405D01*
X51637Y-31542D01*
X51872Y-31640D01*
X52127Y-31640D01*
X52362Y-31543D01*
X52500Y-31405D01*
X52637Y-31542D01*
X52872Y-31640D01*
X53127Y-31640D01*
X53129Y-31639D01*
X53133Y-31643D01*
X53220Y-32301D01*
X53221Y-32304D01*
X53221Y-32306D01*
X53227Y-32325D01*
X53227Y-32325D01*
G37*
G54D20*
X53227Y-32325D02*
X53154Y-32325D01*
X53017Y-32382D01*
X52913Y-32486D01*
X52856Y-32623D01*
X52856Y-32742D01*
X52799Y-32509D01*
X52736Y-32373D01*
X52625Y-32271D01*
X52484Y-32219D01*
X52334Y-32226D01*
X52198Y-32289D01*
X52172Y-32317D01*
X52172Y-32224D01*
X52172Y-32076D01*
X52115Y-31939D01*
X52011Y-31835D01*
X51874Y-31778D01*
X51726Y-31778D01*
X51589Y-31835D01*
X51485Y-31939D01*
X51428Y-32076D01*
X51428Y-32224D01*
X51485Y-32361D01*
X51589Y-32465D01*
X51726Y-32522D01*
X51874Y-32522D01*
X52011Y-32465D01*
X52115Y-32361D01*
X52172Y-32224D01*
X52172Y-32317D01*
X52096Y-32400D01*
X52044Y-32541D01*
X52051Y-32691D01*
X52357Y-33946D01*
X51706Y-33655D01*
X51730Y-33598D01*
X51730Y-33450D01*
X51673Y-33313D01*
X51569Y-33209D01*
X51432Y-33152D01*
X51284Y-33152D01*
X51278Y-33154D01*
X51278Y-33036D01*
X51221Y-32899D01*
X51117Y-32795D01*
X50980Y-32738D01*
X50832Y-32738D01*
X50695Y-32795D01*
X50591Y-32899D01*
X50534Y-33036D01*
X50534Y-33178D01*
X50526Y-33178D01*
X50389Y-33235D01*
X50339Y-33285D01*
X50339Y-31352D01*
X50035Y-31048D01*
X50000Y-31013D01*
X49987Y-31000D01*
X49952Y-30965D01*
X49648Y-30661D01*
X49574Y-30701D01*
X49498Y-30872D01*
X49440Y-30721D01*
X49426Y-30701D01*
X49352Y-30661D01*
X49013Y-31000D01*
X49352Y-31339D01*
X49426Y-31299D01*
X49501Y-31127D01*
X49560Y-31279D01*
X49574Y-31299D01*
X49602Y-31314D01*
X49583Y-31334D01*
X49621Y-31372D01*
X49513Y-31417D01*
X49409Y-31521D01*
X49352Y-31658D01*
X49352Y-31806D01*
X49409Y-31943D01*
X49513Y-32047D01*
X49650Y-32104D01*
X49798Y-32104D01*
X49935Y-32047D01*
X50039Y-31943D01*
X50096Y-31806D01*
X50096Y-31658D01*
X50039Y-31521D01*
X50029Y-31511D01*
X50089Y-31513D01*
X50279Y-31440D01*
X50299Y-31426D01*
X50339Y-31352D01*
X50339Y-33285D01*
X50285Y-33339D01*
X50228Y-33476D01*
X50228Y-33624D01*
X50285Y-33761D01*
X50389Y-33865D01*
X50526Y-33922D01*
X50612Y-33922D01*
X52583Y-34803D01*
X52734Y-35814D01*
X52726Y-35835D01*
X52726Y-35983D01*
X52783Y-36120D01*
X52887Y-36224D01*
X53003Y-36272D01*
X52985Y-36270D01*
X52953Y-36278D01*
X52922Y-36280D01*
X52344Y-36416D01*
X52298Y-36436D01*
X52263Y-36446D01*
X52240Y-36463D01*
X52208Y-36478D01*
X52203Y-36483D01*
X52203Y-35291D01*
X52203Y-35143D01*
X52146Y-35006D01*
X52042Y-34902D01*
X51911Y-34847D01*
X51907Y-34841D01*
X51907Y-34749D01*
X51850Y-34612D01*
X51746Y-34508D01*
X51609Y-34451D01*
X51461Y-34451D01*
X51324Y-34508D01*
X51220Y-34612D01*
X51163Y-34749D01*
X51163Y-34897D01*
X51220Y-35034D01*
X51324Y-35138D01*
X51454Y-35192D01*
X51459Y-35198D01*
X51459Y-35291D01*
X51516Y-35428D01*
X51620Y-35532D01*
X51757Y-35589D01*
X51905Y-35589D01*
X52042Y-35532D01*
X52146Y-35428D01*
X52203Y-35291D01*
X52203Y-36483D01*
X52192Y-36495D01*
X51327Y-36083D01*
X51324Y-36082D01*
X50577Y-35731D01*
X50654Y-35532D01*
X50663Y-35475D01*
X50667Y-35468D01*
X50667Y-35458D01*
X50680Y-35384D01*
X50667Y-35327D01*
X50667Y-35320D01*
X50662Y-35310D01*
X50646Y-35237D01*
X50613Y-35190D01*
X50610Y-35183D01*
X50602Y-35175D01*
X50559Y-35114D01*
X50509Y-35082D01*
X50506Y-35079D01*
X50499Y-35076D01*
X50433Y-35034D01*
X50373Y-35024D01*
X50369Y-35022D01*
X50361Y-35022D01*
X50285Y-35009D01*
X50228Y-35022D01*
X50221Y-35022D01*
X50211Y-35026D01*
X50138Y-35043D01*
X50090Y-35076D01*
X50084Y-35079D01*
X50078Y-35084D01*
X50015Y-35129D01*
X49982Y-35180D01*
X49980Y-35183D01*
X49978Y-35187D01*
X49935Y-35256D01*
X49890Y-35372D01*
X49552Y-35182D01*
X49339Y-34143D01*
X49339Y-31352D01*
X49000Y-31013D01*
X48661Y-31352D01*
X48701Y-31426D01*
X48886Y-31508D01*
X49089Y-31513D01*
X49279Y-31440D01*
X49299Y-31426D01*
X49339Y-31352D01*
X49339Y-34143D01*
X49176Y-33348D01*
X49118Y-33209D01*
X49011Y-33104D01*
X48871Y-33047D01*
X48722Y-33048D01*
X48583Y-33106D01*
X48478Y-33213D01*
X48421Y-33353D01*
X48422Y-33502D01*
X48834Y-35511D01*
X48842Y-35531D01*
X48843Y-35536D01*
X48852Y-35555D01*
X48892Y-35649D01*
X48905Y-35662D01*
X48910Y-35671D01*
X48943Y-35699D01*
X48999Y-35754D01*
X49015Y-35760D01*
X49024Y-35768D01*
X49581Y-36082D01*
X49262Y-36717D01*
X49258Y-36730D01*
X49250Y-36743D01*
X49238Y-36802D01*
X49222Y-36861D01*
X49223Y-36875D01*
X49221Y-36890D01*
X49234Y-36956D01*
X49241Y-37011D01*
X49246Y-37021D01*
X49250Y-37037D01*
X49285Y-37090D01*
X49315Y-37142D01*
X49326Y-37151D01*
X49334Y-37162D01*
X49382Y-37194D01*
X49433Y-37234D01*
X49446Y-37237D01*
X49459Y-37246D01*
X49518Y-37257D01*
X49577Y-37274D01*
X49591Y-37272D01*
X49606Y-37275D01*
X49672Y-37261D01*
X49727Y-37255D01*
X49737Y-37249D01*
X49753Y-37246D01*
X49806Y-37210D01*
X49844Y-37188D01*
X49803Y-37230D01*
X49746Y-37367D01*
X49746Y-37438D01*
X49711Y-37450D01*
X49608Y-37537D01*
X49588Y-37574D01*
X49539Y-37624D01*
X49482Y-37761D01*
X49482Y-37909D01*
X49539Y-38046D01*
X49643Y-38150D01*
X49780Y-38207D01*
X49884Y-38207D01*
X50118Y-38281D01*
X50015Y-38412D01*
X49986Y-38425D01*
X49882Y-38529D01*
X49825Y-38666D01*
X49825Y-38814D01*
X49882Y-38951D01*
X49986Y-39055D01*
X50123Y-39112D01*
X50271Y-39112D01*
X50408Y-39055D01*
X50512Y-38951D01*
X50546Y-38867D01*
X50616Y-38937D01*
X50753Y-38994D01*
X50901Y-38994D01*
X51038Y-38937D01*
X51102Y-38872D01*
X51228Y-39000D01*
X51263Y-39024D01*
X51299Y-39058D01*
X51613Y-39255D01*
X51617Y-39256D01*
X51620Y-39259D01*
X51689Y-39283D01*
X51753Y-39308D01*
X51756Y-39307D01*
X51762Y-39310D01*
X51846Y-39305D01*
X51903Y-39304D01*
X51906Y-39302D01*
X51912Y-39302D01*
X52007Y-39256D01*
X52041Y-39242D01*
X52042Y-39240D01*
X52048Y-39238D01*
X52352Y-39011D01*
X52501Y-39593D01*
X52458Y-39637D01*
X52429Y-39705D01*
X52426Y-39701D01*
X52352Y-39661D01*
X52339Y-39674D01*
X52339Y-39648D01*
X52299Y-39574D01*
X52114Y-39492D01*
X51911Y-39487D01*
X51721Y-39560D01*
X51701Y-39574D01*
X51661Y-39648D01*
X52000Y-39987D01*
X52339Y-39648D01*
X52339Y-39674D01*
X52013Y-40000D01*
X52352Y-40339D01*
X52426Y-40299D01*
X52428Y-40293D01*
X52457Y-40362D01*
X52523Y-40428D01*
X52296Y-40428D01*
X52299Y-40426D01*
X52339Y-40352D01*
X52000Y-40013D01*
X51987Y-40026D01*
X51987Y-40000D01*
X51648Y-39661D01*
X51574Y-39701D01*
X51498Y-39872D01*
X51440Y-39721D01*
X51426Y-39701D01*
X51352Y-39661D01*
X51339Y-39674D01*
X51339Y-39648D01*
X51299Y-39574D01*
X51114Y-39492D01*
X50911Y-39487D01*
X50721Y-39560D01*
X50701Y-39574D01*
X50661Y-39648D01*
X51000Y-39987D01*
X51339Y-39648D01*
X51339Y-39674D01*
X51013Y-40000D01*
X51352Y-40339D01*
X51426Y-40299D01*
X51501Y-40127D01*
X51560Y-40279D01*
X51574Y-40299D01*
X51648Y-40339D01*
X51987Y-40000D01*
X51987Y-40026D01*
X51661Y-40352D01*
X51701Y-40426D01*
X51705Y-40428D01*
X51296Y-40428D01*
X51299Y-40426D01*
X51339Y-40352D01*
X51000Y-40013D01*
X50661Y-40352D01*
X50701Y-40426D01*
X50705Y-40428D01*
X50477Y-40428D01*
X50542Y-40363D01*
X50570Y-40294D01*
X50574Y-40299D01*
X50648Y-40339D01*
X50987Y-40000D01*
X50648Y-39661D01*
X50574Y-39701D01*
X50571Y-39706D01*
X50543Y-39638D01*
X50363Y-39458D01*
X50128Y-39360D01*
X49873Y-39360D01*
X49638Y-39457D01*
X49500Y-39595D01*
X49363Y-39458D01*
X49128Y-39360D01*
X48873Y-39360D01*
X48638Y-39457D01*
X48500Y-39595D01*
X48496Y-39591D01*
X48496Y-38069D01*
X48496Y-37931D01*
X48493Y-37899D01*
X48426Y-37763D01*
X48312Y-37663D01*
X48168Y-37615D01*
X48009Y-37615D01*
X48009Y-37991D01*
X48470Y-37991D01*
X48496Y-37931D01*
X48496Y-38069D01*
X48470Y-38009D01*
X48009Y-38009D01*
X48009Y-38385D01*
X48168Y-38385D01*
X48312Y-38337D01*
X48426Y-38237D01*
X48493Y-38101D01*
X48496Y-38069D01*
X48496Y-39591D01*
X48363Y-39458D01*
X48128Y-39360D01*
X48029Y-39360D01*
X48029Y-39257D01*
X47991Y-39165D01*
X47991Y-38385D01*
X47991Y-38059D01*
X47991Y-38009D01*
X47991Y-37991D01*
X47991Y-37941D01*
X47991Y-37615D01*
X47832Y-37615D01*
X47688Y-37663D01*
X47574Y-37763D01*
X47507Y-37897D01*
X47440Y-37721D01*
X47426Y-37701D01*
X47352Y-37661D01*
X47013Y-38000D01*
X47352Y-38339D01*
X47426Y-38299D01*
X47508Y-38114D01*
X47508Y-38103D01*
X47574Y-38237D01*
X47688Y-38337D01*
X47832Y-38385D01*
X47991Y-38385D01*
X47991Y-39165D01*
X47972Y-39120D01*
X47868Y-39016D01*
X47731Y-38959D01*
X47583Y-38959D01*
X47446Y-39016D01*
X47342Y-39120D01*
X47339Y-39127D01*
X47339Y-38352D01*
X47000Y-38013D01*
X46661Y-38352D01*
X46701Y-38426D01*
X46886Y-38508D01*
X47089Y-38513D01*
X47279Y-38440D01*
X47299Y-38426D01*
X47339Y-38352D01*
X47339Y-39127D01*
X47285Y-39257D01*
X47285Y-39405D01*
X47295Y-39429D01*
X47128Y-39360D01*
X46873Y-39360D01*
X46638Y-39457D01*
X46572Y-39523D01*
X46572Y-38296D01*
X46574Y-38299D01*
X46648Y-38339D01*
X46987Y-38000D01*
X46648Y-37661D01*
X46574Y-37701D01*
X46572Y-37705D01*
X46572Y-37477D01*
X46637Y-37542D01*
X46705Y-37570D01*
X46701Y-37574D01*
X46661Y-37648D01*
X47000Y-37987D01*
X47339Y-37648D01*
X47299Y-37574D01*
X47293Y-37571D01*
X47362Y-37543D01*
X47530Y-37374D01*
X47574Y-37418D01*
X47755Y-37493D01*
X47951Y-37493D01*
X48245Y-37493D01*
X48426Y-37418D01*
X48565Y-37279D01*
X48640Y-37098D01*
X48640Y-36902D01*
X48583Y-36765D01*
X48642Y-36707D01*
X48661Y-36660D01*
X48798Y-36503D01*
X48806Y-36488D01*
X48821Y-36474D01*
X48836Y-36435D01*
X48853Y-36407D01*
X48855Y-36389D01*
X48863Y-36371D01*
X48937Y-36001D01*
X48937Y-35965D01*
X48942Y-35937D01*
X48937Y-35914D01*
X48937Y-35890D01*
X48925Y-35861D01*
X48918Y-35828D01*
X48706Y-35355D01*
X48701Y-35349D01*
X48700Y-35343D01*
X48671Y-35306D01*
X48641Y-35265D01*
X48634Y-35261D01*
X48630Y-35255D01*
X48584Y-35228D01*
X48547Y-35205D01*
X48541Y-35204D01*
X48534Y-35200D01*
X47640Y-34907D01*
X47640Y-34873D01*
X47543Y-34638D01*
X47405Y-34500D01*
X47542Y-34363D01*
X47640Y-34128D01*
X47640Y-33873D01*
X47543Y-33638D01*
X47363Y-33458D01*
X47128Y-33360D01*
X46873Y-33360D01*
X46638Y-33457D01*
X46572Y-33523D01*
X46572Y-32977D01*
X46637Y-33042D01*
X46872Y-33140D01*
X47127Y-33140D01*
X47362Y-33043D01*
X47500Y-32905D01*
X47637Y-33042D01*
X47872Y-33140D01*
X48127Y-33140D01*
X48362Y-33043D01*
X48542Y-32863D01*
X48640Y-32628D01*
X48640Y-32373D01*
X48543Y-32138D01*
X48363Y-31958D01*
X48128Y-31860D01*
X47873Y-31860D01*
X47638Y-31957D01*
X47500Y-32095D01*
X47363Y-31958D01*
X47128Y-31860D01*
X46873Y-31860D01*
X46638Y-31957D01*
X46572Y-32023D01*
X46572Y-31477D01*
X46637Y-31542D01*
X46872Y-31640D01*
X47127Y-31640D01*
X47362Y-31543D01*
X47500Y-31405D01*
X47637Y-31542D01*
X47872Y-31640D01*
X48127Y-31640D01*
X48362Y-31543D01*
X48542Y-31363D01*
X48570Y-31294D01*
X48574Y-31299D01*
X48648Y-31339D01*
X48987Y-31000D01*
X48648Y-30661D01*
X48574Y-30701D01*
X48571Y-30706D01*
X48543Y-30638D01*
X48477Y-30572D01*
X48703Y-30572D01*
X48701Y-30574D01*
X48661Y-30648D01*
X49000Y-30987D01*
X49339Y-30648D01*
X49299Y-30574D01*
X49294Y-30572D01*
X49703Y-30572D01*
X49701Y-30574D01*
X49661Y-30648D01*
X50000Y-30987D01*
X50339Y-30648D01*
X50299Y-30574D01*
X50294Y-30572D01*
X50523Y-30572D01*
X50458Y-30637D01*
X50429Y-30705D01*
X50426Y-30701D01*
X50352Y-30661D01*
X50013Y-31000D01*
X50352Y-31339D01*
X50426Y-31299D01*
X50428Y-31293D01*
X50457Y-31362D01*
X50637Y-31542D01*
X50872Y-31640D01*
X51127Y-31640D01*
X51362Y-31543D01*
X51500Y-31405D01*
X51637Y-31542D01*
X51872Y-31640D01*
X52127Y-31640D01*
X52362Y-31543D01*
X52500Y-31405D01*
X52637Y-31542D01*
X52872Y-31640D01*
X53127Y-31640D01*
X53129Y-31639D01*
X53133Y-31643D01*
X53220Y-32301D01*
X53221Y-32304D01*
X53221Y-32306D01*
X53227Y-32325D01*
G54D10*
G36*
X54135Y-39363D02*
X54128Y-39360D01*
X53873Y-39360D01*
X53638Y-39457D01*
X53500Y-39595D01*
X53363Y-39458D01*
X53249Y-39410D01*
X52853Y-37858D01*
X52816Y-37780D01*
X52790Y-37252D01*
X52880Y-37184D01*
X52856Y-37245D01*
X52856Y-37393D01*
X52913Y-37530D01*
X53017Y-37634D01*
X53154Y-37691D01*
X53243Y-37691D01*
X53898Y-38097D01*
X53812Y-38133D01*
X53716Y-38093D01*
X53568Y-38093D01*
X53431Y-38150D01*
X53327Y-38254D01*
X53270Y-38391D01*
X53270Y-38539D01*
X53327Y-38676D01*
X53431Y-38780D01*
X53568Y-38837D01*
X53609Y-38837D01*
X54135Y-39363D01*
X54135Y-39363D01*
G37*
G54D20*
X54135Y-39363D02*
X54128Y-39360D01*
X53873Y-39360D01*
X53638Y-39457D01*
X53500Y-39595D01*
X53363Y-39458D01*
X53249Y-39410D01*
X52853Y-37858D01*
X52816Y-37780D01*
X52790Y-37252D01*
X52880Y-37184D01*
X52856Y-37245D01*
X52856Y-37393D01*
X52913Y-37530D01*
X53017Y-37634D01*
X53154Y-37691D01*
X53243Y-37691D01*
X53898Y-38097D01*
X53812Y-38133D01*
X53716Y-38093D01*
X53568Y-38093D01*
X53431Y-38150D01*
X53327Y-38254D01*
X53270Y-38391D01*
X53270Y-38539D01*
X53327Y-38676D01*
X53431Y-38780D01*
X53568Y-38837D01*
X53609Y-38837D01*
X54135Y-39363D01*
G54D10*
G36*
X55523Y-40428D02*
X55296Y-40428D01*
X55299Y-40426D01*
X55339Y-40352D01*
X55000Y-40013D01*
X54661Y-40352D01*
X54701Y-40426D01*
X54705Y-40428D01*
X54477Y-40428D01*
X54542Y-40363D01*
X54570Y-40294D01*
X54574Y-40299D01*
X54648Y-40339D01*
X54952Y-40035D01*
X54987Y-40000D01*
X55000Y-39987D01*
X55013Y-40000D01*
X55048Y-40035D01*
X55352Y-40339D01*
X55426Y-40299D01*
X55428Y-40293D01*
X55457Y-40362D01*
X55523Y-40428D01*
X55523Y-40428D01*
G37*
G54D20*
X55523Y-40428D02*
X55296Y-40428D01*
X55299Y-40426D01*
X55339Y-40352D01*
X55000Y-40013D01*
X54661Y-40352D01*
X54701Y-40426D01*
X54705Y-40428D01*
X54477Y-40428D01*
X54542Y-40363D01*
X54570Y-40294D01*
X54574Y-40299D01*
X54648Y-40339D01*
X54952Y-40035D01*
X54987Y-40000D01*
X55000Y-39987D01*
X55013Y-40000D01*
X55048Y-40035D01*
X55352Y-40339D01*
X55426Y-40299D01*
X55428Y-40293D01*
X55457Y-40362D01*
X55523Y-40428D01*
G54D10*
G36*
X55671Y-34598D02*
X55663Y-34602D01*
X55619Y-34645D01*
X55617Y-34644D01*
X55469Y-34644D01*
X55332Y-34701D01*
X55228Y-34805D01*
X55213Y-34840D01*
X55176Y-34825D01*
X55028Y-34825D01*
X54922Y-34869D01*
X54827Y-34774D01*
X54690Y-34717D01*
X54542Y-34717D01*
X54458Y-34751D01*
X54326Y-34697D01*
X54178Y-34697D01*
X54069Y-34742D01*
X54006Y-34651D01*
X53971Y-34617D01*
X53952Y-34590D01*
X53927Y-34574D01*
X53898Y-34546D01*
X53853Y-34529D01*
X53825Y-34511D01*
X53231Y-34283D01*
X52872Y-32811D01*
X52913Y-32908D01*
X53017Y-33012D01*
X53154Y-33069D01*
X53302Y-33069D01*
X53439Y-33012D01*
X53543Y-32908D01*
X53598Y-32774D01*
X53660Y-32809D01*
X53672Y-32813D01*
X53681Y-32819D01*
X53685Y-32820D01*
X53690Y-32823D01*
X53726Y-32830D01*
X53766Y-32843D01*
X53776Y-32842D01*
X53789Y-32845D01*
X53799Y-32845D01*
X53963Y-32851D01*
X53963Y-32936D01*
X54020Y-33073D01*
X54116Y-33169D01*
X54116Y-33235D01*
X54126Y-33259D01*
X54080Y-33279D01*
X53976Y-33383D01*
X53919Y-33520D01*
X53919Y-33668D01*
X53976Y-33805D01*
X54080Y-33909D01*
X54217Y-33966D01*
X54365Y-33966D01*
X54502Y-33909D01*
X54606Y-33805D01*
X54663Y-33668D01*
X54663Y-33520D01*
X54652Y-33495D01*
X54699Y-33476D01*
X54707Y-33467D01*
X55518Y-34315D01*
X55518Y-34365D01*
X55575Y-34502D01*
X55671Y-34598D01*
X55671Y-34598D01*
G37*
G54D20*
X55671Y-34598D02*
X55663Y-34602D01*
X55619Y-34645D01*
X55617Y-34644D01*
X55469Y-34644D01*
X55332Y-34701D01*
X55228Y-34805D01*
X55213Y-34840D01*
X55176Y-34825D01*
X55028Y-34825D01*
X54922Y-34869D01*
X54827Y-34774D01*
X54690Y-34717D01*
X54542Y-34717D01*
X54458Y-34751D01*
X54326Y-34697D01*
X54178Y-34697D01*
X54069Y-34742D01*
X54006Y-34651D01*
X53971Y-34617D01*
X53952Y-34590D01*
X53927Y-34574D01*
X53898Y-34546D01*
X53853Y-34529D01*
X53825Y-34511D01*
X53231Y-34283D01*
X52872Y-32811D01*
X52913Y-32908D01*
X53017Y-33012D01*
X53154Y-33069D01*
X53302Y-33069D01*
X53439Y-33012D01*
X53543Y-32908D01*
X53598Y-32774D01*
X53660Y-32809D01*
X53672Y-32813D01*
X53681Y-32819D01*
X53685Y-32820D01*
X53690Y-32823D01*
X53726Y-32830D01*
X53766Y-32843D01*
X53776Y-32842D01*
X53789Y-32845D01*
X53799Y-32845D01*
X53963Y-32851D01*
X53963Y-32936D01*
X54020Y-33073D01*
X54116Y-33169D01*
X54116Y-33235D01*
X54126Y-33259D01*
X54080Y-33279D01*
X53976Y-33383D01*
X53919Y-33520D01*
X53919Y-33668D01*
X53976Y-33805D01*
X54080Y-33909D01*
X54217Y-33966D01*
X54365Y-33966D01*
X54502Y-33909D01*
X54606Y-33805D01*
X54663Y-33668D01*
X54663Y-33520D01*
X54652Y-33495D01*
X54699Y-33476D01*
X54707Y-33467D01*
X55518Y-34315D01*
X55518Y-34365D01*
X55575Y-34502D01*
X55671Y-34598D01*
G54D10*
G36*
X56121Y-32832D02*
X55968Y-33403D01*
X55950Y-33396D01*
X55532Y-32550D01*
X55526Y-32542D01*
X55525Y-32538D01*
X55494Y-32501D01*
X55464Y-32462D01*
X55459Y-32459D01*
X55454Y-32453D01*
X55257Y-32296D01*
X55237Y-32286D01*
X55224Y-32274D01*
X55191Y-32262D01*
X55159Y-32246D01*
X55139Y-32244D01*
X55119Y-32237D01*
X54292Y-32119D01*
X54276Y-32119D01*
X54265Y-32117D01*
X53963Y-32101D01*
X53960Y-32099D01*
X53938Y-31640D01*
X54127Y-31640D01*
X54362Y-31543D01*
X54500Y-31405D01*
X54637Y-31542D01*
X54872Y-31640D01*
X55102Y-31640D01*
X55116Y-31654D01*
X55131Y-31660D01*
X55146Y-31672D01*
X55891Y-32050D01*
X55951Y-32154D01*
X56121Y-32832D01*
X56121Y-32832D01*
G37*
G54D20*
X56121Y-32832D02*
X55968Y-33403D01*
X55950Y-33396D01*
X55532Y-32550D01*
X55526Y-32542D01*
X55525Y-32538D01*
X55494Y-32501D01*
X55464Y-32462D01*
X55459Y-32459D01*
X55454Y-32453D01*
X55257Y-32296D01*
X55237Y-32286D01*
X55224Y-32274D01*
X55191Y-32262D01*
X55159Y-32246D01*
X55139Y-32244D01*
X55119Y-32237D01*
X54292Y-32119D01*
X54276Y-32119D01*
X54265Y-32117D01*
X53963Y-32101D01*
X53960Y-32099D01*
X53938Y-31640D01*
X54127Y-31640D01*
X54362Y-31543D01*
X54500Y-31405D01*
X54637Y-31542D01*
X54872Y-31640D01*
X55102Y-31640D01*
X55116Y-31654D01*
X55131Y-31660D01*
X55146Y-31672D01*
X55891Y-32050D01*
X55951Y-32154D01*
X56121Y-32832D01*
G54D10*
G36*
X62264Y-39096D02*
X62251Y-39109D01*
X62238Y-39096D01*
X62251Y-39083D01*
X62264Y-39096D01*
X62264Y-39096D01*
G37*
G54D20*
X62264Y-39096D02*
X62251Y-39109D01*
X62238Y-39096D01*
X62251Y-39083D01*
X62264Y-39096D01*
G54D10*
G36*
X66428Y-40428D02*
X66296Y-40428D01*
X66299Y-40426D01*
X66339Y-40352D01*
X66000Y-40013D01*
X65661Y-40352D01*
X65701Y-40426D01*
X65705Y-40428D01*
X65477Y-40428D01*
X65542Y-40363D01*
X65570Y-40294D01*
X65574Y-40299D01*
X65648Y-40339D01*
X65987Y-40000D01*
X65648Y-39661D01*
X65574Y-39701D01*
X65571Y-39706D01*
X65543Y-39638D01*
X65363Y-39458D01*
X65128Y-39360D01*
X64873Y-39360D01*
X64638Y-39457D01*
X64500Y-39595D01*
X64363Y-39458D01*
X64128Y-39360D01*
X63873Y-39360D01*
X63638Y-39457D01*
X63500Y-39595D01*
X63447Y-39542D01*
X63513Y-38929D01*
X63511Y-38910D01*
X63513Y-38902D01*
X63508Y-38875D01*
X63503Y-38818D01*
X63494Y-38802D01*
X63493Y-38792D01*
X63472Y-38759D01*
X63451Y-38719D01*
X63441Y-38710D01*
X63433Y-38698D01*
X62933Y-38183D01*
X63024Y-38093D01*
X63081Y-37956D01*
X63081Y-37808D01*
X63024Y-37671D01*
X62920Y-37567D01*
X62783Y-37510D01*
X62635Y-37510D01*
X62498Y-37567D01*
X62394Y-37671D01*
X62337Y-37808D01*
X62337Y-37927D01*
X62019Y-37871D01*
X61996Y-37871D01*
X61976Y-37867D01*
X61927Y-37865D01*
X61927Y-34739D01*
X61927Y-34591D01*
X61870Y-34454D01*
X61766Y-34350D01*
X61629Y-34293D01*
X61481Y-34293D01*
X61344Y-34350D01*
X61240Y-34454D01*
X61183Y-34591D01*
X61183Y-34739D01*
X61240Y-34876D01*
X61344Y-34980D01*
X61481Y-35037D01*
X61629Y-35037D01*
X61766Y-34980D01*
X61870Y-34876D01*
X61927Y-34739D01*
X61927Y-37865D01*
X61770Y-37861D01*
X61770Y-36393D01*
X61770Y-36245D01*
X61713Y-36108D01*
X61609Y-36004D01*
X61472Y-35947D01*
X61415Y-35947D01*
X61415Y-35487D01*
X61415Y-35339D01*
X61358Y-35202D01*
X61254Y-35098D01*
X61117Y-35041D01*
X60969Y-35041D01*
X60832Y-35098D01*
X60728Y-35202D01*
X60671Y-35339D01*
X60671Y-35487D01*
X60728Y-35624D01*
X60832Y-35728D01*
X60969Y-35785D01*
X61117Y-35785D01*
X61254Y-35728D01*
X61358Y-35624D01*
X61415Y-35487D01*
X61415Y-35947D01*
X61324Y-35947D01*
X61187Y-36004D01*
X61083Y-36108D01*
X61026Y-36245D01*
X61026Y-36393D01*
X61083Y-36530D01*
X61187Y-36634D01*
X61324Y-36691D01*
X61472Y-36691D01*
X61609Y-36634D01*
X61713Y-36530D01*
X61770Y-36393D01*
X61770Y-37861D01*
X61612Y-37856D01*
X61612Y-37476D01*
X61612Y-37328D01*
X61555Y-37191D01*
X61451Y-37087D01*
X61314Y-37030D01*
X61166Y-37030D01*
X61029Y-37087D01*
X60925Y-37191D01*
X60868Y-37328D01*
X60868Y-37476D01*
X60925Y-37613D01*
X61029Y-37717D01*
X61166Y-37774D01*
X61314Y-37774D01*
X61451Y-37717D01*
X61555Y-37613D01*
X61612Y-37476D01*
X61612Y-37856D01*
X60884Y-37836D01*
X60884Y-37761D01*
X60827Y-37624D01*
X60723Y-37520D01*
X60586Y-37463D01*
X60438Y-37463D01*
X60301Y-37520D01*
X60237Y-37583D01*
X59663Y-37120D01*
X59654Y-37115D01*
X59650Y-37111D01*
X59611Y-37093D01*
X59564Y-37069D01*
X59556Y-37068D01*
X59549Y-37065D01*
X58892Y-36908D01*
X58797Y-36878D01*
X58797Y-35889D01*
X58797Y-35741D01*
X58740Y-35604D01*
X58636Y-35500D01*
X58499Y-35443D01*
X58351Y-35443D01*
X58214Y-35500D01*
X58110Y-35604D01*
X58053Y-35741D01*
X58053Y-35889D01*
X58110Y-36026D01*
X58214Y-36130D01*
X58351Y-36187D01*
X58499Y-36187D01*
X58636Y-36130D01*
X58740Y-36026D01*
X58797Y-35889D01*
X58797Y-36878D01*
X57986Y-36630D01*
X57982Y-36620D01*
X57878Y-36516D01*
X57741Y-36459D01*
X57593Y-36459D01*
X57505Y-36495D01*
X57417Y-36459D01*
X57269Y-36459D01*
X57132Y-36516D01*
X57028Y-36620D01*
X56971Y-36757D01*
X56971Y-36905D01*
X57028Y-37042D01*
X57132Y-37146D01*
X57269Y-37203D01*
X57417Y-37203D01*
X57505Y-37166D01*
X57593Y-37203D01*
X57741Y-37203D01*
X57810Y-37174D01*
X58453Y-37372D01*
X58317Y-37429D01*
X58213Y-37533D01*
X58156Y-37670D01*
X58156Y-37818D01*
X58213Y-37955D01*
X58317Y-38059D01*
X58454Y-38116D01*
X58602Y-38116D01*
X58739Y-38059D01*
X58843Y-37955D01*
X58896Y-37826D01*
X59037Y-37721D01*
X59154Y-37735D01*
X60212Y-38607D01*
X60246Y-38625D01*
X60273Y-38645D01*
X60280Y-38646D01*
X60285Y-38650D01*
X60297Y-38652D01*
X60310Y-38659D01*
X60341Y-38662D01*
X60381Y-38672D01*
X60394Y-38672D01*
X61855Y-38740D01*
X61834Y-38762D01*
X61844Y-38772D01*
X61839Y-38778D01*
X61824Y-38798D01*
X61812Y-38881D01*
X62076Y-39004D01*
X62113Y-39041D01*
X61813Y-38901D01*
X61779Y-38872D01*
X61636Y-38827D01*
X58207Y-38448D01*
X58207Y-38332D01*
X58150Y-38195D01*
X58046Y-38091D01*
X57909Y-38034D01*
X57761Y-38034D01*
X57624Y-38091D01*
X57520Y-38195D01*
X57463Y-38332D01*
X57463Y-38333D01*
X57222Y-38279D01*
X57222Y-37680D01*
X57222Y-37532D01*
X57165Y-37395D01*
X57061Y-37291D01*
X56924Y-37234D01*
X56776Y-37234D01*
X56639Y-37291D01*
X56535Y-37395D01*
X56478Y-37532D01*
X56478Y-37680D01*
X56535Y-37817D01*
X56639Y-37921D01*
X56776Y-37978D01*
X56924Y-37978D01*
X57061Y-37921D01*
X57165Y-37817D01*
X57222Y-37680D01*
X57222Y-38279D01*
X56718Y-38167D01*
X56687Y-38166D01*
X56660Y-38159D01*
X55886Y-38106D01*
X53918Y-36933D01*
X53773Y-36626D01*
X53769Y-36621D01*
X53769Y-36619D01*
X53739Y-36581D01*
X53684Y-36506D01*
X53679Y-36503D01*
X53677Y-36500D01*
X53609Y-36461D01*
X53554Y-36429D01*
X53550Y-36428D01*
X53546Y-36426D01*
X53134Y-36289D01*
X53100Y-36284D01*
X53090Y-36281D01*
X53172Y-36281D01*
X53309Y-36224D01*
X53413Y-36120D01*
X53470Y-35983D01*
X53470Y-35835D01*
X53416Y-35705D01*
X53390Y-35536D01*
X53518Y-35484D01*
X53593Y-35408D01*
X53817Y-35731D01*
X53864Y-35777D01*
X53897Y-35815D01*
X53910Y-35821D01*
X53925Y-35836D01*
X53981Y-35858D01*
X54030Y-35883D01*
X54171Y-35922D01*
X54136Y-36009D01*
X54136Y-36157D01*
X54193Y-36294D01*
X54297Y-36398D01*
X54434Y-36455D01*
X54582Y-36455D01*
X54588Y-36452D01*
X54608Y-36472D01*
X54745Y-36529D01*
X54893Y-36529D01*
X54960Y-36500D01*
X55076Y-36549D01*
X55224Y-36549D01*
X55361Y-36492D01*
X55465Y-36388D01*
X55504Y-36293D01*
X55558Y-36309D01*
X55580Y-37039D01*
X55593Y-37094D01*
X55593Y-37102D01*
X55596Y-37111D01*
X55614Y-37185D01*
X55646Y-37231D01*
X55650Y-37239D01*
X55657Y-37246D01*
X55658Y-37248D01*
X55634Y-37273D01*
X55577Y-37410D01*
X55577Y-37558D01*
X55634Y-37695D01*
X55738Y-37799D01*
X55875Y-37856D01*
X56023Y-37856D01*
X56160Y-37799D01*
X56264Y-37695D01*
X56321Y-37558D01*
X56321Y-37410D01*
X56264Y-37273D01*
X56259Y-37268D01*
X56273Y-37245D01*
X56280Y-37239D01*
X56284Y-37228D01*
X56325Y-37164D01*
X56334Y-37108D01*
X56337Y-37102D01*
X56337Y-37092D01*
X56350Y-37016D01*
X56320Y-36015D01*
X56372Y-35994D01*
X56476Y-35890D01*
X56533Y-35753D01*
X56533Y-35605D01*
X56476Y-35468D01*
X56372Y-35364D01*
X56235Y-35307D01*
X56087Y-35307D01*
X55950Y-35364D01*
X55846Y-35468D01*
X55800Y-35577D01*
X55711Y-35552D01*
X55711Y-35422D01*
X55685Y-35359D01*
X55754Y-35331D01*
X55797Y-35287D01*
X55800Y-35289D01*
X55948Y-35289D01*
X56085Y-35232D01*
X56189Y-35128D01*
X56246Y-34991D01*
X56246Y-34843D01*
X56189Y-34707D01*
X56273Y-34791D01*
X56410Y-34848D01*
X56558Y-34848D01*
X56695Y-34791D01*
X56799Y-34687D01*
X56856Y-34550D01*
X56856Y-34433D01*
X56909Y-34561D01*
X57013Y-34665D01*
X57150Y-34722D01*
X57298Y-34722D01*
X57435Y-34665D01*
X57539Y-34561D01*
X57596Y-34424D01*
X57596Y-34276D01*
X57539Y-34139D01*
X57490Y-34090D01*
X57490Y-33977D01*
X57433Y-33840D01*
X57329Y-33736D01*
X57192Y-33679D01*
X57084Y-33679D01*
X57087Y-33676D01*
X57144Y-33539D01*
X57144Y-33391D01*
X57087Y-33254D01*
X56983Y-33150D01*
X56846Y-33093D01*
X56698Y-33093D01*
X56636Y-33118D01*
X56692Y-32910D01*
X56693Y-32893D01*
X56699Y-32877D01*
X56696Y-32831D01*
X56699Y-32799D01*
X56694Y-32786D01*
X56694Y-32766D01*
X56515Y-32049D01*
X56858Y-32289D01*
X56913Y-32420D01*
X57017Y-32524D01*
X57154Y-32581D01*
X57302Y-32581D01*
X57439Y-32524D01*
X57499Y-32463D01*
X57535Y-32550D01*
X57639Y-32654D01*
X57776Y-32711D01*
X57924Y-32711D01*
X58061Y-32654D01*
X58163Y-32551D01*
X58225Y-32577D01*
X58373Y-32577D01*
X58510Y-32520D01*
X58591Y-32439D01*
X58704Y-32439D01*
X58841Y-32382D01*
X58885Y-32337D01*
X58887Y-32339D01*
X59024Y-32396D01*
X59172Y-32396D01*
X59309Y-32339D01*
X59355Y-32292D01*
X60216Y-32234D01*
X60246Y-32225D01*
X60286Y-32221D01*
X61144Y-31939D01*
X61144Y-32033D01*
X61201Y-32170D01*
X61305Y-32274D01*
X61442Y-32331D01*
X61572Y-32331D01*
X61572Y-32370D01*
X61596Y-32429D01*
X61521Y-32461D01*
X61417Y-32565D01*
X61360Y-32702D01*
X61360Y-32850D01*
X61385Y-32910D01*
X61348Y-32948D01*
X61291Y-33085D01*
X61291Y-33233D01*
X61348Y-33370D01*
X61452Y-33474D01*
X61589Y-33531D01*
X61737Y-33531D01*
X61874Y-33474D01*
X61978Y-33370D01*
X62035Y-33233D01*
X62035Y-33085D01*
X62009Y-33024D01*
X62047Y-32987D01*
X62090Y-32883D01*
X62339Y-32883D01*
X62574Y-32786D01*
X62754Y-32606D01*
X62852Y-32371D01*
X62852Y-32116D01*
X62755Y-31881D01*
X62575Y-31701D01*
X62340Y-31603D01*
X62216Y-31603D01*
X62362Y-31543D01*
X62500Y-31405D01*
X62637Y-31542D01*
X62872Y-31640D01*
X63127Y-31640D01*
X63362Y-31543D01*
X63500Y-31405D01*
X63637Y-31542D01*
X63872Y-31640D01*
X64127Y-31640D01*
X64362Y-31543D01*
X64500Y-31405D01*
X64637Y-31542D01*
X64872Y-31640D01*
X65127Y-31640D01*
X65362Y-31543D01*
X65542Y-31363D01*
X65570Y-31294D01*
X65574Y-31299D01*
X65648Y-31339D01*
X65987Y-31000D01*
X65648Y-30661D01*
X65574Y-30701D01*
X65571Y-30706D01*
X65543Y-30638D01*
X65477Y-30572D01*
X65703Y-30572D01*
X65701Y-30574D01*
X65661Y-30648D01*
X66000Y-30987D01*
X66339Y-30648D01*
X66299Y-30574D01*
X66294Y-30572D01*
X66428Y-30572D01*
X66428Y-30703D01*
X66426Y-30701D01*
X66352Y-30661D01*
X66013Y-31000D01*
X66352Y-31339D01*
X66426Y-31299D01*
X66428Y-31294D01*
X66428Y-31950D01*
X66339Y-31950D01*
X66339Y-31352D01*
X66000Y-31013D01*
X65661Y-31352D01*
X65701Y-31426D01*
X65886Y-31508D01*
X66089Y-31513D01*
X66279Y-31440D01*
X66299Y-31426D01*
X66339Y-31352D01*
X66339Y-31950D01*
X64979Y-31950D01*
X63450Y-33479D01*
X63450Y-34855D01*
X63406Y-34750D01*
X63302Y-34646D01*
X63165Y-34589D01*
X63017Y-34589D01*
X62880Y-34646D01*
X62776Y-34750D01*
X62719Y-34887D01*
X62719Y-35035D01*
X62776Y-35172D01*
X62792Y-35188D01*
X62738Y-35320D01*
X62738Y-35468D01*
X62795Y-35605D01*
X62850Y-35660D01*
X62776Y-35734D01*
X62719Y-35871D01*
X62719Y-36019D01*
X62776Y-36156D01*
X62821Y-36201D01*
X62776Y-36246D01*
X62719Y-36383D01*
X62719Y-36531D01*
X62776Y-36668D01*
X62880Y-36772D01*
X63017Y-36829D01*
X63165Y-36829D01*
X63302Y-36772D01*
X63406Y-36668D01*
X63450Y-36562D01*
X63450Y-37521D01*
X64979Y-39050D01*
X66428Y-39050D01*
X66428Y-39703D01*
X66426Y-39701D01*
X66352Y-39661D01*
X66339Y-39674D01*
X66339Y-39648D01*
X66299Y-39574D01*
X66114Y-39492D01*
X65911Y-39487D01*
X65721Y-39560D01*
X65701Y-39574D01*
X65661Y-39648D01*
X66000Y-39987D01*
X66339Y-39648D01*
X66339Y-39674D01*
X66013Y-40000D01*
X66352Y-40339D01*
X66426Y-40299D01*
X66428Y-40294D01*
X66428Y-40428D01*
X66428Y-40428D01*
G37*
G54D20*
X66428Y-40428D02*
X66296Y-40428D01*
X66299Y-40426D01*
X66339Y-40352D01*
X66000Y-40013D01*
X65661Y-40352D01*
X65701Y-40426D01*
X65705Y-40428D01*
X65477Y-40428D01*
X65542Y-40363D01*
X65570Y-40294D01*
X65574Y-40299D01*
X65648Y-40339D01*
X65987Y-40000D01*
X65648Y-39661D01*
X65574Y-39701D01*
X65571Y-39706D01*
X65543Y-39638D01*
X65363Y-39458D01*
X65128Y-39360D01*
X64873Y-39360D01*
X64638Y-39457D01*
X64500Y-39595D01*
X64363Y-39458D01*
X64128Y-39360D01*
X63873Y-39360D01*
X63638Y-39457D01*
X63500Y-39595D01*
X63447Y-39542D01*
X63513Y-38929D01*
X63511Y-38910D01*
X63513Y-38902D01*
X63508Y-38875D01*
X63503Y-38818D01*
X63494Y-38802D01*
X63493Y-38792D01*
X63472Y-38759D01*
X63451Y-38719D01*
X63441Y-38710D01*
X63433Y-38698D01*
X62933Y-38183D01*
X63024Y-38093D01*
X63081Y-37956D01*
X63081Y-37808D01*
X63024Y-37671D01*
X62920Y-37567D01*
X62783Y-37510D01*
X62635Y-37510D01*
X62498Y-37567D01*
X62394Y-37671D01*
X62337Y-37808D01*
X62337Y-37927D01*
X62019Y-37871D01*
X61996Y-37871D01*
X61976Y-37867D01*
X61927Y-37865D01*
X61927Y-34739D01*
X61927Y-34591D01*
X61870Y-34454D01*
X61766Y-34350D01*
X61629Y-34293D01*
X61481Y-34293D01*
X61344Y-34350D01*
X61240Y-34454D01*
X61183Y-34591D01*
X61183Y-34739D01*
X61240Y-34876D01*
X61344Y-34980D01*
X61481Y-35037D01*
X61629Y-35037D01*
X61766Y-34980D01*
X61870Y-34876D01*
X61927Y-34739D01*
X61927Y-37865D01*
X61770Y-37861D01*
X61770Y-36393D01*
X61770Y-36245D01*
X61713Y-36108D01*
X61609Y-36004D01*
X61472Y-35947D01*
X61415Y-35947D01*
X61415Y-35487D01*
X61415Y-35339D01*
X61358Y-35202D01*
X61254Y-35098D01*
X61117Y-35041D01*
X60969Y-35041D01*
X60832Y-35098D01*
X60728Y-35202D01*
X60671Y-35339D01*
X60671Y-35487D01*
X60728Y-35624D01*
X60832Y-35728D01*
X60969Y-35785D01*
X61117Y-35785D01*
X61254Y-35728D01*
X61358Y-35624D01*
X61415Y-35487D01*
X61415Y-35947D01*
X61324Y-35947D01*
X61187Y-36004D01*
X61083Y-36108D01*
X61026Y-36245D01*
X61026Y-36393D01*
X61083Y-36530D01*
X61187Y-36634D01*
X61324Y-36691D01*
X61472Y-36691D01*
X61609Y-36634D01*
X61713Y-36530D01*
X61770Y-36393D01*
X61770Y-37861D01*
X61612Y-37856D01*
X61612Y-37476D01*
X61612Y-37328D01*
X61555Y-37191D01*
X61451Y-37087D01*
X61314Y-37030D01*
X61166Y-37030D01*
X61029Y-37087D01*
X60925Y-37191D01*
X60868Y-37328D01*
X60868Y-37476D01*
X60925Y-37613D01*
X61029Y-37717D01*
X61166Y-37774D01*
X61314Y-37774D01*
X61451Y-37717D01*
X61555Y-37613D01*
X61612Y-37476D01*
X61612Y-37856D01*
X60884Y-37836D01*
X60884Y-37761D01*
X60827Y-37624D01*
X60723Y-37520D01*
X60586Y-37463D01*
X60438Y-37463D01*
X60301Y-37520D01*
X60237Y-37583D01*
X59663Y-37120D01*
X59654Y-37115D01*
X59650Y-37111D01*
X59611Y-37093D01*
X59564Y-37069D01*
X59556Y-37068D01*
X59549Y-37065D01*
X58892Y-36908D01*
X58797Y-36878D01*
X58797Y-35889D01*
X58797Y-35741D01*
X58740Y-35604D01*
X58636Y-35500D01*
X58499Y-35443D01*
X58351Y-35443D01*
X58214Y-35500D01*
X58110Y-35604D01*
X58053Y-35741D01*
X58053Y-35889D01*
X58110Y-36026D01*
X58214Y-36130D01*
X58351Y-36187D01*
X58499Y-36187D01*
X58636Y-36130D01*
X58740Y-36026D01*
X58797Y-35889D01*
X58797Y-36878D01*
X57986Y-36630D01*
X57982Y-36620D01*
X57878Y-36516D01*
X57741Y-36459D01*
X57593Y-36459D01*
X57505Y-36495D01*
X57417Y-36459D01*
X57269Y-36459D01*
X57132Y-36516D01*
X57028Y-36620D01*
X56971Y-36757D01*
X56971Y-36905D01*
X57028Y-37042D01*
X57132Y-37146D01*
X57269Y-37203D01*
X57417Y-37203D01*
X57505Y-37166D01*
X57593Y-37203D01*
X57741Y-37203D01*
X57810Y-37174D01*
X58453Y-37372D01*
X58317Y-37429D01*
X58213Y-37533D01*
X58156Y-37670D01*
X58156Y-37818D01*
X58213Y-37955D01*
X58317Y-38059D01*
X58454Y-38116D01*
X58602Y-38116D01*
X58739Y-38059D01*
X58843Y-37955D01*
X58896Y-37826D01*
X59037Y-37721D01*
X59154Y-37735D01*
X60212Y-38607D01*
X60246Y-38625D01*
X60273Y-38645D01*
X60280Y-38646D01*
X60285Y-38650D01*
X60297Y-38652D01*
X60310Y-38659D01*
X60341Y-38662D01*
X60381Y-38672D01*
X60394Y-38672D01*
X61855Y-38740D01*
X61834Y-38762D01*
X61844Y-38772D01*
X61839Y-38778D01*
X61824Y-38798D01*
X61812Y-38881D01*
X62076Y-39004D01*
X62113Y-39041D01*
X61813Y-38901D01*
X61779Y-38872D01*
X61636Y-38827D01*
X58207Y-38448D01*
X58207Y-38332D01*
X58150Y-38195D01*
X58046Y-38091D01*
X57909Y-38034D01*
X57761Y-38034D01*
X57624Y-38091D01*
X57520Y-38195D01*
X57463Y-38332D01*
X57463Y-38333D01*
X57222Y-38279D01*
X57222Y-37680D01*
X57222Y-37532D01*
X57165Y-37395D01*
X57061Y-37291D01*
X56924Y-37234D01*
X56776Y-37234D01*
X56639Y-37291D01*
X56535Y-37395D01*
X56478Y-37532D01*
X56478Y-37680D01*
X56535Y-37817D01*
X56639Y-37921D01*
X56776Y-37978D01*
X56924Y-37978D01*
X57061Y-37921D01*
X57165Y-37817D01*
X57222Y-37680D01*
X57222Y-38279D01*
X56718Y-38167D01*
X56687Y-38166D01*
X56660Y-38159D01*
X55886Y-38106D01*
X53918Y-36933D01*
X53773Y-36626D01*
X53769Y-36621D01*
X53769Y-36619D01*
X53739Y-36581D01*
X53684Y-36506D01*
X53679Y-36503D01*
X53677Y-36500D01*
X53609Y-36461D01*
X53554Y-36429D01*
X53550Y-36428D01*
X53546Y-36426D01*
X53134Y-36289D01*
X53100Y-36284D01*
X53090Y-36281D01*
X53172Y-36281D01*
X53309Y-36224D01*
X53413Y-36120D01*
X53470Y-35983D01*
X53470Y-35835D01*
X53416Y-35705D01*
X53390Y-35536D01*
X53518Y-35484D01*
X53593Y-35408D01*
X53817Y-35731D01*
X53864Y-35777D01*
X53897Y-35815D01*
X53910Y-35821D01*
X53925Y-35836D01*
X53981Y-35858D01*
X54030Y-35883D01*
X54171Y-35922D01*
X54136Y-36009D01*
X54136Y-36157D01*
X54193Y-36294D01*
X54297Y-36398D01*
X54434Y-36455D01*
X54582Y-36455D01*
X54588Y-36452D01*
X54608Y-36472D01*
X54745Y-36529D01*
X54893Y-36529D01*
X54960Y-36500D01*
X55076Y-36549D01*
X55224Y-36549D01*
X55361Y-36492D01*
X55465Y-36388D01*
X55504Y-36293D01*
X55558Y-36309D01*
X55580Y-37039D01*
X55593Y-37094D01*
X55593Y-37102D01*
X55596Y-37111D01*
X55614Y-37185D01*
X55646Y-37231D01*
X55650Y-37239D01*
X55657Y-37246D01*
X55658Y-37248D01*
X55634Y-37273D01*
X55577Y-37410D01*
X55577Y-37558D01*
X55634Y-37695D01*
X55738Y-37799D01*
X55875Y-37856D01*
X56023Y-37856D01*
X56160Y-37799D01*
X56264Y-37695D01*
X56321Y-37558D01*
X56321Y-37410D01*
X56264Y-37273D01*
X56259Y-37268D01*
X56273Y-37245D01*
X56280Y-37239D01*
X56284Y-37228D01*
X56325Y-37164D01*
X56334Y-37108D01*
X56337Y-37102D01*
X56337Y-37092D01*
X56350Y-37016D01*
X56320Y-36015D01*
X56372Y-35994D01*
X56476Y-35890D01*
X56533Y-35753D01*
X56533Y-35605D01*
X56476Y-35468D01*
X56372Y-35364D01*
X56235Y-35307D01*
X56087Y-35307D01*
X55950Y-35364D01*
X55846Y-35468D01*
X55800Y-35577D01*
X55711Y-35552D01*
X55711Y-35422D01*
X55685Y-35359D01*
X55754Y-35331D01*
X55797Y-35287D01*
X55800Y-35289D01*
X55948Y-35289D01*
X56085Y-35232D01*
X56189Y-35128D01*
X56246Y-34991D01*
X56246Y-34843D01*
X56189Y-34707D01*
X56273Y-34791D01*
X56410Y-34848D01*
X56558Y-34848D01*
X56695Y-34791D01*
X56799Y-34687D01*
X56856Y-34550D01*
X56856Y-34433D01*
X56909Y-34561D01*
X57013Y-34665D01*
X57150Y-34722D01*
X57298Y-34722D01*
X57435Y-34665D01*
X57539Y-34561D01*
X57596Y-34424D01*
X57596Y-34276D01*
X57539Y-34139D01*
X57490Y-34090D01*
X57490Y-33977D01*
X57433Y-33840D01*
X57329Y-33736D01*
X57192Y-33679D01*
X57084Y-33679D01*
X57087Y-33676D01*
X57144Y-33539D01*
X57144Y-33391D01*
X57087Y-33254D01*
X56983Y-33150D01*
X56846Y-33093D01*
X56698Y-33093D01*
X56636Y-33118D01*
X56692Y-32910D01*
X56693Y-32893D01*
X56699Y-32877D01*
X56696Y-32831D01*
X56699Y-32799D01*
X56694Y-32786D01*
X56694Y-32766D01*
X56515Y-32049D01*
X56858Y-32289D01*
X56913Y-32420D01*
X57017Y-32524D01*
X57154Y-32581D01*
X57302Y-32581D01*
X57439Y-32524D01*
X57499Y-32463D01*
X57535Y-32550D01*
X57639Y-32654D01*
X57776Y-32711D01*
X57924Y-32711D01*
X58061Y-32654D01*
X58163Y-32551D01*
X58225Y-32577D01*
X58373Y-32577D01*
X58510Y-32520D01*
X58591Y-32439D01*
X58704Y-32439D01*
X58841Y-32382D01*
X58885Y-32337D01*
X58887Y-32339D01*
X59024Y-32396D01*
X59172Y-32396D01*
X59309Y-32339D01*
X59355Y-32292D01*
X60216Y-32234D01*
X60246Y-32225D01*
X60286Y-32221D01*
X61144Y-31939D01*
X61144Y-32033D01*
X61201Y-32170D01*
X61305Y-32274D01*
X61442Y-32331D01*
X61572Y-32331D01*
X61572Y-32370D01*
X61596Y-32429D01*
X61521Y-32461D01*
X61417Y-32565D01*
X61360Y-32702D01*
X61360Y-32850D01*
X61385Y-32910D01*
X61348Y-32948D01*
X61291Y-33085D01*
X61291Y-33233D01*
X61348Y-33370D01*
X61452Y-33474D01*
X61589Y-33531D01*
X61737Y-33531D01*
X61874Y-33474D01*
X61978Y-33370D01*
X62035Y-33233D01*
X62035Y-33085D01*
X62009Y-33024D01*
X62047Y-32987D01*
X62090Y-32883D01*
X62339Y-32883D01*
X62574Y-32786D01*
X62754Y-32606D01*
X62852Y-32371D01*
X62852Y-32116D01*
X62755Y-31881D01*
X62575Y-31701D01*
X62340Y-31603D01*
X62216Y-31603D01*
X62362Y-31543D01*
X62500Y-31405D01*
X62637Y-31542D01*
X62872Y-31640D01*
X63127Y-31640D01*
X63362Y-31543D01*
X63500Y-31405D01*
X63637Y-31542D01*
X63872Y-31640D01*
X64127Y-31640D01*
X64362Y-31543D01*
X64500Y-31405D01*
X64637Y-31542D01*
X64872Y-31640D01*
X65127Y-31640D01*
X65362Y-31543D01*
X65542Y-31363D01*
X65570Y-31294D01*
X65574Y-31299D01*
X65648Y-31339D01*
X65987Y-31000D01*
X65648Y-30661D01*
X65574Y-30701D01*
X65571Y-30706D01*
X65543Y-30638D01*
X65477Y-30572D01*
X65703Y-30572D01*
X65701Y-30574D01*
X65661Y-30648D01*
X66000Y-30987D01*
X66339Y-30648D01*
X66299Y-30574D01*
X66294Y-30572D01*
X66428Y-30572D01*
X66428Y-30703D01*
X66426Y-30701D01*
X66352Y-30661D01*
X66013Y-31000D01*
X66352Y-31339D01*
X66426Y-31299D01*
X66428Y-31294D01*
X66428Y-31950D01*
X66339Y-31950D01*
X66339Y-31352D01*
X66000Y-31013D01*
X65661Y-31352D01*
X65701Y-31426D01*
X65886Y-31508D01*
X66089Y-31513D01*
X66279Y-31440D01*
X66299Y-31426D01*
X66339Y-31352D01*
X66339Y-31950D01*
X64979Y-31950D01*
X63450Y-33479D01*
X63450Y-34855D01*
X63406Y-34750D01*
X63302Y-34646D01*
X63165Y-34589D01*
X63017Y-34589D01*
X62880Y-34646D01*
X62776Y-34750D01*
X62719Y-34887D01*
X62719Y-35035D01*
X62776Y-35172D01*
X62792Y-35188D01*
X62738Y-35320D01*
X62738Y-35468D01*
X62795Y-35605D01*
X62850Y-35660D01*
X62776Y-35734D01*
X62719Y-35871D01*
X62719Y-36019D01*
X62776Y-36156D01*
X62821Y-36201D01*
X62776Y-36246D01*
X62719Y-36383D01*
X62719Y-36531D01*
X62776Y-36668D01*
X62880Y-36772D01*
X63017Y-36829D01*
X63165Y-36829D01*
X63302Y-36772D01*
X63406Y-36668D01*
X63450Y-36562D01*
X63450Y-37521D01*
X64979Y-39050D01*
X66428Y-39050D01*
X66428Y-39703D01*
X66426Y-39701D01*
X66352Y-39661D01*
X66339Y-39674D01*
X66339Y-39648D01*
X66299Y-39574D01*
X66114Y-39492D01*
X65911Y-39487D01*
X65721Y-39560D01*
X65701Y-39574D01*
X65661Y-39648D01*
X66000Y-39987D01*
X66339Y-39648D01*
X66339Y-39674D01*
X66013Y-40000D01*
X66352Y-40339D01*
X66426Y-40299D01*
X66428Y-40294D01*
X66428Y-40428D01*
M02*
