G04 (created by PCBNEW-RS274X (2011-05-25)-stable) date Mon 08 Dec 2014 09:37:15 GMT*
G01*
G70*
G90*
%MOIN*%
G04 Gerber Fmt 3.4, Leading zero omitted, Abs format*
%FSLAX34Y34*%
G04 APERTURE LIST*
%ADD10C,0.006000*%
%ADD11C,0.029800*%
%ADD12R,0.050000X0.040000*%
%ADD13R,0.045000X0.065000*%
%ADD14R,0.065000X0.045000*%
%ADD15C,0.098700*%
%ADD16O,0.094800X0.071200*%
%ADD17O,0.098300X0.071200*%
%ADD18R,0.060200X0.055400*%
%ADD19R,0.075100X0.067200*%
%ADD20R,0.055400X0.060200*%
%ADD21O,0.098700X0.059400*%
G04 APERTURE END LIST*
G54D10*
G36*
X59001Y-35702D02*
X59566Y-36267D01*
X59355Y-36478D01*
X58790Y-35913D01*
X59001Y-35702D01*
X59001Y-35702D01*
G37*
G54D11*
X59216Y-36407D02*
X58862Y-36053D01*
X59076Y-36546D02*
X58722Y-36192D01*
X58937Y-36685D02*
X58583Y-36331D01*
X58798Y-36825D02*
X58444Y-36471D01*
X58659Y-36963D02*
X58305Y-36609D01*
X58520Y-37103D02*
X58166Y-36749D01*
X58380Y-37242D02*
X58026Y-36888D01*
X58241Y-37381D02*
X57887Y-37027D01*
X58102Y-37520D02*
X57748Y-37166D01*
X57963Y-37660D02*
X57609Y-37306D01*
X57824Y-37798D02*
X57470Y-37444D01*
X57685Y-37938D02*
X57331Y-37584D01*
X57545Y-38077D02*
X57191Y-37723D01*
X57406Y-38216D02*
X57052Y-37862D01*
X57267Y-38356D02*
X56913Y-38002D01*
X56041Y-38046D02*
X55687Y-38400D01*
X55902Y-37907D02*
X55548Y-38261D01*
X55763Y-37767D02*
X55409Y-38121D01*
X55623Y-37628D02*
X55269Y-37982D01*
X55484Y-37489D02*
X55130Y-37843D01*
X55346Y-37350D02*
X54992Y-37704D01*
X55206Y-37211D02*
X54852Y-37565D01*
X55067Y-37072D02*
X54713Y-37426D01*
X54928Y-36932D02*
X54574Y-37286D01*
X54788Y-36793D02*
X54434Y-37147D01*
X54649Y-36654D02*
X54295Y-37008D01*
X54510Y-36515D02*
X54156Y-36869D01*
X54371Y-36376D02*
X54017Y-36730D01*
X54232Y-36237D02*
X53878Y-36591D01*
X54093Y-36097D02*
X53739Y-36451D01*
X53953Y-35958D02*
X53599Y-36312D01*
X53953Y-35042D02*
X53599Y-34688D01*
X54093Y-34903D02*
X53739Y-34549D01*
X54232Y-34763D02*
X53878Y-34409D01*
X54371Y-34624D02*
X54017Y-34270D01*
X54510Y-34485D02*
X54156Y-34131D01*
X54649Y-34346D02*
X54295Y-33992D01*
X54788Y-34207D02*
X54434Y-33853D01*
X54928Y-34068D02*
X54574Y-33714D01*
X55067Y-33928D02*
X54713Y-33574D01*
X55206Y-33789D02*
X54852Y-33435D01*
X55346Y-33650D02*
X54992Y-33296D01*
X55484Y-33511D02*
X55130Y-33157D01*
X55623Y-33372D02*
X55269Y-33018D01*
X55763Y-33233D02*
X55409Y-32879D01*
X55902Y-33093D02*
X55548Y-32739D01*
X56041Y-32954D02*
X55687Y-32600D01*
X57267Y-32644D02*
X56913Y-32998D01*
X57406Y-32784D02*
X57052Y-33138D01*
X57685Y-33062D02*
X57331Y-33416D01*
X57550Y-32918D02*
X57196Y-33272D01*
X57824Y-33202D02*
X57470Y-33556D01*
X57963Y-33340D02*
X57609Y-33694D01*
X58102Y-33480D02*
X57748Y-33834D01*
X58241Y-33619D02*
X57887Y-33973D01*
X58380Y-33758D02*
X58026Y-34112D01*
X58520Y-33897D02*
X58166Y-34251D01*
X58657Y-34035D02*
X58303Y-34389D01*
X58796Y-34174D02*
X58442Y-34528D01*
X58935Y-34313D02*
X58581Y-34667D01*
X59075Y-34453D02*
X58721Y-34807D01*
X59213Y-34591D02*
X58859Y-34945D01*
X59353Y-34730D02*
X58999Y-35084D01*
G54D12*
X61646Y-35820D03*
X61646Y-35070D03*
X62646Y-35820D03*
X61646Y-35445D03*
X62646Y-35070D03*
G54D10*
G36*
X53540Y-38180D02*
X53080Y-37720D01*
X53398Y-37402D01*
X53858Y-37862D01*
X53540Y-38180D01*
X53540Y-38180D01*
G37*
G36*
X53964Y-37756D02*
X53504Y-37296D01*
X53822Y-36978D01*
X54282Y-37438D01*
X53964Y-37756D01*
X53964Y-37756D01*
G37*
G54D13*
X60930Y-38878D03*
X60330Y-38878D03*
X51334Y-33720D03*
X51934Y-33720D03*
X52663Y-32165D03*
X53263Y-32165D03*
X51649Y-33051D03*
X52249Y-33051D03*
X50704Y-34350D03*
X51304Y-34350D03*
X60355Y-35370D03*
X59755Y-35370D03*
G54D14*
X51260Y-36117D03*
X51260Y-36717D03*
G54D13*
X59847Y-39016D03*
X59247Y-39016D03*
X60290Y-33091D03*
X59690Y-33091D03*
X54641Y-38724D03*
X55241Y-38724D03*
G54D14*
X52280Y-36204D03*
X52280Y-36804D03*
G54D13*
X54739Y-32185D03*
X55339Y-32185D03*
X60103Y-34035D03*
X59503Y-34035D03*
X56180Y-32441D03*
X56780Y-32441D03*
X53410Y-36815D03*
X52810Y-36815D03*
G54D14*
X58701Y-39040D03*
X58701Y-38440D03*
G54D15*
X66000Y-38000D03*
X66000Y-37000D03*
X66000Y-36000D03*
X66000Y-35000D03*
X66000Y-34000D03*
X66000Y-33000D03*
X47000Y-38000D03*
X47000Y-37000D03*
X47000Y-36000D03*
X47000Y-35000D03*
X47000Y-34000D03*
G54D16*
X48000Y-38000D03*
G54D17*
X48000Y-37000D03*
G54D15*
X48000Y-36000D03*
X48000Y-32500D03*
X47000Y-32500D03*
G54D18*
X49500Y-38146D03*
X49500Y-36854D03*
X50276Y-39189D03*
X50276Y-37897D03*
G54D13*
X58139Y-39016D03*
X57539Y-39016D03*
G54D15*
X47000Y-40000D03*
X48000Y-40000D03*
X49000Y-40000D03*
X50000Y-40000D03*
X51000Y-40000D03*
X52000Y-40000D03*
X53000Y-40000D03*
X54000Y-40000D03*
X55000Y-40000D03*
X56000Y-40000D03*
X57000Y-40000D03*
X58000Y-40000D03*
X59000Y-40000D03*
X60000Y-40000D03*
X61000Y-40000D03*
X62000Y-40000D03*
X63000Y-40000D03*
X64000Y-40000D03*
X65000Y-40000D03*
X66000Y-40000D03*
X47000Y-31000D03*
X48000Y-31000D03*
X49000Y-31000D03*
X50000Y-31000D03*
X51000Y-31000D03*
X52000Y-31000D03*
X53000Y-31000D03*
X54000Y-31000D03*
X55000Y-31000D03*
X56000Y-31000D03*
X57000Y-31000D03*
X58000Y-31000D03*
X59000Y-31000D03*
X60000Y-31000D03*
X61000Y-31000D03*
X62000Y-31000D03*
X63000Y-31000D03*
X64000Y-31000D03*
X65000Y-31000D03*
X66000Y-31000D03*
G54D19*
X59689Y-37921D03*
X60555Y-37173D03*
X59689Y-37173D03*
X60555Y-37921D03*
G54D15*
X65032Y-33269D03*
X62212Y-32243D03*
X65071Y-38070D03*
X62251Y-39096D03*
G54D20*
X49078Y-31929D03*
X50370Y-31929D03*
G54D13*
X64739Y-37185D03*
X65339Y-37185D03*
G54D14*
X65098Y-36599D03*
X65098Y-35999D03*
G54D13*
X65280Y-34016D03*
X64680Y-34016D03*
G54D14*
X65039Y-34759D03*
X65039Y-35359D03*
X49213Y-33716D03*
X49213Y-34316D03*
X49213Y-32613D03*
X49213Y-33213D03*
X49961Y-33716D03*
X49961Y-34316D03*
G54D21*
X56516Y-39291D03*
X52933Y-33543D03*
M02*
