G04 (created by PCBNEW-RS274X (2011-05-25)-stable) date Thu 12 Dec 2013 15:20:29 GMT*
G01*
G70*
G90*
%MOIN*%
G04 Gerber Fmt 3.4, Leading zero omitted, Abs format*
%FSLAX34Y34*%
G04 APERTURE LIST*
%ADD10C,0.006000*%
%ADD11C,0.015000*%
%ADD12C,0.007500*%
%ADD13C,0.005000*%
%ADD14C,0.012500*%
%ADD15C,0.012000*%
%ADD16C,0.008000*%
G04 APERTURE END LIST*
G54D10*
G54D11*
X49016Y-40354D02*
X49016Y-33661D01*
X65551Y-40354D02*
X49016Y-40354D01*
X65551Y-33661D02*
X65551Y-40354D01*
X49016Y-33661D02*
X65551Y-33661D01*
G54D12*
X58263Y-39621D02*
X58470Y-39621D01*
X58263Y-39883D01*
X58470Y-39883D01*
X58676Y-39883D02*
X58639Y-39865D01*
X58620Y-39846D01*
X58601Y-39808D01*
X58601Y-39696D01*
X58620Y-39658D01*
X58639Y-39640D01*
X58676Y-39621D01*
X58732Y-39621D01*
X58770Y-39640D01*
X58789Y-39658D01*
X58807Y-39696D01*
X58807Y-39808D01*
X58789Y-39846D01*
X58770Y-39865D01*
X58732Y-39883D01*
X58676Y-39883D01*
X59032Y-39883D02*
X58995Y-39865D01*
X58976Y-39846D01*
X58957Y-39808D01*
X58957Y-39696D01*
X58976Y-39658D01*
X58995Y-39640D01*
X59032Y-39621D01*
X59088Y-39621D01*
X59126Y-39640D01*
X59145Y-39658D01*
X59163Y-39696D01*
X59163Y-39808D01*
X59145Y-39846D01*
X59126Y-39865D01*
X59088Y-39883D01*
X59032Y-39883D01*
X59332Y-39883D02*
X59332Y-39621D01*
X59332Y-39658D02*
X59351Y-39640D01*
X59388Y-39621D01*
X59444Y-39621D01*
X59482Y-39640D01*
X59501Y-39677D01*
X59501Y-39883D01*
X59501Y-39677D02*
X59519Y-39640D01*
X59557Y-39621D01*
X59613Y-39621D01*
X59651Y-39640D01*
X59670Y-39677D01*
X59670Y-39883D01*
X59819Y-39621D02*
X59894Y-39883D01*
X59969Y-39696D01*
X60044Y-39883D01*
X60119Y-39621D01*
X60326Y-39883D02*
X60289Y-39865D01*
X60270Y-39846D01*
X60251Y-39808D01*
X60251Y-39696D01*
X60270Y-39658D01*
X60289Y-39640D01*
X60326Y-39621D01*
X60382Y-39621D01*
X60420Y-39640D01*
X60439Y-39658D01*
X60457Y-39696D01*
X60457Y-39808D01*
X60439Y-39846D01*
X60420Y-39865D01*
X60382Y-39883D01*
X60326Y-39883D01*
X60626Y-39883D02*
X60626Y-39621D01*
X60626Y-39696D02*
X60645Y-39658D01*
X60663Y-39640D01*
X60701Y-39621D01*
X60738Y-39621D01*
X60870Y-39883D02*
X60870Y-39489D01*
X60907Y-39733D02*
X61020Y-39883D01*
X61020Y-39621D02*
X60870Y-39771D01*
X61170Y-39865D02*
X61208Y-39883D01*
X61283Y-39883D01*
X61320Y-39865D01*
X61339Y-39827D01*
X61339Y-39808D01*
X61320Y-39771D01*
X61283Y-39752D01*
X61226Y-39752D01*
X61189Y-39733D01*
X61170Y-39696D01*
X61170Y-39677D01*
X61189Y-39640D01*
X61226Y-39621D01*
X61283Y-39621D01*
X61320Y-39640D01*
X61977Y-39883D02*
X61977Y-39677D01*
X61958Y-39640D01*
X61920Y-39621D01*
X61845Y-39621D01*
X61808Y-39640D01*
X61977Y-39865D02*
X61939Y-39883D01*
X61845Y-39883D01*
X61808Y-39865D01*
X61789Y-39827D01*
X61789Y-39790D01*
X61808Y-39752D01*
X61845Y-39733D01*
X61939Y-39733D01*
X61977Y-39715D01*
X62164Y-39883D02*
X62164Y-39621D01*
X62164Y-39489D02*
X62145Y-39508D01*
X62164Y-39527D01*
X62183Y-39508D01*
X62164Y-39489D01*
X62164Y-39527D01*
X62352Y-39883D02*
X62352Y-39621D01*
X62352Y-39696D02*
X62371Y-39658D01*
X62389Y-39640D01*
X62427Y-39621D01*
X62464Y-39621D01*
X62840Y-39489D02*
X62971Y-39883D01*
X63102Y-39489D01*
X63440Y-39883D02*
X63215Y-39883D01*
X63328Y-39883D02*
X63328Y-39489D01*
X63290Y-39546D01*
X63253Y-39583D01*
X63215Y-39602D01*
X63609Y-39846D02*
X63628Y-39865D01*
X63609Y-39883D01*
X63590Y-39865D01*
X63609Y-39846D01*
X63609Y-39883D01*
X63872Y-39489D02*
X63909Y-39489D01*
X63947Y-39508D01*
X63966Y-39527D01*
X63984Y-39565D01*
X64003Y-39640D01*
X64003Y-39733D01*
X63984Y-39808D01*
X63966Y-39846D01*
X63947Y-39865D01*
X63909Y-39883D01*
X63872Y-39883D01*
X63834Y-39865D01*
X63816Y-39846D01*
X63797Y-39808D01*
X63778Y-39733D01*
X63778Y-39640D01*
X63797Y-39565D01*
X63816Y-39527D01*
X63834Y-39508D01*
X63872Y-39489D01*
X63683Y-36829D02*
X63540Y-36829D01*
X63526Y-36972D01*
X63540Y-36958D01*
X63569Y-36944D01*
X63640Y-36944D01*
X63669Y-36958D01*
X63683Y-36972D01*
X63698Y-37001D01*
X63698Y-37072D01*
X63683Y-37101D01*
X63669Y-37115D01*
X63640Y-37129D01*
X63569Y-37129D01*
X63540Y-37115D01*
X63526Y-37101D01*
X63784Y-36829D02*
X63884Y-37129D01*
X63984Y-36829D01*
X63619Y-36696D02*
X63519Y-36554D01*
X63447Y-36696D02*
X63447Y-36396D01*
X63562Y-36396D01*
X63590Y-36411D01*
X63605Y-36425D01*
X63619Y-36454D01*
X63619Y-36496D01*
X63605Y-36525D01*
X63590Y-36539D01*
X63562Y-36554D01*
X63447Y-36554D01*
X63719Y-36396D02*
X63919Y-36696D01*
X63919Y-36396D02*
X63719Y-36696D01*
X64033Y-36696D02*
X64033Y-36396D01*
X63316Y-35372D02*
X63487Y-35372D01*
X63401Y-35672D02*
X63401Y-35372D01*
X63559Y-35372D02*
X63759Y-35672D01*
X63759Y-35372D02*
X63559Y-35672D01*
X63931Y-35372D02*
X63988Y-35372D01*
X64016Y-35387D01*
X64045Y-35415D01*
X64059Y-35472D01*
X64059Y-35572D01*
X64045Y-35630D01*
X64016Y-35658D01*
X63988Y-35672D01*
X63931Y-35672D01*
X63902Y-35658D01*
X63873Y-35630D01*
X63859Y-35572D01*
X63859Y-35472D01*
X63873Y-35415D01*
X63902Y-35387D01*
X63931Y-35372D01*
X50791Y-39799D02*
X50791Y-39899D01*
X50948Y-39899D02*
X50648Y-39899D01*
X50648Y-39756D01*
X50948Y-39642D02*
X50748Y-39642D01*
X50806Y-39642D02*
X50777Y-39627D01*
X50763Y-39613D01*
X50748Y-39584D01*
X50748Y-39556D01*
X50934Y-39470D02*
X50948Y-39427D01*
X50948Y-39356D01*
X50934Y-39327D01*
X50920Y-39313D01*
X50891Y-39298D01*
X50863Y-39298D01*
X50834Y-39313D01*
X50820Y-39327D01*
X50806Y-39356D01*
X50791Y-39413D01*
X50777Y-39441D01*
X50763Y-39456D01*
X50734Y-39470D01*
X50706Y-39470D01*
X50677Y-39456D01*
X50663Y-39441D01*
X50648Y-39413D01*
X50648Y-39341D01*
X50663Y-39298D01*
X50948Y-39170D02*
X50648Y-39170D01*
X50834Y-39141D02*
X50948Y-39055D01*
X50748Y-39055D02*
X50863Y-39170D01*
X50748Y-38955D02*
X50948Y-38884D01*
X50748Y-38812D02*
X50948Y-38884D01*
X51020Y-38912D01*
X51034Y-38927D01*
X51048Y-38955D01*
X50823Y-36241D02*
X50823Y-36098D01*
X50908Y-36269D02*
X50608Y-36169D01*
X50908Y-36069D01*
X50751Y-35870D02*
X50751Y-35970D01*
X50908Y-35970D02*
X50608Y-35970D01*
X50608Y-35827D01*
X50894Y-35727D02*
X50908Y-35684D01*
X50908Y-35613D01*
X50894Y-35584D01*
X50880Y-35570D01*
X50851Y-35555D01*
X50823Y-35555D01*
X50794Y-35570D01*
X50780Y-35584D01*
X50766Y-35613D01*
X50751Y-35670D01*
X50737Y-35698D01*
X50723Y-35713D01*
X50694Y-35727D01*
X50666Y-35727D01*
X50637Y-35713D01*
X50623Y-35698D01*
X50608Y-35670D01*
X50608Y-35598D01*
X50623Y-35555D01*
X50908Y-35427D02*
X50608Y-35427D01*
X50908Y-35255D02*
X50737Y-35384D01*
X50608Y-35255D02*
X50780Y-35427D01*
X50623Y-38417D02*
X50608Y-38446D01*
X50608Y-38489D01*
X50623Y-38532D01*
X50651Y-38560D01*
X50680Y-38575D01*
X50737Y-38589D01*
X50780Y-38589D01*
X50837Y-38575D01*
X50866Y-38560D01*
X50894Y-38532D01*
X50908Y-38489D01*
X50908Y-38460D01*
X50894Y-38417D01*
X50880Y-38403D01*
X50780Y-38403D01*
X50780Y-38460D01*
X50908Y-38275D02*
X50608Y-38275D01*
X50908Y-38103D01*
X50608Y-38103D01*
X50908Y-37961D02*
X50608Y-37961D01*
X50608Y-37889D01*
X50623Y-37846D01*
X50651Y-37818D01*
X50680Y-37803D01*
X50737Y-37789D01*
X50780Y-37789D01*
X50837Y-37803D01*
X50866Y-37818D01*
X50894Y-37846D01*
X50908Y-37889D01*
X50908Y-37961D01*
X50584Y-34795D02*
X50569Y-34824D01*
X50569Y-34867D01*
X50584Y-34910D01*
X50612Y-34938D01*
X50641Y-34953D01*
X50698Y-34967D01*
X50741Y-34967D01*
X50798Y-34953D01*
X50827Y-34938D01*
X50855Y-34910D01*
X50869Y-34867D01*
X50869Y-34838D01*
X50855Y-34795D01*
X50841Y-34781D01*
X50741Y-34781D01*
X50741Y-34838D01*
X50869Y-34653D02*
X50569Y-34653D01*
X50869Y-34481D01*
X50569Y-34481D01*
X50869Y-34339D02*
X50569Y-34339D01*
X50569Y-34267D01*
X50584Y-34224D01*
X50612Y-34196D01*
X50641Y-34181D01*
X50698Y-34167D01*
X50741Y-34167D01*
X50798Y-34181D01*
X50827Y-34196D01*
X50855Y-34224D01*
X50869Y-34267D01*
X50869Y-34339D01*
X64378Y-38930D02*
X64349Y-38915D01*
X64306Y-38915D01*
X64263Y-38930D01*
X64235Y-38958D01*
X64220Y-38987D01*
X64206Y-39044D01*
X64206Y-39087D01*
X64220Y-39144D01*
X64235Y-39173D01*
X64263Y-39201D01*
X64306Y-39215D01*
X64335Y-39215D01*
X64378Y-39201D01*
X64392Y-39187D01*
X64392Y-39087D01*
X64335Y-39087D01*
X64520Y-39215D02*
X64520Y-38915D01*
X64692Y-39215D01*
X64692Y-38915D01*
X64834Y-39215D02*
X64834Y-38915D01*
X64906Y-38915D01*
X64949Y-38930D01*
X64977Y-38958D01*
X64992Y-38987D01*
X65006Y-39044D01*
X65006Y-39087D01*
X64992Y-39144D01*
X64977Y-39173D01*
X64949Y-39201D01*
X64906Y-39215D01*
X64834Y-39215D01*
G54D10*
X58200Y-38216D02*
X57750Y-38216D01*
X58200Y-36036D02*
X57760Y-36036D01*
X58200Y-38216D02*
X58200Y-36036D01*
X57320Y-38686D02*
X57320Y-39116D01*
X55110Y-38696D02*
X55110Y-39116D01*
X55100Y-39116D02*
X57320Y-39126D01*
X55120Y-35146D02*
X57290Y-35136D01*
X54690Y-35836D02*
X54690Y-38666D01*
X57300Y-35146D02*
X57300Y-35556D01*
X54940Y-35596D02*
X57720Y-35596D01*
X57740Y-38676D02*
X57740Y-35636D01*
X54690Y-38676D02*
X57690Y-38676D01*
X54240Y-36006D02*
X54240Y-38226D01*
X54240Y-38226D02*
X54690Y-38226D01*
X54694Y-35826D02*
X54924Y-35596D01*
X54242Y-36006D02*
X54694Y-36006D01*
X55120Y-35596D02*
X55120Y-35144D01*
X55290Y-36000D02*
X55286Y-36036D01*
X55275Y-36071D01*
X55258Y-36104D01*
X55235Y-36132D01*
X55207Y-36155D01*
X55174Y-36173D01*
X55139Y-36184D01*
X55103Y-36187D01*
X55067Y-36184D01*
X55032Y-36174D01*
X55000Y-36157D01*
X54971Y-36134D01*
X54947Y-36106D01*
X54930Y-36074D01*
X54919Y-36039D01*
X54915Y-36002D01*
X54918Y-35967D01*
X54928Y-35931D01*
X54944Y-35899D01*
X54967Y-35870D01*
X54995Y-35846D01*
X55027Y-35828D01*
X55062Y-35817D01*
X55099Y-35813D01*
X55134Y-35815D01*
X55169Y-35825D01*
X55202Y-35842D01*
X55231Y-35864D01*
X55255Y-35892D01*
X55273Y-35924D01*
X55285Y-35959D01*
X55289Y-35995D01*
X55290Y-36000D01*
G54D13*
X51896Y-37343D02*
X52796Y-37343D01*
X52796Y-37343D02*
X52796Y-36693D01*
X51896Y-35993D02*
X51896Y-35343D01*
X51896Y-35343D02*
X52796Y-35343D01*
X52796Y-35343D02*
X52796Y-35993D01*
X51896Y-36693D02*
X51896Y-37343D01*
X61527Y-38637D02*
X61526Y-38646D01*
X61523Y-38656D01*
X61518Y-38664D01*
X61512Y-38672D01*
X61504Y-38678D01*
X61496Y-38683D01*
X61487Y-38685D01*
X61477Y-38686D01*
X61468Y-38686D01*
X61459Y-38683D01*
X61450Y-38678D01*
X61443Y-38672D01*
X61436Y-38665D01*
X61432Y-38656D01*
X61429Y-38647D01*
X61428Y-38637D01*
X61428Y-38628D01*
X61431Y-38619D01*
X61435Y-38610D01*
X61442Y-38603D01*
X61449Y-38596D01*
X61457Y-38592D01*
X61467Y-38589D01*
X61476Y-38588D01*
X61485Y-38588D01*
X61495Y-38591D01*
X61503Y-38595D01*
X61511Y-38601D01*
X61517Y-38609D01*
X61522Y-38617D01*
X61525Y-38626D01*
X61526Y-38636D01*
X61527Y-38637D01*
X61027Y-38637D02*
X61427Y-38637D01*
X61427Y-38637D02*
X61427Y-39237D01*
X61427Y-39237D02*
X61027Y-39237D01*
X60627Y-39237D02*
X60227Y-39237D01*
X60227Y-39237D02*
X60227Y-38637D01*
X60227Y-38637D02*
X60627Y-38637D01*
X62707Y-36324D02*
X62706Y-36333D01*
X62703Y-36343D01*
X62698Y-36351D01*
X62692Y-36359D01*
X62684Y-36365D01*
X62676Y-36370D01*
X62667Y-36372D01*
X62657Y-36373D01*
X62648Y-36373D01*
X62639Y-36370D01*
X62630Y-36365D01*
X62623Y-36359D01*
X62616Y-36352D01*
X62612Y-36343D01*
X62609Y-36334D01*
X62608Y-36324D01*
X62608Y-36315D01*
X62611Y-36306D01*
X62615Y-36297D01*
X62622Y-36290D01*
X62629Y-36283D01*
X62637Y-36279D01*
X62647Y-36276D01*
X62656Y-36275D01*
X62665Y-36275D01*
X62675Y-36278D01*
X62683Y-36282D01*
X62691Y-36288D01*
X62697Y-36296D01*
X62702Y-36304D01*
X62705Y-36313D01*
X62706Y-36323D01*
X62707Y-36324D01*
X63107Y-36324D02*
X62707Y-36324D01*
X62707Y-36324D02*
X62707Y-35724D01*
X62707Y-35724D02*
X63107Y-35724D01*
X63507Y-35724D02*
X63907Y-35724D01*
X63907Y-35724D02*
X63907Y-36324D01*
X63907Y-36324D02*
X63507Y-36324D01*
X53456Y-38283D02*
X53455Y-38292D01*
X53452Y-38302D01*
X53447Y-38310D01*
X53441Y-38318D01*
X53433Y-38324D01*
X53425Y-38329D01*
X53416Y-38331D01*
X53406Y-38332D01*
X53397Y-38332D01*
X53388Y-38329D01*
X53379Y-38324D01*
X53372Y-38318D01*
X53365Y-38311D01*
X53361Y-38302D01*
X53358Y-38293D01*
X53357Y-38283D01*
X53357Y-38274D01*
X53360Y-38265D01*
X53364Y-38256D01*
X53371Y-38249D01*
X53378Y-38242D01*
X53386Y-38238D01*
X53396Y-38235D01*
X53405Y-38234D01*
X53414Y-38234D01*
X53424Y-38237D01*
X53432Y-38241D01*
X53440Y-38247D01*
X53446Y-38255D01*
X53451Y-38263D01*
X53454Y-38272D01*
X53455Y-38282D01*
X53456Y-38283D01*
X52956Y-38283D02*
X53356Y-38283D01*
X53356Y-38283D02*
X53356Y-38883D01*
X53356Y-38883D02*
X52956Y-38883D01*
X52556Y-38883D02*
X52156Y-38883D01*
X52156Y-38883D02*
X52156Y-38283D01*
X52156Y-38283D02*
X52556Y-38283D01*
X62584Y-36712D02*
X62583Y-36721D01*
X62580Y-36731D01*
X62575Y-36739D01*
X62569Y-36747D01*
X62561Y-36753D01*
X62553Y-36758D01*
X62544Y-36760D01*
X62534Y-36761D01*
X62525Y-36761D01*
X62516Y-36758D01*
X62507Y-36753D01*
X62500Y-36747D01*
X62493Y-36740D01*
X62489Y-36731D01*
X62486Y-36722D01*
X62485Y-36712D01*
X62485Y-36703D01*
X62488Y-36694D01*
X62492Y-36685D01*
X62499Y-36678D01*
X62506Y-36671D01*
X62514Y-36667D01*
X62524Y-36664D01*
X62533Y-36663D01*
X62542Y-36663D01*
X62552Y-36666D01*
X62560Y-36670D01*
X62568Y-36676D01*
X62574Y-36684D01*
X62579Y-36692D01*
X62582Y-36701D01*
X62583Y-36711D01*
X62584Y-36712D01*
X62534Y-37162D02*
X62534Y-36762D01*
X62534Y-36762D02*
X63134Y-36762D01*
X63134Y-36762D02*
X63134Y-37162D01*
X63134Y-37562D02*
X63134Y-37962D01*
X63134Y-37962D02*
X62534Y-37962D01*
X62534Y-37962D02*
X62534Y-37562D01*
X49711Y-35885D02*
X49710Y-35894D01*
X49707Y-35904D01*
X49702Y-35912D01*
X49696Y-35920D01*
X49688Y-35926D01*
X49680Y-35931D01*
X49671Y-35933D01*
X49661Y-35934D01*
X49652Y-35934D01*
X49643Y-35931D01*
X49634Y-35926D01*
X49627Y-35920D01*
X49620Y-35913D01*
X49616Y-35904D01*
X49613Y-35895D01*
X49612Y-35885D01*
X49612Y-35876D01*
X49615Y-35867D01*
X49619Y-35858D01*
X49626Y-35851D01*
X49633Y-35844D01*
X49641Y-35840D01*
X49651Y-35837D01*
X49660Y-35836D01*
X49669Y-35836D01*
X49679Y-35839D01*
X49687Y-35843D01*
X49695Y-35849D01*
X49701Y-35857D01*
X49706Y-35865D01*
X49709Y-35874D01*
X49710Y-35884D01*
X49711Y-35885D01*
X49661Y-36335D02*
X49661Y-35935D01*
X49661Y-35935D02*
X50261Y-35935D01*
X50261Y-35935D02*
X50261Y-36335D01*
X50261Y-36735D02*
X50261Y-37135D01*
X50261Y-37135D02*
X49661Y-37135D01*
X49661Y-37135D02*
X49661Y-36735D01*
X52156Y-39670D02*
X52155Y-39679D01*
X52152Y-39689D01*
X52147Y-39697D01*
X52141Y-39705D01*
X52133Y-39711D01*
X52125Y-39716D01*
X52116Y-39718D01*
X52106Y-39719D01*
X52097Y-39719D01*
X52088Y-39716D01*
X52079Y-39711D01*
X52072Y-39705D01*
X52065Y-39698D01*
X52061Y-39689D01*
X52058Y-39680D01*
X52057Y-39670D01*
X52057Y-39661D01*
X52060Y-39652D01*
X52064Y-39643D01*
X52071Y-39636D01*
X52078Y-39629D01*
X52086Y-39625D01*
X52096Y-39622D01*
X52105Y-39621D01*
X52114Y-39621D01*
X52124Y-39624D01*
X52132Y-39628D01*
X52140Y-39634D01*
X52146Y-39642D01*
X52151Y-39650D01*
X52154Y-39659D01*
X52155Y-39669D01*
X52156Y-39670D01*
X52556Y-39670D02*
X52156Y-39670D01*
X52156Y-39670D02*
X52156Y-39070D01*
X52156Y-39070D02*
X52556Y-39070D01*
X52956Y-39070D02*
X53356Y-39070D01*
X53356Y-39070D02*
X53356Y-39670D01*
X53356Y-39670D02*
X52956Y-39670D01*
X52039Y-38283D02*
X52038Y-38292D01*
X52035Y-38302D01*
X52030Y-38310D01*
X52024Y-38318D01*
X52016Y-38324D01*
X52008Y-38329D01*
X51999Y-38331D01*
X51989Y-38332D01*
X51980Y-38332D01*
X51971Y-38329D01*
X51962Y-38324D01*
X51955Y-38318D01*
X51948Y-38311D01*
X51944Y-38302D01*
X51941Y-38293D01*
X51940Y-38283D01*
X51940Y-38274D01*
X51943Y-38265D01*
X51947Y-38256D01*
X51954Y-38249D01*
X51961Y-38242D01*
X51969Y-38238D01*
X51979Y-38235D01*
X51988Y-38234D01*
X51997Y-38234D01*
X52007Y-38237D01*
X52015Y-38241D01*
X52023Y-38247D01*
X52029Y-38255D01*
X52034Y-38263D01*
X52037Y-38272D01*
X52038Y-38282D01*
X52039Y-38283D01*
X51539Y-38283D02*
X51939Y-38283D01*
X51939Y-38283D02*
X51939Y-38883D01*
X51939Y-38883D02*
X51539Y-38883D01*
X51139Y-38883D02*
X50739Y-38883D01*
X50739Y-38883D02*
X50739Y-38283D01*
X50739Y-38283D02*
X51139Y-38283D01*
X51649Y-37815D02*
X51648Y-37824D01*
X51645Y-37834D01*
X51640Y-37842D01*
X51634Y-37850D01*
X51626Y-37856D01*
X51618Y-37861D01*
X51609Y-37863D01*
X51599Y-37864D01*
X51590Y-37864D01*
X51581Y-37861D01*
X51572Y-37856D01*
X51565Y-37850D01*
X51558Y-37843D01*
X51554Y-37834D01*
X51551Y-37825D01*
X51550Y-37815D01*
X51550Y-37806D01*
X51553Y-37797D01*
X51557Y-37788D01*
X51564Y-37781D01*
X51571Y-37774D01*
X51579Y-37770D01*
X51589Y-37767D01*
X51598Y-37766D01*
X51607Y-37766D01*
X51617Y-37769D01*
X51625Y-37773D01*
X51633Y-37779D01*
X51639Y-37787D01*
X51644Y-37795D01*
X51647Y-37804D01*
X51648Y-37814D01*
X51649Y-37815D01*
X51599Y-37365D02*
X51599Y-37765D01*
X51599Y-37765D02*
X50999Y-37765D01*
X50999Y-37765D02*
X50999Y-37365D01*
X50999Y-36965D02*
X50999Y-36565D01*
X50999Y-36565D02*
X51599Y-36565D01*
X51599Y-36565D02*
X51599Y-36965D01*
X51049Y-35177D02*
X51048Y-35186D01*
X51045Y-35196D01*
X51040Y-35204D01*
X51034Y-35212D01*
X51026Y-35218D01*
X51018Y-35223D01*
X51009Y-35225D01*
X50999Y-35226D01*
X50990Y-35226D01*
X50981Y-35223D01*
X50972Y-35218D01*
X50965Y-35212D01*
X50958Y-35205D01*
X50954Y-35196D01*
X50951Y-35187D01*
X50950Y-35177D01*
X50950Y-35168D01*
X50953Y-35159D01*
X50957Y-35150D01*
X50964Y-35143D01*
X50971Y-35136D01*
X50979Y-35132D01*
X50989Y-35129D01*
X50998Y-35128D01*
X51007Y-35128D01*
X51017Y-35131D01*
X51025Y-35135D01*
X51033Y-35141D01*
X51039Y-35149D01*
X51044Y-35157D01*
X51047Y-35166D01*
X51048Y-35176D01*
X51049Y-35177D01*
X50999Y-35627D02*
X50999Y-35227D01*
X50999Y-35227D02*
X51599Y-35227D01*
X51599Y-35227D02*
X51599Y-35627D01*
X51599Y-36027D02*
X51599Y-36427D01*
X51599Y-36427D02*
X50999Y-36427D01*
X50999Y-36427D02*
X50999Y-36027D01*
X63372Y-37145D02*
X63371Y-37154D01*
X63368Y-37164D01*
X63363Y-37172D01*
X63357Y-37180D01*
X63349Y-37186D01*
X63341Y-37191D01*
X63332Y-37193D01*
X63322Y-37194D01*
X63313Y-37194D01*
X63304Y-37191D01*
X63295Y-37186D01*
X63288Y-37180D01*
X63281Y-37173D01*
X63277Y-37164D01*
X63274Y-37155D01*
X63273Y-37145D01*
X63273Y-37136D01*
X63276Y-37127D01*
X63280Y-37118D01*
X63287Y-37111D01*
X63294Y-37104D01*
X63302Y-37100D01*
X63312Y-37097D01*
X63321Y-37096D01*
X63330Y-37096D01*
X63340Y-37099D01*
X63348Y-37103D01*
X63356Y-37109D01*
X63362Y-37117D01*
X63367Y-37125D01*
X63370Y-37134D01*
X63371Y-37144D01*
X63372Y-37145D01*
X63322Y-37595D02*
X63322Y-37195D01*
X63322Y-37195D02*
X63922Y-37195D01*
X63922Y-37195D02*
X63922Y-37595D01*
X63922Y-37995D02*
X63922Y-38395D01*
X63922Y-38395D02*
X63322Y-38395D01*
X63322Y-38395D02*
X63322Y-37995D01*
X59558Y-38794D02*
X59557Y-38803D01*
X59554Y-38813D01*
X59549Y-38821D01*
X59543Y-38829D01*
X59535Y-38835D01*
X59527Y-38840D01*
X59518Y-38842D01*
X59508Y-38843D01*
X59499Y-38843D01*
X59490Y-38840D01*
X59481Y-38835D01*
X59474Y-38829D01*
X59467Y-38822D01*
X59463Y-38813D01*
X59460Y-38804D01*
X59459Y-38794D01*
X59459Y-38785D01*
X59462Y-38776D01*
X59466Y-38767D01*
X59473Y-38760D01*
X59480Y-38753D01*
X59488Y-38749D01*
X59498Y-38746D01*
X59507Y-38745D01*
X59516Y-38745D01*
X59526Y-38748D01*
X59534Y-38752D01*
X59542Y-38758D01*
X59548Y-38766D01*
X59553Y-38774D01*
X59556Y-38783D01*
X59557Y-38793D01*
X59558Y-38794D01*
X59058Y-38794D02*
X59458Y-38794D01*
X59458Y-38794D02*
X59458Y-39394D01*
X59458Y-39394D02*
X59058Y-39394D01*
X58658Y-39394D02*
X58258Y-39394D01*
X58258Y-39394D02*
X58258Y-38794D01*
X58258Y-38794D02*
X58658Y-38794D01*
X61565Y-39237D02*
X61564Y-39246D01*
X61561Y-39256D01*
X61556Y-39264D01*
X61550Y-39272D01*
X61542Y-39278D01*
X61534Y-39283D01*
X61525Y-39285D01*
X61515Y-39286D01*
X61506Y-39286D01*
X61497Y-39283D01*
X61488Y-39278D01*
X61481Y-39272D01*
X61474Y-39265D01*
X61470Y-39256D01*
X61467Y-39247D01*
X61466Y-39237D01*
X61466Y-39228D01*
X61469Y-39219D01*
X61473Y-39210D01*
X61480Y-39203D01*
X61487Y-39196D01*
X61495Y-39192D01*
X61505Y-39189D01*
X61514Y-39188D01*
X61523Y-39188D01*
X61533Y-39191D01*
X61541Y-39195D01*
X61549Y-39201D01*
X61555Y-39209D01*
X61560Y-39217D01*
X61563Y-39226D01*
X61564Y-39236D01*
X61565Y-39237D01*
X61965Y-39237D02*
X61565Y-39237D01*
X61565Y-39237D02*
X61565Y-38637D01*
X61565Y-38637D02*
X61965Y-38637D01*
X62365Y-38637D02*
X62765Y-38637D01*
X62765Y-38637D02*
X62765Y-39237D01*
X62765Y-39237D02*
X62365Y-39237D01*
G54D14*
X51902Y-38295D02*
X52902Y-38295D01*
X51902Y-37295D02*
X52902Y-37295D01*
G54D15*
X51902Y-38295D02*
X51902Y-37295D01*
X52902Y-37295D02*
X52902Y-38295D01*
G54D14*
X63240Y-34949D02*
X64240Y-34949D01*
X63240Y-33949D02*
X64240Y-33949D01*
G54D15*
X63240Y-34949D02*
X63240Y-33949D01*
X64240Y-33949D02*
X64240Y-34949D01*
G54D14*
X61980Y-34988D02*
X62980Y-34988D01*
X61980Y-33988D02*
X62980Y-33988D01*
G54D15*
X61980Y-34988D02*
X61980Y-33988D01*
X62980Y-33988D02*
X62980Y-34988D01*
G54D14*
X58760Y-38756D02*
X59760Y-38756D01*
X58760Y-37756D02*
X59760Y-37756D01*
G54D15*
X58760Y-38756D02*
X58760Y-37756D01*
X59760Y-37756D02*
X59760Y-38756D01*
G54D14*
X52398Y-34961D02*
X53398Y-34961D01*
X52398Y-33961D02*
X53398Y-33961D01*
G54D15*
X52398Y-34961D02*
X52398Y-33961D01*
X53398Y-33961D02*
X53398Y-34961D01*
G54D16*
X59427Y-36584D02*
X59427Y-37784D01*
X59427Y-37784D02*
X62227Y-37784D01*
X62227Y-37784D02*
X62227Y-36584D01*
X59427Y-35384D02*
X59427Y-35084D01*
X59427Y-35084D02*
X60027Y-34184D01*
X60027Y-34184D02*
X61627Y-34184D01*
X61627Y-34184D02*
X62227Y-35084D01*
X62227Y-35084D02*
X62227Y-35384D01*
G54D15*
X64106Y-38811D02*
X64106Y-38811D01*
X65106Y-38811D02*
X64106Y-38811D01*
X64106Y-38811D02*
X64106Y-38811D01*
X64106Y-38811D02*
X64106Y-34811D01*
X64106Y-34811D02*
X65106Y-34811D01*
X65106Y-34811D02*
X65106Y-38811D01*
X65106Y-37811D02*
X64106Y-37811D01*
X49461Y-34079D02*
X50461Y-34079D01*
X50461Y-34079D02*
X50461Y-36079D01*
X50461Y-36079D02*
X49461Y-36079D01*
X49461Y-36079D02*
X49461Y-34079D01*
X49461Y-37898D02*
X50461Y-37898D01*
X50461Y-37898D02*
X50461Y-39898D01*
X50461Y-39898D02*
X49461Y-39898D01*
X49461Y-39898D02*
X49461Y-37898D01*
G54D14*
X58713Y-37626D02*
X59713Y-37626D01*
X58713Y-36626D02*
X59713Y-36626D01*
G54D15*
X58713Y-37626D02*
X58713Y-36626D01*
X59713Y-36626D02*
X59713Y-37626D01*
M02*
