G04 (created by PCBNEW-RS274X (2011-05-25)-stable) date Thu 12 Dec 2013 15:20:29 GMT*
G01*
G70*
G90*
%MOIN*%
G04 Gerber Fmt 3.4, Leading zero omitted, Abs format*
%FSLAX34Y34*%
G04 APERTURE LIST*
%ADD10C,0.006000*%
%ADD11C,0.015000*%
%ADD12R,0.078700X0.017700*%
%ADD13R,0.017700X0.078700*%
%ADD14R,0.080000X0.060000*%
%ADD15R,0.035000X0.055000*%
%ADD16R,0.055000X0.035000*%
%ADD17R,0.055000X0.055000*%
%ADD18C,0.078700*%
%ADD19O,0.098400X0.078700*%
%ADD20R,0.144000X0.080000*%
%ADD21R,0.040000X0.080000*%
%ADD22R,0.078700X0.078700*%
%ADD23O,0.078700X0.078700*%
%ADD24R,0.098400X0.078700*%
%ADD25R,0.059100X0.059100*%
%ADD26C,0.055100*%
%ADD27C,0.031500*%
%ADD28C,0.019700*%
%ADD29C,0.023600*%
%ADD30C,0.010000*%
G04 APERTURE END LIST*
G54D10*
G54D11*
X49016Y-40354D02*
X49016Y-33661D01*
X65551Y-40354D02*
X49016Y-40354D01*
X65551Y-33661D02*
X65551Y-40354D01*
X49016Y-33661D02*
X65551Y-33661D01*
G54D12*
X54324Y-38219D03*
X54324Y-37904D03*
X54324Y-37589D03*
X54324Y-37274D03*
X54324Y-36959D03*
X54324Y-36644D03*
X54324Y-36329D03*
X54324Y-36014D03*
X58090Y-36016D03*
X58090Y-38226D03*
X58090Y-37906D03*
X58090Y-37586D03*
X58090Y-37276D03*
X58090Y-36956D03*
X58090Y-36646D03*
X58090Y-36326D03*
G54D13*
X55108Y-35226D03*
X55422Y-35226D03*
X55738Y-35226D03*
X56052Y-35226D03*
X56368Y-35226D03*
X56682Y-35226D03*
X56998Y-35226D03*
X57312Y-35226D03*
X55110Y-39006D03*
X55420Y-39006D03*
X55740Y-39006D03*
X56050Y-39006D03*
X56360Y-39006D03*
X56680Y-39006D03*
X57000Y-39006D03*
X57320Y-39006D03*
G54D14*
X52346Y-36993D03*
X52346Y-35693D03*
G54D15*
X61202Y-38937D03*
X60452Y-38937D03*
X62932Y-36024D03*
X63682Y-36024D03*
X53131Y-38583D03*
X52381Y-38583D03*
G54D16*
X62834Y-36987D03*
X62834Y-37737D03*
X49961Y-36160D03*
X49961Y-36910D03*
G54D15*
X52381Y-39370D03*
X53131Y-39370D03*
X51714Y-38583D03*
X50964Y-38583D03*
G54D16*
X51299Y-37540D03*
X51299Y-36790D03*
X51299Y-35452D03*
X51299Y-36202D03*
X63622Y-37420D03*
X63622Y-38170D03*
G54D15*
X59233Y-39094D03*
X58483Y-39094D03*
X61790Y-38937D03*
X62540Y-38937D03*
G54D17*
X52402Y-37795D03*
G54D18*
X63622Y-34488D03*
X62480Y-34488D03*
G54D19*
X59260Y-38256D03*
G54D18*
X52898Y-34461D03*
G54D20*
X60827Y-34684D03*
G54D21*
X60827Y-37284D03*
X61727Y-37284D03*
X59927Y-37284D03*
G54D22*
X64606Y-38311D03*
G54D18*
X64606Y-37311D03*
G54D23*
X64606Y-36311D03*
G54D18*
X64606Y-35311D03*
G54D24*
X49961Y-34579D03*
G54D18*
X49961Y-35579D03*
G54D24*
X49961Y-38398D03*
G54D19*
X49961Y-39398D03*
G54D25*
X59213Y-37126D03*
G54D26*
X61732Y-37992D03*
X56260Y-36772D03*
X55748Y-37283D03*
X58492Y-34500D03*
X57874Y-38740D03*
X53205Y-37886D03*
X53937Y-35591D03*
X57890Y-34969D03*
X58913Y-35059D03*
X50827Y-34567D03*
X53661Y-35000D03*
X54646Y-35472D03*
X57874Y-39449D03*
X54370Y-39370D03*
X50224Y-37236D03*
G54D27*
X63622Y-37420D02*
X63622Y-36929D01*
X63622Y-36929D02*
X64224Y-36929D01*
X64224Y-36929D02*
X64606Y-37311D01*
G54D28*
X61732Y-37992D02*
X61727Y-37948D01*
G54D27*
X60452Y-38937D02*
X60082Y-38937D01*
X60079Y-38189D02*
X60768Y-38169D01*
X60082Y-38937D02*
X60079Y-38189D01*
X60768Y-38169D02*
X61732Y-37992D01*
G54D28*
X61727Y-37948D02*
X61727Y-37284D01*
X55395Y-34489D02*
X55422Y-35226D01*
G54D27*
X52898Y-34461D02*
X53227Y-34476D01*
G54D28*
X53227Y-34476D02*
X55395Y-34489D01*
X49961Y-36160D02*
X49961Y-35579D01*
G54D27*
X49961Y-39398D02*
X51936Y-39398D01*
X51936Y-39398D02*
X52381Y-39370D01*
X63682Y-36024D02*
X64173Y-36063D01*
X64594Y-36299D02*
X64606Y-36311D01*
X64173Y-36063D02*
X64594Y-36299D01*
G54D28*
X54324Y-36959D02*
X53469Y-36959D01*
X53469Y-36959D02*
X52779Y-37607D01*
X52779Y-37607D02*
X52402Y-37795D01*
X56052Y-35226D02*
X56052Y-36052D01*
X56052Y-36052D02*
X56260Y-36772D01*
X55738Y-35226D02*
X55738Y-36328D01*
X55738Y-36328D02*
X55748Y-37283D01*
X58090Y-36016D02*
X58465Y-36024D01*
X61738Y-35356D02*
X62480Y-34488D01*
X59362Y-35356D02*
X61738Y-35356D01*
X58465Y-36024D02*
X59362Y-35356D01*
X58090Y-36326D02*
X58583Y-36339D01*
X58583Y-36339D02*
X59488Y-35669D01*
X59488Y-35669D02*
X62100Y-35696D01*
X62100Y-35696D02*
X62638Y-35354D01*
X62638Y-35354D02*
X63150Y-35354D01*
X63150Y-35354D02*
X63622Y-34488D01*
X59260Y-38256D02*
X59488Y-38228D01*
X59488Y-38228D02*
X59626Y-38366D01*
G54D27*
X59370Y-34370D02*
X58492Y-34500D01*
X60827Y-34684D02*
X59370Y-34370D01*
G54D28*
X58090Y-38226D02*
X58090Y-38524D01*
X58090Y-38524D02*
X57874Y-38740D01*
X54324Y-36014D02*
X53828Y-36014D01*
X53858Y-35984D02*
X53937Y-35591D01*
X53828Y-36014D02*
X53858Y-35984D01*
X54324Y-37274D02*
X53644Y-37274D01*
X53644Y-37274D02*
X53205Y-37713D01*
G54D27*
X53205Y-37713D02*
X53205Y-37886D01*
G54D28*
X58581Y-38226D02*
X58090Y-38226D01*
G54D27*
X59646Y-37795D02*
X58741Y-38228D01*
G54D28*
X58741Y-38228D02*
X58581Y-38226D01*
G54D27*
X59526Y-39093D02*
X59233Y-39094D01*
X59606Y-38937D02*
X59526Y-39093D01*
X59626Y-38366D02*
X59606Y-38937D01*
X59646Y-37795D02*
X59626Y-38366D01*
X59927Y-37284D02*
X59927Y-37593D01*
X59927Y-37593D02*
X59646Y-37795D01*
G54D29*
X57890Y-34969D02*
X57991Y-34921D01*
G54D28*
X57991Y-34921D02*
X58913Y-35059D01*
G54D27*
X50964Y-38583D02*
X50527Y-38583D01*
X50527Y-38583D02*
X50342Y-38398D01*
G54D28*
X49961Y-38398D02*
X50342Y-38398D01*
G54D27*
X50342Y-38398D02*
X50709Y-37756D01*
G54D28*
X50709Y-36379D02*
X50709Y-37756D01*
X50709Y-35303D02*
X50709Y-35354D01*
X51299Y-36456D02*
X51299Y-36790D01*
G54D27*
X53661Y-35000D02*
X53740Y-34921D01*
X53740Y-34921D02*
X53465Y-35157D01*
G54D28*
X53465Y-35157D02*
X52480Y-35157D01*
X52480Y-35157D02*
X51890Y-34567D01*
G54D27*
X51890Y-34567D02*
X50827Y-34567D01*
G54D28*
X51299Y-36456D02*
X51299Y-36202D01*
G54D27*
X51339Y-36496D02*
X51299Y-36456D01*
X50709Y-36379D02*
X50826Y-36496D01*
X50826Y-36496D02*
X51339Y-36496D01*
G54D28*
X50709Y-35157D02*
X50709Y-35354D01*
X50709Y-35354D02*
X50709Y-36379D01*
X50827Y-34567D02*
X50709Y-35157D01*
G54D27*
X54646Y-35472D02*
X54331Y-34921D01*
X54331Y-34921D02*
X53661Y-35000D01*
G54D28*
X55108Y-35226D02*
X54656Y-35226D01*
G54D27*
X54656Y-35226D02*
X54646Y-35472D01*
G54D28*
X58483Y-39094D02*
X57874Y-39449D01*
X57874Y-39449D02*
X57638Y-39606D01*
X57638Y-39606D02*
X57323Y-39606D01*
X57323Y-39606D02*
X57320Y-39006D01*
G54D27*
X63071Y-38307D02*
X62283Y-38307D01*
X62283Y-38307D02*
X62244Y-38268D01*
G54D28*
X62244Y-38268D02*
X62244Y-36614D01*
X62244Y-36614D02*
X62087Y-36457D01*
G54D27*
X62087Y-36457D02*
X60905Y-36457D01*
X60905Y-36457D02*
X60827Y-36535D01*
X60827Y-36535D02*
X60827Y-37284D01*
G54D28*
X62834Y-37737D02*
X62834Y-38031D01*
X63071Y-38268D02*
X63071Y-38307D01*
X63071Y-38307D02*
X63071Y-38622D01*
X62834Y-38031D02*
X63071Y-38268D01*
G54D27*
X64173Y-38622D02*
X63622Y-38622D01*
X64484Y-38311D02*
X64173Y-38622D01*
X64606Y-38311D02*
X64484Y-38311D01*
G54D28*
X63622Y-38170D02*
X63622Y-38622D01*
G54D27*
X62913Y-38937D02*
X62540Y-38937D01*
X63071Y-38622D02*
X62913Y-38937D01*
X63622Y-38622D02*
X63071Y-38622D01*
X52381Y-38583D02*
X51714Y-38583D01*
G54D28*
X61790Y-38937D02*
X61202Y-38937D01*
G54D27*
X53131Y-38583D02*
X53535Y-38606D01*
G54D28*
X53535Y-38606D02*
X53676Y-38185D01*
X53676Y-38185D02*
X53701Y-37756D01*
X53701Y-37756D02*
X53780Y-37598D01*
X53780Y-37598D02*
X54324Y-37589D01*
X51299Y-35452D02*
X51299Y-35079D01*
X52244Y-35394D02*
X52346Y-35693D01*
X51732Y-35039D02*
X52244Y-35394D01*
X51299Y-35079D02*
X51732Y-35039D01*
X54324Y-36329D02*
X53671Y-36329D01*
X53346Y-35787D02*
X52346Y-35693D01*
X53642Y-36300D02*
X53346Y-35787D01*
X53671Y-36329D02*
X53642Y-36300D01*
X58090Y-37276D02*
X58697Y-37280D01*
X59685Y-36024D02*
X62520Y-36024D01*
X58701Y-36614D02*
X59252Y-36614D01*
X59252Y-36614D02*
X59685Y-36024D01*
X58697Y-37280D02*
X58701Y-36614D01*
G54D27*
X62834Y-36987D02*
X62834Y-36575D01*
X62834Y-36575D02*
X62794Y-36535D01*
X62794Y-36535D02*
X62598Y-36535D01*
G54D28*
X62598Y-36535D02*
X62480Y-36417D01*
X62480Y-36417D02*
X62480Y-36064D01*
G54D27*
X62480Y-36064D02*
X62520Y-36024D01*
X62520Y-36024D02*
X62932Y-36024D01*
G54D28*
X55420Y-39006D02*
X55433Y-39567D01*
G54D27*
X55433Y-39567D02*
X55434Y-39606D01*
G54D28*
X55434Y-39606D02*
X54606Y-39606D01*
G54D27*
X54606Y-39606D02*
X54370Y-39370D01*
G54D28*
X49961Y-37008D02*
X49961Y-36910D01*
X50224Y-37236D02*
X49961Y-37008D01*
X58090Y-37586D02*
X58871Y-37586D01*
X59213Y-37244D02*
X59213Y-37126D01*
X58871Y-37586D02*
X59213Y-37244D01*
G54D27*
X53131Y-39370D02*
X53583Y-39370D01*
G54D28*
X54331Y-38583D02*
X54324Y-38219D01*
G54D27*
X53583Y-39370D02*
X54331Y-38583D01*
G54D28*
X51299Y-37540D02*
X51299Y-37953D01*
X51850Y-37462D02*
X52346Y-36993D01*
X51850Y-37953D02*
X51850Y-37462D01*
X51299Y-37953D02*
X51850Y-37953D01*
X54324Y-36644D02*
X53317Y-36644D01*
X52894Y-37067D02*
X52346Y-36993D01*
X53317Y-36644D02*
X52894Y-37067D01*
G54D10*
G36*
X65304Y-40107D02*
X65148Y-40107D01*
X65148Y-37420D01*
X65148Y-37204D01*
X65066Y-37005D01*
X64914Y-36852D01*
X64815Y-36810D01*
X64907Y-36773D01*
X65057Y-36624D01*
X65139Y-36428D01*
X65139Y-36216D01*
X65139Y-36196D01*
X65058Y-36000D01*
X64909Y-35850D01*
X64815Y-35810D01*
X64912Y-35771D01*
X65065Y-35619D01*
X65148Y-35420D01*
X65148Y-35204D01*
X65066Y-35005D01*
X64914Y-34852D01*
X64715Y-34769D01*
X64499Y-34769D01*
X64300Y-34851D01*
X64147Y-35003D01*
X64064Y-35202D01*
X64064Y-35418D01*
X64146Y-35617D01*
X64298Y-35770D01*
X64396Y-35811D01*
X64370Y-35821D01*
X64323Y-35795D01*
X64315Y-35792D01*
X64311Y-35789D01*
X64266Y-35776D01*
X64210Y-35758D01*
X64202Y-35758D01*
X64197Y-35757D01*
X64006Y-35741D01*
X64006Y-35719D01*
X63983Y-35664D01*
X63941Y-35622D01*
X63886Y-35600D01*
X63827Y-35600D01*
X63477Y-35600D01*
X63422Y-35623D01*
X63380Y-35665D01*
X63358Y-35720D01*
X63358Y-35779D01*
X63358Y-36329D01*
X63381Y-36384D01*
X63423Y-36426D01*
X63478Y-36448D01*
X63537Y-36448D01*
X63887Y-36448D01*
X63942Y-36425D01*
X63984Y-36383D01*
X63994Y-36356D01*
X64073Y-36363D01*
X64073Y-36406D01*
X64073Y-36426D01*
X64154Y-36622D01*
X63622Y-36622D01*
X63505Y-36645D01*
X63405Y-36712D01*
X63338Y-36812D01*
X63315Y-36929D01*
X63315Y-37096D01*
X63262Y-37119D01*
X63258Y-37123D01*
X63258Y-36782D01*
X63235Y-36727D01*
X63193Y-36685D01*
X63141Y-36664D01*
X63141Y-36575D01*
X63118Y-36458D01*
X63117Y-36457D01*
X63111Y-36448D01*
X63137Y-36448D01*
X63192Y-36425D01*
X63234Y-36383D01*
X63256Y-36328D01*
X63256Y-36269D01*
X63256Y-35719D01*
X63233Y-35664D01*
X63191Y-35622D01*
X63141Y-35602D01*
X63150Y-35602D01*
X63188Y-35594D01*
X63220Y-35591D01*
X63229Y-35586D01*
X63245Y-35583D01*
X63274Y-35563D01*
X63306Y-35547D01*
X63315Y-35535D01*
X63325Y-35529D01*
X63341Y-35504D01*
X63368Y-35473D01*
X63609Y-35030D01*
X63729Y-35030D01*
X63928Y-34948D01*
X64081Y-34796D01*
X64164Y-34597D01*
X64164Y-34381D01*
X64082Y-34182D01*
X63930Y-34029D01*
X63731Y-33946D01*
X63515Y-33946D01*
X63316Y-34028D01*
X63163Y-34180D01*
X63080Y-34379D01*
X63080Y-34595D01*
X63162Y-34794D01*
X63168Y-34800D01*
X63002Y-35106D01*
X62638Y-35106D01*
X62614Y-35110D01*
X62595Y-35110D01*
X62570Y-35119D01*
X62543Y-35125D01*
X62524Y-35137D01*
X62505Y-35145D01*
X62029Y-35447D01*
X61986Y-35446D01*
X62350Y-35021D01*
X62371Y-35030D01*
X62587Y-35030D01*
X62786Y-34948D01*
X62939Y-34796D01*
X63022Y-34597D01*
X63022Y-34381D01*
X62940Y-34182D01*
X62788Y-34029D01*
X62589Y-33946D01*
X62373Y-33946D01*
X62174Y-34028D01*
X62021Y-34180D01*
X61938Y-34379D01*
X61938Y-34595D01*
X61978Y-34692D01*
X61696Y-35022D01*
X61696Y-34254D01*
X61673Y-34199D01*
X61631Y-34157D01*
X61576Y-34135D01*
X61517Y-34135D01*
X60077Y-34135D01*
X60022Y-34158D01*
X59989Y-34190D01*
X59444Y-34072D01*
X59435Y-34070D01*
X59370Y-34068D01*
X59325Y-34067D01*
X59317Y-34068D01*
X59316Y-34068D01*
X59314Y-34068D01*
X58745Y-34152D01*
X58733Y-34140D01*
X58577Y-34075D01*
X58408Y-34075D01*
X58252Y-34139D01*
X58132Y-34259D01*
X58067Y-34415D01*
X58067Y-34584D01*
X58131Y-34740D01*
X58251Y-34860D01*
X58407Y-34925D01*
X58576Y-34925D01*
X58732Y-34861D01*
X58832Y-34760D01*
X59360Y-34681D01*
X59958Y-34811D01*
X59958Y-35108D01*
X59362Y-35108D01*
X59333Y-35113D01*
X59301Y-35115D01*
X59282Y-35123D01*
X59267Y-35127D01*
X59245Y-35141D01*
X59213Y-35157D01*
X58385Y-35774D01*
X58095Y-35768D01*
X58033Y-35779D01*
X57667Y-35779D01*
X57612Y-35802D01*
X57570Y-35844D01*
X57549Y-35896D01*
X57549Y-35648D01*
X57549Y-35589D01*
X57549Y-34803D01*
X57526Y-34748D01*
X57484Y-34706D01*
X57429Y-34684D01*
X57370Y-34684D01*
X57194Y-34684D01*
X57155Y-34700D01*
X57115Y-34684D01*
X57056Y-34684D01*
X56880Y-34684D01*
X56840Y-34700D01*
X56799Y-34684D01*
X56740Y-34684D01*
X56564Y-34684D01*
X56525Y-34700D01*
X56485Y-34684D01*
X56426Y-34684D01*
X56250Y-34684D01*
X56210Y-34700D01*
X56169Y-34684D01*
X56110Y-34684D01*
X55934Y-34684D01*
X55895Y-34700D01*
X55855Y-34684D01*
X55796Y-34684D01*
X55650Y-34684D01*
X55643Y-34489D01*
X55643Y-34480D01*
X55633Y-34439D01*
X55624Y-34394D01*
X55620Y-34389D01*
X55620Y-34386D01*
X55608Y-34369D01*
X55571Y-34313D01*
X55563Y-34308D01*
X55491Y-34259D01*
X55482Y-34257D01*
X55479Y-34256D01*
X55396Y-34239D01*
X53398Y-34228D01*
X53384Y-34218D01*
X53358Y-34155D01*
X53206Y-34002D01*
X53007Y-33919D01*
X52791Y-33919D01*
X52592Y-34001D01*
X52439Y-34153D01*
X52356Y-34352D01*
X52356Y-34568D01*
X52438Y-34767D01*
X52590Y-34920D01*
X52789Y-35003D01*
X53005Y-35003D01*
X53204Y-34921D01*
X53357Y-34769D01*
X53367Y-34742D01*
X53397Y-34724D01*
X55155Y-34733D01*
X55174Y-35235D01*
X55185Y-35279D01*
X55185Y-35649D01*
X55208Y-35704D01*
X55250Y-35746D01*
X55305Y-35768D01*
X55364Y-35768D01*
X55490Y-35768D01*
X55490Y-36328D01*
X55490Y-36329D01*
X55490Y-36331D01*
X55496Y-36933D01*
X55388Y-37042D01*
X55323Y-37198D01*
X55323Y-37367D01*
X55387Y-37523D01*
X55507Y-37643D01*
X55663Y-37708D01*
X55832Y-37708D01*
X55988Y-37644D01*
X56108Y-37524D01*
X56173Y-37368D01*
X56173Y-37199D01*
X56171Y-37195D01*
X56175Y-37197D01*
X56344Y-37197D01*
X56500Y-37133D01*
X56620Y-37013D01*
X56685Y-36857D01*
X56685Y-36688D01*
X56621Y-36532D01*
X56501Y-36412D01*
X56402Y-36370D01*
X56300Y-36017D01*
X56300Y-35768D01*
X56310Y-35768D01*
X56486Y-35768D01*
X56524Y-35751D01*
X56565Y-35768D01*
X56624Y-35768D01*
X56800Y-35768D01*
X56839Y-35751D01*
X56881Y-35768D01*
X56940Y-35768D01*
X57116Y-35768D01*
X57154Y-35751D01*
X57195Y-35768D01*
X57254Y-35768D01*
X57430Y-35768D01*
X57485Y-35745D01*
X57527Y-35703D01*
X57549Y-35648D01*
X57549Y-35896D01*
X57548Y-35899D01*
X57548Y-35958D01*
X57548Y-36134D01*
X57563Y-36170D01*
X57548Y-36209D01*
X57548Y-36268D01*
X57548Y-36444D01*
X57565Y-36485D01*
X57548Y-36529D01*
X57548Y-36588D01*
X57548Y-36764D01*
X57563Y-36800D01*
X57548Y-36839D01*
X57548Y-36898D01*
X57548Y-37074D01*
X57565Y-37115D01*
X57548Y-37159D01*
X57548Y-37218D01*
X57548Y-37394D01*
X57563Y-37430D01*
X57548Y-37469D01*
X57548Y-37528D01*
X57548Y-37704D01*
X57565Y-37745D01*
X57548Y-37789D01*
X57548Y-37848D01*
X57548Y-38024D01*
X57565Y-38065D01*
X57548Y-38109D01*
X57548Y-38168D01*
X57548Y-38344D01*
X57571Y-38399D01*
X57592Y-38420D01*
X57514Y-38499D01*
X57449Y-38655D01*
X57449Y-38824D01*
X57513Y-38980D01*
X57633Y-39100D01*
X57789Y-39165D01*
X57958Y-39165D01*
X58114Y-39101D01*
X58234Y-38981D01*
X58299Y-38825D01*
X58299Y-38656D01*
X58297Y-38651D01*
X58319Y-38619D01*
X58337Y-38524D01*
X58338Y-38524D01*
X58338Y-38474D01*
X58565Y-38474D01*
X58639Y-38517D01*
X58683Y-38523D01*
X58697Y-38557D01*
X58846Y-38707D01*
X58928Y-38741D01*
X58909Y-38790D01*
X58909Y-38849D01*
X58909Y-39399D01*
X58932Y-39454D01*
X58974Y-39496D01*
X59029Y-39518D01*
X59088Y-39518D01*
X59438Y-39518D01*
X59493Y-39495D01*
X59535Y-39453D01*
X59557Y-39398D01*
X59557Y-39394D01*
X59578Y-39389D01*
X59620Y-39385D01*
X59629Y-39379D01*
X59644Y-39377D01*
X59682Y-39350D01*
X59726Y-39327D01*
X59735Y-39314D01*
X59744Y-39309D01*
X59766Y-39274D01*
X59799Y-39233D01*
X59810Y-39209D01*
X59850Y-39133D01*
X59865Y-39155D01*
X59925Y-39194D01*
X59965Y-39221D01*
X59966Y-39221D01*
X60082Y-39244D01*
X60083Y-39244D01*
X60128Y-39244D01*
X60151Y-39297D01*
X60193Y-39339D01*
X60248Y-39361D01*
X60307Y-39361D01*
X60657Y-39361D01*
X60712Y-39338D01*
X60754Y-39296D01*
X60776Y-39241D01*
X60776Y-39182D01*
X60776Y-38632D01*
X60753Y-38577D01*
X60711Y-38535D01*
X60656Y-38513D01*
X60597Y-38513D01*
X60387Y-38513D01*
X60387Y-38486D01*
X60777Y-38475D01*
X60796Y-38470D01*
X60823Y-38471D01*
X61487Y-38348D01*
X61491Y-38352D01*
X61647Y-38417D01*
X61816Y-38417D01*
X61972Y-38353D01*
X62092Y-38233D01*
X62157Y-38077D01*
X62157Y-37908D01*
X62093Y-37752D01*
X62069Y-37728D01*
X62076Y-37713D01*
X62076Y-37654D01*
X62076Y-36854D01*
X62053Y-36799D01*
X62011Y-36757D01*
X61956Y-36735D01*
X61897Y-36735D01*
X61497Y-36735D01*
X61442Y-36758D01*
X61400Y-36800D01*
X61378Y-36855D01*
X61378Y-36914D01*
X61378Y-37714D01*
X61387Y-37735D01*
X61378Y-37744D01*
X60736Y-37862D01*
X60070Y-37882D01*
X60040Y-37888D01*
X60106Y-37842D01*
X60114Y-37833D01*
X60157Y-37833D01*
X60212Y-37810D01*
X60254Y-37768D01*
X60276Y-37713D01*
X60276Y-37654D01*
X60276Y-36854D01*
X60253Y-36799D01*
X60211Y-36757D01*
X60156Y-36735D01*
X60097Y-36735D01*
X59697Y-36735D01*
X59642Y-36758D01*
X59639Y-36760D01*
X59634Y-36746D01*
X59592Y-36704D01*
X59537Y-36682D01*
X59510Y-36682D01*
X59811Y-36272D01*
X62232Y-36272D01*
X62232Y-36417D01*
X62251Y-36512D01*
X62301Y-36586D01*
X62314Y-36652D01*
X62381Y-36752D01*
X62413Y-36773D01*
X62410Y-36783D01*
X62410Y-36842D01*
X62410Y-37192D01*
X62433Y-37247D01*
X62475Y-37289D01*
X62530Y-37311D01*
X62589Y-37311D01*
X63139Y-37311D01*
X63194Y-37288D01*
X63198Y-37284D01*
X63198Y-37625D01*
X63221Y-37680D01*
X63263Y-37722D01*
X63318Y-37744D01*
X63377Y-37744D01*
X63927Y-37744D01*
X63982Y-37721D01*
X64024Y-37679D01*
X64046Y-37624D01*
X64046Y-37565D01*
X64046Y-37236D01*
X64064Y-37236D01*
X64064Y-37418D01*
X64146Y-37617D01*
X64298Y-37770D01*
X64497Y-37853D01*
X64713Y-37853D01*
X64912Y-37771D01*
X65065Y-37619D01*
X65148Y-37420D01*
X65148Y-40107D01*
X62114Y-40107D01*
X62114Y-39241D01*
X62114Y-39182D01*
X62114Y-38632D01*
X62091Y-38577D01*
X62049Y-38535D01*
X61994Y-38513D01*
X61935Y-38513D01*
X61585Y-38513D01*
X61530Y-38536D01*
X61496Y-38570D01*
X61461Y-38535D01*
X61406Y-38513D01*
X61347Y-38513D01*
X60997Y-38513D01*
X60942Y-38536D01*
X60900Y-38578D01*
X60878Y-38633D01*
X60878Y-38692D01*
X60878Y-39242D01*
X60901Y-39297D01*
X60943Y-39339D01*
X60998Y-39361D01*
X61057Y-39361D01*
X61407Y-39361D01*
X61462Y-39338D01*
X61496Y-39304D01*
X61531Y-39339D01*
X61586Y-39361D01*
X61645Y-39361D01*
X61995Y-39361D01*
X62050Y-39338D01*
X62092Y-39296D01*
X62114Y-39241D01*
X62114Y-40107D01*
X57237Y-40107D01*
X57237Y-39428D01*
X57237Y-39369D01*
X57237Y-38583D01*
X57214Y-38528D01*
X57172Y-38486D01*
X57117Y-38464D01*
X57058Y-38464D01*
X56882Y-38464D01*
X56840Y-38481D01*
X56797Y-38464D01*
X56738Y-38464D01*
X56562Y-38464D01*
X56520Y-38481D01*
X56477Y-38464D01*
X56418Y-38464D01*
X56242Y-38464D01*
X56205Y-38479D01*
X56167Y-38464D01*
X56108Y-38464D01*
X55932Y-38464D01*
X55895Y-38479D01*
X55857Y-38464D01*
X55798Y-38464D01*
X55622Y-38464D01*
X55580Y-38481D01*
X55537Y-38464D01*
X55478Y-38464D01*
X55302Y-38464D01*
X55265Y-38479D01*
X55227Y-38464D01*
X55168Y-38464D01*
X54992Y-38464D01*
X54937Y-38487D01*
X54895Y-38529D01*
X54873Y-38584D01*
X54873Y-38643D01*
X54873Y-39358D01*
X54795Y-39358D01*
X54795Y-39286D01*
X54731Y-39130D01*
X54611Y-39010D01*
X54455Y-38945D01*
X54409Y-38945D01*
X54553Y-38794D01*
X54616Y-38694D01*
X54637Y-38575D01*
X54610Y-38457D01*
X54609Y-38456D01*
X54747Y-38456D01*
X54802Y-38433D01*
X54844Y-38391D01*
X54866Y-38336D01*
X54866Y-38277D01*
X54866Y-38101D01*
X54849Y-38061D01*
X54866Y-38021D01*
X54866Y-37962D01*
X54866Y-37786D01*
X54849Y-37746D01*
X54866Y-37706D01*
X54866Y-37647D01*
X54866Y-37471D01*
X54849Y-37431D01*
X54866Y-37391D01*
X54866Y-37332D01*
X54866Y-37156D01*
X54849Y-37116D01*
X54866Y-37076D01*
X54866Y-37017D01*
X54866Y-36841D01*
X54849Y-36801D01*
X54866Y-36761D01*
X54866Y-36702D01*
X54866Y-36526D01*
X54849Y-36486D01*
X54866Y-36446D01*
X54866Y-36387D01*
X54866Y-36211D01*
X54849Y-36171D01*
X54866Y-36131D01*
X54866Y-36072D01*
X54866Y-35896D01*
X54843Y-35841D01*
X54801Y-35799D01*
X54746Y-35777D01*
X54687Y-35777D01*
X54379Y-35777D01*
X54324Y-35766D01*
X54362Y-35676D01*
X54362Y-35507D01*
X54298Y-35351D01*
X54178Y-35231D01*
X54022Y-35166D01*
X53853Y-35166D01*
X53697Y-35230D01*
X53577Y-35350D01*
X53512Y-35506D01*
X53512Y-35607D01*
X53497Y-35590D01*
X53476Y-35580D01*
X53462Y-35568D01*
X53435Y-35560D01*
X53410Y-35548D01*
X53387Y-35546D01*
X53369Y-35541D01*
X52895Y-35495D01*
X52895Y-35363D01*
X52872Y-35308D01*
X52830Y-35266D01*
X52775Y-35244D01*
X52716Y-35244D01*
X52438Y-35244D01*
X52438Y-35243D01*
X52430Y-35230D01*
X52408Y-35213D01*
X52385Y-35190D01*
X51873Y-34835D01*
X51837Y-34820D01*
X51805Y-34802D01*
X51792Y-34800D01*
X51784Y-34797D01*
X51753Y-34796D01*
X51708Y-34792D01*
X51276Y-34832D01*
X51240Y-34842D01*
X51204Y-34850D01*
X51194Y-34856D01*
X51183Y-34860D01*
X51155Y-34883D01*
X51124Y-34904D01*
X51116Y-34914D01*
X51109Y-34921D01*
X51093Y-34949D01*
X51070Y-34984D01*
X51067Y-34995D01*
X51062Y-35006D01*
X51058Y-35043D01*
X51051Y-35079D01*
X51051Y-35128D01*
X50994Y-35128D01*
X50939Y-35151D01*
X50897Y-35193D01*
X50875Y-35248D01*
X50875Y-35307D01*
X50875Y-35657D01*
X50898Y-35712D01*
X50940Y-35754D01*
X50995Y-35776D01*
X51054Y-35776D01*
X51604Y-35776D01*
X51659Y-35753D01*
X51701Y-35711D01*
X51723Y-35656D01*
X51723Y-35597D01*
X51723Y-35334D01*
X51797Y-35385D01*
X51797Y-35423D01*
X51797Y-36023D01*
X51820Y-36078D01*
X51862Y-36120D01*
X51917Y-36142D01*
X51976Y-36142D01*
X52776Y-36142D01*
X52831Y-36119D01*
X52873Y-36077D01*
X52895Y-36022D01*
X52895Y-35993D01*
X53195Y-36022D01*
X53410Y-36396D01*
X53317Y-36396D01*
X53222Y-36415D01*
X53141Y-36469D01*
X52895Y-36715D01*
X52895Y-36663D01*
X52872Y-36608D01*
X52830Y-36566D01*
X52775Y-36544D01*
X52716Y-36544D01*
X51916Y-36544D01*
X51861Y-36567D01*
X51819Y-36609D01*
X51797Y-36664D01*
X51797Y-36723D01*
X51797Y-37171D01*
X51691Y-37271D01*
X51658Y-37238D01*
X51603Y-37216D01*
X51544Y-37216D01*
X50994Y-37216D01*
X50939Y-37239D01*
X50897Y-37281D01*
X50875Y-37336D01*
X50875Y-37395D01*
X50875Y-37745D01*
X50898Y-37800D01*
X50940Y-37842D01*
X50995Y-37864D01*
X51051Y-37864D01*
X51051Y-37953D01*
X51070Y-38048D01*
X51124Y-38128D01*
X51204Y-38182D01*
X51299Y-38201D01*
X51435Y-38201D01*
X51412Y-38224D01*
X51390Y-38279D01*
X51390Y-38338D01*
X51390Y-38888D01*
X51413Y-38943D01*
X51455Y-38985D01*
X51510Y-39007D01*
X51569Y-39007D01*
X51919Y-39007D01*
X51974Y-38984D01*
X52016Y-38942D01*
X52036Y-38890D01*
X52057Y-38890D01*
X52080Y-38943D01*
X52113Y-38976D01*
X52079Y-39011D01*
X52057Y-39066D01*
X52057Y-39083D01*
X51932Y-39091D01*
X50649Y-39091D01*
X50649Y-37321D01*
X50649Y-37152D01*
X50585Y-36996D01*
X50503Y-36914D01*
X50503Y-35688D01*
X50503Y-35472D01*
X50421Y-35273D01*
X50269Y-35120D01*
X50070Y-35037D01*
X49854Y-35037D01*
X49655Y-35119D01*
X49502Y-35271D01*
X49419Y-35470D01*
X49419Y-35686D01*
X49501Y-35885D01*
X49546Y-35931D01*
X49537Y-35956D01*
X49537Y-36015D01*
X49537Y-36365D01*
X49560Y-36420D01*
X49602Y-36462D01*
X49657Y-36484D01*
X49716Y-36484D01*
X50266Y-36484D01*
X50321Y-36461D01*
X50363Y-36419D01*
X50385Y-36364D01*
X50385Y-36305D01*
X50385Y-35955D01*
X50375Y-35931D01*
X50420Y-35887D01*
X50503Y-35688D01*
X50503Y-36914D01*
X50465Y-36876D01*
X50385Y-36842D01*
X50385Y-36705D01*
X50362Y-36650D01*
X50320Y-36608D01*
X50265Y-36586D01*
X50206Y-36586D01*
X49656Y-36586D01*
X49601Y-36609D01*
X49559Y-36651D01*
X49537Y-36706D01*
X49537Y-36765D01*
X49537Y-37115D01*
X49560Y-37170D01*
X49602Y-37212D01*
X49657Y-37234D01*
X49716Y-37234D01*
X49799Y-37234D01*
X49799Y-37320D01*
X49863Y-37476D01*
X49983Y-37596D01*
X50139Y-37661D01*
X50308Y-37661D01*
X50464Y-37597D01*
X50584Y-37477D01*
X50649Y-37321D01*
X50649Y-39091D01*
X50518Y-39091D01*
X50375Y-38947D01*
X50179Y-38865D01*
X49967Y-38865D01*
X49745Y-38865D01*
X49549Y-38946D01*
X49399Y-39095D01*
X49317Y-39291D01*
X49317Y-39503D01*
X49398Y-39699D01*
X49547Y-39849D01*
X49743Y-39931D01*
X49955Y-39931D01*
X50177Y-39931D01*
X50373Y-39850D01*
X50518Y-39705D01*
X51936Y-39705D01*
X51946Y-39702D01*
X51955Y-39704D01*
X52066Y-39696D01*
X52080Y-39730D01*
X52122Y-39772D01*
X52177Y-39794D01*
X52236Y-39794D01*
X52586Y-39794D01*
X52641Y-39771D01*
X52683Y-39729D01*
X52705Y-39674D01*
X52705Y-39615D01*
X52705Y-39065D01*
X52682Y-39010D01*
X52648Y-38976D01*
X52683Y-38942D01*
X52705Y-38887D01*
X52705Y-38828D01*
X52705Y-38278D01*
X52682Y-38223D01*
X52678Y-38219D01*
X52707Y-38219D01*
X52762Y-38196D01*
X52804Y-38154D01*
X52826Y-38099D01*
X52826Y-38082D01*
X52844Y-38126D01*
X52891Y-38173D01*
X52871Y-38182D01*
X52829Y-38224D01*
X52807Y-38279D01*
X52807Y-38338D01*
X52807Y-38888D01*
X52830Y-38943D01*
X52863Y-38976D01*
X52829Y-39011D01*
X52807Y-39066D01*
X52807Y-39125D01*
X52807Y-39675D01*
X52830Y-39730D01*
X52872Y-39772D01*
X52927Y-39794D01*
X52986Y-39794D01*
X53336Y-39794D01*
X53391Y-39771D01*
X53433Y-39729D01*
X53453Y-39677D01*
X53583Y-39677D01*
X53586Y-39676D01*
X53591Y-39677D01*
X53637Y-39666D01*
X53700Y-39654D01*
X53704Y-39650D01*
X53708Y-39650D01*
X53747Y-39621D01*
X53800Y-39587D01*
X53802Y-39583D01*
X53806Y-39581D01*
X53945Y-39434D01*
X53945Y-39454D01*
X54009Y-39610D01*
X54129Y-39730D01*
X54285Y-39795D01*
X54360Y-39795D01*
X54388Y-39823D01*
X54487Y-39889D01*
X54605Y-39912D01*
X54724Y-39889D01*
X54776Y-39854D01*
X55262Y-39854D01*
X55324Y-39893D01*
X55442Y-39913D01*
X55558Y-39887D01*
X55657Y-39817D01*
X55721Y-39716D01*
X55741Y-39598D01*
X55740Y-39559D01*
X55737Y-39548D01*
X55858Y-39548D01*
X55894Y-39532D01*
X55933Y-39548D01*
X55992Y-39548D01*
X56168Y-39548D01*
X56204Y-39532D01*
X56243Y-39548D01*
X56302Y-39548D01*
X56478Y-39548D01*
X56519Y-39530D01*
X56563Y-39548D01*
X56622Y-39548D01*
X56798Y-39548D01*
X56839Y-39530D01*
X56883Y-39548D01*
X56942Y-39548D01*
X57118Y-39548D01*
X57173Y-39525D01*
X57215Y-39483D01*
X57237Y-39428D01*
X57237Y-40107D01*
X49263Y-40107D01*
X49263Y-33908D01*
X65304Y-33908D01*
X65304Y-40107D01*
X65304Y-40107D01*
G37*
G54D30*
X65304Y-40107D02*
X65148Y-40107D01*
X65148Y-37420D01*
X65148Y-37204D01*
X65066Y-37005D01*
X64914Y-36852D01*
X64815Y-36810D01*
X64907Y-36773D01*
X65057Y-36624D01*
X65139Y-36428D01*
X65139Y-36216D01*
X65139Y-36196D01*
X65058Y-36000D01*
X64909Y-35850D01*
X64815Y-35810D01*
X64912Y-35771D01*
X65065Y-35619D01*
X65148Y-35420D01*
X65148Y-35204D01*
X65066Y-35005D01*
X64914Y-34852D01*
X64715Y-34769D01*
X64499Y-34769D01*
X64300Y-34851D01*
X64147Y-35003D01*
X64064Y-35202D01*
X64064Y-35418D01*
X64146Y-35617D01*
X64298Y-35770D01*
X64396Y-35811D01*
X64370Y-35821D01*
X64323Y-35795D01*
X64315Y-35792D01*
X64311Y-35789D01*
X64266Y-35776D01*
X64210Y-35758D01*
X64202Y-35758D01*
X64197Y-35757D01*
X64006Y-35741D01*
X64006Y-35719D01*
X63983Y-35664D01*
X63941Y-35622D01*
X63886Y-35600D01*
X63827Y-35600D01*
X63477Y-35600D01*
X63422Y-35623D01*
X63380Y-35665D01*
X63358Y-35720D01*
X63358Y-35779D01*
X63358Y-36329D01*
X63381Y-36384D01*
X63423Y-36426D01*
X63478Y-36448D01*
X63537Y-36448D01*
X63887Y-36448D01*
X63942Y-36425D01*
X63984Y-36383D01*
X63994Y-36356D01*
X64073Y-36363D01*
X64073Y-36406D01*
X64073Y-36426D01*
X64154Y-36622D01*
X63622Y-36622D01*
X63505Y-36645D01*
X63405Y-36712D01*
X63338Y-36812D01*
X63315Y-36929D01*
X63315Y-37096D01*
X63262Y-37119D01*
X63258Y-37123D01*
X63258Y-36782D01*
X63235Y-36727D01*
X63193Y-36685D01*
X63141Y-36664D01*
X63141Y-36575D01*
X63118Y-36458D01*
X63117Y-36457D01*
X63111Y-36448D01*
X63137Y-36448D01*
X63192Y-36425D01*
X63234Y-36383D01*
X63256Y-36328D01*
X63256Y-36269D01*
X63256Y-35719D01*
X63233Y-35664D01*
X63191Y-35622D01*
X63141Y-35602D01*
X63150Y-35602D01*
X63188Y-35594D01*
X63220Y-35591D01*
X63229Y-35586D01*
X63245Y-35583D01*
X63274Y-35563D01*
X63306Y-35547D01*
X63315Y-35535D01*
X63325Y-35529D01*
X63341Y-35504D01*
X63368Y-35473D01*
X63609Y-35030D01*
X63729Y-35030D01*
X63928Y-34948D01*
X64081Y-34796D01*
X64164Y-34597D01*
X64164Y-34381D01*
X64082Y-34182D01*
X63930Y-34029D01*
X63731Y-33946D01*
X63515Y-33946D01*
X63316Y-34028D01*
X63163Y-34180D01*
X63080Y-34379D01*
X63080Y-34595D01*
X63162Y-34794D01*
X63168Y-34800D01*
X63002Y-35106D01*
X62638Y-35106D01*
X62614Y-35110D01*
X62595Y-35110D01*
X62570Y-35119D01*
X62543Y-35125D01*
X62524Y-35137D01*
X62505Y-35145D01*
X62029Y-35447D01*
X61986Y-35446D01*
X62350Y-35021D01*
X62371Y-35030D01*
X62587Y-35030D01*
X62786Y-34948D01*
X62939Y-34796D01*
X63022Y-34597D01*
X63022Y-34381D01*
X62940Y-34182D01*
X62788Y-34029D01*
X62589Y-33946D01*
X62373Y-33946D01*
X62174Y-34028D01*
X62021Y-34180D01*
X61938Y-34379D01*
X61938Y-34595D01*
X61978Y-34692D01*
X61696Y-35022D01*
X61696Y-34254D01*
X61673Y-34199D01*
X61631Y-34157D01*
X61576Y-34135D01*
X61517Y-34135D01*
X60077Y-34135D01*
X60022Y-34158D01*
X59989Y-34190D01*
X59444Y-34072D01*
X59435Y-34070D01*
X59370Y-34068D01*
X59325Y-34067D01*
X59317Y-34068D01*
X59316Y-34068D01*
X59314Y-34068D01*
X58745Y-34152D01*
X58733Y-34140D01*
X58577Y-34075D01*
X58408Y-34075D01*
X58252Y-34139D01*
X58132Y-34259D01*
X58067Y-34415D01*
X58067Y-34584D01*
X58131Y-34740D01*
X58251Y-34860D01*
X58407Y-34925D01*
X58576Y-34925D01*
X58732Y-34861D01*
X58832Y-34760D01*
X59360Y-34681D01*
X59958Y-34811D01*
X59958Y-35108D01*
X59362Y-35108D01*
X59333Y-35113D01*
X59301Y-35115D01*
X59282Y-35123D01*
X59267Y-35127D01*
X59245Y-35141D01*
X59213Y-35157D01*
X58385Y-35774D01*
X58095Y-35768D01*
X58033Y-35779D01*
X57667Y-35779D01*
X57612Y-35802D01*
X57570Y-35844D01*
X57549Y-35896D01*
X57549Y-35648D01*
X57549Y-35589D01*
X57549Y-34803D01*
X57526Y-34748D01*
X57484Y-34706D01*
X57429Y-34684D01*
X57370Y-34684D01*
X57194Y-34684D01*
X57155Y-34700D01*
X57115Y-34684D01*
X57056Y-34684D01*
X56880Y-34684D01*
X56840Y-34700D01*
X56799Y-34684D01*
X56740Y-34684D01*
X56564Y-34684D01*
X56525Y-34700D01*
X56485Y-34684D01*
X56426Y-34684D01*
X56250Y-34684D01*
X56210Y-34700D01*
X56169Y-34684D01*
X56110Y-34684D01*
X55934Y-34684D01*
X55895Y-34700D01*
X55855Y-34684D01*
X55796Y-34684D01*
X55650Y-34684D01*
X55643Y-34489D01*
X55643Y-34480D01*
X55633Y-34439D01*
X55624Y-34394D01*
X55620Y-34389D01*
X55620Y-34386D01*
X55608Y-34369D01*
X55571Y-34313D01*
X55563Y-34308D01*
X55491Y-34259D01*
X55482Y-34257D01*
X55479Y-34256D01*
X55396Y-34239D01*
X53398Y-34228D01*
X53384Y-34218D01*
X53358Y-34155D01*
X53206Y-34002D01*
X53007Y-33919D01*
X52791Y-33919D01*
X52592Y-34001D01*
X52439Y-34153D01*
X52356Y-34352D01*
X52356Y-34568D01*
X52438Y-34767D01*
X52590Y-34920D01*
X52789Y-35003D01*
X53005Y-35003D01*
X53204Y-34921D01*
X53357Y-34769D01*
X53367Y-34742D01*
X53397Y-34724D01*
X55155Y-34733D01*
X55174Y-35235D01*
X55185Y-35279D01*
X55185Y-35649D01*
X55208Y-35704D01*
X55250Y-35746D01*
X55305Y-35768D01*
X55364Y-35768D01*
X55490Y-35768D01*
X55490Y-36328D01*
X55490Y-36329D01*
X55490Y-36331D01*
X55496Y-36933D01*
X55388Y-37042D01*
X55323Y-37198D01*
X55323Y-37367D01*
X55387Y-37523D01*
X55507Y-37643D01*
X55663Y-37708D01*
X55832Y-37708D01*
X55988Y-37644D01*
X56108Y-37524D01*
X56173Y-37368D01*
X56173Y-37199D01*
X56171Y-37195D01*
X56175Y-37197D01*
X56344Y-37197D01*
X56500Y-37133D01*
X56620Y-37013D01*
X56685Y-36857D01*
X56685Y-36688D01*
X56621Y-36532D01*
X56501Y-36412D01*
X56402Y-36370D01*
X56300Y-36017D01*
X56300Y-35768D01*
X56310Y-35768D01*
X56486Y-35768D01*
X56524Y-35751D01*
X56565Y-35768D01*
X56624Y-35768D01*
X56800Y-35768D01*
X56839Y-35751D01*
X56881Y-35768D01*
X56940Y-35768D01*
X57116Y-35768D01*
X57154Y-35751D01*
X57195Y-35768D01*
X57254Y-35768D01*
X57430Y-35768D01*
X57485Y-35745D01*
X57527Y-35703D01*
X57549Y-35648D01*
X57549Y-35896D01*
X57548Y-35899D01*
X57548Y-35958D01*
X57548Y-36134D01*
X57563Y-36170D01*
X57548Y-36209D01*
X57548Y-36268D01*
X57548Y-36444D01*
X57565Y-36485D01*
X57548Y-36529D01*
X57548Y-36588D01*
X57548Y-36764D01*
X57563Y-36800D01*
X57548Y-36839D01*
X57548Y-36898D01*
X57548Y-37074D01*
X57565Y-37115D01*
X57548Y-37159D01*
X57548Y-37218D01*
X57548Y-37394D01*
X57563Y-37430D01*
X57548Y-37469D01*
X57548Y-37528D01*
X57548Y-37704D01*
X57565Y-37745D01*
X57548Y-37789D01*
X57548Y-37848D01*
X57548Y-38024D01*
X57565Y-38065D01*
X57548Y-38109D01*
X57548Y-38168D01*
X57548Y-38344D01*
X57571Y-38399D01*
X57592Y-38420D01*
X57514Y-38499D01*
X57449Y-38655D01*
X57449Y-38824D01*
X57513Y-38980D01*
X57633Y-39100D01*
X57789Y-39165D01*
X57958Y-39165D01*
X58114Y-39101D01*
X58234Y-38981D01*
X58299Y-38825D01*
X58299Y-38656D01*
X58297Y-38651D01*
X58319Y-38619D01*
X58337Y-38524D01*
X58338Y-38524D01*
X58338Y-38474D01*
X58565Y-38474D01*
X58639Y-38517D01*
X58683Y-38523D01*
X58697Y-38557D01*
X58846Y-38707D01*
X58928Y-38741D01*
X58909Y-38790D01*
X58909Y-38849D01*
X58909Y-39399D01*
X58932Y-39454D01*
X58974Y-39496D01*
X59029Y-39518D01*
X59088Y-39518D01*
X59438Y-39518D01*
X59493Y-39495D01*
X59535Y-39453D01*
X59557Y-39398D01*
X59557Y-39394D01*
X59578Y-39389D01*
X59620Y-39385D01*
X59629Y-39379D01*
X59644Y-39377D01*
X59682Y-39350D01*
X59726Y-39327D01*
X59735Y-39314D01*
X59744Y-39309D01*
X59766Y-39274D01*
X59799Y-39233D01*
X59810Y-39209D01*
X59850Y-39133D01*
X59865Y-39155D01*
X59925Y-39194D01*
X59965Y-39221D01*
X59966Y-39221D01*
X60082Y-39244D01*
X60083Y-39244D01*
X60128Y-39244D01*
X60151Y-39297D01*
X60193Y-39339D01*
X60248Y-39361D01*
X60307Y-39361D01*
X60657Y-39361D01*
X60712Y-39338D01*
X60754Y-39296D01*
X60776Y-39241D01*
X60776Y-39182D01*
X60776Y-38632D01*
X60753Y-38577D01*
X60711Y-38535D01*
X60656Y-38513D01*
X60597Y-38513D01*
X60387Y-38513D01*
X60387Y-38486D01*
X60777Y-38475D01*
X60796Y-38470D01*
X60823Y-38471D01*
X61487Y-38348D01*
X61491Y-38352D01*
X61647Y-38417D01*
X61816Y-38417D01*
X61972Y-38353D01*
X62092Y-38233D01*
X62157Y-38077D01*
X62157Y-37908D01*
X62093Y-37752D01*
X62069Y-37728D01*
X62076Y-37713D01*
X62076Y-37654D01*
X62076Y-36854D01*
X62053Y-36799D01*
X62011Y-36757D01*
X61956Y-36735D01*
X61897Y-36735D01*
X61497Y-36735D01*
X61442Y-36758D01*
X61400Y-36800D01*
X61378Y-36855D01*
X61378Y-36914D01*
X61378Y-37714D01*
X61387Y-37735D01*
X61378Y-37744D01*
X60736Y-37862D01*
X60070Y-37882D01*
X60040Y-37888D01*
X60106Y-37842D01*
X60114Y-37833D01*
X60157Y-37833D01*
X60212Y-37810D01*
X60254Y-37768D01*
X60276Y-37713D01*
X60276Y-37654D01*
X60276Y-36854D01*
X60253Y-36799D01*
X60211Y-36757D01*
X60156Y-36735D01*
X60097Y-36735D01*
X59697Y-36735D01*
X59642Y-36758D01*
X59639Y-36760D01*
X59634Y-36746D01*
X59592Y-36704D01*
X59537Y-36682D01*
X59510Y-36682D01*
X59811Y-36272D01*
X62232Y-36272D01*
X62232Y-36417D01*
X62251Y-36512D01*
X62301Y-36586D01*
X62314Y-36652D01*
X62381Y-36752D01*
X62413Y-36773D01*
X62410Y-36783D01*
X62410Y-36842D01*
X62410Y-37192D01*
X62433Y-37247D01*
X62475Y-37289D01*
X62530Y-37311D01*
X62589Y-37311D01*
X63139Y-37311D01*
X63194Y-37288D01*
X63198Y-37284D01*
X63198Y-37625D01*
X63221Y-37680D01*
X63263Y-37722D01*
X63318Y-37744D01*
X63377Y-37744D01*
X63927Y-37744D01*
X63982Y-37721D01*
X64024Y-37679D01*
X64046Y-37624D01*
X64046Y-37565D01*
X64046Y-37236D01*
X64064Y-37236D01*
X64064Y-37418D01*
X64146Y-37617D01*
X64298Y-37770D01*
X64497Y-37853D01*
X64713Y-37853D01*
X64912Y-37771D01*
X65065Y-37619D01*
X65148Y-37420D01*
X65148Y-40107D01*
X62114Y-40107D01*
X62114Y-39241D01*
X62114Y-39182D01*
X62114Y-38632D01*
X62091Y-38577D01*
X62049Y-38535D01*
X61994Y-38513D01*
X61935Y-38513D01*
X61585Y-38513D01*
X61530Y-38536D01*
X61496Y-38570D01*
X61461Y-38535D01*
X61406Y-38513D01*
X61347Y-38513D01*
X60997Y-38513D01*
X60942Y-38536D01*
X60900Y-38578D01*
X60878Y-38633D01*
X60878Y-38692D01*
X60878Y-39242D01*
X60901Y-39297D01*
X60943Y-39339D01*
X60998Y-39361D01*
X61057Y-39361D01*
X61407Y-39361D01*
X61462Y-39338D01*
X61496Y-39304D01*
X61531Y-39339D01*
X61586Y-39361D01*
X61645Y-39361D01*
X61995Y-39361D01*
X62050Y-39338D01*
X62092Y-39296D01*
X62114Y-39241D01*
X62114Y-40107D01*
X57237Y-40107D01*
X57237Y-39428D01*
X57237Y-39369D01*
X57237Y-38583D01*
X57214Y-38528D01*
X57172Y-38486D01*
X57117Y-38464D01*
X57058Y-38464D01*
X56882Y-38464D01*
X56840Y-38481D01*
X56797Y-38464D01*
X56738Y-38464D01*
X56562Y-38464D01*
X56520Y-38481D01*
X56477Y-38464D01*
X56418Y-38464D01*
X56242Y-38464D01*
X56205Y-38479D01*
X56167Y-38464D01*
X56108Y-38464D01*
X55932Y-38464D01*
X55895Y-38479D01*
X55857Y-38464D01*
X55798Y-38464D01*
X55622Y-38464D01*
X55580Y-38481D01*
X55537Y-38464D01*
X55478Y-38464D01*
X55302Y-38464D01*
X55265Y-38479D01*
X55227Y-38464D01*
X55168Y-38464D01*
X54992Y-38464D01*
X54937Y-38487D01*
X54895Y-38529D01*
X54873Y-38584D01*
X54873Y-38643D01*
X54873Y-39358D01*
X54795Y-39358D01*
X54795Y-39286D01*
X54731Y-39130D01*
X54611Y-39010D01*
X54455Y-38945D01*
X54409Y-38945D01*
X54553Y-38794D01*
X54616Y-38694D01*
X54637Y-38575D01*
X54610Y-38457D01*
X54609Y-38456D01*
X54747Y-38456D01*
X54802Y-38433D01*
X54844Y-38391D01*
X54866Y-38336D01*
X54866Y-38277D01*
X54866Y-38101D01*
X54849Y-38061D01*
X54866Y-38021D01*
X54866Y-37962D01*
X54866Y-37786D01*
X54849Y-37746D01*
X54866Y-37706D01*
X54866Y-37647D01*
X54866Y-37471D01*
X54849Y-37431D01*
X54866Y-37391D01*
X54866Y-37332D01*
X54866Y-37156D01*
X54849Y-37116D01*
X54866Y-37076D01*
X54866Y-37017D01*
X54866Y-36841D01*
X54849Y-36801D01*
X54866Y-36761D01*
X54866Y-36702D01*
X54866Y-36526D01*
X54849Y-36486D01*
X54866Y-36446D01*
X54866Y-36387D01*
X54866Y-36211D01*
X54849Y-36171D01*
X54866Y-36131D01*
X54866Y-36072D01*
X54866Y-35896D01*
X54843Y-35841D01*
X54801Y-35799D01*
X54746Y-35777D01*
X54687Y-35777D01*
X54379Y-35777D01*
X54324Y-35766D01*
X54362Y-35676D01*
X54362Y-35507D01*
X54298Y-35351D01*
X54178Y-35231D01*
X54022Y-35166D01*
X53853Y-35166D01*
X53697Y-35230D01*
X53577Y-35350D01*
X53512Y-35506D01*
X53512Y-35607D01*
X53497Y-35590D01*
X53476Y-35580D01*
X53462Y-35568D01*
X53435Y-35560D01*
X53410Y-35548D01*
X53387Y-35546D01*
X53369Y-35541D01*
X52895Y-35495D01*
X52895Y-35363D01*
X52872Y-35308D01*
X52830Y-35266D01*
X52775Y-35244D01*
X52716Y-35244D01*
X52438Y-35244D01*
X52438Y-35243D01*
X52430Y-35230D01*
X52408Y-35213D01*
X52385Y-35190D01*
X51873Y-34835D01*
X51837Y-34820D01*
X51805Y-34802D01*
X51792Y-34800D01*
X51784Y-34797D01*
X51753Y-34796D01*
X51708Y-34792D01*
X51276Y-34832D01*
X51240Y-34842D01*
X51204Y-34850D01*
X51194Y-34856D01*
X51183Y-34860D01*
X51155Y-34883D01*
X51124Y-34904D01*
X51116Y-34914D01*
X51109Y-34921D01*
X51093Y-34949D01*
X51070Y-34984D01*
X51067Y-34995D01*
X51062Y-35006D01*
X51058Y-35043D01*
X51051Y-35079D01*
X51051Y-35128D01*
X50994Y-35128D01*
X50939Y-35151D01*
X50897Y-35193D01*
X50875Y-35248D01*
X50875Y-35307D01*
X50875Y-35657D01*
X50898Y-35712D01*
X50940Y-35754D01*
X50995Y-35776D01*
X51054Y-35776D01*
X51604Y-35776D01*
X51659Y-35753D01*
X51701Y-35711D01*
X51723Y-35656D01*
X51723Y-35597D01*
X51723Y-35334D01*
X51797Y-35385D01*
X51797Y-35423D01*
X51797Y-36023D01*
X51820Y-36078D01*
X51862Y-36120D01*
X51917Y-36142D01*
X51976Y-36142D01*
X52776Y-36142D01*
X52831Y-36119D01*
X52873Y-36077D01*
X52895Y-36022D01*
X52895Y-35993D01*
X53195Y-36022D01*
X53410Y-36396D01*
X53317Y-36396D01*
X53222Y-36415D01*
X53141Y-36469D01*
X52895Y-36715D01*
X52895Y-36663D01*
X52872Y-36608D01*
X52830Y-36566D01*
X52775Y-36544D01*
X52716Y-36544D01*
X51916Y-36544D01*
X51861Y-36567D01*
X51819Y-36609D01*
X51797Y-36664D01*
X51797Y-36723D01*
X51797Y-37171D01*
X51691Y-37271D01*
X51658Y-37238D01*
X51603Y-37216D01*
X51544Y-37216D01*
X50994Y-37216D01*
X50939Y-37239D01*
X50897Y-37281D01*
X50875Y-37336D01*
X50875Y-37395D01*
X50875Y-37745D01*
X50898Y-37800D01*
X50940Y-37842D01*
X50995Y-37864D01*
X51051Y-37864D01*
X51051Y-37953D01*
X51070Y-38048D01*
X51124Y-38128D01*
X51204Y-38182D01*
X51299Y-38201D01*
X51435Y-38201D01*
X51412Y-38224D01*
X51390Y-38279D01*
X51390Y-38338D01*
X51390Y-38888D01*
X51413Y-38943D01*
X51455Y-38985D01*
X51510Y-39007D01*
X51569Y-39007D01*
X51919Y-39007D01*
X51974Y-38984D01*
X52016Y-38942D01*
X52036Y-38890D01*
X52057Y-38890D01*
X52080Y-38943D01*
X52113Y-38976D01*
X52079Y-39011D01*
X52057Y-39066D01*
X52057Y-39083D01*
X51932Y-39091D01*
X50649Y-39091D01*
X50649Y-37321D01*
X50649Y-37152D01*
X50585Y-36996D01*
X50503Y-36914D01*
X50503Y-35688D01*
X50503Y-35472D01*
X50421Y-35273D01*
X50269Y-35120D01*
X50070Y-35037D01*
X49854Y-35037D01*
X49655Y-35119D01*
X49502Y-35271D01*
X49419Y-35470D01*
X49419Y-35686D01*
X49501Y-35885D01*
X49546Y-35931D01*
X49537Y-35956D01*
X49537Y-36015D01*
X49537Y-36365D01*
X49560Y-36420D01*
X49602Y-36462D01*
X49657Y-36484D01*
X49716Y-36484D01*
X50266Y-36484D01*
X50321Y-36461D01*
X50363Y-36419D01*
X50385Y-36364D01*
X50385Y-36305D01*
X50385Y-35955D01*
X50375Y-35931D01*
X50420Y-35887D01*
X50503Y-35688D01*
X50503Y-36914D01*
X50465Y-36876D01*
X50385Y-36842D01*
X50385Y-36705D01*
X50362Y-36650D01*
X50320Y-36608D01*
X50265Y-36586D01*
X50206Y-36586D01*
X49656Y-36586D01*
X49601Y-36609D01*
X49559Y-36651D01*
X49537Y-36706D01*
X49537Y-36765D01*
X49537Y-37115D01*
X49560Y-37170D01*
X49602Y-37212D01*
X49657Y-37234D01*
X49716Y-37234D01*
X49799Y-37234D01*
X49799Y-37320D01*
X49863Y-37476D01*
X49983Y-37596D01*
X50139Y-37661D01*
X50308Y-37661D01*
X50464Y-37597D01*
X50584Y-37477D01*
X50649Y-37321D01*
X50649Y-39091D01*
X50518Y-39091D01*
X50375Y-38947D01*
X50179Y-38865D01*
X49967Y-38865D01*
X49745Y-38865D01*
X49549Y-38946D01*
X49399Y-39095D01*
X49317Y-39291D01*
X49317Y-39503D01*
X49398Y-39699D01*
X49547Y-39849D01*
X49743Y-39931D01*
X49955Y-39931D01*
X50177Y-39931D01*
X50373Y-39850D01*
X50518Y-39705D01*
X51936Y-39705D01*
X51946Y-39702D01*
X51955Y-39704D01*
X52066Y-39696D01*
X52080Y-39730D01*
X52122Y-39772D01*
X52177Y-39794D01*
X52236Y-39794D01*
X52586Y-39794D01*
X52641Y-39771D01*
X52683Y-39729D01*
X52705Y-39674D01*
X52705Y-39615D01*
X52705Y-39065D01*
X52682Y-39010D01*
X52648Y-38976D01*
X52683Y-38942D01*
X52705Y-38887D01*
X52705Y-38828D01*
X52705Y-38278D01*
X52682Y-38223D01*
X52678Y-38219D01*
X52707Y-38219D01*
X52762Y-38196D01*
X52804Y-38154D01*
X52826Y-38099D01*
X52826Y-38082D01*
X52844Y-38126D01*
X52891Y-38173D01*
X52871Y-38182D01*
X52829Y-38224D01*
X52807Y-38279D01*
X52807Y-38338D01*
X52807Y-38888D01*
X52830Y-38943D01*
X52863Y-38976D01*
X52829Y-39011D01*
X52807Y-39066D01*
X52807Y-39125D01*
X52807Y-39675D01*
X52830Y-39730D01*
X52872Y-39772D01*
X52927Y-39794D01*
X52986Y-39794D01*
X53336Y-39794D01*
X53391Y-39771D01*
X53433Y-39729D01*
X53453Y-39677D01*
X53583Y-39677D01*
X53586Y-39676D01*
X53591Y-39677D01*
X53637Y-39666D01*
X53700Y-39654D01*
X53704Y-39650D01*
X53708Y-39650D01*
X53747Y-39621D01*
X53800Y-39587D01*
X53802Y-39583D01*
X53806Y-39581D01*
X53945Y-39434D01*
X53945Y-39454D01*
X54009Y-39610D01*
X54129Y-39730D01*
X54285Y-39795D01*
X54360Y-39795D01*
X54388Y-39823D01*
X54487Y-39889D01*
X54605Y-39912D01*
X54724Y-39889D01*
X54776Y-39854D01*
X55262Y-39854D01*
X55324Y-39893D01*
X55442Y-39913D01*
X55558Y-39887D01*
X55657Y-39817D01*
X55721Y-39716D01*
X55741Y-39598D01*
X55740Y-39559D01*
X55737Y-39548D01*
X55858Y-39548D01*
X55894Y-39532D01*
X55933Y-39548D01*
X55992Y-39548D01*
X56168Y-39548D01*
X56204Y-39532D01*
X56243Y-39548D01*
X56302Y-39548D01*
X56478Y-39548D01*
X56519Y-39530D01*
X56563Y-39548D01*
X56622Y-39548D01*
X56798Y-39548D01*
X56839Y-39530D01*
X56883Y-39548D01*
X56942Y-39548D01*
X57118Y-39548D01*
X57173Y-39525D01*
X57215Y-39483D01*
X57237Y-39428D01*
X57237Y-40107D01*
X49263Y-40107D01*
X49263Y-33908D01*
X65304Y-33908D01*
X65304Y-40107D01*
M02*
