M48
INCH,TZ
T1C0.025
T2C0.032
%
G90
G05
T1
X50224Y-37236
X50827Y-34567
X53205Y-37886
X53661Y-35000
X53937Y-35591
X54370Y-39370
X54646Y-35472
X55748Y-37283
X56260Y-36772
X57874Y-38740
X57874Y-39449
X57890Y-34969
X58492Y-34500
X58913Y-35059
X61732Y-37992
T2
X49961Y-34579
X49961Y-35579
X49961Y-38398
X49961Y-39398
X52402Y-37795
X52898Y-34461
X59213Y-37126
X59260Y-38256
X62480Y-34488
X63622Y-34488
X64606Y-35311
X64606Y-36311
X64606Y-37311
X64606Y-38311
T0
M30
