G04 (created by PCBNEW-RS274X (2011-05-25)-stable) date Thu 12 Dec 2013 15:20:29 GMT*
G01*
G70*
G90*
%MOIN*%
G04 Gerber Fmt 3.4, Leading zero omitted, Abs format*
%FSLAX34Y34*%
G04 APERTURE LIST*
%ADD10C,0.006000*%
%ADD11C,0.015000*%
%ADD12R,0.030000X0.020000*%
%ADD13R,0.100000X0.050000*%
%ADD14R,0.055000X0.035000*%
%ADD15R,0.047200X0.059100*%
%ADD16R,0.035000X0.055000*%
%ADD17R,0.055000X0.055000*%
%ADD18C,0.078700*%
%ADD19O,0.098400X0.078700*%
%ADD20R,0.060000X0.080000*%
%ADD21R,0.020000X0.030000*%
%ADD22R,0.078700X0.078700*%
%ADD23O,0.078700X0.078700*%
%ADD24R,0.098400X0.078700*%
%ADD25R,0.036000X0.036000*%
%ADD26R,0.059100X0.059100*%
%ADD27C,0.055100*%
%ADD28C,0.019700*%
%ADD29C,0.031500*%
%ADD30C,0.023600*%
%ADD31C,0.010000*%
G04 APERTURE END LIST*
G54D10*
G54D11*
X49016Y-40354D02*
X49016Y-33661D01*
X65551Y-40354D02*
X49016Y-40354D01*
X65551Y-33661D02*
X65551Y-40354D01*
X49016Y-33661D02*
X65551Y-33661D01*
G54D12*
X51783Y-36910D03*
X51783Y-36160D03*
X52783Y-36910D03*
X51783Y-36535D03*
X52783Y-36160D03*
G54D13*
X63464Y-37313D03*
X63464Y-38513D03*
G54D14*
X50866Y-35806D03*
X50866Y-36556D03*
G54D15*
X63050Y-35472D03*
X63800Y-35472D03*
X63525Y-36299D03*
X62775Y-36299D03*
G54D16*
X53761Y-38661D03*
X53011Y-38661D03*
X51554Y-34685D03*
X52304Y-34685D03*
X51318Y-39252D03*
X52068Y-39252D03*
X54389Y-36142D03*
X55139Y-36142D03*
G54D14*
X51535Y-37538D03*
X51535Y-38288D03*
G54D16*
X51869Y-35472D03*
X52619Y-35472D03*
G54D14*
X55039Y-38168D03*
X55039Y-38918D03*
X53740Y-37068D03*
X53740Y-36318D03*
G54D17*
X52402Y-37795D03*
G54D18*
X63622Y-34488D03*
X62480Y-34488D03*
G54D19*
X59260Y-38256D03*
G54D18*
X52898Y-34461D03*
G54D20*
X59941Y-38780D03*
X61241Y-38780D03*
G54D21*
X56406Y-36126D03*
X55656Y-36126D03*
X56406Y-35126D03*
X56031Y-36126D03*
X55656Y-35126D03*
G54D16*
X57422Y-36732D03*
X56672Y-36732D03*
X57422Y-37520D03*
X56672Y-37520D03*
X60318Y-37835D03*
X61068Y-37835D03*
G54D22*
X64606Y-38311D03*
G54D18*
X64606Y-37311D03*
G54D23*
X64606Y-36311D03*
G54D18*
X64606Y-35311D03*
G54D24*
X49961Y-34579D03*
G54D18*
X49961Y-35579D03*
G54D24*
X49961Y-38398D03*
G54D19*
X49961Y-39398D03*
G54D25*
X60781Y-35477D03*
X60781Y-36177D03*
X61581Y-35827D03*
G54D26*
X59213Y-37126D03*
G54D27*
X61732Y-37992D03*
X56260Y-36772D03*
X55748Y-37283D03*
X58492Y-34500D03*
X57874Y-38740D03*
X53205Y-37886D03*
X53937Y-35591D03*
X57890Y-34969D03*
X58913Y-35059D03*
X50827Y-34567D03*
X53661Y-35000D03*
X54646Y-35472D03*
X57874Y-39449D03*
X54370Y-39370D03*
X50224Y-37236D03*
G54D28*
X63464Y-36851D02*
X62560Y-36851D01*
X62560Y-36851D02*
X62520Y-36891D01*
G54D29*
X62520Y-36891D02*
X62520Y-37992D01*
X62520Y-37992D02*
X61732Y-37992D01*
G54D28*
X63976Y-36850D02*
X63976Y-36339D01*
X63976Y-36299D02*
X63525Y-36299D01*
X63976Y-36339D02*
X63976Y-36299D01*
X64606Y-37311D02*
X64252Y-36850D01*
X64252Y-36850D02*
X63976Y-36850D01*
X63464Y-36851D02*
X63464Y-37313D01*
X63465Y-36850D02*
X63464Y-36851D01*
X63976Y-36850D02*
X63465Y-36850D01*
G54D29*
X52898Y-34461D02*
X52304Y-34685D01*
X63800Y-35472D02*
X64252Y-35472D01*
X64602Y-35315D02*
X64606Y-35311D01*
X64252Y-35472D02*
X64602Y-35315D01*
X52441Y-38661D02*
X53011Y-38661D01*
X52402Y-37795D02*
X52441Y-38661D01*
X56260Y-36772D02*
X56672Y-36732D01*
X56399Y-36399D02*
X56406Y-36126D01*
X56260Y-36772D02*
X56399Y-36399D01*
X55748Y-37283D02*
X55669Y-36772D01*
X55669Y-36772D02*
X55656Y-36126D01*
X55748Y-37283D02*
X56672Y-37520D01*
X59260Y-38256D02*
X59173Y-38780D01*
X59173Y-38780D02*
X59173Y-38740D01*
X59173Y-38740D02*
X59173Y-38780D01*
X59941Y-38780D02*
X59173Y-38780D01*
X59173Y-38780D02*
X57914Y-38780D01*
X57914Y-38780D02*
X57874Y-38740D01*
X59260Y-38256D02*
X58425Y-38228D01*
X58268Y-35551D02*
X58327Y-35492D01*
X58268Y-38071D02*
X58268Y-35551D01*
X58425Y-38228D02*
X58268Y-38071D01*
G54D28*
X58492Y-34500D02*
X58327Y-35492D01*
G54D29*
X57422Y-36732D02*
X57795Y-36732D01*
X57422Y-37520D02*
X57795Y-37559D01*
X57795Y-37559D02*
X57769Y-38306D01*
X57769Y-38306D02*
X57874Y-38740D01*
X54389Y-36142D02*
X54389Y-35964D01*
G54D28*
X54389Y-35964D02*
X53937Y-35591D01*
G54D29*
X59260Y-38256D02*
X59827Y-38028D01*
G54D28*
X60051Y-37839D02*
X60318Y-37835D01*
X59827Y-38028D02*
X60051Y-37839D01*
X57874Y-38740D02*
X57914Y-38780D01*
G54D29*
X53761Y-38661D02*
X54056Y-38661D01*
X54056Y-38661D02*
X54134Y-38583D01*
X54134Y-38583D02*
X54134Y-37910D01*
X55039Y-38168D02*
X55039Y-37835D01*
X55039Y-37835D02*
X54488Y-37598D01*
G54D28*
X53740Y-37068D02*
X52893Y-37068D01*
X52902Y-37059D02*
X52783Y-36910D01*
X52893Y-37068D02*
X52902Y-37059D01*
G54D29*
X54488Y-37480D02*
X53820Y-37480D01*
X53820Y-37480D02*
X53742Y-37402D01*
X53742Y-37402D02*
X53742Y-37070D01*
X53742Y-37070D02*
X53740Y-37068D01*
X53205Y-37886D02*
X54134Y-37910D01*
G54D28*
X54567Y-36102D02*
X53937Y-35591D01*
G54D29*
X54417Y-37917D02*
X54488Y-37598D01*
X54134Y-37910D02*
X54417Y-37917D01*
G54D28*
X54488Y-37598D02*
X54488Y-37480D01*
G54D29*
X54488Y-37480D02*
X54567Y-36102D01*
G54D30*
X54370Y-34882D02*
X55669Y-34685D01*
G54D29*
X53937Y-35591D02*
X54370Y-34882D01*
G54D30*
X57165Y-34961D02*
X56614Y-34685D01*
G54D29*
X57756Y-36378D02*
X57165Y-34961D01*
X57795Y-36732D02*
X57756Y-36378D01*
G54D30*
X56614Y-34685D02*
X55669Y-34685D01*
G54D28*
X55669Y-34685D02*
X55656Y-35126D01*
G54D29*
X57795Y-36732D02*
X57795Y-37559D01*
G54D30*
X53661Y-35000D02*
X53662Y-35000D01*
X53662Y-35000D02*
X54331Y-34331D01*
X54331Y-34331D02*
X57401Y-34331D01*
X57401Y-34331D02*
X57890Y-34969D01*
G54D29*
X58913Y-35059D02*
X59961Y-35472D01*
G54D30*
X59961Y-35472D02*
X59961Y-35472D01*
G54D29*
X61068Y-37835D02*
X61181Y-37835D01*
G54D28*
X61181Y-37835D02*
X61260Y-37756D01*
X61260Y-37756D02*
X61260Y-37323D01*
G54D29*
X61260Y-37323D02*
X61220Y-37283D01*
G54D28*
X59803Y-37638D02*
X58661Y-37638D01*
X59988Y-37311D02*
X59803Y-37638D01*
X61220Y-37283D02*
X59988Y-37311D01*
X58661Y-37638D02*
X58661Y-36654D01*
G54D29*
X58962Y-36485D02*
X59961Y-35472D01*
G54D28*
X58661Y-36654D02*
X58962Y-36485D01*
G54D29*
X60472Y-35472D02*
X60781Y-35477D01*
X59961Y-35472D02*
X60472Y-35472D01*
G54D28*
X61068Y-37835D02*
X61024Y-37835D01*
G54D29*
X55139Y-36142D02*
X55039Y-37244D01*
G54D28*
X55039Y-37244D02*
X55354Y-37638D01*
G54D29*
X55139Y-36142D02*
X55139Y-35551D01*
X55139Y-35551D02*
X55157Y-35551D01*
X51554Y-34685D02*
X50827Y-34567D01*
X49961Y-34567D02*
X49961Y-34579D01*
X50827Y-34567D02*
X49961Y-34567D01*
G54D28*
X53780Y-34882D02*
X53661Y-35000D01*
X52619Y-35472D02*
X53150Y-35472D01*
G54D29*
X52783Y-36160D02*
X53268Y-35945D01*
X53780Y-36278D02*
X53740Y-36318D01*
G54D28*
X53701Y-36024D02*
X53780Y-36278D01*
X53268Y-35945D02*
X53701Y-36024D01*
X53661Y-35000D02*
X53150Y-35472D01*
G54D29*
X53150Y-35472D02*
X52783Y-36160D01*
X54567Y-35551D02*
X55157Y-35551D01*
X54646Y-35472D02*
X54567Y-35551D01*
X55039Y-38918D02*
X55039Y-39331D01*
X55039Y-39331D02*
X55709Y-39331D01*
X55709Y-39331D02*
X57874Y-39449D01*
X56399Y-35530D02*
X56242Y-35530D01*
G54D28*
X56024Y-35748D02*
X56031Y-36126D01*
G54D29*
X56242Y-35530D02*
X56024Y-35748D01*
X55709Y-39331D02*
X55709Y-37835D01*
G54D28*
X55709Y-37835D02*
X55354Y-37638D01*
G54D29*
X56399Y-35530D02*
X56406Y-35126D01*
X56378Y-35551D02*
X56399Y-35530D01*
X55157Y-35551D02*
X56378Y-35551D01*
X57874Y-39449D02*
X59134Y-39449D01*
X59134Y-39449D02*
X59133Y-39448D01*
X59133Y-39448D02*
X61850Y-39449D01*
X61850Y-39449D02*
X61850Y-38976D01*
G54D28*
X61260Y-38780D02*
X61241Y-38780D01*
G54D29*
X61260Y-38268D02*
X61260Y-38780D01*
G54D28*
X61024Y-37835D02*
X61260Y-38268D01*
G54D29*
X63543Y-39016D02*
X61850Y-38976D01*
X61850Y-38976D02*
X61850Y-38780D01*
X61850Y-38780D02*
X61241Y-38780D01*
X64606Y-38311D02*
X64606Y-39016D01*
X64606Y-39016D02*
X63543Y-39016D01*
X63543Y-39016D02*
X63464Y-38513D01*
X61581Y-35827D02*
X62441Y-35827D01*
X62441Y-35827D02*
X62441Y-35472D01*
X62441Y-35472D02*
X63050Y-35472D01*
X62441Y-35827D02*
X62441Y-36260D01*
X62480Y-36299D02*
X62775Y-36299D01*
X62441Y-36260D02*
X62480Y-36299D01*
X54370Y-39370D02*
X54252Y-39488D01*
X54252Y-39488D02*
X52520Y-39488D01*
X52520Y-39488D02*
X52520Y-39291D01*
X52520Y-39291D02*
X52068Y-39252D01*
X51535Y-38288D02*
X51535Y-38661D01*
X51535Y-38661D02*
X50634Y-37783D01*
G54D28*
X50047Y-37780D02*
X49709Y-37512D01*
X50634Y-37783D02*
X50047Y-37780D01*
X49709Y-37512D02*
X49724Y-36614D01*
G54D29*
X49724Y-36614D02*
X50866Y-36556D01*
G54D28*
X51535Y-38288D02*
X51535Y-38544D01*
X50866Y-39252D02*
X51318Y-39252D01*
X50866Y-38819D02*
X50866Y-39252D01*
X50984Y-38701D02*
X50866Y-38819D01*
X51378Y-38701D02*
X50984Y-38701D01*
X51535Y-38544D02*
X51378Y-38701D01*
G54D29*
X50866Y-35806D02*
X50787Y-35709D01*
X50787Y-35709D02*
X50906Y-35590D01*
X50906Y-35590D02*
X51417Y-35590D01*
X51783Y-36160D02*
X51396Y-36160D01*
X51396Y-36160D02*
X51417Y-36139D01*
X51417Y-36139D02*
X51417Y-35590D01*
X51535Y-35472D02*
X51869Y-35472D01*
X51417Y-35590D02*
X51535Y-35472D01*
G54D28*
X51535Y-37538D02*
X51045Y-37538D01*
X51045Y-37538D02*
X50224Y-37236D01*
X51535Y-37538D02*
X51535Y-37363D01*
X51783Y-37115D02*
X51783Y-36910D01*
X51535Y-37363D02*
X51783Y-37115D01*
X51783Y-36910D02*
X51783Y-36535D01*
G54D29*
X59213Y-37126D02*
X59213Y-37125D01*
X59213Y-37125D02*
X60161Y-36177D01*
X60161Y-36177D02*
X60781Y-36177D01*
G54D10*
G36*
X65304Y-40107D02*
X65148Y-40107D01*
X65148Y-37420D01*
X65148Y-37204D01*
X65066Y-37005D01*
X64914Y-36852D01*
X64815Y-36810D01*
X64907Y-36773D01*
X65057Y-36624D01*
X65139Y-36428D01*
X65139Y-36216D01*
X65139Y-36196D01*
X65058Y-36000D01*
X64909Y-35850D01*
X64815Y-35810D01*
X64912Y-35771D01*
X65065Y-35619D01*
X65148Y-35420D01*
X65148Y-35204D01*
X65066Y-35005D01*
X64914Y-34852D01*
X64715Y-34769D01*
X64499Y-34769D01*
X64300Y-34851D01*
X64147Y-35003D01*
X64125Y-35055D01*
X64120Y-35050D01*
X64065Y-35028D01*
X64006Y-35028D01*
X63733Y-35028D01*
X63928Y-34948D01*
X64081Y-34796D01*
X64164Y-34597D01*
X64164Y-34381D01*
X64082Y-34182D01*
X63930Y-34029D01*
X63731Y-33946D01*
X63515Y-33946D01*
X63316Y-34028D01*
X63163Y-34180D01*
X63080Y-34379D01*
X63080Y-34595D01*
X63162Y-34794D01*
X63314Y-34947D01*
X63513Y-35030D01*
X63529Y-35030D01*
X63479Y-35051D01*
X63437Y-35093D01*
X63424Y-35123D01*
X63412Y-35092D01*
X63370Y-35050D01*
X63315Y-35028D01*
X63256Y-35028D01*
X63022Y-35028D01*
X63022Y-34597D01*
X63022Y-34381D01*
X62940Y-34182D01*
X62788Y-34029D01*
X62589Y-33946D01*
X62373Y-33946D01*
X62174Y-34028D01*
X62021Y-34180D01*
X61938Y-34379D01*
X61938Y-34595D01*
X62020Y-34794D01*
X62172Y-34947D01*
X62371Y-35030D01*
X62587Y-35030D01*
X62786Y-34948D01*
X62939Y-34796D01*
X63022Y-34597D01*
X63022Y-35028D01*
X62784Y-35028D01*
X62729Y-35051D01*
X62687Y-35093D01*
X62665Y-35148D01*
X62665Y-35165D01*
X62441Y-35165D01*
X62324Y-35188D01*
X62224Y-35255D01*
X62157Y-35355D01*
X62134Y-35472D01*
X62134Y-35520D01*
X61845Y-35520D01*
X61790Y-35498D01*
X61731Y-35498D01*
X61371Y-35498D01*
X61316Y-35521D01*
X61274Y-35563D01*
X61252Y-35618D01*
X61252Y-35677D01*
X61252Y-36037D01*
X61275Y-36092D01*
X61317Y-36134D01*
X61372Y-36156D01*
X61431Y-36156D01*
X61791Y-36156D01*
X61843Y-36134D01*
X62134Y-36134D01*
X62134Y-36260D01*
X62157Y-36378D01*
X62224Y-36477D01*
X62263Y-36516D01*
X62362Y-36582D01*
X62363Y-36583D01*
X62390Y-36588D01*
X62390Y-36615D01*
X62303Y-36674D01*
X62236Y-36774D01*
X62213Y-36891D01*
X62213Y-37685D01*
X62026Y-37685D01*
X61973Y-37632D01*
X61817Y-37567D01*
X61648Y-37567D01*
X61492Y-37631D01*
X61372Y-37751D01*
X61307Y-37907D01*
X61307Y-38076D01*
X61371Y-38232D01*
X61491Y-38352D01*
X61647Y-38417D01*
X61816Y-38417D01*
X61972Y-38353D01*
X62026Y-38299D01*
X62520Y-38299D01*
X62637Y-38276D01*
X62737Y-38209D01*
X62804Y-38109D01*
X62827Y-37992D01*
X62827Y-37621D01*
X62838Y-37648D01*
X62880Y-37690D01*
X62935Y-37712D01*
X62994Y-37712D01*
X63994Y-37712D01*
X64049Y-37689D01*
X64091Y-37647D01*
X64113Y-37592D01*
X64113Y-37536D01*
X64146Y-37617D01*
X64298Y-37770D01*
X64497Y-37853D01*
X64713Y-37853D01*
X64912Y-37771D01*
X65065Y-37619D01*
X65148Y-37420D01*
X65148Y-40107D01*
X61110Y-40107D01*
X61110Y-36386D01*
X61110Y-36327D01*
X61110Y-35967D01*
X61087Y-35912D01*
X61045Y-35870D01*
X60990Y-35848D01*
X60931Y-35848D01*
X60571Y-35848D01*
X60518Y-35870D01*
X60161Y-35870D01*
X60044Y-35893D01*
X60042Y-35893D01*
X60042Y-35894D01*
X59943Y-35960D01*
X59221Y-36682D01*
X58888Y-36682D01*
X58833Y-36705D01*
X58791Y-36747D01*
X58769Y-36802D01*
X58769Y-36861D01*
X58769Y-37451D01*
X58792Y-37506D01*
X58834Y-37548D01*
X58889Y-37570D01*
X58948Y-37570D01*
X59538Y-37570D01*
X59593Y-37547D01*
X59635Y-37505D01*
X59657Y-37450D01*
X59657Y-37391D01*
X59657Y-37115D01*
X60288Y-36484D01*
X60517Y-36484D01*
X60572Y-36506D01*
X60631Y-36506D01*
X60991Y-36506D01*
X61046Y-36483D01*
X61088Y-36441D01*
X61110Y-36386D01*
X61110Y-40107D01*
X60642Y-40107D01*
X60642Y-38139D01*
X60642Y-38080D01*
X60642Y-37530D01*
X60619Y-37475D01*
X60577Y-37433D01*
X60522Y-37411D01*
X60463Y-37411D01*
X60113Y-37411D01*
X60058Y-37434D01*
X60016Y-37476D01*
X59994Y-37531D01*
X59994Y-37590D01*
X59994Y-37600D01*
X59976Y-37603D01*
X59964Y-37609D01*
X59952Y-37612D01*
X59926Y-37629D01*
X59891Y-37649D01*
X59799Y-37726D01*
X59712Y-37743D01*
X59617Y-37781D01*
X59478Y-37723D01*
X59266Y-37723D01*
X59044Y-37723D01*
X58848Y-37804D01*
X58720Y-37930D01*
X58575Y-37925D01*
X58575Y-35662D01*
X58610Y-35610D01*
X58634Y-35492D01*
X58610Y-35374D01*
X58600Y-35359D01*
X58679Y-34882D01*
X58732Y-34861D01*
X58852Y-34741D01*
X58917Y-34585D01*
X58917Y-34416D01*
X58853Y-34260D01*
X58733Y-34140D01*
X58577Y-34075D01*
X58408Y-34075D01*
X58252Y-34139D01*
X58132Y-34259D01*
X58067Y-34415D01*
X58067Y-34584D01*
X58131Y-34740D01*
X58189Y-34798D01*
X58111Y-35274D01*
X58110Y-35275D01*
X58051Y-35334D01*
X57984Y-35433D01*
X57961Y-35551D01*
X57961Y-36075D01*
X57448Y-34843D01*
X57382Y-34744D01*
X57282Y-34677D01*
X57164Y-34654D01*
X57154Y-34655D01*
X56734Y-34445D01*
X56725Y-34442D01*
X56717Y-34437D01*
X56677Y-34429D01*
X56633Y-34417D01*
X56621Y-34418D01*
X56614Y-34417D01*
X55669Y-34417D01*
X55645Y-34421D01*
X55628Y-34421D01*
X54464Y-34596D01*
X54418Y-34579D01*
X54297Y-34584D01*
X54188Y-34635D01*
X54107Y-34723D01*
X53831Y-35174D01*
X53697Y-35230D01*
X53577Y-35350D01*
X53512Y-35506D01*
X53512Y-35675D01*
X53576Y-35831D01*
X53696Y-35951D01*
X53852Y-36016D01*
X54021Y-36016D01*
X54048Y-36004D01*
X54065Y-36018D01*
X54065Y-36447D01*
X54088Y-36502D01*
X54130Y-36544D01*
X54185Y-36566D01*
X54233Y-36566D01*
X54198Y-37173D01*
X54164Y-37173D01*
X54164Y-36863D01*
X54141Y-36808D01*
X54099Y-36766D01*
X54044Y-36744D01*
X53985Y-36744D01*
X53440Y-36744D01*
X53440Y-34570D01*
X53440Y-34354D01*
X53358Y-34155D01*
X53206Y-34002D01*
X53007Y-33919D01*
X52791Y-33919D01*
X52592Y-34001D01*
X52439Y-34153D01*
X52393Y-34261D01*
X52099Y-34261D01*
X52044Y-34284D01*
X52002Y-34326D01*
X51980Y-34381D01*
X51980Y-34440D01*
X51980Y-34990D01*
X52003Y-35045D01*
X52006Y-35048D01*
X51664Y-35048D01*
X51609Y-35071D01*
X51567Y-35113D01*
X51546Y-35165D01*
X51535Y-35165D01*
X51418Y-35188D01*
X51416Y-35188D01*
X51416Y-35189D01*
X51365Y-35223D01*
X51318Y-35255D01*
X51317Y-35255D01*
X51317Y-35256D01*
X51290Y-35283D01*
X50906Y-35283D01*
X50789Y-35306D01*
X50689Y-35373D01*
X50580Y-35482D01*
X50561Y-35482D01*
X50506Y-35505D01*
X50503Y-35508D01*
X50503Y-35472D01*
X50421Y-35273D01*
X50269Y-35120D01*
X50070Y-35037D01*
X49854Y-35037D01*
X49655Y-35119D01*
X49502Y-35271D01*
X49419Y-35470D01*
X49419Y-35686D01*
X49501Y-35885D01*
X49653Y-36038D01*
X49852Y-36121D01*
X50068Y-36121D01*
X50267Y-36039D01*
X50420Y-35887D01*
X50442Y-35834D01*
X50442Y-36011D01*
X50465Y-36066D01*
X50507Y-36108D01*
X50562Y-36130D01*
X50621Y-36130D01*
X51094Y-36130D01*
X51089Y-36160D01*
X51103Y-36232D01*
X50561Y-36232D01*
X50506Y-36255D01*
X50493Y-36267D01*
X49708Y-36307D01*
X49593Y-36336D01*
X49496Y-36408D01*
X49434Y-36512D01*
X49417Y-36630D01*
X49446Y-36745D01*
X49473Y-36782D01*
X49461Y-37508D01*
X49464Y-37525D01*
X49463Y-37540D01*
X49471Y-37567D01*
X49478Y-37603D01*
X49487Y-37617D01*
X49492Y-37632D01*
X49513Y-37657D01*
X49531Y-37684D01*
X49543Y-37693D01*
X49555Y-37706D01*
X49893Y-37974D01*
X49924Y-37990D01*
X49951Y-38008D01*
X49965Y-38011D01*
X49979Y-38018D01*
X50011Y-38020D01*
X50046Y-38028D01*
X50447Y-38030D01*
X50898Y-38470D01*
X50889Y-38472D01*
X50840Y-38504D01*
X50808Y-38526D01*
X50691Y-38644D01*
X50637Y-38724D01*
X50618Y-38819D01*
X50618Y-39252D01*
X50637Y-39347D01*
X50691Y-39427D01*
X50771Y-39481D01*
X50866Y-39500D01*
X50994Y-39500D01*
X50994Y-39557D01*
X51017Y-39612D01*
X51059Y-39654D01*
X51114Y-39676D01*
X51173Y-39676D01*
X51523Y-39676D01*
X51578Y-39653D01*
X51620Y-39611D01*
X51642Y-39556D01*
X51642Y-39497D01*
X51642Y-38947D01*
X51641Y-38946D01*
X51652Y-38945D01*
X51652Y-38944D01*
X51656Y-38944D01*
X51726Y-38895D01*
X51752Y-38878D01*
X51752Y-38876D01*
X51754Y-38876D01*
X51775Y-38843D01*
X51819Y-38778D01*
X51819Y-38776D01*
X51842Y-38661D01*
X51842Y-38611D01*
X51895Y-38589D01*
X51937Y-38547D01*
X51959Y-38492D01*
X51959Y-38433D01*
X51959Y-38083D01*
X51936Y-38028D01*
X51894Y-37986D01*
X51839Y-37964D01*
X51780Y-37964D01*
X51259Y-37964D01*
X51076Y-37786D01*
X51128Y-37786D01*
X51134Y-37798D01*
X51176Y-37840D01*
X51231Y-37862D01*
X51290Y-37862D01*
X51840Y-37862D01*
X51895Y-37839D01*
X51937Y-37797D01*
X51959Y-37742D01*
X51959Y-37683D01*
X51959Y-37333D01*
X51946Y-37302D01*
X51958Y-37291D01*
X51958Y-37290D01*
X52012Y-37210D01*
X52028Y-37125D01*
X52029Y-37125D01*
X52060Y-37094D01*
X52082Y-37039D01*
X52082Y-36980D01*
X52082Y-36780D01*
X52059Y-36725D01*
X52056Y-36722D01*
X52060Y-36719D01*
X52082Y-36664D01*
X52082Y-36605D01*
X52082Y-36405D01*
X52059Y-36350D01*
X52056Y-36347D01*
X52060Y-36344D01*
X52082Y-36289D01*
X52082Y-36230D01*
X52082Y-36200D01*
X52090Y-36160D01*
X52082Y-36119D01*
X52082Y-36030D01*
X52059Y-35975D01*
X52017Y-35933D01*
X51962Y-35911D01*
X51952Y-35911D01*
X51929Y-35896D01*
X52074Y-35896D01*
X52129Y-35873D01*
X52171Y-35831D01*
X52193Y-35776D01*
X52193Y-35717D01*
X52193Y-35167D01*
X52170Y-35112D01*
X52167Y-35109D01*
X52509Y-35109D01*
X52564Y-35086D01*
X52606Y-35044D01*
X52628Y-34989D01*
X52628Y-34935D01*
X52789Y-35003D01*
X53005Y-35003D01*
X53204Y-34921D01*
X53357Y-34769D01*
X53440Y-34570D01*
X53440Y-36744D01*
X53435Y-36744D01*
X53380Y-36767D01*
X53338Y-36809D01*
X53333Y-36820D01*
X53082Y-36820D01*
X53082Y-36780D01*
X53059Y-36725D01*
X53017Y-36683D01*
X52962Y-36661D01*
X52903Y-36661D01*
X52603Y-36661D01*
X52548Y-36684D01*
X52506Y-36726D01*
X52484Y-36781D01*
X52484Y-36840D01*
X52484Y-37040D01*
X52507Y-37095D01*
X52549Y-37137D01*
X52604Y-37159D01*
X52663Y-37159D01*
X52664Y-37163D01*
X52718Y-37243D01*
X52798Y-37297D01*
X52893Y-37316D01*
X53333Y-37316D01*
X53339Y-37328D01*
X53381Y-37370D01*
X53435Y-37391D01*
X53435Y-37402D01*
X53458Y-37520D01*
X53495Y-37575D01*
X53446Y-37526D01*
X53290Y-37461D01*
X53121Y-37461D01*
X52965Y-37525D01*
X52845Y-37645D01*
X52826Y-37690D01*
X52826Y-37490D01*
X52803Y-37435D01*
X52761Y-37393D01*
X52706Y-37371D01*
X52647Y-37371D01*
X52097Y-37371D01*
X52042Y-37394D01*
X52000Y-37436D01*
X51978Y-37491D01*
X51978Y-37550D01*
X51978Y-38100D01*
X52001Y-38155D01*
X52043Y-38197D01*
X52098Y-38219D01*
X52113Y-38219D01*
X52134Y-38659D01*
X52134Y-38661D01*
X52134Y-38663D01*
X52135Y-38674D01*
X52143Y-38708D01*
X52157Y-38778D01*
X52161Y-38785D01*
X52163Y-38790D01*
X52187Y-38822D01*
X52190Y-38828D01*
X51863Y-38828D01*
X51808Y-38851D01*
X51766Y-38893D01*
X51744Y-38948D01*
X51744Y-39007D01*
X51744Y-39557D01*
X51767Y-39612D01*
X51809Y-39654D01*
X51864Y-39676D01*
X51923Y-39676D01*
X52273Y-39676D01*
X52281Y-39672D01*
X52303Y-39705D01*
X52403Y-39772D01*
X52520Y-39795D01*
X54252Y-39795D01*
X54274Y-39790D01*
X54285Y-39795D01*
X54454Y-39795D01*
X54610Y-39731D01*
X54730Y-39611D01*
X54795Y-39455D01*
X54795Y-39286D01*
X54731Y-39130D01*
X54611Y-39010D01*
X54455Y-38945D01*
X54286Y-38945D01*
X54130Y-39009D01*
X54010Y-39129D01*
X53988Y-39181D01*
X52805Y-39181D01*
X52804Y-39174D01*
X52774Y-39129D01*
X52754Y-39093D01*
X52744Y-39085D01*
X52737Y-39074D01*
X52694Y-39045D01*
X52660Y-39018D01*
X52648Y-39014D01*
X52637Y-39007D01*
X52590Y-38997D01*
X52546Y-38985D01*
X52392Y-38971D01*
X52392Y-38958D01*
X52441Y-38968D01*
X52687Y-38968D01*
X52710Y-39021D01*
X52752Y-39063D01*
X52807Y-39085D01*
X52866Y-39085D01*
X53216Y-39085D01*
X53271Y-39062D01*
X53313Y-39020D01*
X53335Y-38965D01*
X53335Y-38906D01*
X53335Y-38356D01*
X53312Y-38301D01*
X53445Y-38247D01*
X53491Y-38200D01*
X53827Y-38209D01*
X53827Y-38237D01*
X53556Y-38237D01*
X53501Y-38260D01*
X53459Y-38302D01*
X53437Y-38357D01*
X53437Y-38416D01*
X53437Y-38966D01*
X53460Y-39021D01*
X53502Y-39063D01*
X53557Y-39085D01*
X53616Y-39085D01*
X53966Y-39085D01*
X54021Y-39062D01*
X54063Y-39020D01*
X54085Y-38965D01*
X54085Y-38962D01*
X54173Y-38945D01*
X54174Y-38945D01*
X54273Y-38878D01*
X54351Y-38800D01*
X54417Y-38701D01*
X54418Y-38700D01*
X54441Y-38583D01*
X54441Y-38219D01*
X54470Y-38220D01*
X54498Y-38208D01*
X54527Y-38204D01*
X54553Y-38187D01*
X54582Y-38176D01*
X54604Y-38154D01*
X54615Y-38147D01*
X54615Y-38373D01*
X54638Y-38428D01*
X54680Y-38470D01*
X54735Y-38492D01*
X54794Y-38492D01*
X55344Y-38492D01*
X55399Y-38469D01*
X55441Y-38427D01*
X55463Y-38372D01*
X55463Y-38313D01*
X55463Y-37963D01*
X55440Y-37908D01*
X55398Y-37866D01*
X55346Y-37845D01*
X55346Y-37835D01*
X55323Y-37721D01*
X55323Y-37718D01*
X55274Y-37644D01*
X55258Y-37620D01*
X55256Y-37619D01*
X55256Y-37618D01*
X55209Y-37587D01*
X55160Y-37553D01*
X55157Y-37551D01*
X55156Y-37551D01*
X55154Y-37550D01*
X54799Y-37398D01*
X54874Y-36120D01*
X54858Y-36002D01*
X54797Y-35898D01*
X54711Y-35832D01*
X54690Y-35782D01*
X54648Y-35740D01*
X54593Y-35718D01*
X54562Y-35718D01*
X54506Y-35680D01*
X54419Y-35663D01*
X54362Y-35616D01*
X54362Y-35507D01*
X54356Y-35493D01*
X54583Y-35120D01*
X55407Y-34996D01*
X55407Y-35006D01*
X55407Y-35306D01*
X55430Y-35361D01*
X55472Y-35403D01*
X55527Y-35425D01*
X55586Y-35425D01*
X55786Y-35425D01*
X55841Y-35402D01*
X55883Y-35360D01*
X55905Y-35305D01*
X55905Y-35246D01*
X55905Y-35099D01*
X55909Y-34953D01*
X56550Y-34953D01*
X56902Y-35129D01*
X57392Y-36308D01*
X57217Y-36308D01*
X57162Y-36331D01*
X57120Y-36373D01*
X57098Y-36428D01*
X57098Y-36487D01*
X57098Y-37037D01*
X57121Y-37092D01*
X57155Y-37126D01*
X57120Y-37161D01*
X57098Y-37216D01*
X57098Y-37275D01*
X57098Y-37825D01*
X57121Y-37880D01*
X57163Y-37922D01*
X57218Y-37944D01*
X57277Y-37944D01*
X57474Y-37944D01*
X57462Y-38295D01*
X57469Y-38338D01*
X57471Y-38378D01*
X57505Y-38520D01*
X57449Y-38655D01*
X57449Y-38824D01*
X57513Y-38980D01*
X57633Y-39100D01*
X57789Y-39165D01*
X57958Y-39165D01*
X58114Y-39101D01*
X58128Y-39087D01*
X59173Y-39087D01*
X59492Y-39087D01*
X59492Y-39210D01*
X59515Y-39265D01*
X59557Y-39307D01*
X59612Y-39329D01*
X59671Y-39329D01*
X60271Y-39329D01*
X60326Y-39306D01*
X60368Y-39264D01*
X60390Y-39209D01*
X60390Y-39150D01*
X60390Y-38350D01*
X60367Y-38295D01*
X60331Y-38259D01*
X60523Y-38259D01*
X60578Y-38236D01*
X60620Y-38194D01*
X60642Y-38139D01*
X60642Y-40107D01*
X56996Y-40107D01*
X56996Y-37824D01*
X56996Y-37765D01*
X56996Y-37215D01*
X56973Y-37160D01*
X56939Y-37126D01*
X56974Y-37091D01*
X56996Y-37036D01*
X56996Y-36977D01*
X56996Y-36427D01*
X56973Y-36372D01*
X56931Y-36330D01*
X56876Y-36308D01*
X56817Y-36308D01*
X56708Y-36308D01*
X56713Y-36134D01*
X56693Y-36017D01*
X56655Y-35956D01*
X56655Y-35946D01*
X56632Y-35891D01*
X56590Y-35849D01*
X56535Y-35827D01*
X56476Y-35827D01*
X56450Y-35827D01*
X56414Y-35819D01*
X56367Y-35827D01*
X56276Y-35827D01*
X56221Y-35850D01*
X56179Y-35892D01*
X56157Y-35947D01*
X56157Y-35956D01*
X56125Y-36002D01*
X56099Y-36118D01*
X56093Y-36339D01*
X56075Y-36388D01*
X56020Y-36411D01*
X55969Y-36461D01*
X55963Y-36120D01*
X55937Y-36003D01*
X55905Y-35957D01*
X55905Y-35946D01*
X55882Y-35891D01*
X55840Y-35849D01*
X55785Y-35827D01*
X55726Y-35827D01*
X55694Y-35827D01*
X55650Y-35819D01*
X55614Y-35827D01*
X55526Y-35827D01*
X55471Y-35850D01*
X55429Y-35892D01*
X55407Y-35947D01*
X55407Y-35957D01*
X55370Y-36015D01*
X55349Y-36132D01*
X55363Y-36778D01*
X55366Y-36795D01*
X55366Y-36819D01*
X55398Y-37031D01*
X55388Y-37042D01*
X55323Y-37198D01*
X55323Y-37367D01*
X55387Y-37523D01*
X55507Y-37643D01*
X55663Y-37708D01*
X55832Y-37708D01*
X55962Y-37654D01*
X56348Y-37753D01*
X56348Y-37825D01*
X56371Y-37880D01*
X56413Y-37922D01*
X56468Y-37944D01*
X56527Y-37944D01*
X56877Y-37944D01*
X56932Y-37921D01*
X56974Y-37879D01*
X56996Y-37824D01*
X56996Y-40107D01*
X50605Y-40107D01*
X50605Y-39505D01*
X50605Y-39293D01*
X50524Y-39097D01*
X50375Y-38947D01*
X50179Y-38865D01*
X49967Y-38865D01*
X49745Y-38865D01*
X49549Y-38946D01*
X49399Y-39095D01*
X49317Y-39291D01*
X49317Y-39503D01*
X49398Y-39699D01*
X49547Y-39849D01*
X49743Y-39931D01*
X49955Y-39931D01*
X50177Y-39931D01*
X50373Y-39850D01*
X50523Y-39701D01*
X50605Y-39505D01*
X50605Y-40107D01*
X49263Y-40107D01*
X49263Y-33908D01*
X65304Y-33908D01*
X65304Y-40107D01*
X65304Y-40107D01*
G37*
G54D31*
X65304Y-40107D02*
X65148Y-40107D01*
X65148Y-37420D01*
X65148Y-37204D01*
X65066Y-37005D01*
X64914Y-36852D01*
X64815Y-36810D01*
X64907Y-36773D01*
X65057Y-36624D01*
X65139Y-36428D01*
X65139Y-36216D01*
X65139Y-36196D01*
X65058Y-36000D01*
X64909Y-35850D01*
X64815Y-35810D01*
X64912Y-35771D01*
X65065Y-35619D01*
X65148Y-35420D01*
X65148Y-35204D01*
X65066Y-35005D01*
X64914Y-34852D01*
X64715Y-34769D01*
X64499Y-34769D01*
X64300Y-34851D01*
X64147Y-35003D01*
X64125Y-35055D01*
X64120Y-35050D01*
X64065Y-35028D01*
X64006Y-35028D01*
X63733Y-35028D01*
X63928Y-34948D01*
X64081Y-34796D01*
X64164Y-34597D01*
X64164Y-34381D01*
X64082Y-34182D01*
X63930Y-34029D01*
X63731Y-33946D01*
X63515Y-33946D01*
X63316Y-34028D01*
X63163Y-34180D01*
X63080Y-34379D01*
X63080Y-34595D01*
X63162Y-34794D01*
X63314Y-34947D01*
X63513Y-35030D01*
X63529Y-35030D01*
X63479Y-35051D01*
X63437Y-35093D01*
X63424Y-35123D01*
X63412Y-35092D01*
X63370Y-35050D01*
X63315Y-35028D01*
X63256Y-35028D01*
X63022Y-35028D01*
X63022Y-34597D01*
X63022Y-34381D01*
X62940Y-34182D01*
X62788Y-34029D01*
X62589Y-33946D01*
X62373Y-33946D01*
X62174Y-34028D01*
X62021Y-34180D01*
X61938Y-34379D01*
X61938Y-34595D01*
X62020Y-34794D01*
X62172Y-34947D01*
X62371Y-35030D01*
X62587Y-35030D01*
X62786Y-34948D01*
X62939Y-34796D01*
X63022Y-34597D01*
X63022Y-35028D01*
X62784Y-35028D01*
X62729Y-35051D01*
X62687Y-35093D01*
X62665Y-35148D01*
X62665Y-35165D01*
X62441Y-35165D01*
X62324Y-35188D01*
X62224Y-35255D01*
X62157Y-35355D01*
X62134Y-35472D01*
X62134Y-35520D01*
X61845Y-35520D01*
X61790Y-35498D01*
X61731Y-35498D01*
X61371Y-35498D01*
X61316Y-35521D01*
X61274Y-35563D01*
X61252Y-35618D01*
X61252Y-35677D01*
X61252Y-36037D01*
X61275Y-36092D01*
X61317Y-36134D01*
X61372Y-36156D01*
X61431Y-36156D01*
X61791Y-36156D01*
X61843Y-36134D01*
X62134Y-36134D01*
X62134Y-36260D01*
X62157Y-36378D01*
X62224Y-36477D01*
X62263Y-36516D01*
X62362Y-36582D01*
X62363Y-36583D01*
X62390Y-36588D01*
X62390Y-36615D01*
X62303Y-36674D01*
X62236Y-36774D01*
X62213Y-36891D01*
X62213Y-37685D01*
X62026Y-37685D01*
X61973Y-37632D01*
X61817Y-37567D01*
X61648Y-37567D01*
X61492Y-37631D01*
X61372Y-37751D01*
X61307Y-37907D01*
X61307Y-38076D01*
X61371Y-38232D01*
X61491Y-38352D01*
X61647Y-38417D01*
X61816Y-38417D01*
X61972Y-38353D01*
X62026Y-38299D01*
X62520Y-38299D01*
X62637Y-38276D01*
X62737Y-38209D01*
X62804Y-38109D01*
X62827Y-37992D01*
X62827Y-37621D01*
X62838Y-37648D01*
X62880Y-37690D01*
X62935Y-37712D01*
X62994Y-37712D01*
X63994Y-37712D01*
X64049Y-37689D01*
X64091Y-37647D01*
X64113Y-37592D01*
X64113Y-37536D01*
X64146Y-37617D01*
X64298Y-37770D01*
X64497Y-37853D01*
X64713Y-37853D01*
X64912Y-37771D01*
X65065Y-37619D01*
X65148Y-37420D01*
X65148Y-40107D01*
X61110Y-40107D01*
X61110Y-36386D01*
X61110Y-36327D01*
X61110Y-35967D01*
X61087Y-35912D01*
X61045Y-35870D01*
X60990Y-35848D01*
X60931Y-35848D01*
X60571Y-35848D01*
X60518Y-35870D01*
X60161Y-35870D01*
X60044Y-35893D01*
X60042Y-35893D01*
X60042Y-35894D01*
X59943Y-35960D01*
X59221Y-36682D01*
X58888Y-36682D01*
X58833Y-36705D01*
X58791Y-36747D01*
X58769Y-36802D01*
X58769Y-36861D01*
X58769Y-37451D01*
X58792Y-37506D01*
X58834Y-37548D01*
X58889Y-37570D01*
X58948Y-37570D01*
X59538Y-37570D01*
X59593Y-37547D01*
X59635Y-37505D01*
X59657Y-37450D01*
X59657Y-37391D01*
X59657Y-37115D01*
X60288Y-36484D01*
X60517Y-36484D01*
X60572Y-36506D01*
X60631Y-36506D01*
X60991Y-36506D01*
X61046Y-36483D01*
X61088Y-36441D01*
X61110Y-36386D01*
X61110Y-40107D01*
X60642Y-40107D01*
X60642Y-38139D01*
X60642Y-38080D01*
X60642Y-37530D01*
X60619Y-37475D01*
X60577Y-37433D01*
X60522Y-37411D01*
X60463Y-37411D01*
X60113Y-37411D01*
X60058Y-37434D01*
X60016Y-37476D01*
X59994Y-37531D01*
X59994Y-37590D01*
X59994Y-37600D01*
X59976Y-37603D01*
X59964Y-37609D01*
X59952Y-37612D01*
X59926Y-37629D01*
X59891Y-37649D01*
X59799Y-37726D01*
X59712Y-37743D01*
X59617Y-37781D01*
X59478Y-37723D01*
X59266Y-37723D01*
X59044Y-37723D01*
X58848Y-37804D01*
X58720Y-37930D01*
X58575Y-37925D01*
X58575Y-35662D01*
X58610Y-35610D01*
X58634Y-35492D01*
X58610Y-35374D01*
X58600Y-35359D01*
X58679Y-34882D01*
X58732Y-34861D01*
X58852Y-34741D01*
X58917Y-34585D01*
X58917Y-34416D01*
X58853Y-34260D01*
X58733Y-34140D01*
X58577Y-34075D01*
X58408Y-34075D01*
X58252Y-34139D01*
X58132Y-34259D01*
X58067Y-34415D01*
X58067Y-34584D01*
X58131Y-34740D01*
X58189Y-34798D01*
X58111Y-35274D01*
X58110Y-35275D01*
X58051Y-35334D01*
X57984Y-35433D01*
X57961Y-35551D01*
X57961Y-36075D01*
X57448Y-34843D01*
X57382Y-34744D01*
X57282Y-34677D01*
X57164Y-34654D01*
X57154Y-34655D01*
X56734Y-34445D01*
X56725Y-34442D01*
X56717Y-34437D01*
X56677Y-34429D01*
X56633Y-34417D01*
X56621Y-34418D01*
X56614Y-34417D01*
X55669Y-34417D01*
X55645Y-34421D01*
X55628Y-34421D01*
X54464Y-34596D01*
X54418Y-34579D01*
X54297Y-34584D01*
X54188Y-34635D01*
X54107Y-34723D01*
X53831Y-35174D01*
X53697Y-35230D01*
X53577Y-35350D01*
X53512Y-35506D01*
X53512Y-35675D01*
X53576Y-35831D01*
X53696Y-35951D01*
X53852Y-36016D01*
X54021Y-36016D01*
X54048Y-36004D01*
X54065Y-36018D01*
X54065Y-36447D01*
X54088Y-36502D01*
X54130Y-36544D01*
X54185Y-36566D01*
X54233Y-36566D01*
X54198Y-37173D01*
X54164Y-37173D01*
X54164Y-36863D01*
X54141Y-36808D01*
X54099Y-36766D01*
X54044Y-36744D01*
X53985Y-36744D01*
X53440Y-36744D01*
X53440Y-34570D01*
X53440Y-34354D01*
X53358Y-34155D01*
X53206Y-34002D01*
X53007Y-33919D01*
X52791Y-33919D01*
X52592Y-34001D01*
X52439Y-34153D01*
X52393Y-34261D01*
X52099Y-34261D01*
X52044Y-34284D01*
X52002Y-34326D01*
X51980Y-34381D01*
X51980Y-34440D01*
X51980Y-34990D01*
X52003Y-35045D01*
X52006Y-35048D01*
X51664Y-35048D01*
X51609Y-35071D01*
X51567Y-35113D01*
X51546Y-35165D01*
X51535Y-35165D01*
X51418Y-35188D01*
X51416Y-35188D01*
X51416Y-35189D01*
X51365Y-35223D01*
X51318Y-35255D01*
X51317Y-35255D01*
X51317Y-35256D01*
X51290Y-35283D01*
X50906Y-35283D01*
X50789Y-35306D01*
X50689Y-35373D01*
X50580Y-35482D01*
X50561Y-35482D01*
X50506Y-35505D01*
X50503Y-35508D01*
X50503Y-35472D01*
X50421Y-35273D01*
X50269Y-35120D01*
X50070Y-35037D01*
X49854Y-35037D01*
X49655Y-35119D01*
X49502Y-35271D01*
X49419Y-35470D01*
X49419Y-35686D01*
X49501Y-35885D01*
X49653Y-36038D01*
X49852Y-36121D01*
X50068Y-36121D01*
X50267Y-36039D01*
X50420Y-35887D01*
X50442Y-35834D01*
X50442Y-36011D01*
X50465Y-36066D01*
X50507Y-36108D01*
X50562Y-36130D01*
X50621Y-36130D01*
X51094Y-36130D01*
X51089Y-36160D01*
X51103Y-36232D01*
X50561Y-36232D01*
X50506Y-36255D01*
X50493Y-36267D01*
X49708Y-36307D01*
X49593Y-36336D01*
X49496Y-36408D01*
X49434Y-36512D01*
X49417Y-36630D01*
X49446Y-36745D01*
X49473Y-36782D01*
X49461Y-37508D01*
X49464Y-37525D01*
X49463Y-37540D01*
X49471Y-37567D01*
X49478Y-37603D01*
X49487Y-37617D01*
X49492Y-37632D01*
X49513Y-37657D01*
X49531Y-37684D01*
X49543Y-37693D01*
X49555Y-37706D01*
X49893Y-37974D01*
X49924Y-37990D01*
X49951Y-38008D01*
X49965Y-38011D01*
X49979Y-38018D01*
X50011Y-38020D01*
X50046Y-38028D01*
X50447Y-38030D01*
X50898Y-38470D01*
X50889Y-38472D01*
X50840Y-38504D01*
X50808Y-38526D01*
X50691Y-38644D01*
X50637Y-38724D01*
X50618Y-38819D01*
X50618Y-39252D01*
X50637Y-39347D01*
X50691Y-39427D01*
X50771Y-39481D01*
X50866Y-39500D01*
X50994Y-39500D01*
X50994Y-39557D01*
X51017Y-39612D01*
X51059Y-39654D01*
X51114Y-39676D01*
X51173Y-39676D01*
X51523Y-39676D01*
X51578Y-39653D01*
X51620Y-39611D01*
X51642Y-39556D01*
X51642Y-39497D01*
X51642Y-38947D01*
X51641Y-38946D01*
X51652Y-38945D01*
X51652Y-38944D01*
X51656Y-38944D01*
X51726Y-38895D01*
X51752Y-38878D01*
X51752Y-38876D01*
X51754Y-38876D01*
X51775Y-38843D01*
X51819Y-38778D01*
X51819Y-38776D01*
X51842Y-38661D01*
X51842Y-38611D01*
X51895Y-38589D01*
X51937Y-38547D01*
X51959Y-38492D01*
X51959Y-38433D01*
X51959Y-38083D01*
X51936Y-38028D01*
X51894Y-37986D01*
X51839Y-37964D01*
X51780Y-37964D01*
X51259Y-37964D01*
X51076Y-37786D01*
X51128Y-37786D01*
X51134Y-37798D01*
X51176Y-37840D01*
X51231Y-37862D01*
X51290Y-37862D01*
X51840Y-37862D01*
X51895Y-37839D01*
X51937Y-37797D01*
X51959Y-37742D01*
X51959Y-37683D01*
X51959Y-37333D01*
X51946Y-37302D01*
X51958Y-37291D01*
X51958Y-37290D01*
X52012Y-37210D01*
X52028Y-37125D01*
X52029Y-37125D01*
X52060Y-37094D01*
X52082Y-37039D01*
X52082Y-36980D01*
X52082Y-36780D01*
X52059Y-36725D01*
X52056Y-36722D01*
X52060Y-36719D01*
X52082Y-36664D01*
X52082Y-36605D01*
X52082Y-36405D01*
X52059Y-36350D01*
X52056Y-36347D01*
X52060Y-36344D01*
X52082Y-36289D01*
X52082Y-36230D01*
X52082Y-36200D01*
X52090Y-36160D01*
X52082Y-36119D01*
X52082Y-36030D01*
X52059Y-35975D01*
X52017Y-35933D01*
X51962Y-35911D01*
X51952Y-35911D01*
X51929Y-35896D01*
X52074Y-35896D01*
X52129Y-35873D01*
X52171Y-35831D01*
X52193Y-35776D01*
X52193Y-35717D01*
X52193Y-35167D01*
X52170Y-35112D01*
X52167Y-35109D01*
X52509Y-35109D01*
X52564Y-35086D01*
X52606Y-35044D01*
X52628Y-34989D01*
X52628Y-34935D01*
X52789Y-35003D01*
X53005Y-35003D01*
X53204Y-34921D01*
X53357Y-34769D01*
X53440Y-34570D01*
X53440Y-36744D01*
X53435Y-36744D01*
X53380Y-36767D01*
X53338Y-36809D01*
X53333Y-36820D01*
X53082Y-36820D01*
X53082Y-36780D01*
X53059Y-36725D01*
X53017Y-36683D01*
X52962Y-36661D01*
X52903Y-36661D01*
X52603Y-36661D01*
X52548Y-36684D01*
X52506Y-36726D01*
X52484Y-36781D01*
X52484Y-36840D01*
X52484Y-37040D01*
X52507Y-37095D01*
X52549Y-37137D01*
X52604Y-37159D01*
X52663Y-37159D01*
X52664Y-37163D01*
X52718Y-37243D01*
X52798Y-37297D01*
X52893Y-37316D01*
X53333Y-37316D01*
X53339Y-37328D01*
X53381Y-37370D01*
X53435Y-37391D01*
X53435Y-37402D01*
X53458Y-37520D01*
X53495Y-37575D01*
X53446Y-37526D01*
X53290Y-37461D01*
X53121Y-37461D01*
X52965Y-37525D01*
X52845Y-37645D01*
X52826Y-37690D01*
X52826Y-37490D01*
X52803Y-37435D01*
X52761Y-37393D01*
X52706Y-37371D01*
X52647Y-37371D01*
X52097Y-37371D01*
X52042Y-37394D01*
X52000Y-37436D01*
X51978Y-37491D01*
X51978Y-37550D01*
X51978Y-38100D01*
X52001Y-38155D01*
X52043Y-38197D01*
X52098Y-38219D01*
X52113Y-38219D01*
X52134Y-38659D01*
X52134Y-38661D01*
X52134Y-38663D01*
X52135Y-38674D01*
X52143Y-38708D01*
X52157Y-38778D01*
X52161Y-38785D01*
X52163Y-38790D01*
X52187Y-38822D01*
X52190Y-38828D01*
X51863Y-38828D01*
X51808Y-38851D01*
X51766Y-38893D01*
X51744Y-38948D01*
X51744Y-39007D01*
X51744Y-39557D01*
X51767Y-39612D01*
X51809Y-39654D01*
X51864Y-39676D01*
X51923Y-39676D01*
X52273Y-39676D01*
X52281Y-39672D01*
X52303Y-39705D01*
X52403Y-39772D01*
X52520Y-39795D01*
X54252Y-39795D01*
X54274Y-39790D01*
X54285Y-39795D01*
X54454Y-39795D01*
X54610Y-39731D01*
X54730Y-39611D01*
X54795Y-39455D01*
X54795Y-39286D01*
X54731Y-39130D01*
X54611Y-39010D01*
X54455Y-38945D01*
X54286Y-38945D01*
X54130Y-39009D01*
X54010Y-39129D01*
X53988Y-39181D01*
X52805Y-39181D01*
X52804Y-39174D01*
X52774Y-39129D01*
X52754Y-39093D01*
X52744Y-39085D01*
X52737Y-39074D01*
X52694Y-39045D01*
X52660Y-39018D01*
X52648Y-39014D01*
X52637Y-39007D01*
X52590Y-38997D01*
X52546Y-38985D01*
X52392Y-38971D01*
X52392Y-38958D01*
X52441Y-38968D01*
X52687Y-38968D01*
X52710Y-39021D01*
X52752Y-39063D01*
X52807Y-39085D01*
X52866Y-39085D01*
X53216Y-39085D01*
X53271Y-39062D01*
X53313Y-39020D01*
X53335Y-38965D01*
X53335Y-38906D01*
X53335Y-38356D01*
X53312Y-38301D01*
X53445Y-38247D01*
X53491Y-38200D01*
X53827Y-38209D01*
X53827Y-38237D01*
X53556Y-38237D01*
X53501Y-38260D01*
X53459Y-38302D01*
X53437Y-38357D01*
X53437Y-38416D01*
X53437Y-38966D01*
X53460Y-39021D01*
X53502Y-39063D01*
X53557Y-39085D01*
X53616Y-39085D01*
X53966Y-39085D01*
X54021Y-39062D01*
X54063Y-39020D01*
X54085Y-38965D01*
X54085Y-38962D01*
X54173Y-38945D01*
X54174Y-38945D01*
X54273Y-38878D01*
X54351Y-38800D01*
X54417Y-38701D01*
X54418Y-38700D01*
X54441Y-38583D01*
X54441Y-38219D01*
X54470Y-38220D01*
X54498Y-38208D01*
X54527Y-38204D01*
X54553Y-38187D01*
X54582Y-38176D01*
X54604Y-38154D01*
X54615Y-38147D01*
X54615Y-38373D01*
X54638Y-38428D01*
X54680Y-38470D01*
X54735Y-38492D01*
X54794Y-38492D01*
X55344Y-38492D01*
X55399Y-38469D01*
X55441Y-38427D01*
X55463Y-38372D01*
X55463Y-38313D01*
X55463Y-37963D01*
X55440Y-37908D01*
X55398Y-37866D01*
X55346Y-37845D01*
X55346Y-37835D01*
X55323Y-37721D01*
X55323Y-37718D01*
X55274Y-37644D01*
X55258Y-37620D01*
X55256Y-37619D01*
X55256Y-37618D01*
X55209Y-37587D01*
X55160Y-37553D01*
X55157Y-37551D01*
X55156Y-37551D01*
X55154Y-37550D01*
X54799Y-37398D01*
X54874Y-36120D01*
X54858Y-36002D01*
X54797Y-35898D01*
X54711Y-35832D01*
X54690Y-35782D01*
X54648Y-35740D01*
X54593Y-35718D01*
X54562Y-35718D01*
X54506Y-35680D01*
X54419Y-35663D01*
X54362Y-35616D01*
X54362Y-35507D01*
X54356Y-35493D01*
X54583Y-35120D01*
X55407Y-34996D01*
X55407Y-35006D01*
X55407Y-35306D01*
X55430Y-35361D01*
X55472Y-35403D01*
X55527Y-35425D01*
X55586Y-35425D01*
X55786Y-35425D01*
X55841Y-35402D01*
X55883Y-35360D01*
X55905Y-35305D01*
X55905Y-35246D01*
X55905Y-35099D01*
X55909Y-34953D01*
X56550Y-34953D01*
X56902Y-35129D01*
X57392Y-36308D01*
X57217Y-36308D01*
X57162Y-36331D01*
X57120Y-36373D01*
X57098Y-36428D01*
X57098Y-36487D01*
X57098Y-37037D01*
X57121Y-37092D01*
X57155Y-37126D01*
X57120Y-37161D01*
X57098Y-37216D01*
X57098Y-37275D01*
X57098Y-37825D01*
X57121Y-37880D01*
X57163Y-37922D01*
X57218Y-37944D01*
X57277Y-37944D01*
X57474Y-37944D01*
X57462Y-38295D01*
X57469Y-38338D01*
X57471Y-38378D01*
X57505Y-38520D01*
X57449Y-38655D01*
X57449Y-38824D01*
X57513Y-38980D01*
X57633Y-39100D01*
X57789Y-39165D01*
X57958Y-39165D01*
X58114Y-39101D01*
X58128Y-39087D01*
X59173Y-39087D01*
X59492Y-39087D01*
X59492Y-39210D01*
X59515Y-39265D01*
X59557Y-39307D01*
X59612Y-39329D01*
X59671Y-39329D01*
X60271Y-39329D01*
X60326Y-39306D01*
X60368Y-39264D01*
X60390Y-39209D01*
X60390Y-39150D01*
X60390Y-38350D01*
X60367Y-38295D01*
X60331Y-38259D01*
X60523Y-38259D01*
X60578Y-38236D01*
X60620Y-38194D01*
X60642Y-38139D01*
X60642Y-40107D01*
X56996Y-40107D01*
X56996Y-37824D01*
X56996Y-37765D01*
X56996Y-37215D01*
X56973Y-37160D01*
X56939Y-37126D01*
X56974Y-37091D01*
X56996Y-37036D01*
X56996Y-36977D01*
X56996Y-36427D01*
X56973Y-36372D01*
X56931Y-36330D01*
X56876Y-36308D01*
X56817Y-36308D01*
X56708Y-36308D01*
X56713Y-36134D01*
X56693Y-36017D01*
X56655Y-35956D01*
X56655Y-35946D01*
X56632Y-35891D01*
X56590Y-35849D01*
X56535Y-35827D01*
X56476Y-35827D01*
X56450Y-35827D01*
X56414Y-35819D01*
X56367Y-35827D01*
X56276Y-35827D01*
X56221Y-35850D01*
X56179Y-35892D01*
X56157Y-35947D01*
X56157Y-35956D01*
X56125Y-36002D01*
X56099Y-36118D01*
X56093Y-36339D01*
X56075Y-36388D01*
X56020Y-36411D01*
X55969Y-36461D01*
X55963Y-36120D01*
X55937Y-36003D01*
X55905Y-35957D01*
X55905Y-35946D01*
X55882Y-35891D01*
X55840Y-35849D01*
X55785Y-35827D01*
X55726Y-35827D01*
X55694Y-35827D01*
X55650Y-35819D01*
X55614Y-35827D01*
X55526Y-35827D01*
X55471Y-35850D01*
X55429Y-35892D01*
X55407Y-35947D01*
X55407Y-35957D01*
X55370Y-36015D01*
X55349Y-36132D01*
X55363Y-36778D01*
X55366Y-36795D01*
X55366Y-36819D01*
X55398Y-37031D01*
X55388Y-37042D01*
X55323Y-37198D01*
X55323Y-37367D01*
X55387Y-37523D01*
X55507Y-37643D01*
X55663Y-37708D01*
X55832Y-37708D01*
X55962Y-37654D01*
X56348Y-37753D01*
X56348Y-37825D01*
X56371Y-37880D01*
X56413Y-37922D01*
X56468Y-37944D01*
X56527Y-37944D01*
X56877Y-37944D01*
X56932Y-37921D01*
X56974Y-37879D01*
X56996Y-37824D01*
X56996Y-40107D01*
X50605Y-40107D01*
X50605Y-39505D01*
X50605Y-39293D01*
X50524Y-39097D01*
X50375Y-38947D01*
X50179Y-38865D01*
X49967Y-38865D01*
X49745Y-38865D01*
X49549Y-38946D01*
X49399Y-39095D01*
X49317Y-39291D01*
X49317Y-39503D01*
X49398Y-39699D01*
X49547Y-39849D01*
X49743Y-39931D01*
X49955Y-39931D01*
X50177Y-39931D01*
X50373Y-39850D01*
X50523Y-39701D01*
X50605Y-39505D01*
X50605Y-40107D01*
X49263Y-40107D01*
X49263Y-33908D01*
X65304Y-33908D01*
X65304Y-40107D01*
M02*
