G04 (created by PCBNEW-RS274X (2011-05-25)-stable) date Thu 12 Dec 2013 15:20:29 GMT*
G01*
G70*
G90*
%MOIN*%
G04 Gerber Fmt 3.4, Leading zero omitted, Abs format*
%FSLAX34Y34*%
G04 APERTURE LIST*
%ADD10C,0.006000*%
%ADD11C,0.015000*%
%ADD12C,0.012000*%
%ADD13C,0.007500*%
%ADD14C,0.005000*%
G04 APERTURE END LIST*
G54D10*
G54D11*
X49016Y-40354D02*
X49016Y-33661D01*
X65551Y-40354D02*
X49016Y-40354D01*
X65551Y-33661D02*
X65551Y-40354D01*
X49016Y-33661D02*
X65551Y-33661D01*
G54D12*
X57686Y-38067D02*
X57486Y-38867D01*
X57286Y-38067D01*
X56772Y-38867D02*
X57115Y-38867D01*
X56943Y-38867D02*
X56943Y-38067D01*
X57000Y-38181D01*
X57058Y-38257D01*
X57115Y-38295D01*
X56515Y-38791D02*
X56487Y-38829D01*
X56515Y-38867D01*
X56544Y-38829D01*
X56515Y-38791D01*
X56515Y-38867D01*
X56115Y-38067D02*
X56058Y-38067D01*
X56001Y-38105D01*
X55972Y-38143D01*
X55943Y-38219D01*
X55915Y-38372D01*
X55915Y-38562D01*
X55943Y-38714D01*
X55972Y-38791D01*
X56001Y-38829D01*
X56058Y-38867D01*
X56115Y-38867D01*
X56172Y-38829D01*
X56201Y-38791D01*
X56229Y-38714D01*
X56258Y-38562D01*
X56258Y-38372D01*
X56229Y-38219D01*
X56201Y-38143D01*
X56172Y-38105D01*
X56115Y-38067D01*
X57759Y-36033D02*
X57759Y-35614D01*
X57788Y-35538D01*
X57845Y-35499D01*
X57959Y-35499D01*
X58016Y-35538D01*
X57759Y-35995D02*
X57816Y-36033D01*
X57959Y-36033D01*
X58016Y-35995D01*
X58045Y-35919D01*
X58045Y-35842D01*
X58016Y-35766D01*
X57959Y-35728D01*
X57816Y-35728D01*
X57759Y-35690D01*
X57473Y-36033D02*
X57473Y-35499D01*
X57473Y-35233D02*
X57502Y-35271D01*
X57473Y-35309D01*
X57445Y-35271D01*
X57473Y-35233D01*
X57473Y-35309D01*
X57187Y-36033D02*
X57187Y-35499D01*
X57187Y-35652D02*
X57159Y-35576D01*
X57130Y-35538D01*
X57073Y-35499D01*
X57016Y-35499D01*
G54D13*
X54076Y-37995D02*
X54076Y-37695D01*
X53904Y-37995D01*
X53904Y-37695D01*
X53590Y-37995D02*
X53690Y-37853D01*
X53762Y-37995D02*
X53762Y-37695D01*
X53647Y-37695D01*
X53619Y-37710D01*
X53604Y-37724D01*
X53590Y-37753D01*
X53590Y-37795D01*
X53604Y-37824D01*
X53619Y-37838D01*
X53647Y-37853D01*
X53762Y-37853D01*
X53476Y-37981D02*
X53433Y-37995D01*
X53362Y-37995D01*
X53333Y-37981D01*
X53319Y-37967D01*
X53304Y-37938D01*
X53304Y-37910D01*
X53319Y-37881D01*
X53333Y-37867D01*
X53362Y-37853D01*
X53419Y-37838D01*
X53447Y-37824D01*
X53462Y-37810D01*
X53476Y-37781D01*
X53476Y-37753D01*
X53462Y-37724D01*
X53447Y-37710D01*
X53419Y-37695D01*
X53347Y-37695D01*
X53304Y-37710D01*
X53218Y-37695D02*
X53047Y-37695D01*
X53133Y-37995D02*
X53133Y-37695D01*
X54605Y-34570D02*
X54562Y-34585D01*
X54547Y-34599D01*
X54533Y-34627D01*
X54533Y-34670D01*
X54547Y-34699D01*
X54562Y-34713D01*
X54590Y-34727D01*
X54705Y-34727D01*
X54705Y-34427D01*
X54605Y-34427D01*
X54576Y-34442D01*
X54562Y-34456D01*
X54547Y-34485D01*
X54547Y-34513D01*
X54562Y-34542D01*
X54576Y-34556D01*
X54605Y-34570D01*
X54705Y-34570D01*
X54347Y-34427D02*
X54290Y-34427D01*
X54262Y-34442D01*
X54233Y-34470D01*
X54219Y-34527D01*
X54219Y-34627D01*
X54233Y-34685D01*
X54262Y-34713D01*
X54290Y-34727D01*
X54347Y-34727D01*
X54376Y-34713D01*
X54405Y-34685D01*
X54419Y-34627D01*
X54419Y-34527D01*
X54405Y-34470D01*
X54376Y-34442D01*
X54347Y-34427D01*
X54033Y-34427D02*
X53976Y-34427D01*
X53948Y-34442D01*
X53919Y-34470D01*
X53905Y-34527D01*
X53905Y-34627D01*
X53919Y-34685D01*
X53948Y-34713D01*
X53976Y-34727D01*
X54033Y-34727D01*
X54062Y-34713D01*
X54091Y-34685D01*
X54105Y-34627D01*
X54105Y-34527D01*
X54091Y-34470D01*
X54062Y-34442D01*
X54033Y-34427D01*
X53819Y-34427D02*
X53648Y-34427D01*
X53734Y-34727D02*
X53734Y-34427D01*
X53490Y-34427D02*
X53462Y-34427D01*
X53433Y-34442D01*
X53419Y-34456D01*
X53405Y-34485D01*
X53390Y-34542D01*
X53390Y-34613D01*
X53405Y-34670D01*
X53419Y-34699D01*
X53433Y-34713D01*
X53462Y-34727D01*
X53490Y-34727D01*
X53519Y-34713D01*
X53533Y-34699D01*
X53548Y-34670D01*
X53562Y-34613D01*
X53562Y-34542D01*
X53548Y-34485D01*
X53533Y-34456D01*
X53519Y-34442D01*
X53490Y-34427D01*
X59629Y-36790D02*
X59800Y-36790D01*
X59714Y-37090D02*
X59714Y-36790D01*
X59872Y-36790D02*
X60072Y-37090D01*
X60072Y-36790D02*
X59872Y-37090D01*
X60172Y-36819D02*
X60186Y-36805D01*
X60215Y-36790D01*
X60286Y-36790D01*
X60315Y-36805D01*
X60329Y-36819D01*
X60344Y-36848D01*
X60344Y-36876D01*
X60329Y-36919D01*
X60158Y-37090D01*
X60344Y-37090D01*
X58796Y-37971D02*
X58610Y-37971D01*
X58710Y-38086D01*
X58668Y-38086D01*
X58639Y-38100D01*
X58625Y-38114D01*
X58610Y-38143D01*
X58610Y-38214D01*
X58625Y-38243D01*
X58639Y-38257D01*
X58668Y-38271D01*
X58753Y-38271D01*
X58782Y-38257D01*
X58796Y-38243D01*
X58524Y-37971D02*
X58424Y-38271D01*
X58324Y-37971D01*
X58253Y-37971D02*
X58067Y-37971D01*
X58167Y-38086D01*
X58125Y-38086D01*
X58096Y-38100D01*
X58082Y-38114D01*
X58067Y-38143D01*
X58067Y-38214D01*
X58082Y-38243D01*
X58096Y-38257D01*
X58125Y-38271D01*
X58210Y-38271D01*
X58239Y-38257D01*
X58253Y-38243D01*
X62233Y-35152D02*
X62247Y-35195D01*
X62247Y-35266D01*
X62233Y-35295D01*
X62219Y-35309D01*
X62190Y-35324D01*
X62162Y-35324D01*
X62133Y-35309D01*
X62119Y-35295D01*
X62105Y-35266D01*
X62090Y-35209D01*
X62076Y-35181D01*
X62062Y-35166D01*
X62033Y-35152D01*
X62005Y-35152D01*
X61976Y-35166D01*
X61962Y-35181D01*
X61947Y-35209D01*
X61947Y-35281D01*
X61962Y-35324D01*
X61947Y-35424D02*
X62247Y-35495D01*
X62033Y-35552D01*
X62247Y-35610D01*
X61947Y-35681D01*
X62219Y-35967D02*
X62233Y-35953D01*
X62247Y-35910D01*
X62247Y-35881D01*
X62233Y-35838D01*
X62205Y-35810D01*
X62176Y-35795D01*
X62119Y-35781D01*
X62076Y-35781D01*
X62019Y-35795D01*
X61990Y-35810D01*
X61962Y-35838D01*
X61947Y-35881D01*
X61947Y-35910D01*
X61962Y-35953D01*
X61976Y-35967D01*
X62247Y-36095D02*
X61947Y-36095D01*
X62247Y-36267D02*
X62076Y-36138D01*
X61947Y-36267D02*
X62119Y-36095D01*
X62924Y-35053D02*
X62910Y-35010D01*
X62910Y-34939D01*
X62924Y-34910D01*
X62938Y-34896D01*
X62967Y-34881D01*
X62995Y-34881D01*
X63024Y-34896D01*
X63038Y-34910D01*
X63052Y-34939D01*
X63067Y-34996D01*
X63081Y-35024D01*
X63095Y-35039D01*
X63124Y-35053D01*
X63152Y-35053D01*
X63181Y-35039D01*
X63195Y-35024D01*
X63210Y-34996D01*
X63210Y-34924D01*
X63195Y-34881D01*
X63210Y-34781D02*
X62910Y-34710D01*
X63124Y-34653D01*
X62910Y-34595D01*
X63210Y-34524D01*
X62910Y-34410D02*
X63210Y-34410D01*
X63210Y-34338D01*
X63195Y-34295D01*
X63167Y-34267D01*
X63138Y-34252D01*
X63081Y-34238D01*
X63038Y-34238D01*
X62981Y-34252D01*
X62952Y-34267D01*
X62924Y-34295D01*
X62910Y-34338D01*
X62910Y-34410D01*
G54D12*
X60822Y-34357D02*
X60508Y-34357D01*
X60822Y-34891D01*
X60508Y-34891D01*
X60193Y-34891D02*
X60251Y-34853D01*
X60279Y-34815D01*
X60308Y-34738D01*
X60308Y-34510D01*
X60279Y-34434D01*
X60251Y-34396D01*
X60193Y-34357D01*
X60108Y-34357D01*
X60051Y-34396D01*
X60022Y-34434D01*
X59993Y-34510D01*
X59993Y-34738D01*
X60022Y-34815D01*
X60051Y-34853D01*
X60108Y-34891D01*
X60193Y-34891D01*
X59650Y-34891D02*
X59708Y-34853D01*
X59736Y-34815D01*
X59765Y-34738D01*
X59765Y-34510D01*
X59736Y-34434D01*
X59708Y-34396D01*
X59650Y-34357D01*
X59565Y-34357D01*
X59508Y-34396D01*
X59479Y-34434D01*
X59450Y-34510D01*
X59450Y-34738D01*
X59479Y-34815D01*
X59508Y-34853D01*
X59565Y-34891D01*
X59650Y-34891D01*
X59193Y-34891D02*
X59193Y-34357D01*
X59193Y-34434D02*
X59165Y-34396D01*
X59107Y-34357D01*
X59022Y-34357D01*
X58965Y-34396D01*
X58936Y-34472D01*
X58936Y-34891D01*
X58936Y-34472D02*
X58907Y-34396D01*
X58850Y-34357D01*
X58765Y-34357D01*
X58707Y-34396D01*
X58679Y-34472D01*
X58679Y-34891D01*
X58450Y-34357D02*
X58336Y-34891D01*
X58222Y-34510D01*
X58107Y-34891D01*
X57993Y-34357D01*
X57678Y-34891D02*
X57736Y-34853D01*
X57764Y-34815D01*
X57793Y-34738D01*
X57793Y-34510D01*
X57764Y-34434D01*
X57736Y-34396D01*
X57678Y-34357D01*
X57593Y-34357D01*
X57536Y-34396D01*
X57507Y-34434D01*
X57478Y-34510D01*
X57478Y-34738D01*
X57507Y-34815D01*
X57536Y-34853D01*
X57593Y-34891D01*
X57678Y-34891D01*
X57221Y-34891D02*
X57221Y-34357D01*
X57221Y-34510D02*
X57193Y-34434D01*
X57164Y-34396D01*
X57107Y-34357D01*
X57050Y-34357D01*
X56850Y-34891D02*
X56850Y-34091D01*
X56793Y-34586D02*
X56622Y-34891D01*
X56622Y-34357D02*
X56850Y-34662D01*
X56393Y-34853D02*
X56336Y-34891D01*
X56221Y-34891D01*
X56164Y-34853D01*
X56136Y-34777D01*
X56136Y-34738D01*
X56164Y-34662D01*
X56221Y-34624D01*
X56307Y-34624D01*
X56364Y-34586D01*
X56393Y-34510D01*
X56393Y-34472D01*
X56364Y-34396D01*
X56307Y-34357D01*
X56221Y-34357D01*
X56164Y-34396D01*
G54D14*
X52633Y-35935D02*
X51933Y-35935D01*
X51933Y-35935D02*
X51933Y-37135D01*
X51933Y-37135D02*
X52633Y-37135D01*
X52633Y-37135D02*
X52633Y-35935D01*
X64134Y-36963D02*
X64132Y-36976D01*
X64128Y-36989D01*
X64122Y-37001D01*
X64113Y-37012D01*
X64103Y-37021D01*
X64091Y-37027D01*
X64078Y-37031D01*
X64064Y-37032D01*
X64051Y-37031D01*
X64038Y-37027D01*
X64026Y-37021D01*
X64016Y-37013D01*
X64007Y-37002D01*
X64000Y-36990D01*
X63996Y-36977D01*
X63995Y-36963D01*
X63996Y-36951D01*
X63999Y-36938D01*
X64006Y-36926D01*
X64014Y-36915D01*
X64025Y-36906D01*
X64036Y-36899D01*
X64049Y-36895D01*
X64063Y-36894D01*
X64076Y-36895D01*
X64089Y-36898D01*
X64101Y-36904D01*
X64112Y-36913D01*
X64121Y-36923D01*
X64127Y-36935D01*
X64132Y-36948D01*
X64133Y-36962D01*
X64134Y-36963D01*
X62914Y-37613D02*
X62914Y-37013D01*
X62914Y-37013D02*
X64014Y-37013D01*
X64014Y-37013D02*
X64014Y-37613D01*
X64014Y-38213D02*
X64014Y-38813D01*
X64014Y-38813D02*
X62914Y-38813D01*
X62914Y-38813D02*
X62914Y-38213D01*
X51216Y-35531D02*
X51215Y-35540D01*
X51212Y-35550D01*
X51207Y-35558D01*
X51201Y-35566D01*
X51193Y-35572D01*
X51185Y-35577D01*
X51176Y-35579D01*
X51166Y-35580D01*
X51157Y-35580D01*
X51148Y-35577D01*
X51139Y-35572D01*
X51132Y-35566D01*
X51125Y-35559D01*
X51121Y-35550D01*
X51118Y-35541D01*
X51117Y-35531D01*
X51117Y-35522D01*
X51120Y-35513D01*
X51124Y-35504D01*
X51131Y-35497D01*
X51138Y-35490D01*
X51146Y-35486D01*
X51156Y-35483D01*
X51165Y-35482D01*
X51174Y-35482D01*
X51184Y-35485D01*
X51192Y-35489D01*
X51200Y-35495D01*
X51206Y-35503D01*
X51211Y-35511D01*
X51214Y-35520D01*
X51215Y-35530D01*
X51216Y-35531D01*
X51166Y-35981D02*
X51166Y-35581D01*
X51166Y-35581D02*
X50566Y-35581D01*
X50566Y-35581D02*
X50566Y-35981D01*
X50566Y-36381D02*
X50566Y-36781D01*
X50566Y-36781D02*
X51166Y-36781D01*
X51166Y-36781D02*
X51166Y-36381D01*
X62825Y-35172D02*
X62824Y-35181D01*
X62821Y-35191D01*
X62816Y-35199D01*
X62810Y-35207D01*
X62802Y-35213D01*
X62794Y-35218D01*
X62785Y-35220D01*
X62775Y-35221D01*
X62766Y-35221D01*
X62757Y-35218D01*
X62748Y-35213D01*
X62741Y-35207D01*
X62734Y-35200D01*
X62730Y-35191D01*
X62727Y-35182D01*
X62726Y-35172D01*
X62726Y-35163D01*
X62729Y-35154D01*
X62733Y-35145D01*
X62740Y-35138D01*
X62747Y-35131D01*
X62755Y-35127D01*
X62765Y-35124D01*
X62774Y-35123D01*
X62783Y-35123D01*
X62793Y-35126D01*
X62801Y-35130D01*
X62809Y-35136D01*
X62815Y-35144D01*
X62820Y-35152D01*
X62823Y-35161D01*
X62824Y-35171D01*
X62825Y-35172D01*
X63225Y-35172D02*
X62825Y-35172D01*
X62825Y-35172D02*
X62825Y-35772D01*
X62825Y-35772D02*
X63225Y-35772D01*
X63625Y-35772D02*
X64025Y-35772D01*
X64025Y-35772D02*
X64025Y-35172D01*
X64025Y-35172D02*
X63625Y-35172D01*
X63850Y-36599D02*
X63849Y-36608D01*
X63846Y-36618D01*
X63841Y-36626D01*
X63835Y-36634D01*
X63827Y-36640D01*
X63819Y-36645D01*
X63810Y-36647D01*
X63800Y-36648D01*
X63791Y-36648D01*
X63782Y-36645D01*
X63773Y-36640D01*
X63766Y-36634D01*
X63759Y-36627D01*
X63755Y-36618D01*
X63752Y-36609D01*
X63751Y-36599D01*
X63751Y-36590D01*
X63754Y-36581D01*
X63758Y-36572D01*
X63765Y-36565D01*
X63772Y-36558D01*
X63780Y-36554D01*
X63790Y-36551D01*
X63799Y-36550D01*
X63808Y-36550D01*
X63818Y-36553D01*
X63826Y-36557D01*
X63834Y-36563D01*
X63840Y-36571D01*
X63845Y-36579D01*
X63848Y-36588D01*
X63849Y-36598D01*
X63850Y-36599D01*
X63350Y-36599D02*
X63750Y-36599D01*
X63750Y-36599D02*
X63750Y-35999D01*
X63750Y-35999D02*
X63350Y-35999D01*
X62950Y-35999D02*
X62550Y-35999D01*
X62550Y-35999D02*
X62550Y-36599D01*
X62550Y-36599D02*
X62950Y-36599D01*
X54086Y-38961D02*
X54085Y-38970D01*
X54082Y-38980D01*
X54077Y-38988D01*
X54071Y-38996D01*
X54063Y-39002D01*
X54055Y-39007D01*
X54046Y-39009D01*
X54036Y-39010D01*
X54027Y-39010D01*
X54018Y-39007D01*
X54009Y-39002D01*
X54002Y-38996D01*
X53995Y-38989D01*
X53991Y-38980D01*
X53988Y-38971D01*
X53987Y-38961D01*
X53987Y-38952D01*
X53990Y-38943D01*
X53994Y-38934D01*
X54001Y-38927D01*
X54008Y-38920D01*
X54016Y-38916D01*
X54026Y-38913D01*
X54035Y-38912D01*
X54044Y-38912D01*
X54054Y-38915D01*
X54062Y-38919D01*
X54070Y-38925D01*
X54076Y-38933D01*
X54081Y-38941D01*
X54084Y-38950D01*
X54085Y-38960D01*
X54086Y-38961D01*
X53586Y-38961D02*
X53986Y-38961D01*
X53986Y-38961D02*
X53986Y-38361D01*
X53986Y-38361D02*
X53586Y-38361D01*
X53186Y-38361D02*
X52786Y-38361D01*
X52786Y-38361D02*
X52786Y-38961D01*
X52786Y-38961D02*
X53186Y-38961D01*
X51329Y-34385D02*
X51328Y-34394D01*
X51325Y-34404D01*
X51320Y-34412D01*
X51314Y-34420D01*
X51306Y-34426D01*
X51298Y-34431D01*
X51289Y-34433D01*
X51279Y-34434D01*
X51270Y-34434D01*
X51261Y-34431D01*
X51252Y-34426D01*
X51245Y-34420D01*
X51238Y-34413D01*
X51234Y-34404D01*
X51231Y-34395D01*
X51230Y-34385D01*
X51230Y-34376D01*
X51233Y-34367D01*
X51237Y-34358D01*
X51244Y-34351D01*
X51251Y-34344D01*
X51259Y-34340D01*
X51269Y-34337D01*
X51278Y-34336D01*
X51287Y-34336D01*
X51297Y-34339D01*
X51305Y-34343D01*
X51313Y-34349D01*
X51319Y-34357D01*
X51324Y-34365D01*
X51327Y-34374D01*
X51328Y-34384D01*
X51329Y-34385D01*
X51729Y-34385D02*
X51329Y-34385D01*
X51329Y-34385D02*
X51329Y-34985D01*
X51329Y-34985D02*
X51729Y-34985D01*
X52129Y-34985D02*
X52529Y-34985D01*
X52529Y-34985D02*
X52529Y-34385D01*
X52529Y-34385D02*
X52129Y-34385D01*
X51093Y-38952D02*
X51092Y-38961D01*
X51089Y-38971D01*
X51084Y-38979D01*
X51078Y-38987D01*
X51070Y-38993D01*
X51062Y-38998D01*
X51053Y-39000D01*
X51043Y-39001D01*
X51034Y-39001D01*
X51025Y-38998D01*
X51016Y-38993D01*
X51009Y-38987D01*
X51002Y-38980D01*
X50998Y-38971D01*
X50995Y-38962D01*
X50994Y-38952D01*
X50994Y-38943D01*
X50997Y-38934D01*
X51001Y-38925D01*
X51008Y-38918D01*
X51015Y-38911D01*
X51023Y-38907D01*
X51033Y-38904D01*
X51042Y-38903D01*
X51051Y-38903D01*
X51061Y-38906D01*
X51069Y-38910D01*
X51077Y-38916D01*
X51083Y-38924D01*
X51088Y-38932D01*
X51091Y-38941D01*
X51092Y-38951D01*
X51093Y-38952D01*
X51493Y-38952D02*
X51093Y-38952D01*
X51093Y-38952D02*
X51093Y-39552D01*
X51093Y-39552D02*
X51493Y-39552D01*
X51893Y-39552D02*
X52293Y-39552D01*
X52293Y-39552D02*
X52293Y-38952D01*
X52293Y-38952D02*
X51893Y-38952D01*
X54164Y-35842D02*
X54163Y-35851D01*
X54160Y-35861D01*
X54155Y-35869D01*
X54149Y-35877D01*
X54141Y-35883D01*
X54133Y-35888D01*
X54124Y-35890D01*
X54114Y-35891D01*
X54105Y-35891D01*
X54096Y-35888D01*
X54087Y-35883D01*
X54080Y-35877D01*
X54073Y-35870D01*
X54069Y-35861D01*
X54066Y-35852D01*
X54065Y-35842D01*
X54065Y-35833D01*
X54068Y-35824D01*
X54072Y-35815D01*
X54079Y-35808D01*
X54086Y-35801D01*
X54094Y-35797D01*
X54104Y-35794D01*
X54113Y-35793D01*
X54122Y-35793D01*
X54132Y-35796D01*
X54140Y-35800D01*
X54148Y-35806D01*
X54154Y-35814D01*
X54159Y-35822D01*
X54162Y-35831D01*
X54163Y-35841D01*
X54164Y-35842D01*
X54564Y-35842D02*
X54164Y-35842D01*
X54164Y-35842D02*
X54164Y-36442D01*
X54164Y-36442D02*
X54564Y-36442D01*
X54964Y-36442D02*
X55364Y-36442D01*
X55364Y-36442D02*
X55364Y-35842D01*
X55364Y-35842D02*
X54964Y-35842D01*
X51885Y-37263D02*
X51884Y-37272D01*
X51881Y-37282D01*
X51876Y-37290D01*
X51870Y-37298D01*
X51862Y-37304D01*
X51854Y-37309D01*
X51845Y-37311D01*
X51835Y-37312D01*
X51826Y-37312D01*
X51817Y-37309D01*
X51808Y-37304D01*
X51801Y-37298D01*
X51794Y-37291D01*
X51790Y-37282D01*
X51787Y-37273D01*
X51786Y-37263D01*
X51786Y-37254D01*
X51789Y-37245D01*
X51793Y-37236D01*
X51800Y-37229D01*
X51807Y-37222D01*
X51815Y-37218D01*
X51825Y-37215D01*
X51834Y-37214D01*
X51843Y-37214D01*
X51853Y-37217D01*
X51861Y-37221D01*
X51869Y-37227D01*
X51875Y-37235D01*
X51880Y-37243D01*
X51883Y-37252D01*
X51884Y-37262D01*
X51885Y-37263D01*
X51835Y-37713D02*
X51835Y-37313D01*
X51835Y-37313D02*
X51235Y-37313D01*
X51235Y-37313D02*
X51235Y-37713D01*
X51235Y-38113D02*
X51235Y-38513D01*
X51235Y-38513D02*
X51835Y-38513D01*
X51835Y-38513D02*
X51835Y-38113D01*
X51644Y-35172D02*
X51643Y-35181D01*
X51640Y-35191D01*
X51635Y-35199D01*
X51629Y-35207D01*
X51621Y-35213D01*
X51613Y-35218D01*
X51604Y-35220D01*
X51594Y-35221D01*
X51585Y-35221D01*
X51576Y-35218D01*
X51567Y-35213D01*
X51560Y-35207D01*
X51553Y-35200D01*
X51549Y-35191D01*
X51546Y-35182D01*
X51545Y-35172D01*
X51545Y-35163D01*
X51548Y-35154D01*
X51552Y-35145D01*
X51559Y-35138D01*
X51566Y-35131D01*
X51574Y-35127D01*
X51584Y-35124D01*
X51593Y-35123D01*
X51602Y-35123D01*
X51612Y-35126D01*
X51620Y-35130D01*
X51628Y-35136D01*
X51634Y-35144D01*
X51639Y-35152D01*
X51642Y-35161D01*
X51643Y-35171D01*
X51644Y-35172D01*
X52044Y-35172D02*
X51644Y-35172D01*
X51644Y-35172D02*
X51644Y-35772D01*
X51644Y-35772D02*
X52044Y-35772D01*
X52444Y-35772D02*
X52844Y-35772D01*
X52844Y-35772D02*
X52844Y-35172D01*
X52844Y-35172D02*
X52444Y-35172D01*
X55389Y-37893D02*
X55388Y-37902D01*
X55385Y-37912D01*
X55380Y-37920D01*
X55374Y-37928D01*
X55366Y-37934D01*
X55358Y-37939D01*
X55349Y-37941D01*
X55339Y-37942D01*
X55330Y-37942D01*
X55321Y-37939D01*
X55312Y-37934D01*
X55305Y-37928D01*
X55298Y-37921D01*
X55294Y-37912D01*
X55291Y-37903D01*
X55290Y-37893D01*
X55290Y-37884D01*
X55293Y-37875D01*
X55297Y-37866D01*
X55304Y-37859D01*
X55311Y-37852D01*
X55319Y-37848D01*
X55329Y-37845D01*
X55338Y-37844D01*
X55347Y-37844D01*
X55357Y-37847D01*
X55365Y-37851D01*
X55373Y-37857D01*
X55379Y-37865D01*
X55384Y-37873D01*
X55387Y-37882D01*
X55388Y-37892D01*
X55389Y-37893D01*
X55339Y-38343D02*
X55339Y-37943D01*
X55339Y-37943D02*
X54739Y-37943D01*
X54739Y-37943D02*
X54739Y-38343D01*
X54739Y-38743D02*
X54739Y-39143D01*
X54739Y-39143D02*
X55339Y-39143D01*
X55339Y-39143D02*
X55339Y-38743D01*
X53490Y-37343D02*
X53489Y-37352D01*
X53486Y-37362D01*
X53481Y-37370D01*
X53475Y-37378D01*
X53467Y-37384D01*
X53459Y-37389D01*
X53450Y-37391D01*
X53440Y-37392D01*
X53431Y-37392D01*
X53422Y-37389D01*
X53413Y-37384D01*
X53406Y-37378D01*
X53399Y-37371D01*
X53395Y-37362D01*
X53392Y-37353D01*
X53391Y-37343D01*
X53391Y-37334D01*
X53394Y-37325D01*
X53398Y-37316D01*
X53405Y-37309D01*
X53412Y-37302D01*
X53420Y-37298D01*
X53430Y-37295D01*
X53439Y-37294D01*
X53448Y-37294D01*
X53458Y-37297D01*
X53466Y-37301D01*
X53474Y-37307D01*
X53480Y-37315D01*
X53485Y-37323D01*
X53488Y-37332D01*
X53489Y-37342D01*
X53490Y-37343D01*
X53440Y-36893D02*
X53440Y-37293D01*
X53440Y-37293D02*
X54040Y-37293D01*
X54040Y-37293D02*
X54040Y-36893D01*
X54040Y-36493D02*
X54040Y-36093D01*
X54040Y-36093D02*
X53440Y-36093D01*
X53440Y-36093D02*
X53440Y-36493D01*
X59591Y-39230D02*
X59491Y-39230D01*
X59491Y-39230D02*
X59491Y-38330D01*
X59491Y-38330D02*
X59591Y-38330D01*
X59591Y-39230D02*
X59591Y-38330D01*
X59591Y-38330D02*
X60241Y-38330D01*
X60941Y-39230D02*
X61591Y-39230D01*
X61591Y-39230D02*
X61591Y-38330D01*
X61591Y-38330D02*
X60941Y-38330D01*
X60241Y-39230D02*
X59591Y-39230D01*
X55431Y-35276D02*
X55431Y-35976D01*
X55431Y-35976D02*
X56631Y-35976D01*
X56631Y-35976D02*
X56631Y-35276D01*
X56631Y-35276D02*
X55431Y-35276D01*
X57747Y-37032D02*
X57746Y-37041D01*
X57743Y-37051D01*
X57738Y-37059D01*
X57732Y-37067D01*
X57724Y-37073D01*
X57716Y-37078D01*
X57707Y-37080D01*
X57697Y-37081D01*
X57688Y-37081D01*
X57679Y-37078D01*
X57670Y-37073D01*
X57663Y-37067D01*
X57656Y-37060D01*
X57652Y-37051D01*
X57649Y-37042D01*
X57648Y-37032D01*
X57648Y-37023D01*
X57651Y-37014D01*
X57655Y-37005D01*
X57662Y-36998D01*
X57669Y-36991D01*
X57677Y-36987D01*
X57687Y-36984D01*
X57696Y-36983D01*
X57705Y-36983D01*
X57715Y-36986D01*
X57723Y-36990D01*
X57731Y-36996D01*
X57737Y-37004D01*
X57742Y-37012D01*
X57745Y-37021D01*
X57746Y-37031D01*
X57747Y-37032D01*
X57247Y-37032D02*
X57647Y-37032D01*
X57647Y-37032D02*
X57647Y-36432D01*
X57647Y-36432D02*
X57247Y-36432D01*
X56847Y-36432D02*
X56447Y-36432D01*
X56447Y-36432D02*
X56447Y-37032D01*
X56447Y-37032D02*
X56847Y-37032D01*
X57747Y-37820D02*
X57746Y-37829D01*
X57743Y-37839D01*
X57738Y-37847D01*
X57732Y-37855D01*
X57724Y-37861D01*
X57716Y-37866D01*
X57707Y-37868D01*
X57697Y-37869D01*
X57688Y-37869D01*
X57679Y-37866D01*
X57670Y-37861D01*
X57663Y-37855D01*
X57656Y-37848D01*
X57652Y-37839D01*
X57649Y-37830D01*
X57648Y-37820D01*
X57648Y-37811D01*
X57651Y-37802D01*
X57655Y-37793D01*
X57662Y-37786D01*
X57669Y-37779D01*
X57677Y-37775D01*
X57687Y-37772D01*
X57696Y-37771D01*
X57705Y-37771D01*
X57715Y-37774D01*
X57723Y-37778D01*
X57731Y-37784D01*
X57737Y-37792D01*
X57742Y-37800D01*
X57745Y-37809D01*
X57746Y-37819D01*
X57747Y-37820D01*
X57247Y-37820D02*
X57647Y-37820D01*
X57647Y-37820D02*
X57647Y-37220D01*
X57647Y-37220D02*
X57247Y-37220D01*
X56847Y-37220D02*
X56447Y-37220D01*
X56447Y-37220D02*
X56447Y-37820D01*
X56447Y-37820D02*
X56847Y-37820D01*
X60093Y-37535D02*
X60092Y-37544D01*
X60089Y-37554D01*
X60084Y-37562D01*
X60078Y-37570D01*
X60070Y-37576D01*
X60062Y-37581D01*
X60053Y-37583D01*
X60043Y-37584D01*
X60034Y-37584D01*
X60025Y-37581D01*
X60016Y-37576D01*
X60009Y-37570D01*
X60002Y-37563D01*
X59998Y-37554D01*
X59995Y-37545D01*
X59994Y-37535D01*
X59994Y-37526D01*
X59997Y-37517D01*
X60001Y-37508D01*
X60008Y-37501D01*
X60015Y-37494D01*
X60023Y-37490D01*
X60033Y-37487D01*
X60042Y-37486D01*
X60051Y-37486D01*
X60061Y-37489D01*
X60069Y-37493D01*
X60077Y-37499D01*
X60083Y-37507D01*
X60088Y-37515D01*
X60091Y-37524D01*
X60092Y-37534D01*
X60093Y-37535D01*
X60493Y-37535D02*
X60093Y-37535D01*
X60093Y-37535D02*
X60093Y-38135D01*
X60093Y-38135D02*
X60493Y-38135D01*
X60893Y-38135D02*
X61293Y-38135D01*
X61293Y-38135D02*
X61293Y-37535D01*
X61293Y-37535D02*
X60893Y-37535D01*
X61031Y-35227D02*
X61031Y-36427D01*
X61031Y-36427D02*
X61331Y-36427D01*
X61331Y-36427D02*
X61331Y-35227D01*
X61331Y-35227D02*
X61031Y-35227D01*
M02*
