G04 (created by PCBNEW-RS274X (2011-05-25)-stable) date Thu 25 Jun 2015 15:43:25 BST*
G01*
G70*
G90*
%MOIN*%
G04 Gerber Fmt 3.4, Leading zero omitted, Abs format*
%FSLAX34Y34*%
G04 APERTURE LIST*
%ADD10C,0.006000*%
%ADD11R,0.033000X0.037800*%
%ADD12R,0.042600X0.017600*%
%ADD13R,0.017600X0.027600*%
%ADD14R,0.037000X0.008200*%
%ADD15R,0.013300X0.017300*%
%ADD16R,0.037000X0.025200*%
%ADD17R,0.047600X0.012600*%
%ADD18R,0.057600X0.007400*%
%ADD19O,0.057600X0.007400*%
%ADD20O,0.007400X0.057600*%
%ADD21O,0.052700X0.207800*%
%ADD22R,0.042600X0.022600*%
%ADD23R,0.022600X0.042600*%
%ADD24O,0.068500X0.037000*%
%ADD25O,0.060600X0.025200*%
%ADD26O,0.037000X0.052700*%
%ADD27O,0.029100X0.056700*%
%ADD28O,0.037000X0.017300*%
%ADD29R,0.029000X0.029000*%
G04 APERTURE END LIST*
G54D10*
G54D11*
X00621Y01800D03*
X-00671Y01800D03*
X02871Y08850D03*
X01579Y08850D03*
G54D12*
X15043Y06811D03*
X15043Y06311D03*
X15043Y05811D03*
X15043Y05311D03*
X15043Y04811D03*
X15043Y04311D03*
X15043Y03811D03*
X15043Y03311D03*
X17043Y03311D03*
X17043Y03811D03*
X17043Y04311D03*
X17043Y04811D03*
X17043Y05311D03*
X17043Y05811D03*
X17043Y06311D03*
X17043Y06811D03*
G54D13*
X00825Y05875D03*
X01575Y05875D03*
X00825Y06875D03*
X01200Y05875D03*
X01575Y06875D03*
G54D14*
X04850Y06150D03*
X04850Y06350D03*
X04850Y06550D03*
X04850Y06750D03*
X04850Y06950D03*
X03100Y06950D03*
X03100Y06750D03*
X03100Y06550D03*
X03100Y06350D03*
X03100Y06150D03*
X03100Y08300D03*
X03100Y08100D03*
X03100Y07900D03*
X03100Y07700D03*
X03100Y07500D03*
X04850Y07500D03*
X04850Y07700D03*
X04850Y07900D03*
X04850Y08100D03*
X04850Y08300D03*
G54D15*
X02656Y02874D03*
X02144Y02874D03*
X02144Y02126D03*
X02400Y02126D03*
X02656Y02126D03*
G54D16*
X03950Y04900D03*
X03950Y04525D03*
X03950Y04150D03*
X02950Y04150D03*
X02950Y04525D03*
X02950Y04900D03*
G54D17*
X05075Y03659D03*
X05075Y03403D03*
X05075Y03147D03*
X05075Y02891D03*
X06775Y02891D03*
X06775Y03147D03*
X06775Y03403D03*
X06775Y03659D03*
G54D18*
X08739Y06526D03*
G54D19*
X08739Y06329D03*
X08739Y06132D03*
X08739Y05935D03*
X08739Y05738D03*
X08739Y05542D03*
X08739Y05345D03*
X08739Y05148D03*
X08739Y04951D03*
X08739Y04754D03*
X08739Y04557D03*
X08739Y04361D03*
X08739Y04164D03*
X08739Y03967D03*
X08739Y03770D03*
X08739Y03573D03*
G54D20*
X09574Y02675D03*
X09771Y02675D03*
X09968Y02675D03*
X10165Y02675D03*
X10362Y02675D03*
X10558Y02675D03*
X10755Y02675D03*
X10952Y02675D03*
X11149Y02675D03*
X11346Y02675D03*
X11543Y02675D03*
X11739Y02675D03*
X11936Y02675D03*
X12133Y02675D03*
X12330Y02675D03*
X12527Y02675D03*
G54D19*
X13425Y03573D03*
X13425Y03770D03*
X13425Y03967D03*
X13425Y04164D03*
X13425Y04361D03*
X13425Y04557D03*
X13425Y04754D03*
X13425Y04951D03*
X13425Y05148D03*
X13425Y05345D03*
X13425Y05542D03*
X13425Y05738D03*
X13425Y05935D03*
X13425Y06132D03*
X13425Y06329D03*
X13425Y06526D03*
G54D20*
X12527Y07361D03*
X12330Y07361D03*
X11936Y07361D03*
X12133Y07368D03*
X11739Y07361D03*
X11543Y07361D03*
X11346Y07361D03*
X11149Y07361D03*
X10952Y07361D03*
X10755Y07361D03*
X10561Y07361D03*
X10364Y07361D03*
X10167Y07361D03*
X09970Y07361D03*
X09774Y07361D03*
X09577Y07361D03*
G54D21*
X05784Y07225D03*
X06966Y07225D03*
G54D22*
X13550Y02450D03*
X13550Y03050D03*
G54D23*
X06475Y04625D03*
X07075Y04625D03*
X06475Y05850D03*
X07075Y05850D03*
X06475Y05250D03*
X07075Y05250D03*
G54D22*
X14125Y03350D03*
X14125Y02750D03*
G54D23*
X08900Y02600D03*
X08300Y02600D03*
G54D22*
X01875Y05125D03*
X01875Y04525D03*
G54D23*
X03450Y03550D03*
X02850Y03550D03*
X08300Y02050D03*
X08900Y02050D03*
X04200Y05600D03*
X03600Y05600D03*
X05375Y04225D03*
X04775Y04225D03*
G54D22*
X07525Y02725D03*
X07525Y02125D03*
G54D23*
X07975Y03500D03*
X07375Y03500D03*
X02125Y05600D03*
X02725Y05600D03*
G54D22*
X02250Y06300D03*
X02250Y06900D03*
X00275Y06675D03*
X00275Y07275D03*
X00275Y05625D03*
X00275Y06225D03*
X01875Y03475D03*
X01875Y04075D03*
G54D23*
X02325Y07575D03*
X01725Y07575D03*
G54D22*
X17725Y03750D03*
X17725Y03150D03*
G54D23*
X06150Y01975D03*
X05550Y01975D03*
G54D22*
X17700Y05125D03*
X17700Y04525D03*
X17717Y06483D03*
X17717Y05883D03*
G54D24*
X05300Y04750D03*
G54D25*
X07800Y07425D03*
G54D26*
X06775Y02400D03*
G54D23*
X00525Y07950D03*
X-00075Y07950D03*
G54D27*
X04275Y03550D03*
G54D28*
X07375Y03075D03*
G54D23*
X17050Y08000D03*
X17650Y08000D03*
X01200Y01625D03*
X01800Y01625D03*
G54D22*
X-01150Y08100D03*
X-01150Y07500D03*
G54D23*
X00950Y08850D03*
X00350Y08850D03*
G54D22*
X01350Y02925D03*
X01350Y02325D03*
G54D29*
X03255Y01675D03*
X03845Y01675D03*
X14530Y02150D03*
X15120Y02150D03*
X17005Y07350D03*
X17595Y07350D03*
M02*
