G04 (created by PCBNEW-RS274X (2011-05-25)-stable) date Fri 26 Jun 2015 07:16:06 BST*
G01*
G70*
G90*
%MOIN*%
G04 Gerber Fmt 3.4, Leading zero omitted, Abs format*
%FSLAX34Y34*%
G04 APERTURE LIST*
%ADD10C,0.006000*%
%ADD11C,0.015000*%
%ADD12O,0.047200X0.070900*%
%ADD13O,0.078300X0.051200*%
%ADD14C,0.078700*%
%ADD15R,0.055000X0.055000*%
%ADD16C,0.055000*%
%ADD17C,0.020000*%
%ADD18C,0.025000*%
%ADD19C,0.007900*%
%ADD20C,0.005000*%
%ADD21C,0.015700*%
%ADD22C,0.019700*%
%ADD23C,0.011800*%
%ADD24C,0.027600*%
%ADD25C,0.010000*%
G04 APERTURE END LIST*
G54D10*
G54D11*
X20100Y09750D02*
X18900Y10950D01*
X-01050Y10950D02*
X18900Y10950D01*
X-02100Y00950D02*
X-02100Y09900D01*
X20100Y00850D02*
X18700Y-00550D01*
X20100Y09750D02*
X20100Y00850D01*
X-00700Y-00550D02*
X18700Y-00550D01*
X-02100Y00950D02*
X-00700Y-00550D01*
X-02100Y09900D02*
X-01050Y10950D01*
G54D12*
X00500Y02750D03*
G54D13*
X00500Y03750D03*
G54D14*
X00500Y04750D03*
G54D15*
X-00500Y08750D03*
G54D14*
X-00500Y02750D03*
X-00500Y03750D03*
X-00500Y04750D03*
X-00500Y05750D03*
X-00500Y06750D03*
X18500Y02750D03*
X18500Y03750D03*
X18500Y04750D03*
X18500Y05750D03*
X18500Y06750D03*
X18500Y07750D03*
X-00500Y00750D03*
X00500Y00750D03*
X01500Y00750D03*
X02500Y00750D03*
X03500Y00750D03*
X04500Y00750D03*
X05500Y00750D03*
X06500Y00750D03*
X07500Y00750D03*
X08500Y00750D03*
X09500Y00750D03*
X10500Y00750D03*
X11500Y00750D03*
X12500Y00750D03*
X13500Y00750D03*
X14500Y00750D03*
X15500Y00750D03*
X16500Y00750D03*
X17500Y00750D03*
X18500Y00750D03*
X-00500Y09750D03*
X00500Y09750D03*
X01500Y09750D03*
X02500Y09750D03*
X03500Y09750D03*
X04500Y09750D03*
X05500Y09750D03*
X06500Y09750D03*
X07500Y09750D03*
X08500Y09750D03*
X09500Y09750D03*
X10500Y09750D03*
X11500Y09750D03*
X12500Y09750D03*
X13500Y09750D03*
X14500Y09750D03*
X15500Y09750D03*
X16500Y09750D03*
X17500Y09750D03*
X18500Y09750D03*
G54D15*
X14950Y08225D03*
G54D16*
X13950Y08225D03*
G54D17*
X10750Y03500D03*
X09950Y08575D03*
X09500Y03225D03*
X10525Y04675D03*
X07900Y03900D03*
X07950Y02900D03*
X07950Y07375D03*
X07950Y06450D03*
X11325Y06150D03*
X12050Y04900D03*
X10575Y06375D03*
X10375Y06975D03*
X11575Y03200D03*
X12150Y03775D03*
X11525Y06950D03*
X12400Y04350D03*
X14685Y05813D03*
X12825Y05625D03*
X10575Y05200D03*
X09875Y05650D03*
X12025Y01350D03*
X11350Y04750D03*
X11550Y04200D03*
X12200Y05675D03*
X12875Y08350D03*
X13300Y08025D03*
X12850Y06375D03*
X11625Y08400D03*
X11325Y09050D03*
X09875Y09175D03*
X11100Y08500D03*
X10950Y07750D03*
X08775Y09175D03*
X09600Y08225D03*
X08975Y08275D03*
X08600Y07375D03*
X08050Y08900D03*
X08450Y08175D03*
X07575Y08850D03*
X07775Y04500D03*
X08300Y04950D03*
X12100Y08900D03*
X11750Y07800D03*
X07450Y05425D03*
X07775Y05025D03*
X12875Y01450D03*
X11525Y05325D03*
X11550Y01525D03*
X10875Y01750D03*
X11125Y02175D03*
X11750Y02000D03*
G54D18*
X09275Y04150D03*
G54D17*
X15625Y08425D03*
X09200Y05775D03*
X12125Y06200D03*
X09825Y04400D03*
X09850Y03650D03*
X12150Y06800D03*
X04225Y02400D03*
X01900Y08025D03*
X10325Y03125D03*
X10775Y09000D03*
X12900Y03550D03*
X09375Y04650D03*
X12225Y08025D03*
G54D18*
X13925Y06375D03*
X16700Y07050D03*
X19193Y03270D03*
X19154Y04254D03*
X19193Y05199D03*
X19193Y06222D03*
X19193Y07207D03*
X19154Y08033D03*
X16675Y04575D03*
X17700Y04250D03*
X16634Y07719D03*
X16625Y06325D03*
G54D17*
X12375Y03325D03*
X14125Y04000D03*
X13525Y08900D03*
G54D18*
X15433Y06813D03*
X09125Y07775D03*
X03600Y02425D03*
X12775Y02125D03*
X15700Y03750D03*
X09200Y02600D03*
X04025Y04150D03*
X10375Y01900D03*
X13075Y06825D03*
X09350Y05225D03*
X08525Y06600D03*
X05050Y02450D03*
X05950Y04025D03*
X03675Y08450D03*
X03725Y07100D03*
X03200Y07175D03*
G54D17*
X03975Y08525D03*
X11125Y03125D03*
X18025Y01625D03*
X16650Y01675D03*
X15525Y02100D03*
X00975Y00175D03*
X02025Y00175D03*
X03000Y00225D03*
X03975Y00200D03*
X04975Y00225D03*
X06000Y00175D03*
X07000Y00225D03*
X08000Y00175D03*
X09050Y00150D03*
X09975Y00100D03*
X11000Y00100D03*
X12050Y00125D03*
X12950Y00175D03*
X14050Y00150D03*
X14925Y00125D03*
X15975Y00100D03*
X17050Y00100D03*
X18700Y00100D03*
X19250Y09100D03*
X19200Y09400D03*
X-01673Y08506D03*
X-01791Y07089D03*
X-01791Y06144D03*
X-01791Y05159D03*
X-01752Y04136D03*
X-01752Y03230D03*
X-01752Y02364D03*
X-01752Y01577D03*
X-01025Y04350D03*
X-01025Y05200D03*
X-00500Y07550D03*
X01000Y10400D03*
X02000Y10375D03*
X02975Y10425D03*
X03975Y10350D03*
X05000Y10400D03*
X05975Y10375D03*
X07000Y10375D03*
X08000Y10350D03*
X08975Y10325D03*
X10000Y10375D03*
X11000Y10400D03*
X12000Y10350D03*
X12975Y10350D03*
X14025Y10375D03*
X15000Y10400D03*
X16000Y10400D03*
G54D18*
X01050Y04075D03*
G54D17*
X10450Y05900D03*
G54D18*
X14087Y04565D03*
X13524Y03325D03*
X08362Y04352D03*
X07950Y07850D03*
X05325Y07550D03*
G54D17*
X04675Y03825D03*
G54D18*
X02475Y01525D03*
X03725Y06575D03*
X06250Y06525D03*
X06400Y07800D03*
X15425Y07525D03*
X15425Y06300D03*
X01800Y05450D03*
X13933Y05837D03*
X14350Y07025D03*
X04725Y05775D03*
X05525Y05825D03*
G54D17*
X02150Y08400D03*
G54D18*
X03850Y03425D03*
X02850Y04525D03*
X10475Y04050D03*
X09300Y01900D03*
X14550Y03325D03*
X08228Y05415D03*
X01325Y07725D03*
X04525Y07425D03*
X05975Y02950D03*
X01175Y05525D03*
X02250Y01875D03*
X03675Y07425D03*
X10225Y07850D03*
G54D17*
X14276Y05419D03*
X14500Y04900D03*
X04200Y01600D03*
G54D18*
X05800Y05675D03*
X07600Y06975D03*
X06975Y07850D03*
X01675Y06525D03*
X02675Y08050D03*
G54D17*
X02550Y05125D03*
G54D18*
X03375Y05025D03*
X02275Y03150D03*
X01225Y07100D03*
X02125Y08875D03*
G54D17*
X12700Y04925D03*
X12795Y07600D03*
X10600Y08300D03*
X11250Y03725D03*
X06775Y02275D03*
X03075Y02525D03*
X02575Y07200D03*
X04050Y07800D03*
X04425Y05600D03*
X05575Y03425D03*
X17075Y05325D03*
X16717Y04301D03*
X16875Y05825D03*
X17925Y05475D03*
G54D19*
X16625Y06325D02*
X17150Y06325D01*
X17150Y06325D02*
X17700Y05775D01*
X16634Y07719D02*
X16701Y07749D01*
X16701Y07749D02*
X17700Y06750D01*
X17700Y06750D02*
X17700Y05775D01*
X17700Y05775D02*
X17700Y04275D01*
X18500Y02750D02*
X18400Y02750D01*
X17700Y03450D02*
X17700Y04275D01*
X18400Y02750D02*
X17700Y03450D01*
X17700Y04275D02*
X17700Y04250D01*
X17375Y04575D02*
X17700Y04250D01*
X16675Y04575D02*
X17375Y04575D01*
G54D20*
X03550Y07775D02*
X03625Y07775D01*
X03975Y08125D02*
X03975Y08525D01*
X03625Y07775D02*
X03975Y08125D01*
G54D19*
X16500Y09750D02*
X15850Y09100D01*
X10975Y09325D02*
X10500Y09725D01*
X11350Y09250D02*
X10975Y09325D01*
X13625Y09175D02*
X11350Y09250D01*
X14025Y09100D02*
X13625Y09175D01*
X15850Y09100D02*
X14025Y09100D01*
X10500Y09725D02*
X10500Y09750D01*
G54D20*
X10475Y04050D02*
X10650Y04050D01*
X12100Y04075D02*
X12050Y04475D01*
X11125Y03125D02*
X12100Y04075D01*
X11175Y03525D02*
X11125Y03125D01*
X10650Y04050D02*
X11175Y03525D01*
X10475Y04050D02*
X10550Y04050D01*
X13025Y04500D02*
X13025Y04497D01*
G54D19*
X13025Y04497D02*
X13850Y05275D01*
X13850Y05275D02*
X13933Y05837D01*
G54D20*
X12050Y04475D02*
X12225Y04650D01*
X12225Y04650D02*
X12875Y04650D01*
X12875Y04650D02*
X13025Y04500D01*
X16500Y09750D02*
X17100Y09150D01*
X15450Y06300D02*
X15450Y06283D01*
X15750Y06600D02*
X15450Y06300D01*
X15750Y07750D02*
X15750Y06600D01*
X17000Y09000D02*
X15750Y07750D01*
X19150Y09000D02*
X17000Y09000D01*
X19250Y09100D02*
X19150Y09000D01*
X18950Y09150D02*
X19200Y09400D01*
X17100Y09150D02*
X18950Y09150D01*
X-00531Y08742D02*
X-00500Y08750D01*
X-01437Y08742D02*
X-00531Y08742D01*
X-01673Y08506D02*
X-01437Y08742D01*
X-01752Y01222D02*
X-01752Y01577D01*
X-00689Y00159D02*
X-01752Y01222D01*
X-00098Y00159D02*
X-00689Y00159D01*
X-00059Y00120D02*
X-00098Y00159D01*
G54D19*
X13524Y03325D02*
X14550Y03325D01*
X01225Y04925D02*
X01050Y04075D01*
X08362Y04352D02*
X08550Y04650D01*
X08550Y04650D02*
X08825Y04900D01*
X08825Y04900D02*
X08228Y05415D01*
X00500Y02750D02*
X-00500Y02750D01*
X00500Y00750D02*
X00500Y02750D01*
X02850Y04525D02*
X01225Y04925D01*
X01225Y04925D02*
X01175Y05525D01*
X04675Y03825D02*
X05525Y05825D01*
X02250Y01875D02*
X02900Y02750D01*
X03850Y03400D02*
X03850Y03425D01*
X02900Y02750D02*
X03850Y03400D01*
X05975Y02950D02*
X04325Y03000D01*
X04325Y03000D02*
X03850Y03425D01*
X00500Y00750D02*
X02250Y01875D01*
X02500Y00750D02*
X02625Y01450D01*
X07500Y00750D02*
X07300Y01350D01*
X02625Y01475D02*
X02625Y01450D01*
X04075Y01950D02*
X02625Y01475D01*
X07300Y01350D02*
X04075Y01950D01*
X02625Y01450D02*
X02625Y01465D01*
X07500Y00750D02*
X09300Y01900D01*
X12500Y00750D02*
X12075Y02500D01*
X12075Y02500D02*
X12075Y02506D01*
X06425Y07806D02*
X06475Y09725D01*
X06475Y09725D02*
X06500Y09750D01*
X15425Y07525D02*
X15975Y08525D01*
X16475Y09725D02*
X16500Y09750D01*
X15975Y08525D02*
X16475Y09725D01*
X06250Y06525D02*
X08100Y06100D01*
X08100Y06100D02*
X08300Y05600D01*
X08300Y05600D02*
X08228Y05415D01*
X10450Y05900D02*
X09675Y06825D01*
X09675Y06825D02*
X10225Y07825D01*
X10225Y07825D02*
X10225Y07850D01*
X-00500Y08750D02*
X00325Y08150D01*
X00325Y08150D02*
X01250Y07850D01*
X01250Y07850D02*
X01250Y07834D01*
X00500Y09750D02*
X00250Y08900D01*
X00250Y08900D02*
X-00500Y08750D01*
X03500Y09750D02*
X03400Y08625D01*
X03400Y08625D02*
X03675Y07425D01*
X10250Y07858D02*
X10500Y09725D01*
G54D21*
X08800Y06200D02*
X10450Y05900D01*
X08800Y06200D02*
X08228Y05415D01*
G54D19*
X14087Y04565D02*
X14625Y04100D01*
G54D22*
X14550Y03325D02*
X14600Y03350D01*
G54D19*
X14625Y04100D02*
X14625Y03375D01*
X14625Y03375D02*
X14600Y03350D01*
G54D23*
X10225Y07850D02*
X10250Y07858D01*
X10250Y07858D02*
X09425Y07325D01*
X09425Y07325D02*
X08925Y07450D01*
X08775Y07700D02*
X07950Y07850D01*
X08925Y07450D02*
X08775Y07700D01*
X06250Y06525D02*
X06125Y06425D01*
X06125Y06425D02*
X05525Y05825D01*
G54D22*
X01175Y05525D02*
X00575Y07075D01*
X00575Y07075D02*
X01250Y07834D01*
X01250Y07834D02*
X01325Y07725D01*
X02625Y08525D02*
X03550Y07775D01*
X03550Y07775D02*
X03675Y07425D01*
X01325Y07725D02*
X01675Y08250D01*
X02150Y08400D02*
X02625Y08525D01*
X01675Y08250D02*
X02150Y08400D01*
X04675Y03825D02*
X03850Y03425D01*
X02250Y01875D02*
X02190Y01900D01*
X02190Y01900D02*
X02625Y01465D01*
X02625Y01465D02*
X02475Y01525D01*
X03975Y07350D02*
X04525Y07425D01*
X03675Y07425D02*
X03975Y07350D01*
X03725Y06575D02*
X04465Y06175D01*
X04465Y06175D02*
X04819Y05821D01*
X04525Y07425D02*
X05325Y07550D01*
X05325Y07550D02*
X06425Y07806D01*
X06425Y07806D02*
X06400Y07800D01*
X06250Y06525D02*
X06400Y07800D01*
X14525Y02825D02*
X12551Y02816D01*
X09950Y02550D02*
X09300Y01900D01*
X12086Y02506D02*
X12075Y02506D01*
X12075Y02506D02*
X09950Y02550D01*
X12551Y02816D02*
X12086Y02506D01*
X18500Y00750D02*
X18500Y01352D01*
X18500Y01352D02*
X18335Y01367D01*
X18335Y01367D02*
X15575Y01367D01*
X15575Y01367D02*
X14525Y02825D01*
G54D23*
X14425Y07050D02*
X15425Y07525D01*
G54D22*
X14375Y06850D02*
X14425Y07050D01*
G54D19*
X15425Y06300D02*
X15450Y06283D01*
X15450Y06283D02*
X14350Y07025D01*
G54D22*
X13933Y05837D02*
X14275Y06200D01*
X14325Y06625D02*
X14375Y06850D01*
X14275Y06200D02*
X14325Y06625D01*
X14375Y06850D02*
X14350Y07025D01*
X02850Y04522D02*
X02850Y04525D01*
G54D24*
X04725Y05775D02*
X04819Y05821D01*
G54D22*
X04819Y05821D02*
X05525Y05825D01*
X08228Y05415D02*
X09025Y05040D01*
X09025Y05040D02*
X09300Y04925D01*
X09300Y04925D02*
X09800Y04885D01*
X09800Y04885D02*
X10175Y04475D01*
X10175Y04475D02*
X10475Y04050D01*
X10475Y04050D02*
X09975Y03200D01*
X09975Y03200D02*
X09950Y02550D01*
X14550Y03325D02*
X14525Y02825D01*
G54D10*
G36*
X19896Y00935D02*
X19150Y00190D01*
X18975Y00025D01*
X18975Y00833D01*
X18907Y01009D01*
X18895Y01026D01*
X18832Y01069D01*
X18819Y01056D01*
X18819Y01082D01*
X18776Y01145D01*
X18605Y01221D01*
X18417Y01225D01*
X18241Y01157D01*
X18224Y01145D01*
X18181Y01082D01*
X18500Y00763D01*
X18819Y01082D01*
X18819Y01056D01*
X18513Y00750D01*
X18832Y00431D01*
X18895Y00474D01*
X18971Y00645D01*
X18975Y00833D01*
X18975Y00025D01*
X18819Y-00123D01*
X18819Y00418D01*
X18500Y00737D01*
X18487Y00724D01*
X18487Y00750D01*
X18168Y01069D01*
X18105Y01026D01*
X18029Y00855D01*
X18025Y00667D01*
X18093Y00491D01*
X18105Y00474D01*
X18168Y00431D01*
X18487Y00750D01*
X18487Y00724D01*
X18181Y00418D01*
X18224Y00355D01*
X18395Y00279D01*
X18583Y00275D01*
X18759Y00343D01*
X18776Y00355D01*
X18819Y00418D01*
X18819Y-00123D01*
X18584Y-00346D01*
X18022Y-00346D01*
X18022Y00645D01*
X18022Y00853D01*
X17943Y01045D01*
X17796Y01192D01*
X17605Y01272D01*
X17397Y01272D01*
X17205Y01193D01*
X17058Y01046D01*
X16999Y00908D01*
X16943Y01045D01*
X16796Y01192D01*
X16605Y01272D01*
X16397Y01272D01*
X16205Y01193D01*
X16058Y01046D01*
X15999Y00908D01*
X15953Y01021D01*
X15953Y03699D01*
X15953Y03800D01*
X15915Y03893D01*
X15854Y03954D01*
X15854Y08379D01*
X15854Y08470D01*
X15819Y08554D01*
X15755Y08619D01*
X15671Y08654D01*
X15580Y08654D01*
X15496Y08619D01*
X15431Y08555D01*
X15396Y08471D01*
X15396Y08380D01*
X15431Y08296D01*
X15495Y08231D01*
X15579Y08196D01*
X15670Y08196D01*
X15754Y08231D01*
X15819Y08295D01*
X15854Y08379D01*
X15854Y03954D01*
X15844Y03964D01*
X15751Y04003D01*
X15686Y04003D01*
X15686Y06762D01*
X15686Y06863D01*
X15648Y06956D01*
X15577Y07027D01*
X15484Y07066D01*
X15383Y07066D01*
X15354Y07055D01*
X15354Y07924D01*
X15354Y07975D01*
X15354Y08525D01*
X15335Y08572D01*
X15299Y08609D01*
X15251Y08629D01*
X15200Y08629D01*
X14650Y08629D01*
X14603Y08610D01*
X14566Y08574D01*
X14546Y08526D01*
X14546Y08475D01*
X14546Y07925D01*
X14565Y07878D01*
X14601Y07841D01*
X14649Y07821D01*
X14700Y07821D01*
X15250Y07821D01*
X15297Y07840D01*
X15334Y07876D01*
X15354Y07924D01*
X15354Y07055D01*
X15290Y07028D01*
X15219Y06957D01*
X15180Y06864D01*
X15180Y06763D01*
X15218Y06670D01*
X15289Y06599D01*
X15382Y06560D01*
X15483Y06560D01*
X15576Y06598D01*
X15647Y06669D01*
X15686Y06762D01*
X15686Y04003D01*
X15650Y04003D01*
X15557Y03965D01*
X15486Y03894D01*
X15447Y03801D01*
X15447Y03700D01*
X15485Y03607D01*
X15556Y03536D01*
X15649Y03497D01*
X15750Y03497D01*
X15843Y03535D01*
X15914Y03606D01*
X15953Y03699D01*
X15953Y01021D01*
X15943Y01045D01*
X15796Y01192D01*
X15605Y01272D01*
X15397Y01272D01*
X15205Y01193D01*
X15058Y01046D01*
X14999Y00908D01*
X14943Y01045D01*
X14914Y01074D01*
X14914Y05767D01*
X14914Y05858D01*
X14879Y05942D01*
X14815Y06007D01*
X14731Y06042D01*
X14640Y06042D01*
X14556Y06007D01*
X14491Y05943D01*
X14456Y05859D01*
X14456Y05768D01*
X14491Y05684D01*
X14555Y05619D01*
X14639Y05584D01*
X14730Y05584D01*
X14814Y05619D01*
X14879Y05683D01*
X14914Y05767D01*
X14914Y01074D01*
X14796Y01192D01*
X14729Y01221D01*
X14729Y04854D01*
X14729Y04945D01*
X14694Y05029D01*
X14630Y05094D01*
X14546Y05129D01*
X14505Y05129D01*
X14505Y05373D01*
X14505Y05464D01*
X14470Y05548D01*
X14406Y05613D01*
X14353Y05636D01*
X14353Y08145D01*
X14353Y08305D01*
X14292Y08453D01*
X14178Y08567D01*
X14030Y08628D01*
X13870Y08628D01*
X13754Y08581D01*
X13754Y08854D01*
X13754Y08945D01*
X13719Y09029D01*
X13655Y09094D01*
X13571Y09129D01*
X13480Y09129D01*
X13396Y09094D01*
X13331Y09030D01*
X13296Y08946D01*
X13296Y08855D01*
X13331Y08771D01*
X13395Y08706D01*
X13479Y08671D01*
X13570Y08671D01*
X13654Y08706D01*
X13719Y08770D01*
X13754Y08854D01*
X13754Y08581D01*
X13722Y08567D01*
X13608Y08453D01*
X13547Y08305D01*
X13547Y08145D01*
X13608Y07997D01*
X13722Y07883D01*
X13870Y07822D01*
X14030Y07822D01*
X14178Y07883D01*
X14292Y07997D01*
X14353Y08145D01*
X14353Y05636D01*
X14322Y05648D01*
X14231Y05648D01*
X14178Y05626D01*
X14178Y06324D01*
X14178Y06425D01*
X14140Y06518D01*
X14069Y06589D01*
X13976Y06628D01*
X13875Y06628D01*
X13782Y06590D01*
X13711Y06519D01*
X13672Y06426D01*
X13672Y06325D01*
X13710Y06232D01*
X13781Y06161D01*
X13874Y06122D01*
X13975Y06122D01*
X14068Y06160D01*
X14139Y06231D01*
X14178Y06324D01*
X14178Y05626D01*
X14147Y05613D01*
X14082Y05549D01*
X14047Y05465D01*
X14047Y05374D01*
X14082Y05290D01*
X14146Y05225D01*
X14230Y05190D01*
X14321Y05190D01*
X14405Y05225D01*
X14470Y05289D01*
X14505Y05373D01*
X14505Y05129D01*
X14455Y05129D01*
X14371Y05094D01*
X14306Y05030D01*
X14271Y04946D01*
X14271Y04855D01*
X14306Y04771D01*
X14370Y04706D01*
X14454Y04671D01*
X14545Y04671D01*
X14629Y04706D01*
X14694Y04770D01*
X14729Y04854D01*
X14729Y01221D01*
X14605Y01272D01*
X14397Y01272D01*
X14354Y01255D01*
X14354Y03954D01*
X14354Y04045D01*
X14319Y04129D01*
X14255Y04194D01*
X14171Y04229D01*
X14080Y04229D01*
X13996Y04194D01*
X13931Y04130D01*
X13896Y04046D01*
X13896Y03955D01*
X13931Y03871D01*
X13995Y03806D01*
X14079Y03771D01*
X14170Y03771D01*
X14254Y03806D01*
X14319Y03870D01*
X14354Y03954D01*
X14354Y01255D01*
X14205Y01193D01*
X14058Y01046D01*
X13999Y00908D01*
X13943Y01045D01*
X13796Y01192D01*
X13605Y01272D01*
X13529Y01272D01*
X13529Y07979D01*
X13529Y08070D01*
X13494Y08154D01*
X13430Y08219D01*
X13346Y08254D01*
X13255Y08254D01*
X13171Y08219D01*
X13106Y08155D01*
X13104Y08151D01*
X13104Y08304D01*
X13104Y08395D01*
X13069Y08479D01*
X13005Y08544D01*
X12921Y08579D01*
X12830Y08579D01*
X12746Y08544D01*
X12681Y08480D01*
X12646Y08396D01*
X12646Y08305D01*
X12681Y08221D01*
X12745Y08156D01*
X12829Y08121D01*
X12920Y08121D01*
X13004Y08156D01*
X13069Y08220D01*
X13104Y08304D01*
X13104Y08151D01*
X13071Y08071D01*
X13071Y07980D01*
X13106Y07896D01*
X13170Y07831D01*
X13254Y07796D01*
X13345Y07796D01*
X13429Y07831D01*
X13494Y07895D01*
X13529Y07979D01*
X13529Y01272D01*
X13397Y01272D01*
X13328Y01244D01*
X13328Y06774D01*
X13328Y06875D01*
X13290Y06968D01*
X13219Y07039D01*
X13126Y07078D01*
X13025Y07078D01*
X13024Y07078D01*
X13024Y07554D01*
X13024Y07645D01*
X12989Y07729D01*
X12925Y07794D01*
X12841Y07829D01*
X12750Y07829D01*
X12666Y07794D01*
X12601Y07730D01*
X12566Y07646D01*
X12566Y07555D01*
X12601Y07471D01*
X12665Y07406D01*
X12749Y07371D01*
X12840Y07371D01*
X12924Y07406D01*
X12989Y07470D01*
X13024Y07554D01*
X13024Y07078D01*
X12932Y07040D01*
X12861Y06969D01*
X12822Y06876D01*
X12822Y06775D01*
X12860Y06682D01*
X12931Y06611D01*
X13024Y06572D01*
X13125Y06572D01*
X13218Y06610D01*
X13289Y06681D01*
X13328Y06774D01*
X13328Y01244D01*
X13205Y01193D01*
X13129Y01117D01*
X13129Y03504D01*
X13129Y03595D01*
X13094Y03679D01*
X13079Y03695D01*
X13079Y06329D01*
X13079Y06420D01*
X13044Y06504D01*
X12980Y06569D01*
X12896Y06604D01*
X12805Y06604D01*
X12721Y06569D01*
X12656Y06505D01*
X12621Y06421D01*
X12621Y06330D01*
X12656Y06246D01*
X12720Y06181D01*
X12804Y06146D01*
X12895Y06146D01*
X12979Y06181D01*
X13044Y06245D01*
X13079Y06329D01*
X13079Y03695D01*
X13054Y03720D01*
X13054Y05579D01*
X13054Y05670D01*
X13019Y05754D01*
X12955Y05819D01*
X12871Y05854D01*
X12780Y05854D01*
X12696Y05819D01*
X12631Y05755D01*
X12596Y05671D01*
X12596Y05580D01*
X12631Y05496D01*
X12695Y05431D01*
X12779Y05396D01*
X12870Y05396D01*
X12954Y05431D01*
X13019Y05495D01*
X13054Y05579D01*
X13054Y03720D01*
X13030Y03744D01*
X12946Y03779D01*
X12929Y03779D01*
X12929Y04879D01*
X12929Y04970D01*
X12894Y05054D01*
X12830Y05119D01*
X12746Y05154D01*
X12655Y05154D01*
X12571Y05119D01*
X12506Y05055D01*
X12471Y04971D01*
X12471Y04880D01*
X12506Y04796D01*
X12570Y04731D01*
X12654Y04696D01*
X12745Y04696D01*
X12829Y04731D01*
X12894Y04795D01*
X12929Y04879D01*
X12929Y03779D01*
X12855Y03779D01*
X12771Y03744D01*
X12706Y03680D01*
X12671Y03596D01*
X12671Y03505D01*
X12706Y03421D01*
X12770Y03356D01*
X12854Y03321D01*
X12945Y03321D01*
X13029Y03356D01*
X13094Y03420D01*
X13129Y03504D01*
X13129Y01117D01*
X13104Y01092D01*
X13104Y01404D01*
X13104Y01495D01*
X13069Y01579D01*
X13028Y01621D01*
X13028Y02074D01*
X13028Y02175D01*
X12990Y02268D01*
X12919Y02339D01*
X12826Y02378D01*
X12725Y02378D01*
X12632Y02340D01*
X12629Y02337D01*
X12629Y04304D01*
X12629Y04395D01*
X12594Y04479D01*
X12530Y04544D01*
X12454Y04576D01*
X12454Y07979D01*
X12454Y08070D01*
X12419Y08154D01*
X12355Y08219D01*
X12329Y08230D01*
X12329Y08854D01*
X12329Y08945D01*
X12294Y09029D01*
X12230Y09094D01*
X12146Y09129D01*
X12055Y09129D01*
X11971Y09094D01*
X11906Y09030D01*
X11871Y08946D01*
X11871Y08855D01*
X11906Y08771D01*
X11970Y08706D01*
X12054Y08671D01*
X12145Y08671D01*
X12229Y08706D01*
X12294Y08770D01*
X12329Y08854D01*
X12329Y08230D01*
X12271Y08254D01*
X12180Y08254D01*
X12096Y08219D01*
X12031Y08155D01*
X11996Y08071D01*
X11996Y07980D01*
X12031Y07896D01*
X12095Y07831D01*
X12179Y07796D01*
X12270Y07796D01*
X12354Y07831D01*
X12419Y07895D01*
X12454Y07979D01*
X12454Y04576D01*
X12446Y04579D01*
X12429Y04579D01*
X12429Y05629D01*
X12429Y05720D01*
X12394Y05804D01*
X12379Y05820D01*
X12379Y06754D01*
X12379Y06845D01*
X12344Y06929D01*
X12280Y06994D01*
X12196Y07029D01*
X12105Y07029D01*
X12021Y06994D01*
X11979Y06953D01*
X11979Y07754D01*
X11979Y07845D01*
X11944Y07929D01*
X11880Y07994D01*
X11854Y08005D01*
X11854Y08354D01*
X11854Y08445D01*
X11819Y08529D01*
X11755Y08594D01*
X11671Y08629D01*
X11580Y08629D01*
X11496Y08594D01*
X11431Y08530D01*
X11396Y08446D01*
X11396Y08355D01*
X11431Y08271D01*
X11495Y08206D01*
X11579Y08171D01*
X11670Y08171D01*
X11754Y08206D01*
X11819Y08270D01*
X11854Y08354D01*
X11854Y08005D01*
X11796Y08029D01*
X11705Y08029D01*
X11621Y07994D01*
X11556Y07930D01*
X11521Y07846D01*
X11521Y07755D01*
X11556Y07671D01*
X11620Y07606D01*
X11704Y07571D01*
X11795Y07571D01*
X11879Y07606D01*
X11944Y07670D01*
X11979Y07754D01*
X11979Y06953D01*
X11956Y06930D01*
X11921Y06846D01*
X11921Y06755D01*
X11956Y06671D01*
X12020Y06606D01*
X12104Y06571D01*
X12195Y06571D01*
X12279Y06606D01*
X12344Y06670D01*
X12379Y06754D01*
X12379Y05820D01*
X12354Y05845D01*
X12354Y06154D01*
X12354Y06245D01*
X12319Y06329D01*
X12255Y06394D01*
X12171Y06429D01*
X12080Y06429D01*
X11996Y06394D01*
X11931Y06330D01*
X11896Y06246D01*
X11896Y06155D01*
X11931Y06071D01*
X11995Y06006D01*
X12079Y05971D01*
X12170Y05971D01*
X12254Y06006D01*
X12319Y06070D01*
X12354Y06154D01*
X12354Y05845D01*
X12330Y05869D01*
X12246Y05904D01*
X12155Y05904D01*
X12071Y05869D01*
X12006Y05805D01*
X11971Y05721D01*
X11971Y05630D01*
X12006Y05546D01*
X12070Y05481D01*
X12154Y05446D01*
X12245Y05446D01*
X12329Y05481D01*
X12394Y05545D01*
X12429Y05629D01*
X12429Y04579D01*
X12355Y04579D01*
X12279Y04548D01*
X12279Y04854D01*
X12279Y04945D01*
X12244Y05029D01*
X12180Y05094D01*
X12096Y05129D01*
X12005Y05129D01*
X11921Y05094D01*
X11856Y05030D01*
X11821Y04946D01*
X11821Y04855D01*
X11856Y04771D01*
X11920Y04706D01*
X12004Y04671D01*
X12095Y04671D01*
X12179Y04706D01*
X12244Y04770D01*
X12279Y04854D01*
X12279Y04548D01*
X12271Y04544D01*
X12206Y04480D01*
X12171Y04396D01*
X12171Y04305D01*
X12206Y04221D01*
X12270Y04156D01*
X12354Y04121D01*
X12445Y04121D01*
X12529Y04156D01*
X12594Y04220D01*
X12629Y04304D01*
X12629Y02337D01*
X12604Y02312D01*
X12604Y03279D01*
X12604Y03370D01*
X12569Y03454D01*
X12505Y03519D01*
X12421Y03554D01*
X12379Y03554D01*
X12379Y03729D01*
X12379Y03820D01*
X12344Y03904D01*
X12280Y03969D01*
X12196Y04004D01*
X12105Y04004D01*
X12021Y03969D01*
X11956Y03905D01*
X11921Y03821D01*
X11921Y03730D01*
X11956Y03646D01*
X12020Y03581D01*
X12104Y03546D01*
X12195Y03546D01*
X12279Y03581D01*
X12344Y03645D01*
X12379Y03729D01*
X12379Y03554D01*
X12330Y03554D01*
X12246Y03519D01*
X12181Y03455D01*
X12146Y03371D01*
X12146Y03280D01*
X12181Y03196D01*
X12245Y03131D01*
X12329Y03096D01*
X12420Y03096D01*
X12504Y03131D01*
X12569Y03195D01*
X12604Y03279D01*
X12604Y02312D01*
X12561Y02269D01*
X12522Y02176D01*
X12522Y02075D01*
X12560Y01982D01*
X12631Y01911D01*
X12724Y01872D01*
X12825Y01872D01*
X12918Y01910D01*
X12989Y01981D01*
X13028Y02074D01*
X13028Y01621D01*
X13005Y01644D01*
X12921Y01679D01*
X12830Y01679D01*
X12746Y01644D01*
X12681Y01580D01*
X12646Y01496D01*
X12646Y01405D01*
X12681Y01321D01*
X12745Y01256D01*
X12829Y01221D01*
X12920Y01221D01*
X13004Y01256D01*
X13069Y01320D01*
X13104Y01404D01*
X13104Y01092D01*
X13058Y01046D01*
X12978Y00855D01*
X12978Y00647D01*
X13057Y00455D01*
X13204Y00308D01*
X13395Y00228D01*
X13603Y00228D01*
X13795Y00307D01*
X13942Y00454D01*
X14000Y00593D01*
X14057Y00455D01*
X14204Y00308D01*
X14395Y00228D01*
X14603Y00228D01*
X14795Y00307D01*
X14942Y00454D01*
X15000Y00593D01*
X15057Y00455D01*
X15204Y00308D01*
X15395Y00228D01*
X15603Y00228D01*
X15795Y00307D01*
X15942Y00454D01*
X16000Y00593D01*
X16057Y00455D01*
X16204Y00308D01*
X16395Y00228D01*
X16603Y00228D01*
X16795Y00307D01*
X16942Y00454D01*
X17000Y00593D01*
X17057Y00455D01*
X17204Y00308D01*
X17395Y00228D01*
X17603Y00228D01*
X17795Y00307D01*
X17942Y00454D01*
X18022Y00645D01*
X18022Y-00346D01*
X12975Y-00346D01*
X12975Y00833D01*
X12907Y01009D01*
X12895Y01026D01*
X12832Y01069D01*
X12819Y01056D01*
X12819Y01082D01*
X12776Y01145D01*
X12605Y01221D01*
X12417Y01225D01*
X12254Y01163D01*
X12254Y01304D01*
X12254Y01395D01*
X12219Y01479D01*
X12155Y01544D01*
X12071Y01579D01*
X11980Y01579D01*
X11979Y01579D01*
X11979Y01954D01*
X11979Y02045D01*
X11944Y02129D01*
X11880Y02194D01*
X11804Y02226D01*
X11804Y03154D01*
X11804Y03245D01*
X11779Y03305D01*
X11779Y04154D01*
X11779Y04245D01*
X11754Y04305D01*
X11754Y05279D01*
X11754Y05370D01*
X11754Y06904D01*
X11754Y06995D01*
X11719Y07079D01*
X11655Y07144D01*
X11571Y07179D01*
X11480Y07179D01*
X11396Y07144D01*
X11331Y07080D01*
X11329Y07076D01*
X11329Y08454D01*
X11329Y08545D01*
X11294Y08629D01*
X11230Y08694D01*
X11146Y08729D01*
X11055Y08729D01*
X11004Y08708D01*
X11004Y08954D01*
X11004Y09045D01*
X10975Y09115D01*
X10975Y09833D01*
X10907Y10009D01*
X10895Y10026D01*
X10832Y10069D01*
X10819Y10056D01*
X10819Y10082D01*
X10776Y10145D01*
X10605Y10221D01*
X10417Y10225D01*
X10241Y10157D01*
X10224Y10145D01*
X10181Y10082D01*
X10500Y09763D01*
X10819Y10082D01*
X10819Y10056D01*
X10513Y09750D01*
X10832Y09431D01*
X10895Y09474D01*
X10971Y09645D01*
X10975Y09833D01*
X10975Y09115D01*
X10969Y09129D01*
X10905Y09194D01*
X10821Y09229D01*
X10819Y09229D01*
X10819Y09418D01*
X10500Y09737D01*
X10487Y09724D01*
X10487Y09750D01*
X10168Y10069D01*
X10105Y10026D01*
X10029Y09855D01*
X10025Y09667D01*
X10093Y09491D01*
X10105Y09474D01*
X10168Y09431D01*
X10487Y09750D01*
X10487Y09724D01*
X10181Y09418D01*
X10224Y09355D01*
X10395Y09279D01*
X10583Y09275D01*
X10759Y09343D01*
X10776Y09355D01*
X10819Y09418D01*
X10819Y09229D01*
X10730Y09229D01*
X10646Y09194D01*
X10581Y09130D01*
X10546Y09046D01*
X10546Y08955D01*
X10581Y08871D01*
X10645Y08806D01*
X10729Y08771D01*
X10820Y08771D01*
X10904Y08806D01*
X10969Y08870D01*
X11004Y08954D01*
X11004Y08708D01*
X10971Y08694D01*
X10906Y08630D01*
X10871Y08546D01*
X10871Y08455D01*
X10906Y08371D01*
X10970Y08306D01*
X11054Y08271D01*
X11145Y08271D01*
X11229Y08306D01*
X11294Y08370D01*
X11329Y08454D01*
X11329Y07076D01*
X11296Y06996D01*
X11296Y06905D01*
X11331Y06821D01*
X11395Y06756D01*
X11479Y06721D01*
X11570Y06721D01*
X11654Y06756D01*
X11719Y06820D01*
X11754Y06904D01*
X11754Y05370D01*
X11719Y05454D01*
X11655Y05519D01*
X11571Y05554D01*
X11554Y05554D01*
X11554Y06104D01*
X11554Y06195D01*
X11519Y06279D01*
X11455Y06344D01*
X11371Y06379D01*
X11280Y06379D01*
X11196Y06344D01*
X11179Y06328D01*
X11179Y07704D01*
X11179Y07795D01*
X11144Y07879D01*
X11080Y07944D01*
X10996Y07979D01*
X10905Y07979D01*
X10829Y07948D01*
X10829Y08254D01*
X10829Y08345D01*
X10794Y08429D01*
X10730Y08494D01*
X10646Y08529D01*
X10555Y08529D01*
X10471Y08494D01*
X10406Y08430D01*
X10371Y08346D01*
X10371Y08255D01*
X10406Y08171D01*
X10470Y08106D01*
X10554Y08071D01*
X10645Y08071D01*
X10729Y08106D01*
X10794Y08170D01*
X10829Y08254D01*
X10829Y07948D01*
X10821Y07944D01*
X10756Y07880D01*
X10721Y07796D01*
X10721Y07705D01*
X10756Y07621D01*
X10820Y07556D01*
X10904Y07521D01*
X10995Y07521D01*
X11079Y07556D01*
X11144Y07620D01*
X11179Y07704D01*
X11179Y06328D01*
X11131Y06280D01*
X11096Y06196D01*
X11096Y06105D01*
X11131Y06021D01*
X11195Y05956D01*
X11279Y05921D01*
X11370Y05921D01*
X11454Y05956D01*
X11519Y06020D01*
X11554Y06104D01*
X11554Y05554D01*
X11480Y05554D01*
X11396Y05519D01*
X11331Y05455D01*
X11296Y05371D01*
X11296Y05280D01*
X11331Y05196D01*
X11395Y05131D01*
X11479Y05096D01*
X11570Y05096D01*
X11654Y05131D01*
X11719Y05195D01*
X11754Y05279D01*
X11754Y04305D01*
X11744Y04329D01*
X11680Y04394D01*
X11596Y04429D01*
X11579Y04429D01*
X11579Y04704D01*
X11579Y04795D01*
X11544Y04879D01*
X11480Y04944D01*
X11396Y04979D01*
X11305Y04979D01*
X11221Y04944D01*
X11156Y04880D01*
X11121Y04796D01*
X11121Y04705D01*
X11156Y04621D01*
X11220Y04556D01*
X11304Y04521D01*
X11395Y04521D01*
X11479Y04556D01*
X11544Y04620D01*
X11579Y04704D01*
X11579Y04429D01*
X11505Y04429D01*
X11421Y04394D01*
X11356Y04330D01*
X11321Y04246D01*
X11321Y04155D01*
X11356Y04071D01*
X11420Y04006D01*
X11504Y03971D01*
X11595Y03971D01*
X11679Y04006D01*
X11744Y04070D01*
X11779Y04154D01*
X11779Y03305D01*
X11769Y03329D01*
X11705Y03394D01*
X11621Y03429D01*
X11530Y03429D01*
X11479Y03408D01*
X11479Y03679D01*
X11479Y03770D01*
X11444Y03854D01*
X11380Y03919D01*
X11296Y03954D01*
X11205Y03954D01*
X11121Y03919D01*
X11056Y03855D01*
X11021Y03771D01*
X11021Y03680D01*
X11056Y03596D01*
X11120Y03531D01*
X11204Y03496D01*
X11295Y03496D01*
X11379Y03531D01*
X11444Y03595D01*
X11479Y03679D01*
X11479Y03408D01*
X11446Y03394D01*
X11381Y03330D01*
X11346Y03246D01*
X11346Y03155D01*
X11381Y03071D01*
X11445Y03006D01*
X11529Y02971D01*
X11620Y02971D01*
X11704Y03006D01*
X11769Y03070D01*
X11804Y03154D01*
X11804Y02226D01*
X11796Y02229D01*
X11705Y02229D01*
X11621Y02194D01*
X11556Y02130D01*
X11521Y02046D01*
X11521Y01955D01*
X11556Y01871D01*
X11620Y01806D01*
X11704Y01771D01*
X11795Y01771D01*
X11879Y01806D01*
X11944Y01870D01*
X11979Y01954D01*
X11979Y01579D01*
X11896Y01544D01*
X11831Y01480D01*
X11796Y01396D01*
X11796Y01305D01*
X11831Y01221D01*
X11895Y01156D01*
X11979Y01121D01*
X12070Y01121D01*
X12154Y01156D01*
X12219Y01220D01*
X12254Y01304D01*
X12254Y01163D01*
X12241Y01157D01*
X12224Y01145D01*
X12181Y01082D01*
X12500Y00763D01*
X12819Y01082D01*
X12819Y01056D01*
X12513Y00750D01*
X12832Y00431D01*
X12895Y00474D01*
X12971Y00645D01*
X12975Y00833D01*
X12975Y-00346D01*
X12819Y-00346D01*
X12819Y00418D01*
X12500Y00737D01*
X12487Y00724D01*
X12487Y00750D01*
X12168Y01069D01*
X12105Y01026D01*
X12029Y00855D01*
X12025Y00667D01*
X12093Y00491D01*
X12105Y00474D01*
X12168Y00431D01*
X12487Y00750D01*
X12487Y00724D01*
X12181Y00418D01*
X12224Y00355D01*
X12395Y00279D01*
X12583Y00275D01*
X12759Y00343D01*
X12776Y00355D01*
X12819Y00418D01*
X12819Y-00346D01*
X12022Y-00346D01*
X12022Y00645D01*
X12022Y00853D01*
X11943Y01045D01*
X11796Y01192D01*
X11779Y01200D01*
X11779Y01479D01*
X11779Y01570D01*
X11744Y01654D01*
X11680Y01719D01*
X11596Y01754D01*
X11505Y01754D01*
X11421Y01719D01*
X11356Y01655D01*
X11354Y01651D01*
X11354Y02129D01*
X11354Y02220D01*
X11319Y02304D01*
X11255Y02369D01*
X11171Y02404D01*
X11080Y02404D01*
X10996Y02369D01*
X10979Y02353D01*
X10979Y03454D01*
X10979Y03545D01*
X10944Y03629D01*
X10880Y03694D01*
X10804Y03726D01*
X10804Y05154D01*
X10804Y05245D01*
X10804Y06329D01*
X10804Y06420D01*
X10769Y06504D01*
X10705Y06569D01*
X10621Y06604D01*
X10604Y06604D01*
X10604Y06929D01*
X10604Y07020D01*
X10569Y07104D01*
X10505Y07169D01*
X10421Y07204D01*
X10330Y07204D01*
X10246Y07169D01*
X10181Y07105D01*
X10179Y07101D01*
X10179Y08529D01*
X10179Y08620D01*
X10144Y08704D01*
X10104Y08745D01*
X10104Y09129D01*
X10104Y09220D01*
X10069Y09304D01*
X10005Y09369D01*
X09921Y09404D01*
X09892Y09404D01*
X09942Y09454D01*
X10022Y09645D01*
X10022Y09853D01*
X09943Y10045D01*
X09796Y10192D01*
X09605Y10272D01*
X09397Y10272D01*
X09205Y10193D01*
X09058Y10046D01*
X08999Y09908D01*
X08943Y10045D01*
X08796Y10192D01*
X08605Y10272D01*
X08397Y10272D01*
X08205Y10193D01*
X08058Y10046D01*
X07999Y09908D01*
X07943Y10045D01*
X07796Y10192D01*
X07605Y10272D01*
X07397Y10272D01*
X07205Y10193D01*
X07058Y10046D01*
X06978Y09855D01*
X06978Y09647D01*
X07057Y09455D01*
X07204Y09308D01*
X07395Y09228D01*
X07603Y09228D01*
X07795Y09307D01*
X07942Y09454D01*
X08000Y09593D01*
X08057Y09455D01*
X08204Y09308D01*
X08395Y09228D01*
X08548Y09228D01*
X08546Y09221D01*
X08546Y09130D01*
X08581Y09046D01*
X08645Y08981D01*
X08729Y08946D01*
X08820Y08946D01*
X08904Y08981D01*
X08969Y09045D01*
X09004Y09129D01*
X09004Y09220D01*
X08969Y09304D01*
X08905Y09369D01*
X08871Y09384D01*
X08942Y09454D01*
X09000Y09593D01*
X09057Y09455D01*
X09204Y09308D01*
X09395Y09228D01*
X09603Y09228D01*
X09658Y09251D01*
X09646Y09221D01*
X09646Y09130D01*
X09681Y09046D01*
X09745Y08981D01*
X09829Y08946D01*
X09920Y08946D01*
X10004Y08981D01*
X10069Y09045D01*
X10104Y09129D01*
X10104Y08745D01*
X10080Y08769D01*
X09996Y08804D01*
X09905Y08804D01*
X09821Y08769D01*
X09756Y08705D01*
X09721Y08621D01*
X09721Y08530D01*
X09756Y08446D01*
X09820Y08381D01*
X09904Y08346D01*
X09995Y08346D01*
X10079Y08381D01*
X10144Y08445D01*
X10179Y08529D01*
X10179Y07101D01*
X10146Y07021D01*
X10146Y06930D01*
X10181Y06846D01*
X10245Y06781D01*
X10329Y06746D01*
X10420Y06746D01*
X10504Y06781D01*
X10569Y06845D01*
X10604Y06929D01*
X10604Y06604D01*
X10530Y06604D01*
X10446Y06569D01*
X10381Y06505D01*
X10346Y06421D01*
X10346Y06330D01*
X10381Y06246D01*
X10445Y06181D01*
X10529Y06146D01*
X10620Y06146D01*
X10704Y06181D01*
X10769Y06245D01*
X10804Y06329D01*
X10804Y05245D01*
X10769Y05329D01*
X10705Y05394D01*
X10621Y05429D01*
X10530Y05429D01*
X10446Y05394D01*
X10381Y05330D01*
X10346Y05246D01*
X10346Y05155D01*
X10381Y05071D01*
X10445Y05006D01*
X10529Y04971D01*
X10620Y04971D01*
X10704Y05006D01*
X10769Y05070D01*
X10804Y05154D01*
X10804Y03726D01*
X10796Y03729D01*
X10754Y03729D01*
X10754Y04629D01*
X10754Y04720D01*
X10719Y04804D01*
X10655Y04869D01*
X10571Y04904D01*
X10480Y04904D01*
X10396Y04869D01*
X10331Y04805D01*
X10296Y04721D01*
X10296Y04630D01*
X10331Y04546D01*
X10395Y04481D01*
X10479Y04446D01*
X10570Y04446D01*
X10654Y04481D01*
X10719Y04545D01*
X10754Y04629D01*
X10754Y03729D01*
X10705Y03729D01*
X10621Y03694D01*
X10556Y03630D01*
X10521Y03546D01*
X10521Y03455D01*
X10556Y03371D01*
X10620Y03306D01*
X10704Y03271D01*
X10795Y03271D01*
X10879Y03306D01*
X10944Y03370D01*
X10979Y03454D01*
X10979Y02353D01*
X10931Y02305D01*
X10896Y02221D01*
X10896Y02130D01*
X10931Y02046D01*
X10995Y01981D01*
X11079Y01946D01*
X11170Y01946D01*
X11254Y01981D01*
X11319Y02045D01*
X11354Y02129D01*
X11354Y01651D01*
X11321Y01571D01*
X11321Y01480D01*
X11356Y01396D01*
X11420Y01331D01*
X11504Y01296D01*
X11595Y01296D01*
X11679Y01331D01*
X11744Y01395D01*
X11779Y01479D01*
X11779Y01200D01*
X11605Y01272D01*
X11397Y01272D01*
X11205Y01193D01*
X11104Y01092D01*
X11104Y01704D01*
X11104Y01795D01*
X11069Y01879D01*
X11005Y01944D01*
X10921Y01979D01*
X10830Y01979D01*
X10746Y01944D01*
X10681Y01880D01*
X10646Y01796D01*
X10646Y01705D01*
X10681Y01621D01*
X10745Y01556D01*
X10829Y01521D01*
X10920Y01521D01*
X11004Y01556D01*
X11069Y01620D01*
X11104Y01704D01*
X11104Y01092D01*
X11058Y01046D01*
X10999Y00908D01*
X10943Y01045D01*
X10796Y01192D01*
X10628Y01263D01*
X10628Y01849D01*
X10628Y01950D01*
X10590Y02043D01*
X10554Y02079D01*
X10554Y03079D01*
X10554Y03170D01*
X10519Y03254D01*
X10455Y03319D01*
X10371Y03354D01*
X10280Y03354D01*
X10196Y03319D01*
X10131Y03255D01*
X10104Y03191D01*
X10104Y05604D01*
X10104Y05695D01*
X10069Y05779D01*
X10005Y05844D01*
X09921Y05879D01*
X09830Y05879D01*
X09829Y05879D01*
X09829Y08179D01*
X09829Y08270D01*
X09794Y08354D01*
X09730Y08419D01*
X09646Y08454D01*
X09555Y08454D01*
X09471Y08419D01*
X09406Y08355D01*
X09371Y08271D01*
X09371Y08180D01*
X09406Y08096D01*
X09470Y08031D01*
X09554Y07996D01*
X09645Y07996D01*
X09729Y08031D01*
X09794Y08095D01*
X09829Y08179D01*
X09829Y05879D01*
X09746Y05844D01*
X09681Y05780D01*
X09646Y05696D01*
X09646Y05605D01*
X09681Y05521D01*
X09745Y05456D01*
X09829Y05421D01*
X09920Y05421D01*
X10004Y05456D01*
X10069Y05520D01*
X10104Y05604D01*
X10104Y03191D01*
X10096Y03171D01*
X10096Y03080D01*
X10131Y02996D01*
X10195Y02931D01*
X10279Y02896D01*
X10370Y02896D01*
X10454Y02931D01*
X10519Y02995D01*
X10554Y03079D01*
X10554Y02079D01*
X10519Y02114D01*
X10426Y02153D01*
X10325Y02153D01*
X10232Y02115D01*
X10161Y02044D01*
X10122Y01951D01*
X10122Y01850D01*
X10160Y01757D01*
X10231Y01686D01*
X10324Y01647D01*
X10425Y01647D01*
X10518Y01685D01*
X10589Y01756D01*
X10628Y01849D01*
X10628Y01263D01*
X10605Y01272D01*
X10397Y01272D01*
X10205Y01193D01*
X10079Y01067D01*
X10079Y03604D01*
X10079Y03695D01*
X10054Y03755D01*
X10054Y04354D01*
X10054Y04445D01*
X10019Y04529D01*
X09955Y04594D01*
X09871Y04629D01*
X09780Y04629D01*
X09696Y04594D01*
X09631Y04530D01*
X09604Y04466D01*
X09604Y04604D01*
X09604Y04695D01*
X09603Y04698D01*
X09603Y05174D01*
X09603Y05275D01*
X09565Y05368D01*
X09494Y05439D01*
X09429Y05467D01*
X09429Y05729D01*
X09429Y05820D01*
X09394Y05904D01*
X09378Y05921D01*
X09378Y07724D01*
X09378Y07825D01*
X09340Y07918D01*
X09269Y07989D01*
X09204Y08017D01*
X09204Y08229D01*
X09204Y08320D01*
X09169Y08404D01*
X09105Y08469D01*
X09021Y08504D01*
X08930Y08504D01*
X08846Y08469D01*
X08781Y08405D01*
X08746Y08321D01*
X08746Y08230D01*
X08781Y08146D01*
X08845Y08081D01*
X08929Y08046D01*
X09020Y08046D01*
X09104Y08081D01*
X09169Y08145D01*
X09204Y08229D01*
X09204Y08017D01*
X09176Y08028D01*
X09075Y08028D01*
X08982Y07990D01*
X08911Y07919D01*
X08872Y07826D01*
X08872Y07725D01*
X08910Y07632D01*
X08981Y07561D01*
X09074Y07522D01*
X09175Y07522D01*
X09268Y07560D01*
X09339Y07631D01*
X09378Y07724D01*
X09378Y05921D01*
X09330Y05969D01*
X09246Y06004D01*
X09155Y06004D01*
X09071Y05969D01*
X09006Y05905D01*
X08971Y05821D01*
X08971Y05730D01*
X09006Y05646D01*
X09070Y05581D01*
X09154Y05546D01*
X09245Y05546D01*
X09329Y05581D01*
X09394Y05645D01*
X09429Y05729D01*
X09429Y05467D01*
X09401Y05478D01*
X09300Y05478D01*
X09207Y05440D01*
X09136Y05369D01*
X09097Y05276D01*
X09097Y05175D01*
X09135Y05082D01*
X09206Y05011D01*
X09299Y04972D01*
X09400Y04972D01*
X09493Y05010D01*
X09564Y05081D01*
X09603Y05174D01*
X09603Y04698D01*
X09569Y04779D01*
X09505Y04844D01*
X09421Y04879D01*
X09330Y04879D01*
X09246Y04844D01*
X09181Y04780D01*
X09146Y04696D01*
X09146Y04605D01*
X09181Y04521D01*
X09245Y04456D01*
X09329Y04421D01*
X09420Y04421D01*
X09504Y04456D01*
X09569Y04520D01*
X09604Y04604D01*
X09604Y04466D01*
X09596Y04446D01*
X09596Y04355D01*
X09631Y04271D01*
X09695Y04206D01*
X09779Y04171D01*
X09870Y04171D01*
X09954Y04206D01*
X10019Y04270D01*
X10054Y04354D01*
X10054Y03755D01*
X10044Y03779D01*
X09980Y03844D01*
X09896Y03879D01*
X09805Y03879D01*
X09721Y03844D01*
X09656Y03780D01*
X09621Y03696D01*
X09621Y03605D01*
X09656Y03521D01*
X09720Y03456D01*
X09804Y03421D01*
X09895Y03421D01*
X09979Y03456D01*
X10044Y03520D01*
X10079Y03604D01*
X10079Y01067D01*
X10058Y01046D01*
X09999Y00908D01*
X09943Y01045D01*
X09796Y01192D01*
X09729Y01221D01*
X09729Y03179D01*
X09729Y03270D01*
X09694Y03354D01*
X09630Y03419D01*
X09546Y03454D01*
X09528Y03454D01*
X09528Y04099D01*
X09528Y04200D01*
X09490Y04293D01*
X09419Y04364D01*
X09326Y04403D01*
X09225Y04403D01*
X09132Y04365D01*
X09061Y04294D01*
X09022Y04201D01*
X09022Y04100D01*
X09060Y04007D01*
X09131Y03936D01*
X09224Y03897D01*
X09325Y03897D01*
X09418Y03935D01*
X09489Y04006D01*
X09528Y04099D01*
X09528Y03454D01*
X09455Y03454D01*
X09371Y03419D01*
X09306Y03355D01*
X09271Y03271D01*
X09271Y03180D01*
X09306Y03096D01*
X09370Y03031D01*
X09454Y02996D01*
X09545Y02996D01*
X09629Y03031D01*
X09694Y03095D01*
X09729Y03179D01*
X09729Y01221D01*
X09605Y01272D01*
X09453Y01272D01*
X09453Y02549D01*
X09453Y02650D01*
X09415Y02743D01*
X09344Y02814D01*
X09251Y02853D01*
X09150Y02853D01*
X09057Y02815D01*
X08986Y02744D01*
X08947Y02651D01*
X08947Y02550D01*
X08985Y02457D01*
X09056Y02386D01*
X09149Y02347D01*
X09250Y02347D01*
X09343Y02385D01*
X09414Y02456D01*
X09453Y02549D01*
X09453Y01272D01*
X09397Y01272D01*
X09205Y01193D01*
X09058Y01046D01*
X08999Y00908D01*
X08943Y01045D01*
X08829Y01159D01*
X08829Y07329D01*
X08829Y07420D01*
X08794Y07504D01*
X08730Y07569D01*
X08679Y07591D01*
X08679Y08129D01*
X08679Y08220D01*
X08644Y08304D01*
X08580Y08369D01*
X08496Y08404D01*
X08405Y08404D01*
X08321Y08369D01*
X08279Y08328D01*
X08279Y08854D01*
X08279Y08945D01*
X08244Y09029D01*
X08180Y09094D01*
X08096Y09129D01*
X08005Y09129D01*
X07921Y09094D01*
X07856Y09030D01*
X07821Y08946D01*
X07821Y08855D01*
X07856Y08771D01*
X07920Y08706D01*
X08004Y08671D01*
X08095Y08671D01*
X08179Y08706D01*
X08244Y08770D01*
X08279Y08854D01*
X08279Y08328D01*
X08256Y08305D01*
X08221Y08221D01*
X08221Y08130D01*
X08256Y08046D01*
X08320Y07981D01*
X08404Y07946D01*
X08495Y07946D01*
X08579Y07981D01*
X08644Y08045D01*
X08679Y08129D01*
X08679Y07591D01*
X08646Y07604D01*
X08555Y07604D01*
X08471Y07569D01*
X08406Y07505D01*
X08371Y07421D01*
X08371Y07330D01*
X08406Y07246D01*
X08470Y07181D01*
X08554Y07146D01*
X08645Y07146D01*
X08729Y07181D01*
X08794Y07245D01*
X08829Y07329D01*
X08829Y01159D01*
X08796Y01192D01*
X08778Y01200D01*
X08778Y06549D01*
X08778Y06650D01*
X08740Y06743D01*
X08669Y06814D01*
X08576Y06853D01*
X08475Y06853D01*
X08382Y06815D01*
X08311Y06744D01*
X08272Y06651D01*
X08272Y06550D01*
X08310Y06457D01*
X08381Y06386D01*
X08474Y06347D01*
X08575Y06347D01*
X08668Y06385D01*
X08739Y06456D01*
X08778Y06549D01*
X08778Y01200D01*
X08605Y01272D01*
X08529Y01272D01*
X08529Y04904D01*
X08529Y04995D01*
X08494Y05079D01*
X08430Y05144D01*
X08346Y05179D01*
X08255Y05179D01*
X08179Y05148D01*
X08179Y06404D01*
X08179Y06495D01*
X08179Y07329D01*
X08179Y07420D01*
X08144Y07504D01*
X08080Y07569D01*
X07996Y07604D01*
X07905Y07604D01*
X07821Y07569D01*
X07804Y07553D01*
X07804Y08804D01*
X07804Y08895D01*
X07769Y08979D01*
X07705Y09044D01*
X07621Y09079D01*
X07530Y09079D01*
X07446Y09044D01*
X07381Y08980D01*
X07346Y08896D01*
X07346Y08805D01*
X07381Y08721D01*
X07445Y08656D01*
X07529Y08621D01*
X07620Y08621D01*
X07704Y08656D01*
X07769Y08720D01*
X07804Y08804D01*
X07804Y07553D01*
X07756Y07505D01*
X07721Y07421D01*
X07721Y07330D01*
X07756Y07246D01*
X07820Y07181D01*
X07904Y07146D01*
X07995Y07146D01*
X08079Y07181D01*
X08144Y07245D01*
X08179Y07329D01*
X08179Y06495D01*
X08144Y06579D01*
X08080Y06644D01*
X07996Y06679D01*
X07905Y06679D01*
X07853Y06658D01*
X07853Y06924D01*
X07853Y07025D01*
X07815Y07118D01*
X07744Y07189D01*
X07651Y07228D01*
X07550Y07228D01*
X07457Y07190D01*
X07386Y07119D01*
X07347Y07026D01*
X07347Y06925D01*
X07385Y06832D01*
X07456Y06761D01*
X07549Y06722D01*
X07650Y06722D01*
X07743Y06760D01*
X07814Y06831D01*
X07853Y06924D01*
X07853Y06658D01*
X07821Y06644D01*
X07756Y06580D01*
X07721Y06496D01*
X07721Y06405D01*
X07756Y06321D01*
X07820Y06256D01*
X07904Y06221D01*
X07995Y06221D01*
X08079Y06256D01*
X08144Y06320D01*
X08179Y06404D01*
X08179Y05148D01*
X08171Y05144D01*
X08106Y05080D01*
X08071Y04996D01*
X08071Y04905D01*
X08106Y04821D01*
X08170Y04756D01*
X08254Y04721D01*
X08345Y04721D01*
X08429Y04756D01*
X08494Y04820D01*
X08529Y04904D01*
X08529Y01272D01*
X08397Y01272D01*
X08205Y01193D01*
X08179Y01167D01*
X08179Y02854D01*
X08179Y02945D01*
X08144Y03029D01*
X08129Y03045D01*
X08129Y03854D01*
X08129Y03945D01*
X08094Y04029D01*
X08030Y04094D01*
X08004Y04105D01*
X08004Y04454D01*
X08004Y04545D01*
X08004Y04979D01*
X08004Y05070D01*
X07969Y05154D01*
X07905Y05219D01*
X07821Y05254D01*
X07730Y05254D01*
X07679Y05233D01*
X07679Y05379D01*
X07679Y05470D01*
X07644Y05554D01*
X07580Y05619D01*
X07496Y05654D01*
X07405Y05654D01*
X07321Y05619D01*
X07256Y05555D01*
X07228Y05488D01*
X07228Y07799D01*
X07228Y07900D01*
X07190Y07993D01*
X07119Y08064D01*
X07026Y08103D01*
X06975Y08103D01*
X06975Y09833D01*
X06907Y10009D01*
X06895Y10026D01*
X06832Y10069D01*
X06819Y10056D01*
X06819Y10082D01*
X06776Y10145D01*
X06605Y10221D01*
X06417Y10225D01*
X06241Y10157D01*
X06224Y10145D01*
X06181Y10082D01*
X06500Y09763D01*
X06819Y10082D01*
X06819Y10056D01*
X06513Y09750D01*
X06832Y09431D01*
X06895Y09474D01*
X06971Y09645D01*
X06975Y09833D01*
X06975Y08103D01*
X06925Y08103D01*
X06832Y08065D01*
X06819Y08052D01*
X06819Y09418D01*
X06500Y09737D01*
X06487Y09724D01*
X06487Y09750D01*
X06168Y10069D01*
X06105Y10026D01*
X06029Y09855D01*
X06025Y09667D01*
X06093Y09491D01*
X06105Y09474D01*
X06168Y09431D01*
X06487Y09750D01*
X06487Y09724D01*
X06181Y09418D01*
X06224Y09355D01*
X06395Y09279D01*
X06583Y09275D01*
X06759Y09343D01*
X06776Y09355D01*
X06819Y09418D01*
X06819Y08052D01*
X06761Y07994D01*
X06722Y07901D01*
X06722Y07800D01*
X06760Y07707D01*
X06831Y07636D01*
X06924Y07597D01*
X07025Y07597D01*
X07118Y07635D01*
X07189Y07706D01*
X07228Y07799D01*
X07228Y05488D01*
X07221Y05471D01*
X07221Y05380D01*
X07256Y05296D01*
X07320Y05231D01*
X07404Y05196D01*
X07495Y05196D01*
X07579Y05231D01*
X07644Y05295D01*
X07679Y05379D01*
X07679Y05233D01*
X07646Y05219D01*
X07581Y05155D01*
X07546Y05071D01*
X07546Y04980D01*
X07581Y04896D01*
X07645Y04831D01*
X07729Y04796D01*
X07820Y04796D01*
X07904Y04831D01*
X07969Y04895D01*
X08004Y04979D01*
X08004Y04545D01*
X07969Y04629D01*
X07905Y04694D01*
X07821Y04729D01*
X07730Y04729D01*
X07646Y04694D01*
X07581Y04630D01*
X07546Y04546D01*
X07546Y04455D01*
X07581Y04371D01*
X07645Y04306D01*
X07729Y04271D01*
X07820Y04271D01*
X07904Y04306D01*
X07969Y04370D01*
X08004Y04454D01*
X08004Y04105D01*
X07946Y04129D01*
X07855Y04129D01*
X07771Y04094D01*
X07706Y04030D01*
X07671Y03946D01*
X07671Y03855D01*
X07706Y03771D01*
X07770Y03706D01*
X07854Y03671D01*
X07945Y03671D01*
X08029Y03706D01*
X08094Y03770D01*
X08129Y03854D01*
X08129Y03045D01*
X08080Y03094D01*
X07996Y03129D01*
X07905Y03129D01*
X07821Y03094D01*
X07756Y03030D01*
X07721Y02946D01*
X07721Y02855D01*
X07756Y02771D01*
X07820Y02706D01*
X07904Y02671D01*
X07995Y02671D01*
X08079Y02706D01*
X08144Y02770D01*
X08179Y02854D01*
X08179Y01167D01*
X08058Y01046D01*
X07978Y00855D01*
X07978Y00647D01*
X08057Y00455D01*
X08204Y00308D01*
X08395Y00228D01*
X08603Y00228D01*
X08795Y00307D01*
X08942Y00454D01*
X09000Y00593D01*
X09057Y00455D01*
X09204Y00308D01*
X09395Y00228D01*
X09603Y00228D01*
X09795Y00307D01*
X09942Y00454D01*
X10000Y00593D01*
X10057Y00455D01*
X10204Y00308D01*
X10395Y00228D01*
X10603Y00228D01*
X10795Y00307D01*
X10942Y00454D01*
X11000Y00593D01*
X11057Y00455D01*
X11204Y00308D01*
X11395Y00228D01*
X11603Y00228D01*
X11795Y00307D01*
X11942Y00454D01*
X12022Y00645D01*
X12022Y-00346D01*
X07975Y-00346D01*
X07975Y00833D01*
X07907Y01009D01*
X07895Y01026D01*
X07832Y01069D01*
X07819Y01056D01*
X07819Y01082D01*
X07776Y01145D01*
X07605Y01221D01*
X07417Y01225D01*
X07241Y01157D01*
X07224Y01145D01*
X07181Y01082D01*
X07500Y00763D01*
X07819Y01082D01*
X07819Y01056D01*
X07513Y00750D01*
X07832Y00431D01*
X07895Y00474D01*
X07971Y00645D01*
X07975Y00833D01*
X07975Y-00346D01*
X07819Y-00346D01*
X07819Y00418D01*
X07500Y00737D01*
X07487Y00724D01*
X07487Y00750D01*
X07168Y01069D01*
X07105Y01026D01*
X07029Y00855D01*
X07025Y00667D01*
X07093Y00491D01*
X07105Y00474D01*
X07168Y00431D01*
X07487Y00750D01*
X07487Y00724D01*
X07181Y00418D01*
X07224Y00355D01*
X07395Y00279D01*
X07583Y00275D01*
X07759Y00343D01*
X07776Y00355D01*
X07819Y00418D01*
X07819Y-00346D01*
X07022Y-00346D01*
X07022Y00645D01*
X07022Y00853D01*
X07004Y00897D01*
X07004Y02229D01*
X07004Y02320D01*
X06969Y02404D01*
X06905Y02469D01*
X06821Y02504D01*
X06730Y02504D01*
X06646Y02469D01*
X06581Y02405D01*
X06546Y02321D01*
X06546Y02230D01*
X06581Y02146D01*
X06645Y02081D01*
X06729Y02046D01*
X06820Y02046D01*
X06904Y02081D01*
X06969Y02145D01*
X07004Y02229D01*
X07004Y00897D01*
X06943Y01045D01*
X06796Y01192D01*
X06605Y01272D01*
X06397Y01272D01*
X06205Y01193D01*
X06203Y01191D01*
X06203Y03974D01*
X06203Y04075D01*
X06165Y04168D01*
X06094Y04239D01*
X06053Y04257D01*
X06053Y05624D01*
X06053Y05725D01*
X06022Y05801D01*
X06022Y09645D01*
X06022Y09853D01*
X05943Y10045D01*
X05796Y10192D01*
X05605Y10272D01*
X05397Y10272D01*
X05205Y10193D01*
X05058Y10046D01*
X04999Y09908D01*
X04943Y10045D01*
X04796Y10192D01*
X04605Y10272D01*
X04397Y10272D01*
X04205Y10193D01*
X04058Y10046D01*
X03978Y09855D01*
X03978Y09647D01*
X04057Y09455D01*
X04204Y09308D01*
X04395Y09228D01*
X04603Y09228D01*
X04795Y09307D01*
X04942Y09454D01*
X05000Y09593D01*
X05057Y09455D01*
X05204Y09308D01*
X05395Y09228D01*
X05603Y09228D01*
X05795Y09307D01*
X05942Y09454D01*
X06022Y09645D01*
X06022Y05801D01*
X06015Y05818D01*
X05944Y05889D01*
X05851Y05928D01*
X05750Y05928D01*
X05657Y05890D01*
X05586Y05819D01*
X05547Y05726D01*
X05547Y05625D01*
X05585Y05532D01*
X05656Y05461D01*
X05749Y05422D01*
X05850Y05422D01*
X05943Y05460D01*
X06014Y05531D01*
X06053Y05624D01*
X06053Y04257D01*
X06001Y04278D01*
X05900Y04278D01*
X05807Y04240D01*
X05736Y04169D01*
X05697Y04076D01*
X05697Y03975D01*
X05735Y03882D01*
X05806Y03811D01*
X05899Y03772D01*
X06000Y03772D01*
X06093Y03810D01*
X06164Y03881D01*
X06203Y03974D01*
X06203Y01191D01*
X06058Y01046D01*
X05999Y00908D01*
X05943Y01045D01*
X05804Y01184D01*
X05804Y03379D01*
X05804Y03470D01*
X05769Y03554D01*
X05705Y03619D01*
X05621Y03654D01*
X05530Y03654D01*
X05446Y03619D01*
X05381Y03555D01*
X05346Y03471D01*
X05346Y03380D01*
X05381Y03296D01*
X05445Y03231D01*
X05529Y03196D01*
X05620Y03196D01*
X05704Y03231D01*
X05769Y03295D01*
X05804Y03379D01*
X05804Y01184D01*
X05796Y01192D01*
X05605Y01272D01*
X05397Y01272D01*
X05303Y01234D01*
X05303Y02399D01*
X05303Y02500D01*
X05265Y02593D01*
X05194Y02664D01*
X05101Y02703D01*
X05000Y02703D01*
X04907Y02665D01*
X04836Y02594D01*
X04797Y02501D01*
X04797Y02400D01*
X04835Y02307D01*
X04906Y02236D01*
X04999Y02197D01*
X05100Y02197D01*
X05193Y02235D01*
X05264Y02306D01*
X05303Y02399D01*
X05303Y01234D01*
X05205Y01193D01*
X05058Y01046D01*
X04999Y00908D01*
X04943Y01045D01*
X04796Y01192D01*
X04654Y01252D01*
X04654Y05554D01*
X04654Y05645D01*
X04619Y05729D01*
X04555Y05794D01*
X04471Y05829D01*
X04380Y05829D01*
X04296Y05794D01*
X04279Y05778D01*
X04279Y07754D01*
X04279Y07845D01*
X04244Y07929D01*
X04180Y07994D01*
X04096Y08029D01*
X04005Y08029D01*
X03975Y08017D01*
X03975Y09833D01*
X03907Y10009D01*
X03895Y10026D01*
X03832Y10069D01*
X03819Y10056D01*
X03819Y10082D01*
X03776Y10145D01*
X03605Y10221D01*
X03417Y10225D01*
X03241Y10157D01*
X03224Y10145D01*
X03181Y10082D01*
X03500Y09763D01*
X03819Y10082D01*
X03819Y10056D01*
X03513Y09750D01*
X03832Y09431D01*
X03895Y09474D01*
X03971Y09645D01*
X03975Y09833D01*
X03975Y08017D01*
X03928Y07997D01*
X03928Y08399D01*
X03928Y08500D01*
X03890Y08593D01*
X03819Y08664D01*
X03819Y09418D01*
X03500Y09737D01*
X03487Y09724D01*
X03487Y09750D01*
X03168Y10069D01*
X03105Y10026D01*
X03029Y09855D01*
X03025Y09667D01*
X03093Y09491D01*
X03105Y09474D01*
X03168Y09431D01*
X03487Y09750D01*
X03487Y09724D01*
X03181Y09418D01*
X03224Y09355D01*
X03395Y09279D01*
X03583Y09275D01*
X03759Y09343D01*
X03776Y09355D01*
X03819Y09418D01*
X03819Y08664D01*
X03726Y08703D01*
X03625Y08703D01*
X03532Y08665D01*
X03461Y08594D01*
X03422Y08501D01*
X03422Y08400D01*
X03460Y08307D01*
X03531Y08236D01*
X03624Y08197D01*
X03725Y08197D01*
X03818Y08235D01*
X03889Y08306D01*
X03928Y08399D01*
X03928Y07997D01*
X03921Y07994D01*
X03856Y07930D01*
X03821Y07846D01*
X03821Y07755D01*
X03856Y07671D01*
X03920Y07606D01*
X04004Y07571D01*
X04095Y07571D01*
X04179Y07606D01*
X04244Y07670D01*
X04279Y07754D01*
X04279Y05778D01*
X04231Y05730D01*
X04196Y05646D01*
X04196Y05555D01*
X04231Y05471D01*
X04295Y05406D01*
X04379Y05371D01*
X04470Y05371D01*
X04554Y05406D01*
X04619Y05470D01*
X04654Y05554D01*
X04654Y01252D01*
X04605Y01272D01*
X04454Y01272D01*
X04454Y02354D01*
X04454Y02445D01*
X04419Y02529D01*
X04355Y02594D01*
X04278Y02627D01*
X04278Y04099D01*
X04278Y04200D01*
X04240Y04293D01*
X04169Y04364D01*
X04076Y04403D01*
X03978Y04403D01*
X03978Y07049D01*
X03978Y07150D01*
X03940Y07243D01*
X03869Y07314D01*
X03776Y07353D01*
X03675Y07353D01*
X03582Y07315D01*
X03511Y07244D01*
X03472Y07151D01*
X03472Y07050D01*
X03510Y06957D01*
X03581Y06886D01*
X03674Y06847D01*
X03775Y06847D01*
X03868Y06885D01*
X03939Y06956D01*
X03978Y07049D01*
X03978Y04403D01*
X03975Y04403D01*
X03882Y04365D01*
X03811Y04294D01*
X03772Y04201D01*
X03772Y04100D01*
X03810Y04007D01*
X03881Y03936D01*
X03974Y03897D01*
X04075Y03897D01*
X04168Y03935D01*
X04239Y04006D01*
X04278Y04099D01*
X04278Y02627D01*
X04271Y02629D01*
X04180Y02629D01*
X04096Y02594D01*
X04031Y02530D01*
X03996Y02446D01*
X03996Y02355D01*
X04031Y02271D01*
X04095Y02206D01*
X04179Y02171D01*
X04270Y02171D01*
X04354Y02206D01*
X04419Y02270D01*
X04454Y02354D01*
X04454Y01272D01*
X04429Y01272D01*
X04429Y01554D01*
X04429Y01645D01*
X04394Y01729D01*
X04330Y01794D01*
X04246Y01829D01*
X04155Y01829D01*
X04071Y01794D01*
X04006Y01730D01*
X03971Y01646D01*
X03971Y01555D01*
X04006Y01471D01*
X04070Y01406D01*
X04154Y01371D01*
X04245Y01371D01*
X04329Y01406D01*
X04394Y01470D01*
X04429Y01554D01*
X04429Y01272D01*
X04397Y01272D01*
X04205Y01193D01*
X04058Y01046D01*
X03999Y00908D01*
X03943Y01045D01*
X03853Y01135D01*
X03853Y02374D01*
X03853Y02475D01*
X03815Y02568D01*
X03744Y02639D01*
X03651Y02678D01*
X03628Y02678D01*
X03628Y04974D01*
X03628Y05075D01*
X03590Y05168D01*
X03519Y05239D01*
X03453Y05267D01*
X03453Y07124D01*
X03453Y07225D01*
X03415Y07318D01*
X03344Y07389D01*
X03251Y07428D01*
X03150Y07428D01*
X03057Y07390D01*
X03022Y07355D01*
X03022Y09645D01*
X03022Y09853D01*
X02943Y10045D01*
X02796Y10192D01*
X02605Y10272D01*
X02397Y10272D01*
X02205Y10193D01*
X02058Y10046D01*
X01999Y09908D01*
X01943Y10045D01*
X01796Y10192D01*
X01605Y10272D01*
X01397Y10272D01*
X01205Y10193D01*
X01058Y10046D01*
X00978Y09855D01*
X00978Y09647D01*
X01057Y09455D01*
X01204Y09308D01*
X01395Y09228D01*
X01603Y09228D01*
X01795Y09307D01*
X01942Y09454D01*
X02000Y09593D01*
X02057Y09455D01*
X02204Y09308D01*
X02395Y09228D01*
X02603Y09228D01*
X02795Y09307D01*
X02942Y09454D01*
X03022Y09645D01*
X03022Y07355D01*
X02986Y07319D01*
X02947Y07226D01*
X02947Y07125D01*
X02985Y07032D01*
X03056Y06961D01*
X03149Y06922D01*
X03250Y06922D01*
X03343Y06960D01*
X03414Y07031D01*
X03453Y07124D01*
X03453Y05267D01*
X03426Y05278D01*
X03325Y05278D01*
X03232Y05240D01*
X03161Y05169D01*
X03122Y05076D01*
X03122Y04975D01*
X03160Y04882D01*
X03231Y04811D01*
X03324Y04772D01*
X03425Y04772D01*
X03518Y04810D01*
X03589Y04881D01*
X03628Y04974D01*
X03628Y02678D01*
X03550Y02678D01*
X03457Y02640D01*
X03386Y02569D01*
X03347Y02476D01*
X03347Y02375D01*
X03385Y02282D01*
X03456Y02211D01*
X03549Y02172D01*
X03650Y02172D01*
X03743Y02210D01*
X03814Y02281D01*
X03853Y02374D01*
X03853Y01135D01*
X03796Y01192D01*
X03605Y01272D01*
X03397Y01272D01*
X03304Y01234D01*
X03304Y02479D01*
X03304Y02570D01*
X03269Y02654D01*
X03205Y02719D01*
X03121Y02754D01*
X03030Y02754D01*
X02946Y02719D01*
X02928Y02702D01*
X02928Y07999D01*
X02928Y08100D01*
X02890Y08193D01*
X02819Y08264D01*
X02726Y08303D01*
X02625Y08303D01*
X02532Y08265D01*
X02461Y08194D01*
X02422Y08101D01*
X02422Y08000D01*
X02460Y07907D01*
X02531Y07836D01*
X02624Y07797D01*
X02725Y07797D01*
X02818Y07835D01*
X02889Y07906D01*
X02928Y07999D01*
X02928Y02702D01*
X02881Y02655D01*
X02846Y02571D01*
X02846Y02480D01*
X02881Y02396D01*
X02945Y02331D01*
X03029Y02296D01*
X03120Y02296D01*
X03204Y02331D01*
X03269Y02395D01*
X03304Y02479D01*
X03304Y01234D01*
X03205Y01193D01*
X03058Y01046D01*
X02978Y00855D01*
X02978Y00647D01*
X03057Y00455D01*
X03204Y00308D01*
X03395Y00228D01*
X03603Y00228D01*
X03795Y00307D01*
X03942Y00454D01*
X04000Y00593D01*
X04057Y00455D01*
X04204Y00308D01*
X04395Y00228D01*
X04603Y00228D01*
X04795Y00307D01*
X04942Y00454D01*
X05000Y00593D01*
X05057Y00455D01*
X05204Y00308D01*
X05395Y00228D01*
X05603Y00228D01*
X05795Y00307D01*
X05942Y00454D01*
X06000Y00593D01*
X06057Y00455D01*
X06204Y00308D01*
X06395Y00228D01*
X06603Y00228D01*
X06795Y00307D01*
X06942Y00454D01*
X07022Y00645D01*
X07022Y-00346D01*
X02975Y-00346D01*
X02975Y00833D01*
X02907Y01009D01*
X02895Y01026D01*
X02832Y01069D01*
X02819Y01056D01*
X02819Y01082D01*
X02804Y01104D01*
X02804Y07154D01*
X02804Y07245D01*
X02769Y07329D01*
X02705Y07394D01*
X02621Y07429D01*
X02530Y07429D01*
X02446Y07394D01*
X02381Y07330D01*
X02378Y07323D01*
X02378Y08824D01*
X02378Y08925D01*
X02340Y09018D01*
X02269Y09089D01*
X02176Y09128D01*
X02075Y09128D01*
X01982Y09090D01*
X01911Y09019D01*
X01872Y08926D01*
X01872Y08825D01*
X01910Y08732D01*
X01981Y08661D01*
X02074Y08622D01*
X02175Y08622D01*
X02268Y08660D01*
X02339Y08731D01*
X02378Y08824D01*
X02378Y07323D01*
X02346Y07246D01*
X02346Y07155D01*
X02381Y07071D01*
X02445Y07006D01*
X02529Y06971D01*
X02620Y06971D01*
X02704Y07006D01*
X02769Y07070D01*
X02804Y07154D01*
X02804Y01104D01*
X02779Y01141D01*
X02779Y05079D01*
X02779Y05170D01*
X02744Y05254D01*
X02680Y05319D01*
X02596Y05354D01*
X02505Y05354D01*
X02421Y05319D01*
X02356Y05255D01*
X02321Y05171D01*
X02321Y05080D01*
X02356Y04996D01*
X02420Y04931D01*
X02504Y04896D01*
X02595Y04896D01*
X02679Y04931D01*
X02744Y04995D01*
X02779Y05079D01*
X02779Y01141D01*
X02776Y01145D01*
X02605Y01221D01*
X02528Y01223D01*
X02528Y03099D01*
X02528Y03200D01*
X02490Y03293D01*
X02419Y03364D01*
X02326Y03403D01*
X02225Y03403D01*
X02132Y03365D01*
X02129Y03362D01*
X02129Y07979D01*
X02129Y08070D01*
X02094Y08154D01*
X02030Y08219D01*
X01946Y08254D01*
X01855Y08254D01*
X01771Y08219D01*
X01706Y08155D01*
X01671Y08071D01*
X01671Y07980D01*
X01706Y07896D01*
X01770Y07831D01*
X01854Y07796D01*
X01945Y07796D01*
X02029Y07831D01*
X02094Y07895D01*
X02129Y07979D01*
X02129Y03362D01*
X02061Y03294D01*
X02022Y03201D01*
X02022Y03100D01*
X02060Y03007D01*
X02131Y02936D01*
X02224Y02897D01*
X02325Y02897D01*
X02418Y02935D01*
X02489Y03006D01*
X02528Y03099D01*
X02528Y01223D01*
X02417Y01225D01*
X02241Y01157D01*
X02224Y01145D01*
X02181Y01082D01*
X02500Y00763D01*
X02819Y01082D01*
X02819Y01056D01*
X02513Y00750D01*
X02832Y00431D01*
X02895Y00474D01*
X02971Y00645D01*
X02975Y00833D01*
X02975Y-00346D01*
X02819Y-00346D01*
X02819Y00418D01*
X02500Y00737D01*
X02487Y00724D01*
X02487Y00750D01*
X02168Y01069D01*
X02105Y01026D01*
X02029Y00855D01*
X02025Y00667D01*
X02093Y00491D01*
X02105Y00474D01*
X02168Y00431D01*
X02487Y00750D01*
X02487Y00724D01*
X02181Y00418D01*
X02224Y00355D01*
X02395Y00279D01*
X02583Y00275D01*
X02759Y00343D01*
X02776Y00355D01*
X02819Y00418D01*
X02819Y-00346D01*
X02022Y-00346D01*
X02022Y00645D01*
X02022Y00853D01*
X01943Y01045D01*
X01928Y01060D01*
X01928Y06474D01*
X01928Y06575D01*
X01890Y06668D01*
X01819Y06739D01*
X01726Y06778D01*
X01625Y06778D01*
X01532Y06740D01*
X01478Y06686D01*
X01478Y07049D01*
X01478Y07150D01*
X01440Y07243D01*
X01369Y07314D01*
X01276Y07353D01*
X01175Y07353D01*
X01082Y07315D01*
X01011Y07244D01*
X00975Y07159D01*
X00975Y09833D01*
X00907Y10009D01*
X00895Y10026D01*
X00832Y10069D01*
X00819Y10056D01*
X00819Y10082D01*
X00776Y10145D01*
X00605Y10221D01*
X00417Y10225D01*
X00241Y10157D01*
X00224Y10145D01*
X00181Y10082D01*
X00500Y09763D01*
X00819Y10082D01*
X00819Y10056D01*
X00513Y09750D01*
X00832Y09431D01*
X00895Y09474D01*
X00971Y09645D01*
X00975Y09833D01*
X00975Y07159D01*
X00972Y07151D01*
X00972Y07050D01*
X01010Y06957D01*
X01081Y06886D01*
X01174Y06847D01*
X01275Y06847D01*
X01368Y06885D01*
X01439Y06956D01*
X01478Y07049D01*
X01478Y06686D01*
X01461Y06669D01*
X01422Y06576D01*
X01422Y06475D01*
X01460Y06382D01*
X01531Y06311D01*
X01624Y06272D01*
X01725Y06272D01*
X01818Y06310D01*
X01889Y06381D01*
X01928Y06474D01*
X01928Y01060D01*
X01796Y01192D01*
X01605Y01272D01*
X01397Y01272D01*
X01205Y01193D01*
X01058Y01046D01*
X01023Y00963D01*
X01023Y03675D01*
X01023Y03825D01*
X00966Y03964D01*
X00859Y04070D01*
X00720Y04128D01*
X00570Y04128D01*
X00280Y04128D01*
X00141Y04071D01*
X00035Y03964D01*
X00005Y03894D01*
X-00057Y04045D01*
X-00204Y04192D01*
X-00343Y04251D01*
X-00205Y04307D01*
X-00058Y04454D01*
X00000Y04593D01*
X00057Y04455D01*
X00204Y04308D01*
X00395Y04228D01*
X00603Y04228D01*
X00795Y04307D01*
X00942Y04454D01*
X01022Y04645D01*
X01022Y04853D01*
X00943Y05045D01*
X00819Y05169D01*
X00819Y09418D01*
X00500Y09737D01*
X00487Y09724D01*
X00487Y09750D01*
X00168Y10069D01*
X00105Y10026D01*
X00029Y09855D01*
X00025Y09667D01*
X00093Y09491D01*
X00105Y09474D01*
X00168Y09431D01*
X00487Y09750D01*
X00487Y09724D01*
X00181Y09418D01*
X00224Y09355D01*
X00395Y09279D01*
X00583Y09275D01*
X00759Y09343D01*
X00776Y09355D01*
X00819Y09418D01*
X00819Y05169D01*
X00796Y05192D01*
X00605Y05272D01*
X00397Y05272D01*
X00205Y05193D01*
X00058Y05046D01*
X-00001Y04908D01*
X-00057Y05045D01*
X-00204Y05192D01*
X-00343Y05251D01*
X-00205Y05307D01*
X-00058Y05454D01*
X00022Y05645D01*
X00022Y05853D01*
X-00057Y06045D01*
X-00204Y06192D01*
X-00343Y06251D01*
X-00205Y06307D01*
X-00058Y06454D01*
X00022Y06645D01*
X00022Y06853D01*
X00022Y09645D01*
X00022Y09853D01*
X-00057Y10045D01*
X-00204Y10192D01*
X-00395Y10272D01*
X-00603Y10272D01*
X-00795Y10193D01*
X-00942Y10046D01*
X-01022Y09855D01*
X-01022Y09647D01*
X-00943Y09455D01*
X-00796Y09308D01*
X-00605Y09228D01*
X-00397Y09228D01*
X-00205Y09307D01*
X-00058Y09454D01*
X00022Y09645D01*
X00022Y06853D01*
X-00057Y07045D01*
X-00135Y07123D01*
X-00135Y08719D01*
X-00135Y08781D01*
X-00136Y09007D01*
X-00136Y09042D01*
X-00149Y09075D01*
X-00174Y09100D01*
X-00207Y09114D01*
X-00469Y09115D01*
X-00491Y09093D01*
X-00491Y08759D01*
X-00157Y08759D01*
X-00135Y08781D01*
X-00135Y08719D01*
X-00157Y08741D01*
X-00491Y08741D01*
X-00491Y08407D01*
X-00469Y08385D01*
X-00207Y08386D01*
X-00174Y08400D01*
X-00149Y08425D01*
X-00136Y08458D01*
X-00136Y08493D01*
X-00135Y08719D01*
X-00135Y07123D01*
X-00204Y07192D01*
X-00395Y07272D01*
X-00509Y07272D01*
X-00509Y08407D01*
X-00509Y08741D01*
X-00509Y08759D01*
X-00509Y09093D01*
X-00531Y09115D01*
X-00793Y09114D01*
X-00826Y09100D01*
X-00851Y09075D01*
X-00864Y09042D01*
X-00864Y09007D01*
X-00865Y08781D01*
X-00843Y08759D01*
X-00509Y08759D01*
X-00509Y08741D01*
X-00843Y08741D01*
X-00865Y08719D01*
X-00864Y08493D01*
X-00864Y08458D01*
X-00851Y08425D01*
X-00826Y08400D01*
X-00793Y08386D01*
X-00531Y08385D01*
X-00509Y08407D01*
X-00509Y07272D01*
X-00603Y07272D01*
X-00795Y07193D01*
X-00942Y07046D01*
X-01022Y06855D01*
X-01022Y06647D01*
X-00943Y06455D01*
X-00796Y06308D01*
X-00658Y06250D01*
X-00795Y06193D01*
X-00942Y06046D01*
X-01022Y05855D01*
X-01022Y05647D01*
X-00943Y05455D01*
X-00796Y05308D01*
X-00658Y05250D01*
X-00795Y05193D01*
X-00942Y05046D01*
X-01022Y04855D01*
X-01022Y04647D01*
X-00943Y04455D01*
X-00796Y04308D01*
X-00658Y04250D01*
X-00795Y04193D01*
X-00942Y04046D01*
X-01022Y03855D01*
X-01022Y03647D01*
X-00943Y03455D01*
X-00796Y03308D01*
X-00605Y03228D01*
X-00397Y03228D01*
X-00205Y03307D01*
X-00058Y03454D01*
X00005Y03606D01*
X00034Y03536D01*
X00141Y03430D01*
X00280Y03372D01*
X00430Y03372D01*
X00720Y03372D01*
X00859Y03429D01*
X00965Y03536D01*
X01023Y03675D01*
X01023Y00963D01*
X00978Y00855D01*
X00978Y00647D01*
X01057Y00455D01*
X01204Y00308D01*
X01395Y00228D01*
X01603Y00228D01*
X01795Y00307D01*
X01942Y00454D01*
X02022Y00645D01*
X02022Y-00346D01*
X00975Y-00346D01*
X00975Y00833D01*
X00907Y01009D01*
X00895Y01026D01*
X00832Y01069D01*
X00826Y01063D01*
X00826Y02582D01*
X00826Y02741D01*
X00826Y02759D01*
X00826Y02918D01*
X00782Y03039D01*
X00695Y03134D01*
X00560Y03188D01*
X00509Y03171D01*
X00509Y02759D01*
X00826Y02759D01*
X00826Y02741D01*
X00509Y02741D01*
X00509Y02329D01*
X00560Y02312D01*
X00695Y02366D01*
X00782Y02461D01*
X00826Y02582D01*
X00826Y01063D01*
X00819Y01056D01*
X00819Y01082D01*
X00776Y01145D01*
X00605Y01221D01*
X00491Y01224D01*
X00491Y02329D01*
X00491Y02741D01*
X00491Y02759D01*
X00491Y03171D01*
X00440Y03188D01*
X00305Y03134D01*
X00218Y03039D01*
X00174Y02918D01*
X00174Y02759D01*
X00491Y02759D01*
X00491Y02741D01*
X00174Y02741D01*
X00174Y02582D01*
X00218Y02461D01*
X00305Y02366D01*
X00440Y02312D01*
X00491Y02329D01*
X00491Y01224D01*
X00417Y01225D01*
X00241Y01157D01*
X00224Y01145D01*
X00181Y01082D01*
X00500Y00763D01*
X00819Y01082D01*
X00819Y01056D01*
X00513Y00750D01*
X00832Y00431D01*
X00895Y00474D01*
X00971Y00645D01*
X00975Y00833D01*
X00975Y-00346D01*
X00819Y-00346D01*
X00819Y00418D01*
X00500Y00737D01*
X00487Y00724D01*
X00487Y00750D01*
X00168Y01069D01*
X00105Y01026D01*
X00029Y00855D01*
X00025Y00667D01*
X00093Y00491D01*
X00105Y00474D01*
X00168Y00431D01*
X00487Y00750D01*
X00487Y00724D01*
X00181Y00418D01*
X00224Y00355D01*
X00395Y00279D01*
X00583Y00275D01*
X00759Y00343D01*
X00776Y00355D01*
X00819Y00418D01*
X00819Y-00346D01*
X00022Y-00346D01*
X00022Y00645D01*
X00022Y00853D01*
X-00025Y00968D01*
X-00025Y02833D01*
X-00093Y03009D01*
X-00105Y03026D01*
X-00168Y03069D01*
X-00181Y03056D01*
X-00181Y03082D01*
X-00224Y03145D01*
X-00395Y03221D01*
X-00583Y03225D01*
X-00759Y03157D01*
X-00776Y03145D01*
X-00819Y03082D01*
X-00500Y02763D01*
X-00181Y03082D01*
X-00181Y03056D01*
X-00487Y02750D01*
X-00168Y02431D01*
X-00105Y02474D01*
X-00029Y02645D01*
X-00025Y02833D01*
X-00025Y00968D01*
X-00057Y01045D01*
X-00181Y01169D01*
X-00181Y02418D01*
X-00500Y02737D01*
X-00513Y02724D01*
X-00513Y02750D01*
X-00832Y03069D01*
X-00895Y03026D01*
X-00971Y02855D01*
X-00975Y02667D01*
X-00907Y02491D01*
X-00895Y02474D01*
X-00832Y02431D01*
X-00513Y02750D01*
X-00513Y02724D01*
X-00819Y02418D01*
X-00776Y02355D01*
X-00605Y02279D01*
X-00417Y02275D01*
X-00241Y02343D01*
X-00224Y02355D01*
X-00181Y02418D01*
X-00181Y01169D01*
X-00204Y01192D01*
X-00395Y01272D01*
X-00603Y01272D01*
X-00795Y01193D01*
X-00942Y01046D01*
X-01022Y00855D01*
X-01022Y00647D01*
X-00943Y00455D01*
X-00796Y00308D01*
X-00605Y00228D01*
X-00397Y00228D01*
X-00205Y00307D01*
X-00058Y00454D01*
X00022Y00645D01*
X00022Y-00346D01*
X-00613Y-00346D01*
X-01896Y01031D01*
X-01896Y09760D01*
X-00979Y10700D01*
X18806Y10650D01*
X19720Y09842D01*
X19850Y09712D01*
X19850Y08750D01*
X19022Y08750D01*
X19022Y09645D01*
X19022Y09853D01*
X18943Y10045D01*
X18796Y10192D01*
X18605Y10272D01*
X18397Y10272D01*
X18205Y10193D01*
X18058Y10046D01*
X17999Y09908D01*
X17943Y10045D01*
X17796Y10192D01*
X17605Y10272D01*
X17397Y10272D01*
X17205Y10193D01*
X17058Y10046D01*
X16978Y09855D01*
X16978Y09647D01*
X17057Y09455D01*
X17204Y09308D01*
X17395Y09228D01*
X17603Y09228D01*
X17795Y09307D01*
X17942Y09454D01*
X18000Y09593D01*
X18057Y09455D01*
X18204Y09308D01*
X18395Y09228D01*
X18603Y09228D01*
X18795Y09307D01*
X18942Y09454D01*
X19022Y09645D01*
X19022Y08750D01*
X17030Y08750D01*
X16975Y08698D01*
X16975Y09833D01*
X16907Y10009D01*
X16895Y10026D01*
X16832Y10069D01*
X16819Y10056D01*
X16819Y10082D01*
X16776Y10145D01*
X16605Y10221D01*
X16417Y10225D01*
X16241Y10157D01*
X16224Y10145D01*
X16181Y10082D01*
X16500Y09763D01*
X16819Y10082D01*
X16819Y10056D01*
X16513Y09750D01*
X16832Y09431D01*
X16895Y09474D01*
X16971Y09645D01*
X16975Y09833D01*
X16975Y08698D01*
X16819Y08550D01*
X16819Y09418D01*
X16500Y09737D01*
X16487Y09724D01*
X16487Y09750D01*
X16168Y10069D01*
X16105Y10026D01*
X16029Y09855D01*
X16025Y09667D01*
X16093Y09491D01*
X16105Y09474D01*
X16168Y09431D01*
X16487Y09750D01*
X16487Y09724D01*
X16181Y09418D01*
X16224Y09355D01*
X16395Y09279D01*
X16583Y09275D01*
X16759Y09343D01*
X16776Y09355D01*
X16819Y09418D01*
X16819Y08550D01*
X16022Y07792D01*
X16022Y09645D01*
X16022Y09853D01*
X15943Y10045D01*
X15796Y10192D01*
X15605Y10272D01*
X15397Y10272D01*
X15205Y10193D01*
X15058Y10046D01*
X14999Y09908D01*
X14943Y10045D01*
X14796Y10192D01*
X14605Y10272D01*
X14397Y10272D01*
X14205Y10193D01*
X14058Y10046D01*
X13999Y09908D01*
X13943Y10045D01*
X13796Y10192D01*
X13605Y10272D01*
X13397Y10272D01*
X13205Y10193D01*
X13058Y10046D01*
X12999Y09908D01*
X12943Y10045D01*
X12796Y10192D01*
X12605Y10272D01*
X12397Y10272D01*
X12205Y10193D01*
X12058Y10046D01*
X11999Y09908D01*
X11943Y10045D01*
X11796Y10192D01*
X11605Y10272D01*
X11397Y10272D01*
X11205Y10193D01*
X11058Y10046D01*
X10978Y09855D01*
X10978Y09647D01*
X11057Y09455D01*
X11204Y09308D01*
X11276Y09278D01*
X11196Y09244D01*
X11131Y09180D01*
X11096Y09096D01*
X11096Y09005D01*
X11131Y08921D01*
X11195Y08856D01*
X11279Y08821D01*
X11370Y08821D01*
X11454Y08856D01*
X11519Y08920D01*
X11554Y09004D01*
X11554Y09095D01*
X11519Y09179D01*
X11470Y09228D01*
X11603Y09228D01*
X11795Y09307D01*
X11942Y09454D01*
X12000Y09593D01*
X12057Y09455D01*
X12204Y09308D01*
X12395Y09228D01*
X12603Y09228D01*
X12795Y09307D01*
X12942Y09454D01*
X13000Y09593D01*
X13057Y09455D01*
X13204Y09308D01*
X13395Y09228D01*
X13603Y09228D01*
X13795Y09307D01*
X13942Y09454D01*
X14000Y09593D01*
X14057Y09455D01*
X14204Y09308D01*
X14395Y09228D01*
X14603Y09228D01*
X14795Y09307D01*
X14942Y09454D01*
X15000Y09593D01*
X15057Y09455D01*
X15204Y09308D01*
X15395Y09228D01*
X15603Y09228D01*
X15795Y09307D01*
X15942Y09454D01*
X16022Y09645D01*
X16022Y07792D01*
X16000Y07771D01*
X16000Y02700D01*
X17058Y01900D01*
X19896Y01900D01*
X19896Y00935D01*
X19896Y00935D01*
G37*
G54D25*
X19896Y00935D02*
X19150Y00190D01*
X18975Y00025D01*
X18975Y00833D01*
X18907Y01009D01*
X18895Y01026D01*
X18832Y01069D01*
X18819Y01056D01*
X18819Y01082D01*
X18776Y01145D01*
X18605Y01221D01*
X18417Y01225D01*
X18241Y01157D01*
X18224Y01145D01*
X18181Y01082D01*
X18500Y00763D01*
X18819Y01082D01*
X18819Y01056D01*
X18513Y00750D01*
X18832Y00431D01*
X18895Y00474D01*
X18971Y00645D01*
X18975Y00833D01*
X18975Y00025D01*
X18819Y-00123D01*
X18819Y00418D01*
X18500Y00737D01*
X18487Y00724D01*
X18487Y00750D01*
X18168Y01069D01*
X18105Y01026D01*
X18029Y00855D01*
X18025Y00667D01*
X18093Y00491D01*
X18105Y00474D01*
X18168Y00431D01*
X18487Y00750D01*
X18487Y00724D01*
X18181Y00418D01*
X18224Y00355D01*
X18395Y00279D01*
X18583Y00275D01*
X18759Y00343D01*
X18776Y00355D01*
X18819Y00418D01*
X18819Y-00123D01*
X18584Y-00346D01*
X18022Y-00346D01*
X18022Y00645D01*
X18022Y00853D01*
X17943Y01045D01*
X17796Y01192D01*
X17605Y01272D01*
X17397Y01272D01*
X17205Y01193D01*
X17058Y01046D01*
X16999Y00908D01*
X16943Y01045D01*
X16796Y01192D01*
X16605Y01272D01*
X16397Y01272D01*
X16205Y01193D01*
X16058Y01046D01*
X15999Y00908D01*
X15953Y01021D01*
X15953Y03699D01*
X15953Y03800D01*
X15915Y03893D01*
X15854Y03954D01*
X15854Y08379D01*
X15854Y08470D01*
X15819Y08554D01*
X15755Y08619D01*
X15671Y08654D01*
X15580Y08654D01*
X15496Y08619D01*
X15431Y08555D01*
X15396Y08471D01*
X15396Y08380D01*
X15431Y08296D01*
X15495Y08231D01*
X15579Y08196D01*
X15670Y08196D01*
X15754Y08231D01*
X15819Y08295D01*
X15854Y08379D01*
X15854Y03954D01*
X15844Y03964D01*
X15751Y04003D01*
X15686Y04003D01*
X15686Y06762D01*
X15686Y06863D01*
X15648Y06956D01*
X15577Y07027D01*
X15484Y07066D01*
X15383Y07066D01*
X15354Y07055D01*
X15354Y07924D01*
X15354Y07975D01*
X15354Y08525D01*
X15335Y08572D01*
X15299Y08609D01*
X15251Y08629D01*
X15200Y08629D01*
X14650Y08629D01*
X14603Y08610D01*
X14566Y08574D01*
X14546Y08526D01*
X14546Y08475D01*
X14546Y07925D01*
X14565Y07878D01*
X14601Y07841D01*
X14649Y07821D01*
X14700Y07821D01*
X15250Y07821D01*
X15297Y07840D01*
X15334Y07876D01*
X15354Y07924D01*
X15354Y07055D01*
X15290Y07028D01*
X15219Y06957D01*
X15180Y06864D01*
X15180Y06763D01*
X15218Y06670D01*
X15289Y06599D01*
X15382Y06560D01*
X15483Y06560D01*
X15576Y06598D01*
X15647Y06669D01*
X15686Y06762D01*
X15686Y04003D01*
X15650Y04003D01*
X15557Y03965D01*
X15486Y03894D01*
X15447Y03801D01*
X15447Y03700D01*
X15485Y03607D01*
X15556Y03536D01*
X15649Y03497D01*
X15750Y03497D01*
X15843Y03535D01*
X15914Y03606D01*
X15953Y03699D01*
X15953Y01021D01*
X15943Y01045D01*
X15796Y01192D01*
X15605Y01272D01*
X15397Y01272D01*
X15205Y01193D01*
X15058Y01046D01*
X14999Y00908D01*
X14943Y01045D01*
X14914Y01074D01*
X14914Y05767D01*
X14914Y05858D01*
X14879Y05942D01*
X14815Y06007D01*
X14731Y06042D01*
X14640Y06042D01*
X14556Y06007D01*
X14491Y05943D01*
X14456Y05859D01*
X14456Y05768D01*
X14491Y05684D01*
X14555Y05619D01*
X14639Y05584D01*
X14730Y05584D01*
X14814Y05619D01*
X14879Y05683D01*
X14914Y05767D01*
X14914Y01074D01*
X14796Y01192D01*
X14729Y01221D01*
X14729Y04854D01*
X14729Y04945D01*
X14694Y05029D01*
X14630Y05094D01*
X14546Y05129D01*
X14505Y05129D01*
X14505Y05373D01*
X14505Y05464D01*
X14470Y05548D01*
X14406Y05613D01*
X14353Y05636D01*
X14353Y08145D01*
X14353Y08305D01*
X14292Y08453D01*
X14178Y08567D01*
X14030Y08628D01*
X13870Y08628D01*
X13754Y08581D01*
X13754Y08854D01*
X13754Y08945D01*
X13719Y09029D01*
X13655Y09094D01*
X13571Y09129D01*
X13480Y09129D01*
X13396Y09094D01*
X13331Y09030D01*
X13296Y08946D01*
X13296Y08855D01*
X13331Y08771D01*
X13395Y08706D01*
X13479Y08671D01*
X13570Y08671D01*
X13654Y08706D01*
X13719Y08770D01*
X13754Y08854D01*
X13754Y08581D01*
X13722Y08567D01*
X13608Y08453D01*
X13547Y08305D01*
X13547Y08145D01*
X13608Y07997D01*
X13722Y07883D01*
X13870Y07822D01*
X14030Y07822D01*
X14178Y07883D01*
X14292Y07997D01*
X14353Y08145D01*
X14353Y05636D01*
X14322Y05648D01*
X14231Y05648D01*
X14178Y05626D01*
X14178Y06324D01*
X14178Y06425D01*
X14140Y06518D01*
X14069Y06589D01*
X13976Y06628D01*
X13875Y06628D01*
X13782Y06590D01*
X13711Y06519D01*
X13672Y06426D01*
X13672Y06325D01*
X13710Y06232D01*
X13781Y06161D01*
X13874Y06122D01*
X13975Y06122D01*
X14068Y06160D01*
X14139Y06231D01*
X14178Y06324D01*
X14178Y05626D01*
X14147Y05613D01*
X14082Y05549D01*
X14047Y05465D01*
X14047Y05374D01*
X14082Y05290D01*
X14146Y05225D01*
X14230Y05190D01*
X14321Y05190D01*
X14405Y05225D01*
X14470Y05289D01*
X14505Y05373D01*
X14505Y05129D01*
X14455Y05129D01*
X14371Y05094D01*
X14306Y05030D01*
X14271Y04946D01*
X14271Y04855D01*
X14306Y04771D01*
X14370Y04706D01*
X14454Y04671D01*
X14545Y04671D01*
X14629Y04706D01*
X14694Y04770D01*
X14729Y04854D01*
X14729Y01221D01*
X14605Y01272D01*
X14397Y01272D01*
X14354Y01255D01*
X14354Y03954D01*
X14354Y04045D01*
X14319Y04129D01*
X14255Y04194D01*
X14171Y04229D01*
X14080Y04229D01*
X13996Y04194D01*
X13931Y04130D01*
X13896Y04046D01*
X13896Y03955D01*
X13931Y03871D01*
X13995Y03806D01*
X14079Y03771D01*
X14170Y03771D01*
X14254Y03806D01*
X14319Y03870D01*
X14354Y03954D01*
X14354Y01255D01*
X14205Y01193D01*
X14058Y01046D01*
X13999Y00908D01*
X13943Y01045D01*
X13796Y01192D01*
X13605Y01272D01*
X13529Y01272D01*
X13529Y07979D01*
X13529Y08070D01*
X13494Y08154D01*
X13430Y08219D01*
X13346Y08254D01*
X13255Y08254D01*
X13171Y08219D01*
X13106Y08155D01*
X13104Y08151D01*
X13104Y08304D01*
X13104Y08395D01*
X13069Y08479D01*
X13005Y08544D01*
X12921Y08579D01*
X12830Y08579D01*
X12746Y08544D01*
X12681Y08480D01*
X12646Y08396D01*
X12646Y08305D01*
X12681Y08221D01*
X12745Y08156D01*
X12829Y08121D01*
X12920Y08121D01*
X13004Y08156D01*
X13069Y08220D01*
X13104Y08304D01*
X13104Y08151D01*
X13071Y08071D01*
X13071Y07980D01*
X13106Y07896D01*
X13170Y07831D01*
X13254Y07796D01*
X13345Y07796D01*
X13429Y07831D01*
X13494Y07895D01*
X13529Y07979D01*
X13529Y01272D01*
X13397Y01272D01*
X13328Y01244D01*
X13328Y06774D01*
X13328Y06875D01*
X13290Y06968D01*
X13219Y07039D01*
X13126Y07078D01*
X13025Y07078D01*
X13024Y07078D01*
X13024Y07554D01*
X13024Y07645D01*
X12989Y07729D01*
X12925Y07794D01*
X12841Y07829D01*
X12750Y07829D01*
X12666Y07794D01*
X12601Y07730D01*
X12566Y07646D01*
X12566Y07555D01*
X12601Y07471D01*
X12665Y07406D01*
X12749Y07371D01*
X12840Y07371D01*
X12924Y07406D01*
X12989Y07470D01*
X13024Y07554D01*
X13024Y07078D01*
X12932Y07040D01*
X12861Y06969D01*
X12822Y06876D01*
X12822Y06775D01*
X12860Y06682D01*
X12931Y06611D01*
X13024Y06572D01*
X13125Y06572D01*
X13218Y06610D01*
X13289Y06681D01*
X13328Y06774D01*
X13328Y01244D01*
X13205Y01193D01*
X13129Y01117D01*
X13129Y03504D01*
X13129Y03595D01*
X13094Y03679D01*
X13079Y03695D01*
X13079Y06329D01*
X13079Y06420D01*
X13044Y06504D01*
X12980Y06569D01*
X12896Y06604D01*
X12805Y06604D01*
X12721Y06569D01*
X12656Y06505D01*
X12621Y06421D01*
X12621Y06330D01*
X12656Y06246D01*
X12720Y06181D01*
X12804Y06146D01*
X12895Y06146D01*
X12979Y06181D01*
X13044Y06245D01*
X13079Y06329D01*
X13079Y03695D01*
X13054Y03720D01*
X13054Y05579D01*
X13054Y05670D01*
X13019Y05754D01*
X12955Y05819D01*
X12871Y05854D01*
X12780Y05854D01*
X12696Y05819D01*
X12631Y05755D01*
X12596Y05671D01*
X12596Y05580D01*
X12631Y05496D01*
X12695Y05431D01*
X12779Y05396D01*
X12870Y05396D01*
X12954Y05431D01*
X13019Y05495D01*
X13054Y05579D01*
X13054Y03720D01*
X13030Y03744D01*
X12946Y03779D01*
X12929Y03779D01*
X12929Y04879D01*
X12929Y04970D01*
X12894Y05054D01*
X12830Y05119D01*
X12746Y05154D01*
X12655Y05154D01*
X12571Y05119D01*
X12506Y05055D01*
X12471Y04971D01*
X12471Y04880D01*
X12506Y04796D01*
X12570Y04731D01*
X12654Y04696D01*
X12745Y04696D01*
X12829Y04731D01*
X12894Y04795D01*
X12929Y04879D01*
X12929Y03779D01*
X12855Y03779D01*
X12771Y03744D01*
X12706Y03680D01*
X12671Y03596D01*
X12671Y03505D01*
X12706Y03421D01*
X12770Y03356D01*
X12854Y03321D01*
X12945Y03321D01*
X13029Y03356D01*
X13094Y03420D01*
X13129Y03504D01*
X13129Y01117D01*
X13104Y01092D01*
X13104Y01404D01*
X13104Y01495D01*
X13069Y01579D01*
X13028Y01621D01*
X13028Y02074D01*
X13028Y02175D01*
X12990Y02268D01*
X12919Y02339D01*
X12826Y02378D01*
X12725Y02378D01*
X12632Y02340D01*
X12629Y02337D01*
X12629Y04304D01*
X12629Y04395D01*
X12594Y04479D01*
X12530Y04544D01*
X12454Y04576D01*
X12454Y07979D01*
X12454Y08070D01*
X12419Y08154D01*
X12355Y08219D01*
X12329Y08230D01*
X12329Y08854D01*
X12329Y08945D01*
X12294Y09029D01*
X12230Y09094D01*
X12146Y09129D01*
X12055Y09129D01*
X11971Y09094D01*
X11906Y09030D01*
X11871Y08946D01*
X11871Y08855D01*
X11906Y08771D01*
X11970Y08706D01*
X12054Y08671D01*
X12145Y08671D01*
X12229Y08706D01*
X12294Y08770D01*
X12329Y08854D01*
X12329Y08230D01*
X12271Y08254D01*
X12180Y08254D01*
X12096Y08219D01*
X12031Y08155D01*
X11996Y08071D01*
X11996Y07980D01*
X12031Y07896D01*
X12095Y07831D01*
X12179Y07796D01*
X12270Y07796D01*
X12354Y07831D01*
X12419Y07895D01*
X12454Y07979D01*
X12454Y04576D01*
X12446Y04579D01*
X12429Y04579D01*
X12429Y05629D01*
X12429Y05720D01*
X12394Y05804D01*
X12379Y05820D01*
X12379Y06754D01*
X12379Y06845D01*
X12344Y06929D01*
X12280Y06994D01*
X12196Y07029D01*
X12105Y07029D01*
X12021Y06994D01*
X11979Y06953D01*
X11979Y07754D01*
X11979Y07845D01*
X11944Y07929D01*
X11880Y07994D01*
X11854Y08005D01*
X11854Y08354D01*
X11854Y08445D01*
X11819Y08529D01*
X11755Y08594D01*
X11671Y08629D01*
X11580Y08629D01*
X11496Y08594D01*
X11431Y08530D01*
X11396Y08446D01*
X11396Y08355D01*
X11431Y08271D01*
X11495Y08206D01*
X11579Y08171D01*
X11670Y08171D01*
X11754Y08206D01*
X11819Y08270D01*
X11854Y08354D01*
X11854Y08005D01*
X11796Y08029D01*
X11705Y08029D01*
X11621Y07994D01*
X11556Y07930D01*
X11521Y07846D01*
X11521Y07755D01*
X11556Y07671D01*
X11620Y07606D01*
X11704Y07571D01*
X11795Y07571D01*
X11879Y07606D01*
X11944Y07670D01*
X11979Y07754D01*
X11979Y06953D01*
X11956Y06930D01*
X11921Y06846D01*
X11921Y06755D01*
X11956Y06671D01*
X12020Y06606D01*
X12104Y06571D01*
X12195Y06571D01*
X12279Y06606D01*
X12344Y06670D01*
X12379Y06754D01*
X12379Y05820D01*
X12354Y05845D01*
X12354Y06154D01*
X12354Y06245D01*
X12319Y06329D01*
X12255Y06394D01*
X12171Y06429D01*
X12080Y06429D01*
X11996Y06394D01*
X11931Y06330D01*
X11896Y06246D01*
X11896Y06155D01*
X11931Y06071D01*
X11995Y06006D01*
X12079Y05971D01*
X12170Y05971D01*
X12254Y06006D01*
X12319Y06070D01*
X12354Y06154D01*
X12354Y05845D01*
X12330Y05869D01*
X12246Y05904D01*
X12155Y05904D01*
X12071Y05869D01*
X12006Y05805D01*
X11971Y05721D01*
X11971Y05630D01*
X12006Y05546D01*
X12070Y05481D01*
X12154Y05446D01*
X12245Y05446D01*
X12329Y05481D01*
X12394Y05545D01*
X12429Y05629D01*
X12429Y04579D01*
X12355Y04579D01*
X12279Y04548D01*
X12279Y04854D01*
X12279Y04945D01*
X12244Y05029D01*
X12180Y05094D01*
X12096Y05129D01*
X12005Y05129D01*
X11921Y05094D01*
X11856Y05030D01*
X11821Y04946D01*
X11821Y04855D01*
X11856Y04771D01*
X11920Y04706D01*
X12004Y04671D01*
X12095Y04671D01*
X12179Y04706D01*
X12244Y04770D01*
X12279Y04854D01*
X12279Y04548D01*
X12271Y04544D01*
X12206Y04480D01*
X12171Y04396D01*
X12171Y04305D01*
X12206Y04221D01*
X12270Y04156D01*
X12354Y04121D01*
X12445Y04121D01*
X12529Y04156D01*
X12594Y04220D01*
X12629Y04304D01*
X12629Y02337D01*
X12604Y02312D01*
X12604Y03279D01*
X12604Y03370D01*
X12569Y03454D01*
X12505Y03519D01*
X12421Y03554D01*
X12379Y03554D01*
X12379Y03729D01*
X12379Y03820D01*
X12344Y03904D01*
X12280Y03969D01*
X12196Y04004D01*
X12105Y04004D01*
X12021Y03969D01*
X11956Y03905D01*
X11921Y03821D01*
X11921Y03730D01*
X11956Y03646D01*
X12020Y03581D01*
X12104Y03546D01*
X12195Y03546D01*
X12279Y03581D01*
X12344Y03645D01*
X12379Y03729D01*
X12379Y03554D01*
X12330Y03554D01*
X12246Y03519D01*
X12181Y03455D01*
X12146Y03371D01*
X12146Y03280D01*
X12181Y03196D01*
X12245Y03131D01*
X12329Y03096D01*
X12420Y03096D01*
X12504Y03131D01*
X12569Y03195D01*
X12604Y03279D01*
X12604Y02312D01*
X12561Y02269D01*
X12522Y02176D01*
X12522Y02075D01*
X12560Y01982D01*
X12631Y01911D01*
X12724Y01872D01*
X12825Y01872D01*
X12918Y01910D01*
X12989Y01981D01*
X13028Y02074D01*
X13028Y01621D01*
X13005Y01644D01*
X12921Y01679D01*
X12830Y01679D01*
X12746Y01644D01*
X12681Y01580D01*
X12646Y01496D01*
X12646Y01405D01*
X12681Y01321D01*
X12745Y01256D01*
X12829Y01221D01*
X12920Y01221D01*
X13004Y01256D01*
X13069Y01320D01*
X13104Y01404D01*
X13104Y01092D01*
X13058Y01046D01*
X12978Y00855D01*
X12978Y00647D01*
X13057Y00455D01*
X13204Y00308D01*
X13395Y00228D01*
X13603Y00228D01*
X13795Y00307D01*
X13942Y00454D01*
X14000Y00593D01*
X14057Y00455D01*
X14204Y00308D01*
X14395Y00228D01*
X14603Y00228D01*
X14795Y00307D01*
X14942Y00454D01*
X15000Y00593D01*
X15057Y00455D01*
X15204Y00308D01*
X15395Y00228D01*
X15603Y00228D01*
X15795Y00307D01*
X15942Y00454D01*
X16000Y00593D01*
X16057Y00455D01*
X16204Y00308D01*
X16395Y00228D01*
X16603Y00228D01*
X16795Y00307D01*
X16942Y00454D01*
X17000Y00593D01*
X17057Y00455D01*
X17204Y00308D01*
X17395Y00228D01*
X17603Y00228D01*
X17795Y00307D01*
X17942Y00454D01*
X18022Y00645D01*
X18022Y-00346D01*
X12975Y-00346D01*
X12975Y00833D01*
X12907Y01009D01*
X12895Y01026D01*
X12832Y01069D01*
X12819Y01056D01*
X12819Y01082D01*
X12776Y01145D01*
X12605Y01221D01*
X12417Y01225D01*
X12254Y01163D01*
X12254Y01304D01*
X12254Y01395D01*
X12219Y01479D01*
X12155Y01544D01*
X12071Y01579D01*
X11980Y01579D01*
X11979Y01579D01*
X11979Y01954D01*
X11979Y02045D01*
X11944Y02129D01*
X11880Y02194D01*
X11804Y02226D01*
X11804Y03154D01*
X11804Y03245D01*
X11779Y03305D01*
X11779Y04154D01*
X11779Y04245D01*
X11754Y04305D01*
X11754Y05279D01*
X11754Y05370D01*
X11754Y06904D01*
X11754Y06995D01*
X11719Y07079D01*
X11655Y07144D01*
X11571Y07179D01*
X11480Y07179D01*
X11396Y07144D01*
X11331Y07080D01*
X11329Y07076D01*
X11329Y08454D01*
X11329Y08545D01*
X11294Y08629D01*
X11230Y08694D01*
X11146Y08729D01*
X11055Y08729D01*
X11004Y08708D01*
X11004Y08954D01*
X11004Y09045D01*
X10975Y09115D01*
X10975Y09833D01*
X10907Y10009D01*
X10895Y10026D01*
X10832Y10069D01*
X10819Y10056D01*
X10819Y10082D01*
X10776Y10145D01*
X10605Y10221D01*
X10417Y10225D01*
X10241Y10157D01*
X10224Y10145D01*
X10181Y10082D01*
X10500Y09763D01*
X10819Y10082D01*
X10819Y10056D01*
X10513Y09750D01*
X10832Y09431D01*
X10895Y09474D01*
X10971Y09645D01*
X10975Y09833D01*
X10975Y09115D01*
X10969Y09129D01*
X10905Y09194D01*
X10821Y09229D01*
X10819Y09229D01*
X10819Y09418D01*
X10500Y09737D01*
X10487Y09724D01*
X10487Y09750D01*
X10168Y10069D01*
X10105Y10026D01*
X10029Y09855D01*
X10025Y09667D01*
X10093Y09491D01*
X10105Y09474D01*
X10168Y09431D01*
X10487Y09750D01*
X10487Y09724D01*
X10181Y09418D01*
X10224Y09355D01*
X10395Y09279D01*
X10583Y09275D01*
X10759Y09343D01*
X10776Y09355D01*
X10819Y09418D01*
X10819Y09229D01*
X10730Y09229D01*
X10646Y09194D01*
X10581Y09130D01*
X10546Y09046D01*
X10546Y08955D01*
X10581Y08871D01*
X10645Y08806D01*
X10729Y08771D01*
X10820Y08771D01*
X10904Y08806D01*
X10969Y08870D01*
X11004Y08954D01*
X11004Y08708D01*
X10971Y08694D01*
X10906Y08630D01*
X10871Y08546D01*
X10871Y08455D01*
X10906Y08371D01*
X10970Y08306D01*
X11054Y08271D01*
X11145Y08271D01*
X11229Y08306D01*
X11294Y08370D01*
X11329Y08454D01*
X11329Y07076D01*
X11296Y06996D01*
X11296Y06905D01*
X11331Y06821D01*
X11395Y06756D01*
X11479Y06721D01*
X11570Y06721D01*
X11654Y06756D01*
X11719Y06820D01*
X11754Y06904D01*
X11754Y05370D01*
X11719Y05454D01*
X11655Y05519D01*
X11571Y05554D01*
X11554Y05554D01*
X11554Y06104D01*
X11554Y06195D01*
X11519Y06279D01*
X11455Y06344D01*
X11371Y06379D01*
X11280Y06379D01*
X11196Y06344D01*
X11179Y06328D01*
X11179Y07704D01*
X11179Y07795D01*
X11144Y07879D01*
X11080Y07944D01*
X10996Y07979D01*
X10905Y07979D01*
X10829Y07948D01*
X10829Y08254D01*
X10829Y08345D01*
X10794Y08429D01*
X10730Y08494D01*
X10646Y08529D01*
X10555Y08529D01*
X10471Y08494D01*
X10406Y08430D01*
X10371Y08346D01*
X10371Y08255D01*
X10406Y08171D01*
X10470Y08106D01*
X10554Y08071D01*
X10645Y08071D01*
X10729Y08106D01*
X10794Y08170D01*
X10829Y08254D01*
X10829Y07948D01*
X10821Y07944D01*
X10756Y07880D01*
X10721Y07796D01*
X10721Y07705D01*
X10756Y07621D01*
X10820Y07556D01*
X10904Y07521D01*
X10995Y07521D01*
X11079Y07556D01*
X11144Y07620D01*
X11179Y07704D01*
X11179Y06328D01*
X11131Y06280D01*
X11096Y06196D01*
X11096Y06105D01*
X11131Y06021D01*
X11195Y05956D01*
X11279Y05921D01*
X11370Y05921D01*
X11454Y05956D01*
X11519Y06020D01*
X11554Y06104D01*
X11554Y05554D01*
X11480Y05554D01*
X11396Y05519D01*
X11331Y05455D01*
X11296Y05371D01*
X11296Y05280D01*
X11331Y05196D01*
X11395Y05131D01*
X11479Y05096D01*
X11570Y05096D01*
X11654Y05131D01*
X11719Y05195D01*
X11754Y05279D01*
X11754Y04305D01*
X11744Y04329D01*
X11680Y04394D01*
X11596Y04429D01*
X11579Y04429D01*
X11579Y04704D01*
X11579Y04795D01*
X11544Y04879D01*
X11480Y04944D01*
X11396Y04979D01*
X11305Y04979D01*
X11221Y04944D01*
X11156Y04880D01*
X11121Y04796D01*
X11121Y04705D01*
X11156Y04621D01*
X11220Y04556D01*
X11304Y04521D01*
X11395Y04521D01*
X11479Y04556D01*
X11544Y04620D01*
X11579Y04704D01*
X11579Y04429D01*
X11505Y04429D01*
X11421Y04394D01*
X11356Y04330D01*
X11321Y04246D01*
X11321Y04155D01*
X11356Y04071D01*
X11420Y04006D01*
X11504Y03971D01*
X11595Y03971D01*
X11679Y04006D01*
X11744Y04070D01*
X11779Y04154D01*
X11779Y03305D01*
X11769Y03329D01*
X11705Y03394D01*
X11621Y03429D01*
X11530Y03429D01*
X11479Y03408D01*
X11479Y03679D01*
X11479Y03770D01*
X11444Y03854D01*
X11380Y03919D01*
X11296Y03954D01*
X11205Y03954D01*
X11121Y03919D01*
X11056Y03855D01*
X11021Y03771D01*
X11021Y03680D01*
X11056Y03596D01*
X11120Y03531D01*
X11204Y03496D01*
X11295Y03496D01*
X11379Y03531D01*
X11444Y03595D01*
X11479Y03679D01*
X11479Y03408D01*
X11446Y03394D01*
X11381Y03330D01*
X11346Y03246D01*
X11346Y03155D01*
X11381Y03071D01*
X11445Y03006D01*
X11529Y02971D01*
X11620Y02971D01*
X11704Y03006D01*
X11769Y03070D01*
X11804Y03154D01*
X11804Y02226D01*
X11796Y02229D01*
X11705Y02229D01*
X11621Y02194D01*
X11556Y02130D01*
X11521Y02046D01*
X11521Y01955D01*
X11556Y01871D01*
X11620Y01806D01*
X11704Y01771D01*
X11795Y01771D01*
X11879Y01806D01*
X11944Y01870D01*
X11979Y01954D01*
X11979Y01579D01*
X11896Y01544D01*
X11831Y01480D01*
X11796Y01396D01*
X11796Y01305D01*
X11831Y01221D01*
X11895Y01156D01*
X11979Y01121D01*
X12070Y01121D01*
X12154Y01156D01*
X12219Y01220D01*
X12254Y01304D01*
X12254Y01163D01*
X12241Y01157D01*
X12224Y01145D01*
X12181Y01082D01*
X12500Y00763D01*
X12819Y01082D01*
X12819Y01056D01*
X12513Y00750D01*
X12832Y00431D01*
X12895Y00474D01*
X12971Y00645D01*
X12975Y00833D01*
X12975Y-00346D01*
X12819Y-00346D01*
X12819Y00418D01*
X12500Y00737D01*
X12487Y00724D01*
X12487Y00750D01*
X12168Y01069D01*
X12105Y01026D01*
X12029Y00855D01*
X12025Y00667D01*
X12093Y00491D01*
X12105Y00474D01*
X12168Y00431D01*
X12487Y00750D01*
X12487Y00724D01*
X12181Y00418D01*
X12224Y00355D01*
X12395Y00279D01*
X12583Y00275D01*
X12759Y00343D01*
X12776Y00355D01*
X12819Y00418D01*
X12819Y-00346D01*
X12022Y-00346D01*
X12022Y00645D01*
X12022Y00853D01*
X11943Y01045D01*
X11796Y01192D01*
X11779Y01200D01*
X11779Y01479D01*
X11779Y01570D01*
X11744Y01654D01*
X11680Y01719D01*
X11596Y01754D01*
X11505Y01754D01*
X11421Y01719D01*
X11356Y01655D01*
X11354Y01651D01*
X11354Y02129D01*
X11354Y02220D01*
X11319Y02304D01*
X11255Y02369D01*
X11171Y02404D01*
X11080Y02404D01*
X10996Y02369D01*
X10979Y02353D01*
X10979Y03454D01*
X10979Y03545D01*
X10944Y03629D01*
X10880Y03694D01*
X10804Y03726D01*
X10804Y05154D01*
X10804Y05245D01*
X10804Y06329D01*
X10804Y06420D01*
X10769Y06504D01*
X10705Y06569D01*
X10621Y06604D01*
X10604Y06604D01*
X10604Y06929D01*
X10604Y07020D01*
X10569Y07104D01*
X10505Y07169D01*
X10421Y07204D01*
X10330Y07204D01*
X10246Y07169D01*
X10181Y07105D01*
X10179Y07101D01*
X10179Y08529D01*
X10179Y08620D01*
X10144Y08704D01*
X10104Y08745D01*
X10104Y09129D01*
X10104Y09220D01*
X10069Y09304D01*
X10005Y09369D01*
X09921Y09404D01*
X09892Y09404D01*
X09942Y09454D01*
X10022Y09645D01*
X10022Y09853D01*
X09943Y10045D01*
X09796Y10192D01*
X09605Y10272D01*
X09397Y10272D01*
X09205Y10193D01*
X09058Y10046D01*
X08999Y09908D01*
X08943Y10045D01*
X08796Y10192D01*
X08605Y10272D01*
X08397Y10272D01*
X08205Y10193D01*
X08058Y10046D01*
X07999Y09908D01*
X07943Y10045D01*
X07796Y10192D01*
X07605Y10272D01*
X07397Y10272D01*
X07205Y10193D01*
X07058Y10046D01*
X06978Y09855D01*
X06978Y09647D01*
X07057Y09455D01*
X07204Y09308D01*
X07395Y09228D01*
X07603Y09228D01*
X07795Y09307D01*
X07942Y09454D01*
X08000Y09593D01*
X08057Y09455D01*
X08204Y09308D01*
X08395Y09228D01*
X08548Y09228D01*
X08546Y09221D01*
X08546Y09130D01*
X08581Y09046D01*
X08645Y08981D01*
X08729Y08946D01*
X08820Y08946D01*
X08904Y08981D01*
X08969Y09045D01*
X09004Y09129D01*
X09004Y09220D01*
X08969Y09304D01*
X08905Y09369D01*
X08871Y09384D01*
X08942Y09454D01*
X09000Y09593D01*
X09057Y09455D01*
X09204Y09308D01*
X09395Y09228D01*
X09603Y09228D01*
X09658Y09251D01*
X09646Y09221D01*
X09646Y09130D01*
X09681Y09046D01*
X09745Y08981D01*
X09829Y08946D01*
X09920Y08946D01*
X10004Y08981D01*
X10069Y09045D01*
X10104Y09129D01*
X10104Y08745D01*
X10080Y08769D01*
X09996Y08804D01*
X09905Y08804D01*
X09821Y08769D01*
X09756Y08705D01*
X09721Y08621D01*
X09721Y08530D01*
X09756Y08446D01*
X09820Y08381D01*
X09904Y08346D01*
X09995Y08346D01*
X10079Y08381D01*
X10144Y08445D01*
X10179Y08529D01*
X10179Y07101D01*
X10146Y07021D01*
X10146Y06930D01*
X10181Y06846D01*
X10245Y06781D01*
X10329Y06746D01*
X10420Y06746D01*
X10504Y06781D01*
X10569Y06845D01*
X10604Y06929D01*
X10604Y06604D01*
X10530Y06604D01*
X10446Y06569D01*
X10381Y06505D01*
X10346Y06421D01*
X10346Y06330D01*
X10381Y06246D01*
X10445Y06181D01*
X10529Y06146D01*
X10620Y06146D01*
X10704Y06181D01*
X10769Y06245D01*
X10804Y06329D01*
X10804Y05245D01*
X10769Y05329D01*
X10705Y05394D01*
X10621Y05429D01*
X10530Y05429D01*
X10446Y05394D01*
X10381Y05330D01*
X10346Y05246D01*
X10346Y05155D01*
X10381Y05071D01*
X10445Y05006D01*
X10529Y04971D01*
X10620Y04971D01*
X10704Y05006D01*
X10769Y05070D01*
X10804Y05154D01*
X10804Y03726D01*
X10796Y03729D01*
X10754Y03729D01*
X10754Y04629D01*
X10754Y04720D01*
X10719Y04804D01*
X10655Y04869D01*
X10571Y04904D01*
X10480Y04904D01*
X10396Y04869D01*
X10331Y04805D01*
X10296Y04721D01*
X10296Y04630D01*
X10331Y04546D01*
X10395Y04481D01*
X10479Y04446D01*
X10570Y04446D01*
X10654Y04481D01*
X10719Y04545D01*
X10754Y04629D01*
X10754Y03729D01*
X10705Y03729D01*
X10621Y03694D01*
X10556Y03630D01*
X10521Y03546D01*
X10521Y03455D01*
X10556Y03371D01*
X10620Y03306D01*
X10704Y03271D01*
X10795Y03271D01*
X10879Y03306D01*
X10944Y03370D01*
X10979Y03454D01*
X10979Y02353D01*
X10931Y02305D01*
X10896Y02221D01*
X10896Y02130D01*
X10931Y02046D01*
X10995Y01981D01*
X11079Y01946D01*
X11170Y01946D01*
X11254Y01981D01*
X11319Y02045D01*
X11354Y02129D01*
X11354Y01651D01*
X11321Y01571D01*
X11321Y01480D01*
X11356Y01396D01*
X11420Y01331D01*
X11504Y01296D01*
X11595Y01296D01*
X11679Y01331D01*
X11744Y01395D01*
X11779Y01479D01*
X11779Y01200D01*
X11605Y01272D01*
X11397Y01272D01*
X11205Y01193D01*
X11104Y01092D01*
X11104Y01704D01*
X11104Y01795D01*
X11069Y01879D01*
X11005Y01944D01*
X10921Y01979D01*
X10830Y01979D01*
X10746Y01944D01*
X10681Y01880D01*
X10646Y01796D01*
X10646Y01705D01*
X10681Y01621D01*
X10745Y01556D01*
X10829Y01521D01*
X10920Y01521D01*
X11004Y01556D01*
X11069Y01620D01*
X11104Y01704D01*
X11104Y01092D01*
X11058Y01046D01*
X10999Y00908D01*
X10943Y01045D01*
X10796Y01192D01*
X10628Y01263D01*
X10628Y01849D01*
X10628Y01950D01*
X10590Y02043D01*
X10554Y02079D01*
X10554Y03079D01*
X10554Y03170D01*
X10519Y03254D01*
X10455Y03319D01*
X10371Y03354D01*
X10280Y03354D01*
X10196Y03319D01*
X10131Y03255D01*
X10104Y03191D01*
X10104Y05604D01*
X10104Y05695D01*
X10069Y05779D01*
X10005Y05844D01*
X09921Y05879D01*
X09830Y05879D01*
X09829Y05879D01*
X09829Y08179D01*
X09829Y08270D01*
X09794Y08354D01*
X09730Y08419D01*
X09646Y08454D01*
X09555Y08454D01*
X09471Y08419D01*
X09406Y08355D01*
X09371Y08271D01*
X09371Y08180D01*
X09406Y08096D01*
X09470Y08031D01*
X09554Y07996D01*
X09645Y07996D01*
X09729Y08031D01*
X09794Y08095D01*
X09829Y08179D01*
X09829Y05879D01*
X09746Y05844D01*
X09681Y05780D01*
X09646Y05696D01*
X09646Y05605D01*
X09681Y05521D01*
X09745Y05456D01*
X09829Y05421D01*
X09920Y05421D01*
X10004Y05456D01*
X10069Y05520D01*
X10104Y05604D01*
X10104Y03191D01*
X10096Y03171D01*
X10096Y03080D01*
X10131Y02996D01*
X10195Y02931D01*
X10279Y02896D01*
X10370Y02896D01*
X10454Y02931D01*
X10519Y02995D01*
X10554Y03079D01*
X10554Y02079D01*
X10519Y02114D01*
X10426Y02153D01*
X10325Y02153D01*
X10232Y02115D01*
X10161Y02044D01*
X10122Y01951D01*
X10122Y01850D01*
X10160Y01757D01*
X10231Y01686D01*
X10324Y01647D01*
X10425Y01647D01*
X10518Y01685D01*
X10589Y01756D01*
X10628Y01849D01*
X10628Y01263D01*
X10605Y01272D01*
X10397Y01272D01*
X10205Y01193D01*
X10079Y01067D01*
X10079Y03604D01*
X10079Y03695D01*
X10054Y03755D01*
X10054Y04354D01*
X10054Y04445D01*
X10019Y04529D01*
X09955Y04594D01*
X09871Y04629D01*
X09780Y04629D01*
X09696Y04594D01*
X09631Y04530D01*
X09604Y04466D01*
X09604Y04604D01*
X09604Y04695D01*
X09603Y04698D01*
X09603Y05174D01*
X09603Y05275D01*
X09565Y05368D01*
X09494Y05439D01*
X09429Y05467D01*
X09429Y05729D01*
X09429Y05820D01*
X09394Y05904D01*
X09378Y05921D01*
X09378Y07724D01*
X09378Y07825D01*
X09340Y07918D01*
X09269Y07989D01*
X09204Y08017D01*
X09204Y08229D01*
X09204Y08320D01*
X09169Y08404D01*
X09105Y08469D01*
X09021Y08504D01*
X08930Y08504D01*
X08846Y08469D01*
X08781Y08405D01*
X08746Y08321D01*
X08746Y08230D01*
X08781Y08146D01*
X08845Y08081D01*
X08929Y08046D01*
X09020Y08046D01*
X09104Y08081D01*
X09169Y08145D01*
X09204Y08229D01*
X09204Y08017D01*
X09176Y08028D01*
X09075Y08028D01*
X08982Y07990D01*
X08911Y07919D01*
X08872Y07826D01*
X08872Y07725D01*
X08910Y07632D01*
X08981Y07561D01*
X09074Y07522D01*
X09175Y07522D01*
X09268Y07560D01*
X09339Y07631D01*
X09378Y07724D01*
X09378Y05921D01*
X09330Y05969D01*
X09246Y06004D01*
X09155Y06004D01*
X09071Y05969D01*
X09006Y05905D01*
X08971Y05821D01*
X08971Y05730D01*
X09006Y05646D01*
X09070Y05581D01*
X09154Y05546D01*
X09245Y05546D01*
X09329Y05581D01*
X09394Y05645D01*
X09429Y05729D01*
X09429Y05467D01*
X09401Y05478D01*
X09300Y05478D01*
X09207Y05440D01*
X09136Y05369D01*
X09097Y05276D01*
X09097Y05175D01*
X09135Y05082D01*
X09206Y05011D01*
X09299Y04972D01*
X09400Y04972D01*
X09493Y05010D01*
X09564Y05081D01*
X09603Y05174D01*
X09603Y04698D01*
X09569Y04779D01*
X09505Y04844D01*
X09421Y04879D01*
X09330Y04879D01*
X09246Y04844D01*
X09181Y04780D01*
X09146Y04696D01*
X09146Y04605D01*
X09181Y04521D01*
X09245Y04456D01*
X09329Y04421D01*
X09420Y04421D01*
X09504Y04456D01*
X09569Y04520D01*
X09604Y04604D01*
X09604Y04466D01*
X09596Y04446D01*
X09596Y04355D01*
X09631Y04271D01*
X09695Y04206D01*
X09779Y04171D01*
X09870Y04171D01*
X09954Y04206D01*
X10019Y04270D01*
X10054Y04354D01*
X10054Y03755D01*
X10044Y03779D01*
X09980Y03844D01*
X09896Y03879D01*
X09805Y03879D01*
X09721Y03844D01*
X09656Y03780D01*
X09621Y03696D01*
X09621Y03605D01*
X09656Y03521D01*
X09720Y03456D01*
X09804Y03421D01*
X09895Y03421D01*
X09979Y03456D01*
X10044Y03520D01*
X10079Y03604D01*
X10079Y01067D01*
X10058Y01046D01*
X09999Y00908D01*
X09943Y01045D01*
X09796Y01192D01*
X09729Y01221D01*
X09729Y03179D01*
X09729Y03270D01*
X09694Y03354D01*
X09630Y03419D01*
X09546Y03454D01*
X09528Y03454D01*
X09528Y04099D01*
X09528Y04200D01*
X09490Y04293D01*
X09419Y04364D01*
X09326Y04403D01*
X09225Y04403D01*
X09132Y04365D01*
X09061Y04294D01*
X09022Y04201D01*
X09022Y04100D01*
X09060Y04007D01*
X09131Y03936D01*
X09224Y03897D01*
X09325Y03897D01*
X09418Y03935D01*
X09489Y04006D01*
X09528Y04099D01*
X09528Y03454D01*
X09455Y03454D01*
X09371Y03419D01*
X09306Y03355D01*
X09271Y03271D01*
X09271Y03180D01*
X09306Y03096D01*
X09370Y03031D01*
X09454Y02996D01*
X09545Y02996D01*
X09629Y03031D01*
X09694Y03095D01*
X09729Y03179D01*
X09729Y01221D01*
X09605Y01272D01*
X09453Y01272D01*
X09453Y02549D01*
X09453Y02650D01*
X09415Y02743D01*
X09344Y02814D01*
X09251Y02853D01*
X09150Y02853D01*
X09057Y02815D01*
X08986Y02744D01*
X08947Y02651D01*
X08947Y02550D01*
X08985Y02457D01*
X09056Y02386D01*
X09149Y02347D01*
X09250Y02347D01*
X09343Y02385D01*
X09414Y02456D01*
X09453Y02549D01*
X09453Y01272D01*
X09397Y01272D01*
X09205Y01193D01*
X09058Y01046D01*
X08999Y00908D01*
X08943Y01045D01*
X08829Y01159D01*
X08829Y07329D01*
X08829Y07420D01*
X08794Y07504D01*
X08730Y07569D01*
X08679Y07591D01*
X08679Y08129D01*
X08679Y08220D01*
X08644Y08304D01*
X08580Y08369D01*
X08496Y08404D01*
X08405Y08404D01*
X08321Y08369D01*
X08279Y08328D01*
X08279Y08854D01*
X08279Y08945D01*
X08244Y09029D01*
X08180Y09094D01*
X08096Y09129D01*
X08005Y09129D01*
X07921Y09094D01*
X07856Y09030D01*
X07821Y08946D01*
X07821Y08855D01*
X07856Y08771D01*
X07920Y08706D01*
X08004Y08671D01*
X08095Y08671D01*
X08179Y08706D01*
X08244Y08770D01*
X08279Y08854D01*
X08279Y08328D01*
X08256Y08305D01*
X08221Y08221D01*
X08221Y08130D01*
X08256Y08046D01*
X08320Y07981D01*
X08404Y07946D01*
X08495Y07946D01*
X08579Y07981D01*
X08644Y08045D01*
X08679Y08129D01*
X08679Y07591D01*
X08646Y07604D01*
X08555Y07604D01*
X08471Y07569D01*
X08406Y07505D01*
X08371Y07421D01*
X08371Y07330D01*
X08406Y07246D01*
X08470Y07181D01*
X08554Y07146D01*
X08645Y07146D01*
X08729Y07181D01*
X08794Y07245D01*
X08829Y07329D01*
X08829Y01159D01*
X08796Y01192D01*
X08778Y01200D01*
X08778Y06549D01*
X08778Y06650D01*
X08740Y06743D01*
X08669Y06814D01*
X08576Y06853D01*
X08475Y06853D01*
X08382Y06815D01*
X08311Y06744D01*
X08272Y06651D01*
X08272Y06550D01*
X08310Y06457D01*
X08381Y06386D01*
X08474Y06347D01*
X08575Y06347D01*
X08668Y06385D01*
X08739Y06456D01*
X08778Y06549D01*
X08778Y01200D01*
X08605Y01272D01*
X08529Y01272D01*
X08529Y04904D01*
X08529Y04995D01*
X08494Y05079D01*
X08430Y05144D01*
X08346Y05179D01*
X08255Y05179D01*
X08179Y05148D01*
X08179Y06404D01*
X08179Y06495D01*
X08179Y07329D01*
X08179Y07420D01*
X08144Y07504D01*
X08080Y07569D01*
X07996Y07604D01*
X07905Y07604D01*
X07821Y07569D01*
X07804Y07553D01*
X07804Y08804D01*
X07804Y08895D01*
X07769Y08979D01*
X07705Y09044D01*
X07621Y09079D01*
X07530Y09079D01*
X07446Y09044D01*
X07381Y08980D01*
X07346Y08896D01*
X07346Y08805D01*
X07381Y08721D01*
X07445Y08656D01*
X07529Y08621D01*
X07620Y08621D01*
X07704Y08656D01*
X07769Y08720D01*
X07804Y08804D01*
X07804Y07553D01*
X07756Y07505D01*
X07721Y07421D01*
X07721Y07330D01*
X07756Y07246D01*
X07820Y07181D01*
X07904Y07146D01*
X07995Y07146D01*
X08079Y07181D01*
X08144Y07245D01*
X08179Y07329D01*
X08179Y06495D01*
X08144Y06579D01*
X08080Y06644D01*
X07996Y06679D01*
X07905Y06679D01*
X07853Y06658D01*
X07853Y06924D01*
X07853Y07025D01*
X07815Y07118D01*
X07744Y07189D01*
X07651Y07228D01*
X07550Y07228D01*
X07457Y07190D01*
X07386Y07119D01*
X07347Y07026D01*
X07347Y06925D01*
X07385Y06832D01*
X07456Y06761D01*
X07549Y06722D01*
X07650Y06722D01*
X07743Y06760D01*
X07814Y06831D01*
X07853Y06924D01*
X07853Y06658D01*
X07821Y06644D01*
X07756Y06580D01*
X07721Y06496D01*
X07721Y06405D01*
X07756Y06321D01*
X07820Y06256D01*
X07904Y06221D01*
X07995Y06221D01*
X08079Y06256D01*
X08144Y06320D01*
X08179Y06404D01*
X08179Y05148D01*
X08171Y05144D01*
X08106Y05080D01*
X08071Y04996D01*
X08071Y04905D01*
X08106Y04821D01*
X08170Y04756D01*
X08254Y04721D01*
X08345Y04721D01*
X08429Y04756D01*
X08494Y04820D01*
X08529Y04904D01*
X08529Y01272D01*
X08397Y01272D01*
X08205Y01193D01*
X08179Y01167D01*
X08179Y02854D01*
X08179Y02945D01*
X08144Y03029D01*
X08129Y03045D01*
X08129Y03854D01*
X08129Y03945D01*
X08094Y04029D01*
X08030Y04094D01*
X08004Y04105D01*
X08004Y04454D01*
X08004Y04545D01*
X08004Y04979D01*
X08004Y05070D01*
X07969Y05154D01*
X07905Y05219D01*
X07821Y05254D01*
X07730Y05254D01*
X07679Y05233D01*
X07679Y05379D01*
X07679Y05470D01*
X07644Y05554D01*
X07580Y05619D01*
X07496Y05654D01*
X07405Y05654D01*
X07321Y05619D01*
X07256Y05555D01*
X07228Y05488D01*
X07228Y07799D01*
X07228Y07900D01*
X07190Y07993D01*
X07119Y08064D01*
X07026Y08103D01*
X06975Y08103D01*
X06975Y09833D01*
X06907Y10009D01*
X06895Y10026D01*
X06832Y10069D01*
X06819Y10056D01*
X06819Y10082D01*
X06776Y10145D01*
X06605Y10221D01*
X06417Y10225D01*
X06241Y10157D01*
X06224Y10145D01*
X06181Y10082D01*
X06500Y09763D01*
X06819Y10082D01*
X06819Y10056D01*
X06513Y09750D01*
X06832Y09431D01*
X06895Y09474D01*
X06971Y09645D01*
X06975Y09833D01*
X06975Y08103D01*
X06925Y08103D01*
X06832Y08065D01*
X06819Y08052D01*
X06819Y09418D01*
X06500Y09737D01*
X06487Y09724D01*
X06487Y09750D01*
X06168Y10069D01*
X06105Y10026D01*
X06029Y09855D01*
X06025Y09667D01*
X06093Y09491D01*
X06105Y09474D01*
X06168Y09431D01*
X06487Y09750D01*
X06487Y09724D01*
X06181Y09418D01*
X06224Y09355D01*
X06395Y09279D01*
X06583Y09275D01*
X06759Y09343D01*
X06776Y09355D01*
X06819Y09418D01*
X06819Y08052D01*
X06761Y07994D01*
X06722Y07901D01*
X06722Y07800D01*
X06760Y07707D01*
X06831Y07636D01*
X06924Y07597D01*
X07025Y07597D01*
X07118Y07635D01*
X07189Y07706D01*
X07228Y07799D01*
X07228Y05488D01*
X07221Y05471D01*
X07221Y05380D01*
X07256Y05296D01*
X07320Y05231D01*
X07404Y05196D01*
X07495Y05196D01*
X07579Y05231D01*
X07644Y05295D01*
X07679Y05379D01*
X07679Y05233D01*
X07646Y05219D01*
X07581Y05155D01*
X07546Y05071D01*
X07546Y04980D01*
X07581Y04896D01*
X07645Y04831D01*
X07729Y04796D01*
X07820Y04796D01*
X07904Y04831D01*
X07969Y04895D01*
X08004Y04979D01*
X08004Y04545D01*
X07969Y04629D01*
X07905Y04694D01*
X07821Y04729D01*
X07730Y04729D01*
X07646Y04694D01*
X07581Y04630D01*
X07546Y04546D01*
X07546Y04455D01*
X07581Y04371D01*
X07645Y04306D01*
X07729Y04271D01*
X07820Y04271D01*
X07904Y04306D01*
X07969Y04370D01*
X08004Y04454D01*
X08004Y04105D01*
X07946Y04129D01*
X07855Y04129D01*
X07771Y04094D01*
X07706Y04030D01*
X07671Y03946D01*
X07671Y03855D01*
X07706Y03771D01*
X07770Y03706D01*
X07854Y03671D01*
X07945Y03671D01*
X08029Y03706D01*
X08094Y03770D01*
X08129Y03854D01*
X08129Y03045D01*
X08080Y03094D01*
X07996Y03129D01*
X07905Y03129D01*
X07821Y03094D01*
X07756Y03030D01*
X07721Y02946D01*
X07721Y02855D01*
X07756Y02771D01*
X07820Y02706D01*
X07904Y02671D01*
X07995Y02671D01*
X08079Y02706D01*
X08144Y02770D01*
X08179Y02854D01*
X08179Y01167D01*
X08058Y01046D01*
X07978Y00855D01*
X07978Y00647D01*
X08057Y00455D01*
X08204Y00308D01*
X08395Y00228D01*
X08603Y00228D01*
X08795Y00307D01*
X08942Y00454D01*
X09000Y00593D01*
X09057Y00455D01*
X09204Y00308D01*
X09395Y00228D01*
X09603Y00228D01*
X09795Y00307D01*
X09942Y00454D01*
X10000Y00593D01*
X10057Y00455D01*
X10204Y00308D01*
X10395Y00228D01*
X10603Y00228D01*
X10795Y00307D01*
X10942Y00454D01*
X11000Y00593D01*
X11057Y00455D01*
X11204Y00308D01*
X11395Y00228D01*
X11603Y00228D01*
X11795Y00307D01*
X11942Y00454D01*
X12022Y00645D01*
X12022Y-00346D01*
X07975Y-00346D01*
X07975Y00833D01*
X07907Y01009D01*
X07895Y01026D01*
X07832Y01069D01*
X07819Y01056D01*
X07819Y01082D01*
X07776Y01145D01*
X07605Y01221D01*
X07417Y01225D01*
X07241Y01157D01*
X07224Y01145D01*
X07181Y01082D01*
X07500Y00763D01*
X07819Y01082D01*
X07819Y01056D01*
X07513Y00750D01*
X07832Y00431D01*
X07895Y00474D01*
X07971Y00645D01*
X07975Y00833D01*
X07975Y-00346D01*
X07819Y-00346D01*
X07819Y00418D01*
X07500Y00737D01*
X07487Y00724D01*
X07487Y00750D01*
X07168Y01069D01*
X07105Y01026D01*
X07029Y00855D01*
X07025Y00667D01*
X07093Y00491D01*
X07105Y00474D01*
X07168Y00431D01*
X07487Y00750D01*
X07487Y00724D01*
X07181Y00418D01*
X07224Y00355D01*
X07395Y00279D01*
X07583Y00275D01*
X07759Y00343D01*
X07776Y00355D01*
X07819Y00418D01*
X07819Y-00346D01*
X07022Y-00346D01*
X07022Y00645D01*
X07022Y00853D01*
X07004Y00897D01*
X07004Y02229D01*
X07004Y02320D01*
X06969Y02404D01*
X06905Y02469D01*
X06821Y02504D01*
X06730Y02504D01*
X06646Y02469D01*
X06581Y02405D01*
X06546Y02321D01*
X06546Y02230D01*
X06581Y02146D01*
X06645Y02081D01*
X06729Y02046D01*
X06820Y02046D01*
X06904Y02081D01*
X06969Y02145D01*
X07004Y02229D01*
X07004Y00897D01*
X06943Y01045D01*
X06796Y01192D01*
X06605Y01272D01*
X06397Y01272D01*
X06205Y01193D01*
X06203Y01191D01*
X06203Y03974D01*
X06203Y04075D01*
X06165Y04168D01*
X06094Y04239D01*
X06053Y04257D01*
X06053Y05624D01*
X06053Y05725D01*
X06022Y05801D01*
X06022Y09645D01*
X06022Y09853D01*
X05943Y10045D01*
X05796Y10192D01*
X05605Y10272D01*
X05397Y10272D01*
X05205Y10193D01*
X05058Y10046D01*
X04999Y09908D01*
X04943Y10045D01*
X04796Y10192D01*
X04605Y10272D01*
X04397Y10272D01*
X04205Y10193D01*
X04058Y10046D01*
X03978Y09855D01*
X03978Y09647D01*
X04057Y09455D01*
X04204Y09308D01*
X04395Y09228D01*
X04603Y09228D01*
X04795Y09307D01*
X04942Y09454D01*
X05000Y09593D01*
X05057Y09455D01*
X05204Y09308D01*
X05395Y09228D01*
X05603Y09228D01*
X05795Y09307D01*
X05942Y09454D01*
X06022Y09645D01*
X06022Y05801D01*
X06015Y05818D01*
X05944Y05889D01*
X05851Y05928D01*
X05750Y05928D01*
X05657Y05890D01*
X05586Y05819D01*
X05547Y05726D01*
X05547Y05625D01*
X05585Y05532D01*
X05656Y05461D01*
X05749Y05422D01*
X05850Y05422D01*
X05943Y05460D01*
X06014Y05531D01*
X06053Y05624D01*
X06053Y04257D01*
X06001Y04278D01*
X05900Y04278D01*
X05807Y04240D01*
X05736Y04169D01*
X05697Y04076D01*
X05697Y03975D01*
X05735Y03882D01*
X05806Y03811D01*
X05899Y03772D01*
X06000Y03772D01*
X06093Y03810D01*
X06164Y03881D01*
X06203Y03974D01*
X06203Y01191D01*
X06058Y01046D01*
X05999Y00908D01*
X05943Y01045D01*
X05804Y01184D01*
X05804Y03379D01*
X05804Y03470D01*
X05769Y03554D01*
X05705Y03619D01*
X05621Y03654D01*
X05530Y03654D01*
X05446Y03619D01*
X05381Y03555D01*
X05346Y03471D01*
X05346Y03380D01*
X05381Y03296D01*
X05445Y03231D01*
X05529Y03196D01*
X05620Y03196D01*
X05704Y03231D01*
X05769Y03295D01*
X05804Y03379D01*
X05804Y01184D01*
X05796Y01192D01*
X05605Y01272D01*
X05397Y01272D01*
X05303Y01234D01*
X05303Y02399D01*
X05303Y02500D01*
X05265Y02593D01*
X05194Y02664D01*
X05101Y02703D01*
X05000Y02703D01*
X04907Y02665D01*
X04836Y02594D01*
X04797Y02501D01*
X04797Y02400D01*
X04835Y02307D01*
X04906Y02236D01*
X04999Y02197D01*
X05100Y02197D01*
X05193Y02235D01*
X05264Y02306D01*
X05303Y02399D01*
X05303Y01234D01*
X05205Y01193D01*
X05058Y01046D01*
X04999Y00908D01*
X04943Y01045D01*
X04796Y01192D01*
X04654Y01252D01*
X04654Y05554D01*
X04654Y05645D01*
X04619Y05729D01*
X04555Y05794D01*
X04471Y05829D01*
X04380Y05829D01*
X04296Y05794D01*
X04279Y05778D01*
X04279Y07754D01*
X04279Y07845D01*
X04244Y07929D01*
X04180Y07994D01*
X04096Y08029D01*
X04005Y08029D01*
X03975Y08017D01*
X03975Y09833D01*
X03907Y10009D01*
X03895Y10026D01*
X03832Y10069D01*
X03819Y10056D01*
X03819Y10082D01*
X03776Y10145D01*
X03605Y10221D01*
X03417Y10225D01*
X03241Y10157D01*
X03224Y10145D01*
X03181Y10082D01*
X03500Y09763D01*
X03819Y10082D01*
X03819Y10056D01*
X03513Y09750D01*
X03832Y09431D01*
X03895Y09474D01*
X03971Y09645D01*
X03975Y09833D01*
X03975Y08017D01*
X03928Y07997D01*
X03928Y08399D01*
X03928Y08500D01*
X03890Y08593D01*
X03819Y08664D01*
X03819Y09418D01*
X03500Y09737D01*
X03487Y09724D01*
X03487Y09750D01*
X03168Y10069D01*
X03105Y10026D01*
X03029Y09855D01*
X03025Y09667D01*
X03093Y09491D01*
X03105Y09474D01*
X03168Y09431D01*
X03487Y09750D01*
X03487Y09724D01*
X03181Y09418D01*
X03224Y09355D01*
X03395Y09279D01*
X03583Y09275D01*
X03759Y09343D01*
X03776Y09355D01*
X03819Y09418D01*
X03819Y08664D01*
X03726Y08703D01*
X03625Y08703D01*
X03532Y08665D01*
X03461Y08594D01*
X03422Y08501D01*
X03422Y08400D01*
X03460Y08307D01*
X03531Y08236D01*
X03624Y08197D01*
X03725Y08197D01*
X03818Y08235D01*
X03889Y08306D01*
X03928Y08399D01*
X03928Y07997D01*
X03921Y07994D01*
X03856Y07930D01*
X03821Y07846D01*
X03821Y07755D01*
X03856Y07671D01*
X03920Y07606D01*
X04004Y07571D01*
X04095Y07571D01*
X04179Y07606D01*
X04244Y07670D01*
X04279Y07754D01*
X04279Y05778D01*
X04231Y05730D01*
X04196Y05646D01*
X04196Y05555D01*
X04231Y05471D01*
X04295Y05406D01*
X04379Y05371D01*
X04470Y05371D01*
X04554Y05406D01*
X04619Y05470D01*
X04654Y05554D01*
X04654Y01252D01*
X04605Y01272D01*
X04454Y01272D01*
X04454Y02354D01*
X04454Y02445D01*
X04419Y02529D01*
X04355Y02594D01*
X04278Y02627D01*
X04278Y04099D01*
X04278Y04200D01*
X04240Y04293D01*
X04169Y04364D01*
X04076Y04403D01*
X03978Y04403D01*
X03978Y07049D01*
X03978Y07150D01*
X03940Y07243D01*
X03869Y07314D01*
X03776Y07353D01*
X03675Y07353D01*
X03582Y07315D01*
X03511Y07244D01*
X03472Y07151D01*
X03472Y07050D01*
X03510Y06957D01*
X03581Y06886D01*
X03674Y06847D01*
X03775Y06847D01*
X03868Y06885D01*
X03939Y06956D01*
X03978Y07049D01*
X03978Y04403D01*
X03975Y04403D01*
X03882Y04365D01*
X03811Y04294D01*
X03772Y04201D01*
X03772Y04100D01*
X03810Y04007D01*
X03881Y03936D01*
X03974Y03897D01*
X04075Y03897D01*
X04168Y03935D01*
X04239Y04006D01*
X04278Y04099D01*
X04278Y02627D01*
X04271Y02629D01*
X04180Y02629D01*
X04096Y02594D01*
X04031Y02530D01*
X03996Y02446D01*
X03996Y02355D01*
X04031Y02271D01*
X04095Y02206D01*
X04179Y02171D01*
X04270Y02171D01*
X04354Y02206D01*
X04419Y02270D01*
X04454Y02354D01*
X04454Y01272D01*
X04429Y01272D01*
X04429Y01554D01*
X04429Y01645D01*
X04394Y01729D01*
X04330Y01794D01*
X04246Y01829D01*
X04155Y01829D01*
X04071Y01794D01*
X04006Y01730D01*
X03971Y01646D01*
X03971Y01555D01*
X04006Y01471D01*
X04070Y01406D01*
X04154Y01371D01*
X04245Y01371D01*
X04329Y01406D01*
X04394Y01470D01*
X04429Y01554D01*
X04429Y01272D01*
X04397Y01272D01*
X04205Y01193D01*
X04058Y01046D01*
X03999Y00908D01*
X03943Y01045D01*
X03853Y01135D01*
X03853Y02374D01*
X03853Y02475D01*
X03815Y02568D01*
X03744Y02639D01*
X03651Y02678D01*
X03628Y02678D01*
X03628Y04974D01*
X03628Y05075D01*
X03590Y05168D01*
X03519Y05239D01*
X03453Y05267D01*
X03453Y07124D01*
X03453Y07225D01*
X03415Y07318D01*
X03344Y07389D01*
X03251Y07428D01*
X03150Y07428D01*
X03057Y07390D01*
X03022Y07355D01*
X03022Y09645D01*
X03022Y09853D01*
X02943Y10045D01*
X02796Y10192D01*
X02605Y10272D01*
X02397Y10272D01*
X02205Y10193D01*
X02058Y10046D01*
X01999Y09908D01*
X01943Y10045D01*
X01796Y10192D01*
X01605Y10272D01*
X01397Y10272D01*
X01205Y10193D01*
X01058Y10046D01*
X00978Y09855D01*
X00978Y09647D01*
X01057Y09455D01*
X01204Y09308D01*
X01395Y09228D01*
X01603Y09228D01*
X01795Y09307D01*
X01942Y09454D01*
X02000Y09593D01*
X02057Y09455D01*
X02204Y09308D01*
X02395Y09228D01*
X02603Y09228D01*
X02795Y09307D01*
X02942Y09454D01*
X03022Y09645D01*
X03022Y07355D01*
X02986Y07319D01*
X02947Y07226D01*
X02947Y07125D01*
X02985Y07032D01*
X03056Y06961D01*
X03149Y06922D01*
X03250Y06922D01*
X03343Y06960D01*
X03414Y07031D01*
X03453Y07124D01*
X03453Y05267D01*
X03426Y05278D01*
X03325Y05278D01*
X03232Y05240D01*
X03161Y05169D01*
X03122Y05076D01*
X03122Y04975D01*
X03160Y04882D01*
X03231Y04811D01*
X03324Y04772D01*
X03425Y04772D01*
X03518Y04810D01*
X03589Y04881D01*
X03628Y04974D01*
X03628Y02678D01*
X03550Y02678D01*
X03457Y02640D01*
X03386Y02569D01*
X03347Y02476D01*
X03347Y02375D01*
X03385Y02282D01*
X03456Y02211D01*
X03549Y02172D01*
X03650Y02172D01*
X03743Y02210D01*
X03814Y02281D01*
X03853Y02374D01*
X03853Y01135D01*
X03796Y01192D01*
X03605Y01272D01*
X03397Y01272D01*
X03304Y01234D01*
X03304Y02479D01*
X03304Y02570D01*
X03269Y02654D01*
X03205Y02719D01*
X03121Y02754D01*
X03030Y02754D01*
X02946Y02719D01*
X02928Y02702D01*
X02928Y07999D01*
X02928Y08100D01*
X02890Y08193D01*
X02819Y08264D01*
X02726Y08303D01*
X02625Y08303D01*
X02532Y08265D01*
X02461Y08194D01*
X02422Y08101D01*
X02422Y08000D01*
X02460Y07907D01*
X02531Y07836D01*
X02624Y07797D01*
X02725Y07797D01*
X02818Y07835D01*
X02889Y07906D01*
X02928Y07999D01*
X02928Y02702D01*
X02881Y02655D01*
X02846Y02571D01*
X02846Y02480D01*
X02881Y02396D01*
X02945Y02331D01*
X03029Y02296D01*
X03120Y02296D01*
X03204Y02331D01*
X03269Y02395D01*
X03304Y02479D01*
X03304Y01234D01*
X03205Y01193D01*
X03058Y01046D01*
X02978Y00855D01*
X02978Y00647D01*
X03057Y00455D01*
X03204Y00308D01*
X03395Y00228D01*
X03603Y00228D01*
X03795Y00307D01*
X03942Y00454D01*
X04000Y00593D01*
X04057Y00455D01*
X04204Y00308D01*
X04395Y00228D01*
X04603Y00228D01*
X04795Y00307D01*
X04942Y00454D01*
X05000Y00593D01*
X05057Y00455D01*
X05204Y00308D01*
X05395Y00228D01*
X05603Y00228D01*
X05795Y00307D01*
X05942Y00454D01*
X06000Y00593D01*
X06057Y00455D01*
X06204Y00308D01*
X06395Y00228D01*
X06603Y00228D01*
X06795Y00307D01*
X06942Y00454D01*
X07022Y00645D01*
X07022Y-00346D01*
X02975Y-00346D01*
X02975Y00833D01*
X02907Y01009D01*
X02895Y01026D01*
X02832Y01069D01*
X02819Y01056D01*
X02819Y01082D01*
X02804Y01104D01*
X02804Y07154D01*
X02804Y07245D01*
X02769Y07329D01*
X02705Y07394D01*
X02621Y07429D01*
X02530Y07429D01*
X02446Y07394D01*
X02381Y07330D01*
X02378Y07323D01*
X02378Y08824D01*
X02378Y08925D01*
X02340Y09018D01*
X02269Y09089D01*
X02176Y09128D01*
X02075Y09128D01*
X01982Y09090D01*
X01911Y09019D01*
X01872Y08926D01*
X01872Y08825D01*
X01910Y08732D01*
X01981Y08661D01*
X02074Y08622D01*
X02175Y08622D01*
X02268Y08660D01*
X02339Y08731D01*
X02378Y08824D01*
X02378Y07323D01*
X02346Y07246D01*
X02346Y07155D01*
X02381Y07071D01*
X02445Y07006D01*
X02529Y06971D01*
X02620Y06971D01*
X02704Y07006D01*
X02769Y07070D01*
X02804Y07154D01*
X02804Y01104D01*
X02779Y01141D01*
X02779Y05079D01*
X02779Y05170D01*
X02744Y05254D01*
X02680Y05319D01*
X02596Y05354D01*
X02505Y05354D01*
X02421Y05319D01*
X02356Y05255D01*
X02321Y05171D01*
X02321Y05080D01*
X02356Y04996D01*
X02420Y04931D01*
X02504Y04896D01*
X02595Y04896D01*
X02679Y04931D01*
X02744Y04995D01*
X02779Y05079D01*
X02779Y01141D01*
X02776Y01145D01*
X02605Y01221D01*
X02528Y01223D01*
X02528Y03099D01*
X02528Y03200D01*
X02490Y03293D01*
X02419Y03364D01*
X02326Y03403D01*
X02225Y03403D01*
X02132Y03365D01*
X02129Y03362D01*
X02129Y07979D01*
X02129Y08070D01*
X02094Y08154D01*
X02030Y08219D01*
X01946Y08254D01*
X01855Y08254D01*
X01771Y08219D01*
X01706Y08155D01*
X01671Y08071D01*
X01671Y07980D01*
X01706Y07896D01*
X01770Y07831D01*
X01854Y07796D01*
X01945Y07796D01*
X02029Y07831D01*
X02094Y07895D01*
X02129Y07979D01*
X02129Y03362D01*
X02061Y03294D01*
X02022Y03201D01*
X02022Y03100D01*
X02060Y03007D01*
X02131Y02936D01*
X02224Y02897D01*
X02325Y02897D01*
X02418Y02935D01*
X02489Y03006D01*
X02528Y03099D01*
X02528Y01223D01*
X02417Y01225D01*
X02241Y01157D01*
X02224Y01145D01*
X02181Y01082D01*
X02500Y00763D01*
X02819Y01082D01*
X02819Y01056D01*
X02513Y00750D01*
X02832Y00431D01*
X02895Y00474D01*
X02971Y00645D01*
X02975Y00833D01*
X02975Y-00346D01*
X02819Y-00346D01*
X02819Y00418D01*
X02500Y00737D01*
X02487Y00724D01*
X02487Y00750D01*
X02168Y01069D01*
X02105Y01026D01*
X02029Y00855D01*
X02025Y00667D01*
X02093Y00491D01*
X02105Y00474D01*
X02168Y00431D01*
X02487Y00750D01*
X02487Y00724D01*
X02181Y00418D01*
X02224Y00355D01*
X02395Y00279D01*
X02583Y00275D01*
X02759Y00343D01*
X02776Y00355D01*
X02819Y00418D01*
X02819Y-00346D01*
X02022Y-00346D01*
X02022Y00645D01*
X02022Y00853D01*
X01943Y01045D01*
X01928Y01060D01*
X01928Y06474D01*
X01928Y06575D01*
X01890Y06668D01*
X01819Y06739D01*
X01726Y06778D01*
X01625Y06778D01*
X01532Y06740D01*
X01478Y06686D01*
X01478Y07049D01*
X01478Y07150D01*
X01440Y07243D01*
X01369Y07314D01*
X01276Y07353D01*
X01175Y07353D01*
X01082Y07315D01*
X01011Y07244D01*
X00975Y07159D01*
X00975Y09833D01*
X00907Y10009D01*
X00895Y10026D01*
X00832Y10069D01*
X00819Y10056D01*
X00819Y10082D01*
X00776Y10145D01*
X00605Y10221D01*
X00417Y10225D01*
X00241Y10157D01*
X00224Y10145D01*
X00181Y10082D01*
X00500Y09763D01*
X00819Y10082D01*
X00819Y10056D01*
X00513Y09750D01*
X00832Y09431D01*
X00895Y09474D01*
X00971Y09645D01*
X00975Y09833D01*
X00975Y07159D01*
X00972Y07151D01*
X00972Y07050D01*
X01010Y06957D01*
X01081Y06886D01*
X01174Y06847D01*
X01275Y06847D01*
X01368Y06885D01*
X01439Y06956D01*
X01478Y07049D01*
X01478Y06686D01*
X01461Y06669D01*
X01422Y06576D01*
X01422Y06475D01*
X01460Y06382D01*
X01531Y06311D01*
X01624Y06272D01*
X01725Y06272D01*
X01818Y06310D01*
X01889Y06381D01*
X01928Y06474D01*
X01928Y01060D01*
X01796Y01192D01*
X01605Y01272D01*
X01397Y01272D01*
X01205Y01193D01*
X01058Y01046D01*
X01023Y00963D01*
X01023Y03675D01*
X01023Y03825D01*
X00966Y03964D01*
X00859Y04070D01*
X00720Y04128D01*
X00570Y04128D01*
X00280Y04128D01*
X00141Y04071D01*
X00035Y03964D01*
X00005Y03894D01*
X-00057Y04045D01*
X-00204Y04192D01*
X-00343Y04251D01*
X-00205Y04307D01*
X-00058Y04454D01*
X00000Y04593D01*
X00057Y04455D01*
X00204Y04308D01*
X00395Y04228D01*
X00603Y04228D01*
X00795Y04307D01*
X00942Y04454D01*
X01022Y04645D01*
X01022Y04853D01*
X00943Y05045D01*
X00819Y05169D01*
X00819Y09418D01*
X00500Y09737D01*
X00487Y09724D01*
X00487Y09750D01*
X00168Y10069D01*
X00105Y10026D01*
X00029Y09855D01*
X00025Y09667D01*
X00093Y09491D01*
X00105Y09474D01*
X00168Y09431D01*
X00487Y09750D01*
X00487Y09724D01*
X00181Y09418D01*
X00224Y09355D01*
X00395Y09279D01*
X00583Y09275D01*
X00759Y09343D01*
X00776Y09355D01*
X00819Y09418D01*
X00819Y05169D01*
X00796Y05192D01*
X00605Y05272D01*
X00397Y05272D01*
X00205Y05193D01*
X00058Y05046D01*
X-00001Y04908D01*
X-00057Y05045D01*
X-00204Y05192D01*
X-00343Y05251D01*
X-00205Y05307D01*
X-00058Y05454D01*
X00022Y05645D01*
X00022Y05853D01*
X-00057Y06045D01*
X-00204Y06192D01*
X-00343Y06251D01*
X-00205Y06307D01*
X-00058Y06454D01*
X00022Y06645D01*
X00022Y06853D01*
X00022Y09645D01*
X00022Y09853D01*
X-00057Y10045D01*
X-00204Y10192D01*
X-00395Y10272D01*
X-00603Y10272D01*
X-00795Y10193D01*
X-00942Y10046D01*
X-01022Y09855D01*
X-01022Y09647D01*
X-00943Y09455D01*
X-00796Y09308D01*
X-00605Y09228D01*
X-00397Y09228D01*
X-00205Y09307D01*
X-00058Y09454D01*
X00022Y09645D01*
X00022Y06853D01*
X-00057Y07045D01*
X-00135Y07123D01*
X-00135Y08719D01*
X-00135Y08781D01*
X-00136Y09007D01*
X-00136Y09042D01*
X-00149Y09075D01*
X-00174Y09100D01*
X-00207Y09114D01*
X-00469Y09115D01*
X-00491Y09093D01*
X-00491Y08759D01*
X-00157Y08759D01*
X-00135Y08781D01*
X-00135Y08719D01*
X-00157Y08741D01*
X-00491Y08741D01*
X-00491Y08407D01*
X-00469Y08385D01*
X-00207Y08386D01*
X-00174Y08400D01*
X-00149Y08425D01*
X-00136Y08458D01*
X-00136Y08493D01*
X-00135Y08719D01*
X-00135Y07123D01*
X-00204Y07192D01*
X-00395Y07272D01*
X-00509Y07272D01*
X-00509Y08407D01*
X-00509Y08741D01*
X-00509Y08759D01*
X-00509Y09093D01*
X-00531Y09115D01*
X-00793Y09114D01*
X-00826Y09100D01*
X-00851Y09075D01*
X-00864Y09042D01*
X-00864Y09007D01*
X-00865Y08781D01*
X-00843Y08759D01*
X-00509Y08759D01*
X-00509Y08741D01*
X-00843Y08741D01*
X-00865Y08719D01*
X-00864Y08493D01*
X-00864Y08458D01*
X-00851Y08425D01*
X-00826Y08400D01*
X-00793Y08386D01*
X-00531Y08385D01*
X-00509Y08407D01*
X-00509Y07272D01*
X-00603Y07272D01*
X-00795Y07193D01*
X-00942Y07046D01*
X-01022Y06855D01*
X-01022Y06647D01*
X-00943Y06455D01*
X-00796Y06308D01*
X-00658Y06250D01*
X-00795Y06193D01*
X-00942Y06046D01*
X-01022Y05855D01*
X-01022Y05647D01*
X-00943Y05455D01*
X-00796Y05308D01*
X-00658Y05250D01*
X-00795Y05193D01*
X-00942Y05046D01*
X-01022Y04855D01*
X-01022Y04647D01*
X-00943Y04455D01*
X-00796Y04308D01*
X-00658Y04250D01*
X-00795Y04193D01*
X-00942Y04046D01*
X-01022Y03855D01*
X-01022Y03647D01*
X-00943Y03455D01*
X-00796Y03308D01*
X-00605Y03228D01*
X-00397Y03228D01*
X-00205Y03307D01*
X-00058Y03454D01*
X00005Y03606D01*
X00034Y03536D01*
X00141Y03430D01*
X00280Y03372D01*
X00430Y03372D01*
X00720Y03372D01*
X00859Y03429D01*
X00965Y03536D01*
X01023Y03675D01*
X01023Y00963D01*
X00978Y00855D01*
X00978Y00647D01*
X01057Y00455D01*
X01204Y00308D01*
X01395Y00228D01*
X01603Y00228D01*
X01795Y00307D01*
X01942Y00454D01*
X02022Y00645D01*
X02022Y-00346D01*
X00975Y-00346D01*
X00975Y00833D01*
X00907Y01009D01*
X00895Y01026D01*
X00832Y01069D01*
X00826Y01063D01*
X00826Y02582D01*
X00826Y02741D01*
X00826Y02759D01*
X00826Y02918D01*
X00782Y03039D01*
X00695Y03134D01*
X00560Y03188D01*
X00509Y03171D01*
X00509Y02759D01*
X00826Y02759D01*
X00826Y02741D01*
X00509Y02741D01*
X00509Y02329D01*
X00560Y02312D01*
X00695Y02366D01*
X00782Y02461D01*
X00826Y02582D01*
X00826Y01063D01*
X00819Y01056D01*
X00819Y01082D01*
X00776Y01145D01*
X00605Y01221D01*
X00491Y01224D01*
X00491Y02329D01*
X00491Y02741D01*
X00491Y02759D01*
X00491Y03171D01*
X00440Y03188D01*
X00305Y03134D01*
X00218Y03039D01*
X00174Y02918D01*
X00174Y02759D01*
X00491Y02759D01*
X00491Y02741D01*
X00174Y02741D01*
X00174Y02582D01*
X00218Y02461D01*
X00305Y02366D01*
X00440Y02312D01*
X00491Y02329D01*
X00491Y01224D01*
X00417Y01225D01*
X00241Y01157D01*
X00224Y01145D01*
X00181Y01082D01*
X00500Y00763D01*
X00819Y01082D01*
X00819Y01056D01*
X00513Y00750D01*
X00832Y00431D01*
X00895Y00474D01*
X00971Y00645D01*
X00975Y00833D01*
X00975Y-00346D01*
X00819Y-00346D01*
X00819Y00418D01*
X00500Y00737D01*
X00487Y00724D01*
X00487Y00750D01*
X00168Y01069D01*
X00105Y01026D01*
X00029Y00855D01*
X00025Y00667D01*
X00093Y00491D01*
X00105Y00474D01*
X00168Y00431D01*
X00487Y00750D01*
X00487Y00724D01*
X00181Y00418D01*
X00224Y00355D01*
X00395Y00279D01*
X00583Y00275D01*
X00759Y00343D01*
X00776Y00355D01*
X00819Y00418D01*
X00819Y-00346D01*
X00022Y-00346D01*
X00022Y00645D01*
X00022Y00853D01*
X-00025Y00968D01*
X-00025Y02833D01*
X-00093Y03009D01*
X-00105Y03026D01*
X-00168Y03069D01*
X-00181Y03056D01*
X-00181Y03082D01*
X-00224Y03145D01*
X-00395Y03221D01*
X-00583Y03225D01*
X-00759Y03157D01*
X-00776Y03145D01*
X-00819Y03082D01*
X-00500Y02763D01*
X-00181Y03082D01*
X-00181Y03056D01*
X-00487Y02750D01*
X-00168Y02431D01*
X-00105Y02474D01*
X-00029Y02645D01*
X-00025Y02833D01*
X-00025Y00968D01*
X-00057Y01045D01*
X-00181Y01169D01*
X-00181Y02418D01*
X-00500Y02737D01*
X-00513Y02724D01*
X-00513Y02750D01*
X-00832Y03069D01*
X-00895Y03026D01*
X-00971Y02855D01*
X-00975Y02667D01*
X-00907Y02491D01*
X-00895Y02474D01*
X-00832Y02431D01*
X-00513Y02750D01*
X-00513Y02724D01*
X-00819Y02418D01*
X-00776Y02355D01*
X-00605Y02279D01*
X-00417Y02275D01*
X-00241Y02343D01*
X-00224Y02355D01*
X-00181Y02418D01*
X-00181Y01169D01*
X-00204Y01192D01*
X-00395Y01272D01*
X-00603Y01272D01*
X-00795Y01193D01*
X-00942Y01046D01*
X-01022Y00855D01*
X-01022Y00647D01*
X-00943Y00455D01*
X-00796Y00308D01*
X-00605Y00228D01*
X-00397Y00228D01*
X-00205Y00307D01*
X-00058Y00454D01*
X00022Y00645D01*
X00022Y-00346D01*
X-00613Y-00346D01*
X-01896Y01031D01*
X-01896Y09760D01*
X-00979Y10700D01*
X18806Y10650D01*
X19720Y09842D01*
X19850Y09712D01*
X19850Y08750D01*
X19022Y08750D01*
X19022Y09645D01*
X19022Y09853D01*
X18943Y10045D01*
X18796Y10192D01*
X18605Y10272D01*
X18397Y10272D01*
X18205Y10193D01*
X18058Y10046D01*
X17999Y09908D01*
X17943Y10045D01*
X17796Y10192D01*
X17605Y10272D01*
X17397Y10272D01*
X17205Y10193D01*
X17058Y10046D01*
X16978Y09855D01*
X16978Y09647D01*
X17057Y09455D01*
X17204Y09308D01*
X17395Y09228D01*
X17603Y09228D01*
X17795Y09307D01*
X17942Y09454D01*
X18000Y09593D01*
X18057Y09455D01*
X18204Y09308D01*
X18395Y09228D01*
X18603Y09228D01*
X18795Y09307D01*
X18942Y09454D01*
X19022Y09645D01*
X19022Y08750D01*
X17030Y08750D01*
X16975Y08698D01*
X16975Y09833D01*
X16907Y10009D01*
X16895Y10026D01*
X16832Y10069D01*
X16819Y10056D01*
X16819Y10082D01*
X16776Y10145D01*
X16605Y10221D01*
X16417Y10225D01*
X16241Y10157D01*
X16224Y10145D01*
X16181Y10082D01*
X16500Y09763D01*
X16819Y10082D01*
X16819Y10056D01*
X16513Y09750D01*
X16832Y09431D01*
X16895Y09474D01*
X16971Y09645D01*
X16975Y09833D01*
X16975Y08698D01*
X16819Y08550D01*
X16819Y09418D01*
X16500Y09737D01*
X16487Y09724D01*
X16487Y09750D01*
X16168Y10069D01*
X16105Y10026D01*
X16029Y09855D01*
X16025Y09667D01*
X16093Y09491D01*
X16105Y09474D01*
X16168Y09431D01*
X16487Y09750D01*
X16487Y09724D01*
X16181Y09418D01*
X16224Y09355D01*
X16395Y09279D01*
X16583Y09275D01*
X16759Y09343D01*
X16776Y09355D01*
X16819Y09418D01*
X16819Y08550D01*
X16022Y07792D01*
X16022Y09645D01*
X16022Y09853D01*
X15943Y10045D01*
X15796Y10192D01*
X15605Y10272D01*
X15397Y10272D01*
X15205Y10193D01*
X15058Y10046D01*
X14999Y09908D01*
X14943Y10045D01*
X14796Y10192D01*
X14605Y10272D01*
X14397Y10272D01*
X14205Y10193D01*
X14058Y10046D01*
X13999Y09908D01*
X13943Y10045D01*
X13796Y10192D01*
X13605Y10272D01*
X13397Y10272D01*
X13205Y10193D01*
X13058Y10046D01*
X12999Y09908D01*
X12943Y10045D01*
X12796Y10192D01*
X12605Y10272D01*
X12397Y10272D01*
X12205Y10193D01*
X12058Y10046D01*
X11999Y09908D01*
X11943Y10045D01*
X11796Y10192D01*
X11605Y10272D01*
X11397Y10272D01*
X11205Y10193D01*
X11058Y10046D01*
X10978Y09855D01*
X10978Y09647D01*
X11057Y09455D01*
X11204Y09308D01*
X11276Y09278D01*
X11196Y09244D01*
X11131Y09180D01*
X11096Y09096D01*
X11096Y09005D01*
X11131Y08921D01*
X11195Y08856D01*
X11279Y08821D01*
X11370Y08821D01*
X11454Y08856D01*
X11519Y08920D01*
X11554Y09004D01*
X11554Y09095D01*
X11519Y09179D01*
X11470Y09228D01*
X11603Y09228D01*
X11795Y09307D01*
X11942Y09454D01*
X12000Y09593D01*
X12057Y09455D01*
X12204Y09308D01*
X12395Y09228D01*
X12603Y09228D01*
X12795Y09307D01*
X12942Y09454D01*
X13000Y09593D01*
X13057Y09455D01*
X13204Y09308D01*
X13395Y09228D01*
X13603Y09228D01*
X13795Y09307D01*
X13942Y09454D01*
X14000Y09593D01*
X14057Y09455D01*
X14204Y09308D01*
X14395Y09228D01*
X14603Y09228D01*
X14795Y09307D01*
X14942Y09454D01*
X15000Y09593D01*
X15057Y09455D01*
X15204Y09308D01*
X15395Y09228D01*
X15603Y09228D01*
X15795Y09307D01*
X15942Y09454D01*
X16022Y09645D01*
X16022Y07792D01*
X16000Y07771D01*
X16000Y02700D01*
X17058Y01900D01*
X19896Y01900D01*
X19896Y00935D01*
G54D10*
G36*
X19850Y02200D02*
X19022Y02200D01*
X19022Y03645D01*
X19022Y03853D01*
X18943Y04045D01*
X18796Y04192D01*
X18657Y04251D01*
X18795Y04307D01*
X18942Y04454D01*
X19022Y04645D01*
X19022Y04853D01*
X18943Y05045D01*
X18796Y05192D01*
X18657Y05251D01*
X18795Y05307D01*
X18942Y05454D01*
X19022Y05645D01*
X19022Y05853D01*
X18943Y06045D01*
X18796Y06192D01*
X18657Y06251D01*
X18795Y06307D01*
X18942Y06454D01*
X19022Y06645D01*
X19022Y06853D01*
X18943Y07045D01*
X18796Y07192D01*
X18657Y07251D01*
X18795Y07307D01*
X18942Y07454D01*
X19022Y07645D01*
X19022Y07853D01*
X18943Y08045D01*
X18796Y08192D01*
X18605Y08272D01*
X18397Y08272D01*
X18205Y08193D01*
X18058Y08046D01*
X17978Y07855D01*
X17978Y07647D01*
X18057Y07455D01*
X18204Y07308D01*
X18342Y07250D01*
X18205Y07193D01*
X18058Y07046D01*
X17978Y06855D01*
X17978Y06647D01*
X18057Y06455D01*
X18204Y06308D01*
X18342Y06250D01*
X18205Y06193D01*
X18058Y06046D01*
X17978Y05855D01*
X17978Y05702D01*
X17971Y05704D01*
X17880Y05704D01*
X17796Y05669D01*
X17731Y05605D01*
X17696Y05521D01*
X17696Y05430D01*
X17731Y05346D01*
X17795Y05281D01*
X17879Y05246D01*
X17970Y05246D01*
X18054Y05281D01*
X18119Y05345D01*
X18133Y05379D01*
X18204Y05308D01*
X18342Y05250D01*
X18205Y05193D01*
X18058Y05046D01*
X17978Y04855D01*
X17978Y04647D01*
X18057Y04455D01*
X18204Y04308D01*
X18342Y04250D01*
X18205Y04193D01*
X18058Y04046D01*
X17978Y03855D01*
X17978Y03647D01*
X18057Y03455D01*
X18204Y03308D01*
X18395Y03228D01*
X18603Y03228D01*
X18795Y03307D01*
X18942Y03454D01*
X19022Y03645D01*
X19022Y02200D01*
X18975Y02200D01*
X18975Y02833D01*
X18907Y03009D01*
X18895Y03026D01*
X18832Y03069D01*
X18819Y03056D01*
X18819Y03082D01*
X18776Y03145D01*
X18605Y03221D01*
X18417Y03225D01*
X18241Y03157D01*
X18224Y03145D01*
X18181Y03082D01*
X18500Y02763D01*
X18819Y03082D01*
X18819Y03056D01*
X18513Y02750D01*
X18832Y02431D01*
X18895Y02474D01*
X18971Y02645D01*
X18975Y02833D01*
X18975Y02200D01*
X18819Y02200D01*
X18819Y02418D01*
X18500Y02737D01*
X18487Y02724D01*
X18487Y02750D01*
X18168Y03069D01*
X18105Y03026D01*
X18029Y02855D01*
X18025Y02667D01*
X18093Y02491D01*
X18105Y02474D01*
X18168Y02431D01*
X18487Y02750D01*
X18487Y02724D01*
X18181Y02418D01*
X18224Y02355D01*
X18395Y02279D01*
X18583Y02275D01*
X18759Y02343D01*
X18776Y02355D01*
X18819Y02418D01*
X18819Y02200D01*
X17304Y02200D01*
X17304Y05279D01*
X17304Y05370D01*
X17269Y05454D01*
X17205Y05519D01*
X17121Y05554D01*
X17104Y05554D01*
X17104Y05779D01*
X17104Y05870D01*
X17069Y05954D01*
X17005Y06019D01*
X16953Y06041D01*
X16953Y06999D01*
X16953Y07100D01*
X16915Y07193D01*
X16844Y07264D01*
X16751Y07303D01*
X16650Y07303D01*
X16557Y07265D01*
X16486Y07194D01*
X16447Y07101D01*
X16447Y07000D01*
X16485Y06907D01*
X16556Y06836D01*
X16649Y06797D01*
X16750Y06797D01*
X16843Y06835D01*
X16914Y06906D01*
X16953Y06999D01*
X16953Y06041D01*
X16921Y06054D01*
X16830Y06054D01*
X16746Y06019D01*
X16681Y05955D01*
X16646Y05871D01*
X16646Y05780D01*
X16681Y05696D01*
X16745Y05631D01*
X16829Y05596D01*
X16920Y05596D01*
X17004Y05631D01*
X17069Y05695D01*
X17104Y05779D01*
X17104Y05554D01*
X17030Y05554D01*
X16946Y05519D01*
X16881Y05455D01*
X16846Y05371D01*
X16846Y05280D01*
X16881Y05196D01*
X16945Y05131D01*
X17029Y05096D01*
X17120Y05096D01*
X17204Y05131D01*
X17269Y05195D01*
X17304Y05279D01*
X17304Y02200D01*
X17242Y02200D01*
X16946Y02428D01*
X16946Y04255D01*
X16946Y04346D01*
X16911Y04430D01*
X16847Y04495D01*
X16763Y04530D01*
X16672Y04530D01*
X16588Y04495D01*
X16523Y04431D01*
X16488Y04347D01*
X16488Y04256D01*
X16523Y04172D01*
X16587Y04107D01*
X16671Y04072D01*
X16762Y04072D01*
X16846Y04107D01*
X16911Y04171D01*
X16946Y04255D01*
X16946Y02428D01*
X16300Y02925D01*
X16300Y07727D01*
X17168Y08450D01*
X19850Y08450D01*
X19850Y02200D01*
X19850Y02200D01*
G37*
G54D25*
X19850Y02200D02*
X19022Y02200D01*
X19022Y03645D01*
X19022Y03853D01*
X18943Y04045D01*
X18796Y04192D01*
X18657Y04251D01*
X18795Y04307D01*
X18942Y04454D01*
X19022Y04645D01*
X19022Y04853D01*
X18943Y05045D01*
X18796Y05192D01*
X18657Y05251D01*
X18795Y05307D01*
X18942Y05454D01*
X19022Y05645D01*
X19022Y05853D01*
X18943Y06045D01*
X18796Y06192D01*
X18657Y06251D01*
X18795Y06307D01*
X18942Y06454D01*
X19022Y06645D01*
X19022Y06853D01*
X18943Y07045D01*
X18796Y07192D01*
X18657Y07251D01*
X18795Y07307D01*
X18942Y07454D01*
X19022Y07645D01*
X19022Y07853D01*
X18943Y08045D01*
X18796Y08192D01*
X18605Y08272D01*
X18397Y08272D01*
X18205Y08193D01*
X18058Y08046D01*
X17978Y07855D01*
X17978Y07647D01*
X18057Y07455D01*
X18204Y07308D01*
X18342Y07250D01*
X18205Y07193D01*
X18058Y07046D01*
X17978Y06855D01*
X17978Y06647D01*
X18057Y06455D01*
X18204Y06308D01*
X18342Y06250D01*
X18205Y06193D01*
X18058Y06046D01*
X17978Y05855D01*
X17978Y05702D01*
X17971Y05704D01*
X17880Y05704D01*
X17796Y05669D01*
X17731Y05605D01*
X17696Y05521D01*
X17696Y05430D01*
X17731Y05346D01*
X17795Y05281D01*
X17879Y05246D01*
X17970Y05246D01*
X18054Y05281D01*
X18119Y05345D01*
X18133Y05379D01*
X18204Y05308D01*
X18342Y05250D01*
X18205Y05193D01*
X18058Y05046D01*
X17978Y04855D01*
X17978Y04647D01*
X18057Y04455D01*
X18204Y04308D01*
X18342Y04250D01*
X18205Y04193D01*
X18058Y04046D01*
X17978Y03855D01*
X17978Y03647D01*
X18057Y03455D01*
X18204Y03308D01*
X18395Y03228D01*
X18603Y03228D01*
X18795Y03307D01*
X18942Y03454D01*
X19022Y03645D01*
X19022Y02200D01*
X18975Y02200D01*
X18975Y02833D01*
X18907Y03009D01*
X18895Y03026D01*
X18832Y03069D01*
X18819Y03056D01*
X18819Y03082D01*
X18776Y03145D01*
X18605Y03221D01*
X18417Y03225D01*
X18241Y03157D01*
X18224Y03145D01*
X18181Y03082D01*
X18500Y02763D01*
X18819Y03082D01*
X18819Y03056D01*
X18513Y02750D01*
X18832Y02431D01*
X18895Y02474D01*
X18971Y02645D01*
X18975Y02833D01*
X18975Y02200D01*
X18819Y02200D01*
X18819Y02418D01*
X18500Y02737D01*
X18487Y02724D01*
X18487Y02750D01*
X18168Y03069D01*
X18105Y03026D01*
X18029Y02855D01*
X18025Y02667D01*
X18093Y02491D01*
X18105Y02474D01*
X18168Y02431D01*
X18487Y02750D01*
X18487Y02724D01*
X18181Y02418D01*
X18224Y02355D01*
X18395Y02279D01*
X18583Y02275D01*
X18759Y02343D01*
X18776Y02355D01*
X18819Y02418D01*
X18819Y02200D01*
X17304Y02200D01*
X17304Y05279D01*
X17304Y05370D01*
X17269Y05454D01*
X17205Y05519D01*
X17121Y05554D01*
X17104Y05554D01*
X17104Y05779D01*
X17104Y05870D01*
X17069Y05954D01*
X17005Y06019D01*
X16953Y06041D01*
X16953Y06999D01*
X16953Y07100D01*
X16915Y07193D01*
X16844Y07264D01*
X16751Y07303D01*
X16650Y07303D01*
X16557Y07265D01*
X16486Y07194D01*
X16447Y07101D01*
X16447Y07000D01*
X16485Y06907D01*
X16556Y06836D01*
X16649Y06797D01*
X16750Y06797D01*
X16843Y06835D01*
X16914Y06906D01*
X16953Y06999D01*
X16953Y06041D01*
X16921Y06054D01*
X16830Y06054D01*
X16746Y06019D01*
X16681Y05955D01*
X16646Y05871D01*
X16646Y05780D01*
X16681Y05696D01*
X16745Y05631D01*
X16829Y05596D01*
X16920Y05596D01*
X17004Y05631D01*
X17069Y05695D01*
X17104Y05779D01*
X17104Y05554D01*
X17030Y05554D01*
X16946Y05519D01*
X16881Y05455D01*
X16846Y05371D01*
X16846Y05280D01*
X16881Y05196D01*
X16945Y05131D01*
X17029Y05096D01*
X17120Y05096D01*
X17204Y05131D01*
X17269Y05195D01*
X17304Y05279D01*
X17304Y02200D01*
X17242Y02200D01*
X16946Y02428D01*
X16946Y04255D01*
X16946Y04346D01*
X16911Y04430D01*
X16847Y04495D01*
X16763Y04530D01*
X16672Y04530D01*
X16588Y04495D01*
X16523Y04431D01*
X16488Y04347D01*
X16488Y04256D01*
X16523Y04172D01*
X16587Y04107D01*
X16671Y04072D01*
X16762Y04072D01*
X16846Y04107D01*
X16911Y04171D01*
X16946Y04255D01*
X16946Y02428D01*
X16300Y02925D01*
X16300Y07727D01*
X17168Y08450D01*
X19850Y08450D01*
X19850Y02200D01*
M02*
