G04 (created by PCBNEW-RS274X (2011-05-25)-stable) date Fri 26 Jun 2015 07:16:06 BST*
G01*
G70*
G90*
%MOIN*%
G04 Gerber Fmt 3.4, Leading zero omitted, Abs format*
%FSLAX34Y34*%
G04 APERTURE LIST*
%ADD10C,0.006000*%
%ADD11C,0.015000*%
%ADD12R,0.033000X0.037800*%
%ADD13R,0.017600X0.027600*%
%ADD14R,0.025200X0.037000*%
%ADD15R,0.027600X0.017600*%
%ADD16R,0.012600X0.047600*%
%ADD17R,0.022600X0.042600*%
%ADD18R,0.042600X0.022600*%
%ADD19R,0.052700X0.060600*%
%ADD20R,0.032600X0.052600*%
%ADD21O,0.037000X0.076300*%
%ADD22R,0.077600X0.057600*%
%ADD23R,0.052600X0.032600*%
G04 APERTURE END LIST*
G54D10*
G54D11*
X20100Y09750D02*
X18900Y10950D01*
X-01050Y10950D02*
X18900Y10950D01*
X-02100Y00950D02*
X-02100Y09900D01*
X20100Y00850D02*
X18700Y-00550D01*
X20100Y09750D02*
X20100Y00850D01*
X-00700Y-00550D02*
X18700Y-00550D01*
X-02100Y00950D02*
X-00700Y-00550D01*
X-02100Y09900D02*
X-01050Y10950D01*
G54D12*
X00621Y01800D03*
X-00671Y01800D03*
X07571Y05825D03*
X06279Y05825D03*
G54D13*
X03475Y03750D03*
X04225Y03750D03*
X03475Y02750D03*
X03850Y03750D03*
X04225Y02750D03*
G54D14*
X06950Y08300D03*
X06575Y08300D03*
X06200Y08300D03*
X06200Y07300D03*
X06575Y07300D03*
X06950Y07300D03*
G54D15*
X14475Y03750D03*
X14475Y04500D03*
X15475Y03750D03*
X14475Y04125D03*
X15475Y04500D03*
G54D16*
X02624Y05924D03*
X02368Y05924D03*
X02112Y05924D03*
X01856Y05924D03*
X01856Y07624D03*
X02112Y07624D03*
X02368Y07624D03*
X02624Y07624D03*
G54D17*
X13400Y07100D03*
X14000Y07100D03*
X09350Y07775D03*
X09950Y07775D03*
X09550Y03775D03*
X10150Y03775D03*
G54D18*
X08400Y06270D03*
X08400Y05670D03*
G54D19*
X09933Y06153D03*
X09067Y07097D03*
X09067Y06153D03*
X09933Y07097D03*
G54D20*
X00133Y07498D03*
X00883Y07498D03*
X01225Y04825D03*
X01975Y04825D03*
G54D17*
X10535Y02648D03*
X11135Y02648D03*
X07100Y06525D03*
X06500Y06525D03*
X06425Y04300D03*
X07025Y04300D03*
X14725Y09000D03*
X15325Y09000D03*
X14500Y07500D03*
X15100Y07500D03*
X04825Y04225D03*
X05425Y04225D03*
X03800Y01525D03*
X03200Y01525D03*
X06343Y02246D03*
X05743Y02246D03*
X03125Y09025D03*
X02525Y09025D03*
G54D18*
X01375Y08800D03*
X01375Y08200D03*
X14975Y06825D03*
X14975Y06225D03*
X02850Y03150D03*
X02850Y03750D03*
X03626Y05328D03*
X03626Y05928D03*
G54D17*
X06425Y04975D03*
X07025Y04975D03*
G54D18*
X07525Y07550D03*
X07525Y08150D03*
X13525Y02450D03*
X13525Y03050D03*
G54D17*
X15900Y09000D03*
X16500Y09000D03*
X08875Y07775D03*
X08275Y07775D03*
X10200Y01900D03*
X09600Y01900D03*
G54D18*
X13325Y06375D03*
X13325Y05775D03*
X03625Y06900D03*
X03625Y06300D03*
X03675Y08200D03*
X03675Y07600D03*
G54D17*
X15425Y03125D03*
X14825Y03125D03*
X03725Y04625D03*
X03125Y04625D03*
G54D18*
X05975Y03800D03*
X05975Y03200D03*
G54D17*
X01950Y03975D03*
X01350Y03975D03*
G54D18*
X01025Y06600D03*
X01025Y06000D03*
X08875Y03275D03*
X08875Y03875D03*
X02375Y02675D03*
X02375Y02075D03*
G54D17*
X10125Y05225D03*
X09525Y05225D03*
X17094Y03526D03*
X17694Y03526D03*
G54D18*
X17225Y04225D03*
X17225Y04825D03*
G54D17*
X17780Y06734D03*
X17180Y06734D03*
G54D18*
X17539Y05991D03*
X17539Y05391D03*
G54D21*
X11975Y06850D03*
G54D22*
X05525Y04975D03*
X05525Y06275D03*
G54D23*
X05050Y02750D03*
X05050Y03500D03*
G54D22*
X04575Y04975D03*
X04575Y06275D03*
X04575Y08325D03*
X04575Y07025D03*
G54D17*
X03125Y08475D03*
X02525Y08475D03*
G54D22*
X05525Y08325D03*
X05525Y07025D03*
G54D18*
X12950Y02450D03*
X12950Y03050D03*
G54D17*
X17564Y07600D03*
X16964Y07600D03*
G54D18*
X00350Y06600D03*
X00350Y06000D03*
G54D17*
X01225Y01775D03*
X01825Y01775D03*
G54D18*
X-01150Y08100D03*
X-01150Y07500D03*
X08925Y05225D03*
X08925Y04625D03*
G54D17*
X13125Y08825D03*
X12525Y08825D03*
G54D18*
X01400Y03050D03*
X01400Y02450D03*
M02*
