G04 (created by PCBNEW-RS274X (2011-05-25)-stable) date Fri 26 Jun 2015 07:16:06 BST*
G01*
G70*
G90*
%MOIN*%
G04 Gerber Fmt 3.4, Leading zero omitted, Abs format*
%FSLAX34Y34*%
G04 APERTURE LIST*
%ADD10C,0.006000*%
%ADD11C,0.015000*%
%ADD12O,0.047200X0.070900*%
%ADD13O,0.078300X0.051200*%
%ADD14C,0.078700*%
%ADD15R,0.055000X0.055000*%
%ADD16C,0.055000*%
%ADD17C,0.020000*%
%ADD18C,0.025000*%
%ADD19C,0.007900*%
%ADD20C,0.027600*%
%ADD21C,0.011800*%
%ADD22C,0.019700*%
%ADD23C,0.010000*%
G04 APERTURE END LIST*
G54D10*
G54D11*
X20100Y09750D02*
X18900Y10950D01*
X-01050Y10950D02*
X18900Y10950D01*
X-02100Y00950D02*
X-02100Y09900D01*
X20100Y00850D02*
X18700Y-00550D01*
X20100Y09750D02*
X20100Y00850D01*
X-00700Y-00550D02*
X18700Y-00550D01*
X-02100Y00950D02*
X-00700Y-00550D01*
X-02100Y09900D02*
X-01050Y10950D01*
G54D12*
X00500Y02750D03*
G54D13*
X00500Y03750D03*
G54D14*
X00500Y04750D03*
G54D15*
X-00500Y08750D03*
G54D14*
X-00500Y02750D03*
X-00500Y03750D03*
X-00500Y04750D03*
X-00500Y05750D03*
X-00500Y06750D03*
X18500Y02750D03*
X18500Y03750D03*
X18500Y04750D03*
X18500Y05750D03*
X18500Y06750D03*
X18500Y07750D03*
X-00500Y00750D03*
X00500Y00750D03*
X01500Y00750D03*
X02500Y00750D03*
X03500Y00750D03*
X04500Y00750D03*
X05500Y00750D03*
X06500Y00750D03*
X07500Y00750D03*
X08500Y00750D03*
X09500Y00750D03*
X10500Y00750D03*
X11500Y00750D03*
X12500Y00750D03*
X13500Y00750D03*
X14500Y00750D03*
X15500Y00750D03*
X16500Y00750D03*
X17500Y00750D03*
X18500Y00750D03*
X-00500Y09750D03*
X00500Y09750D03*
X01500Y09750D03*
X02500Y09750D03*
X03500Y09750D03*
X04500Y09750D03*
X05500Y09750D03*
X06500Y09750D03*
X07500Y09750D03*
X08500Y09750D03*
X09500Y09750D03*
X10500Y09750D03*
X11500Y09750D03*
X12500Y09750D03*
X13500Y09750D03*
X14500Y09750D03*
X15500Y09750D03*
X16500Y09750D03*
X17500Y09750D03*
X18500Y09750D03*
G54D15*
X14950Y08225D03*
G54D16*
X13950Y08225D03*
G54D17*
X10750Y03500D03*
X09950Y08575D03*
X09500Y03225D03*
X10525Y04675D03*
X07900Y03900D03*
X07950Y02900D03*
X07950Y07375D03*
X07950Y06450D03*
X11325Y06150D03*
X12050Y04900D03*
X10575Y06375D03*
X10375Y06975D03*
X11575Y03200D03*
X12150Y03775D03*
X11525Y06950D03*
X12400Y04350D03*
X14685Y05813D03*
X12825Y05625D03*
X10575Y05200D03*
X09875Y05650D03*
X12025Y01350D03*
X11350Y04750D03*
X11550Y04200D03*
X12200Y05675D03*
X12875Y08350D03*
X13300Y08025D03*
X12850Y06375D03*
X11625Y08400D03*
X11325Y09050D03*
X09875Y09175D03*
X11100Y08500D03*
X10950Y07750D03*
X08775Y09175D03*
X09600Y08225D03*
X08975Y08275D03*
X08600Y07375D03*
X08050Y08900D03*
X08450Y08175D03*
X07575Y08850D03*
X07775Y04500D03*
X08300Y04950D03*
X12100Y08900D03*
X11750Y07800D03*
X07450Y05425D03*
X07775Y05025D03*
X12875Y01450D03*
X11525Y05325D03*
X11550Y01525D03*
X10875Y01750D03*
X11125Y02175D03*
X11750Y02000D03*
G54D18*
X09275Y04150D03*
G54D17*
X15625Y08425D03*
X09200Y05775D03*
X12125Y06200D03*
X09825Y04400D03*
X09850Y03650D03*
X12150Y06800D03*
X04225Y02400D03*
X01900Y08025D03*
X10325Y03125D03*
X10775Y09000D03*
X12900Y03550D03*
X09375Y04650D03*
X12225Y08025D03*
G54D18*
X13925Y06375D03*
X16700Y07050D03*
X19193Y03270D03*
X19154Y04254D03*
X19193Y05199D03*
X19193Y06222D03*
X19193Y07207D03*
X19154Y08033D03*
X16675Y04575D03*
X17700Y04250D03*
X16634Y07719D03*
X16625Y06325D03*
G54D17*
X12375Y03325D03*
X14125Y04000D03*
X13525Y08900D03*
G54D18*
X15433Y06813D03*
X09125Y07775D03*
X03600Y02425D03*
X12775Y02125D03*
X15700Y03750D03*
X09200Y02600D03*
X04025Y04150D03*
X10375Y01900D03*
X13075Y06825D03*
X09350Y05225D03*
X08525Y06600D03*
X05050Y02450D03*
X05950Y04025D03*
X03675Y08450D03*
X03725Y07100D03*
X03200Y07175D03*
G54D17*
X03975Y08525D03*
X11125Y03125D03*
X18025Y01625D03*
X16650Y01675D03*
X15525Y02100D03*
X00975Y00175D03*
X02025Y00175D03*
X03000Y00225D03*
X03975Y00200D03*
X04975Y00225D03*
X06000Y00175D03*
X07000Y00225D03*
X08000Y00175D03*
X09050Y00150D03*
X09975Y00100D03*
X11000Y00100D03*
X12050Y00125D03*
X12950Y00175D03*
X14050Y00150D03*
X14925Y00125D03*
X15975Y00100D03*
X17050Y00100D03*
X18700Y00100D03*
X19250Y09100D03*
X19200Y09400D03*
X-01673Y08506D03*
X-01791Y07089D03*
X-01791Y06144D03*
X-01791Y05159D03*
X-01752Y04136D03*
X-01752Y03230D03*
X-01752Y02364D03*
X-01752Y01577D03*
X-01025Y04350D03*
X-01025Y05200D03*
X-00500Y07550D03*
X01000Y10400D03*
X02000Y10375D03*
X02975Y10425D03*
X03975Y10350D03*
X05000Y10400D03*
X05975Y10375D03*
X07000Y10375D03*
X08000Y10350D03*
X08975Y10325D03*
X10000Y10375D03*
X11000Y10400D03*
X12000Y10350D03*
X12975Y10350D03*
X14025Y10375D03*
X15000Y10400D03*
X16000Y10400D03*
G54D18*
X01050Y04075D03*
G54D17*
X10450Y05900D03*
G54D18*
X14087Y04565D03*
X13524Y03325D03*
X08362Y04352D03*
X07950Y07850D03*
X05325Y07550D03*
G54D17*
X04675Y03825D03*
G54D18*
X02475Y01525D03*
X03725Y06575D03*
X06250Y06525D03*
X06400Y07800D03*
X15425Y07525D03*
X15425Y06300D03*
X01800Y05450D03*
X13933Y05837D03*
X14350Y07025D03*
X04725Y05775D03*
X05525Y05825D03*
G54D17*
X02150Y08400D03*
G54D18*
X03850Y03425D03*
X02850Y04525D03*
X10475Y04050D03*
X09300Y01900D03*
X14550Y03325D03*
X08228Y05415D03*
X01325Y07725D03*
X04525Y07425D03*
X05975Y02950D03*
X01175Y05525D03*
X02250Y01875D03*
X03675Y07425D03*
X10225Y07850D03*
G54D17*
X14276Y05419D03*
X14500Y04900D03*
X04200Y01600D03*
G54D18*
X05800Y05675D03*
X07600Y06975D03*
X06975Y07850D03*
X01675Y06525D03*
X02675Y08050D03*
G54D17*
X02550Y05125D03*
G54D18*
X03375Y05025D03*
X02275Y03150D03*
X01225Y07100D03*
X02125Y08875D03*
G54D17*
X12700Y04925D03*
X12795Y07600D03*
X10600Y08300D03*
X11250Y03725D03*
X06775Y02275D03*
X03075Y02525D03*
X02575Y07200D03*
X04050Y07800D03*
X04425Y05600D03*
X05575Y03425D03*
X17075Y05325D03*
X16717Y04301D03*
X16875Y05825D03*
X17925Y05475D03*
G54D19*
X18500Y04750D02*
X18050Y04750D01*
X18050Y04750D02*
X17450Y05350D01*
X17450Y05350D02*
X17450Y06300D01*
X17450Y06300D02*
X16700Y07050D01*
G54D20*
X13525Y08900D02*
X14125Y08675D01*
X14500Y09725D02*
X14500Y09750D01*
X14125Y08675D02*
X14500Y09725D01*
G54D19*
X15433Y06813D02*
X14425Y06650D01*
X14425Y06650D02*
X13075Y06825D01*
X15675Y03723D02*
X14950Y06550D01*
X12775Y02125D02*
X13150Y02700D01*
X13150Y02700D02*
X14550Y03650D01*
X14550Y03650D02*
X15175Y03175D01*
X15175Y03175D02*
X15675Y03723D01*
X15675Y03723D02*
X15700Y03750D01*
G54D21*
X03600Y02425D02*
X04000Y02000D01*
X04000Y02000D02*
X05050Y02450D01*
G54D22*
X09200Y02600D02*
X09472Y02526D01*
X10098Y01900D02*
X10375Y01900D01*
X09472Y02526D02*
X10098Y01900D01*
G54D21*
X08525Y06600D02*
X08300Y06475D01*
X09250Y05398D02*
X09350Y05225D01*
X08300Y06475D02*
X09250Y05398D01*
G54D22*
X05025Y03950D02*
X05950Y04025D01*
X04744Y03329D02*
X05025Y03950D01*
X05050Y02450D02*
X04744Y03329D01*
G54D10*
G36*
X18550Y02208D02*
X18548Y02196D01*
X18544Y02188D01*
X18537Y02181D01*
X18529Y02177D01*
X18517Y02175D01*
X17953Y02175D01*
X17953Y04199D01*
X17953Y04300D01*
X17915Y04393D01*
X17844Y04464D01*
X17751Y04503D01*
X17650Y04503D01*
X17557Y04465D01*
X17486Y04394D01*
X17447Y04301D01*
X17447Y04200D01*
X17485Y04107D01*
X17556Y04036D01*
X17649Y03997D01*
X17750Y03997D01*
X17843Y04035D01*
X17914Y04106D01*
X17953Y04199D01*
X17953Y02175D01*
X17304Y02175D01*
X17304Y05279D01*
X17304Y05370D01*
X17269Y05454D01*
X17205Y05519D01*
X17121Y05554D01*
X17104Y05554D01*
X17104Y05779D01*
X17104Y05870D01*
X17069Y05954D01*
X17005Y06019D01*
X16921Y06054D01*
X16878Y06054D01*
X16878Y06274D01*
X16878Y06375D01*
X16840Y06468D01*
X16769Y06539D01*
X16676Y06578D01*
X16575Y06578D01*
X16482Y06540D01*
X16411Y06469D01*
X16372Y06376D01*
X16372Y06275D01*
X16410Y06182D01*
X16481Y06111D01*
X16574Y06072D01*
X16675Y06072D01*
X16768Y06110D01*
X16839Y06181D01*
X16878Y06274D01*
X16878Y06054D01*
X16830Y06054D01*
X16746Y06019D01*
X16681Y05955D01*
X16646Y05871D01*
X16646Y05780D01*
X16681Y05696D01*
X16745Y05631D01*
X16829Y05596D01*
X16920Y05596D01*
X17004Y05631D01*
X17069Y05695D01*
X17104Y05779D01*
X17104Y05554D01*
X17030Y05554D01*
X16946Y05519D01*
X16881Y05455D01*
X16846Y05371D01*
X16846Y05280D01*
X16881Y05196D01*
X16945Y05131D01*
X17029Y05096D01*
X17120Y05096D01*
X17204Y05131D01*
X17269Y05195D01*
X17304Y05279D01*
X17304Y02175D01*
X17253Y02175D01*
X17241Y02177D01*
X17230Y02182D01*
X16946Y02376D01*
X16946Y04255D01*
X16946Y04346D01*
X16911Y04430D01*
X16895Y04446D01*
X16928Y04524D01*
X16928Y04625D01*
X16890Y04718D01*
X16819Y04789D01*
X16726Y04828D01*
X16625Y04828D01*
X16532Y04790D01*
X16461Y04719D01*
X16422Y04626D01*
X16422Y04525D01*
X16460Y04432D01*
X16504Y04388D01*
X16488Y04347D01*
X16488Y04256D01*
X16523Y04172D01*
X16587Y04107D01*
X16671Y04072D01*
X16762Y04072D01*
X16846Y04107D01*
X16911Y04171D01*
X16946Y04255D01*
X16946Y02376D01*
X16266Y02840D01*
X16257Y02849D01*
X16252Y02858D01*
X16250Y02871D01*
X16250Y07662D01*
X16252Y07674D01*
X16254Y07681D01*
X16261Y07688D01*
X16402Y07822D01*
X16381Y07770D01*
X16381Y07669D01*
X16419Y07576D01*
X16490Y07505D01*
X16583Y07466D01*
X16684Y07466D01*
X16777Y07504D01*
X16848Y07575D01*
X16887Y07668D01*
X16887Y07769D01*
X16849Y07862D01*
X16778Y07933D01*
X16685Y07972D01*
X16584Y07972D01*
X16545Y07957D01*
X17057Y08439D01*
X17070Y08447D01*
X17086Y08450D01*
X18517Y08450D01*
X18529Y08448D01*
X18537Y08444D01*
X18544Y08437D01*
X18548Y08429D01*
X18550Y08417D01*
X18550Y08272D01*
X18397Y08272D01*
X18205Y08193D01*
X18058Y08046D01*
X17978Y07855D01*
X17978Y07647D01*
X18057Y07455D01*
X18204Y07308D01*
X18342Y07250D01*
X18205Y07193D01*
X18058Y07046D01*
X17978Y06855D01*
X17978Y06647D01*
X18057Y06455D01*
X18204Y06308D01*
X18342Y06250D01*
X18205Y06193D01*
X18058Y06046D01*
X17978Y05855D01*
X17978Y05702D01*
X17971Y05704D01*
X17880Y05704D01*
X17796Y05669D01*
X17731Y05605D01*
X17696Y05521D01*
X17696Y05430D01*
X17731Y05346D01*
X17795Y05281D01*
X17879Y05246D01*
X17970Y05246D01*
X18054Y05281D01*
X18119Y05345D01*
X18133Y05379D01*
X18204Y05308D01*
X18395Y05228D01*
X18550Y05228D01*
X18550Y05223D01*
X18417Y05225D01*
X18241Y05157D01*
X18224Y05145D01*
X18181Y05082D01*
X18465Y04798D01*
X18500Y04763D01*
X18513Y04750D01*
X18500Y04737D01*
X18487Y04724D01*
X18487Y04750D01*
X18168Y05069D01*
X18105Y05026D01*
X18029Y04855D01*
X18025Y04667D01*
X18093Y04491D01*
X18105Y04474D01*
X18168Y04431D01*
X18487Y04750D01*
X18487Y04724D01*
X18465Y04702D01*
X18181Y04418D01*
X18224Y04355D01*
X18395Y04279D01*
X18550Y04276D01*
X18550Y04272D01*
X18397Y04272D01*
X18205Y04193D01*
X18058Y04046D01*
X17978Y03855D01*
X17978Y03647D01*
X18057Y03455D01*
X18204Y03308D01*
X18342Y03250D01*
X18205Y03193D01*
X18058Y03046D01*
X17978Y02855D01*
X17978Y02647D01*
X18057Y02455D01*
X18204Y02308D01*
X18395Y02228D01*
X18550Y02228D01*
X18550Y02208D01*
X18550Y02208D01*
G37*
G54D23*
X18550Y02208D02*
X18548Y02196D01*
X18544Y02188D01*
X18537Y02181D01*
X18529Y02177D01*
X18517Y02175D01*
X17953Y02175D01*
X17953Y04199D01*
X17953Y04300D01*
X17915Y04393D01*
X17844Y04464D01*
X17751Y04503D01*
X17650Y04503D01*
X17557Y04465D01*
X17486Y04394D01*
X17447Y04301D01*
X17447Y04200D01*
X17485Y04107D01*
X17556Y04036D01*
X17649Y03997D01*
X17750Y03997D01*
X17843Y04035D01*
X17914Y04106D01*
X17953Y04199D01*
X17953Y02175D01*
X17304Y02175D01*
X17304Y05279D01*
X17304Y05370D01*
X17269Y05454D01*
X17205Y05519D01*
X17121Y05554D01*
X17104Y05554D01*
X17104Y05779D01*
X17104Y05870D01*
X17069Y05954D01*
X17005Y06019D01*
X16921Y06054D01*
X16878Y06054D01*
X16878Y06274D01*
X16878Y06375D01*
X16840Y06468D01*
X16769Y06539D01*
X16676Y06578D01*
X16575Y06578D01*
X16482Y06540D01*
X16411Y06469D01*
X16372Y06376D01*
X16372Y06275D01*
X16410Y06182D01*
X16481Y06111D01*
X16574Y06072D01*
X16675Y06072D01*
X16768Y06110D01*
X16839Y06181D01*
X16878Y06274D01*
X16878Y06054D01*
X16830Y06054D01*
X16746Y06019D01*
X16681Y05955D01*
X16646Y05871D01*
X16646Y05780D01*
X16681Y05696D01*
X16745Y05631D01*
X16829Y05596D01*
X16920Y05596D01*
X17004Y05631D01*
X17069Y05695D01*
X17104Y05779D01*
X17104Y05554D01*
X17030Y05554D01*
X16946Y05519D01*
X16881Y05455D01*
X16846Y05371D01*
X16846Y05280D01*
X16881Y05196D01*
X16945Y05131D01*
X17029Y05096D01*
X17120Y05096D01*
X17204Y05131D01*
X17269Y05195D01*
X17304Y05279D01*
X17304Y02175D01*
X17253Y02175D01*
X17241Y02177D01*
X17230Y02182D01*
X16946Y02376D01*
X16946Y04255D01*
X16946Y04346D01*
X16911Y04430D01*
X16895Y04446D01*
X16928Y04524D01*
X16928Y04625D01*
X16890Y04718D01*
X16819Y04789D01*
X16726Y04828D01*
X16625Y04828D01*
X16532Y04790D01*
X16461Y04719D01*
X16422Y04626D01*
X16422Y04525D01*
X16460Y04432D01*
X16504Y04388D01*
X16488Y04347D01*
X16488Y04256D01*
X16523Y04172D01*
X16587Y04107D01*
X16671Y04072D01*
X16762Y04072D01*
X16846Y04107D01*
X16911Y04171D01*
X16946Y04255D01*
X16946Y02376D01*
X16266Y02840D01*
X16257Y02849D01*
X16252Y02858D01*
X16250Y02871D01*
X16250Y07662D01*
X16252Y07674D01*
X16254Y07681D01*
X16261Y07688D01*
X16402Y07822D01*
X16381Y07770D01*
X16381Y07669D01*
X16419Y07576D01*
X16490Y07505D01*
X16583Y07466D01*
X16684Y07466D01*
X16777Y07504D01*
X16848Y07575D01*
X16887Y07668D01*
X16887Y07769D01*
X16849Y07862D01*
X16778Y07933D01*
X16685Y07972D01*
X16584Y07972D01*
X16545Y07957D01*
X17057Y08439D01*
X17070Y08447D01*
X17086Y08450D01*
X18517Y08450D01*
X18529Y08448D01*
X18537Y08444D01*
X18544Y08437D01*
X18548Y08429D01*
X18550Y08417D01*
X18550Y08272D01*
X18397Y08272D01*
X18205Y08193D01*
X18058Y08046D01*
X17978Y07855D01*
X17978Y07647D01*
X18057Y07455D01*
X18204Y07308D01*
X18342Y07250D01*
X18205Y07193D01*
X18058Y07046D01*
X17978Y06855D01*
X17978Y06647D01*
X18057Y06455D01*
X18204Y06308D01*
X18342Y06250D01*
X18205Y06193D01*
X18058Y06046D01*
X17978Y05855D01*
X17978Y05702D01*
X17971Y05704D01*
X17880Y05704D01*
X17796Y05669D01*
X17731Y05605D01*
X17696Y05521D01*
X17696Y05430D01*
X17731Y05346D01*
X17795Y05281D01*
X17879Y05246D01*
X17970Y05246D01*
X18054Y05281D01*
X18119Y05345D01*
X18133Y05379D01*
X18204Y05308D01*
X18395Y05228D01*
X18550Y05228D01*
X18550Y05223D01*
X18417Y05225D01*
X18241Y05157D01*
X18224Y05145D01*
X18181Y05082D01*
X18465Y04798D01*
X18500Y04763D01*
X18513Y04750D01*
X18500Y04737D01*
X18487Y04724D01*
X18487Y04750D01*
X18168Y05069D01*
X18105Y05026D01*
X18029Y04855D01*
X18025Y04667D01*
X18093Y04491D01*
X18105Y04474D01*
X18168Y04431D01*
X18487Y04750D01*
X18487Y04724D01*
X18465Y04702D01*
X18181Y04418D01*
X18224Y04355D01*
X18395Y04279D01*
X18550Y04276D01*
X18550Y04272D01*
X18397Y04272D01*
X18205Y04193D01*
X18058Y04046D01*
X17978Y03855D01*
X17978Y03647D01*
X18057Y03455D01*
X18204Y03308D01*
X18342Y03250D01*
X18205Y03193D01*
X18058Y03046D01*
X17978Y02855D01*
X17978Y02647D01*
X18057Y02455D01*
X18204Y02308D01*
X18395Y02228D01*
X18550Y02228D01*
X18550Y02208D01*
G54D10*
G36*
X15700Y02249D02*
X15678Y02271D01*
X15678Y06249D01*
X15678Y06350D01*
X15678Y07474D01*
X15678Y07575D01*
X15640Y07668D01*
X15569Y07739D01*
X15476Y07778D01*
X15375Y07778D01*
X15315Y07754D01*
X15315Y08194D01*
X15315Y08256D01*
X15314Y08482D01*
X15314Y08517D01*
X15301Y08550D01*
X15276Y08575D01*
X15243Y08589D01*
X14981Y08590D01*
X14959Y08568D01*
X14959Y08234D01*
X15293Y08234D01*
X15315Y08256D01*
X15315Y08194D01*
X15293Y08216D01*
X14959Y08216D01*
X14959Y07882D01*
X14981Y07860D01*
X15243Y07861D01*
X15276Y07875D01*
X15301Y07900D01*
X15314Y07933D01*
X15314Y07968D01*
X15315Y08194D01*
X15315Y07754D01*
X15282Y07740D01*
X15211Y07669D01*
X15172Y07576D01*
X15172Y07475D01*
X15210Y07382D01*
X15281Y07311D01*
X15374Y07272D01*
X15475Y07272D01*
X15568Y07310D01*
X15639Y07381D01*
X15678Y07474D01*
X15678Y06350D01*
X15640Y06443D01*
X15569Y06514D01*
X15476Y06553D01*
X15375Y06553D01*
X15282Y06515D01*
X15211Y06444D01*
X15172Y06351D01*
X15172Y06250D01*
X15210Y06157D01*
X15281Y06086D01*
X15374Y06047D01*
X15475Y06047D01*
X15568Y06085D01*
X15639Y06156D01*
X15678Y06249D01*
X15678Y02271D01*
X15655Y02294D01*
X15571Y02329D01*
X15480Y02329D01*
X15396Y02294D01*
X15331Y02230D01*
X15296Y02146D01*
X15296Y02055D01*
X15331Y01971D01*
X15378Y01923D01*
X14980Y01550D01*
X14941Y01550D01*
X14941Y07882D01*
X14941Y08216D01*
X14941Y08234D01*
X14941Y08568D01*
X14919Y08590D01*
X14657Y08589D01*
X14624Y08575D01*
X14599Y08550D01*
X14586Y08517D01*
X14586Y08482D01*
X14585Y08256D01*
X14607Y08234D01*
X14941Y08234D01*
X14941Y08216D01*
X14607Y08216D01*
X14585Y08194D01*
X14586Y07968D01*
X14586Y07933D01*
X14599Y07900D01*
X14624Y07875D01*
X14657Y07861D01*
X14919Y07860D01*
X14941Y07882D01*
X14941Y01550D01*
X14914Y01550D01*
X14914Y05767D01*
X14914Y05858D01*
X14879Y05942D01*
X14815Y06007D01*
X14731Y06042D01*
X14640Y06042D01*
X14603Y06027D01*
X14603Y06974D01*
X14603Y07075D01*
X14565Y07168D01*
X14494Y07239D01*
X14401Y07278D01*
X14353Y07278D01*
X14353Y08145D01*
X14353Y08305D01*
X14292Y08453D01*
X14178Y08567D01*
X14030Y08628D01*
X13870Y08628D01*
X13722Y08567D01*
X13608Y08453D01*
X13547Y08305D01*
X13547Y08145D01*
X13608Y07997D01*
X13722Y07883D01*
X13870Y07822D01*
X14030Y07822D01*
X14178Y07883D01*
X14292Y07997D01*
X14353Y08145D01*
X14353Y07278D01*
X14300Y07278D01*
X14207Y07240D01*
X14136Y07169D01*
X14097Y07076D01*
X14097Y06975D01*
X14135Y06882D01*
X14206Y06811D01*
X14299Y06772D01*
X14400Y06772D01*
X14493Y06810D01*
X14564Y06881D01*
X14603Y06974D01*
X14603Y06027D01*
X14556Y06007D01*
X14491Y05943D01*
X14456Y05859D01*
X14456Y05768D01*
X14491Y05684D01*
X14555Y05619D01*
X14639Y05584D01*
X14730Y05584D01*
X14814Y05619D01*
X14879Y05683D01*
X14914Y05767D01*
X14914Y01550D01*
X14803Y01550D01*
X14803Y03274D01*
X14803Y03375D01*
X14765Y03468D01*
X14729Y03504D01*
X14729Y04854D01*
X14729Y04945D01*
X14694Y05029D01*
X14630Y05094D01*
X14546Y05129D01*
X14505Y05129D01*
X14505Y05373D01*
X14505Y05464D01*
X14470Y05548D01*
X14406Y05613D01*
X14322Y05648D01*
X14231Y05648D01*
X14186Y05630D01*
X14186Y05786D01*
X14186Y05887D01*
X14178Y05907D01*
X14178Y06324D01*
X14178Y06425D01*
X14140Y06518D01*
X14069Y06589D01*
X13976Y06628D01*
X13875Y06628D01*
X13782Y06590D01*
X13711Y06519D01*
X13672Y06426D01*
X13672Y06325D01*
X13710Y06232D01*
X13781Y06161D01*
X13874Y06122D01*
X13975Y06122D01*
X14068Y06160D01*
X14139Y06231D01*
X14178Y06324D01*
X14178Y05907D01*
X14148Y05980D01*
X14077Y06051D01*
X13984Y06090D01*
X13883Y06090D01*
X13790Y06052D01*
X13719Y05981D01*
X13680Y05888D01*
X13680Y05787D01*
X13718Y05694D01*
X13789Y05623D01*
X13882Y05584D01*
X13983Y05584D01*
X14076Y05622D01*
X14147Y05693D01*
X14186Y05786D01*
X14186Y05630D01*
X14147Y05613D01*
X14082Y05549D01*
X14047Y05465D01*
X14047Y05374D01*
X14082Y05290D01*
X14146Y05225D01*
X14230Y05190D01*
X14321Y05190D01*
X14405Y05225D01*
X14470Y05289D01*
X14505Y05373D01*
X14505Y05129D01*
X14455Y05129D01*
X14371Y05094D01*
X14306Y05030D01*
X14271Y04946D01*
X14271Y04855D01*
X14306Y04771D01*
X14370Y04706D01*
X14454Y04671D01*
X14545Y04671D01*
X14629Y04706D01*
X14694Y04770D01*
X14729Y04854D01*
X14729Y03504D01*
X14694Y03539D01*
X14601Y03578D01*
X14500Y03578D01*
X14407Y03540D01*
X14354Y03487D01*
X14354Y03954D01*
X14354Y04045D01*
X14340Y04079D01*
X14340Y04514D01*
X14340Y04615D01*
X14302Y04708D01*
X14231Y04779D01*
X14138Y04818D01*
X14037Y04818D01*
X13944Y04780D01*
X13873Y04709D01*
X13834Y04616D01*
X13834Y04515D01*
X13872Y04422D01*
X13943Y04351D01*
X14036Y04312D01*
X14137Y04312D01*
X14230Y04350D01*
X14301Y04421D01*
X14340Y04514D01*
X14340Y04079D01*
X14319Y04129D01*
X14255Y04194D01*
X14171Y04229D01*
X14080Y04229D01*
X13996Y04194D01*
X13931Y04130D01*
X13896Y04046D01*
X13896Y03955D01*
X13931Y03871D01*
X13995Y03806D01*
X14079Y03771D01*
X14170Y03771D01*
X14254Y03806D01*
X14319Y03870D01*
X14354Y03954D01*
X14354Y03487D01*
X14336Y03469D01*
X14297Y03376D01*
X14297Y03275D01*
X14335Y03182D01*
X14406Y03111D01*
X14499Y03072D01*
X14600Y03072D01*
X14693Y03110D01*
X14764Y03181D01*
X14803Y03274D01*
X14803Y01550D01*
X13777Y01550D01*
X13777Y03274D01*
X13777Y03375D01*
X13739Y03468D01*
X13668Y03539D01*
X13575Y03578D01*
X13529Y03578D01*
X13529Y07979D01*
X13529Y08070D01*
X13494Y08154D01*
X13430Y08219D01*
X13346Y08254D01*
X13255Y08254D01*
X13171Y08219D01*
X13106Y08155D01*
X13104Y08151D01*
X13104Y08304D01*
X13104Y08395D01*
X13069Y08479D01*
X13005Y08544D01*
X12921Y08579D01*
X12830Y08579D01*
X12746Y08544D01*
X12681Y08480D01*
X12646Y08396D01*
X12646Y08305D01*
X12681Y08221D01*
X12745Y08156D01*
X12829Y08121D01*
X12920Y08121D01*
X13004Y08156D01*
X13069Y08220D01*
X13104Y08304D01*
X13104Y08151D01*
X13071Y08071D01*
X13071Y07980D01*
X13106Y07896D01*
X13170Y07831D01*
X13254Y07796D01*
X13345Y07796D01*
X13429Y07831D01*
X13494Y07895D01*
X13529Y07979D01*
X13529Y03578D01*
X13474Y03578D01*
X13381Y03540D01*
X13310Y03469D01*
X13271Y03376D01*
X13271Y03275D01*
X13309Y03182D01*
X13380Y03111D01*
X13473Y03072D01*
X13574Y03072D01*
X13667Y03110D01*
X13738Y03181D01*
X13777Y03274D01*
X13777Y01550D01*
X13129Y01550D01*
X13129Y03504D01*
X13129Y03595D01*
X13094Y03679D01*
X13079Y03695D01*
X13079Y06329D01*
X13079Y06420D01*
X13044Y06504D01*
X13024Y06525D01*
X13024Y07554D01*
X13024Y07645D01*
X12989Y07729D01*
X12925Y07794D01*
X12841Y07829D01*
X12750Y07829D01*
X12666Y07794D01*
X12601Y07730D01*
X12566Y07646D01*
X12566Y07555D01*
X12601Y07471D01*
X12665Y07406D01*
X12749Y07371D01*
X12840Y07371D01*
X12924Y07406D01*
X12989Y07470D01*
X13024Y07554D01*
X13024Y06525D01*
X12980Y06569D01*
X12896Y06604D01*
X12805Y06604D01*
X12721Y06569D01*
X12656Y06505D01*
X12621Y06421D01*
X12621Y06330D01*
X12656Y06246D01*
X12720Y06181D01*
X12804Y06146D01*
X12895Y06146D01*
X12979Y06181D01*
X13044Y06245D01*
X13079Y06329D01*
X13079Y03695D01*
X13054Y03720D01*
X13054Y05579D01*
X13054Y05670D01*
X13019Y05754D01*
X12955Y05819D01*
X12871Y05854D01*
X12780Y05854D01*
X12696Y05819D01*
X12631Y05755D01*
X12596Y05671D01*
X12596Y05580D01*
X12631Y05496D01*
X12695Y05431D01*
X12779Y05396D01*
X12870Y05396D01*
X12954Y05431D01*
X13019Y05495D01*
X13054Y05579D01*
X13054Y03720D01*
X13030Y03744D01*
X12946Y03779D01*
X12929Y03779D01*
X12929Y04879D01*
X12929Y04970D01*
X12894Y05054D01*
X12830Y05119D01*
X12746Y05154D01*
X12655Y05154D01*
X12571Y05119D01*
X12506Y05055D01*
X12471Y04971D01*
X12471Y04880D01*
X12506Y04796D01*
X12570Y04731D01*
X12654Y04696D01*
X12745Y04696D01*
X12829Y04731D01*
X12894Y04795D01*
X12929Y04879D01*
X12929Y03779D01*
X12855Y03779D01*
X12771Y03744D01*
X12706Y03680D01*
X12671Y03596D01*
X12671Y03505D01*
X12706Y03421D01*
X12770Y03356D01*
X12854Y03321D01*
X12945Y03321D01*
X13029Y03356D01*
X13094Y03420D01*
X13129Y03504D01*
X13129Y01550D01*
X13081Y01550D01*
X13069Y01579D01*
X13005Y01644D01*
X12921Y01679D01*
X12830Y01679D01*
X12746Y01644D01*
X12681Y01580D01*
X12668Y01550D01*
X12629Y01550D01*
X12629Y04304D01*
X12629Y04395D01*
X12594Y04479D01*
X12530Y04544D01*
X12454Y04576D01*
X12454Y07979D01*
X12454Y08070D01*
X12419Y08154D01*
X12355Y08219D01*
X12271Y08254D01*
X12180Y08254D01*
X12096Y08219D01*
X12031Y08155D01*
X11996Y08071D01*
X11996Y07980D01*
X12031Y07896D01*
X12095Y07831D01*
X12179Y07796D01*
X12270Y07796D01*
X12354Y07831D01*
X12419Y07895D01*
X12454Y07979D01*
X12454Y04576D01*
X12446Y04579D01*
X12429Y04579D01*
X12429Y05629D01*
X12429Y05720D01*
X12394Y05804D01*
X12379Y05820D01*
X12379Y06754D01*
X12379Y06845D01*
X12344Y06929D01*
X12280Y06994D01*
X12196Y07029D01*
X12105Y07029D01*
X12021Y06994D01*
X11979Y06953D01*
X11979Y07754D01*
X11979Y07845D01*
X11944Y07929D01*
X11880Y07994D01*
X11854Y08005D01*
X11854Y08354D01*
X11854Y08445D01*
X11819Y08529D01*
X11755Y08594D01*
X11671Y08629D01*
X11580Y08629D01*
X11496Y08594D01*
X11431Y08530D01*
X11396Y08446D01*
X11396Y08355D01*
X11431Y08271D01*
X11495Y08206D01*
X11579Y08171D01*
X11670Y08171D01*
X11754Y08206D01*
X11819Y08270D01*
X11854Y08354D01*
X11854Y08005D01*
X11796Y08029D01*
X11705Y08029D01*
X11621Y07994D01*
X11556Y07930D01*
X11521Y07846D01*
X11521Y07755D01*
X11556Y07671D01*
X11620Y07606D01*
X11704Y07571D01*
X11795Y07571D01*
X11879Y07606D01*
X11944Y07670D01*
X11979Y07754D01*
X11979Y06953D01*
X11956Y06930D01*
X11921Y06846D01*
X11921Y06755D01*
X11956Y06671D01*
X12020Y06606D01*
X12104Y06571D01*
X12195Y06571D01*
X12279Y06606D01*
X12344Y06670D01*
X12379Y06754D01*
X12379Y05820D01*
X12354Y05845D01*
X12354Y06154D01*
X12354Y06245D01*
X12319Y06329D01*
X12255Y06394D01*
X12171Y06429D01*
X12080Y06429D01*
X11996Y06394D01*
X11931Y06330D01*
X11896Y06246D01*
X11896Y06155D01*
X11931Y06071D01*
X11995Y06006D01*
X12079Y05971D01*
X12170Y05971D01*
X12254Y06006D01*
X12319Y06070D01*
X12354Y06154D01*
X12354Y05845D01*
X12330Y05869D01*
X12246Y05904D01*
X12155Y05904D01*
X12071Y05869D01*
X12006Y05805D01*
X11971Y05721D01*
X11971Y05630D01*
X12006Y05546D01*
X12070Y05481D01*
X12154Y05446D01*
X12245Y05446D01*
X12329Y05481D01*
X12394Y05545D01*
X12429Y05629D01*
X12429Y04579D01*
X12355Y04579D01*
X12279Y04548D01*
X12279Y04854D01*
X12279Y04945D01*
X12244Y05029D01*
X12180Y05094D01*
X12096Y05129D01*
X12005Y05129D01*
X11921Y05094D01*
X11856Y05030D01*
X11821Y04946D01*
X11821Y04855D01*
X11856Y04771D01*
X11920Y04706D01*
X12004Y04671D01*
X12095Y04671D01*
X12179Y04706D01*
X12244Y04770D01*
X12279Y04854D01*
X12279Y04548D01*
X12271Y04544D01*
X12206Y04480D01*
X12171Y04396D01*
X12171Y04305D01*
X12206Y04221D01*
X12270Y04156D01*
X12354Y04121D01*
X12445Y04121D01*
X12529Y04156D01*
X12594Y04220D01*
X12629Y04304D01*
X12629Y01550D01*
X12604Y01550D01*
X12604Y03279D01*
X12604Y03370D01*
X12569Y03454D01*
X12505Y03519D01*
X12421Y03554D01*
X12379Y03554D01*
X12379Y03729D01*
X12379Y03820D01*
X12344Y03904D01*
X12280Y03969D01*
X12196Y04004D01*
X12105Y04004D01*
X12021Y03969D01*
X11956Y03905D01*
X11921Y03821D01*
X11921Y03730D01*
X11956Y03646D01*
X12020Y03581D01*
X12104Y03546D01*
X12195Y03546D01*
X12279Y03581D01*
X12344Y03645D01*
X12379Y03729D01*
X12379Y03554D01*
X12330Y03554D01*
X12246Y03519D01*
X12181Y03455D01*
X12146Y03371D01*
X12146Y03280D01*
X12181Y03196D01*
X12245Y03131D01*
X12329Y03096D01*
X12420Y03096D01*
X12504Y03131D01*
X12569Y03195D01*
X12604Y03279D01*
X12604Y01550D01*
X12140Y01550D01*
X12071Y01579D01*
X11980Y01579D01*
X11979Y01579D01*
X11979Y01954D01*
X11979Y02045D01*
X11944Y02129D01*
X11880Y02194D01*
X11804Y02226D01*
X11804Y03154D01*
X11804Y03245D01*
X11779Y03305D01*
X11779Y04154D01*
X11779Y04245D01*
X11754Y04305D01*
X11754Y05279D01*
X11754Y05370D01*
X11754Y06904D01*
X11754Y06995D01*
X11719Y07079D01*
X11655Y07144D01*
X11571Y07179D01*
X11480Y07179D01*
X11396Y07144D01*
X11331Y07080D01*
X11329Y07076D01*
X11329Y08454D01*
X11329Y08545D01*
X11294Y08629D01*
X11230Y08694D01*
X11146Y08729D01*
X11055Y08729D01*
X10971Y08694D01*
X10906Y08630D01*
X10871Y08546D01*
X10871Y08455D01*
X10906Y08371D01*
X10970Y08306D01*
X11054Y08271D01*
X11145Y08271D01*
X11229Y08306D01*
X11294Y08370D01*
X11329Y08454D01*
X11329Y07076D01*
X11296Y06996D01*
X11296Y06905D01*
X11331Y06821D01*
X11395Y06756D01*
X11479Y06721D01*
X11570Y06721D01*
X11654Y06756D01*
X11719Y06820D01*
X11754Y06904D01*
X11754Y05370D01*
X11719Y05454D01*
X11655Y05519D01*
X11571Y05554D01*
X11554Y05554D01*
X11554Y06104D01*
X11554Y06195D01*
X11519Y06279D01*
X11455Y06344D01*
X11371Y06379D01*
X11280Y06379D01*
X11196Y06344D01*
X11179Y06328D01*
X11179Y07704D01*
X11179Y07795D01*
X11144Y07879D01*
X11080Y07944D01*
X10996Y07979D01*
X10905Y07979D01*
X10829Y07948D01*
X10829Y08254D01*
X10829Y08345D01*
X10794Y08429D01*
X10730Y08494D01*
X10646Y08529D01*
X10555Y08529D01*
X10471Y08494D01*
X10406Y08430D01*
X10371Y08346D01*
X10371Y08255D01*
X10406Y08171D01*
X10470Y08106D01*
X10554Y08071D01*
X10645Y08071D01*
X10729Y08106D01*
X10794Y08170D01*
X10829Y08254D01*
X10829Y07948D01*
X10821Y07944D01*
X10756Y07880D01*
X10721Y07796D01*
X10721Y07705D01*
X10756Y07621D01*
X10820Y07556D01*
X10904Y07521D01*
X10995Y07521D01*
X11079Y07556D01*
X11144Y07620D01*
X11179Y07704D01*
X11179Y06328D01*
X11131Y06280D01*
X11096Y06196D01*
X11096Y06105D01*
X11131Y06021D01*
X11195Y05956D01*
X11279Y05921D01*
X11370Y05921D01*
X11454Y05956D01*
X11519Y06020D01*
X11554Y06104D01*
X11554Y05554D01*
X11480Y05554D01*
X11396Y05519D01*
X11331Y05455D01*
X11296Y05371D01*
X11296Y05280D01*
X11331Y05196D01*
X11395Y05131D01*
X11479Y05096D01*
X11570Y05096D01*
X11654Y05131D01*
X11719Y05195D01*
X11754Y05279D01*
X11754Y04305D01*
X11744Y04329D01*
X11680Y04394D01*
X11596Y04429D01*
X11579Y04429D01*
X11579Y04704D01*
X11579Y04795D01*
X11544Y04879D01*
X11480Y04944D01*
X11396Y04979D01*
X11305Y04979D01*
X11221Y04944D01*
X11156Y04880D01*
X11121Y04796D01*
X11121Y04705D01*
X11156Y04621D01*
X11220Y04556D01*
X11304Y04521D01*
X11395Y04521D01*
X11479Y04556D01*
X11544Y04620D01*
X11579Y04704D01*
X11579Y04429D01*
X11505Y04429D01*
X11421Y04394D01*
X11356Y04330D01*
X11321Y04246D01*
X11321Y04155D01*
X11356Y04071D01*
X11420Y04006D01*
X11504Y03971D01*
X11595Y03971D01*
X11679Y04006D01*
X11744Y04070D01*
X11779Y04154D01*
X11779Y03305D01*
X11769Y03329D01*
X11705Y03394D01*
X11621Y03429D01*
X11530Y03429D01*
X11479Y03408D01*
X11479Y03679D01*
X11479Y03770D01*
X11444Y03854D01*
X11380Y03919D01*
X11296Y03954D01*
X11205Y03954D01*
X11121Y03919D01*
X11056Y03855D01*
X11021Y03771D01*
X11021Y03680D01*
X11056Y03596D01*
X11120Y03531D01*
X11204Y03496D01*
X11295Y03496D01*
X11379Y03531D01*
X11444Y03595D01*
X11479Y03679D01*
X11479Y03408D01*
X11446Y03394D01*
X11381Y03330D01*
X11346Y03246D01*
X11346Y03190D01*
X11319Y03254D01*
X11255Y03319D01*
X11171Y03354D01*
X11080Y03354D01*
X10996Y03319D01*
X10979Y03303D01*
X10979Y03454D01*
X10979Y03545D01*
X10944Y03629D01*
X10880Y03694D01*
X10804Y03726D01*
X10804Y05154D01*
X10804Y05245D01*
X10804Y06329D01*
X10804Y06420D01*
X10769Y06504D01*
X10705Y06569D01*
X10621Y06604D01*
X10604Y06604D01*
X10604Y06929D01*
X10604Y07020D01*
X10569Y07104D01*
X10505Y07169D01*
X10478Y07181D01*
X10478Y07799D01*
X10478Y07900D01*
X10440Y07993D01*
X10369Y08064D01*
X10276Y08103D01*
X10179Y08103D01*
X10179Y08529D01*
X10179Y08620D01*
X10144Y08704D01*
X10080Y08769D01*
X09996Y08804D01*
X09905Y08804D01*
X09821Y08769D01*
X09756Y08705D01*
X09721Y08621D01*
X09721Y08530D01*
X09756Y08446D01*
X09820Y08381D01*
X09904Y08346D01*
X09995Y08346D01*
X10079Y08381D01*
X10144Y08445D01*
X10179Y08529D01*
X10179Y08103D01*
X10175Y08103D01*
X10082Y08065D01*
X10011Y07994D01*
X09972Y07901D01*
X09972Y07800D01*
X10010Y07707D01*
X10081Y07636D01*
X10174Y07597D01*
X10275Y07597D01*
X10368Y07635D01*
X10439Y07706D01*
X10478Y07799D01*
X10478Y07181D01*
X10421Y07204D01*
X10330Y07204D01*
X10246Y07169D01*
X10181Y07105D01*
X10146Y07021D01*
X10146Y06930D01*
X10181Y06846D01*
X10245Y06781D01*
X10329Y06746D01*
X10420Y06746D01*
X10504Y06781D01*
X10569Y06845D01*
X10604Y06929D01*
X10604Y06604D01*
X10530Y06604D01*
X10446Y06569D01*
X10381Y06505D01*
X10346Y06421D01*
X10346Y06330D01*
X10381Y06246D01*
X10445Y06181D01*
X10529Y06146D01*
X10620Y06146D01*
X10704Y06181D01*
X10769Y06245D01*
X10804Y06329D01*
X10804Y05245D01*
X10769Y05329D01*
X10705Y05394D01*
X10679Y05405D01*
X10679Y05854D01*
X10679Y05945D01*
X10644Y06029D01*
X10580Y06094D01*
X10496Y06129D01*
X10405Y06129D01*
X10321Y06094D01*
X10256Y06030D01*
X10221Y05946D01*
X10221Y05855D01*
X10256Y05771D01*
X10320Y05706D01*
X10404Y05671D01*
X10495Y05671D01*
X10579Y05706D01*
X10644Y05770D01*
X10679Y05854D01*
X10679Y05405D01*
X10621Y05429D01*
X10530Y05429D01*
X10446Y05394D01*
X10381Y05330D01*
X10346Y05246D01*
X10346Y05155D01*
X10381Y05071D01*
X10445Y05006D01*
X10529Y04971D01*
X10620Y04971D01*
X10704Y05006D01*
X10769Y05070D01*
X10804Y05154D01*
X10804Y03726D01*
X10796Y03729D01*
X10754Y03729D01*
X10754Y04629D01*
X10754Y04720D01*
X10719Y04804D01*
X10655Y04869D01*
X10571Y04904D01*
X10480Y04904D01*
X10396Y04869D01*
X10331Y04805D01*
X10296Y04721D01*
X10296Y04630D01*
X10331Y04546D01*
X10395Y04481D01*
X10479Y04446D01*
X10570Y04446D01*
X10654Y04481D01*
X10719Y04545D01*
X10754Y04629D01*
X10754Y03729D01*
X10728Y03729D01*
X10728Y03999D01*
X10728Y04100D01*
X10690Y04193D01*
X10619Y04264D01*
X10526Y04303D01*
X10425Y04303D01*
X10332Y04265D01*
X10261Y04194D01*
X10222Y04101D01*
X10222Y04000D01*
X10260Y03907D01*
X10331Y03836D01*
X10424Y03797D01*
X10525Y03797D01*
X10618Y03835D01*
X10689Y03906D01*
X10728Y03999D01*
X10728Y03729D01*
X10705Y03729D01*
X10621Y03694D01*
X10556Y03630D01*
X10521Y03546D01*
X10521Y03455D01*
X10556Y03371D01*
X10620Y03306D01*
X10704Y03271D01*
X10795Y03271D01*
X10879Y03306D01*
X10944Y03370D01*
X10979Y03454D01*
X10979Y03303D01*
X10931Y03255D01*
X10896Y03171D01*
X10896Y03080D01*
X10931Y02996D01*
X10995Y02931D01*
X11079Y02896D01*
X11170Y02896D01*
X11254Y02931D01*
X11319Y02995D01*
X11354Y03079D01*
X11354Y03136D01*
X11381Y03071D01*
X11445Y03006D01*
X11529Y02971D01*
X11620Y02971D01*
X11704Y03006D01*
X11769Y03070D01*
X11804Y03154D01*
X11804Y02226D01*
X11796Y02229D01*
X11705Y02229D01*
X11621Y02194D01*
X11556Y02130D01*
X11521Y02046D01*
X11521Y01955D01*
X11556Y01871D01*
X11620Y01806D01*
X11704Y01771D01*
X11795Y01771D01*
X11879Y01806D01*
X11944Y01870D01*
X11979Y01954D01*
X11979Y01579D01*
X11910Y01550D01*
X11779Y01550D01*
X11779Y01570D01*
X11744Y01654D01*
X11680Y01719D01*
X11596Y01754D01*
X11505Y01754D01*
X11421Y01719D01*
X11356Y01655D01*
X11354Y01651D01*
X11354Y02129D01*
X11354Y02220D01*
X11319Y02304D01*
X11255Y02369D01*
X11171Y02404D01*
X11080Y02404D01*
X10996Y02369D01*
X10931Y02305D01*
X10896Y02221D01*
X10896Y02130D01*
X10931Y02046D01*
X10995Y01981D01*
X11079Y01946D01*
X11170Y01946D01*
X11254Y01981D01*
X11319Y02045D01*
X11354Y02129D01*
X11354Y01651D01*
X11321Y01571D01*
X11321Y01550D01*
X10989Y01550D01*
X11004Y01556D01*
X11069Y01620D01*
X11104Y01704D01*
X11104Y01795D01*
X11069Y01879D01*
X11005Y01944D01*
X10921Y01979D01*
X10830Y01979D01*
X10746Y01944D01*
X10681Y01880D01*
X10646Y01796D01*
X10646Y01705D01*
X10681Y01621D01*
X10745Y01556D01*
X10759Y01550D01*
X10554Y01550D01*
X10554Y03079D01*
X10554Y03170D01*
X10519Y03254D01*
X10455Y03319D01*
X10371Y03354D01*
X10280Y03354D01*
X10196Y03319D01*
X10131Y03255D01*
X10104Y03191D01*
X10104Y05604D01*
X10104Y05695D01*
X10069Y05779D01*
X10005Y05844D01*
X09921Y05879D01*
X09830Y05879D01*
X09829Y05879D01*
X09829Y08179D01*
X09829Y08270D01*
X09794Y08354D01*
X09730Y08419D01*
X09646Y08454D01*
X09555Y08454D01*
X09471Y08419D01*
X09406Y08355D01*
X09371Y08271D01*
X09371Y08180D01*
X09406Y08096D01*
X09470Y08031D01*
X09554Y07996D01*
X09645Y07996D01*
X09729Y08031D01*
X09794Y08095D01*
X09829Y08179D01*
X09829Y05879D01*
X09746Y05844D01*
X09681Y05780D01*
X09646Y05696D01*
X09646Y05605D01*
X09681Y05521D01*
X09745Y05456D01*
X09829Y05421D01*
X09920Y05421D01*
X10004Y05456D01*
X10069Y05520D01*
X10104Y05604D01*
X10104Y03191D01*
X10096Y03171D01*
X10096Y03080D01*
X10131Y02996D01*
X10195Y02931D01*
X10279Y02896D01*
X10370Y02896D01*
X10454Y02931D01*
X10519Y02995D01*
X10554Y03079D01*
X10554Y01550D01*
X10079Y01550D01*
X10079Y03604D01*
X10079Y03695D01*
X10054Y03755D01*
X10054Y04354D01*
X10054Y04445D01*
X10019Y04529D01*
X09955Y04594D01*
X09871Y04629D01*
X09780Y04629D01*
X09696Y04594D01*
X09631Y04530D01*
X09604Y04466D01*
X09604Y04604D01*
X09604Y04695D01*
X09569Y04779D01*
X09505Y04844D01*
X09429Y04876D01*
X09429Y05729D01*
X09429Y05820D01*
X09394Y05904D01*
X09330Y05969D01*
X09246Y06004D01*
X09204Y06004D01*
X09204Y08229D01*
X09204Y08320D01*
X09169Y08404D01*
X09105Y08469D01*
X09021Y08504D01*
X08930Y08504D01*
X08846Y08469D01*
X08781Y08405D01*
X08746Y08321D01*
X08746Y08230D01*
X08781Y08146D01*
X08845Y08081D01*
X08929Y08046D01*
X09020Y08046D01*
X09104Y08081D01*
X09169Y08145D01*
X09204Y08229D01*
X09204Y06004D01*
X09155Y06004D01*
X09071Y05969D01*
X09006Y05905D01*
X08971Y05821D01*
X08971Y05730D01*
X09006Y05646D01*
X09070Y05581D01*
X09154Y05546D01*
X09245Y05546D01*
X09329Y05581D01*
X09394Y05645D01*
X09429Y05729D01*
X09429Y04876D01*
X09421Y04879D01*
X09330Y04879D01*
X09246Y04844D01*
X09181Y04780D01*
X09146Y04696D01*
X09146Y04605D01*
X09181Y04521D01*
X09245Y04456D01*
X09329Y04421D01*
X09420Y04421D01*
X09504Y04456D01*
X09569Y04520D01*
X09604Y04604D01*
X09604Y04466D01*
X09596Y04446D01*
X09596Y04355D01*
X09631Y04271D01*
X09695Y04206D01*
X09779Y04171D01*
X09870Y04171D01*
X09954Y04206D01*
X10019Y04270D01*
X10054Y04354D01*
X10054Y03755D01*
X10044Y03779D01*
X09980Y03844D01*
X09896Y03879D01*
X09805Y03879D01*
X09721Y03844D01*
X09656Y03780D01*
X09621Y03696D01*
X09621Y03605D01*
X09656Y03521D01*
X09720Y03456D01*
X09804Y03421D01*
X09895Y03421D01*
X09979Y03456D01*
X10044Y03520D01*
X10079Y03604D01*
X10079Y01550D01*
X09729Y01550D01*
X09729Y03179D01*
X09729Y03270D01*
X09694Y03354D01*
X09630Y03419D01*
X09546Y03454D01*
X09528Y03454D01*
X09528Y04099D01*
X09528Y04200D01*
X09490Y04293D01*
X09419Y04364D01*
X09326Y04403D01*
X09225Y04403D01*
X09132Y04365D01*
X09061Y04294D01*
X09022Y04201D01*
X09022Y04100D01*
X09060Y04007D01*
X09131Y03936D01*
X09224Y03897D01*
X09325Y03897D01*
X09418Y03935D01*
X09489Y04006D01*
X09528Y04099D01*
X09528Y03454D01*
X09455Y03454D01*
X09371Y03419D01*
X09306Y03355D01*
X09271Y03271D01*
X09271Y03180D01*
X09306Y03096D01*
X09370Y03031D01*
X09454Y02996D01*
X09545Y02996D01*
X09629Y03031D01*
X09694Y03095D01*
X09729Y03179D01*
X09729Y01550D01*
X09553Y01550D01*
X09553Y01849D01*
X09553Y01950D01*
X09515Y02043D01*
X09444Y02114D01*
X09351Y02153D01*
X09250Y02153D01*
X09157Y02115D01*
X09086Y02044D01*
X09047Y01951D01*
X09047Y01850D01*
X09085Y01757D01*
X09156Y01686D01*
X09249Y01647D01*
X09350Y01647D01*
X09443Y01685D01*
X09514Y01756D01*
X09553Y01849D01*
X09553Y01550D01*
X08829Y01550D01*
X08829Y07329D01*
X08829Y07420D01*
X08794Y07504D01*
X08730Y07569D01*
X08679Y07591D01*
X08679Y08129D01*
X08679Y08220D01*
X08644Y08304D01*
X08580Y08369D01*
X08496Y08404D01*
X08405Y08404D01*
X08321Y08369D01*
X08256Y08305D01*
X08221Y08221D01*
X08221Y08130D01*
X08256Y08046D01*
X08320Y07981D01*
X08404Y07946D01*
X08495Y07946D01*
X08579Y07981D01*
X08644Y08045D01*
X08679Y08129D01*
X08679Y07591D01*
X08646Y07604D01*
X08555Y07604D01*
X08471Y07569D01*
X08406Y07505D01*
X08371Y07421D01*
X08371Y07330D01*
X08406Y07246D01*
X08470Y07181D01*
X08554Y07146D01*
X08645Y07146D01*
X08729Y07181D01*
X08794Y07245D01*
X08829Y07329D01*
X08829Y01550D01*
X08615Y01550D01*
X08615Y04301D01*
X08615Y04402D01*
X08577Y04495D01*
X08529Y04543D01*
X08529Y04904D01*
X08529Y04995D01*
X08494Y05079D01*
X08430Y05144D01*
X08346Y05179D01*
X08319Y05179D01*
X08371Y05200D01*
X08442Y05271D01*
X08481Y05364D01*
X08481Y05465D01*
X08443Y05558D01*
X08372Y05629D01*
X08279Y05668D01*
X08203Y05668D01*
X08203Y07799D01*
X08203Y07900D01*
X08165Y07993D01*
X08094Y08064D01*
X08001Y08103D01*
X07900Y08103D01*
X07807Y08065D01*
X07736Y07994D01*
X07697Y07901D01*
X07697Y07800D01*
X07735Y07707D01*
X07806Y07636D01*
X07893Y07600D01*
X07821Y07569D01*
X07756Y07505D01*
X07721Y07421D01*
X07721Y07330D01*
X07756Y07246D01*
X07820Y07181D01*
X07904Y07146D01*
X07995Y07146D01*
X08079Y07181D01*
X08144Y07245D01*
X08179Y07329D01*
X08179Y07420D01*
X08144Y07504D01*
X08080Y07569D01*
X08006Y07600D01*
X08093Y07635D01*
X08164Y07706D01*
X08203Y07799D01*
X08203Y05668D01*
X08179Y05668D01*
X08179Y06404D01*
X08179Y06495D01*
X08144Y06579D01*
X08080Y06644D01*
X07996Y06679D01*
X07905Y06679D01*
X07853Y06658D01*
X07853Y06924D01*
X07853Y07025D01*
X07815Y07118D01*
X07744Y07189D01*
X07651Y07228D01*
X07550Y07228D01*
X07457Y07190D01*
X07386Y07119D01*
X07347Y07026D01*
X07347Y06925D01*
X07385Y06832D01*
X07456Y06761D01*
X07549Y06722D01*
X07650Y06722D01*
X07743Y06760D01*
X07814Y06831D01*
X07853Y06924D01*
X07853Y06658D01*
X07821Y06644D01*
X07756Y06580D01*
X07721Y06496D01*
X07721Y06405D01*
X07756Y06321D01*
X07820Y06256D01*
X07904Y06221D01*
X07995Y06221D01*
X08079Y06256D01*
X08144Y06320D01*
X08179Y06404D01*
X08179Y05668D01*
X08178Y05668D01*
X08085Y05630D01*
X08014Y05559D01*
X07975Y05466D01*
X07975Y05365D01*
X08013Y05272D01*
X08084Y05201D01*
X08177Y05162D01*
X08214Y05162D01*
X08171Y05144D01*
X08106Y05080D01*
X08071Y04996D01*
X08071Y04905D01*
X08106Y04821D01*
X08170Y04756D01*
X08254Y04721D01*
X08345Y04721D01*
X08429Y04756D01*
X08494Y04820D01*
X08529Y04904D01*
X08529Y04543D01*
X08506Y04566D01*
X08413Y04605D01*
X08312Y04605D01*
X08219Y04567D01*
X08148Y04496D01*
X08109Y04403D01*
X08109Y04302D01*
X08147Y04209D01*
X08218Y04138D01*
X08311Y04099D01*
X08412Y04099D01*
X08505Y04137D01*
X08576Y04208D01*
X08615Y04301D01*
X08615Y01550D01*
X08179Y01550D01*
X08179Y02854D01*
X08179Y02945D01*
X08144Y03029D01*
X08129Y03045D01*
X08129Y03854D01*
X08129Y03945D01*
X08094Y04029D01*
X08030Y04094D01*
X08004Y04105D01*
X08004Y04454D01*
X08004Y04545D01*
X08004Y04979D01*
X08004Y05070D01*
X07969Y05154D01*
X07905Y05219D01*
X07821Y05254D01*
X07730Y05254D01*
X07679Y05233D01*
X07679Y05379D01*
X07679Y05470D01*
X07644Y05554D01*
X07580Y05619D01*
X07496Y05654D01*
X07405Y05654D01*
X07321Y05619D01*
X07256Y05555D01*
X07228Y05488D01*
X07228Y07799D01*
X07228Y07900D01*
X07190Y07993D01*
X07119Y08064D01*
X07026Y08103D01*
X06925Y08103D01*
X06832Y08065D01*
X06761Y07994D01*
X06722Y07901D01*
X06722Y07800D01*
X06760Y07707D01*
X06831Y07636D01*
X06924Y07597D01*
X07025Y07597D01*
X07118Y07635D01*
X07189Y07706D01*
X07228Y07799D01*
X07228Y05488D01*
X07221Y05471D01*
X07221Y05380D01*
X07256Y05296D01*
X07320Y05231D01*
X07404Y05196D01*
X07495Y05196D01*
X07579Y05231D01*
X07644Y05295D01*
X07679Y05379D01*
X07679Y05233D01*
X07646Y05219D01*
X07581Y05155D01*
X07546Y05071D01*
X07546Y04980D01*
X07581Y04896D01*
X07645Y04831D01*
X07729Y04796D01*
X07820Y04796D01*
X07904Y04831D01*
X07969Y04895D01*
X08004Y04979D01*
X08004Y04545D01*
X07969Y04629D01*
X07905Y04694D01*
X07821Y04729D01*
X07730Y04729D01*
X07646Y04694D01*
X07581Y04630D01*
X07546Y04546D01*
X07546Y04455D01*
X07581Y04371D01*
X07645Y04306D01*
X07729Y04271D01*
X07820Y04271D01*
X07904Y04306D01*
X07969Y04370D01*
X08004Y04454D01*
X08004Y04105D01*
X07946Y04129D01*
X07855Y04129D01*
X07771Y04094D01*
X07706Y04030D01*
X07671Y03946D01*
X07671Y03855D01*
X07706Y03771D01*
X07770Y03706D01*
X07854Y03671D01*
X07945Y03671D01*
X08029Y03706D01*
X08094Y03770D01*
X08129Y03854D01*
X08129Y03045D01*
X08080Y03094D01*
X07996Y03129D01*
X07905Y03129D01*
X07821Y03094D01*
X07756Y03030D01*
X07721Y02946D01*
X07721Y02855D01*
X07756Y02771D01*
X07820Y02706D01*
X07904Y02671D01*
X07995Y02671D01*
X08079Y02706D01*
X08144Y02770D01*
X08179Y02854D01*
X08179Y01550D01*
X07004Y01550D01*
X07004Y02229D01*
X07004Y02320D01*
X06969Y02404D01*
X06905Y02469D01*
X06821Y02504D01*
X06730Y02504D01*
X06653Y02472D01*
X06653Y07749D01*
X06653Y07850D01*
X06615Y07943D01*
X06544Y08014D01*
X06451Y08053D01*
X06350Y08053D01*
X06257Y08015D01*
X06186Y07944D01*
X06147Y07851D01*
X06147Y07750D01*
X06185Y07657D01*
X06256Y07586D01*
X06349Y07547D01*
X06450Y07547D01*
X06543Y07585D01*
X06614Y07656D01*
X06653Y07749D01*
X06653Y02472D01*
X06646Y02469D01*
X06581Y02405D01*
X06546Y02321D01*
X06546Y02230D01*
X06581Y02146D01*
X06645Y02081D01*
X06729Y02046D01*
X06820Y02046D01*
X06904Y02081D01*
X06969Y02145D01*
X07004Y02229D01*
X07004Y01550D01*
X06503Y01550D01*
X06503Y06474D01*
X06503Y06575D01*
X06465Y06668D01*
X06394Y06739D01*
X06301Y06778D01*
X06200Y06778D01*
X06107Y06740D01*
X06036Y06669D01*
X05997Y06576D01*
X05997Y06475D01*
X06035Y06382D01*
X06106Y06311D01*
X06199Y06272D01*
X06300Y06272D01*
X06393Y06310D01*
X06464Y06381D01*
X06503Y06474D01*
X06503Y01550D01*
X06228Y01550D01*
X06228Y02899D01*
X06228Y03000D01*
X06190Y03093D01*
X06119Y03164D01*
X06053Y03192D01*
X06053Y05624D01*
X06053Y05725D01*
X06015Y05818D01*
X05944Y05889D01*
X05851Y05928D01*
X05756Y05928D01*
X05740Y05968D01*
X05669Y06039D01*
X05578Y06078D01*
X05578Y07499D01*
X05578Y07600D01*
X05540Y07693D01*
X05469Y07764D01*
X05376Y07803D01*
X05275Y07803D01*
X05182Y07765D01*
X05111Y07694D01*
X05072Y07601D01*
X05072Y07500D01*
X05110Y07407D01*
X05181Y07336D01*
X05274Y07297D01*
X05375Y07297D01*
X05468Y07335D01*
X05539Y07406D01*
X05578Y07499D01*
X05578Y06078D01*
X05576Y06078D01*
X05475Y06078D01*
X05382Y06040D01*
X05311Y05969D01*
X05272Y05876D01*
X05272Y05775D01*
X05310Y05682D01*
X05381Y05611D01*
X05474Y05572D01*
X05568Y05572D01*
X05585Y05532D01*
X05656Y05461D01*
X05749Y05422D01*
X05850Y05422D01*
X05943Y05460D01*
X06014Y05531D01*
X06053Y05624D01*
X06053Y03192D01*
X06026Y03203D01*
X05925Y03203D01*
X05832Y03165D01*
X05804Y03137D01*
X05804Y03379D01*
X05804Y03470D01*
X05769Y03554D01*
X05705Y03619D01*
X05621Y03654D01*
X05530Y03654D01*
X05446Y03619D01*
X05381Y03555D01*
X05346Y03471D01*
X05346Y03380D01*
X05381Y03296D01*
X05445Y03231D01*
X05529Y03196D01*
X05620Y03196D01*
X05704Y03231D01*
X05769Y03295D01*
X05804Y03379D01*
X05804Y03137D01*
X05761Y03094D01*
X05722Y03001D01*
X05722Y02900D01*
X05760Y02807D01*
X05831Y02736D01*
X05924Y02697D01*
X06025Y02697D01*
X06118Y02735D01*
X06189Y02806D01*
X06228Y02899D01*
X06228Y01550D01*
X04978Y01550D01*
X04978Y05724D01*
X04978Y05825D01*
X04940Y05918D01*
X04869Y05989D01*
X04778Y06028D01*
X04778Y07374D01*
X04778Y07475D01*
X04740Y07568D01*
X04669Y07639D01*
X04576Y07678D01*
X04475Y07678D01*
X04382Y07640D01*
X04311Y07569D01*
X04279Y07493D01*
X04279Y07754D01*
X04279Y07845D01*
X04244Y07929D01*
X04204Y07970D01*
X04204Y08479D01*
X04204Y08570D01*
X04169Y08654D01*
X04105Y08719D01*
X04021Y08754D01*
X03930Y08754D01*
X03846Y08719D01*
X03781Y08655D01*
X03746Y08571D01*
X03746Y08480D01*
X03781Y08396D01*
X03845Y08331D01*
X03929Y08296D01*
X04020Y08296D01*
X04104Y08331D01*
X04169Y08395D01*
X04204Y08479D01*
X04204Y07970D01*
X04180Y07994D01*
X04096Y08029D01*
X04005Y08029D01*
X03921Y07994D01*
X03856Y07930D01*
X03821Y07846D01*
X03821Y07755D01*
X03856Y07671D01*
X03920Y07606D01*
X04004Y07571D01*
X04095Y07571D01*
X04179Y07606D01*
X04244Y07670D01*
X04279Y07754D01*
X04279Y07493D01*
X04272Y07476D01*
X04272Y07375D01*
X04310Y07282D01*
X04381Y07211D01*
X04474Y07172D01*
X04575Y07172D01*
X04668Y07210D01*
X04739Y07281D01*
X04778Y07374D01*
X04778Y06028D01*
X04776Y06028D01*
X04675Y06028D01*
X04582Y05990D01*
X04511Y05919D01*
X04472Y05829D01*
X04471Y05829D01*
X04380Y05829D01*
X04296Y05794D01*
X04231Y05730D01*
X04196Y05646D01*
X04196Y05555D01*
X04231Y05471D01*
X04295Y05406D01*
X04379Y05371D01*
X04470Y05371D01*
X04554Y05406D01*
X04619Y05470D01*
X04645Y05534D01*
X04674Y05522D01*
X04775Y05522D01*
X04868Y05560D01*
X04939Y05631D01*
X04978Y05724D01*
X04978Y01550D01*
X04904Y01550D01*
X04904Y03779D01*
X04904Y03870D01*
X04869Y03954D01*
X04805Y04019D01*
X04721Y04054D01*
X04630Y04054D01*
X04546Y04019D01*
X04481Y03955D01*
X04446Y03871D01*
X04446Y03780D01*
X04481Y03696D01*
X04545Y03631D01*
X04629Y03596D01*
X04720Y03596D01*
X04804Y03631D01*
X04869Y03695D01*
X04904Y03779D01*
X04904Y01550D01*
X04454Y01550D01*
X04454Y02354D01*
X04454Y02445D01*
X04419Y02529D01*
X04355Y02594D01*
X04271Y02629D01*
X04180Y02629D01*
X04103Y02597D01*
X04103Y03374D01*
X04103Y03475D01*
X04065Y03568D01*
X03994Y03639D01*
X03978Y03646D01*
X03978Y06524D01*
X03978Y06625D01*
X03940Y06718D01*
X03928Y06730D01*
X03928Y07374D01*
X03928Y07475D01*
X03890Y07568D01*
X03819Y07639D01*
X03726Y07678D01*
X03625Y07678D01*
X03532Y07640D01*
X03461Y07569D01*
X03422Y07476D01*
X03422Y07375D01*
X03460Y07282D01*
X03531Y07211D01*
X03624Y07172D01*
X03725Y07172D01*
X03818Y07210D01*
X03889Y07281D01*
X03928Y07374D01*
X03928Y06730D01*
X03869Y06789D01*
X03776Y06828D01*
X03675Y06828D01*
X03582Y06790D01*
X03511Y06719D01*
X03472Y06626D01*
X03472Y06525D01*
X03510Y06432D01*
X03581Y06361D01*
X03674Y06322D01*
X03775Y06322D01*
X03868Y06360D01*
X03939Y06431D01*
X03978Y06524D01*
X03978Y03646D01*
X03901Y03678D01*
X03800Y03678D01*
X03707Y03640D01*
X03636Y03569D01*
X03628Y03550D01*
X03628Y04974D01*
X03628Y05075D01*
X03590Y05168D01*
X03519Y05239D01*
X03426Y05278D01*
X03325Y05278D01*
X03232Y05240D01*
X03161Y05169D01*
X03122Y05076D01*
X03122Y04975D01*
X03160Y04882D01*
X03231Y04811D01*
X03324Y04772D01*
X03425Y04772D01*
X03518Y04810D01*
X03589Y04881D01*
X03628Y04974D01*
X03628Y03550D01*
X03597Y03476D01*
X03597Y03375D01*
X03635Y03282D01*
X03706Y03211D01*
X03799Y03172D01*
X03900Y03172D01*
X03993Y03210D01*
X04064Y03281D01*
X04103Y03374D01*
X04103Y02597D01*
X04096Y02594D01*
X04031Y02530D01*
X03996Y02446D01*
X03996Y02355D01*
X04031Y02271D01*
X04095Y02206D01*
X04179Y02171D01*
X04270Y02171D01*
X04354Y02206D01*
X04419Y02270D01*
X04454Y02354D01*
X04454Y01550D01*
X04427Y01550D01*
X04429Y01554D01*
X04429Y01645D01*
X04394Y01729D01*
X04330Y01794D01*
X04246Y01829D01*
X04155Y01829D01*
X04071Y01794D01*
X04006Y01730D01*
X03971Y01646D01*
X03971Y01555D01*
X03973Y01550D01*
X03304Y01550D01*
X03304Y02479D01*
X03304Y02570D01*
X03269Y02654D01*
X03205Y02719D01*
X03121Y02754D01*
X03103Y02754D01*
X03103Y04474D01*
X03103Y04575D01*
X03065Y04668D01*
X02994Y04739D01*
X02928Y04767D01*
X02928Y07999D01*
X02928Y08100D01*
X02890Y08193D01*
X02819Y08264D01*
X02726Y08303D01*
X02625Y08303D01*
X02532Y08265D01*
X02461Y08194D01*
X02422Y08101D01*
X02422Y08000D01*
X02460Y07907D01*
X02531Y07836D01*
X02624Y07797D01*
X02725Y07797D01*
X02818Y07835D01*
X02889Y07906D01*
X02928Y07999D01*
X02928Y04767D01*
X02901Y04778D01*
X02804Y04778D01*
X02804Y07154D01*
X02804Y07245D01*
X02769Y07329D01*
X02705Y07394D01*
X02621Y07429D01*
X02530Y07429D01*
X02446Y07394D01*
X02381Y07330D01*
X02346Y07246D01*
X02346Y07155D01*
X02381Y07071D01*
X02445Y07006D01*
X02529Y06971D01*
X02620Y06971D01*
X02704Y07006D01*
X02769Y07070D01*
X02804Y07154D01*
X02804Y04778D01*
X02800Y04778D01*
X02779Y04770D01*
X02779Y05079D01*
X02779Y05170D01*
X02744Y05254D01*
X02680Y05319D01*
X02596Y05354D01*
X02505Y05354D01*
X02421Y05319D01*
X02356Y05255D01*
X02321Y05171D01*
X02321Y05080D01*
X02356Y04996D01*
X02420Y04931D01*
X02504Y04896D01*
X02595Y04896D01*
X02679Y04931D01*
X02744Y04995D01*
X02779Y05079D01*
X02779Y04770D01*
X02707Y04740D01*
X02636Y04669D01*
X02597Y04576D01*
X02597Y04475D01*
X02635Y04382D01*
X02706Y04311D01*
X02799Y04272D01*
X02900Y04272D01*
X02993Y04310D01*
X03064Y04381D01*
X03103Y04474D01*
X03103Y02754D01*
X03030Y02754D01*
X02946Y02719D01*
X02881Y02655D01*
X02846Y02571D01*
X02846Y02480D01*
X02881Y02396D01*
X02945Y02331D01*
X03029Y02296D01*
X03120Y02296D01*
X03204Y02331D01*
X03269Y02395D01*
X03304Y02479D01*
X03304Y01550D01*
X02728Y01550D01*
X02728Y01575D01*
X02690Y01668D01*
X02619Y01739D01*
X02528Y01778D01*
X02528Y03099D01*
X02528Y03200D01*
X02490Y03293D01*
X02419Y03364D01*
X02326Y03403D01*
X02225Y03403D01*
X02132Y03365D01*
X02061Y03294D01*
X02053Y03275D01*
X02053Y05399D01*
X02053Y05500D01*
X02015Y05593D01*
X01944Y05664D01*
X01928Y05671D01*
X01928Y06474D01*
X01928Y06575D01*
X01890Y06668D01*
X01819Y06739D01*
X01726Y06778D01*
X01625Y06778D01*
X01578Y06759D01*
X01578Y07674D01*
X01578Y07775D01*
X01540Y07868D01*
X01469Y07939D01*
X01376Y07978D01*
X01275Y07978D01*
X01182Y07940D01*
X01111Y07869D01*
X01072Y07776D01*
X01072Y07675D01*
X01110Y07582D01*
X01181Y07511D01*
X01274Y07472D01*
X01375Y07472D01*
X01468Y07510D01*
X01539Y07581D01*
X01578Y07674D01*
X01578Y06759D01*
X01532Y06740D01*
X01478Y06686D01*
X01478Y07049D01*
X01478Y07150D01*
X01440Y07243D01*
X01369Y07314D01*
X01276Y07353D01*
X01175Y07353D01*
X01082Y07315D01*
X01011Y07244D01*
X00972Y07151D01*
X00972Y07050D01*
X01010Y06957D01*
X01081Y06886D01*
X01174Y06847D01*
X01275Y06847D01*
X01368Y06885D01*
X01439Y06956D01*
X01478Y07049D01*
X01478Y06686D01*
X01461Y06669D01*
X01422Y06576D01*
X01422Y06475D01*
X01460Y06382D01*
X01531Y06311D01*
X01624Y06272D01*
X01725Y06272D01*
X01818Y06310D01*
X01889Y06381D01*
X01928Y06474D01*
X01928Y05671D01*
X01851Y05703D01*
X01750Y05703D01*
X01657Y05665D01*
X01586Y05594D01*
X01547Y05501D01*
X01547Y05400D01*
X01585Y05307D01*
X01656Y05236D01*
X01749Y05197D01*
X01850Y05197D01*
X01943Y05235D01*
X02014Y05306D01*
X02053Y05399D01*
X02053Y03275D01*
X02022Y03201D01*
X02022Y03100D01*
X02060Y03007D01*
X02131Y02936D01*
X02224Y02897D01*
X02325Y02897D01*
X02418Y02935D01*
X02489Y03006D01*
X02528Y03099D01*
X02528Y01778D01*
X02526Y01778D01*
X02483Y01778D01*
X02503Y01824D01*
X02503Y01925D01*
X02465Y02018D01*
X02394Y02089D01*
X02301Y02128D01*
X02200Y02128D01*
X02107Y02090D01*
X02036Y02019D01*
X01997Y01926D01*
X01997Y01825D01*
X02035Y01732D01*
X02106Y01661D01*
X02199Y01622D01*
X02241Y01622D01*
X02222Y01576D01*
X02222Y01550D01*
X01428Y01550D01*
X01428Y05474D01*
X01428Y05575D01*
X01390Y05668D01*
X01319Y05739D01*
X01226Y05778D01*
X01125Y05778D01*
X01032Y05740D01*
X00961Y05669D01*
X00922Y05576D01*
X00922Y05475D01*
X00960Y05382D01*
X01031Y05311D01*
X01124Y05272D01*
X01225Y05272D01*
X01318Y05310D01*
X01389Y05381D01*
X01428Y05474D01*
X01428Y01550D01*
X00821Y01550D01*
X00150Y02221D01*
X00150Y02533D01*
X00196Y02420D01*
X00297Y02320D01*
X00429Y02265D01*
X00571Y02265D01*
X00703Y02319D01*
X00803Y02420D01*
X00858Y02552D01*
X00858Y02694D01*
X00858Y02948D01*
X00804Y03080D01*
X00703Y03180D01*
X00571Y03235D01*
X00429Y03235D01*
X00297Y03181D01*
X00197Y03080D01*
X00150Y02968D01*
X00150Y03427D01*
X00280Y03372D01*
X00430Y03372D01*
X00720Y03372D01*
X00859Y03429D01*
X00965Y03536D01*
X01023Y03675D01*
X01023Y03822D01*
X01100Y03822D01*
X01193Y03860D01*
X01264Y03931D01*
X01303Y04024D01*
X01303Y04125D01*
X01265Y04218D01*
X01194Y04289D01*
X01101Y04328D01*
X01000Y04328D01*
X00907Y04290D01*
X00836Y04219D01*
X00797Y04126D01*
X00797Y04096D01*
X00720Y04128D01*
X00570Y04128D01*
X00280Y04128D01*
X00150Y04075D01*
X00150Y04362D01*
X00204Y04308D01*
X00395Y04228D01*
X00603Y04228D01*
X00795Y04307D01*
X00942Y04454D01*
X01022Y04645D01*
X01022Y04853D01*
X00943Y05045D01*
X00796Y05192D01*
X00605Y05272D01*
X00397Y05272D01*
X00205Y05193D01*
X00150Y05138D01*
X00150Y08453D01*
X00819Y09050D01*
X01942Y09050D01*
X01911Y09019D01*
X01872Y08926D01*
X01872Y08825D01*
X01910Y08732D01*
X01981Y08661D01*
X02074Y08622D01*
X02088Y08622D01*
X02021Y08594D01*
X01956Y08530D01*
X01921Y08446D01*
X01921Y08355D01*
X01956Y08271D01*
X01991Y08236D01*
X01946Y08254D01*
X01855Y08254D01*
X01771Y08219D01*
X01706Y08155D01*
X01671Y08071D01*
X01671Y07980D01*
X01706Y07896D01*
X01770Y07831D01*
X01854Y07796D01*
X01945Y07796D01*
X02029Y07831D01*
X02094Y07895D01*
X02129Y07979D01*
X02129Y08070D01*
X02094Y08154D01*
X02058Y08190D01*
X02104Y08171D01*
X02195Y08171D01*
X02279Y08206D01*
X02344Y08270D01*
X02379Y08354D01*
X02379Y08445D01*
X02344Y08529D01*
X02280Y08594D01*
X02196Y08629D01*
X02192Y08629D01*
X02268Y08660D01*
X02339Y08731D01*
X02378Y08824D01*
X02378Y08925D01*
X02340Y09018D01*
X02308Y09050D01*
X07460Y09050D01*
X07446Y09044D01*
X07381Y08980D01*
X07346Y08896D01*
X07346Y08805D01*
X07381Y08721D01*
X07445Y08656D01*
X07529Y08621D01*
X07620Y08621D01*
X07704Y08656D01*
X07769Y08720D01*
X07804Y08804D01*
X07804Y08895D01*
X07769Y08979D01*
X07705Y09044D01*
X07690Y09050D01*
X07876Y09050D01*
X07856Y09030D01*
X07821Y08946D01*
X07821Y08855D01*
X07856Y08771D01*
X07920Y08706D01*
X08004Y08671D01*
X08095Y08671D01*
X08179Y08706D01*
X08244Y08770D01*
X08279Y08854D01*
X08279Y08945D01*
X08244Y09029D01*
X08223Y09050D01*
X08579Y09050D01*
X08581Y09046D01*
X08645Y08981D01*
X08729Y08946D01*
X08820Y08946D01*
X08904Y08981D01*
X08969Y09045D01*
X08971Y09050D01*
X09679Y09050D01*
X09681Y09046D01*
X09745Y08981D01*
X09829Y08946D01*
X09920Y08946D01*
X10004Y08981D01*
X10069Y09045D01*
X10071Y09050D01*
X10547Y09050D01*
X10546Y09046D01*
X10546Y08955D01*
X10581Y08871D01*
X10645Y08806D01*
X10729Y08771D01*
X10820Y08771D01*
X10904Y08806D01*
X10969Y08870D01*
X11004Y08954D01*
X11004Y09045D01*
X11001Y09050D01*
X11096Y09050D01*
X11096Y09005D01*
X11131Y08921D01*
X11195Y08856D01*
X11279Y08821D01*
X11370Y08821D01*
X11454Y08856D01*
X11519Y08920D01*
X11554Y09004D01*
X11554Y09050D01*
X11926Y09050D01*
X11906Y09030D01*
X11871Y08946D01*
X11871Y08855D01*
X11906Y08771D01*
X11970Y08706D01*
X12054Y08671D01*
X12145Y08671D01*
X12229Y08706D01*
X12294Y08770D01*
X12329Y08854D01*
X12329Y08945D01*
X12294Y09029D01*
X12273Y09050D01*
X14978Y09050D01*
X15430Y08553D01*
X15396Y08471D01*
X15396Y08380D01*
X15431Y08296D01*
X15495Y08231D01*
X15579Y08196D01*
X15670Y08196D01*
X15700Y08209D01*
X15700Y02249D01*
X15700Y02249D01*
G37*
G54D23*
X15700Y02249D02*
X15678Y02271D01*
X15678Y06249D01*
X15678Y06350D01*
X15678Y07474D01*
X15678Y07575D01*
X15640Y07668D01*
X15569Y07739D01*
X15476Y07778D01*
X15375Y07778D01*
X15315Y07754D01*
X15315Y08194D01*
X15315Y08256D01*
X15314Y08482D01*
X15314Y08517D01*
X15301Y08550D01*
X15276Y08575D01*
X15243Y08589D01*
X14981Y08590D01*
X14959Y08568D01*
X14959Y08234D01*
X15293Y08234D01*
X15315Y08256D01*
X15315Y08194D01*
X15293Y08216D01*
X14959Y08216D01*
X14959Y07882D01*
X14981Y07860D01*
X15243Y07861D01*
X15276Y07875D01*
X15301Y07900D01*
X15314Y07933D01*
X15314Y07968D01*
X15315Y08194D01*
X15315Y07754D01*
X15282Y07740D01*
X15211Y07669D01*
X15172Y07576D01*
X15172Y07475D01*
X15210Y07382D01*
X15281Y07311D01*
X15374Y07272D01*
X15475Y07272D01*
X15568Y07310D01*
X15639Y07381D01*
X15678Y07474D01*
X15678Y06350D01*
X15640Y06443D01*
X15569Y06514D01*
X15476Y06553D01*
X15375Y06553D01*
X15282Y06515D01*
X15211Y06444D01*
X15172Y06351D01*
X15172Y06250D01*
X15210Y06157D01*
X15281Y06086D01*
X15374Y06047D01*
X15475Y06047D01*
X15568Y06085D01*
X15639Y06156D01*
X15678Y06249D01*
X15678Y02271D01*
X15655Y02294D01*
X15571Y02329D01*
X15480Y02329D01*
X15396Y02294D01*
X15331Y02230D01*
X15296Y02146D01*
X15296Y02055D01*
X15331Y01971D01*
X15378Y01923D01*
X14980Y01550D01*
X14941Y01550D01*
X14941Y07882D01*
X14941Y08216D01*
X14941Y08234D01*
X14941Y08568D01*
X14919Y08590D01*
X14657Y08589D01*
X14624Y08575D01*
X14599Y08550D01*
X14586Y08517D01*
X14586Y08482D01*
X14585Y08256D01*
X14607Y08234D01*
X14941Y08234D01*
X14941Y08216D01*
X14607Y08216D01*
X14585Y08194D01*
X14586Y07968D01*
X14586Y07933D01*
X14599Y07900D01*
X14624Y07875D01*
X14657Y07861D01*
X14919Y07860D01*
X14941Y07882D01*
X14941Y01550D01*
X14914Y01550D01*
X14914Y05767D01*
X14914Y05858D01*
X14879Y05942D01*
X14815Y06007D01*
X14731Y06042D01*
X14640Y06042D01*
X14603Y06027D01*
X14603Y06974D01*
X14603Y07075D01*
X14565Y07168D01*
X14494Y07239D01*
X14401Y07278D01*
X14353Y07278D01*
X14353Y08145D01*
X14353Y08305D01*
X14292Y08453D01*
X14178Y08567D01*
X14030Y08628D01*
X13870Y08628D01*
X13722Y08567D01*
X13608Y08453D01*
X13547Y08305D01*
X13547Y08145D01*
X13608Y07997D01*
X13722Y07883D01*
X13870Y07822D01*
X14030Y07822D01*
X14178Y07883D01*
X14292Y07997D01*
X14353Y08145D01*
X14353Y07278D01*
X14300Y07278D01*
X14207Y07240D01*
X14136Y07169D01*
X14097Y07076D01*
X14097Y06975D01*
X14135Y06882D01*
X14206Y06811D01*
X14299Y06772D01*
X14400Y06772D01*
X14493Y06810D01*
X14564Y06881D01*
X14603Y06974D01*
X14603Y06027D01*
X14556Y06007D01*
X14491Y05943D01*
X14456Y05859D01*
X14456Y05768D01*
X14491Y05684D01*
X14555Y05619D01*
X14639Y05584D01*
X14730Y05584D01*
X14814Y05619D01*
X14879Y05683D01*
X14914Y05767D01*
X14914Y01550D01*
X14803Y01550D01*
X14803Y03274D01*
X14803Y03375D01*
X14765Y03468D01*
X14729Y03504D01*
X14729Y04854D01*
X14729Y04945D01*
X14694Y05029D01*
X14630Y05094D01*
X14546Y05129D01*
X14505Y05129D01*
X14505Y05373D01*
X14505Y05464D01*
X14470Y05548D01*
X14406Y05613D01*
X14322Y05648D01*
X14231Y05648D01*
X14186Y05630D01*
X14186Y05786D01*
X14186Y05887D01*
X14178Y05907D01*
X14178Y06324D01*
X14178Y06425D01*
X14140Y06518D01*
X14069Y06589D01*
X13976Y06628D01*
X13875Y06628D01*
X13782Y06590D01*
X13711Y06519D01*
X13672Y06426D01*
X13672Y06325D01*
X13710Y06232D01*
X13781Y06161D01*
X13874Y06122D01*
X13975Y06122D01*
X14068Y06160D01*
X14139Y06231D01*
X14178Y06324D01*
X14178Y05907D01*
X14148Y05980D01*
X14077Y06051D01*
X13984Y06090D01*
X13883Y06090D01*
X13790Y06052D01*
X13719Y05981D01*
X13680Y05888D01*
X13680Y05787D01*
X13718Y05694D01*
X13789Y05623D01*
X13882Y05584D01*
X13983Y05584D01*
X14076Y05622D01*
X14147Y05693D01*
X14186Y05786D01*
X14186Y05630D01*
X14147Y05613D01*
X14082Y05549D01*
X14047Y05465D01*
X14047Y05374D01*
X14082Y05290D01*
X14146Y05225D01*
X14230Y05190D01*
X14321Y05190D01*
X14405Y05225D01*
X14470Y05289D01*
X14505Y05373D01*
X14505Y05129D01*
X14455Y05129D01*
X14371Y05094D01*
X14306Y05030D01*
X14271Y04946D01*
X14271Y04855D01*
X14306Y04771D01*
X14370Y04706D01*
X14454Y04671D01*
X14545Y04671D01*
X14629Y04706D01*
X14694Y04770D01*
X14729Y04854D01*
X14729Y03504D01*
X14694Y03539D01*
X14601Y03578D01*
X14500Y03578D01*
X14407Y03540D01*
X14354Y03487D01*
X14354Y03954D01*
X14354Y04045D01*
X14340Y04079D01*
X14340Y04514D01*
X14340Y04615D01*
X14302Y04708D01*
X14231Y04779D01*
X14138Y04818D01*
X14037Y04818D01*
X13944Y04780D01*
X13873Y04709D01*
X13834Y04616D01*
X13834Y04515D01*
X13872Y04422D01*
X13943Y04351D01*
X14036Y04312D01*
X14137Y04312D01*
X14230Y04350D01*
X14301Y04421D01*
X14340Y04514D01*
X14340Y04079D01*
X14319Y04129D01*
X14255Y04194D01*
X14171Y04229D01*
X14080Y04229D01*
X13996Y04194D01*
X13931Y04130D01*
X13896Y04046D01*
X13896Y03955D01*
X13931Y03871D01*
X13995Y03806D01*
X14079Y03771D01*
X14170Y03771D01*
X14254Y03806D01*
X14319Y03870D01*
X14354Y03954D01*
X14354Y03487D01*
X14336Y03469D01*
X14297Y03376D01*
X14297Y03275D01*
X14335Y03182D01*
X14406Y03111D01*
X14499Y03072D01*
X14600Y03072D01*
X14693Y03110D01*
X14764Y03181D01*
X14803Y03274D01*
X14803Y01550D01*
X13777Y01550D01*
X13777Y03274D01*
X13777Y03375D01*
X13739Y03468D01*
X13668Y03539D01*
X13575Y03578D01*
X13529Y03578D01*
X13529Y07979D01*
X13529Y08070D01*
X13494Y08154D01*
X13430Y08219D01*
X13346Y08254D01*
X13255Y08254D01*
X13171Y08219D01*
X13106Y08155D01*
X13104Y08151D01*
X13104Y08304D01*
X13104Y08395D01*
X13069Y08479D01*
X13005Y08544D01*
X12921Y08579D01*
X12830Y08579D01*
X12746Y08544D01*
X12681Y08480D01*
X12646Y08396D01*
X12646Y08305D01*
X12681Y08221D01*
X12745Y08156D01*
X12829Y08121D01*
X12920Y08121D01*
X13004Y08156D01*
X13069Y08220D01*
X13104Y08304D01*
X13104Y08151D01*
X13071Y08071D01*
X13071Y07980D01*
X13106Y07896D01*
X13170Y07831D01*
X13254Y07796D01*
X13345Y07796D01*
X13429Y07831D01*
X13494Y07895D01*
X13529Y07979D01*
X13529Y03578D01*
X13474Y03578D01*
X13381Y03540D01*
X13310Y03469D01*
X13271Y03376D01*
X13271Y03275D01*
X13309Y03182D01*
X13380Y03111D01*
X13473Y03072D01*
X13574Y03072D01*
X13667Y03110D01*
X13738Y03181D01*
X13777Y03274D01*
X13777Y01550D01*
X13129Y01550D01*
X13129Y03504D01*
X13129Y03595D01*
X13094Y03679D01*
X13079Y03695D01*
X13079Y06329D01*
X13079Y06420D01*
X13044Y06504D01*
X13024Y06525D01*
X13024Y07554D01*
X13024Y07645D01*
X12989Y07729D01*
X12925Y07794D01*
X12841Y07829D01*
X12750Y07829D01*
X12666Y07794D01*
X12601Y07730D01*
X12566Y07646D01*
X12566Y07555D01*
X12601Y07471D01*
X12665Y07406D01*
X12749Y07371D01*
X12840Y07371D01*
X12924Y07406D01*
X12989Y07470D01*
X13024Y07554D01*
X13024Y06525D01*
X12980Y06569D01*
X12896Y06604D01*
X12805Y06604D01*
X12721Y06569D01*
X12656Y06505D01*
X12621Y06421D01*
X12621Y06330D01*
X12656Y06246D01*
X12720Y06181D01*
X12804Y06146D01*
X12895Y06146D01*
X12979Y06181D01*
X13044Y06245D01*
X13079Y06329D01*
X13079Y03695D01*
X13054Y03720D01*
X13054Y05579D01*
X13054Y05670D01*
X13019Y05754D01*
X12955Y05819D01*
X12871Y05854D01*
X12780Y05854D01*
X12696Y05819D01*
X12631Y05755D01*
X12596Y05671D01*
X12596Y05580D01*
X12631Y05496D01*
X12695Y05431D01*
X12779Y05396D01*
X12870Y05396D01*
X12954Y05431D01*
X13019Y05495D01*
X13054Y05579D01*
X13054Y03720D01*
X13030Y03744D01*
X12946Y03779D01*
X12929Y03779D01*
X12929Y04879D01*
X12929Y04970D01*
X12894Y05054D01*
X12830Y05119D01*
X12746Y05154D01*
X12655Y05154D01*
X12571Y05119D01*
X12506Y05055D01*
X12471Y04971D01*
X12471Y04880D01*
X12506Y04796D01*
X12570Y04731D01*
X12654Y04696D01*
X12745Y04696D01*
X12829Y04731D01*
X12894Y04795D01*
X12929Y04879D01*
X12929Y03779D01*
X12855Y03779D01*
X12771Y03744D01*
X12706Y03680D01*
X12671Y03596D01*
X12671Y03505D01*
X12706Y03421D01*
X12770Y03356D01*
X12854Y03321D01*
X12945Y03321D01*
X13029Y03356D01*
X13094Y03420D01*
X13129Y03504D01*
X13129Y01550D01*
X13081Y01550D01*
X13069Y01579D01*
X13005Y01644D01*
X12921Y01679D01*
X12830Y01679D01*
X12746Y01644D01*
X12681Y01580D01*
X12668Y01550D01*
X12629Y01550D01*
X12629Y04304D01*
X12629Y04395D01*
X12594Y04479D01*
X12530Y04544D01*
X12454Y04576D01*
X12454Y07979D01*
X12454Y08070D01*
X12419Y08154D01*
X12355Y08219D01*
X12271Y08254D01*
X12180Y08254D01*
X12096Y08219D01*
X12031Y08155D01*
X11996Y08071D01*
X11996Y07980D01*
X12031Y07896D01*
X12095Y07831D01*
X12179Y07796D01*
X12270Y07796D01*
X12354Y07831D01*
X12419Y07895D01*
X12454Y07979D01*
X12454Y04576D01*
X12446Y04579D01*
X12429Y04579D01*
X12429Y05629D01*
X12429Y05720D01*
X12394Y05804D01*
X12379Y05820D01*
X12379Y06754D01*
X12379Y06845D01*
X12344Y06929D01*
X12280Y06994D01*
X12196Y07029D01*
X12105Y07029D01*
X12021Y06994D01*
X11979Y06953D01*
X11979Y07754D01*
X11979Y07845D01*
X11944Y07929D01*
X11880Y07994D01*
X11854Y08005D01*
X11854Y08354D01*
X11854Y08445D01*
X11819Y08529D01*
X11755Y08594D01*
X11671Y08629D01*
X11580Y08629D01*
X11496Y08594D01*
X11431Y08530D01*
X11396Y08446D01*
X11396Y08355D01*
X11431Y08271D01*
X11495Y08206D01*
X11579Y08171D01*
X11670Y08171D01*
X11754Y08206D01*
X11819Y08270D01*
X11854Y08354D01*
X11854Y08005D01*
X11796Y08029D01*
X11705Y08029D01*
X11621Y07994D01*
X11556Y07930D01*
X11521Y07846D01*
X11521Y07755D01*
X11556Y07671D01*
X11620Y07606D01*
X11704Y07571D01*
X11795Y07571D01*
X11879Y07606D01*
X11944Y07670D01*
X11979Y07754D01*
X11979Y06953D01*
X11956Y06930D01*
X11921Y06846D01*
X11921Y06755D01*
X11956Y06671D01*
X12020Y06606D01*
X12104Y06571D01*
X12195Y06571D01*
X12279Y06606D01*
X12344Y06670D01*
X12379Y06754D01*
X12379Y05820D01*
X12354Y05845D01*
X12354Y06154D01*
X12354Y06245D01*
X12319Y06329D01*
X12255Y06394D01*
X12171Y06429D01*
X12080Y06429D01*
X11996Y06394D01*
X11931Y06330D01*
X11896Y06246D01*
X11896Y06155D01*
X11931Y06071D01*
X11995Y06006D01*
X12079Y05971D01*
X12170Y05971D01*
X12254Y06006D01*
X12319Y06070D01*
X12354Y06154D01*
X12354Y05845D01*
X12330Y05869D01*
X12246Y05904D01*
X12155Y05904D01*
X12071Y05869D01*
X12006Y05805D01*
X11971Y05721D01*
X11971Y05630D01*
X12006Y05546D01*
X12070Y05481D01*
X12154Y05446D01*
X12245Y05446D01*
X12329Y05481D01*
X12394Y05545D01*
X12429Y05629D01*
X12429Y04579D01*
X12355Y04579D01*
X12279Y04548D01*
X12279Y04854D01*
X12279Y04945D01*
X12244Y05029D01*
X12180Y05094D01*
X12096Y05129D01*
X12005Y05129D01*
X11921Y05094D01*
X11856Y05030D01*
X11821Y04946D01*
X11821Y04855D01*
X11856Y04771D01*
X11920Y04706D01*
X12004Y04671D01*
X12095Y04671D01*
X12179Y04706D01*
X12244Y04770D01*
X12279Y04854D01*
X12279Y04548D01*
X12271Y04544D01*
X12206Y04480D01*
X12171Y04396D01*
X12171Y04305D01*
X12206Y04221D01*
X12270Y04156D01*
X12354Y04121D01*
X12445Y04121D01*
X12529Y04156D01*
X12594Y04220D01*
X12629Y04304D01*
X12629Y01550D01*
X12604Y01550D01*
X12604Y03279D01*
X12604Y03370D01*
X12569Y03454D01*
X12505Y03519D01*
X12421Y03554D01*
X12379Y03554D01*
X12379Y03729D01*
X12379Y03820D01*
X12344Y03904D01*
X12280Y03969D01*
X12196Y04004D01*
X12105Y04004D01*
X12021Y03969D01*
X11956Y03905D01*
X11921Y03821D01*
X11921Y03730D01*
X11956Y03646D01*
X12020Y03581D01*
X12104Y03546D01*
X12195Y03546D01*
X12279Y03581D01*
X12344Y03645D01*
X12379Y03729D01*
X12379Y03554D01*
X12330Y03554D01*
X12246Y03519D01*
X12181Y03455D01*
X12146Y03371D01*
X12146Y03280D01*
X12181Y03196D01*
X12245Y03131D01*
X12329Y03096D01*
X12420Y03096D01*
X12504Y03131D01*
X12569Y03195D01*
X12604Y03279D01*
X12604Y01550D01*
X12140Y01550D01*
X12071Y01579D01*
X11980Y01579D01*
X11979Y01579D01*
X11979Y01954D01*
X11979Y02045D01*
X11944Y02129D01*
X11880Y02194D01*
X11804Y02226D01*
X11804Y03154D01*
X11804Y03245D01*
X11779Y03305D01*
X11779Y04154D01*
X11779Y04245D01*
X11754Y04305D01*
X11754Y05279D01*
X11754Y05370D01*
X11754Y06904D01*
X11754Y06995D01*
X11719Y07079D01*
X11655Y07144D01*
X11571Y07179D01*
X11480Y07179D01*
X11396Y07144D01*
X11331Y07080D01*
X11329Y07076D01*
X11329Y08454D01*
X11329Y08545D01*
X11294Y08629D01*
X11230Y08694D01*
X11146Y08729D01*
X11055Y08729D01*
X10971Y08694D01*
X10906Y08630D01*
X10871Y08546D01*
X10871Y08455D01*
X10906Y08371D01*
X10970Y08306D01*
X11054Y08271D01*
X11145Y08271D01*
X11229Y08306D01*
X11294Y08370D01*
X11329Y08454D01*
X11329Y07076D01*
X11296Y06996D01*
X11296Y06905D01*
X11331Y06821D01*
X11395Y06756D01*
X11479Y06721D01*
X11570Y06721D01*
X11654Y06756D01*
X11719Y06820D01*
X11754Y06904D01*
X11754Y05370D01*
X11719Y05454D01*
X11655Y05519D01*
X11571Y05554D01*
X11554Y05554D01*
X11554Y06104D01*
X11554Y06195D01*
X11519Y06279D01*
X11455Y06344D01*
X11371Y06379D01*
X11280Y06379D01*
X11196Y06344D01*
X11179Y06328D01*
X11179Y07704D01*
X11179Y07795D01*
X11144Y07879D01*
X11080Y07944D01*
X10996Y07979D01*
X10905Y07979D01*
X10829Y07948D01*
X10829Y08254D01*
X10829Y08345D01*
X10794Y08429D01*
X10730Y08494D01*
X10646Y08529D01*
X10555Y08529D01*
X10471Y08494D01*
X10406Y08430D01*
X10371Y08346D01*
X10371Y08255D01*
X10406Y08171D01*
X10470Y08106D01*
X10554Y08071D01*
X10645Y08071D01*
X10729Y08106D01*
X10794Y08170D01*
X10829Y08254D01*
X10829Y07948D01*
X10821Y07944D01*
X10756Y07880D01*
X10721Y07796D01*
X10721Y07705D01*
X10756Y07621D01*
X10820Y07556D01*
X10904Y07521D01*
X10995Y07521D01*
X11079Y07556D01*
X11144Y07620D01*
X11179Y07704D01*
X11179Y06328D01*
X11131Y06280D01*
X11096Y06196D01*
X11096Y06105D01*
X11131Y06021D01*
X11195Y05956D01*
X11279Y05921D01*
X11370Y05921D01*
X11454Y05956D01*
X11519Y06020D01*
X11554Y06104D01*
X11554Y05554D01*
X11480Y05554D01*
X11396Y05519D01*
X11331Y05455D01*
X11296Y05371D01*
X11296Y05280D01*
X11331Y05196D01*
X11395Y05131D01*
X11479Y05096D01*
X11570Y05096D01*
X11654Y05131D01*
X11719Y05195D01*
X11754Y05279D01*
X11754Y04305D01*
X11744Y04329D01*
X11680Y04394D01*
X11596Y04429D01*
X11579Y04429D01*
X11579Y04704D01*
X11579Y04795D01*
X11544Y04879D01*
X11480Y04944D01*
X11396Y04979D01*
X11305Y04979D01*
X11221Y04944D01*
X11156Y04880D01*
X11121Y04796D01*
X11121Y04705D01*
X11156Y04621D01*
X11220Y04556D01*
X11304Y04521D01*
X11395Y04521D01*
X11479Y04556D01*
X11544Y04620D01*
X11579Y04704D01*
X11579Y04429D01*
X11505Y04429D01*
X11421Y04394D01*
X11356Y04330D01*
X11321Y04246D01*
X11321Y04155D01*
X11356Y04071D01*
X11420Y04006D01*
X11504Y03971D01*
X11595Y03971D01*
X11679Y04006D01*
X11744Y04070D01*
X11779Y04154D01*
X11779Y03305D01*
X11769Y03329D01*
X11705Y03394D01*
X11621Y03429D01*
X11530Y03429D01*
X11479Y03408D01*
X11479Y03679D01*
X11479Y03770D01*
X11444Y03854D01*
X11380Y03919D01*
X11296Y03954D01*
X11205Y03954D01*
X11121Y03919D01*
X11056Y03855D01*
X11021Y03771D01*
X11021Y03680D01*
X11056Y03596D01*
X11120Y03531D01*
X11204Y03496D01*
X11295Y03496D01*
X11379Y03531D01*
X11444Y03595D01*
X11479Y03679D01*
X11479Y03408D01*
X11446Y03394D01*
X11381Y03330D01*
X11346Y03246D01*
X11346Y03190D01*
X11319Y03254D01*
X11255Y03319D01*
X11171Y03354D01*
X11080Y03354D01*
X10996Y03319D01*
X10979Y03303D01*
X10979Y03454D01*
X10979Y03545D01*
X10944Y03629D01*
X10880Y03694D01*
X10804Y03726D01*
X10804Y05154D01*
X10804Y05245D01*
X10804Y06329D01*
X10804Y06420D01*
X10769Y06504D01*
X10705Y06569D01*
X10621Y06604D01*
X10604Y06604D01*
X10604Y06929D01*
X10604Y07020D01*
X10569Y07104D01*
X10505Y07169D01*
X10478Y07181D01*
X10478Y07799D01*
X10478Y07900D01*
X10440Y07993D01*
X10369Y08064D01*
X10276Y08103D01*
X10179Y08103D01*
X10179Y08529D01*
X10179Y08620D01*
X10144Y08704D01*
X10080Y08769D01*
X09996Y08804D01*
X09905Y08804D01*
X09821Y08769D01*
X09756Y08705D01*
X09721Y08621D01*
X09721Y08530D01*
X09756Y08446D01*
X09820Y08381D01*
X09904Y08346D01*
X09995Y08346D01*
X10079Y08381D01*
X10144Y08445D01*
X10179Y08529D01*
X10179Y08103D01*
X10175Y08103D01*
X10082Y08065D01*
X10011Y07994D01*
X09972Y07901D01*
X09972Y07800D01*
X10010Y07707D01*
X10081Y07636D01*
X10174Y07597D01*
X10275Y07597D01*
X10368Y07635D01*
X10439Y07706D01*
X10478Y07799D01*
X10478Y07181D01*
X10421Y07204D01*
X10330Y07204D01*
X10246Y07169D01*
X10181Y07105D01*
X10146Y07021D01*
X10146Y06930D01*
X10181Y06846D01*
X10245Y06781D01*
X10329Y06746D01*
X10420Y06746D01*
X10504Y06781D01*
X10569Y06845D01*
X10604Y06929D01*
X10604Y06604D01*
X10530Y06604D01*
X10446Y06569D01*
X10381Y06505D01*
X10346Y06421D01*
X10346Y06330D01*
X10381Y06246D01*
X10445Y06181D01*
X10529Y06146D01*
X10620Y06146D01*
X10704Y06181D01*
X10769Y06245D01*
X10804Y06329D01*
X10804Y05245D01*
X10769Y05329D01*
X10705Y05394D01*
X10679Y05405D01*
X10679Y05854D01*
X10679Y05945D01*
X10644Y06029D01*
X10580Y06094D01*
X10496Y06129D01*
X10405Y06129D01*
X10321Y06094D01*
X10256Y06030D01*
X10221Y05946D01*
X10221Y05855D01*
X10256Y05771D01*
X10320Y05706D01*
X10404Y05671D01*
X10495Y05671D01*
X10579Y05706D01*
X10644Y05770D01*
X10679Y05854D01*
X10679Y05405D01*
X10621Y05429D01*
X10530Y05429D01*
X10446Y05394D01*
X10381Y05330D01*
X10346Y05246D01*
X10346Y05155D01*
X10381Y05071D01*
X10445Y05006D01*
X10529Y04971D01*
X10620Y04971D01*
X10704Y05006D01*
X10769Y05070D01*
X10804Y05154D01*
X10804Y03726D01*
X10796Y03729D01*
X10754Y03729D01*
X10754Y04629D01*
X10754Y04720D01*
X10719Y04804D01*
X10655Y04869D01*
X10571Y04904D01*
X10480Y04904D01*
X10396Y04869D01*
X10331Y04805D01*
X10296Y04721D01*
X10296Y04630D01*
X10331Y04546D01*
X10395Y04481D01*
X10479Y04446D01*
X10570Y04446D01*
X10654Y04481D01*
X10719Y04545D01*
X10754Y04629D01*
X10754Y03729D01*
X10728Y03729D01*
X10728Y03999D01*
X10728Y04100D01*
X10690Y04193D01*
X10619Y04264D01*
X10526Y04303D01*
X10425Y04303D01*
X10332Y04265D01*
X10261Y04194D01*
X10222Y04101D01*
X10222Y04000D01*
X10260Y03907D01*
X10331Y03836D01*
X10424Y03797D01*
X10525Y03797D01*
X10618Y03835D01*
X10689Y03906D01*
X10728Y03999D01*
X10728Y03729D01*
X10705Y03729D01*
X10621Y03694D01*
X10556Y03630D01*
X10521Y03546D01*
X10521Y03455D01*
X10556Y03371D01*
X10620Y03306D01*
X10704Y03271D01*
X10795Y03271D01*
X10879Y03306D01*
X10944Y03370D01*
X10979Y03454D01*
X10979Y03303D01*
X10931Y03255D01*
X10896Y03171D01*
X10896Y03080D01*
X10931Y02996D01*
X10995Y02931D01*
X11079Y02896D01*
X11170Y02896D01*
X11254Y02931D01*
X11319Y02995D01*
X11354Y03079D01*
X11354Y03136D01*
X11381Y03071D01*
X11445Y03006D01*
X11529Y02971D01*
X11620Y02971D01*
X11704Y03006D01*
X11769Y03070D01*
X11804Y03154D01*
X11804Y02226D01*
X11796Y02229D01*
X11705Y02229D01*
X11621Y02194D01*
X11556Y02130D01*
X11521Y02046D01*
X11521Y01955D01*
X11556Y01871D01*
X11620Y01806D01*
X11704Y01771D01*
X11795Y01771D01*
X11879Y01806D01*
X11944Y01870D01*
X11979Y01954D01*
X11979Y01579D01*
X11910Y01550D01*
X11779Y01550D01*
X11779Y01570D01*
X11744Y01654D01*
X11680Y01719D01*
X11596Y01754D01*
X11505Y01754D01*
X11421Y01719D01*
X11356Y01655D01*
X11354Y01651D01*
X11354Y02129D01*
X11354Y02220D01*
X11319Y02304D01*
X11255Y02369D01*
X11171Y02404D01*
X11080Y02404D01*
X10996Y02369D01*
X10931Y02305D01*
X10896Y02221D01*
X10896Y02130D01*
X10931Y02046D01*
X10995Y01981D01*
X11079Y01946D01*
X11170Y01946D01*
X11254Y01981D01*
X11319Y02045D01*
X11354Y02129D01*
X11354Y01651D01*
X11321Y01571D01*
X11321Y01550D01*
X10989Y01550D01*
X11004Y01556D01*
X11069Y01620D01*
X11104Y01704D01*
X11104Y01795D01*
X11069Y01879D01*
X11005Y01944D01*
X10921Y01979D01*
X10830Y01979D01*
X10746Y01944D01*
X10681Y01880D01*
X10646Y01796D01*
X10646Y01705D01*
X10681Y01621D01*
X10745Y01556D01*
X10759Y01550D01*
X10554Y01550D01*
X10554Y03079D01*
X10554Y03170D01*
X10519Y03254D01*
X10455Y03319D01*
X10371Y03354D01*
X10280Y03354D01*
X10196Y03319D01*
X10131Y03255D01*
X10104Y03191D01*
X10104Y05604D01*
X10104Y05695D01*
X10069Y05779D01*
X10005Y05844D01*
X09921Y05879D01*
X09830Y05879D01*
X09829Y05879D01*
X09829Y08179D01*
X09829Y08270D01*
X09794Y08354D01*
X09730Y08419D01*
X09646Y08454D01*
X09555Y08454D01*
X09471Y08419D01*
X09406Y08355D01*
X09371Y08271D01*
X09371Y08180D01*
X09406Y08096D01*
X09470Y08031D01*
X09554Y07996D01*
X09645Y07996D01*
X09729Y08031D01*
X09794Y08095D01*
X09829Y08179D01*
X09829Y05879D01*
X09746Y05844D01*
X09681Y05780D01*
X09646Y05696D01*
X09646Y05605D01*
X09681Y05521D01*
X09745Y05456D01*
X09829Y05421D01*
X09920Y05421D01*
X10004Y05456D01*
X10069Y05520D01*
X10104Y05604D01*
X10104Y03191D01*
X10096Y03171D01*
X10096Y03080D01*
X10131Y02996D01*
X10195Y02931D01*
X10279Y02896D01*
X10370Y02896D01*
X10454Y02931D01*
X10519Y02995D01*
X10554Y03079D01*
X10554Y01550D01*
X10079Y01550D01*
X10079Y03604D01*
X10079Y03695D01*
X10054Y03755D01*
X10054Y04354D01*
X10054Y04445D01*
X10019Y04529D01*
X09955Y04594D01*
X09871Y04629D01*
X09780Y04629D01*
X09696Y04594D01*
X09631Y04530D01*
X09604Y04466D01*
X09604Y04604D01*
X09604Y04695D01*
X09569Y04779D01*
X09505Y04844D01*
X09429Y04876D01*
X09429Y05729D01*
X09429Y05820D01*
X09394Y05904D01*
X09330Y05969D01*
X09246Y06004D01*
X09204Y06004D01*
X09204Y08229D01*
X09204Y08320D01*
X09169Y08404D01*
X09105Y08469D01*
X09021Y08504D01*
X08930Y08504D01*
X08846Y08469D01*
X08781Y08405D01*
X08746Y08321D01*
X08746Y08230D01*
X08781Y08146D01*
X08845Y08081D01*
X08929Y08046D01*
X09020Y08046D01*
X09104Y08081D01*
X09169Y08145D01*
X09204Y08229D01*
X09204Y06004D01*
X09155Y06004D01*
X09071Y05969D01*
X09006Y05905D01*
X08971Y05821D01*
X08971Y05730D01*
X09006Y05646D01*
X09070Y05581D01*
X09154Y05546D01*
X09245Y05546D01*
X09329Y05581D01*
X09394Y05645D01*
X09429Y05729D01*
X09429Y04876D01*
X09421Y04879D01*
X09330Y04879D01*
X09246Y04844D01*
X09181Y04780D01*
X09146Y04696D01*
X09146Y04605D01*
X09181Y04521D01*
X09245Y04456D01*
X09329Y04421D01*
X09420Y04421D01*
X09504Y04456D01*
X09569Y04520D01*
X09604Y04604D01*
X09604Y04466D01*
X09596Y04446D01*
X09596Y04355D01*
X09631Y04271D01*
X09695Y04206D01*
X09779Y04171D01*
X09870Y04171D01*
X09954Y04206D01*
X10019Y04270D01*
X10054Y04354D01*
X10054Y03755D01*
X10044Y03779D01*
X09980Y03844D01*
X09896Y03879D01*
X09805Y03879D01*
X09721Y03844D01*
X09656Y03780D01*
X09621Y03696D01*
X09621Y03605D01*
X09656Y03521D01*
X09720Y03456D01*
X09804Y03421D01*
X09895Y03421D01*
X09979Y03456D01*
X10044Y03520D01*
X10079Y03604D01*
X10079Y01550D01*
X09729Y01550D01*
X09729Y03179D01*
X09729Y03270D01*
X09694Y03354D01*
X09630Y03419D01*
X09546Y03454D01*
X09528Y03454D01*
X09528Y04099D01*
X09528Y04200D01*
X09490Y04293D01*
X09419Y04364D01*
X09326Y04403D01*
X09225Y04403D01*
X09132Y04365D01*
X09061Y04294D01*
X09022Y04201D01*
X09022Y04100D01*
X09060Y04007D01*
X09131Y03936D01*
X09224Y03897D01*
X09325Y03897D01*
X09418Y03935D01*
X09489Y04006D01*
X09528Y04099D01*
X09528Y03454D01*
X09455Y03454D01*
X09371Y03419D01*
X09306Y03355D01*
X09271Y03271D01*
X09271Y03180D01*
X09306Y03096D01*
X09370Y03031D01*
X09454Y02996D01*
X09545Y02996D01*
X09629Y03031D01*
X09694Y03095D01*
X09729Y03179D01*
X09729Y01550D01*
X09553Y01550D01*
X09553Y01849D01*
X09553Y01950D01*
X09515Y02043D01*
X09444Y02114D01*
X09351Y02153D01*
X09250Y02153D01*
X09157Y02115D01*
X09086Y02044D01*
X09047Y01951D01*
X09047Y01850D01*
X09085Y01757D01*
X09156Y01686D01*
X09249Y01647D01*
X09350Y01647D01*
X09443Y01685D01*
X09514Y01756D01*
X09553Y01849D01*
X09553Y01550D01*
X08829Y01550D01*
X08829Y07329D01*
X08829Y07420D01*
X08794Y07504D01*
X08730Y07569D01*
X08679Y07591D01*
X08679Y08129D01*
X08679Y08220D01*
X08644Y08304D01*
X08580Y08369D01*
X08496Y08404D01*
X08405Y08404D01*
X08321Y08369D01*
X08256Y08305D01*
X08221Y08221D01*
X08221Y08130D01*
X08256Y08046D01*
X08320Y07981D01*
X08404Y07946D01*
X08495Y07946D01*
X08579Y07981D01*
X08644Y08045D01*
X08679Y08129D01*
X08679Y07591D01*
X08646Y07604D01*
X08555Y07604D01*
X08471Y07569D01*
X08406Y07505D01*
X08371Y07421D01*
X08371Y07330D01*
X08406Y07246D01*
X08470Y07181D01*
X08554Y07146D01*
X08645Y07146D01*
X08729Y07181D01*
X08794Y07245D01*
X08829Y07329D01*
X08829Y01550D01*
X08615Y01550D01*
X08615Y04301D01*
X08615Y04402D01*
X08577Y04495D01*
X08529Y04543D01*
X08529Y04904D01*
X08529Y04995D01*
X08494Y05079D01*
X08430Y05144D01*
X08346Y05179D01*
X08319Y05179D01*
X08371Y05200D01*
X08442Y05271D01*
X08481Y05364D01*
X08481Y05465D01*
X08443Y05558D01*
X08372Y05629D01*
X08279Y05668D01*
X08203Y05668D01*
X08203Y07799D01*
X08203Y07900D01*
X08165Y07993D01*
X08094Y08064D01*
X08001Y08103D01*
X07900Y08103D01*
X07807Y08065D01*
X07736Y07994D01*
X07697Y07901D01*
X07697Y07800D01*
X07735Y07707D01*
X07806Y07636D01*
X07893Y07600D01*
X07821Y07569D01*
X07756Y07505D01*
X07721Y07421D01*
X07721Y07330D01*
X07756Y07246D01*
X07820Y07181D01*
X07904Y07146D01*
X07995Y07146D01*
X08079Y07181D01*
X08144Y07245D01*
X08179Y07329D01*
X08179Y07420D01*
X08144Y07504D01*
X08080Y07569D01*
X08006Y07600D01*
X08093Y07635D01*
X08164Y07706D01*
X08203Y07799D01*
X08203Y05668D01*
X08179Y05668D01*
X08179Y06404D01*
X08179Y06495D01*
X08144Y06579D01*
X08080Y06644D01*
X07996Y06679D01*
X07905Y06679D01*
X07853Y06658D01*
X07853Y06924D01*
X07853Y07025D01*
X07815Y07118D01*
X07744Y07189D01*
X07651Y07228D01*
X07550Y07228D01*
X07457Y07190D01*
X07386Y07119D01*
X07347Y07026D01*
X07347Y06925D01*
X07385Y06832D01*
X07456Y06761D01*
X07549Y06722D01*
X07650Y06722D01*
X07743Y06760D01*
X07814Y06831D01*
X07853Y06924D01*
X07853Y06658D01*
X07821Y06644D01*
X07756Y06580D01*
X07721Y06496D01*
X07721Y06405D01*
X07756Y06321D01*
X07820Y06256D01*
X07904Y06221D01*
X07995Y06221D01*
X08079Y06256D01*
X08144Y06320D01*
X08179Y06404D01*
X08179Y05668D01*
X08178Y05668D01*
X08085Y05630D01*
X08014Y05559D01*
X07975Y05466D01*
X07975Y05365D01*
X08013Y05272D01*
X08084Y05201D01*
X08177Y05162D01*
X08214Y05162D01*
X08171Y05144D01*
X08106Y05080D01*
X08071Y04996D01*
X08071Y04905D01*
X08106Y04821D01*
X08170Y04756D01*
X08254Y04721D01*
X08345Y04721D01*
X08429Y04756D01*
X08494Y04820D01*
X08529Y04904D01*
X08529Y04543D01*
X08506Y04566D01*
X08413Y04605D01*
X08312Y04605D01*
X08219Y04567D01*
X08148Y04496D01*
X08109Y04403D01*
X08109Y04302D01*
X08147Y04209D01*
X08218Y04138D01*
X08311Y04099D01*
X08412Y04099D01*
X08505Y04137D01*
X08576Y04208D01*
X08615Y04301D01*
X08615Y01550D01*
X08179Y01550D01*
X08179Y02854D01*
X08179Y02945D01*
X08144Y03029D01*
X08129Y03045D01*
X08129Y03854D01*
X08129Y03945D01*
X08094Y04029D01*
X08030Y04094D01*
X08004Y04105D01*
X08004Y04454D01*
X08004Y04545D01*
X08004Y04979D01*
X08004Y05070D01*
X07969Y05154D01*
X07905Y05219D01*
X07821Y05254D01*
X07730Y05254D01*
X07679Y05233D01*
X07679Y05379D01*
X07679Y05470D01*
X07644Y05554D01*
X07580Y05619D01*
X07496Y05654D01*
X07405Y05654D01*
X07321Y05619D01*
X07256Y05555D01*
X07228Y05488D01*
X07228Y07799D01*
X07228Y07900D01*
X07190Y07993D01*
X07119Y08064D01*
X07026Y08103D01*
X06925Y08103D01*
X06832Y08065D01*
X06761Y07994D01*
X06722Y07901D01*
X06722Y07800D01*
X06760Y07707D01*
X06831Y07636D01*
X06924Y07597D01*
X07025Y07597D01*
X07118Y07635D01*
X07189Y07706D01*
X07228Y07799D01*
X07228Y05488D01*
X07221Y05471D01*
X07221Y05380D01*
X07256Y05296D01*
X07320Y05231D01*
X07404Y05196D01*
X07495Y05196D01*
X07579Y05231D01*
X07644Y05295D01*
X07679Y05379D01*
X07679Y05233D01*
X07646Y05219D01*
X07581Y05155D01*
X07546Y05071D01*
X07546Y04980D01*
X07581Y04896D01*
X07645Y04831D01*
X07729Y04796D01*
X07820Y04796D01*
X07904Y04831D01*
X07969Y04895D01*
X08004Y04979D01*
X08004Y04545D01*
X07969Y04629D01*
X07905Y04694D01*
X07821Y04729D01*
X07730Y04729D01*
X07646Y04694D01*
X07581Y04630D01*
X07546Y04546D01*
X07546Y04455D01*
X07581Y04371D01*
X07645Y04306D01*
X07729Y04271D01*
X07820Y04271D01*
X07904Y04306D01*
X07969Y04370D01*
X08004Y04454D01*
X08004Y04105D01*
X07946Y04129D01*
X07855Y04129D01*
X07771Y04094D01*
X07706Y04030D01*
X07671Y03946D01*
X07671Y03855D01*
X07706Y03771D01*
X07770Y03706D01*
X07854Y03671D01*
X07945Y03671D01*
X08029Y03706D01*
X08094Y03770D01*
X08129Y03854D01*
X08129Y03045D01*
X08080Y03094D01*
X07996Y03129D01*
X07905Y03129D01*
X07821Y03094D01*
X07756Y03030D01*
X07721Y02946D01*
X07721Y02855D01*
X07756Y02771D01*
X07820Y02706D01*
X07904Y02671D01*
X07995Y02671D01*
X08079Y02706D01*
X08144Y02770D01*
X08179Y02854D01*
X08179Y01550D01*
X07004Y01550D01*
X07004Y02229D01*
X07004Y02320D01*
X06969Y02404D01*
X06905Y02469D01*
X06821Y02504D01*
X06730Y02504D01*
X06653Y02472D01*
X06653Y07749D01*
X06653Y07850D01*
X06615Y07943D01*
X06544Y08014D01*
X06451Y08053D01*
X06350Y08053D01*
X06257Y08015D01*
X06186Y07944D01*
X06147Y07851D01*
X06147Y07750D01*
X06185Y07657D01*
X06256Y07586D01*
X06349Y07547D01*
X06450Y07547D01*
X06543Y07585D01*
X06614Y07656D01*
X06653Y07749D01*
X06653Y02472D01*
X06646Y02469D01*
X06581Y02405D01*
X06546Y02321D01*
X06546Y02230D01*
X06581Y02146D01*
X06645Y02081D01*
X06729Y02046D01*
X06820Y02046D01*
X06904Y02081D01*
X06969Y02145D01*
X07004Y02229D01*
X07004Y01550D01*
X06503Y01550D01*
X06503Y06474D01*
X06503Y06575D01*
X06465Y06668D01*
X06394Y06739D01*
X06301Y06778D01*
X06200Y06778D01*
X06107Y06740D01*
X06036Y06669D01*
X05997Y06576D01*
X05997Y06475D01*
X06035Y06382D01*
X06106Y06311D01*
X06199Y06272D01*
X06300Y06272D01*
X06393Y06310D01*
X06464Y06381D01*
X06503Y06474D01*
X06503Y01550D01*
X06228Y01550D01*
X06228Y02899D01*
X06228Y03000D01*
X06190Y03093D01*
X06119Y03164D01*
X06053Y03192D01*
X06053Y05624D01*
X06053Y05725D01*
X06015Y05818D01*
X05944Y05889D01*
X05851Y05928D01*
X05756Y05928D01*
X05740Y05968D01*
X05669Y06039D01*
X05578Y06078D01*
X05578Y07499D01*
X05578Y07600D01*
X05540Y07693D01*
X05469Y07764D01*
X05376Y07803D01*
X05275Y07803D01*
X05182Y07765D01*
X05111Y07694D01*
X05072Y07601D01*
X05072Y07500D01*
X05110Y07407D01*
X05181Y07336D01*
X05274Y07297D01*
X05375Y07297D01*
X05468Y07335D01*
X05539Y07406D01*
X05578Y07499D01*
X05578Y06078D01*
X05576Y06078D01*
X05475Y06078D01*
X05382Y06040D01*
X05311Y05969D01*
X05272Y05876D01*
X05272Y05775D01*
X05310Y05682D01*
X05381Y05611D01*
X05474Y05572D01*
X05568Y05572D01*
X05585Y05532D01*
X05656Y05461D01*
X05749Y05422D01*
X05850Y05422D01*
X05943Y05460D01*
X06014Y05531D01*
X06053Y05624D01*
X06053Y03192D01*
X06026Y03203D01*
X05925Y03203D01*
X05832Y03165D01*
X05804Y03137D01*
X05804Y03379D01*
X05804Y03470D01*
X05769Y03554D01*
X05705Y03619D01*
X05621Y03654D01*
X05530Y03654D01*
X05446Y03619D01*
X05381Y03555D01*
X05346Y03471D01*
X05346Y03380D01*
X05381Y03296D01*
X05445Y03231D01*
X05529Y03196D01*
X05620Y03196D01*
X05704Y03231D01*
X05769Y03295D01*
X05804Y03379D01*
X05804Y03137D01*
X05761Y03094D01*
X05722Y03001D01*
X05722Y02900D01*
X05760Y02807D01*
X05831Y02736D01*
X05924Y02697D01*
X06025Y02697D01*
X06118Y02735D01*
X06189Y02806D01*
X06228Y02899D01*
X06228Y01550D01*
X04978Y01550D01*
X04978Y05724D01*
X04978Y05825D01*
X04940Y05918D01*
X04869Y05989D01*
X04778Y06028D01*
X04778Y07374D01*
X04778Y07475D01*
X04740Y07568D01*
X04669Y07639D01*
X04576Y07678D01*
X04475Y07678D01*
X04382Y07640D01*
X04311Y07569D01*
X04279Y07493D01*
X04279Y07754D01*
X04279Y07845D01*
X04244Y07929D01*
X04204Y07970D01*
X04204Y08479D01*
X04204Y08570D01*
X04169Y08654D01*
X04105Y08719D01*
X04021Y08754D01*
X03930Y08754D01*
X03846Y08719D01*
X03781Y08655D01*
X03746Y08571D01*
X03746Y08480D01*
X03781Y08396D01*
X03845Y08331D01*
X03929Y08296D01*
X04020Y08296D01*
X04104Y08331D01*
X04169Y08395D01*
X04204Y08479D01*
X04204Y07970D01*
X04180Y07994D01*
X04096Y08029D01*
X04005Y08029D01*
X03921Y07994D01*
X03856Y07930D01*
X03821Y07846D01*
X03821Y07755D01*
X03856Y07671D01*
X03920Y07606D01*
X04004Y07571D01*
X04095Y07571D01*
X04179Y07606D01*
X04244Y07670D01*
X04279Y07754D01*
X04279Y07493D01*
X04272Y07476D01*
X04272Y07375D01*
X04310Y07282D01*
X04381Y07211D01*
X04474Y07172D01*
X04575Y07172D01*
X04668Y07210D01*
X04739Y07281D01*
X04778Y07374D01*
X04778Y06028D01*
X04776Y06028D01*
X04675Y06028D01*
X04582Y05990D01*
X04511Y05919D01*
X04472Y05829D01*
X04471Y05829D01*
X04380Y05829D01*
X04296Y05794D01*
X04231Y05730D01*
X04196Y05646D01*
X04196Y05555D01*
X04231Y05471D01*
X04295Y05406D01*
X04379Y05371D01*
X04470Y05371D01*
X04554Y05406D01*
X04619Y05470D01*
X04645Y05534D01*
X04674Y05522D01*
X04775Y05522D01*
X04868Y05560D01*
X04939Y05631D01*
X04978Y05724D01*
X04978Y01550D01*
X04904Y01550D01*
X04904Y03779D01*
X04904Y03870D01*
X04869Y03954D01*
X04805Y04019D01*
X04721Y04054D01*
X04630Y04054D01*
X04546Y04019D01*
X04481Y03955D01*
X04446Y03871D01*
X04446Y03780D01*
X04481Y03696D01*
X04545Y03631D01*
X04629Y03596D01*
X04720Y03596D01*
X04804Y03631D01*
X04869Y03695D01*
X04904Y03779D01*
X04904Y01550D01*
X04454Y01550D01*
X04454Y02354D01*
X04454Y02445D01*
X04419Y02529D01*
X04355Y02594D01*
X04271Y02629D01*
X04180Y02629D01*
X04103Y02597D01*
X04103Y03374D01*
X04103Y03475D01*
X04065Y03568D01*
X03994Y03639D01*
X03978Y03646D01*
X03978Y06524D01*
X03978Y06625D01*
X03940Y06718D01*
X03928Y06730D01*
X03928Y07374D01*
X03928Y07475D01*
X03890Y07568D01*
X03819Y07639D01*
X03726Y07678D01*
X03625Y07678D01*
X03532Y07640D01*
X03461Y07569D01*
X03422Y07476D01*
X03422Y07375D01*
X03460Y07282D01*
X03531Y07211D01*
X03624Y07172D01*
X03725Y07172D01*
X03818Y07210D01*
X03889Y07281D01*
X03928Y07374D01*
X03928Y06730D01*
X03869Y06789D01*
X03776Y06828D01*
X03675Y06828D01*
X03582Y06790D01*
X03511Y06719D01*
X03472Y06626D01*
X03472Y06525D01*
X03510Y06432D01*
X03581Y06361D01*
X03674Y06322D01*
X03775Y06322D01*
X03868Y06360D01*
X03939Y06431D01*
X03978Y06524D01*
X03978Y03646D01*
X03901Y03678D01*
X03800Y03678D01*
X03707Y03640D01*
X03636Y03569D01*
X03628Y03550D01*
X03628Y04974D01*
X03628Y05075D01*
X03590Y05168D01*
X03519Y05239D01*
X03426Y05278D01*
X03325Y05278D01*
X03232Y05240D01*
X03161Y05169D01*
X03122Y05076D01*
X03122Y04975D01*
X03160Y04882D01*
X03231Y04811D01*
X03324Y04772D01*
X03425Y04772D01*
X03518Y04810D01*
X03589Y04881D01*
X03628Y04974D01*
X03628Y03550D01*
X03597Y03476D01*
X03597Y03375D01*
X03635Y03282D01*
X03706Y03211D01*
X03799Y03172D01*
X03900Y03172D01*
X03993Y03210D01*
X04064Y03281D01*
X04103Y03374D01*
X04103Y02597D01*
X04096Y02594D01*
X04031Y02530D01*
X03996Y02446D01*
X03996Y02355D01*
X04031Y02271D01*
X04095Y02206D01*
X04179Y02171D01*
X04270Y02171D01*
X04354Y02206D01*
X04419Y02270D01*
X04454Y02354D01*
X04454Y01550D01*
X04427Y01550D01*
X04429Y01554D01*
X04429Y01645D01*
X04394Y01729D01*
X04330Y01794D01*
X04246Y01829D01*
X04155Y01829D01*
X04071Y01794D01*
X04006Y01730D01*
X03971Y01646D01*
X03971Y01555D01*
X03973Y01550D01*
X03304Y01550D01*
X03304Y02479D01*
X03304Y02570D01*
X03269Y02654D01*
X03205Y02719D01*
X03121Y02754D01*
X03103Y02754D01*
X03103Y04474D01*
X03103Y04575D01*
X03065Y04668D01*
X02994Y04739D01*
X02928Y04767D01*
X02928Y07999D01*
X02928Y08100D01*
X02890Y08193D01*
X02819Y08264D01*
X02726Y08303D01*
X02625Y08303D01*
X02532Y08265D01*
X02461Y08194D01*
X02422Y08101D01*
X02422Y08000D01*
X02460Y07907D01*
X02531Y07836D01*
X02624Y07797D01*
X02725Y07797D01*
X02818Y07835D01*
X02889Y07906D01*
X02928Y07999D01*
X02928Y04767D01*
X02901Y04778D01*
X02804Y04778D01*
X02804Y07154D01*
X02804Y07245D01*
X02769Y07329D01*
X02705Y07394D01*
X02621Y07429D01*
X02530Y07429D01*
X02446Y07394D01*
X02381Y07330D01*
X02346Y07246D01*
X02346Y07155D01*
X02381Y07071D01*
X02445Y07006D01*
X02529Y06971D01*
X02620Y06971D01*
X02704Y07006D01*
X02769Y07070D01*
X02804Y07154D01*
X02804Y04778D01*
X02800Y04778D01*
X02779Y04770D01*
X02779Y05079D01*
X02779Y05170D01*
X02744Y05254D01*
X02680Y05319D01*
X02596Y05354D01*
X02505Y05354D01*
X02421Y05319D01*
X02356Y05255D01*
X02321Y05171D01*
X02321Y05080D01*
X02356Y04996D01*
X02420Y04931D01*
X02504Y04896D01*
X02595Y04896D01*
X02679Y04931D01*
X02744Y04995D01*
X02779Y05079D01*
X02779Y04770D01*
X02707Y04740D01*
X02636Y04669D01*
X02597Y04576D01*
X02597Y04475D01*
X02635Y04382D01*
X02706Y04311D01*
X02799Y04272D01*
X02900Y04272D01*
X02993Y04310D01*
X03064Y04381D01*
X03103Y04474D01*
X03103Y02754D01*
X03030Y02754D01*
X02946Y02719D01*
X02881Y02655D01*
X02846Y02571D01*
X02846Y02480D01*
X02881Y02396D01*
X02945Y02331D01*
X03029Y02296D01*
X03120Y02296D01*
X03204Y02331D01*
X03269Y02395D01*
X03304Y02479D01*
X03304Y01550D01*
X02728Y01550D01*
X02728Y01575D01*
X02690Y01668D01*
X02619Y01739D01*
X02528Y01778D01*
X02528Y03099D01*
X02528Y03200D01*
X02490Y03293D01*
X02419Y03364D01*
X02326Y03403D01*
X02225Y03403D01*
X02132Y03365D01*
X02061Y03294D01*
X02053Y03275D01*
X02053Y05399D01*
X02053Y05500D01*
X02015Y05593D01*
X01944Y05664D01*
X01928Y05671D01*
X01928Y06474D01*
X01928Y06575D01*
X01890Y06668D01*
X01819Y06739D01*
X01726Y06778D01*
X01625Y06778D01*
X01578Y06759D01*
X01578Y07674D01*
X01578Y07775D01*
X01540Y07868D01*
X01469Y07939D01*
X01376Y07978D01*
X01275Y07978D01*
X01182Y07940D01*
X01111Y07869D01*
X01072Y07776D01*
X01072Y07675D01*
X01110Y07582D01*
X01181Y07511D01*
X01274Y07472D01*
X01375Y07472D01*
X01468Y07510D01*
X01539Y07581D01*
X01578Y07674D01*
X01578Y06759D01*
X01532Y06740D01*
X01478Y06686D01*
X01478Y07049D01*
X01478Y07150D01*
X01440Y07243D01*
X01369Y07314D01*
X01276Y07353D01*
X01175Y07353D01*
X01082Y07315D01*
X01011Y07244D01*
X00972Y07151D01*
X00972Y07050D01*
X01010Y06957D01*
X01081Y06886D01*
X01174Y06847D01*
X01275Y06847D01*
X01368Y06885D01*
X01439Y06956D01*
X01478Y07049D01*
X01478Y06686D01*
X01461Y06669D01*
X01422Y06576D01*
X01422Y06475D01*
X01460Y06382D01*
X01531Y06311D01*
X01624Y06272D01*
X01725Y06272D01*
X01818Y06310D01*
X01889Y06381D01*
X01928Y06474D01*
X01928Y05671D01*
X01851Y05703D01*
X01750Y05703D01*
X01657Y05665D01*
X01586Y05594D01*
X01547Y05501D01*
X01547Y05400D01*
X01585Y05307D01*
X01656Y05236D01*
X01749Y05197D01*
X01850Y05197D01*
X01943Y05235D01*
X02014Y05306D01*
X02053Y05399D01*
X02053Y03275D01*
X02022Y03201D01*
X02022Y03100D01*
X02060Y03007D01*
X02131Y02936D01*
X02224Y02897D01*
X02325Y02897D01*
X02418Y02935D01*
X02489Y03006D01*
X02528Y03099D01*
X02528Y01778D01*
X02526Y01778D01*
X02483Y01778D01*
X02503Y01824D01*
X02503Y01925D01*
X02465Y02018D01*
X02394Y02089D01*
X02301Y02128D01*
X02200Y02128D01*
X02107Y02090D01*
X02036Y02019D01*
X01997Y01926D01*
X01997Y01825D01*
X02035Y01732D01*
X02106Y01661D01*
X02199Y01622D01*
X02241Y01622D01*
X02222Y01576D01*
X02222Y01550D01*
X01428Y01550D01*
X01428Y05474D01*
X01428Y05575D01*
X01390Y05668D01*
X01319Y05739D01*
X01226Y05778D01*
X01125Y05778D01*
X01032Y05740D01*
X00961Y05669D01*
X00922Y05576D01*
X00922Y05475D01*
X00960Y05382D01*
X01031Y05311D01*
X01124Y05272D01*
X01225Y05272D01*
X01318Y05310D01*
X01389Y05381D01*
X01428Y05474D01*
X01428Y01550D01*
X00821Y01550D01*
X00150Y02221D01*
X00150Y02533D01*
X00196Y02420D01*
X00297Y02320D01*
X00429Y02265D01*
X00571Y02265D01*
X00703Y02319D01*
X00803Y02420D01*
X00858Y02552D01*
X00858Y02694D01*
X00858Y02948D01*
X00804Y03080D01*
X00703Y03180D01*
X00571Y03235D01*
X00429Y03235D01*
X00297Y03181D01*
X00197Y03080D01*
X00150Y02968D01*
X00150Y03427D01*
X00280Y03372D01*
X00430Y03372D01*
X00720Y03372D01*
X00859Y03429D01*
X00965Y03536D01*
X01023Y03675D01*
X01023Y03822D01*
X01100Y03822D01*
X01193Y03860D01*
X01264Y03931D01*
X01303Y04024D01*
X01303Y04125D01*
X01265Y04218D01*
X01194Y04289D01*
X01101Y04328D01*
X01000Y04328D01*
X00907Y04290D01*
X00836Y04219D01*
X00797Y04126D01*
X00797Y04096D01*
X00720Y04128D01*
X00570Y04128D01*
X00280Y04128D01*
X00150Y04075D01*
X00150Y04362D01*
X00204Y04308D01*
X00395Y04228D01*
X00603Y04228D01*
X00795Y04307D01*
X00942Y04454D01*
X01022Y04645D01*
X01022Y04853D01*
X00943Y05045D01*
X00796Y05192D01*
X00605Y05272D01*
X00397Y05272D01*
X00205Y05193D01*
X00150Y05138D01*
X00150Y08453D01*
X00819Y09050D01*
X01942Y09050D01*
X01911Y09019D01*
X01872Y08926D01*
X01872Y08825D01*
X01910Y08732D01*
X01981Y08661D01*
X02074Y08622D01*
X02088Y08622D01*
X02021Y08594D01*
X01956Y08530D01*
X01921Y08446D01*
X01921Y08355D01*
X01956Y08271D01*
X01991Y08236D01*
X01946Y08254D01*
X01855Y08254D01*
X01771Y08219D01*
X01706Y08155D01*
X01671Y08071D01*
X01671Y07980D01*
X01706Y07896D01*
X01770Y07831D01*
X01854Y07796D01*
X01945Y07796D01*
X02029Y07831D01*
X02094Y07895D01*
X02129Y07979D01*
X02129Y08070D01*
X02094Y08154D01*
X02058Y08190D01*
X02104Y08171D01*
X02195Y08171D01*
X02279Y08206D01*
X02344Y08270D01*
X02379Y08354D01*
X02379Y08445D01*
X02344Y08529D01*
X02280Y08594D01*
X02196Y08629D01*
X02192Y08629D01*
X02268Y08660D01*
X02339Y08731D01*
X02378Y08824D01*
X02378Y08925D01*
X02340Y09018D01*
X02308Y09050D01*
X07460Y09050D01*
X07446Y09044D01*
X07381Y08980D01*
X07346Y08896D01*
X07346Y08805D01*
X07381Y08721D01*
X07445Y08656D01*
X07529Y08621D01*
X07620Y08621D01*
X07704Y08656D01*
X07769Y08720D01*
X07804Y08804D01*
X07804Y08895D01*
X07769Y08979D01*
X07705Y09044D01*
X07690Y09050D01*
X07876Y09050D01*
X07856Y09030D01*
X07821Y08946D01*
X07821Y08855D01*
X07856Y08771D01*
X07920Y08706D01*
X08004Y08671D01*
X08095Y08671D01*
X08179Y08706D01*
X08244Y08770D01*
X08279Y08854D01*
X08279Y08945D01*
X08244Y09029D01*
X08223Y09050D01*
X08579Y09050D01*
X08581Y09046D01*
X08645Y08981D01*
X08729Y08946D01*
X08820Y08946D01*
X08904Y08981D01*
X08969Y09045D01*
X08971Y09050D01*
X09679Y09050D01*
X09681Y09046D01*
X09745Y08981D01*
X09829Y08946D01*
X09920Y08946D01*
X10004Y08981D01*
X10069Y09045D01*
X10071Y09050D01*
X10547Y09050D01*
X10546Y09046D01*
X10546Y08955D01*
X10581Y08871D01*
X10645Y08806D01*
X10729Y08771D01*
X10820Y08771D01*
X10904Y08806D01*
X10969Y08870D01*
X11004Y08954D01*
X11004Y09045D01*
X11001Y09050D01*
X11096Y09050D01*
X11096Y09005D01*
X11131Y08921D01*
X11195Y08856D01*
X11279Y08821D01*
X11370Y08821D01*
X11454Y08856D01*
X11519Y08920D01*
X11554Y09004D01*
X11554Y09050D01*
X11926Y09050D01*
X11906Y09030D01*
X11871Y08946D01*
X11871Y08855D01*
X11906Y08771D01*
X11970Y08706D01*
X12054Y08671D01*
X12145Y08671D01*
X12229Y08706D01*
X12294Y08770D01*
X12329Y08854D01*
X12329Y08945D01*
X12294Y09029D01*
X12273Y09050D01*
X14978Y09050D01*
X15430Y08553D01*
X15396Y08471D01*
X15396Y08380D01*
X15431Y08296D01*
X15495Y08231D01*
X15579Y08196D01*
X15670Y08196D01*
X15700Y08209D01*
X15700Y02249D01*
M02*
