M48
INCH,TZ
T1C0.010
T2C0.013
T3C0.032
T4C0.039
%
G90
G05
T1
X-1791Y7089
X-1791Y6144
X-1791Y5159
X-1752Y4136
X-1752Y3230
X-1752Y2364
X-1752Y1577
X-1673Y8506
X-1025Y5200
X-1025Y4350
X-500Y7550
X975Y175
X1000Y10400
X1050Y4075
X1225Y7100
X1675Y6525
X1900Y8025
X2000Y10375
X2025Y175
X2150Y8400
X2275Y3150
X2550Y5125
X2575Y7200
X2675Y8050
X2975Y10425
X3000Y225
X3075Y2525
X3200Y7175
X3375Y5025
X3600Y2425
X3675Y8450
X3725Y7100
X3975Y10350
X3975Y8525
X3975Y200
X4025Y4150
X4050Y7800
X4200Y1600
X4225Y2400
X4425Y5600
X4675Y3825
X4725Y5775
X4975Y225
X5000Y10400
X5050Y2450
X5325Y7550
X5575Y3425
X5950Y4025
X5975Y10375
X5975Y2950
X6000Y175
X6775Y2275
X7000Y10375
X7000Y225
X7450Y5425
X7575Y8850
X7775Y5025
X7775Y4500
X7900Y3900
X7950Y7850
X7950Y7375
X7950Y6450
X7950Y2900
X8000Y10350
X8000Y175
X8050Y8900
X8300Y4950
X8450Y8175
X8525Y6600
X8600Y7375
X8775Y9175
X8975Y10325
X8975Y8275
X9050Y150
X9125Y7775
X9200Y5775
X9200Y2600
X9350Y5225
X9375Y4650
X9500Y3225
X9600Y8225
X9825Y4400
X9850Y3650
X9875Y9175
X9875Y5650
X9950Y8575
X9975Y100
X10000Y10375
X10325Y3125
X10375Y6975
X10375Y1900
X10450Y5900
X10475Y4050
X10525Y4675
X10575Y6375
X10575Y5200
X10600Y8300
X10750Y3500
X10775Y9000
X10875Y1750
X10950Y7750
X11000Y10400
X11000Y100
X11100Y8500
X11125Y3125
X11125Y2175
X11250Y3725
X11325Y9050
X11325Y6150
X11350Y4750
X11525Y6950
X11525Y5325
X11550Y4200
X11550Y1525
X11575Y3200
X11625Y8400
X11750Y7800
X11750Y2000
X12000Y10350
X12025Y1350
X12050Y4900
X12050Y125
X12100Y8900
X12125Y6200
X12150Y6800
X12150Y3775
X12200Y5675
X12225Y8025
X12375Y3325
X12400Y4350
X12700Y4925
X12775Y2125
X12795Y7600
X12825Y5625
X12850Y6375
X12875Y8350
X12875Y1450
X12900Y3550
X12950Y175
X12975Y10350
X13075Y6825
X13300Y8025
X13524Y3325
X13525Y8900
X14025Y10375
X14050Y150
X14087Y4565
X14125Y4000
X14276Y5419
X14500Y4900
X14685Y5813
X14925Y125
X15000Y10400
X15425Y7525
X15433Y6813
X15525Y2100
X15625Y8425
X15700Y3750
X15975Y100
X16000Y10400
X16650Y1675
X16717Y4301
X16875Y5825
X17050Y100
X17075Y5325
X17925Y5475
X18025Y1625
X18700Y100
X19200Y9400
X19250Y9100
T2
X1175Y5525
X1325Y7725
X1800Y5450
X2125Y8875
X2250Y1875
X2475Y1525
X2850Y4525
X3675Y7425
X3725Y6575
X3850Y3425
X4525Y7425
X5525Y5825
X5800Y5675
X6250Y6525
X6400Y7800
X6975Y7850
X7600Y6975
X8228Y5415
X8362Y4352
X9275Y4150
X9300Y1900
X10225Y7850
X13925Y6375
X13933Y5837
X14350Y7025
X14550Y3325
X15425Y6300
X16625Y6325
X16634Y7719
X16675Y4575
X16700Y7050
X17700Y4250
X19154Y8033
X19154Y4254
X19193Y7207
X19193Y6222
X19193Y5199
X19193Y3270
T3
X-500Y8750
X13950Y8225
X14950Y8225
T4
X-500Y9750
X-500Y6750
X-500Y5750
X-500Y4750
X-500Y3750
X-500Y2750
X-500Y750
X500Y9750
X500Y4750
X500Y3750
X500Y2750
X500Y750
X1500Y9750
X1500Y750
X2500Y9750
X2500Y750
X3500Y9750
X3500Y750
X4500Y9750
X4500Y750
X5500Y9750
X5500Y750
X6500Y9750
X6500Y750
X7500Y9750
X7500Y750
X8500Y9750
X8500Y750
X9500Y9750
X9500Y750
X10500Y9750
X10500Y750
X11500Y9750
X11500Y750
X12500Y9750
X12500Y750
X13500Y9750
X13500Y750
X14500Y9750
X14500Y750
X15500Y9750
X15500Y750
X16500Y9750
X16500Y750
X17500Y9750
X17500Y750
X18500Y9750
X18500Y7750
X18500Y6750
X18500Y5750
X18500Y4750
X18500Y3750
X18500Y2750
X18500Y750
T0
M30
