G04 (created by PCBNEW-RS274X (2011-05-25)-stable) date Fri 26 Jun 2015 07:16:06 BST*
G01*
G70*
G90*
%MOIN*%
G04 Gerber Fmt 3.4, Leading zero omitted, Abs format*
%FSLAX34Y34*%
G04 APERTURE LIST*
%ADD10C,0.006000*%
%ADD11C,0.004900*%
%ADD12C,0.015000*%
%ADD13C,0.004300*%
%ADD14C,0.009900*%
%ADD15C,0.005900*%
%ADD16C,0.005000*%
%ADD17C,0.008000*%
%ADD18C,0.003500*%
%ADD19C,0.004500*%
G04 APERTURE END LIST*
G54D10*
G54D11*
X-01411Y09240D02*
X-01411Y09371D01*
X-01687Y09287D01*
X-01582Y09447D02*
X-01582Y09597D01*
X-01437Y09682D02*
X-01424Y09691D01*
X-01411Y09710D01*
X-01411Y09757D01*
X-01424Y09775D01*
X-01437Y09785D01*
X-01463Y09794D01*
X-01490Y09794D01*
X-01529Y09785D01*
X-01687Y09672D01*
X-01687Y09794D01*
X-01411Y09973D02*
X-01411Y09879D01*
X-01542Y09870D01*
X-01529Y09879D01*
X-01516Y09898D01*
X-01516Y09945D01*
X-01529Y09963D01*
X-01542Y09973D01*
X-01568Y09982D01*
X-01634Y09982D01*
X-01660Y09973D01*
X-01674Y09963D01*
X-01687Y09945D01*
X-01687Y09898D01*
X-01674Y09879D01*
X-01660Y09870D01*
X-01411Y10039D02*
X-01687Y10104D01*
X-01411Y10170D01*
X19024Y03012D02*
X19319Y02947D01*
X19024Y02881D01*
X19207Y02815D02*
X19207Y02665D01*
X19626Y02988D02*
X19640Y02960D01*
X19654Y02951D01*
X19683Y02942D01*
X19725Y02942D01*
X19753Y02951D01*
X19767Y02960D01*
X19781Y02979D01*
X19781Y03054D01*
X19486Y03054D01*
X19486Y02988D01*
X19500Y02970D01*
X19514Y02960D01*
X19542Y02951D01*
X19570Y02951D01*
X19598Y02960D01*
X19612Y02970D01*
X19626Y02988D01*
X19626Y03054D01*
X19781Y02763D02*
X19781Y02857D01*
X19486Y02857D01*
X19781Y02698D02*
X19486Y02698D01*
X19781Y02586D02*
X19612Y02670D01*
X19486Y02586D02*
X19654Y02698D01*
X19224Y04088D02*
X19224Y03976D01*
X19519Y04032D02*
X19224Y04032D01*
X19224Y03929D02*
X19519Y03798D01*
X19224Y03798D02*
X19519Y03929D01*
X19224Y03685D02*
X19224Y03666D01*
X19238Y03647D01*
X19252Y03638D01*
X19280Y03628D01*
X19336Y03619D01*
X19407Y03619D01*
X19463Y03628D01*
X19491Y03638D01*
X19505Y03647D01*
X19519Y03666D01*
X19519Y03685D01*
X19505Y03703D01*
X19491Y03713D01*
X19463Y03722D01*
X19407Y03731D01*
X19336Y03731D01*
X19280Y03722D01*
X19252Y03713D01*
X19238Y03703D01*
X19224Y03685D01*
X19252Y03543D02*
X19238Y03534D01*
X19224Y03515D01*
X19224Y03468D01*
X19238Y03450D01*
X19252Y03440D01*
X19280Y03431D01*
X19308Y03431D01*
X19350Y03440D01*
X19519Y03553D01*
X19519Y03431D01*
X19199Y04997D02*
X19199Y04875D01*
X19311Y04941D01*
X19311Y04912D01*
X19325Y04894D01*
X19339Y04884D01*
X19367Y04875D01*
X19438Y04875D01*
X19466Y04884D01*
X19480Y04894D01*
X19494Y04912D01*
X19494Y04969D01*
X19480Y04987D01*
X19466Y04997D01*
X19185Y04649D02*
X19564Y04818D01*
X19199Y04490D02*
X19199Y04584D01*
X19339Y04593D01*
X19325Y04584D01*
X19311Y04565D01*
X19311Y04518D01*
X19325Y04500D01*
X19339Y04490D01*
X19367Y04481D01*
X19438Y04481D01*
X19466Y04490D01*
X19480Y04500D01*
X19494Y04518D01*
X19494Y04565D01*
X19480Y04584D01*
X19466Y04593D01*
X19199Y04424D02*
X19494Y04359D01*
X19199Y04293D01*
X03853Y-00032D02*
X03703Y-00032D01*
X03778Y-00144D02*
X03778Y00081D01*
X03515Y00151D02*
X03609Y00151D01*
X03618Y00011D01*
X03609Y00025D01*
X03590Y00039D01*
X03543Y00039D01*
X03525Y00025D01*
X03515Y00011D01*
X03506Y-00017D01*
X03506Y-00088D01*
X03515Y-00116D01*
X03525Y-00130D01*
X03543Y-00144D01*
X03590Y-00144D01*
X03609Y-00130D01*
X03618Y-00116D01*
X03449Y00151D02*
X03384Y-00144D01*
X03318Y00151D01*
X02388Y00150D02*
X02374Y00169D01*
X02374Y00197D01*
X02388Y00225D01*
X02416Y00244D01*
X02444Y00253D01*
X02500Y00262D01*
X02542Y00262D01*
X02599Y00253D01*
X02627Y00244D01*
X02655Y00225D01*
X02669Y00197D01*
X02669Y00178D01*
X02655Y00150D01*
X02641Y00141D01*
X02542Y00141D01*
X02542Y00178D01*
X02669Y00056D02*
X02374Y00056D01*
X02669Y-00056D01*
X02374Y-00056D01*
X02669Y-00150D02*
X02374Y-00150D01*
X02374Y-00197D01*
X02388Y-00225D01*
X02416Y-00244D01*
X02444Y-00253D01*
X02500Y-00262D01*
X02542Y-00262D01*
X02599Y-00253D01*
X02627Y-00244D01*
X02655Y-00225D01*
X02669Y-00197D01*
X02669Y-00150D01*
X02117Y00126D02*
X02052Y-00169D01*
X01986Y00126D01*
X01920Y-00169D02*
X01920Y00126D01*
X01826Y-00169D02*
X01826Y00126D01*
X01779Y00126D01*
X01751Y00112D01*
X01732Y00084D01*
X01723Y00056D01*
X01714Y00000D01*
X01714Y-00042D01*
X01723Y-00099D01*
X01732Y-00127D01*
X01751Y-00155D01*
X01779Y-00169D01*
X01826Y-00169D01*
X01592Y00126D02*
X01554Y00126D01*
X01535Y00112D01*
X01517Y00084D01*
X01507Y00028D01*
X01507Y-00071D01*
X01517Y-00127D01*
X01535Y-00155D01*
X01554Y-00169D01*
X01592Y-00169D01*
X01610Y-00155D01*
X01629Y-00127D01*
X01638Y-00071D01*
X01638Y00028D01*
X01629Y00084D01*
X01610Y00112D01*
X01592Y00126D01*
X01423Y-00057D02*
X01273Y-00057D01*
X01348Y-00169D02*
X01348Y00056D01*
X01207Y00126D02*
X01142Y-00169D01*
X01076Y00126D01*
X01010Y-00169D02*
X01010Y00126D01*
X10375Y10288D02*
X10356Y10274D01*
X10328Y10274D01*
X10300Y10288D01*
X10281Y10316D01*
X10272Y10344D01*
X10263Y10400D01*
X10263Y10442D01*
X10272Y10499D01*
X10281Y10527D01*
X10300Y10555D01*
X10328Y10569D01*
X10347Y10569D01*
X10375Y10555D01*
X10384Y10541D01*
X10384Y10442D01*
X10347Y10442D01*
X10469Y10569D02*
X10469Y10274D01*
X10581Y10569D01*
X10581Y10274D01*
X10675Y10569D02*
X10675Y10274D01*
X10722Y10274D01*
X10750Y10288D01*
X10769Y10316D01*
X10778Y10344D01*
X10787Y10400D01*
X10787Y10442D01*
X10778Y10499D01*
X10769Y10527D01*
X10750Y10555D01*
X10722Y10569D01*
X10675Y10569D01*
X06350Y10313D02*
X06331Y10299D01*
X06303Y10299D01*
X06275Y10313D01*
X06256Y10341D01*
X06247Y10369D01*
X06238Y10425D01*
X06238Y10467D01*
X06247Y10524D01*
X06256Y10552D01*
X06275Y10580D01*
X06303Y10594D01*
X06322Y10594D01*
X06350Y10580D01*
X06359Y10566D01*
X06359Y10467D01*
X06322Y10467D01*
X06444Y10594D02*
X06444Y10299D01*
X06556Y10594D01*
X06556Y10299D01*
X06650Y10594D02*
X06650Y10299D01*
X06697Y10299D01*
X06725Y10313D01*
X06744Y10341D01*
X06753Y10369D01*
X06762Y10425D01*
X06762Y10467D01*
X06753Y10524D01*
X06744Y10552D01*
X06725Y10580D01*
X06697Y10594D01*
X06650Y10594D01*
X03325Y10313D02*
X03306Y10299D01*
X03278Y10299D01*
X03250Y10313D01*
X03231Y10341D01*
X03222Y10369D01*
X03213Y10425D01*
X03213Y10467D01*
X03222Y10524D01*
X03231Y10552D01*
X03250Y10580D01*
X03278Y10594D01*
X03297Y10594D01*
X03325Y10580D01*
X03334Y10566D01*
X03334Y10467D01*
X03297Y10467D01*
X03419Y10594D02*
X03419Y10299D01*
X03531Y10594D01*
X03531Y10299D01*
X03625Y10594D02*
X03625Y10299D01*
X03672Y10299D01*
X03700Y10313D01*
X03719Y10341D01*
X03728Y10369D01*
X03737Y10425D01*
X03737Y10467D01*
X03728Y10524D01*
X03719Y10552D01*
X03700Y10580D01*
X03672Y10594D01*
X03625Y10594D01*
G54D12*
X20100Y09750D02*
X18900Y10950D01*
X-01050Y10950D02*
X18900Y10950D01*
X-02100Y00950D02*
X-02100Y09900D01*
X20100Y00850D02*
X18700Y-00550D01*
X20100Y09750D02*
X20100Y00850D01*
X-00700Y-00550D02*
X18700Y-00550D01*
X-02100Y00950D02*
X-00700Y-00550D01*
X-02100Y09900D02*
X-01050Y10950D01*
G54D11*
X00538Y00100D02*
X00524Y00119D01*
X00524Y00147D01*
X00538Y00175D01*
X00566Y00194D01*
X00594Y00203D01*
X00650Y00212D01*
X00692Y00212D01*
X00749Y00203D01*
X00777Y00194D01*
X00805Y00175D01*
X00819Y00147D01*
X00819Y00128D01*
X00805Y00100D01*
X00791Y00091D01*
X00692Y00091D01*
X00692Y00128D01*
X00819Y00006D02*
X00524Y00006D01*
X00819Y-00106D01*
X00524Y-00106D01*
X00819Y-00200D02*
X00524Y-00200D01*
X00524Y-00247D01*
X00538Y-00275D01*
X00566Y-00294D01*
X00594Y-00303D01*
X00650Y-00312D01*
X00692Y-00312D01*
X00749Y-00303D01*
X00777Y-00294D01*
X00805Y-00275D01*
X00819Y-00247D01*
X00819Y-00200D01*
X-01050Y08912D02*
X-01031Y08926D01*
X-01003Y08926D01*
X-00975Y08912D01*
X-00956Y08884D01*
X-00947Y08856D01*
X-00938Y08800D01*
X-00938Y08758D01*
X-00947Y08701D01*
X-00956Y08673D01*
X-00975Y08645D01*
X-01003Y08631D01*
X-01022Y08631D01*
X-01050Y08645D01*
X-01059Y08659D01*
X-01059Y08758D01*
X-01022Y08758D01*
X-01144Y08631D02*
X-01144Y08926D01*
X-01256Y08631D01*
X-01256Y08926D01*
X-01350Y08631D02*
X-01350Y08926D01*
X-01397Y08926D01*
X-01425Y08912D01*
X-01444Y08884D01*
X-01453Y08856D01*
X-01462Y08800D01*
X-01462Y08758D01*
X-01453Y08701D01*
X-01444Y08673D01*
X-01425Y08645D01*
X-01397Y08631D01*
X-01350Y08631D01*
X-00999Y09463D02*
X-01294Y09528D01*
X-00999Y09594D01*
X-01294Y09660D02*
X-00999Y09660D01*
X-01294Y09754D02*
X-00999Y09754D01*
X-01294Y09866D01*
X-00999Y09866D01*
X-01182Y09960D02*
X-01182Y10110D01*
X-01294Y10035D02*
X-01069Y10035D01*
G54D13*
X00787Y10344D02*
X00801Y10327D01*
X00801Y10303D01*
X00787Y10278D01*
X00759Y10261D01*
X00731Y10253D01*
X00675Y10245D01*
X00633Y10245D01*
X00576Y10253D01*
X00548Y10261D01*
X00520Y10278D01*
X00506Y10303D01*
X00506Y10319D01*
X00520Y10344D01*
X00534Y10352D01*
X00633Y10352D01*
X00633Y10319D01*
X00506Y10426D02*
X00801Y10426D01*
X00506Y10525D01*
X00801Y10525D01*
X00506Y10607D02*
X00801Y10607D01*
X00801Y10648D01*
X00787Y10673D01*
X00759Y10690D01*
X00731Y10698D01*
X00675Y10706D01*
X00633Y10706D01*
X00576Y10698D01*
X00548Y10690D01*
X00520Y10673D01*
X00506Y10648D01*
X00506Y10607D01*
X01286Y10594D02*
X01286Y10299D01*
X01352Y10299D01*
X01369Y10313D01*
X01377Y10327D01*
X01385Y10355D01*
X01385Y10397D01*
X01377Y10425D01*
X01369Y10439D01*
X01352Y10453D01*
X01286Y10453D01*
X01517Y10439D02*
X01542Y10453D01*
X01550Y10467D01*
X01558Y10496D01*
X01558Y10538D01*
X01550Y10566D01*
X01542Y10580D01*
X01525Y10594D01*
X01459Y10594D01*
X01459Y10299D01*
X01517Y10299D01*
X01533Y10313D01*
X01542Y10327D01*
X01550Y10355D01*
X01550Y10383D01*
X01542Y10411D01*
X01533Y10425D01*
X01517Y10439D01*
X01459Y10439D01*
X01640Y10594D02*
X01673Y10594D01*
X01690Y10580D01*
X01698Y10566D01*
X01715Y10524D01*
X01723Y10467D01*
X01723Y10355D01*
X01715Y10327D01*
X01706Y10313D01*
X01690Y10299D01*
X01657Y10299D01*
X01640Y10313D01*
X01632Y10327D01*
X01624Y10355D01*
X01624Y10425D01*
X01632Y10453D01*
X01640Y10467D01*
X01657Y10482D01*
X01690Y10482D01*
X01706Y10467D01*
X01715Y10453D01*
X01723Y10425D01*
G54D14*
X11420Y06241D02*
X11392Y06278D01*
X11336Y06316D01*
X11251Y06372D01*
X11223Y06409D01*
X11223Y06447D01*
X11364Y06428D02*
X11336Y06466D01*
X11279Y06503D01*
X11167Y06522D01*
X10970Y06522D01*
X10857Y06503D01*
X10801Y06466D01*
X10773Y06428D01*
X10773Y06353D01*
X10801Y06316D01*
X10857Y06278D01*
X10970Y06259D01*
X11167Y06259D01*
X11279Y06278D01*
X11336Y06316D01*
X11364Y06353D01*
X11364Y06428D01*
X10970Y05921D02*
X11364Y05921D01*
X10970Y06090D02*
X11279Y06090D01*
X11336Y06071D01*
X11364Y06034D01*
X11364Y05978D01*
X11336Y05940D01*
X11307Y05921D01*
X11364Y05565D02*
X11054Y05565D01*
X10998Y05584D01*
X10970Y05622D01*
X10970Y05697D01*
X10998Y05734D01*
X11336Y05565D02*
X11364Y05603D01*
X11364Y05697D01*
X11336Y05734D01*
X11279Y05753D01*
X11223Y05753D01*
X11167Y05734D01*
X11139Y05697D01*
X11139Y05603D01*
X11110Y05565D01*
X10970Y05378D02*
X11364Y05378D01*
X11026Y05378D02*
X10998Y05359D01*
X10970Y05322D01*
X10970Y05266D01*
X10998Y05228D01*
X11054Y05209D01*
X11364Y05209D01*
X10970Y05078D02*
X10970Y04928D01*
X10773Y05022D02*
X11279Y05022D01*
X11336Y05003D01*
X11364Y04966D01*
X11364Y04928D01*
X11364Y04797D02*
X10970Y04797D01*
X11082Y04797D02*
X11026Y04778D01*
X10998Y04760D01*
X10970Y04722D01*
X10970Y04685D01*
X11364Y04384D02*
X11054Y04384D01*
X10998Y04403D01*
X10970Y04441D01*
X10970Y04516D01*
X10998Y04553D01*
X11336Y04384D02*
X11364Y04422D01*
X11364Y04516D01*
X11336Y04553D01*
X11279Y04572D01*
X11223Y04572D01*
X11167Y04553D01*
X11139Y04516D01*
X11139Y04422D01*
X11110Y04384D01*
X11336Y04028D02*
X11364Y04066D01*
X11364Y04141D01*
X11336Y04178D01*
X11307Y04197D01*
X11251Y04216D01*
X11082Y04216D01*
X11026Y04197D01*
X10998Y04178D01*
X10970Y04141D01*
X10970Y04066D01*
X10998Y04028D01*
X11364Y03859D02*
X10773Y03859D01*
X11139Y03822D02*
X11364Y03709D01*
X10970Y03709D02*
X11195Y03859D01*
X11336Y03390D02*
X11364Y03428D01*
X11364Y03503D01*
X11336Y03540D01*
X11279Y03559D01*
X11054Y03559D01*
X10998Y03540D01*
X10970Y03503D01*
X10970Y03428D01*
X10998Y03390D01*
X11054Y03371D01*
X11110Y03371D01*
X11167Y03559D01*
X11364Y03202D02*
X10970Y03202D01*
X11082Y03202D02*
X11026Y03183D01*
X10998Y03165D01*
X10970Y03127D01*
X10970Y03090D01*
X12121Y06026D02*
X12121Y05838D01*
X12290Y06063D02*
X11699Y05932D01*
X12290Y05801D01*
X12290Y05669D02*
X11896Y05669D01*
X11699Y05669D02*
X11727Y05688D01*
X11755Y05669D01*
X11727Y05650D01*
X11699Y05669D01*
X11755Y05669D01*
X12290Y05481D02*
X11896Y05481D01*
X12008Y05481D02*
X11952Y05462D01*
X11924Y05444D01*
X11896Y05406D01*
X11896Y05369D01*
X11699Y04562D02*
X11699Y04487D01*
X11727Y04450D01*
X11783Y04412D01*
X11896Y04393D01*
X12093Y04393D01*
X12205Y04412D01*
X12262Y04450D01*
X12290Y04487D01*
X12290Y04562D01*
X12262Y04600D01*
X12205Y04637D01*
X12093Y04656D01*
X11896Y04656D01*
X11783Y04637D01*
X11727Y04600D01*
X11699Y04562D01*
X12262Y04243D02*
X12290Y04187D01*
X12290Y04093D01*
X12262Y04055D01*
X12233Y04037D01*
X12177Y04018D01*
X12121Y04018D01*
X12065Y04037D01*
X12036Y04055D01*
X12008Y04093D01*
X11980Y04168D01*
X11952Y04205D01*
X11924Y04224D01*
X11868Y04243D01*
X11811Y04243D01*
X11755Y04224D01*
X11727Y04205D01*
X11699Y04168D01*
X11699Y04074D01*
X11727Y04018D01*
X12290Y03849D02*
X11699Y03849D01*
X11699Y03755D01*
X11727Y03699D01*
X11783Y03662D01*
X11839Y03643D01*
X11952Y03624D01*
X12036Y03624D01*
X12149Y03643D01*
X12205Y03662D01*
X12262Y03699D01*
X12290Y03755D01*
X12290Y03849D01*
X12625Y05425D02*
X13216Y05294D01*
X12625Y05163D01*
X12681Y05050D02*
X12653Y05031D01*
X12625Y04994D01*
X12625Y04900D01*
X12653Y04862D01*
X12681Y04844D01*
X12737Y04825D01*
X12794Y04825D01*
X12878Y04844D01*
X13216Y05069D01*
X13216Y04825D01*
X13159Y04656D02*
X13188Y04637D01*
X13216Y04656D01*
X13188Y04675D01*
X13159Y04656D01*
X13216Y04656D01*
X12681Y04487D02*
X12653Y04468D01*
X12625Y04431D01*
X12625Y04337D01*
X12653Y04299D01*
X12681Y04281D01*
X12737Y04262D01*
X12794Y04262D01*
X12878Y04281D01*
X13216Y04506D01*
X13216Y04262D01*
G54D12*
X15500Y02250D02*
X15000Y01750D01*
X15500Y08250D02*
X15500Y02250D01*
X15000Y08750D02*
X15500Y08250D01*
X17000Y02250D02*
X19000Y02250D01*
X16000Y03250D02*
X17000Y02250D01*
X17000Y08250D02*
X19000Y08250D01*
X16000Y07250D02*
X17000Y08250D01*
X16000Y07250D02*
X16000Y03250D01*
G54D13*
X16635Y06896D02*
X16340Y06896D01*
X16340Y06855D01*
X16354Y06830D01*
X16382Y06813D01*
X16410Y06805D01*
X16466Y06797D01*
X16508Y06797D01*
X16565Y06805D01*
X16593Y06813D01*
X16621Y06830D01*
X16635Y06855D01*
X16635Y06896D01*
X16635Y06723D02*
X16340Y06723D01*
X16354Y06550D02*
X16340Y06567D01*
X16340Y06591D01*
X16354Y06616D01*
X16382Y06633D01*
X16410Y06641D01*
X16466Y06649D01*
X16508Y06649D01*
X16565Y06641D01*
X16593Y06633D01*
X16621Y06616D01*
X16635Y06591D01*
X16635Y06575D01*
X16621Y06550D01*
X16607Y06542D01*
X16508Y06542D01*
X16508Y06575D01*
X16635Y06468D02*
X16340Y06468D01*
X16340Y06411D02*
X16340Y06312D01*
X16635Y06361D02*
X16340Y06361D01*
X16551Y06262D02*
X16551Y06180D01*
X16635Y06279D02*
X16340Y06221D01*
X16635Y06163D01*
X16635Y06023D02*
X16635Y06106D01*
X16340Y06106D01*
X16635Y05883D02*
X16635Y05966D01*
X16340Y05966D01*
X16494Y05793D02*
X16635Y05793D01*
X16340Y05851D02*
X16494Y05793D01*
X16340Y05735D01*
X16635Y05546D02*
X16340Y05546D01*
X16621Y05472D02*
X16635Y05447D01*
X16635Y05406D01*
X16621Y05390D01*
X16607Y05381D01*
X16579Y05373D01*
X16551Y05373D01*
X16523Y05381D01*
X16508Y05390D01*
X16494Y05406D01*
X16480Y05439D01*
X16466Y05456D01*
X16452Y05464D01*
X16424Y05472D01*
X16396Y05472D01*
X16368Y05464D01*
X16354Y05456D01*
X16340Y05439D01*
X16340Y05398D01*
X16354Y05373D01*
X16340Y05266D02*
X16340Y05233D01*
X16354Y05216D01*
X16382Y05200D01*
X16438Y05192D01*
X16537Y05192D01*
X16593Y05200D01*
X16621Y05216D01*
X16635Y05233D01*
X16635Y05266D01*
X16621Y05282D01*
X16593Y05299D01*
X16537Y05307D01*
X16438Y05307D01*
X16382Y05299D01*
X16354Y05282D01*
X16340Y05266D01*
X16635Y05035D02*
X16635Y05118D01*
X16340Y05118D01*
X16551Y04986D02*
X16551Y04904D01*
X16635Y05003D02*
X16340Y04945D01*
X16635Y04887D01*
X16340Y04855D02*
X16340Y04756D01*
X16635Y04805D02*
X16340Y04805D01*
X16480Y04698D02*
X16480Y04640D01*
X16635Y04615D02*
X16635Y04698D01*
X16340Y04698D01*
X16340Y04615D01*
X16635Y04541D02*
X16340Y04541D01*
X16340Y04500D01*
X16354Y04475D01*
X16382Y04458D01*
X16410Y04450D01*
X16466Y04442D01*
X16508Y04442D01*
X16565Y04450D01*
X16593Y04458D01*
X16621Y04475D01*
X16635Y04500D01*
X16635Y04541D01*
X16635Y04236D02*
X16340Y04236D01*
X16340Y04170D01*
X16354Y04153D01*
X16368Y04145D01*
X16396Y04137D01*
X16438Y04137D01*
X16466Y04145D01*
X16480Y04153D01*
X16494Y04170D01*
X16494Y04236D01*
X16340Y04030D02*
X16340Y03997D01*
X16354Y03980D01*
X16382Y03964D01*
X16438Y03956D01*
X16537Y03956D01*
X16593Y03964D01*
X16621Y03980D01*
X16635Y03997D01*
X16635Y04030D01*
X16621Y04046D01*
X16593Y04063D01*
X16537Y04071D01*
X16438Y04071D01*
X16382Y04063D01*
X16354Y04046D01*
X16340Y04030D01*
X16635Y03783D02*
X16494Y03841D01*
X16635Y03882D02*
X16340Y03882D01*
X16340Y03816D01*
X16354Y03799D01*
X16368Y03791D01*
X16396Y03783D01*
X16438Y03783D01*
X16466Y03791D01*
X16480Y03799D01*
X16494Y03816D01*
X16494Y03882D01*
X16340Y03734D02*
X16340Y03635D01*
X16635Y03684D02*
X16340Y03684D01*
X19494Y07852D02*
X19353Y07910D01*
X19494Y07951D02*
X19199Y07951D01*
X19199Y07885D01*
X19213Y07868D01*
X19227Y07860D01*
X19255Y07852D01*
X19297Y07852D01*
X19325Y07860D01*
X19339Y07868D01*
X19353Y07885D01*
X19353Y07951D01*
X19199Y07794D02*
X19494Y07679D01*
X19199Y07679D02*
X19494Y07794D01*
X19494Y07613D02*
X19199Y07613D01*
X19227Y07539D02*
X19213Y07531D01*
X19199Y07514D01*
X19199Y07473D01*
X19213Y07457D01*
X19227Y07448D01*
X19255Y07440D01*
X19283Y07440D01*
X19325Y07448D01*
X19494Y07547D01*
X19494Y07440D01*
X19199Y06898D02*
X19199Y06799D01*
X19494Y06848D02*
X19199Y06848D01*
X19199Y06757D02*
X19494Y06642D01*
X19199Y06642D02*
X19494Y06757D01*
X19199Y06543D02*
X19199Y06510D01*
X19213Y06493D01*
X19241Y06477D01*
X19297Y06469D01*
X19396Y06469D01*
X19452Y06477D01*
X19480Y06493D01*
X19494Y06510D01*
X19494Y06543D01*
X19480Y06559D01*
X19452Y06576D01*
X19396Y06584D01*
X19297Y06584D01*
X19241Y06576D01*
X19213Y06559D01*
X19199Y06543D01*
X19494Y05795D02*
X19353Y05853D01*
X19494Y05894D02*
X19199Y05894D01*
X19199Y05828D01*
X19213Y05811D01*
X19227Y05803D01*
X19255Y05795D01*
X19297Y05795D01*
X19325Y05803D01*
X19339Y05811D01*
X19353Y05828D01*
X19353Y05894D01*
X19199Y05737D02*
X19494Y05622D01*
X19199Y05622D02*
X19494Y05737D01*
X19494Y05556D02*
X19199Y05556D01*
X-01138Y02594D02*
X-01124Y02577D01*
X-01124Y02553D01*
X-01138Y02528D01*
X-01166Y02511D01*
X-01194Y02503D01*
X-01250Y02495D01*
X-01292Y02495D01*
X-01349Y02503D01*
X-01377Y02511D01*
X-01405Y02528D01*
X-01419Y02553D01*
X-01419Y02569D01*
X-01405Y02594D01*
X-01391Y02602D01*
X-01292Y02602D01*
X-01292Y02569D01*
X-01419Y02676D02*
X-01124Y02676D01*
X-01419Y02775D01*
X-01124Y02775D01*
X-01419Y02857D02*
X-01124Y02857D01*
X-01124Y02898D01*
X-01138Y02923D01*
X-01166Y02940D01*
X-01194Y02948D01*
X-01250Y02956D01*
X-01292Y02956D01*
X-01349Y02948D01*
X-01377Y02940D01*
X-01405Y02923D01*
X-01419Y02898D01*
X-01419Y02857D01*
X00969Y02588D02*
X00952Y02574D01*
X00928Y02574D01*
X00903Y02588D01*
X00886Y02616D01*
X00878Y02644D01*
X00870Y02700D01*
X00870Y02742D01*
X00878Y02799D01*
X00886Y02827D01*
X00903Y02855D01*
X00928Y02869D01*
X00944Y02869D01*
X00969Y02855D01*
X00977Y02841D01*
X00977Y02742D01*
X00944Y02742D01*
X01051Y02869D02*
X01051Y02574D01*
X01150Y02869D01*
X01150Y02574D01*
X01232Y02869D02*
X01232Y02574D01*
X01273Y02574D01*
X01298Y02588D01*
X01315Y02616D01*
X01323Y02644D01*
X01331Y02700D01*
X01331Y02742D01*
X01323Y02799D01*
X01315Y02827D01*
X01298Y02855D01*
X01273Y02869D01*
X01232Y02869D01*
X01848Y03626D02*
X01790Y03331D01*
X01732Y03626D01*
X01675Y03331D02*
X01675Y03626D01*
X01593Y03331D02*
X01593Y03626D01*
X01552Y03626D01*
X01527Y03612D01*
X01510Y03584D01*
X01502Y03556D01*
X01494Y03500D01*
X01494Y03458D01*
X01502Y03401D01*
X01510Y03373D01*
X01527Y03345D01*
X01552Y03331D01*
X01593Y03331D01*
X01420Y03331D02*
X01420Y03626D01*
X01338Y03443D02*
X01206Y03443D01*
X01272Y03331D02*
X01272Y03556D01*
X01149Y03626D02*
X01091Y03331D01*
X01033Y03626D01*
X00976Y03331D02*
X00976Y03626D01*
X-01124Y03178D02*
X-01419Y03236D01*
X-01124Y03294D01*
X-01419Y03351D02*
X-01124Y03351D01*
X-01419Y03433D02*
X-01124Y03433D01*
X-01124Y03474D01*
X-01138Y03499D01*
X-01166Y03516D01*
X-01194Y03524D01*
X-01250Y03532D01*
X-01292Y03532D01*
X-01349Y03524D01*
X-01377Y03516D01*
X-01405Y03499D01*
X-01419Y03474D01*
X-01419Y03433D01*
X-01124Y03639D02*
X-01124Y03672D01*
X-01138Y03689D01*
X-01166Y03705D01*
X-01222Y03713D01*
X-01321Y03713D01*
X-01377Y03705D01*
X-01405Y03689D01*
X-01419Y03672D01*
X-01419Y03639D01*
X-01405Y03623D01*
X-01377Y03606D01*
X-01321Y03598D01*
X-01222Y03598D01*
X-01166Y03606D01*
X-01138Y03623D01*
X-01124Y03639D01*
X-01307Y03787D02*
X-01307Y03919D01*
X-01419Y03853D02*
X-01194Y03853D01*
X-01124Y03976D02*
X-01419Y04034D01*
X-01124Y04092D01*
X-01124Y04182D02*
X-01124Y04215D01*
X-01138Y04232D01*
X-01166Y04248D01*
X-01222Y04256D01*
X-01321Y04256D01*
X-01377Y04248D01*
X-01405Y04232D01*
X-01419Y04215D01*
X-01419Y04182D01*
X-01405Y04166D01*
X-01377Y04149D01*
X-01321Y04141D01*
X-01222Y04141D01*
X-01166Y04149D01*
X-01138Y04166D01*
X-01124Y04182D01*
X00826Y05526D02*
X00768Y05231D01*
X00710Y05526D01*
X00653Y05231D02*
X00653Y05526D01*
X00571Y05231D02*
X00571Y05526D01*
X00530Y05526D01*
X00505Y05512D01*
X00488Y05484D01*
X00480Y05456D01*
X00472Y05400D01*
X00472Y05358D01*
X00480Y05301D01*
X00488Y05273D01*
X00505Y05245D01*
X00530Y05231D01*
X00571Y05231D01*
X00398Y05231D02*
X00398Y05526D01*
X-01149Y04499D02*
X-01444Y04557D01*
X-01149Y04615D01*
X-01444Y04672D02*
X-01149Y04672D01*
X-01444Y04754D02*
X-01149Y04754D01*
X-01149Y04795D01*
X-01163Y04820D01*
X-01191Y04837D01*
X-01219Y04845D01*
X-01275Y04853D01*
X-01317Y04853D01*
X-01374Y04845D01*
X-01402Y04837D01*
X-01430Y04820D01*
X-01444Y04795D01*
X-01444Y04754D01*
X-01149Y04960D02*
X-01149Y04993D01*
X-01163Y05010D01*
X-01191Y05026D01*
X-01247Y05034D01*
X-01346Y05034D01*
X-01402Y05026D01*
X-01430Y05010D01*
X-01444Y04993D01*
X-01444Y04960D01*
X-01430Y04944D01*
X-01402Y04927D01*
X-01346Y04919D01*
X-01247Y04919D01*
X-01191Y04927D01*
X-01163Y04944D01*
X-01149Y04960D01*
X-01410Y05446D02*
X-01410Y05528D01*
X-01494Y05429D02*
X-01199Y05487D01*
X-01494Y05545D01*
X-01199Y05602D02*
X-01438Y05602D01*
X-01466Y05610D01*
X-01480Y05619D01*
X-01494Y05635D01*
X-01494Y05668D01*
X-01480Y05685D01*
X-01466Y05693D01*
X-01438Y05701D01*
X-01199Y05701D01*
X-01494Y05783D02*
X-01199Y05783D01*
X-01199Y05824D01*
X-01213Y05849D01*
X-01241Y05866D01*
X-01269Y05874D01*
X-01325Y05882D01*
X-01367Y05882D01*
X-01424Y05874D01*
X-01452Y05866D01*
X-01480Y05849D01*
X-01494Y05824D01*
X-01494Y05783D01*
X-01494Y06055D02*
X-01353Y05997D01*
X-01494Y05956D02*
X-01199Y05956D01*
X-01199Y06022D01*
X-01213Y06039D01*
X-01227Y06047D01*
X-01255Y06055D01*
X-01297Y06055D01*
X-01325Y06047D01*
X-01339Y06039D01*
X-01353Y06022D01*
X-01353Y05956D01*
X-01410Y06487D02*
X-01410Y06569D01*
X-01494Y06470D02*
X-01199Y06528D01*
X-01494Y06586D01*
X-01199Y06643D02*
X-01438Y06643D01*
X-01466Y06651D01*
X-01480Y06660D01*
X-01494Y06676D01*
X-01494Y06709D01*
X-01480Y06726D01*
X-01466Y06734D01*
X-01438Y06742D01*
X-01199Y06742D01*
X-01494Y06824D02*
X-01199Y06824D01*
X-01199Y06865D01*
X-01213Y06890D01*
X-01241Y06907D01*
X-01269Y06915D01*
X-01325Y06923D01*
X-01367Y06923D01*
X-01424Y06915D01*
X-01452Y06907D01*
X-01480Y06890D01*
X-01494Y06865D01*
X-01494Y06824D01*
X-01494Y07080D02*
X-01494Y06997D01*
X-01199Y06997D01*
X19256Y01262D02*
X19273Y01276D01*
X19297Y01276D01*
X19322Y01262D01*
X19339Y01234D01*
X19347Y01206D01*
X19355Y01150D01*
X19355Y01108D01*
X19347Y01051D01*
X19339Y01023D01*
X19322Y00995D01*
X19297Y00981D01*
X19281Y00981D01*
X19256Y00995D01*
X19248Y01009D01*
X19248Y01108D01*
X19281Y01108D01*
X19174Y00981D02*
X19174Y01276D01*
X19075Y00981D01*
X19075Y01276D01*
X18993Y00981D02*
X18993Y01276D01*
X18952Y01276D01*
X18927Y01262D01*
X18910Y01234D01*
X18902Y01206D01*
X18894Y01150D01*
X18894Y01108D01*
X18902Y01051D01*
X18910Y01023D01*
X18927Y00995D01*
X18952Y00981D01*
X18993Y00981D01*
X17727Y01256D02*
X17727Y01551D01*
X17661Y01551D01*
X17644Y01537D01*
X17636Y01523D01*
X17628Y01495D01*
X17628Y01453D01*
X17636Y01425D01*
X17644Y01411D01*
X17661Y01397D01*
X17727Y01397D01*
X17562Y01340D02*
X17480Y01340D01*
X17579Y01256D02*
X17521Y01551D01*
X17463Y01256D01*
X17381Y01425D02*
X17398Y01439D01*
X17406Y01453D01*
X17414Y01481D01*
X17414Y01495D01*
X17406Y01523D01*
X17398Y01537D01*
X17381Y01551D01*
X17348Y01551D01*
X17332Y01537D01*
X17323Y01523D01*
X17315Y01495D01*
X17315Y01481D01*
X17323Y01453D01*
X17332Y01439D01*
X17348Y01425D01*
X17381Y01425D01*
X17398Y01411D01*
X17406Y01397D01*
X17414Y01368D01*
X17414Y01312D01*
X17406Y01284D01*
X17398Y01270D01*
X17381Y01256D01*
X17348Y01256D01*
X17332Y01270D01*
X17323Y01284D01*
X17315Y01312D01*
X17315Y01368D01*
X17323Y01397D01*
X17332Y01411D01*
X17348Y01425D01*
X16689Y-00144D02*
X16689Y00151D01*
X16623Y00151D01*
X16606Y00137D01*
X16598Y00123D01*
X16590Y00095D01*
X16590Y00053D01*
X16598Y00025D01*
X16606Y00011D01*
X16623Y-00003D01*
X16689Y-00003D01*
X16417Y-00116D02*
X16425Y-00130D01*
X16450Y-00144D01*
X16466Y-00144D01*
X16491Y-00130D01*
X16508Y-00102D01*
X16516Y-00074D01*
X16524Y-00017D01*
X16524Y00025D01*
X16516Y00081D01*
X16508Y00109D01*
X16491Y00137D01*
X16466Y00151D01*
X16450Y00151D01*
X16425Y00137D01*
X16417Y00123D01*
X16335Y-00144D02*
X16302Y-00144D01*
X16285Y-00130D01*
X16277Y-00116D01*
X16260Y-00074D01*
X16252Y-00017D01*
X16252Y00095D01*
X16260Y00123D01*
X16269Y00137D01*
X16285Y00151D01*
X16318Y00151D01*
X16335Y00137D01*
X16343Y00123D01*
X16351Y00095D01*
X16351Y00025D01*
X16343Y-00003D01*
X16335Y-00017D01*
X16318Y-00032D01*
X16285Y-00032D01*
X16269Y-00017D01*
X16260Y-00003D01*
X16252Y00025D01*
X15714Y-00144D02*
X15714Y00151D01*
X15648Y00151D01*
X15631Y00137D01*
X15623Y00123D01*
X15615Y00095D01*
X15615Y00053D01*
X15623Y00025D01*
X15631Y00011D01*
X15648Y-00003D01*
X15714Y-00003D01*
X15442Y-00116D02*
X15450Y-00130D01*
X15475Y-00144D01*
X15491Y-00144D01*
X15516Y-00130D01*
X15533Y-00102D01*
X15541Y-00074D01*
X15549Y-00017D01*
X15549Y00025D01*
X15541Y00081D01*
X15533Y00109D01*
X15516Y00137D01*
X15491Y00151D01*
X15475Y00151D01*
X15450Y00137D01*
X15442Y00123D01*
X15285Y00151D02*
X15368Y00151D01*
X15376Y00011D01*
X15368Y00025D01*
X15351Y00039D01*
X15310Y00039D01*
X15294Y00025D01*
X15285Y00011D01*
X15277Y-00017D01*
X15277Y-00088D01*
X15285Y-00116D01*
X15294Y-00130D01*
X15310Y-00144D01*
X15351Y-00144D01*
X15368Y-00130D01*
X15376Y-00116D01*
X14689Y-00144D02*
X14689Y00151D01*
X14623Y00151D01*
X14606Y00137D01*
X14598Y00123D01*
X14590Y00095D01*
X14590Y00053D01*
X14598Y00025D01*
X14606Y00011D01*
X14623Y-00003D01*
X14689Y-00003D01*
X14417Y-00116D02*
X14425Y-00130D01*
X14450Y-00144D01*
X14466Y-00144D01*
X14491Y-00130D01*
X14508Y-00102D01*
X14516Y-00074D01*
X14524Y-00017D01*
X14524Y00025D01*
X14516Y00081D01*
X14508Y00109D01*
X14491Y00137D01*
X14466Y00151D01*
X14450Y00151D01*
X14425Y00137D01*
X14417Y00123D01*
X14269Y00053D02*
X14269Y-00144D01*
X14310Y00165D02*
X14351Y-00046D01*
X14244Y-00046D01*
X13714Y-00119D02*
X13714Y00176D01*
X13648Y00176D01*
X13631Y00162D01*
X13623Y00148D01*
X13615Y00120D01*
X13615Y00078D01*
X13623Y00050D01*
X13631Y00036D01*
X13648Y00022D01*
X13714Y00022D01*
X13442Y-00091D02*
X13450Y-00105D01*
X13475Y-00119D01*
X13491Y-00119D01*
X13516Y-00105D01*
X13533Y-00077D01*
X13541Y-00049D01*
X13549Y00008D01*
X13549Y00050D01*
X13541Y00106D01*
X13533Y00134D01*
X13516Y00162D01*
X13491Y00176D01*
X13475Y00176D01*
X13450Y00162D01*
X13442Y00148D01*
X13384Y00176D02*
X13277Y00176D01*
X13335Y00064D01*
X13310Y00064D01*
X13294Y00050D01*
X13285Y00036D01*
X13277Y00008D01*
X13277Y-00063D01*
X13285Y-00091D01*
X13294Y-00105D01*
X13310Y-00119D01*
X13360Y-00119D01*
X13376Y-00105D01*
X13384Y-00091D01*
X11727Y-00119D02*
X11727Y00176D01*
X11661Y00176D01*
X11644Y00162D01*
X11636Y00148D01*
X11628Y00120D01*
X11628Y00078D01*
X11636Y00050D01*
X11644Y00036D01*
X11661Y00022D01*
X11727Y00022D01*
X11562Y-00035D02*
X11480Y-00035D01*
X11579Y-00119D02*
X11521Y00176D01*
X11463Y-00119D01*
X11373Y00176D02*
X11356Y00176D01*
X11340Y00162D01*
X11332Y00148D01*
X11323Y00120D01*
X11315Y00064D01*
X11315Y-00007D01*
X11323Y-00063D01*
X11332Y-00091D01*
X11340Y-00105D01*
X11356Y-00119D01*
X11373Y-00119D01*
X11389Y-00105D01*
X11398Y-00091D01*
X11406Y-00063D01*
X11414Y-00007D01*
X11414Y00064D01*
X11406Y00120D01*
X11398Y00148D01*
X11389Y00162D01*
X11373Y00176D01*
X10702Y-00119D02*
X10702Y00176D01*
X10636Y00176D01*
X10619Y00162D01*
X10611Y00148D01*
X10603Y00120D01*
X10603Y00078D01*
X10611Y00050D01*
X10619Y00036D01*
X10636Y00022D01*
X10702Y00022D01*
X10537Y-00035D02*
X10455Y-00035D01*
X10554Y-00119D02*
X10496Y00176D01*
X10438Y-00119D01*
X10290Y-00119D02*
X10389Y-00119D01*
X10340Y-00119D02*
X10340Y00176D01*
X10356Y00134D01*
X10373Y00106D01*
X10389Y00092D01*
X09739Y-00119D02*
X09739Y00176D01*
X09673Y00176D01*
X09656Y00162D01*
X09648Y00148D01*
X09640Y00120D01*
X09640Y00078D01*
X09648Y00050D01*
X09656Y00036D01*
X09673Y00022D01*
X09739Y00022D01*
X09467Y-00091D02*
X09475Y-00105D01*
X09500Y-00119D01*
X09516Y-00119D01*
X09541Y-00105D01*
X09558Y-00077D01*
X09566Y-00049D01*
X09574Y00008D01*
X09574Y00050D01*
X09566Y00106D01*
X09558Y00134D01*
X09541Y00162D01*
X09516Y00176D01*
X09500Y00176D01*
X09475Y00162D01*
X09467Y00148D01*
X09302Y-00119D02*
X09401Y-00119D01*
X09352Y-00119D02*
X09352Y00176D01*
X09368Y00134D01*
X09385Y00106D01*
X09401Y00092D01*
G54D11*
X08794Y-00119D02*
X08794Y00176D01*
X08719Y00176D01*
X08700Y00162D01*
X08691Y00148D01*
X08682Y00120D01*
X08682Y00078D01*
X08691Y00050D01*
X08700Y00036D01*
X08719Y00022D01*
X08794Y00022D01*
X08485Y-00091D02*
X08494Y-00105D01*
X08522Y-00119D01*
X08541Y-00119D01*
X08569Y-00105D01*
X08588Y-00077D01*
X08597Y-00049D01*
X08606Y00008D01*
X08606Y00050D01*
X08597Y00106D01*
X08588Y00134D01*
X08569Y00162D01*
X08541Y00176D01*
X08522Y00176D01*
X08494Y00162D01*
X08485Y00148D01*
X08363Y00176D02*
X08344Y00176D01*
X08325Y00162D01*
X08316Y00148D01*
X08306Y00120D01*
X08297Y00064D01*
X08297Y-00007D01*
X08306Y-00063D01*
X08316Y-00091D01*
X08325Y-00105D01*
X08344Y-00119D01*
X08363Y-00119D01*
X08381Y-00105D01*
X08391Y-00091D01*
X08400Y-00063D01*
X08409Y-00007D01*
X08409Y00064D01*
X08400Y00120D01*
X08391Y00148D01*
X08381Y00162D01*
X08363Y00176D01*
G54D13*
X12656Y00162D02*
X12673Y00176D01*
X12697Y00176D01*
X12722Y00162D01*
X12739Y00134D01*
X12747Y00106D01*
X12755Y00050D01*
X12755Y00008D01*
X12747Y-00049D01*
X12739Y-00077D01*
X12722Y-00105D01*
X12697Y-00119D01*
X12681Y-00119D01*
X12656Y-00105D01*
X12648Y-00091D01*
X12648Y00008D01*
X12681Y00008D01*
X12574Y-00119D02*
X12574Y00176D01*
X12475Y-00119D01*
X12475Y00176D01*
X12393Y-00119D02*
X12393Y00176D01*
X12352Y00176D01*
X12327Y00162D01*
X12310Y00134D01*
X12302Y00106D01*
X12294Y00050D01*
X12294Y00008D01*
X12302Y-00049D01*
X12310Y-00077D01*
X12327Y-00105D01*
X12352Y-00119D01*
X12393Y-00119D01*
X07681Y00137D02*
X07698Y00151D01*
X07722Y00151D01*
X07747Y00137D01*
X07764Y00109D01*
X07772Y00081D01*
X07780Y00025D01*
X07780Y-00017D01*
X07772Y-00074D01*
X07764Y-00102D01*
X07747Y-00130D01*
X07722Y-00144D01*
X07706Y-00144D01*
X07681Y-00130D01*
X07673Y-00116D01*
X07673Y-00017D01*
X07706Y-00017D01*
X07599Y-00144D02*
X07599Y00151D01*
X07500Y-00144D01*
X07500Y00151D01*
X07418Y-00144D02*
X07418Y00151D01*
X07377Y00151D01*
X07352Y00137D01*
X07335Y00109D01*
X07327Y00081D01*
X07319Y00025D01*
X07319Y-00017D01*
X07327Y-00074D01*
X07335Y-00102D01*
X07352Y-00130D01*
X07377Y-00144D01*
X07418Y-00144D01*
X06797Y-00144D02*
X06797Y00151D01*
X06731Y00151D01*
X06714Y00137D01*
X06706Y00123D01*
X06698Y00095D01*
X06698Y00053D01*
X06706Y00025D01*
X06714Y00011D01*
X06731Y-00003D01*
X06797Y-00003D01*
X06525Y-00116D02*
X06533Y-00130D01*
X06558Y-00144D01*
X06574Y-00144D01*
X06599Y-00130D01*
X06616Y-00102D01*
X06624Y-00074D01*
X06632Y-00017D01*
X06632Y00025D01*
X06624Y00081D01*
X06616Y00109D01*
X06599Y00137D01*
X06574Y00151D01*
X06558Y00151D01*
X06533Y00137D01*
X06525Y00123D01*
X06360Y-00144D02*
X06459Y-00144D01*
X06410Y-00144D02*
X06410Y00151D01*
X06426Y00109D01*
X06443Y00081D01*
X06459Y00067D01*
X06203Y00151D02*
X06286Y00151D01*
X06294Y00011D01*
X06286Y00025D01*
X06269Y00039D01*
X06228Y00039D01*
X06212Y00025D01*
X06203Y00011D01*
X06195Y-00017D01*
X06195Y-00088D01*
X06203Y-00116D01*
X06212Y-00130D01*
X06228Y-00144D01*
X06269Y-00144D01*
X06286Y-00130D01*
X06294Y-00116D01*
X05772Y-00144D02*
X05772Y00151D01*
X05706Y00151D01*
X05689Y00137D01*
X05681Y00123D01*
X05673Y00095D01*
X05673Y00053D01*
X05681Y00025D01*
X05689Y00011D01*
X05706Y-00003D01*
X05772Y-00003D01*
X05500Y-00116D02*
X05508Y-00130D01*
X05533Y-00144D01*
X05549Y-00144D01*
X05574Y-00130D01*
X05591Y-00102D01*
X05599Y-00074D01*
X05607Y-00017D01*
X05607Y00025D01*
X05599Y00081D01*
X05591Y00109D01*
X05574Y00137D01*
X05549Y00151D01*
X05533Y00151D01*
X05508Y00137D01*
X05500Y00123D01*
X05335Y-00144D02*
X05434Y-00144D01*
X05385Y-00144D02*
X05385Y00151D01*
X05401Y00109D01*
X05418Y00081D01*
X05434Y00067D01*
X05187Y00053D02*
X05187Y-00144D01*
X05228Y00165D02*
X05269Y-00046D01*
X05162Y-00046D01*
X04689Y-00144D02*
X04689Y00151D01*
X04623Y00151D01*
X04606Y00137D01*
X04598Y00123D01*
X04590Y00095D01*
X04590Y00053D01*
X04598Y00025D01*
X04606Y00011D01*
X04623Y-00003D01*
X04689Y-00003D01*
X04458Y00011D02*
X04433Y-00003D01*
X04425Y-00017D01*
X04417Y-00046D01*
X04417Y-00088D01*
X04425Y-00116D01*
X04433Y-00130D01*
X04450Y-00144D01*
X04516Y-00144D01*
X04516Y00151D01*
X04458Y00151D01*
X04442Y00137D01*
X04433Y00123D01*
X04425Y00095D01*
X04425Y00067D01*
X04433Y00039D01*
X04442Y00025D01*
X04458Y00011D01*
X04516Y00011D01*
X04252Y-00144D02*
X04351Y-00144D01*
X04302Y-00144D02*
X04302Y00151D01*
X04318Y00109D01*
X04335Y00081D01*
X04351Y00067D01*
X-00802Y01326D02*
X-00860Y01031D01*
X-00918Y01326D01*
X-00975Y01031D02*
X-00975Y01326D01*
X-01057Y01031D02*
X-01057Y01326D01*
X-01098Y01326D01*
X-01123Y01312D01*
X-01140Y01284D01*
X-01148Y01256D01*
X-01156Y01200D01*
X-01156Y01158D01*
X-01148Y01101D01*
X-01140Y01073D01*
X-01123Y01045D01*
X-01098Y01031D01*
X-01057Y01031D01*
X-01230Y01031D02*
X-01230Y01326D01*
X-01312Y01143D02*
X-01444Y01143D01*
X-01378Y01031D02*
X-01378Y01256D01*
X-01501Y01326D02*
X-01559Y01031D01*
X-01617Y01326D01*
X-01674Y01031D02*
X-01674Y01326D01*
X16319Y10338D02*
X16302Y10324D01*
X16278Y10324D01*
X16253Y10338D01*
X16236Y10366D01*
X16228Y10394D01*
X16220Y10450D01*
X16220Y10492D01*
X16228Y10549D01*
X16236Y10577D01*
X16253Y10605D01*
X16278Y10619D01*
X16294Y10619D01*
X16319Y10605D01*
X16327Y10591D01*
X16327Y10492D01*
X16294Y10492D01*
X16401Y10619D02*
X16401Y10324D01*
X16500Y10619D01*
X16500Y10324D01*
X16582Y10619D02*
X16582Y10324D01*
X16623Y10324D01*
X16648Y10338D01*
X16665Y10366D01*
X16673Y10394D01*
X16681Y10450D01*
X16681Y10492D01*
X16673Y10549D01*
X16665Y10577D01*
X16648Y10605D01*
X16623Y10619D01*
X16582Y10619D01*
X18191Y10619D02*
X18191Y10324D01*
X18290Y10619D01*
X18290Y10324D01*
X18471Y10619D02*
X18413Y10478D01*
X18372Y10619D02*
X18372Y10324D01*
X18438Y10324D01*
X18455Y10338D01*
X18463Y10352D01*
X18471Y10380D01*
X18471Y10422D01*
X18463Y10450D01*
X18455Y10464D01*
X18438Y10478D01*
X18372Y10478D01*
X18537Y10605D02*
X18562Y10619D01*
X18603Y10619D01*
X18619Y10605D01*
X18628Y10591D01*
X18636Y10563D01*
X18636Y10535D01*
X18628Y10507D01*
X18619Y10492D01*
X18603Y10478D01*
X18570Y10464D01*
X18553Y10450D01*
X18545Y10436D01*
X18537Y10408D01*
X18537Y10380D01*
X18545Y10352D01*
X18553Y10338D01*
X18570Y10324D01*
X18611Y10324D01*
X18636Y10338D01*
X18685Y10324D02*
X18784Y10324D01*
X18735Y10619D02*
X18735Y10324D01*
X17241Y10619D02*
X17241Y10324D01*
X17307Y10324D01*
X17324Y10338D01*
X17332Y10352D01*
X17340Y10380D01*
X17340Y10422D01*
X17332Y10450D01*
X17324Y10464D01*
X17307Y10478D01*
X17241Y10478D01*
X17406Y10535D02*
X17488Y10535D01*
X17389Y10619D02*
X17447Y10324D01*
X17505Y10619D01*
X17653Y10619D02*
X17554Y10619D01*
X17603Y10619D02*
X17603Y10324D01*
X17587Y10366D01*
X17570Y10394D01*
X17554Y10408D01*
X17711Y10324D02*
X17818Y10324D01*
X17760Y10436D01*
X17785Y10436D01*
X17801Y10450D01*
X17810Y10464D01*
X17818Y10492D01*
X17818Y10563D01*
X17810Y10591D01*
X17801Y10605D01*
X17785Y10619D01*
X17735Y10619D01*
X17719Y10605D01*
X17711Y10591D01*
X15369Y09227D02*
X15355Y09244D01*
X15355Y09268D01*
X15369Y09293D01*
X15397Y09310D01*
X15425Y09318D01*
X15481Y09326D01*
X15523Y09326D01*
X15580Y09318D01*
X15608Y09310D01*
X15636Y09293D01*
X15650Y09268D01*
X15650Y09252D01*
X15636Y09227D01*
X15622Y09219D01*
X15523Y09219D01*
X15523Y09252D01*
X15650Y09145D02*
X15355Y09145D01*
X15650Y09046D01*
X15355Y09046D01*
X15650Y08964D02*
X15355Y08964D01*
X15355Y08923D01*
X15369Y08898D01*
X15397Y08881D01*
X15425Y08873D01*
X15481Y08865D01*
X15523Y08865D01*
X15580Y08873D01*
X15608Y08881D01*
X15636Y08898D01*
X15650Y08923D01*
X15650Y08964D01*
X15241Y10594D02*
X15241Y10299D01*
X15307Y10299D01*
X15324Y10313D01*
X15332Y10327D01*
X15340Y10355D01*
X15340Y10397D01*
X15332Y10425D01*
X15324Y10439D01*
X15307Y10453D01*
X15241Y10453D01*
X15406Y10510D02*
X15488Y10510D01*
X15389Y10594D02*
X15447Y10299D01*
X15505Y10594D01*
X15653Y10594D02*
X15554Y10594D01*
X15603Y10594D02*
X15603Y10299D01*
X15587Y10341D01*
X15570Y10369D01*
X15554Y10383D01*
X15801Y10397D02*
X15801Y10594D01*
X15760Y10285D02*
X15719Y10496D01*
X15826Y10496D01*
X14064Y10457D02*
X14196Y10457D01*
X14130Y10569D02*
X14130Y10344D01*
X14262Y10274D02*
X14369Y10274D01*
X14311Y10386D01*
X14336Y10386D01*
X14352Y10400D01*
X14361Y10414D01*
X14369Y10442D01*
X14369Y10513D01*
X14361Y10541D01*
X14352Y10555D01*
X14336Y10569D01*
X14286Y10569D01*
X14270Y10555D01*
X14262Y10541D01*
X14443Y10541D02*
X14451Y10555D01*
X14443Y10569D01*
X14435Y10555D01*
X14443Y10541D01*
X14443Y10569D01*
X14509Y10274D02*
X14616Y10274D01*
X14558Y10386D01*
X14583Y10386D01*
X14599Y10400D01*
X14608Y10414D01*
X14616Y10442D01*
X14616Y10513D01*
X14608Y10541D01*
X14599Y10555D01*
X14583Y10569D01*
X14533Y10569D01*
X14517Y10555D01*
X14509Y10541D01*
X14665Y10274D02*
X14723Y10569D01*
X14781Y10274D01*
X14871Y10274D02*
X14904Y10274D01*
X14921Y10288D01*
X14937Y10316D01*
X14945Y10372D01*
X14945Y10471D01*
X14937Y10527D01*
X14921Y10555D01*
X14904Y10569D01*
X14871Y10569D01*
X14855Y10555D01*
X14838Y10527D01*
X14830Y10471D01*
X14830Y10372D01*
X14838Y10316D01*
X14855Y10288D01*
X14871Y10274D01*
X13241Y10569D02*
X13241Y10274D01*
X13307Y10274D01*
X13324Y10288D01*
X13332Y10302D01*
X13340Y10330D01*
X13340Y10372D01*
X13332Y10400D01*
X13324Y10414D01*
X13307Y10428D01*
X13241Y10428D01*
X13406Y10485D02*
X13488Y10485D01*
X13389Y10569D02*
X13447Y10274D01*
X13505Y10569D01*
X13653Y10569D02*
X13554Y10569D01*
X13603Y10569D02*
X13603Y10274D01*
X13587Y10316D01*
X13570Y10344D01*
X13554Y10358D01*
X13719Y10302D02*
X13727Y10288D01*
X13744Y10274D01*
X13785Y10274D01*
X13801Y10288D01*
X13810Y10302D01*
X13818Y10330D01*
X13818Y10358D01*
X13810Y10400D01*
X13711Y10569D01*
X13818Y10569D01*
X12216Y10594D02*
X12216Y10299D01*
X12282Y10299D01*
X12299Y10313D01*
X12307Y10327D01*
X12315Y10355D01*
X12315Y10397D01*
X12307Y10425D01*
X12299Y10439D01*
X12282Y10453D01*
X12216Y10453D01*
X12381Y10510D02*
X12463Y10510D01*
X12364Y10594D02*
X12422Y10299D01*
X12480Y10594D01*
X12628Y10594D02*
X12529Y10594D01*
X12578Y10594D02*
X12578Y10299D01*
X12562Y10341D01*
X12545Y10369D01*
X12529Y10383D01*
X12793Y10594D02*
X12694Y10594D01*
X12743Y10594D02*
X12743Y10299D01*
X12727Y10341D01*
X12710Y10369D01*
X12694Y10383D01*
X11228Y10569D02*
X11228Y10274D01*
X11294Y10274D01*
X11311Y10288D01*
X11319Y10302D01*
X11327Y10330D01*
X11327Y10372D01*
X11319Y10400D01*
X11311Y10414D01*
X11294Y10428D01*
X11228Y10428D01*
X11500Y10541D02*
X11492Y10555D01*
X11467Y10569D01*
X11451Y10569D01*
X11426Y10555D01*
X11409Y10527D01*
X11401Y10499D01*
X11393Y10442D01*
X11393Y10400D01*
X11401Y10344D01*
X11409Y10316D01*
X11426Y10288D01*
X11451Y10274D01*
X11467Y10274D01*
X11492Y10288D01*
X11500Y10302D01*
X11665Y10569D02*
X11566Y10569D01*
X11615Y10569D02*
X11615Y10274D01*
X11599Y10316D01*
X11582Y10344D01*
X11566Y10358D01*
X11731Y10302D02*
X11739Y10288D01*
X11756Y10274D01*
X11797Y10274D01*
X11813Y10288D01*
X11822Y10302D01*
X11830Y10330D01*
X11830Y10358D01*
X11822Y10400D01*
X11723Y10569D01*
X11830Y10569D01*
X09286Y10594D02*
X09286Y10299D01*
X09352Y10299D01*
X09369Y10313D01*
X09377Y10327D01*
X09385Y10355D01*
X09385Y10397D01*
X09377Y10425D01*
X09369Y10439D01*
X09352Y10453D01*
X09286Y10453D01*
X09517Y10439D02*
X09542Y10453D01*
X09550Y10467D01*
X09558Y10496D01*
X09558Y10538D01*
X09550Y10566D01*
X09542Y10580D01*
X09525Y10594D01*
X09459Y10594D01*
X09459Y10299D01*
X09517Y10299D01*
X09533Y10313D01*
X09542Y10327D01*
X09550Y10355D01*
X09550Y10383D01*
X09542Y10411D01*
X09533Y10425D01*
X09517Y10439D01*
X09459Y10439D01*
X09616Y10299D02*
X09723Y10299D01*
X09665Y10411D01*
X09690Y10411D01*
X09706Y10425D01*
X09715Y10439D01*
X09723Y10467D01*
X09723Y10538D01*
X09715Y10566D01*
X09706Y10580D01*
X09690Y10594D01*
X09640Y10594D01*
X09624Y10580D01*
X09616Y10566D01*
X08311Y10594D02*
X08311Y10299D01*
X08377Y10299D01*
X08394Y10313D01*
X08402Y10327D01*
X08410Y10355D01*
X08410Y10397D01*
X08402Y10425D01*
X08394Y10439D01*
X08377Y10453D01*
X08311Y10453D01*
X08542Y10439D02*
X08567Y10453D01*
X08575Y10467D01*
X08583Y10496D01*
X08583Y10538D01*
X08575Y10566D01*
X08567Y10580D01*
X08550Y10594D01*
X08484Y10594D01*
X08484Y10299D01*
X08542Y10299D01*
X08558Y10313D01*
X08567Y10327D01*
X08575Y10355D01*
X08575Y10383D01*
X08567Y10411D01*
X08558Y10425D01*
X08542Y10439D01*
X08484Y10439D01*
X08731Y10397D02*
X08731Y10594D01*
X08690Y10285D02*
X08649Y10496D01*
X08756Y10496D01*
X07261Y10594D02*
X07261Y10299D01*
X07327Y10299D01*
X07344Y10313D01*
X07352Y10327D01*
X07360Y10355D01*
X07360Y10397D01*
X07352Y10425D01*
X07344Y10439D01*
X07327Y10453D01*
X07261Y10453D01*
X07492Y10439D02*
X07517Y10453D01*
X07525Y10467D01*
X07533Y10496D01*
X07533Y10538D01*
X07525Y10566D01*
X07517Y10580D01*
X07500Y10594D01*
X07434Y10594D01*
X07434Y10299D01*
X07492Y10299D01*
X07508Y10313D01*
X07517Y10327D01*
X07525Y10355D01*
X07525Y10383D01*
X07517Y10411D01*
X07508Y10425D01*
X07492Y10439D01*
X07434Y10439D01*
X07690Y10299D02*
X07607Y10299D01*
X07599Y10439D01*
X07607Y10425D01*
X07624Y10411D01*
X07665Y10411D01*
X07681Y10425D01*
X07690Y10439D01*
X07698Y10467D01*
X07698Y10538D01*
X07690Y10566D01*
X07681Y10580D01*
X07665Y10594D01*
X07624Y10594D01*
X07607Y10580D01*
X07599Y10566D01*
X05286Y10569D02*
X05286Y10274D01*
X05352Y10274D01*
X05369Y10288D01*
X05377Y10302D01*
X05385Y10330D01*
X05385Y10372D01*
X05377Y10400D01*
X05369Y10414D01*
X05352Y10428D01*
X05286Y10428D01*
X05517Y10414D02*
X05542Y10428D01*
X05550Y10442D01*
X05558Y10471D01*
X05558Y10513D01*
X05550Y10541D01*
X05542Y10555D01*
X05525Y10569D01*
X05459Y10569D01*
X05459Y10274D01*
X05517Y10274D01*
X05533Y10288D01*
X05542Y10302D01*
X05550Y10330D01*
X05550Y10358D01*
X05542Y10386D01*
X05533Y10400D01*
X05517Y10414D01*
X05459Y10414D01*
X05706Y10274D02*
X05673Y10274D01*
X05657Y10288D01*
X05649Y10302D01*
X05632Y10344D01*
X05624Y10400D01*
X05624Y10513D01*
X05632Y10541D01*
X05640Y10555D01*
X05657Y10569D01*
X05690Y10569D01*
X05706Y10555D01*
X05715Y10541D01*
X05723Y10513D01*
X05723Y10442D01*
X05715Y10414D01*
X05706Y10400D01*
X05690Y10386D01*
X05657Y10386D01*
X05640Y10400D01*
X05632Y10414D01*
X05624Y10442D01*
X04286Y10594D02*
X04286Y10299D01*
X04352Y10299D01*
X04369Y10313D01*
X04377Y10327D01*
X04385Y10355D01*
X04385Y10397D01*
X04377Y10425D01*
X04369Y10439D01*
X04352Y10453D01*
X04286Y10453D01*
X04517Y10439D02*
X04542Y10453D01*
X04550Y10467D01*
X04558Y10496D01*
X04558Y10538D01*
X04550Y10566D01*
X04542Y10580D01*
X04525Y10594D01*
X04459Y10594D01*
X04459Y10299D01*
X04517Y10299D01*
X04533Y10313D01*
X04542Y10327D01*
X04550Y10355D01*
X04550Y10383D01*
X04542Y10411D01*
X04533Y10425D01*
X04517Y10439D01*
X04459Y10439D01*
X04616Y10299D02*
X04731Y10299D01*
X04657Y10594D01*
X02286Y10619D02*
X02286Y10324D01*
X02352Y10324D01*
X02369Y10338D01*
X02377Y10352D01*
X02385Y10380D01*
X02385Y10422D01*
X02377Y10450D01*
X02369Y10464D01*
X02352Y10478D01*
X02286Y10478D01*
X02517Y10464D02*
X02542Y10478D01*
X02550Y10492D01*
X02558Y10521D01*
X02558Y10563D01*
X02550Y10591D01*
X02542Y10605D01*
X02525Y10619D01*
X02459Y10619D01*
X02459Y10324D01*
X02517Y10324D01*
X02533Y10338D01*
X02542Y10352D01*
X02550Y10380D01*
X02550Y10408D01*
X02542Y10436D01*
X02533Y10450D01*
X02517Y10464D01*
X02459Y10464D01*
X02657Y10450D02*
X02640Y10436D01*
X02632Y10422D01*
X02624Y10394D01*
X02624Y10380D01*
X02632Y10352D01*
X02640Y10338D01*
X02657Y10324D01*
X02690Y10324D01*
X02706Y10338D01*
X02715Y10352D01*
X02723Y10380D01*
X02723Y10394D01*
X02715Y10422D01*
X02706Y10436D01*
X02690Y10450D01*
X02657Y10450D01*
X02640Y10464D01*
X02632Y10478D01*
X02624Y10507D01*
X02624Y10563D01*
X02632Y10591D01*
X02640Y10605D01*
X02657Y10619D01*
X02690Y10619D01*
X02706Y10605D01*
X02715Y10591D01*
X02723Y10563D01*
X02723Y10507D01*
X02715Y10478D01*
X02706Y10464D01*
X02690Y10450D01*
X13409Y08131D02*
X13409Y08426D01*
X13343Y08426D01*
X13326Y08412D01*
X13318Y08398D01*
X13310Y08370D01*
X13310Y08328D01*
X13318Y08300D01*
X13326Y08286D01*
X13343Y08272D01*
X13409Y08272D01*
X13137Y08131D02*
X13195Y08272D01*
X13236Y08131D02*
X13236Y08426D01*
X13170Y08426D01*
X13153Y08412D01*
X13145Y08398D01*
X13137Y08370D01*
X13137Y08328D01*
X13145Y08300D01*
X13153Y08286D01*
X13170Y08272D01*
X13236Y08272D01*
X13030Y08426D02*
X12997Y08426D01*
X12980Y08412D01*
X12964Y08384D01*
X12956Y08328D01*
X12956Y08229D01*
X12964Y08173D01*
X12980Y08145D01*
X12997Y08131D01*
X13030Y08131D01*
X13046Y08145D01*
X13063Y08173D01*
X13071Y08229D01*
X13071Y08328D01*
X13063Y08384D01*
X13046Y08412D01*
X13030Y08426D01*
X12791Y08412D02*
X12808Y08426D01*
X12832Y08426D01*
X12857Y08412D01*
X12874Y08384D01*
X12882Y08356D01*
X12890Y08300D01*
X12890Y08258D01*
X12882Y08201D01*
X12874Y08173D01*
X12857Y08145D01*
X12832Y08131D01*
X12816Y08131D01*
X12791Y08145D01*
X12783Y08159D01*
X12783Y08258D01*
X12816Y08258D01*
G54D15*
X-00419Y01406D02*
X-01206Y01406D01*
X-01206Y01406D02*
X-01009Y01800D01*
X-00419Y02194D02*
X-01206Y02194D01*
X-01206Y02194D02*
X-01009Y01800D01*
X01058Y01800D02*
X00861Y01406D01*
X00861Y01406D02*
X00073Y01406D01*
X01058Y01800D02*
X00861Y02194D01*
X00861Y02194D02*
X00073Y02194D01*
X00172Y01800D02*
X-00222Y02194D01*
X-00222Y02194D02*
X-00222Y01406D01*
X-00222Y01406D02*
X00172Y01800D01*
X06531Y05431D02*
X05744Y05431D01*
X05744Y05431D02*
X05941Y05825D01*
X06531Y06219D02*
X05744Y06219D01*
X05744Y06219D02*
X05941Y05825D01*
X08008Y05825D02*
X07811Y05431D01*
X07811Y05431D02*
X07023Y05431D01*
X08008Y05825D02*
X07811Y06219D01*
X07811Y06219D02*
X07023Y06219D01*
X07122Y05825D02*
X06728Y06219D01*
X06728Y06219D02*
X06728Y05431D01*
X06728Y05431D02*
X07122Y05825D01*
X03250Y02900D02*
X03250Y03500D01*
X04450Y03600D02*
X03350Y03600D01*
X03350Y03600D02*
X03325Y03600D01*
X03320Y03575D02*
X03318Y03562D01*
X03314Y03549D01*
X03308Y03537D01*
X03299Y03526D01*
X03289Y03517D01*
X03277Y03511D01*
X03264Y03507D01*
X03250Y03506D01*
X03237Y03507D01*
X03224Y03511D01*
X03212Y03517D01*
X03202Y03525D01*
X03193Y03536D01*
X03186Y03548D01*
X03182Y03561D01*
X03181Y03575D01*
X03182Y03587D01*
X03185Y03600D01*
X03192Y03612D01*
X03200Y03623D01*
X03211Y03632D01*
X03222Y03639D01*
X03235Y03643D01*
X03249Y03644D01*
X03262Y03643D01*
X03275Y03640D01*
X03287Y03634D01*
X03298Y03625D01*
X03307Y03615D01*
X03313Y03603D01*
X03318Y03590D01*
X03319Y03576D01*
X03320Y03575D01*
G54D16*
X04450Y02900D02*
X04450Y03600D01*
X03250Y02900D02*
X04450Y02900D01*
G54D15*
X06025Y07525D02*
X07100Y07525D01*
X07150Y08075D02*
X07150Y07600D01*
X06000Y08075D02*
X07150Y08075D01*
X06000Y07525D02*
X06000Y08075D01*
X07205Y07550D02*
X07203Y07540D01*
X07200Y07530D01*
X07195Y07520D01*
X07189Y07512D01*
X07180Y07505D01*
X07171Y07500D01*
X07161Y07497D01*
X07150Y07496D01*
X07140Y07496D01*
X07130Y07500D01*
X07120Y07504D01*
X07112Y07511D01*
X07105Y07519D01*
X07100Y07529D01*
X07097Y07539D01*
X07096Y07550D01*
X07096Y07559D01*
X07099Y07570D01*
X07104Y07579D01*
X07111Y07588D01*
X07119Y07595D01*
X07128Y07600D01*
X07139Y07603D01*
X07149Y07604D01*
X07159Y07604D01*
X07169Y07601D01*
X07179Y07596D01*
X07187Y07589D01*
X07194Y07581D01*
X07200Y07572D01*
X07203Y07562D01*
X07204Y07551D01*
X07205Y07550D01*
X14656Y03450D02*
X14653Y03430D01*
X14648Y03410D01*
X14638Y03392D01*
X14625Y03376D01*
X14609Y03363D01*
X14591Y03353D01*
X14571Y03347D01*
X14550Y03345D01*
X14531Y03346D01*
X14511Y03352D01*
X14492Y03362D01*
X14476Y03375D01*
X14463Y03391D01*
X14453Y03409D01*
X14447Y03428D01*
X14445Y03449D01*
X14446Y03469D01*
X14452Y03489D01*
X14461Y03507D01*
X14474Y03523D01*
X14490Y03537D01*
X14508Y03547D01*
X14528Y03553D01*
X14548Y03555D01*
X14568Y03554D01*
X14588Y03548D01*
X14606Y03539D01*
X14623Y03526D01*
X14636Y03511D01*
X14646Y03493D01*
X14653Y03473D01*
X14655Y03452D01*
X14656Y03450D01*
G54D16*
X15325Y04725D02*
X14625Y04725D01*
X14625Y04725D02*
X14625Y03525D01*
X14625Y03525D02*
X15325Y03525D01*
X15325Y03525D02*
X15325Y04725D01*
G54D15*
X02865Y07399D02*
X02865Y06249D01*
X01615Y06149D02*
X02790Y06149D01*
X02980Y06149D02*
X02978Y06132D01*
X02973Y06115D01*
X02964Y06100D01*
X02953Y06086D01*
X02940Y06075D01*
X02924Y06067D01*
X02908Y06061D01*
X02890Y06060D01*
X02874Y06061D01*
X02857Y06066D01*
X02841Y06074D01*
X02828Y06085D01*
X02816Y06099D01*
X02808Y06114D01*
X02802Y06131D01*
X02801Y06148D01*
X02802Y06165D01*
X02807Y06182D01*
X02815Y06197D01*
X02826Y06211D01*
X02839Y06222D01*
X02854Y06231D01*
X02871Y06236D01*
X02889Y06238D01*
X02905Y06237D01*
X02922Y06232D01*
X02938Y06224D01*
X02952Y06214D01*
X02963Y06200D01*
X02972Y06185D01*
X02977Y06168D01*
X02979Y06151D01*
X02980Y06149D01*
G54D17*
X01615Y06149D02*
X01615Y07399D01*
X01615Y07399D02*
X02865Y07399D01*
G54D16*
X13250Y06850D02*
X14150Y06850D01*
X14150Y06850D02*
X14150Y07350D01*
X14150Y07350D02*
X13250Y07350D01*
X13250Y07350D02*
X13250Y06850D01*
X09200Y07525D02*
X10100Y07525D01*
X10100Y07525D02*
X10100Y08025D01*
X10100Y08025D02*
X09200Y08025D01*
X09200Y08025D02*
X09200Y07525D01*
X09400Y03525D02*
X10300Y03525D01*
X10300Y03525D02*
X10300Y04025D01*
X10300Y04025D02*
X09400Y04025D01*
X09400Y04025D02*
X09400Y03525D01*
X08150Y06420D02*
X08150Y05520D01*
X08150Y05520D02*
X08650Y05520D01*
X08650Y05520D02*
X08650Y06420D01*
X08650Y06420D02*
X08150Y06420D01*
G54D12*
X10189Y07609D02*
X08614Y07609D01*
X08614Y07609D02*
X08614Y05641D01*
X08614Y05641D02*
X10386Y05641D01*
X10386Y05641D02*
X10386Y07412D01*
X10524Y07609D02*
X10521Y07583D01*
X10513Y07557D01*
X10500Y07533D01*
X10483Y07512D01*
X10463Y07495D01*
X10439Y07482D01*
X10413Y07474D01*
X10386Y07472D01*
X10361Y07474D01*
X10335Y07482D01*
X10311Y07494D01*
X10290Y07511D01*
X10273Y07532D01*
X10260Y07555D01*
X10252Y07581D01*
X10249Y07608D01*
X10251Y07633D01*
X10258Y07659D01*
X10271Y07683D01*
X10287Y07704D01*
X10308Y07722D01*
X10331Y07735D01*
X10357Y07743D01*
X10384Y07746D01*
X10409Y07744D01*
X10435Y07737D01*
X10459Y07725D01*
X10481Y07708D01*
X10498Y07688D01*
X10512Y07665D01*
X10520Y07639D01*
X10523Y07612D01*
X10524Y07609D01*
G54D16*
X-00092Y07798D02*
X-00093Y07789D01*
X-00096Y07779D01*
X-00101Y07771D01*
X-00107Y07763D01*
X-00115Y07757D01*
X-00123Y07752D01*
X-00132Y07750D01*
X-00142Y07749D01*
X-00151Y07749D01*
X-00160Y07752D01*
X-00169Y07757D01*
X-00176Y07763D01*
X-00183Y07770D01*
X-00187Y07779D01*
X-00190Y07788D01*
X-00191Y07798D01*
X-00191Y07807D01*
X-00188Y07816D01*
X-00184Y07825D01*
X-00177Y07832D01*
X-00170Y07839D01*
X-00162Y07843D01*
X-00152Y07846D01*
X-00143Y07847D01*
X-00134Y07847D01*
X-00124Y07844D01*
X-00116Y07840D01*
X-00108Y07834D01*
X-00102Y07826D01*
X-00097Y07818D01*
X-00094Y07809D01*
X-00093Y07799D01*
X-00092Y07798D01*
X00308Y07798D02*
X-00092Y07798D01*
X-00092Y07798D02*
X-00092Y07198D01*
X-00092Y07198D02*
X00308Y07198D01*
X00708Y07198D02*
X01108Y07198D01*
X01108Y07198D02*
X01108Y07798D01*
X01108Y07798D02*
X00708Y07798D01*
X01000Y05125D02*
X00999Y05116D01*
X00996Y05106D01*
X00991Y05098D01*
X00985Y05090D01*
X00977Y05084D01*
X00969Y05079D01*
X00960Y05077D01*
X00950Y05076D01*
X00941Y05076D01*
X00932Y05079D01*
X00923Y05084D01*
X00916Y05090D01*
X00909Y05097D01*
X00905Y05106D01*
X00902Y05115D01*
X00901Y05125D01*
X00901Y05134D01*
X00904Y05143D01*
X00908Y05152D01*
X00915Y05159D01*
X00922Y05166D01*
X00930Y05170D01*
X00940Y05173D01*
X00949Y05174D01*
X00958Y05174D01*
X00968Y05171D01*
X00976Y05167D01*
X00984Y05161D01*
X00990Y05153D01*
X00995Y05145D01*
X00998Y05136D01*
X00999Y05126D01*
X01000Y05125D01*
X01400Y05125D02*
X01000Y05125D01*
X01000Y05125D02*
X01000Y04525D01*
X01000Y04525D02*
X01400Y04525D01*
X01800Y04525D02*
X02200Y04525D01*
X02200Y04525D02*
X02200Y05125D01*
X02200Y05125D02*
X01800Y05125D01*
X10385Y02398D02*
X11285Y02398D01*
X11285Y02398D02*
X11285Y02898D01*
X11285Y02898D02*
X10385Y02898D01*
X10385Y02898D02*
X10385Y02398D01*
X07250Y06775D02*
X06350Y06775D01*
X06350Y06775D02*
X06350Y06275D01*
X06350Y06275D02*
X07250Y06275D01*
X07250Y06275D02*
X07250Y06775D01*
X06275Y04050D02*
X07175Y04050D01*
X07175Y04050D02*
X07175Y04550D01*
X07175Y04550D02*
X06275Y04550D01*
X06275Y04550D02*
X06275Y04050D01*
X14575Y08750D02*
X15475Y08750D01*
X15475Y08750D02*
X15475Y09250D01*
X15475Y09250D02*
X14575Y09250D01*
X14575Y09250D02*
X14575Y08750D01*
X14350Y07250D02*
X15250Y07250D01*
X15250Y07250D02*
X15250Y07750D01*
X15250Y07750D02*
X14350Y07750D01*
X14350Y07750D02*
X14350Y07250D01*
X04675Y03975D02*
X05575Y03975D01*
X05575Y03975D02*
X05575Y04475D01*
X05575Y04475D02*
X04675Y04475D01*
X04675Y04475D02*
X04675Y03975D01*
X03950Y01775D02*
X03050Y01775D01*
X03050Y01775D02*
X03050Y01275D01*
X03050Y01275D02*
X03950Y01275D01*
X03950Y01275D02*
X03950Y01775D01*
X06493Y02496D02*
X05593Y02496D01*
X05593Y02496D02*
X05593Y01996D01*
X05593Y01996D02*
X06493Y01996D01*
X06493Y01996D02*
X06493Y02496D01*
X03275Y09275D02*
X02375Y09275D01*
X02375Y09275D02*
X02375Y08775D01*
X02375Y08775D02*
X03275Y08775D01*
X03275Y08775D02*
X03275Y09275D01*
X01125Y08950D02*
X01125Y08050D01*
X01125Y08050D02*
X01625Y08050D01*
X01625Y08050D02*
X01625Y08950D01*
X01625Y08950D02*
X01125Y08950D01*
X14725Y06975D02*
X14725Y06075D01*
X14725Y06075D02*
X15225Y06075D01*
X15225Y06075D02*
X15225Y06975D01*
X15225Y06975D02*
X14725Y06975D01*
X03100Y03000D02*
X03100Y03900D01*
X03100Y03900D02*
X02600Y03900D01*
X02600Y03900D02*
X02600Y03000D01*
X02600Y03000D02*
X03100Y03000D01*
X03876Y05178D02*
X03876Y06078D01*
X03876Y06078D02*
X03376Y06078D01*
X03376Y06078D02*
X03376Y05178D01*
X03376Y05178D02*
X03876Y05178D01*
X06275Y04725D02*
X07175Y04725D01*
X07175Y04725D02*
X07175Y05225D01*
X07175Y05225D02*
X06275Y05225D01*
X06275Y05225D02*
X06275Y04725D01*
X07775Y07400D02*
X07775Y08300D01*
X07775Y08300D02*
X07275Y08300D01*
X07275Y08300D02*
X07275Y07400D01*
X07275Y07400D02*
X07775Y07400D01*
X13775Y02300D02*
X13775Y03200D01*
X13775Y03200D02*
X13275Y03200D01*
X13275Y03200D02*
X13275Y02300D01*
X13275Y02300D02*
X13775Y02300D01*
X15750Y08750D02*
X16650Y08750D01*
X16650Y08750D02*
X16650Y09250D01*
X16650Y09250D02*
X15750Y09250D01*
X15750Y09250D02*
X15750Y08750D01*
X09025Y08025D02*
X08125Y08025D01*
X08125Y08025D02*
X08125Y07525D01*
X08125Y07525D02*
X09025Y07525D01*
X09025Y07525D02*
X09025Y08025D01*
X10350Y02150D02*
X09450Y02150D01*
X09450Y02150D02*
X09450Y01650D01*
X09450Y01650D02*
X10350Y01650D01*
X10350Y01650D02*
X10350Y02150D01*
X13075Y06525D02*
X13075Y05625D01*
X13075Y05625D02*
X13575Y05625D01*
X13575Y05625D02*
X13575Y06525D01*
X13575Y06525D02*
X13075Y06525D01*
X03375Y07050D02*
X03375Y06150D01*
X03375Y06150D02*
X03875Y06150D01*
X03875Y06150D02*
X03875Y07050D01*
X03875Y07050D02*
X03375Y07050D01*
X03425Y08350D02*
X03425Y07450D01*
X03425Y07450D02*
X03925Y07450D01*
X03925Y07450D02*
X03925Y08350D01*
X03925Y08350D02*
X03425Y08350D01*
X15575Y03375D02*
X14675Y03375D01*
X14675Y03375D02*
X14675Y02875D01*
X14675Y02875D02*
X15575Y02875D01*
X15575Y02875D02*
X15575Y03375D01*
X03875Y04875D02*
X02975Y04875D01*
X02975Y04875D02*
X02975Y04375D01*
X02975Y04375D02*
X03875Y04375D01*
X03875Y04375D02*
X03875Y04875D01*
X05725Y03950D02*
X05725Y03050D01*
X05725Y03050D02*
X06225Y03050D01*
X06225Y03050D02*
X06225Y03950D01*
X06225Y03950D02*
X05725Y03950D01*
X02100Y04225D02*
X01200Y04225D01*
X01200Y04225D02*
X01200Y03725D01*
X01200Y03725D02*
X02100Y03725D01*
X02100Y03725D02*
X02100Y04225D01*
X00775Y06750D02*
X00775Y05850D01*
X00775Y05850D02*
X01275Y05850D01*
X01275Y05850D02*
X01275Y06750D01*
X01275Y06750D02*
X00775Y06750D01*
X09125Y03125D02*
X09125Y04025D01*
X09125Y04025D02*
X08625Y04025D01*
X08625Y04025D02*
X08625Y03125D01*
X08625Y03125D02*
X09125Y03125D01*
X02125Y02825D02*
X02125Y01925D01*
X02125Y01925D02*
X02625Y01925D01*
X02625Y01925D02*
X02625Y02825D01*
X02625Y02825D02*
X02125Y02825D01*
X10275Y05475D02*
X09375Y05475D01*
X09375Y05475D02*
X09375Y04975D01*
X09375Y04975D02*
X10275Y04975D01*
X10275Y04975D02*
X10275Y05475D01*
X16944Y03276D02*
X17844Y03276D01*
X17844Y03276D02*
X17844Y03776D01*
X17844Y03776D02*
X16944Y03776D01*
X16944Y03776D02*
X16944Y03276D01*
X17475Y04075D02*
X17475Y04975D01*
X17475Y04975D02*
X16975Y04975D01*
X16975Y04975D02*
X16975Y04075D01*
X16975Y04075D02*
X17475Y04075D01*
X17930Y06984D02*
X17030Y06984D01*
X17030Y06984D02*
X17030Y06484D01*
X17030Y06484D02*
X17930Y06484D01*
X17930Y06484D02*
X17930Y06984D01*
X17289Y06141D02*
X17289Y05241D01*
X17289Y05241D02*
X17789Y05241D01*
X17789Y05241D02*
X17789Y06141D01*
X17789Y06141D02*
X17289Y06141D01*
X05975Y04625D02*
X05075Y04625D01*
X05075Y04625D02*
X05075Y05275D01*
X05975Y05975D02*
X05975Y06625D01*
X05975Y06625D02*
X05075Y06625D01*
X05075Y06625D02*
X05075Y05975D01*
X05975Y05275D02*
X05975Y04625D01*
X04800Y02475D02*
X04799Y02466D01*
X04796Y02456D01*
X04791Y02448D01*
X04785Y02440D01*
X04777Y02434D01*
X04769Y02429D01*
X04760Y02427D01*
X04750Y02426D01*
X04741Y02426D01*
X04732Y02429D01*
X04723Y02434D01*
X04716Y02440D01*
X04709Y02447D01*
X04705Y02456D01*
X04702Y02465D01*
X04701Y02475D01*
X04701Y02484D01*
X04704Y02493D01*
X04708Y02502D01*
X04715Y02509D01*
X04722Y02516D01*
X04730Y02520D01*
X04740Y02523D01*
X04749Y02524D01*
X04758Y02524D01*
X04768Y02521D01*
X04776Y02517D01*
X04784Y02511D01*
X04790Y02503D01*
X04795Y02495D01*
X04798Y02486D01*
X04799Y02476D01*
X04800Y02475D01*
X04750Y02925D02*
X04750Y02525D01*
X04750Y02525D02*
X05350Y02525D01*
X05350Y02525D02*
X05350Y02925D01*
X05350Y03325D02*
X05350Y03725D01*
X05350Y03725D02*
X04750Y03725D01*
X04750Y03725D02*
X04750Y03325D01*
X05025Y04625D02*
X04125Y04625D01*
X04125Y04625D02*
X04125Y05275D01*
X05025Y05975D02*
X05025Y06625D01*
X05025Y06625D02*
X04125Y06625D01*
X04125Y06625D02*
X04125Y05975D01*
X05025Y05275D02*
X05025Y04625D01*
X04125Y08675D02*
X05025Y08675D01*
X05025Y08675D02*
X05025Y08025D01*
X04125Y07325D02*
X04125Y06675D01*
X04125Y06675D02*
X05025Y06675D01*
X05025Y06675D02*
X05025Y07325D01*
X04125Y08025D02*
X04125Y08675D01*
X03275Y08725D02*
X02375Y08725D01*
X02375Y08725D02*
X02375Y08225D01*
X02375Y08225D02*
X03275Y08225D01*
X03275Y08225D02*
X03275Y08725D01*
X05075Y08675D02*
X05975Y08675D01*
X05975Y08675D02*
X05975Y08025D01*
X05075Y07325D02*
X05075Y06675D01*
X05075Y06675D02*
X05975Y06675D01*
X05975Y06675D02*
X05975Y07325D01*
X05075Y08025D02*
X05075Y08675D01*
X13200Y02300D02*
X13200Y03200D01*
X13200Y03200D02*
X12700Y03200D01*
X12700Y03200D02*
X12700Y02300D01*
X12700Y02300D02*
X13200Y02300D01*
X17714Y07850D02*
X16814Y07850D01*
X16814Y07850D02*
X16814Y07350D01*
X16814Y07350D02*
X17714Y07350D01*
X17714Y07350D02*
X17714Y07850D01*
X00100Y06750D02*
X00100Y05850D01*
X00100Y05850D02*
X00600Y05850D01*
X00600Y05850D02*
X00600Y06750D01*
X00600Y06750D02*
X00100Y06750D01*
X01075Y01525D02*
X01975Y01525D01*
X01975Y01525D02*
X01975Y02025D01*
X01975Y02025D02*
X01075Y02025D01*
X01075Y02025D02*
X01075Y01525D01*
X-01400Y08250D02*
X-01400Y07350D01*
X-01400Y07350D02*
X-00900Y07350D01*
X-00900Y07350D02*
X-00900Y08250D01*
X-00900Y08250D02*
X-01400Y08250D01*
X08675Y05375D02*
X08675Y04475D01*
X08675Y04475D02*
X09175Y04475D01*
X09175Y04475D02*
X09175Y05375D01*
X09175Y05375D02*
X08675Y05375D01*
X13275Y09075D02*
X12375Y09075D01*
X12375Y09075D02*
X12375Y08575D01*
X12375Y08575D02*
X13275Y08575D01*
X13275Y08575D02*
X13275Y09075D01*
X01150Y03200D02*
X01150Y02300D01*
X01150Y02300D02*
X01650Y02300D01*
X01650Y02300D02*
X01650Y03200D01*
X01650Y03200D02*
X01150Y03200D01*
G54D18*
X00351Y01488D02*
X00351Y01705D01*
X00318Y01705D01*
X00299Y01694D01*
X00285Y01674D01*
X00279Y01653D01*
X00272Y01612D01*
X00272Y01581D01*
X00279Y01539D01*
X00285Y01519D01*
X00299Y01498D01*
X00318Y01488D01*
X00351Y01488D01*
X00154Y01632D02*
X00154Y01488D01*
X00187Y01715D02*
X00220Y01560D01*
X00134Y01560D01*
X07301Y05513D02*
X07301Y05730D01*
X07268Y05730D01*
X07249Y05719D01*
X07235Y05699D01*
X07229Y05678D01*
X07222Y05637D01*
X07222Y05606D01*
X07229Y05564D01*
X07235Y05544D01*
X07249Y05523D01*
X07268Y05513D01*
X07301Y05513D01*
X07170Y05709D02*
X07163Y05719D01*
X07150Y05730D01*
X07117Y05730D01*
X07104Y05719D01*
X07097Y05709D01*
X07091Y05688D01*
X07091Y05668D01*
X07097Y05637D01*
X07176Y05513D01*
X07091Y05513D01*
G54D16*
X04040Y03379D02*
X04040Y03136D01*
X04029Y03107D01*
X04017Y03093D01*
X03993Y03079D01*
X03945Y03079D01*
X03921Y03093D01*
X03910Y03107D01*
X03898Y03136D01*
X03898Y03379D01*
X03659Y03379D02*
X03778Y03379D01*
X03790Y03236D01*
X03778Y03250D01*
X03755Y03264D01*
X03695Y03264D01*
X03671Y03250D01*
X03659Y03236D01*
X03648Y03207D01*
X03648Y03136D01*
X03659Y03107D01*
X03671Y03093D01*
X03695Y03079D01*
X03755Y03079D01*
X03778Y03093D01*
X03790Y03107D01*
G54D11*
X06700Y07939D02*
X06700Y07716D01*
X06691Y07690D01*
X06681Y07676D01*
X06663Y07663D01*
X06625Y07663D01*
X06606Y07676D01*
X06597Y07690D01*
X06588Y07716D01*
X06588Y07939D01*
X06410Y07847D02*
X06410Y07663D01*
X06457Y07952D02*
X06503Y07755D01*
X06382Y07755D01*
G54D16*
X14821Y04340D02*
X15064Y04340D01*
X15093Y04329D01*
X15107Y04317D01*
X15121Y04293D01*
X15121Y04245D01*
X15107Y04221D01*
X15093Y04210D01*
X15064Y04198D01*
X14821Y04198D01*
X14821Y04102D02*
X14821Y03948D01*
X14936Y04031D01*
X14936Y03995D01*
X14950Y03971D01*
X14964Y03959D01*
X14993Y03948D01*
X15064Y03948D01*
X15093Y03959D01*
X15107Y03971D01*
X15121Y03995D01*
X15121Y04067D01*
X15107Y04090D01*
X15093Y04102D01*
G54D10*
X02565Y06959D02*
X02565Y06640D01*
X02546Y06602D01*
X02528Y06583D01*
X02490Y06565D01*
X02415Y06565D01*
X02378Y06583D01*
X02359Y06602D01*
X02340Y06640D01*
X02340Y06959D01*
X02190Y06959D02*
X01927Y06959D01*
X02096Y06565D01*
G54D19*
X13729Y07013D02*
X13738Y07000D01*
X13764Y06987D01*
X13781Y06987D01*
X13806Y07000D01*
X13824Y07027D01*
X13832Y07053D01*
X13841Y07107D01*
X13841Y07147D01*
X13832Y07200D01*
X13824Y07227D01*
X13806Y07253D01*
X13781Y07267D01*
X13764Y07267D01*
X13738Y07253D01*
X13729Y07240D01*
X13566Y07267D02*
X13652Y07267D01*
X13661Y07133D01*
X13652Y07147D01*
X13635Y07160D01*
X13592Y07160D01*
X13575Y07147D01*
X13566Y07133D01*
X13558Y07107D01*
X13558Y07040D01*
X13566Y07013D01*
X13575Y07000D01*
X13592Y06987D01*
X13635Y06987D01*
X13652Y07000D01*
X13661Y07013D01*
X09679Y07688D02*
X09688Y07675D01*
X09714Y07662D01*
X09731Y07662D01*
X09756Y07675D01*
X09774Y07702D01*
X09782Y07728D01*
X09791Y07782D01*
X09791Y07822D01*
X09782Y07875D01*
X09774Y07902D01*
X09756Y07928D01*
X09731Y07942D01*
X09714Y07942D01*
X09688Y07928D01*
X09679Y07915D01*
X09525Y07848D02*
X09525Y07662D01*
X09568Y07955D02*
X09611Y07755D01*
X09499Y07755D01*
X09879Y03688D02*
X09888Y03675D01*
X09914Y03662D01*
X09931Y03662D01*
X09956Y03675D01*
X09974Y03702D01*
X09982Y03728D01*
X09991Y03782D01*
X09991Y03822D01*
X09982Y03875D01*
X09974Y03902D01*
X09956Y03928D01*
X09931Y03942D01*
X09914Y03942D01*
X09888Y03928D01*
X09879Y03915D01*
X09811Y03915D02*
X09802Y03928D01*
X09785Y03942D01*
X09742Y03942D01*
X09725Y03928D01*
X09716Y03915D01*
X09708Y03888D01*
X09708Y03862D01*
X09716Y03822D01*
X09819Y03662D01*
X09708Y03662D01*
X08487Y05999D02*
X08500Y06008D01*
X08513Y06034D01*
X08513Y06051D01*
X08500Y06076D01*
X08473Y06094D01*
X08447Y06102D01*
X08393Y06111D01*
X08353Y06111D01*
X08300Y06102D01*
X08273Y06094D01*
X08247Y06076D01*
X08233Y06051D01*
X08233Y06034D01*
X08247Y06008D01*
X08260Y05999D01*
X08513Y05828D02*
X08513Y05931D01*
X08513Y05879D02*
X08233Y05879D01*
X08273Y05896D01*
X08300Y05914D01*
X08313Y05931D01*
G54D11*
X09382Y06775D02*
X09542Y06775D01*
X09560Y06766D01*
X09570Y06756D01*
X09579Y06738D01*
X09579Y06700D01*
X09570Y06681D01*
X09560Y06672D01*
X09542Y06663D01*
X09382Y06663D01*
X09579Y06466D02*
X09579Y06578D01*
X09579Y06522D02*
X09382Y06522D01*
X09410Y06541D01*
X09429Y06560D01*
X09439Y06578D01*
G54D16*
X00669Y07421D02*
X00681Y07409D01*
X00716Y07397D01*
X00740Y07397D01*
X00776Y07409D01*
X00800Y07433D01*
X00811Y07456D01*
X00823Y07504D01*
X00823Y07540D01*
X00811Y07587D01*
X00800Y07611D01*
X00776Y07635D01*
X00740Y07647D01*
X00716Y07647D01*
X00681Y07635D01*
X00669Y07623D01*
X00573Y07623D02*
X00561Y07635D01*
X00538Y07647D01*
X00478Y07647D01*
X00454Y07635D01*
X00442Y07623D01*
X00431Y07599D01*
X00431Y07575D01*
X00442Y07540D01*
X00585Y07397D01*
X00431Y07397D01*
X00216Y07563D02*
X00216Y07397D01*
X00276Y07659D02*
X00335Y07480D01*
X00181Y07480D01*
X01761Y04748D02*
X01773Y04736D01*
X01808Y04724D01*
X01832Y04724D01*
X01868Y04736D01*
X01892Y04760D01*
X01903Y04783D01*
X01915Y04831D01*
X01915Y04867D01*
X01903Y04914D01*
X01892Y04938D01*
X01868Y04962D01*
X01832Y04974D01*
X01808Y04974D01*
X01773Y04962D01*
X01761Y04950D01*
X01665Y04950D02*
X01653Y04962D01*
X01630Y04974D01*
X01570Y04974D01*
X01546Y04962D01*
X01534Y04950D01*
X01523Y04926D01*
X01523Y04902D01*
X01534Y04867D01*
X01677Y04724D01*
X01523Y04724D01*
X01296Y04974D02*
X01415Y04974D01*
X01427Y04855D01*
X01415Y04867D01*
X01392Y04879D01*
X01332Y04879D01*
X01308Y04867D01*
X01296Y04855D01*
X01285Y04831D01*
X01285Y04771D01*
X01296Y04748D01*
X01308Y04736D01*
X01332Y04724D01*
X01392Y04724D01*
X01415Y04736D01*
X01427Y04748D01*
G54D19*
X10864Y02535D02*
X10924Y02668D01*
X10967Y02535D02*
X10967Y02815D01*
X10899Y02815D01*
X10881Y02801D01*
X10873Y02788D01*
X10864Y02761D01*
X10864Y02721D01*
X10873Y02695D01*
X10881Y02681D01*
X10899Y02668D01*
X10967Y02668D01*
X10693Y02535D02*
X10796Y02535D01*
X10744Y02535D02*
X10744Y02815D01*
X10761Y02775D01*
X10779Y02748D01*
X10796Y02735D01*
X06829Y06412D02*
X06889Y06545D01*
X06932Y06412D02*
X06932Y06692D01*
X06864Y06692D01*
X06846Y06678D01*
X06838Y06665D01*
X06829Y06638D01*
X06829Y06598D01*
X06838Y06572D01*
X06846Y06558D01*
X06864Y06545D01*
X06932Y06545D01*
X06744Y06412D02*
X06709Y06412D01*
X06692Y06425D01*
X06684Y06438D01*
X06666Y06478D01*
X06658Y06532D01*
X06658Y06638D01*
X06666Y06665D01*
X06675Y06678D01*
X06692Y06692D01*
X06726Y06692D01*
X06744Y06678D01*
X06752Y06665D01*
X06761Y06638D01*
X06761Y06572D01*
X06752Y06545D01*
X06744Y06532D01*
X06726Y06518D01*
X06692Y06518D01*
X06675Y06532D01*
X06666Y06545D01*
X06658Y06572D01*
X06754Y04187D02*
X06814Y04320D01*
X06857Y04187D02*
X06857Y04467D01*
X06789Y04467D01*
X06771Y04453D01*
X06763Y04440D01*
X06754Y04413D01*
X06754Y04373D01*
X06763Y04347D01*
X06771Y04333D01*
X06789Y04320D01*
X06857Y04320D01*
X06651Y04347D02*
X06669Y04360D01*
X06677Y04373D01*
X06686Y04400D01*
X06686Y04413D01*
X06677Y04440D01*
X06669Y04453D01*
X06651Y04467D01*
X06617Y04467D01*
X06600Y04453D01*
X06591Y04440D01*
X06583Y04413D01*
X06583Y04400D01*
X06591Y04373D01*
X06600Y04360D01*
X06617Y04347D01*
X06651Y04347D01*
X06669Y04333D01*
X06677Y04320D01*
X06686Y04293D01*
X06686Y04240D01*
X06677Y04213D01*
X06669Y04200D01*
X06651Y04187D01*
X06617Y04187D01*
X06600Y04200D01*
X06591Y04213D01*
X06583Y04240D01*
X06583Y04293D01*
X06591Y04320D01*
X06600Y04333D01*
X06617Y04347D01*
X15054Y08887D02*
X15114Y09020D01*
X15157Y08887D02*
X15157Y09167D01*
X15089Y09167D01*
X15071Y09153D01*
X15063Y09140D01*
X15054Y09113D01*
X15054Y09073D01*
X15063Y09047D01*
X15071Y09033D01*
X15089Y09020D01*
X15157Y09020D01*
X14994Y09167D02*
X14874Y09167D01*
X14951Y08887D01*
X14829Y07387D02*
X14889Y07520D01*
X14932Y07387D02*
X14932Y07667D01*
X14864Y07667D01*
X14846Y07653D01*
X14838Y07640D01*
X14829Y07613D01*
X14829Y07573D01*
X14838Y07547D01*
X14846Y07533D01*
X14864Y07520D01*
X14932Y07520D01*
X14769Y07667D02*
X14658Y07667D01*
X14718Y07560D01*
X14692Y07560D01*
X14675Y07547D01*
X14666Y07533D01*
X14658Y07507D01*
X14658Y07440D01*
X14666Y07413D01*
X14675Y07400D01*
X14692Y07387D01*
X14744Y07387D01*
X14761Y07400D01*
X14769Y07413D01*
X05154Y04112D02*
X05240Y04112D01*
X05240Y04392D01*
X05017Y04298D02*
X05017Y04112D01*
X05060Y04405D02*
X05103Y04205D01*
X04991Y04205D01*
X03615Y01412D02*
X03675Y01545D01*
X03718Y01412D02*
X03718Y01692D01*
X03650Y01692D01*
X03632Y01678D01*
X03624Y01665D01*
X03615Y01638D01*
X03615Y01598D01*
X03624Y01572D01*
X03632Y01558D01*
X03650Y01545D01*
X03718Y01545D01*
X03444Y01412D02*
X03547Y01412D01*
X03495Y01412D02*
X03495Y01692D01*
X03512Y01652D01*
X03530Y01625D01*
X03547Y01612D01*
X03333Y01692D02*
X03316Y01692D01*
X03299Y01678D01*
X03290Y01665D01*
X03281Y01638D01*
X03273Y01585D01*
X03273Y01518D01*
X03281Y01465D01*
X03290Y01438D01*
X03299Y01425D01*
X03316Y01412D01*
X03333Y01412D01*
X03350Y01425D01*
X03359Y01438D01*
X03367Y01465D01*
X03376Y01518D01*
X03376Y01585D01*
X03367Y01638D01*
X03359Y01665D01*
X03350Y01678D01*
X03333Y01692D01*
X06158Y02133D02*
X06218Y02266D01*
X06261Y02133D02*
X06261Y02413D01*
X06193Y02413D01*
X06175Y02399D01*
X06167Y02386D01*
X06158Y02359D01*
X06158Y02319D01*
X06167Y02293D01*
X06175Y02279D01*
X06193Y02266D01*
X06261Y02266D01*
X05987Y02133D02*
X06090Y02133D01*
X06038Y02133D02*
X06038Y02413D01*
X06055Y02373D01*
X06073Y02346D01*
X06090Y02333D01*
X05927Y02413D02*
X05816Y02413D01*
X05876Y02306D01*
X05850Y02306D01*
X05833Y02293D01*
X05824Y02279D01*
X05816Y02253D01*
X05816Y02186D01*
X05824Y02159D01*
X05833Y02146D01*
X05850Y02133D01*
X05902Y02133D01*
X05919Y02146D01*
X05927Y02159D01*
X02854Y08912D02*
X02940Y08912D01*
X02940Y09192D01*
X02803Y09165D02*
X02794Y09178D01*
X02777Y09192D01*
X02734Y09192D01*
X02717Y09178D01*
X02708Y09165D01*
X02700Y09138D01*
X02700Y09112D01*
X02708Y09072D01*
X02811Y08912D01*
X02700Y08912D01*
X01487Y08640D02*
X01500Y08649D01*
X01513Y08675D01*
X01513Y08692D01*
X01500Y08717D01*
X01473Y08735D01*
X01447Y08743D01*
X01393Y08752D01*
X01353Y08752D01*
X01300Y08743D01*
X01273Y08735D01*
X01247Y08717D01*
X01233Y08692D01*
X01233Y08675D01*
X01247Y08649D01*
X01260Y08640D01*
X01513Y08469D02*
X01513Y08572D01*
X01513Y08520D02*
X01233Y08520D01*
X01273Y08537D01*
X01300Y08555D01*
X01313Y08572D01*
X01260Y08401D02*
X01247Y08392D01*
X01233Y08375D01*
X01233Y08332D01*
X01247Y08315D01*
X01260Y08306D01*
X01287Y08298D01*
X01313Y08298D01*
X01353Y08306D01*
X01513Y08409D01*
X01513Y08298D01*
X15062Y06640D02*
X15075Y06649D01*
X15088Y06675D01*
X15088Y06692D01*
X15075Y06717D01*
X15048Y06735D01*
X15022Y06743D01*
X14968Y06752D01*
X14928Y06752D01*
X14875Y06743D01*
X14848Y06735D01*
X14822Y06717D01*
X14808Y06692D01*
X14808Y06675D01*
X14822Y06649D01*
X14835Y06640D01*
X14835Y06572D02*
X14822Y06563D01*
X14808Y06546D01*
X14808Y06503D01*
X14822Y06486D01*
X14835Y06477D01*
X14862Y06469D01*
X14888Y06469D01*
X14928Y06477D01*
X15088Y06580D01*
X15088Y06469D01*
X15088Y06298D02*
X15088Y06401D01*
X15088Y06349D02*
X14808Y06349D01*
X14848Y06366D01*
X14875Y06384D01*
X14888Y06401D01*
X02937Y03565D02*
X02950Y03574D01*
X02963Y03600D01*
X02963Y03617D01*
X02950Y03642D01*
X02923Y03660D01*
X02897Y03668D01*
X02843Y03677D01*
X02803Y03677D01*
X02750Y03668D01*
X02723Y03660D01*
X02697Y03642D01*
X02683Y03617D01*
X02683Y03600D01*
X02697Y03574D01*
X02710Y03565D01*
X02710Y03497D02*
X02697Y03488D01*
X02683Y03471D01*
X02683Y03428D01*
X02697Y03411D01*
X02710Y03402D01*
X02737Y03394D01*
X02763Y03394D01*
X02803Y03402D01*
X02963Y03505D01*
X02963Y03394D01*
X02683Y03283D02*
X02683Y03266D01*
X02697Y03249D01*
X02710Y03240D01*
X02737Y03231D01*
X02790Y03223D01*
X02857Y03223D01*
X02910Y03231D01*
X02937Y03240D01*
X02950Y03249D01*
X02963Y03266D01*
X02963Y03283D01*
X02950Y03300D01*
X02937Y03309D01*
X02910Y03317D01*
X02857Y03326D01*
X02790Y03326D01*
X02737Y03317D01*
X02710Y03309D01*
X02697Y03300D01*
X02683Y03283D01*
X03713Y05743D02*
X03726Y05752D01*
X03739Y05778D01*
X03739Y05795D01*
X03726Y05820D01*
X03699Y05838D01*
X03673Y05846D01*
X03619Y05855D01*
X03579Y05855D01*
X03526Y05846D01*
X03499Y05838D01*
X03473Y05820D01*
X03459Y05795D01*
X03459Y05778D01*
X03473Y05752D01*
X03486Y05743D01*
X03739Y05572D02*
X03739Y05675D01*
X03739Y05623D02*
X03459Y05623D01*
X03499Y05640D01*
X03526Y05658D01*
X03539Y05675D01*
X03579Y05469D02*
X03566Y05487D01*
X03553Y05495D01*
X03526Y05504D01*
X03513Y05504D01*
X03486Y05495D01*
X03473Y05487D01*
X03459Y05469D01*
X03459Y05435D01*
X03473Y05418D01*
X03486Y05409D01*
X03513Y05401D01*
X03526Y05401D01*
X03553Y05409D01*
X03566Y05418D01*
X03579Y05435D01*
X03579Y05469D01*
X03593Y05487D01*
X03606Y05495D01*
X03633Y05504D01*
X03686Y05504D01*
X03713Y05495D01*
X03726Y05487D01*
X03739Y05469D01*
X03739Y05435D01*
X03726Y05418D01*
X03713Y05409D01*
X03686Y05401D01*
X03633Y05401D01*
X03606Y05409D01*
X03593Y05418D01*
X03579Y05435D01*
X06840Y04888D02*
X06849Y04875D01*
X06875Y04862D01*
X06892Y04862D01*
X06917Y04875D01*
X06935Y04902D01*
X06943Y04928D01*
X06952Y04982D01*
X06952Y05022D01*
X06943Y05075D01*
X06935Y05102D01*
X06917Y05128D01*
X06892Y05142D01*
X06875Y05142D01*
X06849Y05128D01*
X06840Y05115D01*
X06669Y04862D02*
X06772Y04862D01*
X06720Y04862D02*
X06720Y05142D01*
X06737Y05102D01*
X06755Y05075D01*
X06772Y05062D01*
X06506Y05142D02*
X06592Y05142D01*
X06601Y05008D01*
X06592Y05022D01*
X06575Y05035D01*
X06532Y05035D01*
X06515Y05022D01*
X06506Y05008D01*
X06498Y04982D01*
X06498Y04915D01*
X06506Y04888D01*
X06515Y04875D01*
X06532Y04862D01*
X06575Y04862D01*
X06592Y04875D01*
X06601Y04888D01*
X07612Y07965D02*
X07625Y07974D01*
X07638Y08000D01*
X07638Y08017D01*
X07625Y08042D01*
X07598Y08060D01*
X07572Y08068D01*
X07518Y08077D01*
X07478Y08077D01*
X07425Y08068D01*
X07398Y08060D01*
X07372Y08042D01*
X07358Y08017D01*
X07358Y08000D01*
X07372Y07974D01*
X07385Y07965D01*
X07638Y07794D02*
X07638Y07897D01*
X07638Y07845D02*
X07358Y07845D01*
X07398Y07862D01*
X07425Y07880D01*
X07438Y07897D01*
X07452Y07640D02*
X07638Y07640D01*
X07345Y07683D02*
X07545Y07726D01*
X07545Y07614D01*
X13612Y02865D02*
X13625Y02874D01*
X13638Y02900D01*
X13638Y02917D01*
X13625Y02942D01*
X13598Y02960D01*
X13572Y02968D01*
X13518Y02977D01*
X13478Y02977D01*
X13425Y02968D01*
X13398Y02960D01*
X13372Y02942D01*
X13358Y02917D01*
X13358Y02900D01*
X13372Y02874D01*
X13385Y02865D01*
X13638Y02694D02*
X13638Y02797D01*
X13638Y02745D02*
X13358Y02745D01*
X13398Y02762D01*
X13425Y02780D01*
X13438Y02797D01*
X13638Y02523D02*
X13638Y02626D01*
X13638Y02574D02*
X13358Y02574D01*
X13398Y02591D01*
X13425Y02609D01*
X13438Y02626D01*
X16315Y08913D02*
X16324Y08900D01*
X16350Y08887D01*
X16367Y08887D01*
X16392Y08900D01*
X16410Y08927D01*
X16418Y08953D01*
X16427Y09007D01*
X16427Y09047D01*
X16418Y09100D01*
X16410Y09127D01*
X16392Y09153D01*
X16367Y09167D01*
X16350Y09167D01*
X16324Y09153D01*
X16315Y09140D01*
X16144Y08887D02*
X16247Y08887D01*
X16195Y08887D02*
X16195Y09167D01*
X16212Y09127D01*
X16230Y09100D01*
X16247Y09087D01*
X16033Y09167D02*
X16016Y09167D01*
X15999Y09153D01*
X15990Y09140D01*
X15981Y09113D01*
X15973Y09060D01*
X15973Y08993D01*
X15981Y08940D01*
X15990Y08913D01*
X15999Y08900D01*
X16016Y08887D01*
X16033Y08887D01*
X16050Y08900D01*
X16059Y08913D01*
X16067Y08940D01*
X16076Y08993D01*
X16076Y09060D01*
X16067Y09113D01*
X16059Y09140D01*
X16050Y09153D01*
X16033Y09167D01*
X08604Y07688D02*
X08613Y07675D01*
X08639Y07662D01*
X08656Y07662D01*
X08681Y07675D01*
X08699Y07702D01*
X08707Y07728D01*
X08716Y07782D01*
X08716Y07822D01*
X08707Y07875D01*
X08699Y07902D01*
X08681Y07928D01*
X08656Y07942D01*
X08639Y07942D01*
X08613Y07928D01*
X08604Y07915D01*
X08519Y07662D02*
X08484Y07662D01*
X08467Y07675D01*
X08459Y07688D01*
X08441Y07728D01*
X08433Y07782D01*
X08433Y07888D01*
X08441Y07915D01*
X08450Y07928D01*
X08467Y07942D01*
X08501Y07942D01*
X08519Y07928D01*
X08527Y07915D01*
X08536Y07888D01*
X08536Y07822D01*
X08527Y07795D01*
X08519Y07782D01*
X08501Y07768D01*
X08467Y07768D01*
X08450Y07782D01*
X08441Y07795D01*
X08433Y07822D01*
X09929Y01813D02*
X09938Y01800D01*
X09964Y01787D01*
X09981Y01787D01*
X10006Y01800D01*
X10024Y01827D01*
X10032Y01853D01*
X10041Y01907D01*
X10041Y01947D01*
X10032Y02000D01*
X10024Y02027D01*
X10006Y02053D01*
X09981Y02067D01*
X09964Y02067D01*
X09938Y02053D01*
X09929Y02040D01*
X09826Y01947D02*
X09844Y01960D01*
X09852Y01973D01*
X09861Y02000D01*
X09861Y02013D01*
X09852Y02040D01*
X09844Y02053D01*
X09826Y02067D01*
X09792Y02067D01*
X09775Y02053D01*
X09766Y02040D01*
X09758Y02013D01*
X09758Y02000D01*
X09766Y01973D01*
X09775Y01960D01*
X09792Y01947D01*
X09826Y01947D01*
X09844Y01933D01*
X09852Y01920D01*
X09861Y01893D01*
X09861Y01840D01*
X09852Y01813D01*
X09844Y01800D01*
X09826Y01787D01*
X09792Y01787D01*
X09775Y01800D01*
X09766Y01813D01*
X09758Y01840D01*
X09758Y01893D01*
X09766Y01920D01*
X09775Y01933D01*
X09792Y01947D01*
X13412Y06104D02*
X13425Y06113D01*
X13438Y06139D01*
X13438Y06156D01*
X13425Y06181D01*
X13398Y06199D01*
X13372Y06207D01*
X13318Y06216D01*
X13278Y06216D01*
X13225Y06207D01*
X13198Y06199D01*
X13172Y06181D01*
X13158Y06156D01*
X13158Y06139D01*
X13172Y06113D01*
X13185Y06104D01*
X13158Y05950D02*
X13158Y05984D01*
X13172Y06001D01*
X13185Y06010D01*
X13225Y06027D01*
X13278Y06036D01*
X13385Y06036D01*
X13412Y06027D01*
X13425Y06019D01*
X13438Y06001D01*
X13438Y05967D01*
X13425Y05950D01*
X13412Y05941D01*
X13385Y05933D01*
X13318Y05933D01*
X13292Y05941D01*
X13278Y05950D01*
X13265Y05967D01*
X13265Y06001D01*
X13278Y06019D01*
X13292Y06027D01*
X13318Y06036D01*
X03712Y06715D02*
X03725Y06724D01*
X03738Y06750D01*
X03738Y06767D01*
X03725Y06792D01*
X03698Y06810D01*
X03672Y06818D01*
X03618Y06827D01*
X03578Y06827D01*
X03525Y06818D01*
X03498Y06810D01*
X03472Y06792D01*
X03458Y06767D01*
X03458Y06750D01*
X03472Y06724D01*
X03485Y06715D01*
X03458Y06655D02*
X03458Y06544D01*
X03565Y06604D01*
X03565Y06578D01*
X03578Y06561D01*
X03592Y06552D01*
X03618Y06544D01*
X03685Y06544D01*
X03712Y06552D01*
X03725Y06561D01*
X03738Y06578D01*
X03738Y06630D01*
X03725Y06647D01*
X03712Y06655D01*
X03458Y06390D02*
X03458Y06424D01*
X03472Y06441D01*
X03485Y06450D01*
X03525Y06467D01*
X03578Y06476D01*
X03685Y06476D01*
X03712Y06467D01*
X03725Y06459D01*
X03738Y06441D01*
X03738Y06407D01*
X03725Y06390D01*
X03712Y06381D01*
X03685Y06373D01*
X03618Y06373D01*
X03592Y06381D01*
X03578Y06390D01*
X03565Y06407D01*
X03565Y06441D01*
X03578Y06459D01*
X03592Y06467D01*
X03618Y06476D01*
X03762Y08015D02*
X03775Y08024D01*
X03788Y08050D01*
X03788Y08067D01*
X03775Y08092D01*
X03748Y08110D01*
X03722Y08118D01*
X03668Y08127D01*
X03628Y08127D01*
X03575Y08118D01*
X03548Y08110D01*
X03522Y08092D01*
X03508Y08067D01*
X03508Y08050D01*
X03522Y08024D01*
X03535Y08015D01*
X03508Y07955D02*
X03508Y07844D01*
X03615Y07904D01*
X03615Y07878D01*
X03628Y07861D01*
X03642Y07852D01*
X03668Y07844D01*
X03735Y07844D01*
X03762Y07852D01*
X03775Y07861D01*
X03788Y07878D01*
X03788Y07930D01*
X03775Y07947D01*
X03762Y07955D01*
X03508Y07681D02*
X03508Y07767D01*
X03642Y07776D01*
X03628Y07767D01*
X03615Y07750D01*
X03615Y07707D01*
X03628Y07690D01*
X03642Y07681D01*
X03668Y07673D01*
X03735Y07673D01*
X03762Y07681D01*
X03775Y07690D01*
X03788Y07707D01*
X03788Y07750D01*
X03775Y07767D01*
X03762Y07776D01*
X15240Y03038D02*
X15249Y03025D01*
X15275Y03012D01*
X15292Y03012D01*
X15317Y03025D01*
X15335Y03052D01*
X15343Y03078D01*
X15352Y03132D01*
X15352Y03172D01*
X15343Y03225D01*
X15335Y03252D01*
X15317Y03278D01*
X15292Y03292D01*
X15275Y03292D01*
X15249Y03278D01*
X15240Y03265D01*
X15180Y03292D02*
X15069Y03292D01*
X15129Y03185D01*
X15103Y03185D01*
X15086Y03172D01*
X15077Y03158D01*
X15069Y03132D01*
X15069Y03065D01*
X15077Y03038D01*
X15086Y03025D01*
X15103Y03012D01*
X15155Y03012D01*
X15172Y03025D01*
X15180Y03038D01*
X14915Y03198D02*
X14915Y03012D01*
X14958Y03305D02*
X15001Y03105D01*
X14889Y03105D01*
X03540Y04538D02*
X03549Y04525D01*
X03575Y04512D01*
X03592Y04512D01*
X03617Y04525D01*
X03635Y04552D01*
X03643Y04578D01*
X03652Y04632D01*
X03652Y04672D01*
X03643Y04725D01*
X03635Y04752D01*
X03617Y04778D01*
X03592Y04792D01*
X03575Y04792D01*
X03549Y04778D01*
X03540Y04765D01*
X03480Y04792D02*
X03369Y04792D01*
X03429Y04685D01*
X03403Y04685D01*
X03386Y04672D01*
X03377Y04658D01*
X03369Y04632D01*
X03369Y04565D01*
X03377Y04538D01*
X03386Y04525D01*
X03403Y04512D01*
X03455Y04512D01*
X03472Y04525D01*
X03480Y04538D01*
X03309Y04792D02*
X03198Y04792D01*
X03258Y04685D01*
X03232Y04685D01*
X03215Y04672D01*
X03206Y04658D01*
X03198Y04632D01*
X03198Y04565D01*
X03206Y04538D01*
X03215Y04525D01*
X03232Y04512D01*
X03284Y04512D01*
X03301Y04525D01*
X03309Y04538D01*
X06062Y03615D02*
X06075Y03624D01*
X06088Y03650D01*
X06088Y03667D01*
X06075Y03692D01*
X06048Y03710D01*
X06022Y03718D01*
X05968Y03727D01*
X05928Y03727D01*
X05875Y03718D01*
X05848Y03710D01*
X05822Y03692D01*
X05808Y03667D01*
X05808Y03650D01*
X05822Y03624D01*
X05835Y03615D01*
X05808Y03555D02*
X05808Y03444D01*
X05915Y03504D01*
X05915Y03478D01*
X05928Y03461D01*
X05942Y03452D01*
X05968Y03444D01*
X06035Y03444D01*
X06062Y03452D01*
X06075Y03461D01*
X06088Y03478D01*
X06088Y03530D01*
X06075Y03547D01*
X06062Y03555D01*
X05835Y03376D02*
X05822Y03367D01*
X05808Y03350D01*
X05808Y03307D01*
X05822Y03290D01*
X05835Y03281D01*
X05862Y03273D01*
X05888Y03273D01*
X05928Y03281D01*
X06088Y03384D01*
X06088Y03273D01*
X01765Y03888D02*
X01774Y03875D01*
X01800Y03862D01*
X01817Y03862D01*
X01842Y03875D01*
X01860Y03902D01*
X01868Y03928D01*
X01877Y03982D01*
X01877Y04022D01*
X01868Y04075D01*
X01860Y04102D01*
X01842Y04128D01*
X01817Y04142D01*
X01800Y04142D01*
X01774Y04128D01*
X01765Y04115D01*
X01705Y04142D02*
X01594Y04142D01*
X01654Y04035D01*
X01628Y04035D01*
X01611Y04022D01*
X01602Y04008D01*
X01594Y03982D01*
X01594Y03915D01*
X01602Y03888D01*
X01611Y03875D01*
X01628Y03862D01*
X01680Y03862D01*
X01697Y03875D01*
X01705Y03888D01*
X01483Y04142D02*
X01466Y04142D01*
X01449Y04128D01*
X01440Y04115D01*
X01431Y04088D01*
X01423Y04035D01*
X01423Y03968D01*
X01431Y03915D01*
X01440Y03888D01*
X01449Y03875D01*
X01466Y03862D01*
X01483Y03862D01*
X01500Y03875D01*
X01509Y03888D01*
X01517Y03915D01*
X01526Y03968D01*
X01526Y04035D01*
X01517Y04088D01*
X01509Y04115D01*
X01500Y04128D01*
X01483Y04142D01*
X01137Y06440D02*
X01150Y06449D01*
X01163Y06475D01*
X01163Y06492D01*
X01150Y06517D01*
X01123Y06535D01*
X01097Y06543D01*
X01043Y06552D01*
X01003Y06552D01*
X00950Y06543D01*
X00923Y06535D01*
X00897Y06517D01*
X00883Y06492D01*
X00883Y06475D01*
X00897Y06449D01*
X00910Y06440D01*
X00910Y06372D02*
X00897Y06363D01*
X00883Y06346D01*
X00883Y06303D01*
X00897Y06286D01*
X00910Y06277D01*
X00937Y06269D01*
X00963Y06269D01*
X01003Y06277D01*
X01163Y06380D01*
X01163Y06269D01*
X01163Y06184D02*
X01163Y06149D01*
X01150Y06132D01*
X01137Y06124D01*
X01097Y06106D01*
X01043Y06098D01*
X00937Y06098D01*
X00910Y06106D01*
X00897Y06115D01*
X00883Y06132D01*
X00883Y06166D01*
X00897Y06184D01*
X00910Y06192D01*
X00937Y06201D01*
X01003Y06201D01*
X01030Y06192D01*
X01043Y06184D01*
X01057Y06166D01*
X01057Y06132D01*
X01043Y06115D01*
X01030Y06106D01*
X01003Y06098D01*
X08962Y03690D02*
X08975Y03699D01*
X08988Y03725D01*
X08988Y03742D01*
X08975Y03767D01*
X08948Y03785D01*
X08922Y03793D01*
X08868Y03802D01*
X08828Y03802D01*
X08775Y03793D01*
X08748Y03785D01*
X08722Y03767D01*
X08708Y03742D01*
X08708Y03725D01*
X08722Y03699D01*
X08735Y03690D01*
X08708Y03630D02*
X08708Y03519D01*
X08815Y03579D01*
X08815Y03553D01*
X08828Y03536D01*
X08842Y03527D01*
X08868Y03519D01*
X08935Y03519D01*
X08962Y03527D01*
X08975Y03536D01*
X08988Y03553D01*
X08988Y03605D01*
X08975Y03622D01*
X08962Y03630D01*
X08988Y03348D02*
X08988Y03451D01*
X08988Y03399D02*
X08708Y03399D01*
X08748Y03416D01*
X08775Y03434D01*
X08788Y03451D01*
X02462Y02490D02*
X02475Y02499D01*
X02488Y02525D01*
X02488Y02542D01*
X02475Y02567D01*
X02448Y02585D01*
X02422Y02593D01*
X02368Y02602D01*
X02328Y02602D01*
X02275Y02593D01*
X02248Y02585D01*
X02222Y02567D01*
X02208Y02542D01*
X02208Y02525D01*
X02222Y02499D01*
X02235Y02490D01*
X02235Y02422D02*
X02222Y02413D01*
X02208Y02396D01*
X02208Y02353D01*
X02222Y02336D01*
X02235Y02327D01*
X02262Y02319D01*
X02288Y02319D01*
X02328Y02327D01*
X02488Y02430D01*
X02488Y02319D01*
X02328Y02216D02*
X02315Y02234D01*
X02302Y02242D01*
X02275Y02251D01*
X02262Y02251D01*
X02235Y02242D01*
X02222Y02234D01*
X02208Y02216D01*
X02208Y02182D01*
X02222Y02165D01*
X02235Y02156D01*
X02262Y02148D01*
X02275Y02148D01*
X02302Y02156D01*
X02315Y02165D01*
X02328Y02182D01*
X02328Y02216D01*
X02342Y02234D01*
X02355Y02242D01*
X02382Y02251D01*
X02435Y02251D01*
X02462Y02242D01*
X02475Y02234D01*
X02488Y02216D01*
X02488Y02182D01*
X02475Y02165D01*
X02462Y02156D01*
X02435Y02148D01*
X02382Y02148D01*
X02355Y02156D01*
X02342Y02165D01*
X02328Y02182D01*
X09854Y05112D02*
X09940Y05112D01*
X09940Y05392D01*
X09700Y05112D02*
X09803Y05112D01*
X09751Y05112D02*
X09751Y05392D01*
X09768Y05352D01*
X09786Y05325D01*
X09803Y05312D01*
X17509Y03439D02*
X17518Y03426D01*
X17544Y03413D01*
X17561Y03413D01*
X17586Y03426D01*
X17604Y03453D01*
X17612Y03479D01*
X17621Y03533D01*
X17621Y03573D01*
X17612Y03626D01*
X17604Y03653D01*
X17586Y03679D01*
X17561Y03693D01*
X17544Y03693D01*
X17518Y03679D01*
X17509Y03666D01*
X17449Y03693D02*
X17338Y03693D01*
X17398Y03586D01*
X17372Y03586D01*
X17355Y03573D01*
X17346Y03559D01*
X17338Y03533D01*
X17338Y03466D01*
X17346Y03439D01*
X17355Y03426D01*
X17372Y03413D01*
X17424Y03413D01*
X17441Y03426D01*
X17449Y03439D01*
X17278Y03693D02*
X17158Y03693D01*
X17235Y03413D01*
X17388Y04665D02*
X17255Y04725D01*
X17388Y04768D02*
X17108Y04768D01*
X17108Y04700D01*
X17122Y04682D01*
X17135Y04674D01*
X17162Y04665D01*
X17202Y04665D01*
X17228Y04674D01*
X17242Y04682D01*
X17255Y04700D01*
X17255Y04768D01*
X17135Y04597D02*
X17122Y04588D01*
X17108Y04571D01*
X17108Y04528D01*
X17122Y04511D01*
X17135Y04502D01*
X17162Y04494D01*
X17188Y04494D01*
X17228Y04502D01*
X17388Y04605D01*
X17388Y04494D01*
X17108Y04340D02*
X17108Y04374D01*
X17122Y04391D01*
X17135Y04400D01*
X17175Y04417D01*
X17228Y04426D01*
X17335Y04426D01*
X17362Y04417D01*
X17375Y04409D01*
X17388Y04391D01*
X17388Y04357D01*
X17375Y04340D01*
X17362Y04331D01*
X17335Y04323D01*
X17268Y04323D01*
X17242Y04331D01*
X17228Y04340D01*
X17215Y04357D01*
X17215Y04391D01*
X17228Y04409D01*
X17242Y04417D01*
X17268Y04426D01*
X17595Y06621D02*
X17655Y06754D01*
X17698Y06621D02*
X17698Y06901D01*
X17630Y06901D01*
X17612Y06887D01*
X17604Y06874D01*
X17595Y06847D01*
X17595Y06807D01*
X17604Y06781D01*
X17612Y06767D01*
X17630Y06754D01*
X17698Y06754D01*
X17527Y06874D02*
X17518Y06887D01*
X17501Y06901D01*
X17458Y06901D01*
X17441Y06887D01*
X17432Y06874D01*
X17424Y06847D01*
X17424Y06821D01*
X17432Y06781D01*
X17535Y06621D01*
X17424Y06621D01*
X17364Y06901D02*
X17244Y06901D01*
X17321Y06621D01*
X17652Y05806D02*
X17519Y05866D01*
X17652Y05909D02*
X17372Y05909D01*
X17372Y05841D01*
X17386Y05823D01*
X17399Y05815D01*
X17426Y05806D01*
X17466Y05806D01*
X17492Y05815D01*
X17506Y05823D01*
X17519Y05841D01*
X17519Y05909D01*
X17399Y05738D02*
X17386Y05729D01*
X17372Y05712D01*
X17372Y05669D01*
X17386Y05652D01*
X17399Y05643D01*
X17426Y05635D01*
X17452Y05635D01*
X17492Y05643D01*
X17652Y05746D01*
X17652Y05635D01*
X17652Y05550D02*
X17652Y05515D01*
X17639Y05498D01*
X17626Y05490D01*
X17586Y05472D01*
X17532Y05464D01*
X17426Y05464D01*
X17399Y05472D01*
X17386Y05481D01*
X17372Y05498D01*
X17372Y05532D01*
X17386Y05550D01*
X17399Y05558D01*
X17426Y05567D01*
X17492Y05567D01*
X17519Y05558D01*
X17532Y05550D01*
X17546Y05532D01*
X17546Y05498D01*
X17532Y05481D01*
X17519Y05472D01*
X17492Y05464D01*
G54D11*
X12054Y06995D02*
X11857Y06995D01*
X11857Y06920D01*
X11867Y06901D01*
X11876Y06892D01*
X11895Y06883D01*
X11923Y06883D01*
X11942Y06892D01*
X11951Y06901D01*
X11960Y06920D01*
X11960Y06995D01*
X11857Y06714D02*
X11857Y06751D01*
X11867Y06770D01*
X11876Y06779D01*
X11904Y06798D01*
X11942Y06807D01*
X12017Y06807D01*
X12035Y06798D01*
X12045Y06789D01*
X12054Y06770D01*
X12054Y06732D01*
X12045Y06714D01*
X12035Y06704D01*
X12017Y06695D01*
X11970Y06695D01*
X11951Y06704D01*
X11942Y06714D01*
X11932Y06732D01*
X11932Y06770D01*
X11942Y06789D01*
X11951Y06798D01*
X11970Y06807D01*
G54D16*
X05618Y05818D02*
X05632Y05832D01*
X05646Y05875D01*
X05646Y05904D01*
X05632Y05947D01*
X05604Y05975D01*
X05575Y05990D01*
X05518Y06004D01*
X05475Y06004D01*
X05418Y05990D01*
X05389Y05975D01*
X05361Y05947D01*
X05346Y05904D01*
X05346Y05875D01*
X05361Y05832D01*
X05375Y05818D01*
X05646Y05532D02*
X05646Y05704D01*
X05646Y05618D02*
X05346Y05618D01*
X05389Y05647D01*
X05418Y05675D01*
X05432Y05704D01*
X05346Y05275D02*
X05346Y05332D01*
X05361Y05361D01*
X05375Y05375D01*
X05418Y05404D01*
X05475Y05418D01*
X05589Y05418D01*
X05618Y05404D01*
X05632Y05389D01*
X05646Y05361D01*
X05646Y05304D01*
X05632Y05275D01*
X05618Y05261D01*
X05589Y05246D01*
X05518Y05246D01*
X05489Y05261D01*
X05475Y05275D01*
X05461Y05304D01*
X05461Y05361D01*
X05475Y05389D01*
X05489Y05404D01*
X05518Y05418D01*
X05152Y03311D02*
X05164Y03323D01*
X05176Y03358D01*
X05176Y03382D01*
X05164Y03418D01*
X05140Y03442D01*
X05117Y03453D01*
X05069Y03465D01*
X05033Y03465D01*
X04986Y03453D01*
X04962Y03442D01*
X04938Y03418D01*
X04926Y03382D01*
X04926Y03358D01*
X04938Y03323D01*
X04950Y03311D01*
X05176Y03073D02*
X05176Y03215D01*
X05176Y03144D02*
X04926Y03144D01*
X04962Y03168D01*
X04986Y03192D01*
X04998Y03215D01*
X05176Y02954D02*
X05176Y02906D01*
X05164Y02882D01*
X05152Y02870D01*
X05117Y02846D01*
X05069Y02835D01*
X04974Y02835D01*
X04950Y02846D01*
X04938Y02858D01*
X04926Y02882D01*
X04926Y02930D01*
X04938Y02954D01*
X04950Y02965D01*
X04974Y02977D01*
X05033Y02977D01*
X05057Y02965D01*
X05069Y02954D01*
X05081Y02930D01*
X05081Y02882D01*
X05069Y02858D01*
X05057Y02846D01*
X05033Y02835D01*
X04668Y05818D02*
X04682Y05832D01*
X04696Y05875D01*
X04696Y05904D01*
X04682Y05947D01*
X04654Y05975D01*
X04625Y05990D01*
X04568Y06004D01*
X04525Y06004D01*
X04468Y05990D01*
X04439Y05975D01*
X04411Y05947D01*
X04396Y05904D01*
X04396Y05875D01*
X04411Y05832D01*
X04425Y05818D01*
X04696Y05532D02*
X04696Y05704D01*
X04696Y05618D02*
X04396Y05618D01*
X04439Y05647D01*
X04468Y05675D01*
X04482Y05704D01*
X04396Y05432D02*
X04396Y05232D01*
X04696Y05361D01*
X04668Y07868D02*
X04682Y07882D01*
X04696Y07925D01*
X04696Y07954D01*
X04682Y07997D01*
X04654Y08025D01*
X04625Y08040D01*
X04568Y08054D01*
X04525Y08054D01*
X04468Y08040D01*
X04439Y08025D01*
X04411Y07997D01*
X04396Y07954D01*
X04396Y07925D01*
X04411Y07882D01*
X04425Y07868D01*
X04496Y07611D02*
X04696Y07611D01*
X04382Y07682D02*
X04596Y07754D01*
X04596Y07568D01*
X04696Y07296D02*
X04696Y07468D01*
X04696Y07382D02*
X04396Y07382D01*
X04439Y07411D01*
X04468Y07439D01*
X04482Y07468D01*
G54D19*
X02940Y08388D02*
X02949Y08375D01*
X02975Y08362D01*
X02992Y08362D01*
X03017Y08375D01*
X03035Y08402D01*
X03043Y08428D01*
X03052Y08482D01*
X03052Y08522D01*
X03043Y08575D01*
X03035Y08602D01*
X03017Y08628D01*
X02992Y08642D01*
X02975Y08642D01*
X02949Y08628D01*
X02940Y08615D01*
X02786Y08548D02*
X02786Y08362D01*
X02829Y08655D02*
X02872Y08455D01*
X02760Y08455D01*
X02658Y08642D02*
X02641Y08642D01*
X02624Y08628D01*
X02615Y08615D01*
X02606Y08588D01*
X02598Y08535D01*
X02598Y08468D01*
X02606Y08415D01*
X02615Y08388D01*
X02624Y08375D01*
X02641Y08362D01*
X02658Y08362D01*
X02675Y08375D01*
X02684Y08388D01*
X02692Y08415D01*
X02701Y08468D01*
X02701Y08535D01*
X02692Y08588D01*
X02684Y08615D01*
X02675Y08628D01*
X02658Y08642D01*
G54D16*
X05618Y07868D02*
X05632Y07882D01*
X05646Y07925D01*
X05646Y07954D01*
X05632Y07997D01*
X05604Y08025D01*
X05575Y08040D01*
X05518Y08054D01*
X05475Y08054D01*
X05418Y08040D01*
X05389Y08025D01*
X05361Y07997D01*
X05346Y07954D01*
X05346Y07925D01*
X05361Y07882D01*
X05375Y07868D01*
X05646Y07582D02*
X05646Y07754D01*
X05646Y07668D02*
X05346Y07668D01*
X05389Y07697D01*
X05418Y07725D01*
X05432Y07754D01*
X05346Y07482D02*
X05346Y07296D01*
X05461Y07396D01*
X05461Y07354D01*
X05475Y07325D01*
X05489Y07311D01*
X05518Y07296D01*
X05589Y07296D01*
X05618Y07311D01*
X05632Y07325D01*
X05646Y07354D01*
X05646Y07439D01*
X05632Y07468D01*
X05618Y07482D01*
G54D19*
X13037Y02779D02*
X13050Y02788D01*
X13063Y02814D01*
X13063Y02831D01*
X13050Y02856D01*
X13023Y02874D01*
X12997Y02882D01*
X12943Y02891D01*
X12903Y02891D01*
X12850Y02882D01*
X12823Y02874D01*
X12797Y02856D01*
X12783Y02831D01*
X12783Y02814D01*
X12797Y02788D01*
X12810Y02779D01*
X12783Y02719D02*
X12783Y02599D01*
X13063Y02676D01*
X17379Y07513D02*
X17388Y07500D01*
X17414Y07487D01*
X17431Y07487D01*
X17456Y07500D01*
X17474Y07527D01*
X17482Y07553D01*
X17491Y07607D01*
X17491Y07647D01*
X17482Y07700D01*
X17474Y07727D01*
X17456Y07753D01*
X17431Y07767D01*
X17414Y07767D01*
X17388Y07753D01*
X17379Y07740D01*
X17225Y07673D02*
X17225Y07487D01*
X17268Y07780D02*
X17311Y07580D01*
X17199Y07580D01*
X17148Y07767D02*
X17037Y07767D01*
X17097Y07660D01*
X17071Y07660D01*
X17054Y07647D01*
X17045Y07633D01*
X17037Y07607D01*
X17037Y07540D01*
X17045Y07513D01*
X17054Y07500D01*
X17071Y07487D01*
X17123Y07487D01*
X17140Y07500D01*
X17148Y07513D01*
X00462Y06440D02*
X00475Y06449D01*
X00488Y06475D01*
X00488Y06492D01*
X00475Y06517D01*
X00448Y06535D01*
X00422Y06543D01*
X00368Y06552D01*
X00328Y06552D01*
X00275Y06543D01*
X00248Y06535D01*
X00222Y06517D01*
X00208Y06492D01*
X00208Y06475D01*
X00222Y06449D01*
X00235Y06440D01*
X00302Y06286D02*
X00488Y06286D01*
X00195Y06329D02*
X00395Y06372D01*
X00395Y06260D01*
X00302Y06115D02*
X00488Y06115D01*
X00195Y06158D02*
X00395Y06201D01*
X00395Y06089D01*
X01640Y01688D02*
X01649Y01675D01*
X01675Y01662D01*
X01692Y01662D01*
X01717Y01675D01*
X01735Y01702D01*
X01743Y01728D01*
X01752Y01782D01*
X01752Y01822D01*
X01743Y01875D01*
X01735Y01902D01*
X01717Y01928D01*
X01692Y01942D01*
X01675Y01942D01*
X01649Y01928D01*
X01640Y01915D01*
X01580Y01942D02*
X01469Y01942D01*
X01529Y01835D01*
X01503Y01835D01*
X01486Y01822D01*
X01477Y01808D01*
X01469Y01782D01*
X01469Y01715D01*
X01477Y01688D01*
X01486Y01675D01*
X01503Y01662D01*
X01555Y01662D01*
X01572Y01675D01*
X01580Y01688D01*
X01384Y01662D02*
X01349Y01662D01*
X01332Y01675D01*
X01324Y01688D01*
X01306Y01728D01*
X01298Y01782D01*
X01298Y01888D01*
X01306Y01915D01*
X01315Y01928D01*
X01332Y01942D01*
X01366Y01942D01*
X01384Y01928D01*
X01392Y01915D01*
X01401Y01888D01*
X01401Y01822D01*
X01392Y01795D01*
X01384Y01782D01*
X01366Y01768D01*
X01332Y01768D01*
X01315Y01782D01*
X01306Y01795D01*
X01298Y01822D01*
X-00987Y07965D02*
X-01120Y08025D01*
X-00987Y08068D02*
X-01267Y08068D01*
X-01267Y08000D01*
X-01253Y07982D01*
X-01240Y07974D01*
X-01213Y07965D01*
X-01173Y07965D01*
X-01147Y07974D01*
X-01133Y07982D01*
X-01120Y08000D01*
X-01120Y08068D01*
X-01267Y07905D02*
X-01267Y07794D01*
X-01160Y07854D01*
X-01160Y07828D01*
X-01147Y07811D01*
X-01133Y07802D01*
X-01107Y07794D01*
X-01040Y07794D01*
X-01013Y07802D01*
X-01000Y07811D01*
X-00987Y07828D01*
X-00987Y07880D01*
X-01000Y07897D01*
X-01013Y07905D01*
X-01267Y07683D02*
X-01267Y07666D01*
X-01253Y07649D01*
X-01240Y07640D01*
X-01213Y07631D01*
X-01160Y07623D01*
X-01093Y07623D01*
X-01040Y07631D01*
X-01013Y07640D01*
X-01000Y07649D01*
X-00987Y07666D01*
X-00987Y07683D01*
X-01000Y07700D01*
X-01013Y07709D01*
X-01040Y07717D01*
X-01093Y07726D01*
X-01160Y07726D01*
X-01213Y07717D01*
X-01240Y07709D01*
X-01253Y07700D01*
X-01267Y07683D01*
X09038Y05040D02*
X08905Y05100D01*
X09038Y05143D02*
X08758Y05143D01*
X08758Y05075D01*
X08772Y05057D01*
X08785Y05049D01*
X08812Y05040D01*
X08852Y05040D01*
X08878Y05049D01*
X08892Y05057D01*
X08905Y05075D01*
X08905Y05143D01*
X08758Y04980D02*
X08758Y04869D01*
X08865Y04929D01*
X08865Y04903D01*
X08878Y04886D01*
X08892Y04877D01*
X08918Y04869D01*
X08985Y04869D01*
X09012Y04877D01*
X09025Y04886D01*
X09038Y04903D01*
X09038Y04955D01*
X09025Y04972D01*
X09012Y04980D01*
X08785Y04801D02*
X08772Y04792D01*
X08758Y04775D01*
X08758Y04732D01*
X08772Y04715D01*
X08785Y04706D01*
X08812Y04698D01*
X08838Y04698D01*
X08878Y04706D01*
X09038Y04809D01*
X09038Y04698D01*
X12940Y08712D02*
X13000Y08845D01*
X13043Y08712D02*
X13043Y08992D01*
X12975Y08992D01*
X12957Y08978D01*
X12949Y08965D01*
X12940Y08938D01*
X12940Y08898D01*
X12949Y08872D01*
X12957Y08858D01*
X12975Y08845D01*
X13043Y08845D01*
X12880Y08992D02*
X12769Y08992D01*
X12829Y08885D01*
X12803Y08885D01*
X12786Y08872D01*
X12777Y08858D01*
X12769Y08832D01*
X12769Y08765D01*
X12777Y08738D01*
X12786Y08725D01*
X12803Y08712D01*
X12855Y08712D01*
X12872Y08725D01*
X12880Y08738D01*
X12598Y08712D02*
X12701Y08712D01*
X12649Y08712D02*
X12649Y08992D01*
X12666Y08952D01*
X12684Y08925D01*
X12701Y08912D01*
X01513Y02779D02*
X01513Y02865D01*
X01233Y02865D01*
X01233Y02642D02*
X01233Y02676D01*
X01247Y02693D01*
X01260Y02702D01*
X01300Y02719D01*
X01353Y02728D01*
X01460Y02728D01*
X01487Y02719D01*
X01500Y02711D01*
X01513Y02693D01*
X01513Y02659D01*
X01500Y02642D01*
X01487Y02633D01*
X01460Y02625D01*
X01393Y02625D01*
X01367Y02633D01*
X01353Y02642D01*
X01340Y02659D01*
X01340Y02693D01*
X01353Y02711D01*
X01367Y02719D01*
X01393Y02728D01*
M02*
