G04 (created by PCBNEW-RS274X (2011-05-25)-stable) date Fri 26 Jun 2015 07:16:06 BST*
G01*
G70*
G90*
%MOIN*%
G04 Gerber Fmt 3.4, Leading zero omitted, Abs format*
%FSLAX34Y34*%
G04 APERTURE LIST*
%ADD10C,0.006000*%
%ADD11C,0.015000*%
%ADD12R,0.035400X0.040200*%
%ADD13R,0.045000X0.020000*%
%ADD14R,0.020000X0.030000*%
%ADD15R,0.039400X0.010600*%
%ADD16R,0.015700X0.019700*%
%ADD17R,0.039400X0.027600*%
%ADD18R,0.050000X0.015000*%
%ADD19R,0.060000X0.009800*%
%ADD20O,0.060000X0.009800*%
%ADD21O,0.009800X0.060000*%
%ADD22O,0.055100X0.210200*%
%ADD23R,0.045000X0.025000*%
%ADD24O,0.047200X0.070900*%
%ADD25O,0.078300X0.051200*%
%ADD26C,0.078700*%
%ADD27R,0.055000X0.055000*%
%ADD28R,0.025000X0.045000*%
%ADD29O,0.070900X0.039400*%
%ADD30O,0.063000X0.027600*%
%ADD31O,0.039400X0.055100*%
%ADD32O,0.031500X0.059100*%
%ADD33O,0.039400X0.019700*%
%ADD34C,0.055000*%
%ADD35C,0.019700*%
%ADD36R,0.031400X0.031400*%
%ADD37C,0.020000*%
%ADD38C,0.025000*%
%ADD39C,0.011800*%
%ADD40C,0.005000*%
%ADD41C,0.007900*%
%ADD42C,0.015700*%
%ADD43C,0.019700*%
%ADD44C,0.027600*%
%ADD45C,0.023600*%
%ADD46C,0.010000*%
G04 APERTURE END LIST*
G54D10*
G54D11*
X20100Y09750D02*
X18900Y10950D01*
X-01050Y10950D02*
X18900Y10950D01*
X-02100Y00950D02*
X-02100Y09900D01*
X20100Y00850D02*
X18700Y-00550D01*
X20100Y09750D02*
X20100Y00850D01*
X-00700Y-00550D02*
X18700Y-00550D01*
X-02100Y00950D02*
X-00700Y-00550D01*
X-02100Y09900D02*
X-01050Y10950D01*
G54D12*
X00621Y01800D03*
X-00671Y01800D03*
X02871Y08850D03*
X01579Y08850D03*
G54D13*
X15043Y06811D03*
X15043Y06311D03*
X15043Y05811D03*
X15043Y05311D03*
X15043Y04811D03*
X15043Y04311D03*
X15043Y03811D03*
X15043Y03311D03*
X17043Y03311D03*
X17043Y03811D03*
X17043Y04311D03*
X17043Y04811D03*
X17043Y05311D03*
X17043Y05811D03*
X17043Y06311D03*
X17043Y06811D03*
G54D14*
X00825Y05875D03*
X01575Y05875D03*
X00825Y06875D03*
X01200Y05875D03*
X01575Y06875D03*
G54D15*
X04850Y06150D03*
X04850Y06350D03*
X04850Y06550D03*
X04850Y06750D03*
X04850Y06950D03*
X03100Y06950D03*
X03100Y06750D03*
X03100Y06550D03*
X03100Y06350D03*
X03100Y06150D03*
X03100Y08300D03*
X03100Y08100D03*
X03100Y07900D03*
X03100Y07700D03*
X03100Y07500D03*
X04850Y07500D03*
X04850Y07700D03*
X04850Y07900D03*
X04850Y08100D03*
X04850Y08300D03*
G54D16*
X02656Y02874D03*
X02144Y02874D03*
X02144Y02126D03*
X02400Y02126D03*
X02656Y02126D03*
G54D17*
X03950Y04900D03*
X03950Y04525D03*
X03950Y04150D03*
X02950Y04150D03*
X02950Y04525D03*
X02950Y04900D03*
G54D18*
X05075Y03659D03*
X05075Y03403D03*
X05075Y03147D03*
X05075Y02891D03*
X06775Y02891D03*
X06775Y03147D03*
X06775Y03403D03*
X06775Y03659D03*
G54D19*
X08739Y06526D03*
G54D20*
X08739Y06329D03*
X08739Y06132D03*
X08739Y05935D03*
X08739Y05738D03*
X08739Y05542D03*
X08739Y05345D03*
X08739Y05148D03*
X08739Y04951D03*
X08739Y04754D03*
X08739Y04557D03*
X08739Y04361D03*
X08739Y04164D03*
X08739Y03967D03*
X08739Y03770D03*
X08739Y03573D03*
G54D21*
X09574Y02675D03*
X09771Y02675D03*
X09968Y02675D03*
X10165Y02675D03*
X10362Y02675D03*
X10558Y02675D03*
X10755Y02675D03*
X10952Y02675D03*
X11149Y02675D03*
X11346Y02675D03*
X11543Y02675D03*
X11739Y02675D03*
X11936Y02675D03*
X12133Y02675D03*
X12330Y02675D03*
X12527Y02675D03*
G54D20*
X13425Y03573D03*
X13425Y03770D03*
X13425Y03967D03*
X13425Y04164D03*
X13425Y04361D03*
X13425Y04557D03*
X13425Y04754D03*
X13425Y04951D03*
X13425Y05148D03*
X13425Y05345D03*
X13425Y05542D03*
X13425Y05738D03*
X13425Y05935D03*
X13425Y06132D03*
X13425Y06329D03*
X13425Y06526D03*
G54D21*
X12527Y07361D03*
X12330Y07361D03*
X11936Y07361D03*
X12133Y07368D03*
X11739Y07361D03*
X11543Y07361D03*
X11346Y07361D03*
X11149Y07361D03*
X10952Y07361D03*
X10755Y07361D03*
X10561Y07361D03*
X10364Y07361D03*
X10167Y07361D03*
X09970Y07361D03*
X09774Y07361D03*
X09577Y07361D03*
G54D22*
X05784Y07225D03*
X06966Y07225D03*
G54D23*
X13550Y02450D03*
X13550Y03050D03*
G54D24*
X00500Y02750D03*
G54D25*
X00500Y03750D03*
G54D26*
X00500Y04750D03*
G54D27*
X-00500Y08750D03*
G54D26*
X-00500Y02750D03*
X-00500Y03750D03*
X-00500Y04750D03*
X-00500Y05750D03*
X-00500Y06750D03*
X18500Y02750D03*
X18500Y03750D03*
X18500Y04750D03*
X18500Y05750D03*
X18500Y06750D03*
X18500Y07750D03*
X-00500Y00750D03*
X00500Y00750D03*
X01500Y00750D03*
X02500Y00750D03*
X03500Y00750D03*
X04500Y00750D03*
X05500Y00750D03*
X06500Y00750D03*
X07500Y00750D03*
X08500Y00750D03*
X09500Y00750D03*
X10500Y00750D03*
X11500Y00750D03*
X12500Y00750D03*
X13500Y00750D03*
X14500Y00750D03*
X15500Y00750D03*
X16500Y00750D03*
X17500Y00750D03*
X18500Y00750D03*
X-00500Y09750D03*
X00500Y09750D03*
X01500Y09750D03*
X02500Y09750D03*
X03500Y09750D03*
X04500Y09750D03*
X05500Y09750D03*
X06500Y09750D03*
X07500Y09750D03*
X08500Y09750D03*
X09500Y09750D03*
X10500Y09750D03*
X11500Y09750D03*
X12500Y09750D03*
X13500Y09750D03*
X14500Y09750D03*
X15500Y09750D03*
X16500Y09750D03*
X17500Y09750D03*
X18500Y09750D03*
G54D28*
X06675Y04500D03*
X07275Y04500D03*
X06475Y05850D03*
X07075Y05850D03*
X06350Y05250D03*
X06950Y05250D03*
G54D23*
X14125Y03350D03*
X14125Y02750D03*
G54D28*
X08900Y02600D03*
X08300Y02600D03*
G54D23*
X01875Y05125D03*
X01875Y04525D03*
G54D28*
X03450Y03550D03*
X02850Y03550D03*
X08300Y02050D03*
X08900Y02050D03*
X04200Y05600D03*
X03600Y05600D03*
X05375Y04225D03*
X04775Y04225D03*
G54D23*
X07525Y02725D03*
X07525Y02125D03*
G54D28*
X07975Y03500D03*
X07375Y03500D03*
X02125Y05600D03*
X02725Y05600D03*
G54D23*
X02250Y06300D03*
X02250Y06900D03*
X00275Y06675D03*
X00275Y07275D03*
X00275Y05625D03*
X00275Y06225D03*
X01875Y03475D03*
X01875Y04075D03*
G54D28*
X02325Y07575D03*
X01725Y07575D03*
G54D23*
X17725Y03750D03*
X17725Y03150D03*
G54D28*
X06150Y01975D03*
X05550Y01975D03*
G54D23*
X17700Y05125D03*
X17700Y04525D03*
X17717Y06483D03*
X17717Y05883D03*
G54D29*
X05300Y04750D03*
G54D30*
X07800Y07425D03*
G54D31*
X06775Y02400D03*
G54D28*
X00525Y07950D03*
X-00075Y07950D03*
G54D32*
X04275Y03550D03*
G54D33*
X07375Y03075D03*
G54D28*
X17050Y08000D03*
X17650Y08000D03*
X01200Y01625D03*
X01800Y01625D03*
G54D23*
X-01150Y08100D03*
X-01150Y07500D03*
G54D28*
X00950Y08850D03*
X00350Y08850D03*
G54D23*
X01350Y02925D03*
X01350Y02325D03*
G54D27*
X14950Y08225D03*
G54D34*
X13950Y08225D03*
G54D35*
X18000Y00000D03*
X00000Y10500D03*
X00000Y00000D03*
G54D36*
X03255Y01675D03*
X03845Y01675D03*
X14530Y02150D03*
X15120Y02150D03*
X17005Y07350D03*
X17595Y07350D03*
G54D37*
X10750Y03500D03*
X09950Y08575D03*
X09500Y03225D03*
X10525Y04675D03*
X07900Y03900D03*
X07950Y02900D03*
X07950Y07375D03*
X07950Y06450D03*
X11325Y06150D03*
X12050Y04900D03*
X10575Y06375D03*
X10375Y06975D03*
X11575Y03200D03*
X12150Y03775D03*
X11525Y06950D03*
X12400Y04350D03*
X14685Y05813D03*
X12825Y05625D03*
X10575Y05200D03*
X09875Y05650D03*
X12025Y01350D03*
X11350Y04750D03*
X11550Y04200D03*
X12200Y05675D03*
X12875Y08350D03*
X13300Y08025D03*
X12850Y06375D03*
X11625Y08400D03*
X11325Y09050D03*
X09875Y09175D03*
X11100Y08500D03*
X10950Y07750D03*
X08775Y09175D03*
X09600Y08225D03*
X08975Y08275D03*
X08600Y07375D03*
X08050Y08900D03*
X08450Y08175D03*
X07575Y08850D03*
X07775Y04500D03*
X08300Y04950D03*
X12100Y08900D03*
X11750Y07800D03*
X07450Y05425D03*
X07775Y05025D03*
X12875Y01450D03*
X11525Y05325D03*
X11550Y01525D03*
X10875Y01750D03*
X11125Y02175D03*
X11750Y02000D03*
G54D38*
X09275Y04150D03*
G54D37*
X15625Y08425D03*
X09200Y05775D03*
X12125Y06200D03*
X09825Y04400D03*
X09850Y03650D03*
X12150Y06800D03*
X04225Y02400D03*
X01900Y08025D03*
X10325Y03125D03*
X10775Y09000D03*
X12900Y03550D03*
X09375Y04650D03*
X12225Y08025D03*
G54D38*
X13925Y06375D03*
X16700Y07050D03*
X19193Y03270D03*
X19154Y04254D03*
X19193Y05199D03*
X19193Y06222D03*
X19193Y07207D03*
X19154Y08033D03*
X16675Y04575D03*
X17700Y04250D03*
X16634Y07719D03*
X16625Y06325D03*
G54D37*
X12375Y03325D03*
X14125Y04000D03*
X13525Y08900D03*
G54D38*
X15433Y06813D03*
X09125Y07775D03*
X03600Y02425D03*
X12775Y02125D03*
X15700Y03750D03*
X09200Y02600D03*
X04025Y04150D03*
X10375Y01900D03*
X13075Y06825D03*
X09350Y05225D03*
X08525Y06600D03*
X05050Y02450D03*
X05950Y04025D03*
X03675Y08450D03*
X03725Y07100D03*
X03200Y07175D03*
G54D37*
X03975Y08525D03*
X11125Y03125D03*
X18025Y01625D03*
X16650Y01675D03*
X15525Y02100D03*
X00975Y00175D03*
X02025Y00175D03*
X03000Y00225D03*
X03975Y00200D03*
X04975Y00225D03*
X06000Y00175D03*
X07000Y00225D03*
X08000Y00175D03*
X09050Y00150D03*
X09975Y00100D03*
X11000Y00100D03*
X12050Y00125D03*
X12950Y00175D03*
X14050Y00150D03*
X14925Y00125D03*
X15975Y00100D03*
X17050Y00100D03*
X18700Y00100D03*
X19250Y09100D03*
X19200Y09400D03*
X-01673Y08506D03*
X-01791Y07089D03*
X-01791Y06144D03*
X-01791Y05159D03*
X-01752Y04136D03*
X-01752Y03230D03*
X-01752Y02364D03*
X-01752Y01577D03*
X-01025Y04350D03*
X-01025Y05200D03*
X-00500Y07550D03*
X01000Y10400D03*
X02000Y10375D03*
X02975Y10425D03*
X03975Y10350D03*
X05000Y10400D03*
X05975Y10375D03*
X07000Y10375D03*
X08000Y10350D03*
X08975Y10325D03*
X10000Y10375D03*
X11000Y10400D03*
X12000Y10350D03*
X12975Y10350D03*
X14025Y10375D03*
X15000Y10400D03*
X16000Y10400D03*
G54D38*
X01050Y04075D03*
G54D37*
X10450Y05900D03*
G54D38*
X14087Y04565D03*
X13524Y03325D03*
X08362Y04352D03*
X07950Y07850D03*
X05325Y07550D03*
G54D37*
X04675Y03825D03*
G54D38*
X02475Y01525D03*
X03725Y06575D03*
X06250Y06525D03*
X06400Y07800D03*
X15425Y07525D03*
X15425Y06300D03*
X01800Y05450D03*
X13933Y05837D03*
X14350Y07025D03*
X04725Y05775D03*
X05525Y05825D03*
G54D37*
X02150Y08400D03*
G54D38*
X03850Y03425D03*
X02850Y04525D03*
X10475Y04050D03*
X09300Y01900D03*
X14550Y03325D03*
X08228Y05415D03*
X01325Y07725D03*
X04525Y07425D03*
X05975Y02950D03*
X01175Y05525D03*
X02250Y01875D03*
X03675Y07425D03*
X10225Y07850D03*
G54D37*
X14276Y05419D03*
X14500Y04900D03*
X04200Y01600D03*
G54D38*
X05800Y05675D03*
X07600Y06975D03*
X06975Y07850D03*
X01675Y06525D03*
X02675Y08050D03*
G54D37*
X02550Y05125D03*
G54D38*
X03375Y05025D03*
X02275Y03150D03*
X01225Y07100D03*
X02125Y08875D03*
G54D37*
X12700Y04925D03*
X12795Y07600D03*
X10600Y08300D03*
X11250Y03725D03*
X06775Y02275D03*
X03075Y02525D03*
X02575Y07200D03*
X04050Y07800D03*
X04425Y05600D03*
X05575Y03425D03*
X17075Y05325D03*
X16717Y04301D03*
X16875Y05825D03*
X17925Y05475D03*
G54D39*
X10875Y01475D02*
X11100Y01650D01*
X04200Y02125D02*
X04525Y01800D01*
X04525Y01800D02*
X04825Y01575D01*
X04825Y01575D02*
X05175Y01450D01*
X05175Y01450D02*
X10650Y01450D01*
X10875Y01475D02*
X10650Y01450D01*
X03075Y02175D02*
X04025Y02175D01*
X04025Y02175D02*
X04200Y02125D01*
X02850Y02875D02*
X02850Y02400D01*
X02850Y02400D02*
X03075Y02175D01*
X11325Y02050D02*
X11350Y02275D01*
X11100Y01650D02*
X11250Y01850D01*
X11250Y01850D02*
X11325Y02050D01*
X11350Y02275D02*
X11346Y02675D01*
G54D40*
X04275Y03550D02*
X04275Y03425D01*
X04275Y03425D02*
X04325Y03275D01*
G54D39*
X02400Y04875D02*
X02400Y04325D01*
X02425Y05922D02*
X02625Y06100D01*
X02425Y05308D02*
X02425Y05922D01*
X02625Y06100D02*
X02625Y06600D01*
X03100Y06750D02*
X02803Y06750D01*
X02803Y06750D02*
X02625Y06600D01*
X02325Y05175D02*
X02425Y05308D01*
X02325Y05050D02*
X02400Y04875D01*
X02325Y05175D02*
X02325Y05050D01*
X02656Y02874D02*
X02775Y02875D01*
X02775Y02875D02*
X02850Y02875D01*
X02656Y02874D02*
X02650Y03100D01*
X02650Y03100D02*
X02400Y03375D01*
X02400Y03375D02*
X02400Y04325D01*
X02550Y04575D02*
X02575Y04775D01*
X02575Y04775D02*
X02700Y04900D01*
X02700Y04900D02*
X02950Y04900D01*
X02400Y04325D02*
X02550Y04575D01*
X02850Y02875D02*
X04325Y03275D01*
X04325Y03275D02*
X04725Y03400D01*
X04725Y03400D02*
X05075Y03403D01*
G54D41*
X10558Y02675D02*
X10558Y03148D01*
X10558Y03148D02*
X10750Y03500D01*
X05125Y08100D02*
X04850Y08100D01*
X05375Y08450D02*
X05125Y08100D01*
X07125Y08575D02*
X05675Y08575D01*
X05675Y08575D02*
X05375Y08450D01*
X09150Y08675D02*
X08350Y08525D01*
X08350Y08525D02*
X08150Y08400D01*
X08150Y08400D02*
X07675Y08325D01*
X07675Y08325D02*
X07350Y08400D01*
X07350Y08400D02*
X07125Y08575D01*
X09300Y08675D02*
X09150Y08675D01*
X09950Y08575D02*
X09300Y08675D01*
X05650Y04225D02*
X05650Y04525D01*
X05650Y04525D02*
X05575Y04725D01*
X05575Y04725D02*
X05300Y04750D01*
X05375Y04225D02*
X05650Y04225D01*
X07675Y03225D02*
X07775Y03125D01*
X07775Y03125D02*
X08875Y03125D01*
X08875Y03125D02*
X09500Y03225D01*
X10525Y04675D02*
X11350Y05025D01*
X11350Y05025D02*
X12100Y05125D01*
X12100Y05125D02*
X12300Y05004D01*
X12300Y05004D02*
X12575Y04750D01*
X12575Y04750D02*
X13050Y04550D01*
X13050Y04550D02*
X13425Y04557D01*
X07675Y03825D02*
X07675Y03225D01*
X07525Y03925D02*
X07675Y03825D01*
X06525Y03925D02*
X07525Y03925D01*
X05650Y04225D02*
X05906Y04254D01*
X05906Y04254D02*
X06063Y04234D01*
X06063Y04234D02*
X06250Y04050D01*
X06250Y04050D02*
X06525Y03925D01*
X05807Y04884D02*
X06025Y04500D01*
X09450Y02675D02*
X09574Y02675D01*
X07550Y04100D02*
X07900Y03900D01*
X07950Y02900D02*
X08100Y02975D01*
X08100Y02975D02*
X09125Y02975D01*
X09125Y02975D02*
X09450Y02675D01*
X05020Y05100D02*
X05450Y05100D01*
X05450Y05100D02*
X05650Y05041D01*
X04225Y04900D02*
X04606Y04963D01*
X04606Y04963D02*
X05020Y05100D01*
X03950Y04900D02*
X04225Y04900D01*
X05650Y05041D02*
X05807Y04884D01*
X06225Y04275D02*
X06575Y04100D01*
X06575Y04100D02*
X07550Y04100D01*
X06025Y04500D02*
X06225Y04275D01*
X07800Y07425D02*
X07900Y07425D01*
X07900Y07425D02*
X07950Y07375D01*
X09400Y06475D02*
X10500Y06125D01*
X12050Y04900D02*
X12850Y04400D01*
X12850Y04400D02*
X13050Y04375D01*
X13050Y04375D02*
X13425Y04361D01*
X10500Y06125D02*
X11325Y06150D01*
X07950Y06450D02*
X08350Y06800D01*
X08350Y06800D02*
X08575Y06825D01*
X08575Y06825D02*
X09125Y06675D01*
X09125Y06675D02*
X09400Y06475D01*
X06950Y05250D02*
X07125Y05250D01*
X07275Y05550D02*
X07575Y05875D01*
X07575Y05875D02*
X07950Y06450D01*
X07125Y05250D02*
X07200Y05325D01*
X07200Y05325D02*
X07275Y05550D01*
X13950Y08225D02*
X13950Y08145D01*
X13950Y08145D02*
X13504Y07699D01*
X10375Y07075D02*
X10364Y07361D01*
X12244Y06616D02*
X12925Y07225D01*
X12925Y07225D02*
X13504Y07699D01*
X11250Y06400D02*
X12244Y06616D01*
X10575Y06375D02*
X11250Y06400D01*
X10375Y07075D02*
X10375Y06975D01*
X11739Y02675D02*
X11740Y03050D01*
X11740Y03050D02*
X11575Y03200D01*
X11525Y03850D02*
X12150Y03775D01*
X08504Y03348D02*
X09094Y03348D01*
X08150Y03506D02*
X08504Y03348D01*
X07975Y03500D02*
X08150Y03506D01*
X10750Y03775D02*
X11200Y03925D01*
X11200Y03925D02*
X11350Y03913D01*
X11350Y03913D02*
X11525Y03850D01*
X10125Y03500D02*
X10600Y03700D01*
X10600Y03700D02*
X10750Y03775D01*
X09475Y03425D02*
X09850Y03425D01*
X09850Y03425D02*
X10125Y03500D01*
X09094Y03348D02*
X09475Y03425D01*
G54D10*
X11543Y07361D02*
X11543Y07743D01*
X12330Y07720D02*
X12330Y07361D01*
X12450Y08000D02*
X12330Y07720D01*
X11700Y08025D02*
X12175Y08225D01*
X12175Y08225D02*
X12400Y08175D01*
X12400Y08175D02*
X12450Y08000D01*
X11543Y07743D02*
X11575Y07900D01*
X11575Y07900D02*
X11700Y08025D01*
G54D41*
X11543Y07361D02*
X11550Y07050D01*
X11550Y07050D02*
X11525Y06950D01*
X12700Y04225D02*
X12950Y04075D01*
X12400Y04350D02*
X12700Y04225D01*
X12950Y04075D02*
X13000Y04000D01*
X13000Y04000D02*
X13033Y03967D01*
X13033Y03967D02*
X13425Y03967D01*
X13114Y04164D02*
X13425Y04164D01*
X13025Y04125D02*
X13114Y04164D01*
X12950Y04075D02*
X13025Y04125D01*
X14685Y05813D02*
X14664Y05811D01*
X14664Y05811D02*
X15043Y05811D01*
X08739Y06329D02*
X09146Y06329D01*
X11425Y05525D02*
X12325Y05450D01*
X12325Y05450D02*
X12825Y05625D01*
X10575Y05200D02*
X11425Y05525D01*
X09146Y06329D02*
X09875Y05650D01*
X13425Y03573D02*
X13848Y03573D01*
X14125Y03525D02*
X14125Y03350D01*
X14050Y03600D02*
X14125Y03525D01*
X13875Y03600D02*
X14050Y03600D01*
X13848Y03573D02*
X13875Y03600D01*
X11525Y00775D02*
X11500Y00750D01*
X12025Y01350D02*
X11525Y00775D01*
X09100Y03975D02*
X09300Y03900D01*
X09300Y03900D02*
X10000Y04075D01*
X10150Y04270D02*
X10350Y04425D01*
X10000Y04075D02*
X10150Y04270D01*
X10350Y04425D02*
X10600Y04475D01*
X10600Y04475D02*
X11350Y04750D01*
X09100Y03975D02*
X08739Y03967D01*
X10600Y04300D02*
X11550Y04200D01*
X10600Y04300D02*
X10400Y04275D01*
X10400Y04275D02*
X10225Y04125D01*
X10225Y04125D02*
X10075Y03950D01*
X10075Y03950D02*
X09275Y03750D01*
X09275Y03750D02*
X09100Y03778D01*
X09100Y03778D02*
X08739Y03770D01*
X13425Y05738D02*
X13025Y05725D01*
X13025Y05725D02*
X12750Y05925D01*
X12750Y05925D02*
X12200Y05675D01*
X12500Y09725D02*
X12500Y09750D01*
X12875Y08350D02*
X12500Y09725D01*
X13300Y08025D02*
X13307Y08939D01*
X13307Y08939D02*
X13500Y09750D01*
X13100Y05925D02*
X12950Y06007D01*
X12950Y06007D02*
X12850Y06375D01*
X13425Y05935D02*
X13100Y05925D01*
X17500Y09750D02*
X16300Y08700D01*
X14050Y06125D02*
X14250Y06300D01*
X14250Y06300D02*
X14650Y07000D01*
X14650Y07000D02*
X15250Y07675D01*
X15250Y07675D02*
X16300Y08700D01*
X14050Y06125D02*
X13425Y06132D01*
X15500Y09750D02*
X14800Y09200D01*
X13504Y07955D02*
X13386Y07778D01*
X13642Y08624D02*
X13550Y08375D01*
X13550Y08375D02*
X13504Y07955D01*
X13858Y08821D02*
X13642Y08624D01*
X14800Y09200D02*
X13858Y08821D01*
X12527Y07361D02*
X12725Y07350D01*
X12975Y07450D02*
X13386Y07778D01*
X12725Y07350D02*
X12975Y07450D01*
X17500Y00750D02*
X16600Y01350D01*
X14485Y05144D02*
X14716Y05060D01*
X15350Y05075D02*
X15500Y05000D01*
X15500Y05000D02*
X15725Y04650D01*
X14716Y05060D02*
X15350Y05075D01*
X15725Y04650D02*
X15925Y03800D01*
X15925Y03800D02*
X15925Y02700D01*
X16225Y01800D02*
X16375Y01550D01*
X16375Y01550D02*
X16600Y01350D01*
X15925Y02700D02*
X16225Y01800D01*
X14485Y05144D02*
X14276Y05045D01*
X14276Y05045D02*
X13909Y05146D01*
X13909Y05146D02*
X13425Y05148D01*
X11543Y02675D02*
X11550Y02325D01*
X11550Y02325D02*
X11500Y01925D01*
X05175Y01275D02*
X04875Y01129D01*
X04875Y01129D02*
X04500Y00750D01*
X11500Y01925D02*
X11275Y01538D01*
X11275Y01538D02*
X10925Y01275D01*
X10925Y01275D02*
X05175Y01275D01*
X11346Y07725D02*
X11625Y08400D01*
X11346Y07361D02*
X11346Y07725D01*
X09650Y09575D02*
X09500Y09750D01*
X10000Y09375D02*
X09650Y09575D01*
X10300Y09250D02*
X10000Y09375D01*
X11325Y09050D02*
X10875Y09220D01*
X10875Y09220D02*
X10300Y09250D01*
X11149Y07725D02*
X11100Y08500D01*
X11149Y07361D02*
X11149Y07725D01*
X08550Y09575D02*
X08500Y09750D01*
X08925Y09375D02*
X08550Y09575D01*
X09300Y09225D02*
X08925Y09375D01*
X09875Y09175D02*
X09300Y09225D01*
X10952Y07361D02*
X10952Y07823D01*
X10952Y07823D02*
X10950Y07750D01*
X07575Y09625D02*
X07500Y09750D01*
X07675Y09500D02*
X07575Y09625D01*
X07950Y09250D02*
X07675Y09500D01*
X08375Y09125D02*
X07950Y09250D01*
X08775Y09175D02*
X08375Y09125D01*
X10750Y07700D02*
X10650Y07950D01*
X10300Y08250D02*
X09600Y08225D01*
X10500Y08125D02*
X10300Y08250D01*
X10650Y07950D02*
X10500Y08125D01*
X10750Y07700D02*
X10755Y07361D01*
X09575Y08025D02*
X08975Y08275D01*
X10250Y08100D02*
X09575Y08025D01*
X10425Y08000D02*
X10250Y08100D01*
X10561Y07689D02*
X10425Y08000D01*
X10561Y07689D02*
X10561Y07361D01*
X03250Y09300D02*
X02500Y09750D01*
X07375Y09175D02*
X03575Y09175D01*
X03575Y09175D02*
X03250Y09300D01*
X08050Y08900D02*
X07375Y09175D01*
X10167Y07361D02*
X10175Y07025D01*
X09200Y07025D02*
X08600Y07375D01*
X09453Y06817D02*
X09200Y07025D01*
X09965Y06817D02*
X09453Y06817D01*
X10175Y07025D02*
X09965Y06817D01*
X09975Y07050D02*
X09906Y06955D01*
X09906Y06955D02*
X09524Y06963D01*
X09524Y06963D02*
X09325Y07125D01*
X09325Y07125D02*
X08450Y08175D01*
X09970Y07361D02*
X09975Y07050D01*
X02182Y09250D02*
X01500Y09750D01*
X03550Y09025D02*
X03000Y09250D01*
X03000Y09250D02*
X02182Y09250D01*
X07275Y09025D02*
X03550Y09025D01*
X07575Y08850D02*
X07275Y09025D01*
X08200Y05150D02*
X08375Y05149D01*
X08375Y05149D02*
X08739Y05148D01*
X08200Y05150D02*
X08075Y05050D01*
X08075Y05050D02*
X08000Y04812D01*
X08000Y04812D02*
X07775Y04500D01*
X08300Y04950D02*
X08739Y04951D01*
X11850Y09450D02*
X11500Y09750D01*
X12050Y09175D02*
X11850Y09450D01*
X12100Y08900D02*
X12050Y09175D01*
X11725Y07700D02*
X11750Y07800D01*
X11725Y07700D02*
X11739Y07361D01*
X08300Y06125D02*
X08050Y06025D01*
X07750Y05800D02*
X07450Y05425D01*
X08050Y06025D02*
X07750Y05800D01*
X08739Y06132D02*
X08300Y06125D01*
X08739Y05935D02*
X08344Y05929D01*
G54D10*
X08050Y05650D02*
X07775Y05025D01*
X08344Y05929D02*
X08050Y05650D01*
G54D41*
X12875Y01450D02*
X13500Y00750D01*
X08739Y04557D02*
X09150Y04550D01*
X10400Y04850D02*
X11525Y05325D01*
X10100Y04475D02*
X10400Y04850D01*
X09925Y04200D02*
X10025Y04338D01*
X10025Y04338D02*
X10100Y04475D01*
X09725Y04175D02*
X09925Y04200D01*
X09575Y04225D02*
X09725Y04175D01*
X09150Y04550D02*
X09575Y04225D01*
X10950Y02350D02*
X10952Y02675D01*
X10825Y02075D02*
X10875Y01750D01*
X10875Y02225D02*
X10825Y02075D01*
X10950Y02350D02*
X10875Y02225D01*
X14500Y00750D02*
X14200Y01275D01*
X14200Y01275D02*
X14050Y01400D01*
X13800Y01525D02*
X14050Y01400D01*
X11550Y01525D02*
X12776Y01656D01*
X12776Y01656D02*
X13475Y01625D01*
X13475Y01625D02*
X13800Y01525D01*
X15500Y00750D02*
X14626Y01380D01*
X14626Y01380D02*
X14173Y01596D01*
X11150Y02325D02*
X11125Y02175D01*
X11750Y02000D02*
X12913Y01833D01*
X12913Y01833D02*
X13681Y01774D01*
X13681Y01774D02*
X14173Y01596D01*
X11149Y02675D02*
X11150Y02325D01*
X13425Y04951D02*
X13749Y04951D01*
X15900Y01525D02*
X16050Y01200D01*
X16050Y01200D02*
X16500Y00750D01*
X15675Y02900D02*
X15900Y01525D01*
X15360Y03550D02*
X15500Y03450D01*
X15500Y03450D02*
X15675Y02900D01*
X14700Y03550D02*
X15360Y03550D01*
X14625Y03625D02*
X14700Y03550D01*
X14225Y03625D02*
X14625Y03625D01*
X13870Y03980D02*
X14225Y03625D01*
X13870Y04830D02*
X13870Y03980D01*
X13749Y04951D02*
X13870Y04830D01*
G54D10*
X08739Y04164D02*
X09261Y04164D01*
X09261Y04164D02*
X09275Y04150D01*
G54D41*
X15350Y08625D02*
X14550Y08625D01*
X14550Y08625D02*
X14450Y08525D01*
X14450Y08525D02*
X14425Y08100D01*
X14425Y08100D02*
X14200Y07800D01*
X15350Y08625D02*
X15625Y08425D01*
X11375Y05925D02*
X11925Y06350D01*
X11925Y06350D02*
X12150Y06425D01*
X12150Y06425D02*
X12325Y06475D01*
X12950Y07025D02*
X13150Y07100D01*
X13150Y07100D02*
X14200Y07800D01*
X12325Y06475D02*
X12950Y07025D01*
X09100Y05350D02*
X09252Y05455D01*
X09252Y05455D02*
X09429Y05455D01*
X09429Y05455D02*
X09882Y05435D01*
X09882Y05435D02*
X10350Y05550D01*
X10350Y05550D02*
X11375Y05925D01*
X09100Y05350D02*
X08739Y05345D01*
X08739Y05738D02*
X09025Y05750D01*
X09025Y05750D02*
X09200Y05775D01*
X10350Y05325D02*
X10250Y05175D01*
X10250Y05175D02*
X09825Y04400D01*
X10350Y05325D02*
X10475Y05400D01*
X10475Y05400D02*
X11450Y05725D01*
X11450Y05725D02*
X12125Y06200D01*
G54D10*
X12150Y06800D02*
X12133Y07368D01*
G54D41*
X08739Y03573D02*
X09150Y03575D01*
X09150Y03575D02*
X09850Y03650D01*
X11125Y04050D02*
X11350Y04065D01*
X11350Y04065D02*
X11525Y04000D01*
X10575Y03850D02*
X11125Y04050D01*
X09850Y03650D02*
X10575Y03850D01*
X11525Y04000D02*
X12175Y03975D01*
X12175Y03975D02*
X12575Y03800D01*
X12575Y03800D02*
X13025Y03775D01*
X13025Y03775D02*
X13425Y03770D01*
X04225Y02400D02*
X04400Y02200D01*
X04400Y02200D02*
X04850Y01800D01*
X04850Y01800D02*
X05125Y01650D01*
X05125Y01650D02*
X05325Y01600D01*
X05325Y01600D02*
X10460Y01615D01*
X10580Y01690D02*
X10590Y01690D01*
X10460Y01615D02*
X10580Y01690D01*
X10165Y02675D02*
X10165Y02375D01*
X10350Y02225D02*
X10165Y02375D01*
X10580Y02130D02*
X10350Y02225D01*
X10625Y02000D02*
X10580Y02130D01*
X10625Y01825D02*
X10625Y02000D01*
X10590Y01690D02*
X10625Y01825D01*
X01900Y08025D02*
X02825Y08500D01*
X10362Y02675D02*
X10350Y02700D01*
X10350Y03000D02*
X10350Y02700D01*
X10325Y03125D02*
X10350Y03000D01*
X09975Y08950D02*
X10775Y09000D01*
X09225Y09000D02*
X09975Y08950D01*
X08100Y08700D02*
X08250Y08800D01*
X08250Y08800D02*
X09225Y09000D01*
X07225Y08875D02*
X07500Y08650D01*
X07500Y08650D02*
X07700Y08625D01*
X07700Y08625D02*
X08100Y08700D01*
X03550Y08875D02*
X05500Y08875D01*
X05500Y08875D02*
X07225Y08875D01*
X02825Y08500D02*
X03150Y08500D01*
X03150Y08500D02*
X03550Y08875D01*
X11936Y02675D02*
X11929Y03000D01*
G54D10*
X11929Y03000D02*
X12300Y03550D01*
G54D41*
X12300Y03550D02*
X12550Y03600D01*
X12550Y03600D02*
X12900Y03550D01*
X14125Y02750D02*
X14125Y02350D01*
X14325Y02150D02*
X14530Y02150D01*
X14125Y02350D02*
X14325Y02150D01*
X08739Y04754D02*
X09271Y04754D01*
X09271Y04754D02*
X09375Y04650D01*
G54D39*
X08739Y04754D02*
X08400Y04750D01*
X08250Y04675D02*
X08400Y04750D01*
X07925Y04300D02*
X08250Y04675D01*
X07717Y04278D02*
X07925Y04300D01*
X07575Y04375D02*
X07717Y04278D01*
X07450Y04500D02*
X07575Y04375D01*
X07275Y04500D02*
X07450Y04500D01*
G54D41*
X11936Y07361D02*
X11925Y07650D01*
X11925Y07650D02*
X12000Y07775D01*
X12000Y07775D02*
X12225Y08025D01*
G54D39*
X07075Y05850D02*
X07225Y05850D01*
X09200Y06825D02*
X09425Y06650D01*
X11925Y07050D02*
X11936Y07361D01*
X11825Y06750D02*
X11925Y07050D01*
X07475Y06025D02*
X07575Y06400D01*
X07575Y06400D02*
X07800Y06725D01*
X07225Y05850D02*
X07375Y05900D01*
X07375Y05900D02*
X07475Y06025D01*
X08475Y07050D02*
X09200Y06825D01*
X08150Y06950D02*
X08475Y07050D01*
X07800Y06725D02*
X08150Y06950D01*
X11550Y06625D02*
X11825Y06750D01*
X09425Y06650D02*
X10325Y06650D01*
X10325Y06650D02*
X10600Y06725D01*
X10600Y06725D02*
X11550Y06625D01*
X13550Y02450D02*
X13550Y02300D01*
X12800Y02900D02*
X12625Y03125D01*
X12625Y03125D02*
X12450Y03125D01*
G54D41*
X12450Y03125D02*
X12325Y02975D01*
G54D39*
X12325Y02975D02*
X12325Y02675D01*
X12325Y02675D02*
X12330Y02675D01*
X13250Y02200D02*
X12800Y02400D01*
X12800Y02400D02*
X12800Y02900D01*
X13450Y02200D02*
X13250Y02200D01*
X13550Y02300D02*
X13450Y02200D01*
G54D41*
X13929Y06329D02*
X13925Y06375D01*
X13425Y06329D02*
X13929Y06329D01*
G54D42*
X17043Y06811D02*
X16775Y06825D01*
X16700Y06875D02*
X16700Y07050D01*
X16775Y06825D02*
X16700Y06875D01*
G54D41*
X17005Y07350D02*
X16700Y07350D01*
X16700Y07350D02*
X16650Y07300D01*
X16650Y07300D02*
X16650Y07100D01*
X16650Y07100D02*
X16700Y07050D01*
G54D43*
X18500Y04750D02*
X18450Y04575D01*
G54D39*
X17875Y04025D02*
X17725Y03975D01*
G54D43*
X18450Y04575D02*
X17875Y04025D01*
G54D39*
X17043Y03811D02*
X17050Y04025D01*
X17725Y03750D02*
X17725Y03975D01*
X17725Y03975D02*
X17475Y03975D01*
X17110Y04020D02*
X17050Y04025D01*
X17400Y04025D02*
X17110Y04020D01*
X17475Y03975D02*
X17400Y04025D01*
X18500Y07750D02*
X17725Y06700D01*
X17725Y06700D02*
X17717Y06483D01*
X19193Y04215D02*
X19193Y03270D01*
X19154Y04254D02*
X19193Y04215D01*
X19193Y06222D02*
X19193Y05199D01*
X19193Y07994D02*
X19193Y07207D01*
X19154Y08033D02*
X19193Y07994D01*
X17700Y04525D02*
X17700Y04250D01*
G54D41*
X16825Y08000D02*
X17050Y08000D01*
X16634Y07719D02*
X16825Y08000D01*
G54D39*
X17050Y06575D02*
X17043Y06311D01*
X16625Y06325D02*
X16700Y06575D01*
X16700Y06575D02*
X17050Y06575D01*
X17725Y02900D02*
X17375Y02900D01*
X17375Y02900D02*
X17050Y03100D01*
X17050Y03100D02*
X17043Y03311D01*
X17725Y03150D02*
X17725Y02900D01*
X17725Y02900D02*
X18500Y02750D01*
G54D41*
X12133Y02675D02*
X12133Y03008D01*
X12133Y03008D02*
X12375Y03325D01*
X14125Y04000D02*
X14675Y04300D01*
X14675Y04300D02*
X15043Y04311D01*
G54D43*
X15431Y06811D02*
X15433Y06813D01*
X15431Y06811D02*
X15043Y06811D01*
G54D39*
X09577Y07361D02*
X09577Y07748D01*
X09550Y07775D02*
X09125Y07775D01*
X09577Y07748D02*
X09550Y07775D01*
G54D41*
X12527Y02675D02*
X12527Y02298D01*
X12700Y02125D02*
X12775Y02125D01*
X12527Y02298D02*
X12700Y02125D01*
G54D43*
X15043Y03811D02*
X15550Y03800D01*
X15550Y03800D02*
X15700Y03750D01*
G54D39*
X08900Y02600D02*
X09200Y02600D01*
G54D43*
X04025Y04150D02*
X03950Y04150D01*
G54D10*
X09968Y02675D02*
X09968Y02357D01*
X09968Y02357D02*
X10375Y01900D01*
G54D41*
X13124Y06526D02*
X13425Y06526D01*
X13075Y06825D02*
X13124Y06526D01*
G54D10*
X08739Y06526D02*
X08324Y06526D01*
X08324Y06526D02*
X08525Y06600D01*
G54D42*
X06375Y03675D02*
X06775Y03659D01*
X05950Y04025D02*
X06375Y03675D01*
G54D39*
X04850Y07700D02*
X04550Y07700D01*
X04225Y07975D02*
X03675Y08450D01*
X04550Y07700D02*
X04225Y07975D01*
X03475Y08300D02*
X03100Y08300D01*
X03675Y08450D02*
X03475Y08300D01*
X04850Y06950D02*
X04500Y06950D01*
G54D43*
X04500Y06950D02*
X03725Y07100D01*
G54D39*
X03200Y07175D02*
X02875Y07175D01*
X02875Y07175D02*
X02775Y07050D01*
X02775Y07050D02*
X02850Y06950D01*
X02850Y06950D02*
X03100Y06950D01*
G54D40*
X15120Y02150D02*
X15475Y02150D01*
X16700Y01625D02*
X18025Y01625D01*
X16650Y01675D02*
X16700Y01625D01*
X15475Y02150D02*
X15525Y02100D01*
X13550Y03050D02*
X13550Y03250D01*
X13500Y03300D02*
X13524Y03325D01*
X13550Y03250D02*
X13500Y03300D01*
X00500Y00650D02*
X00975Y00175D01*
X02025Y00175D02*
X02075Y00225D01*
X02075Y00225D02*
X03000Y00225D01*
X03975Y00200D02*
X04000Y00225D01*
X04000Y00225D02*
X04975Y00225D01*
X06000Y00175D02*
X06050Y00225D01*
X06050Y00225D02*
X07000Y00225D01*
X08000Y00175D02*
X08025Y00150D01*
X08025Y00150D02*
X09050Y00150D01*
X09975Y00100D02*
X11000Y00100D01*
X12050Y00125D02*
X12100Y00175D01*
X12100Y00175D02*
X12950Y00175D01*
X14050Y00150D02*
X14075Y00125D01*
X14075Y00125D02*
X14925Y00125D01*
X15975Y00100D02*
X17050Y00100D01*
X00500Y00750D02*
X00500Y00650D01*
X18700Y00100D02*
X18525Y00625D01*
X18525Y00625D02*
X18525Y00725D01*
X18525Y00725D02*
X18500Y00750D01*
X-01673Y07207D02*
X-01673Y08506D01*
X-01791Y07089D02*
X-01673Y07207D01*
X-01791Y05159D02*
X-01791Y06144D01*
X-01752Y03230D02*
X-01752Y04136D01*
X-01752Y01577D02*
X-01752Y02364D01*
G54D43*
X01800Y01625D02*
X02000Y01625D01*
X02100Y01525D02*
X02475Y01525D01*
X02000Y01625D02*
X02100Y01525D01*
G54D41*
X-00925Y07075D02*
X-01025Y06900D01*
X-00500Y02775D02*
X-01025Y03300D01*
X-01025Y03300D02*
X-01025Y04350D01*
X-01025Y05200D02*
X-01025Y06900D01*
X-00500Y02750D02*
X-00500Y02775D01*
X-00925Y07075D02*
X-00500Y07550D01*
G54D40*
X16500Y09750D02*
X16500Y09900D01*
X00525Y09775D02*
X00500Y09750D01*
X00525Y09925D02*
X00525Y09775D01*
X01000Y10400D02*
X00525Y09925D01*
X02925Y10375D02*
X02000Y10375D01*
X02975Y10425D02*
X02925Y10375D01*
X04950Y10350D02*
X03975Y10350D01*
X05000Y10400D02*
X04950Y10350D01*
X07000Y10375D02*
X05975Y10375D01*
X08950Y10350D02*
X08000Y10350D01*
X08975Y10325D02*
X08950Y10350D01*
X10975Y10375D02*
X10000Y10375D01*
X11000Y10400D02*
X10975Y10375D01*
X12975Y10350D02*
X12000Y10350D01*
X14975Y10375D02*
X14025Y10375D01*
X15000Y10400D02*
X14975Y10375D01*
X16500Y09900D02*
X16000Y10400D01*
G54D43*
X02250Y01800D02*
X02250Y01875D01*
G54D39*
X01200Y05550D02*
X01175Y05525D01*
X05550Y01975D02*
X05375Y01975D01*
X05075Y02875D02*
X05075Y02891D01*
X04950Y02750D02*
X05075Y02875D01*
X04950Y02700D02*
X04950Y02750D01*
X04800Y02550D02*
X04950Y02700D01*
X04825Y02300D02*
X04800Y02550D01*
X04925Y02150D02*
X04825Y02300D01*
X05025Y02025D02*
X04925Y02150D01*
X05200Y01950D02*
X05025Y02025D01*
X05375Y01975D02*
X05200Y01950D01*
G54D41*
X15043Y03311D02*
X15043Y03057D01*
X15043Y03057D02*
X15050Y03050D01*
X15050Y03050D02*
X15050Y03053D01*
G54D10*
X08739Y04361D02*
X08362Y04352D01*
G54D41*
X04850Y07500D02*
X04575Y07500D01*
X04575Y07500D02*
X04525Y07425D01*
G54D39*
X04850Y06550D02*
X04475Y06550D01*
G54D42*
X04475Y06550D02*
X03950Y06550D01*
X03950Y06550D02*
X03725Y06575D01*
G54D43*
X15043Y06311D02*
X15425Y06300D01*
G54D39*
X08900Y02050D02*
X09125Y02050D01*
X09319Y01950D02*
X09350Y01919D01*
X09350Y01919D02*
X09300Y01900D01*
X09125Y02050D02*
X09319Y01950D01*
G54D43*
X02850Y04525D02*
X02950Y04525D01*
G54D10*
X09771Y02675D02*
X09771Y02346D01*
X09771Y02346D02*
X09300Y01900D01*
G54D43*
X15043Y03057D02*
X15050Y03053D01*
X15050Y03053D02*
X14700Y03050D01*
X14700Y03050D02*
X14550Y03325D01*
G54D39*
X01725Y07575D02*
X01525Y07575D01*
X01525Y07575D02*
X01325Y07725D01*
G54D43*
X01200Y05875D02*
X01200Y05550D01*
X01200Y05550D02*
X01425Y05450D01*
X01425Y05450D02*
X01800Y05450D01*
X01800Y05450D02*
X01875Y05250D01*
X01875Y05250D02*
X01875Y05125D01*
G54D42*
X05500Y02900D02*
X05075Y02891D01*
X05975Y02950D02*
X05500Y02900D01*
G54D44*
X-00075Y07950D02*
X-00350Y07950D01*
X-00350Y07950D02*
X-00500Y08275D01*
X-00500Y08275D02*
X-00500Y08750D01*
G54D43*
X02225Y01900D02*
X02250Y01875D01*
X02400Y02126D02*
X02225Y01900D01*
X02225Y01900D02*
X02144Y02126D01*
G54D41*
X09774Y07361D02*
X09775Y07700D01*
X09900Y07825D02*
X10225Y07850D01*
X09775Y07700D02*
X09900Y07825D01*
X13425Y05542D02*
X13760Y05541D01*
X13760Y05541D02*
X14276Y05419D01*
X14500Y04900D02*
X14700Y04811D01*
X14700Y04811D02*
X15043Y04811D01*
X13425Y05345D02*
X13756Y05344D01*
X13756Y05344D02*
X14260Y05195D01*
X14260Y05195D02*
X14547Y05309D01*
X14547Y05309D02*
X15043Y05311D01*
X03845Y01675D02*
X04125Y01675D01*
X04125Y01675D02*
X04200Y01600D01*
G54D45*
X05784Y07225D02*
X05787Y06494D01*
X05823Y05829D02*
X05800Y05675D01*
X05787Y06494D02*
X05823Y05829D01*
G54D44*
X06966Y07225D02*
X07350Y07225D01*
X07350Y07225D02*
X07600Y06975D01*
X06975Y07850D02*
X06966Y07841D01*
X06966Y07841D02*
X06966Y07225D01*
G54D41*
X03255Y01675D02*
X03000Y01675D01*
X03000Y01675D02*
X02950Y01625D01*
X02950Y01625D02*
X02950Y01300D01*
X02950Y01300D02*
X03500Y00750D01*
G54D43*
X01225Y06650D02*
X01225Y07100D01*
X01375Y06525D02*
X01225Y06650D01*
X01675Y06525D02*
X01375Y06525D01*
G54D39*
X02325Y07575D02*
X02525Y07575D01*
X02675Y07825D02*
X02675Y08050D01*
X02525Y07575D02*
X02675Y07825D01*
G54D42*
X02625Y05225D02*
X03250Y05225D01*
X02625Y05225D02*
X02550Y05125D01*
X03250Y05225D02*
X03375Y05025D01*
G54D39*
X02144Y02874D02*
X02150Y03050D01*
X02150Y03050D02*
X02275Y03150D01*
X00825Y06875D02*
X00825Y07100D01*
X00825Y07100D02*
X01225Y07100D01*
G54D44*
X-01150Y08100D02*
X-01150Y09100D01*
X-00525Y09750D02*
X-00500Y09750D01*
X-00525Y09725D02*
X-00525Y09750D01*
X-01150Y09100D02*
X-00525Y09725D01*
X00350Y08850D02*
X00150Y08850D01*
X00020Y09175D02*
X-00500Y09750D01*
X00020Y08978D02*
X00020Y09175D01*
X00150Y08850D02*
X00020Y08978D01*
X02871Y08850D02*
X02150Y08850D01*
X02150Y08850D02*
X02125Y08875D01*
G54D41*
X07175Y08725D02*
X05625Y08725D01*
X13075Y04750D02*
X12700Y04925D01*
X04850Y08300D02*
X05100Y08300D01*
X12575Y08250D02*
X12717Y07994D01*
X12717Y07994D02*
X12795Y07600D01*
X12025Y08525D02*
X12575Y08250D01*
X11725Y08600D02*
X12025Y08525D01*
X10850Y08750D02*
X11725Y08600D01*
X10100Y08775D02*
X10850Y08750D01*
X09225Y08825D02*
X10100Y08775D01*
X08125Y08550D02*
X08350Y08675D01*
X08350Y08675D02*
X09225Y08825D01*
X07700Y08475D02*
X08125Y08550D01*
X07175Y08725D02*
X07425Y08525D01*
X07425Y08525D02*
X07700Y08475D01*
X05275Y08580D02*
X05625Y08725D01*
X05100Y08300D02*
X05275Y08580D01*
X13075Y04750D02*
X13425Y04754D01*
X10755Y02675D02*
X10755Y03025D01*
X09625Y08450D02*
X09825Y08375D01*
X10000Y08375D02*
X10350Y08400D01*
X09825Y08375D02*
X10000Y08375D01*
X10350Y08400D02*
X10600Y08300D01*
X09625Y08450D02*
X09075Y08500D01*
X09075Y08500D02*
X08875Y08475D01*
X08875Y08475D02*
X08400Y08375D01*
X08400Y08375D02*
X08175Y08225D01*
X08175Y08225D02*
X07675Y08175D01*
X07075Y08425D02*
X05675Y08425D01*
X07675Y08175D02*
X07325Y08250D01*
X07325Y08250D02*
X07250Y08313D01*
X07250Y08313D02*
X07075Y08425D01*
X05450Y08300D02*
X05200Y07900D01*
X05675Y08425D02*
X05450Y08300D01*
X05200Y07900D02*
X04850Y07900D01*
X10755Y03025D02*
X11250Y03725D01*
X03100Y07700D02*
X03375Y07700D01*
X03375Y07700D02*
X03450Y07600D01*
X03450Y06425D02*
X03375Y06350D01*
X03450Y07600D02*
X03450Y06425D01*
X03375Y06350D02*
X03100Y06350D01*
X07525Y02725D02*
X07525Y02950D01*
X07525Y02950D02*
X07375Y03075D01*
X07147Y03403D02*
X07147Y03253D01*
X07147Y03253D02*
X07250Y03125D01*
X07250Y03125D02*
X07400Y03125D01*
X07400Y03125D02*
X07525Y03025D01*
X07525Y03025D02*
X07525Y02725D01*
G54D10*
X06775Y03403D02*
X07147Y03403D01*
G54D41*
X07175Y03500D02*
X07375Y03500D01*
X07147Y03403D02*
X07175Y03500D01*
G54D39*
X08000Y02050D02*
X08000Y02490D01*
X08000Y02490D02*
X08100Y02600D01*
X08100Y02600D02*
X08300Y02600D01*
G54D41*
X07525Y02125D02*
X07525Y01875D01*
X07060Y02890D02*
X07140Y02810D01*
X07250Y01875D02*
X07525Y01875D01*
X07150Y02000D02*
X07250Y01875D01*
X07140Y02810D02*
X07150Y02000D01*
X06775Y02891D02*
X07060Y02890D01*
X07525Y01875D02*
X07800Y01875D01*
X07800Y01875D02*
X08000Y02050D01*
G54D39*
X08000Y02050D02*
X08300Y02050D01*
G54D41*
X06775Y02400D02*
X06775Y02275D01*
G54D39*
X06775Y02400D02*
X06425Y02400D01*
X06425Y02050D02*
X06350Y01975D01*
X06350Y01975D02*
X06150Y01975D01*
X06425Y02400D02*
X06425Y02050D01*
G54D41*
X06775Y03147D02*
X06450Y03150D01*
X06450Y03150D02*
X06400Y03050D01*
X06400Y03050D02*
X06400Y02800D01*
X06400Y02800D02*
X06425Y02525D01*
X06425Y02525D02*
X06425Y02400D01*
X04700Y03150D02*
X03075Y02525D01*
X05075Y03147D02*
X04700Y03150D01*
X02750Y07450D02*
X02825Y07500D01*
X02825Y07500D02*
X03100Y07500D01*
X02575Y07200D02*
X02750Y07450D01*
X03100Y08100D02*
X03675Y08100D01*
X03675Y08100D02*
X04050Y07800D01*
X04425Y05600D02*
X04200Y05600D01*
X04200Y05600D02*
X04400Y05600D01*
X04400Y05600D02*
X04450Y05835D01*
X04450Y05835D02*
X04450Y06250D01*
X04450Y06250D02*
X04550Y06350D01*
X04550Y06350D02*
X04850Y06350D01*
G54D39*
X03100Y06150D02*
X03700Y06150D01*
X06400Y04500D02*
X06675Y04500D01*
X05925Y05061D02*
X06175Y04675D01*
X06175Y04675D02*
X06400Y04500D01*
X04450Y05200D02*
X04902Y05317D01*
X04902Y05317D02*
X05453Y05317D01*
X05453Y05317D02*
X05768Y05199D01*
X05768Y05199D02*
X05925Y05061D01*
X03900Y05300D02*
X04025Y05200D01*
X04025Y05200D02*
X04450Y05200D01*
X03900Y05975D02*
X03900Y05300D01*
X03700Y06150D02*
X03900Y05975D01*
X06175Y05250D02*
X06350Y05250D01*
X06000Y05425D02*
X06175Y05250D01*
X04850Y06150D02*
X05100Y06150D01*
X05100Y06150D02*
X05236Y06033D01*
X05236Y06033D02*
X05260Y05856D01*
X05260Y05856D02*
X05327Y05656D01*
X05327Y05656D02*
X05705Y05431D01*
X05705Y05431D02*
X06000Y05425D01*
X06256Y05852D02*
X06475Y05850D01*
X06100Y05750D02*
X06256Y05852D01*
X06000Y05425D02*
X06100Y05750D01*
G54D41*
X05075Y03659D02*
X05450Y03650D01*
X05450Y03650D02*
X05575Y03425D01*
G54D39*
X00275Y06450D02*
X00575Y06450D01*
X00825Y06175D02*
X00825Y05875D01*
X00575Y06450D02*
X00825Y06175D01*
X00275Y06675D02*
X00275Y06450D01*
X00275Y06450D02*
X00275Y06225D01*
G54D10*
X03600Y05600D02*
X03450Y05600D01*
X03450Y05600D02*
X03375Y05525D01*
X03375Y05525D02*
X03375Y05325D01*
X03600Y04850D02*
X03250Y04150D01*
X03600Y05075D02*
X03600Y04850D01*
X03375Y05325D02*
X03450Y05225D01*
X03450Y05225D02*
X03550Y05175D01*
X03550Y05175D02*
X03600Y05075D01*
G54D41*
X02850Y03550D02*
X02650Y03550D01*
X03250Y03950D02*
X03250Y04150D01*
X03200Y03900D02*
X03250Y03950D01*
X02675Y03900D02*
X03200Y03900D01*
X02600Y03825D02*
X02675Y03900D01*
X02650Y03550D02*
X02600Y03600D01*
X02600Y03600D02*
X02600Y03825D01*
G54D10*
X03250Y04150D02*
X02950Y04150D01*
X03950Y04525D02*
X03725Y04525D01*
X03625Y03550D02*
X03450Y03550D01*
X03700Y03625D02*
X03625Y03550D01*
X03600Y04425D02*
X03600Y03950D01*
X03600Y03950D02*
X03700Y03875D01*
X03700Y03875D02*
X03700Y03625D01*
X03725Y04525D02*
X03600Y04425D01*
G54D41*
X03950Y04525D02*
X04225Y04525D01*
X04600Y04225D02*
X04775Y04225D01*
X04225Y04525D02*
X04350Y04475D01*
X04350Y04475D02*
X04475Y04275D01*
X04475Y04275D02*
X04600Y04225D01*
G54D39*
X00500Y04750D02*
X01575Y04275D01*
X01575Y04275D02*
X01875Y04275D01*
X01875Y04075D02*
X01875Y04275D01*
X01875Y04275D02*
X01875Y04525D01*
X01875Y03475D02*
X01875Y02700D01*
X01875Y02700D02*
X02097Y02500D01*
X02097Y02500D02*
X02422Y02500D01*
X02422Y02500D02*
X02650Y02300D01*
X02650Y02300D02*
X02656Y02126D01*
G54D42*
X00275Y05625D02*
X00275Y05425D01*
X00275Y05425D02*
X-00500Y04750D01*
G54D39*
X00275Y07275D02*
X00275Y07475D01*
X01375Y07325D02*
X01575Y07125D01*
X00879Y07525D02*
X01375Y07325D01*
X00425Y07525D02*
X00879Y07525D01*
X00275Y07475D02*
X00425Y07525D01*
X01575Y07125D02*
X01575Y06875D01*
X02250Y07075D02*
X02250Y06900D01*
X02175Y07125D02*
X02250Y07075D01*
X01575Y07125D02*
X02175Y07125D01*
G54D41*
X03100Y06550D02*
X02866Y06556D01*
X02866Y06556D02*
X02803Y06482D01*
X02803Y06482D02*
X02803Y06022D01*
X02803Y06022D02*
X02850Y05950D01*
X02850Y05950D02*
X02925Y05950D01*
X02925Y05950D02*
X02975Y05896D01*
X02975Y05896D02*
X02975Y05625D01*
X02975Y05625D02*
X02950Y05600D01*
X02950Y05600D02*
X02725Y05600D01*
G54D39*
X01850Y05750D02*
X01850Y05950D01*
X02250Y06175D02*
X02250Y06300D01*
X02175Y06075D02*
X02250Y06175D01*
X02075Y06075D02*
X02175Y06075D01*
X01850Y05950D02*
X02075Y06075D01*
G54D41*
X02125Y05600D02*
X01975Y05600D01*
G54D39*
X01850Y05725D02*
X01850Y05750D01*
G54D41*
X01975Y05600D02*
X01850Y05725D01*
G54D39*
X01725Y05875D02*
X01575Y05875D01*
X01850Y05750D02*
X01725Y05875D01*
G54D41*
X04850Y06750D02*
X05150Y06750D01*
X04425Y07175D02*
X05150Y07175D01*
X03475Y07900D02*
X04425Y07175D01*
X03100Y07900D02*
X03475Y07900D01*
X05150Y06750D02*
X05250Y06850D01*
X05250Y06850D02*
X05250Y07075D01*
X05250Y07075D02*
X05150Y07175D01*
G54D43*
X-01050Y01825D02*
X-00700Y01825D01*
X-00675Y01800D02*
X-00671Y01800D01*
X-00700Y01825D02*
X-00675Y01800D01*
X-01050Y01825D02*
X-01050Y01575D01*
X-00850Y01325D02*
X00825Y01325D01*
X00825Y01325D02*
X01375Y00775D01*
X01375Y00775D02*
X01450Y00775D01*
X01450Y00775D02*
X01500Y00750D01*
X-01050Y01575D02*
X-00850Y01325D01*
G54D44*
X-01150Y07500D02*
X-01150Y07225D01*
X-01150Y07225D02*
X-01350Y06950D01*
X-01350Y06950D02*
X-01325Y02100D01*
X-01325Y02100D02*
X-01050Y01825D01*
X01350Y02925D02*
X01350Y03100D01*
X01350Y03100D02*
X01150Y03300D01*
X01150Y03300D02*
X-00050Y03300D01*
X-00050Y03300D02*
X-00500Y03750D01*
G54D43*
X00925Y01750D02*
X00925Y01950D01*
X01350Y02100D02*
X01350Y02325D01*
X01225Y02025D02*
X01350Y02100D01*
X01000Y02025D02*
X01225Y02025D01*
X00925Y01950D02*
X01000Y02025D01*
X00621Y01800D02*
X00850Y01800D01*
X00850Y01800D02*
X00925Y01750D01*
X00975Y01625D02*
X01200Y01625D01*
X00925Y01750D02*
X00975Y01625D01*
G54D41*
X17043Y05311D02*
X17075Y05325D01*
X17650Y08000D02*
X17825Y08000D01*
X17800Y07350D02*
X17595Y07350D01*
X17925Y07475D02*
X17800Y07350D01*
X17925Y07900D02*
X17925Y07475D01*
X17825Y08000D02*
X17925Y07900D01*
X16720Y04311D02*
X16500Y04400D01*
X16500Y04400D02*
X16425Y04525D01*
X16425Y04525D02*
X16425Y04700D01*
X16425Y04700D02*
X16550Y05231D01*
X16550Y05231D02*
X16675Y05500D01*
X16675Y05500D02*
X16775Y05551D01*
X16775Y05551D02*
X17500Y05550D01*
X17500Y05550D02*
X17717Y05691D01*
X17717Y05691D02*
X17717Y05883D01*
X16717Y04301D02*
X16727Y04311D01*
X16727Y04311D02*
X16720Y04311D01*
G54D10*
X16720Y04311D02*
X17043Y04311D01*
G54D41*
X16875Y05825D02*
X16750Y05811D01*
X16750Y05811D02*
X17043Y05811D01*
G54D39*
X17925Y05475D02*
X17700Y05375D01*
X17700Y05375D02*
X17700Y05125D01*
G54D10*
X17043Y04811D02*
X17325Y04800D01*
X17375Y04900D02*
X17375Y05375D01*
X17375Y05375D02*
X17700Y05375D01*
X17325Y04800D02*
X17375Y04900D01*
G54D43*
X00525Y07950D02*
X00925Y07950D01*
X01250Y08275D02*
X01250Y08850D01*
X00925Y07950D02*
X01250Y08275D01*
G54D44*
X00950Y08850D02*
X01250Y08850D01*
X01250Y08850D02*
X01579Y08850D01*
G54D10*
G36*
X02212Y04718D02*
X02210Y04722D01*
X02174Y04759D01*
X02126Y04779D01*
X02075Y04779D01*
X01866Y04779D01*
X01866Y04932D01*
X01866Y05116D01*
X01866Y05134D01*
X01866Y05318D01*
X01844Y05340D01*
X01668Y05339D01*
X01633Y05339D01*
X01600Y05326D01*
X01575Y05301D01*
X01561Y05268D01*
X01560Y05156D01*
X01582Y05134D01*
X01866Y05134D01*
X01866Y05116D01*
X01582Y05116D01*
X01560Y05094D01*
X01561Y04982D01*
X01575Y04949D01*
X01600Y04924D01*
X01633Y04911D01*
X01668Y04911D01*
X01844Y04910D01*
X01866Y04932D01*
X01866Y04779D01*
X01625Y04779D01*
X01578Y04760D01*
X01541Y04724D01*
X01521Y04676D01*
X01521Y04625D01*
X01521Y04506D01*
X01022Y04726D01*
X01022Y04853D01*
X00943Y05045D01*
X00796Y05192D01*
X00605Y05272D01*
X00412Y05272D01*
X00414Y05275D01*
X00421Y05279D01*
X00444Y05315D01*
X00459Y05333D01*
X00460Y05338D01*
X00466Y05346D01*
X00471Y05371D01*
X00525Y05371D01*
X00572Y05390D01*
X00609Y05426D01*
X00629Y05474D01*
X00629Y05525D01*
X00629Y05639D01*
X00651Y05616D01*
X00699Y05596D01*
X00750Y05596D01*
X00950Y05596D01*
X00997Y05615D01*
X01034Y05651D01*
X01038Y05661D01*
X01049Y05650D01*
X01082Y05636D01*
X01169Y05635D01*
X01191Y05657D01*
X01191Y05816D01*
X01191Y05866D01*
X01191Y05884D01*
X01191Y05934D01*
X01191Y06093D01*
X01169Y06115D01*
X01082Y06114D01*
X01049Y06100D01*
X01038Y06090D01*
X01035Y06097D01*
X01013Y06120D01*
X01013Y06167D01*
X01013Y06175D01*
X01007Y06205D01*
X01002Y06239D01*
X00999Y06243D01*
X00999Y06247D01*
X00981Y06274D01*
X00964Y06302D01*
X00958Y06308D01*
X00714Y06577D01*
X00710Y06580D01*
X00708Y06583D01*
X00679Y06603D01*
X00673Y06607D01*
X00699Y06596D01*
X00750Y06596D01*
X00950Y06596D01*
X00997Y06615D01*
X01001Y06619D01*
X01009Y06592D01*
X01015Y06563D01*
X01020Y06555D01*
X01024Y06544D01*
X01042Y06522D01*
X01064Y06489D01*
X01075Y06482D01*
X01080Y06476D01*
X01213Y06365D01*
X01214Y06364D01*
X01215Y06363D01*
X01230Y06351D01*
X01253Y06339D01*
X01288Y06315D01*
X01297Y06314D01*
X01307Y06308D01*
X01347Y06304D01*
X01375Y06298D01*
X01395Y06298D01*
X01562Y06298D01*
X01624Y06272D01*
X01725Y06272D01*
X01818Y06310D01*
X01889Y06381D01*
X01896Y06398D01*
X01896Y06191D01*
X01765Y06118D01*
X01749Y06134D01*
X01701Y06154D01*
X01650Y06154D01*
X01450Y06154D01*
X01403Y06135D01*
X01366Y06099D01*
X01361Y06090D01*
X01351Y06100D01*
X01318Y06114D01*
X01231Y06115D01*
X01209Y06093D01*
X01209Y05934D01*
X01209Y05884D01*
X01209Y05866D01*
X01209Y05816D01*
X01209Y05657D01*
X01231Y05635D01*
X01318Y05636D01*
X01351Y05650D01*
X01361Y05661D01*
X01365Y05653D01*
X01401Y05616D01*
X01449Y05596D01*
X01500Y05596D01*
X01700Y05596D01*
X01711Y05601D01*
X01717Y05592D01*
X01778Y05551D01*
X01788Y05549D01*
X01854Y05484D01*
X01856Y05481D01*
X01871Y05472D01*
X01871Y05350D01*
X01884Y05318D01*
X01884Y05184D01*
X01884Y05134D01*
X01884Y05116D01*
X01884Y05066D01*
X01884Y04932D01*
X01906Y04910D01*
X02082Y04911D01*
X02117Y04911D01*
X02150Y04924D01*
X02167Y04941D01*
X02212Y04836D01*
X02212Y04718D01*
X02212Y04718D01*
G37*
G54D46*
X02212Y04718D02*
X02210Y04722D01*
X02174Y04759D01*
X02126Y04779D01*
X02075Y04779D01*
X01866Y04779D01*
X01866Y04932D01*
X01866Y05116D01*
X01866Y05134D01*
X01866Y05318D01*
X01844Y05340D01*
X01668Y05339D01*
X01633Y05339D01*
X01600Y05326D01*
X01575Y05301D01*
X01561Y05268D01*
X01560Y05156D01*
X01582Y05134D01*
X01866Y05134D01*
X01866Y05116D01*
X01582Y05116D01*
X01560Y05094D01*
X01561Y04982D01*
X01575Y04949D01*
X01600Y04924D01*
X01633Y04911D01*
X01668Y04911D01*
X01844Y04910D01*
X01866Y04932D01*
X01866Y04779D01*
X01625Y04779D01*
X01578Y04760D01*
X01541Y04724D01*
X01521Y04676D01*
X01521Y04625D01*
X01521Y04506D01*
X01022Y04726D01*
X01022Y04853D01*
X00943Y05045D01*
X00796Y05192D01*
X00605Y05272D01*
X00412Y05272D01*
X00414Y05275D01*
X00421Y05279D01*
X00444Y05315D01*
X00459Y05333D01*
X00460Y05338D01*
X00466Y05346D01*
X00471Y05371D01*
X00525Y05371D01*
X00572Y05390D01*
X00609Y05426D01*
X00629Y05474D01*
X00629Y05525D01*
X00629Y05639D01*
X00651Y05616D01*
X00699Y05596D01*
X00750Y05596D01*
X00950Y05596D01*
X00997Y05615D01*
X01034Y05651D01*
X01038Y05661D01*
X01049Y05650D01*
X01082Y05636D01*
X01169Y05635D01*
X01191Y05657D01*
X01191Y05816D01*
X01191Y05866D01*
X01191Y05884D01*
X01191Y05934D01*
X01191Y06093D01*
X01169Y06115D01*
X01082Y06114D01*
X01049Y06100D01*
X01038Y06090D01*
X01035Y06097D01*
X01013Y06120D01*
X01013Y06167D01*
X01013Y06175D01*
X01007Y06205D01*
X01002Y06239D01*
X00999Y06243D01*
X00999Y06247D01*
X00981Y06274D01*
X00964Y06302D01*
X00958Y06308D01*
X00714Y06577D01*
X00710Y06580D01*
X00708Y06583D01*
X00679Y06603D01*
X00673Y06607D01*
X00699Y06596D01*
X00750Y06596D01*
X00950Y06596D01*
X00997Y06615D01*
X01001Y06619D01*
X01009Y06592D01*
X01015Y06563D01*
X01020Y06555D01*
X01024Y06544D01*
X01042Y06522D01*
X01064Y06489D01*
X01075Y06482D01*
X01080Y06476D01*
X01213Y06365D01*
X01214Y06364D01*
X01215Y06363D01*
X01230Y06351D01*
X01253Y06339D01*
X01288Y06315D01*
X01297Y06314D01*
X01307Y06308D01*
X01347Y06304D01*
X01375Y06298D01*
X01395Y06298D01*
X01562Y06298D01*
X01624Y06272D01*
X01725Y06272D01*
X01818Y06310D01*
X01889Y06381D01*
X01896Y06398D01*
X01896Y06191D01*
X01765Y06118D01*
X01749Y06134D01*
X01701Y06154D01*
X01650Y06154D01*
X01450Y06154D01*
X01403Y06135D01*
X01366Y06099D01*
X01361Y06090D01*
X01351Y06100D01*
X01318Y06114D01*
X01231Y06115D01*
X01209Y06093D01*
X01209Y05934D01*
X01209Y05884D01*
X01209Y05866D01*
X01209Y05816D01*
X01209Y05657D01*
X01231Y05635D01*
X01318Y05636D01*
X01351Y05650D01*
X01361Y05661D01*
X01365Y05653D01*
X01401Y05616D01*
X01449Y05596D01*
X01500Y05596D01*
X01700Y05596D01*
X01711Y05601D01*
X01717Y05592D01*
X01778Y05551D01*
X01788Y05549D01*
X01854Y05484D01*
X01856Y05481D01*
X01871Y05472D01*
X01871Y05350D01*
X01884Y05318D01*
X01884Y05184D01*
X01884Y05134D01*
X01884Y05116D01*
X01884Y05066D01*
X01884Y04932D01*
X01906Y04910D01*
X02082Y04911D01*
X02117Y04911D01*
X02150Y04924D01*
X02167Y04941D01*
X02212Y04836D01*
X02212Y04718D01*
G54D10*
G36*
X02212Y03668D02*
X02210Y03672D01*
X02174Y03709D01*
X02126Y03729D01*
X02075Y03729D01*
X01625Y03729D01*
X01578Y03710D01*
X01541Y03674D01*
X01521Y03626D01*
X01521Y03575D01*
X01521Y03325D01*
X01533Y03294D01*
X01339Y03489D01*
X01253Y03547D01*
X01150Y03567D01*
X00977Y03567D01*
X01023Y03675D01*
X01023Y03825D01*
X00966Y03964D01*
X00859Y04070D01*
X00720Y04128D01*
X00570Y04128D01*
X00280Y04128D01*
X00141Y04071D01*
X00035Y03964D01*
X00005Y03894D01*
X-00057Y04045D01*
X-00204Y04192D01*
X-00343Y04251D01*
X-00205Y04307D01*
X-00058Y04454D01*
X00000Y04593D01*
X00057Y04455D01*
X00204Y04308D01*
X00395Y04228D01*
X00603Y04228D01*
X00795Y04307D01*
X00869Y04382D01*
X01497Y04105D01*
X01499Y04104D01*
X01503Y04101D01*
X01521Y04098D01*
X01521Y03925D01*
X01540Y03878D01*
X01576Y03841D01*
X01624Y03821D01*
X01675Y03821D01*
X02125Y03821D01*
X02172Y03840D01*
X02209Y03876D01*
X02212Y03884D01*
X02212Y03668D01*
X02212Y03668D01*
G37*
G54D46*
X02212Y03668D02*
X02210Y03672D01*
X02174Y03709D01*
X02126Y03729D01*
X02075Y03729D01*
X01625Y03729D01*
X01578Y03710D01*
X01541Y03674D01*
X01521Y03626D01*
X01521Y03575D01*
X01521Y03325D01*
X01533Y03294D01*
X01339Y03489D01*
X01253Y03547D01*
X01150Y03567D01*
X00977Y03567D01*
X01023Y03675D01*
X01023Y03825D01*
X00966Y03964D01*
X00859Y04070D01*
X00720Y04128D01*
X00570Y04128D01*
X00280Y04128D01*
X00141Y04071D01*
X00035Y03964D01*
X00005Y03894D01*
X-00057Y04045D01*
X-00204Y04192D01*
X-00343Y04251D01*
X-00205Y04307D01*
X-00058Y04454D01*
X00000Y04593D01*
X00057Y04455D01*
X00204Y04308D01*
X00395Y04228D01*
X00603Y04228D01*
X00795Y04307D01*
X00869Y04382D01*
X01497Y04105D01*
X01499Y04104D01*
X01503Y04101D01*
X01521Y04098D01*
X01521Y03925D01*
X01540Y03878D01*
X01576Y03841D01*
X01624Y03821D01*
X01675Y03821D01*
X02125Y03821D01*
X02172Y03840D01*
X02209Y03876D01*
X02212Y03884D01*
X02212Y03668D01*
G54D10*
G36*
X02591Y08570D02*
X01964Y08247D01*
X01946Y08254D01*
X01855Y08254D01*
X01771Y08219D01*
X01706Y08155D01*
X01671Y08071D01*
X01671Y07980D01*
X01706Y07896D01*
X01712Y07890D01*
X01694Y07890D01*
X01666Y07890D01*
X01582Y07889D01*
X01549Y07875D01*
X01524Y07850D01*
X01511Y07817D01*
X01511Y07782D01*
X01510Y07606D01*
X01532Y07584D01*
X01666Y07584D01*
X01716Y07584D01*
X01734Y07584D01*
X01784Y07584D01*
X01918Y07584D01*
X01940Y07606D01*
X01939Y07782D01*
X01939Y07796D01*
X01945Y07796D01*
X02029Y07831D01*
X02094Y07895D01*
X02115Y07948D01*
X02424Y08106D01*
X02422Y08101D01*
X02422Y08000D01*
X02451Y07929D01*
X02425Y07929D01*
X02175Y07929D01*
X02128Y07910D01*
X02091Y07874D01*
X02071Y07826D01*
X02071Y07775D01*
X02071Y07325D01*
X02075Y07313D01*
X01931Y07313D01*
X01939Y07333D01*
X01939Y07368D01*
X01940Y07544D01*
X01918Y07566D01*
X01784Y07566D01*
X01734Y07566D01*
X01716Y07566D01*
X01666Y07566D01*
X01532Y07566D01*
X01510Y07544D01*
X01510Y07456D01*
X01508Y07458D01*
X01506Y07459D01*
X01447Y07499D01*
X01443Y07500D01*
X00953Y07697D01*
X00951Y07699D01*
X00879Y07713D01*
X00877Y07713D01*
X00779Y07713D01*
X00779Y07723D01*
X00920Y07723D01*
X00925Y07722D01*
X00925Y07723D01*
X01012Y07740D01*
X01086Y07789D01*
X01408Y08113D01*
X01410Y08114D01*
X01411Y08114D01*
X01460Y08188D01*
X01477Y08275D01*
X01477Y08520D01*
X01781Y08520D01*
X01828Y08539D01*
X01865Y08575D01*
X01885Y08623D01*
X01885Y08674D01*
X01885Y08762D01*
X01936Y08686D01*
X01961Y08661D01*
X02047Y08603D01*
X02048Y08603D01*
X02150Y08583D01*
X02581Y08583D01*
X02584Y08577D01*
X02591Y08570D01*
X02591Y08570D01*
G37*
G54D46*
X02591Y08570D02*
X01964Y08247D01*
X01946Y08254D01*
X01855Y08254D01*
X01771Y08219D01*
X01706Y08155D01*
X01671Y08071D01*
X01671Y07980D01*
X01706Y07896D01*
X01712Y07890D01*
X01694Y07890D01*
X01666Y07890D01*
X01582Y07889D01*
X01549Y07875D01*
X01524Y07850D01*
X01511Y07817D01*
X01511Y07782D01*
X01510Y07606D01*
X01532Y07584D01*
X01666Y07584D01*
X01716Y07584D01*
X01734Y07584D01*
X01784Y07584D01*
X01918Y07584D01*
X01940Y07606D01*
X01939Y07782D01*
X01939Y07796D01*
X01945Y07796D01*
X02029Y07831D01*
X02094Y07895D01*
X02115Y07948D01*
X02424Y08106D01*
X02422Y08101D01*
X02422Y08000D01*
X02451Y07929D01*
X02425Y07929D01*
X02175Y07929D01*
X02128Y07910D01*
X02091Y07874D01*
X02071Y07826D01*
X02071Y07775D01*
X02071Y07325D01*
X02075Y07313D01*
X01931Y07313D01*
X01939Y07333D01*
X01939Y07368D01*
X01940Y07544D01*
X01918Y07566D01*
X01784Y07566D01*
X01734Y07566D01*
X01716Y07566D01*
X01666Y07566D01*
X01532Y07566D01*
X01510Y07544D01*
X01510Y07456D01*
X01508Y07458D01*
X01506Y07459D01*
X01447Y07499D01*
X01443Y07500D01*
X00953Y07697D01*
X00951Y07699D01*
X00879Y07713D01*
X00877Y07713D01*
X00779Y07713D01*
X00779Y07723D01*
X00920Y07723D01*
X00925Y07722D01*
X00925Y07723D01*
X01012Y07740D01*
X01086Y07789D01*
X01408Y08113D01*
X01410Y08114D01*
X01411Y08114D01*
X01460Y08188D01*
X01477Y08275D01*
X01477Y08520D01*
X01781Y08520D01*
X01828Y08539D01*
X01865Y08575D01*
X01885Y08623D01*
X01885Y08674D01*
X01885Y08762D01*
X01936Y08686D01*
X01961Y08661D01*
X02047Y08603D01*
X02048Y08603D01*
X02150Y08583D01*
X02581Y08583D01*
X02584Y08577D01*
X02591Y08570D01*
G54D10*
G36*
X03383Y04772D02*
X03236Y04479D01*
X03237Y04494D01*
X03215Y04516D01*
X03009Y04516D01*
X02959Y04516D01*
X02941Y04516D01*
X02941Y04534D01*
X02959Y04534D01*
X03009Y04534D01*
X03215Y04534D01*
X03237Y04556D01*
X03236Y04669D01*
X03256Y04688D01*
X03276Y04736D01*
X03276Y04787D01*
X03276Y04793D01*
X03324Y04772D01*
X03383Y04772D01*
X03383Y04772D01*
G37*
G54D46*
X03383Y04772D02*
X03236Y04479D01*
X03237Y04494D01*
X03215Y04516D01*
X03009Y04516D01*
X02959Y04516D01*
X02941Y04516D01*
X02941Y04534D01*
X02959Y04534D01*
X03009Y04534D01*
X03215Y04534D01*
X03237Y04556D01*
X03236Y04669D01*
X03256Y04688D01*
X03276Y04736D01*
X03276Y04787D01*
X03276Y04793D01*
X03324Y04772D01*
X03383Y04772D01*
G54D10*
G36*
X04019Y07275D02*
X03882Y07301D01*
X03869Y07314D01*
X03776Y07353D01*
X03675Y07353D01*
X03618Y07330D01*
X03618Y07580D01*
X04019Y07275D01*
X04019Y07275D01*
G37*
G54D46*
X04019Y07275D02*
X03882Y07301D01*
X03869Y07314D01*
X03776Y07353D01*
X03675Y07353D01*
X03618Y07330D01*
X03618Y07580D01*
X04019Y07275D01*
G54D10*
G36*
X04065Y03883D02*
X04037Y03855D01*
X03994Y03752D01*
X03994Y03640D01*
X03994Y03381D01*
X03704Y03302D01*
X03704Y03350D01*
X03704Y03416D01*
X03737Y03438D01*
X03812Y03513D01*
X03847Y03564D01*
X03858Y03625D01*
X03859Y03625D01*
X03859Y03875D01*
X03857Y03883D01*
X04065Y03883D01*
X04065Y03883D01*
G37*
G54D46*
X04065Y03883D02*
X04037Y03855D01*
X03994Y03752D01*
X03994Y03640D01*
X03994Y03381D01*
X03704Y03302D01*
X03704Y03350D01*
X03704Y03416D01*
X03737Y03438D01*
X03812Y03513D01*
X03847Y03564D01*
X03858Y03625D01*
X03859Y03625D01*
X03859Y03875D01*
X03857Y03883D01*
X04065Y03883D01*
G54D10*
G36*
X05168Y08707D02*
X05167Y08706D01*
X05157Y08699D01*
X05148Y08686D01*
X05132Y08669D01*
X05015Y08482D01*
X04628Y08482D01*
X04581Y08463D01*
X04544Y08427D01*
X04524Y08379D01*
X04524Y08328D01*
X04524Y08222D01*
X04532Y08201D01*
X04524Y08179D01*
X04524Y08128D01*
X04524Y08022D01*
X04532Y08001D01*
X04524Y07979D01*
X04524Y07969D01*
X04347Y08118D01*
X04346Y08119D01*
X04345Y08120D01*
X03928Y08480D01*
X03928Y08500D01*
X03890Y08593D01*
X03819Y08664D01*
X03726Y08703D01*
X03625Y08703D01*
X03599Y08693D01*
X03615Y08707D01*
X05168Y08707D01*
X05168Y08707D01*
G37*
G54D46*
X05168Y08707D02*
X05167Y08706D01*
X05157Y08699D01*
X05148Y08686D01*
X05132Y08669D01*
X05015Y08482D01*
X04628Y08482D01*
X04581Y08463D01*
X04544Y08427D01*
X04524Y08379D01*
X04524Y08328D01*
X04524Y08222D01*
X04532Y08201D01*
X04524Y08179D01*
X04524Y08128D01*
X04524Y08022D01*
X04532Y08001D01*
X04524Y07979D01*
X04524Y07969D01*
X04347Y08118D01*
X04346Y08119D01*
X04345Y08120D01*
X03928Y08480D01*
X03928Y08500D01*
X03890Y08593D01*
X03819Y08664D01*
X03726Y08703D01*
X03625Y08703D01*
X03599Y08693D01*
X03615Y08707D01*
X05168Y08707D01*
G54D10*
G36*
X05219Y05505D02*
X04902Y05505D01*
X04877Y05501D01*
X04854Y05499D01*
X04574Y05427D01*
X04619Y05470D01*
X04654Y05554D01*
X04654Y05645D01*
X04619Y05729D01*
X04602Y05746D01*
X04614Y05800D01*
X04614Y05817D01*
X04618Y05835D01*
X04618Y05972D01*
X04627Y05968D01*
X04678Y05968D01*
X04819Y05968D01*
X04850Y05962D01*
X05029Y05962D01*
X05059Y05937D01*
X05074Y05831D01*
X05079Y05815D01*
X05082Y05796D01*
X05148Y05597D01*
X05164Y05567D01*
X05176Y05543D01*
X05180Y05539D01*
X05184Y05533D01*
X05207Y05516D01*
X05219Y05505D01*
X05219Y05505D01*
G37*
G54D46*
X05219Y05505D02*
X04902Y05505D01*
X04877Y05501D01*
X04854Y05499D01*
X04574Y05427D01*
X04619Y05470D01*
X04654Y05554D01*
X04654Y05645D01*
X04619Y05729D01*
X04602Y05746D01*
X04614Y05800D01*
X04614Y05817D01*
X04618Y05835D01*
X04618Y05972D01*
X04627Y05968D01*
X04678Y05968D01*
X04819Y05968D01*
X04850Y05962D01*
X05029Y05962D01*
X05059Y05937D01*
X05074Y05831D01*
X05079Y05815D01*
X05082Y05796D01*
X05148Y05597D01*
X05164Y05567D01*
X05176Y05543D01*
X05180Y05539D01*
X05184Y05533D01*
X05207Y05516D01*
X05219Y05505D01*
G54D10*
G36*
X05388Y07165D02*
X05369Y07194D01*
X05366Y07196D01*
X05269Y07294D01*
X05214Y07330D01*
X05150Y07343D01*
X05137Y07343D01*
X05137Y07469D01*
X05115Y07491D01*
X04859Y07491D01*
X04859Y07379D01*
X04881Y07357D01*
X05029Y07358D01*
X05064Y07358D01*
X05097Y07371D01*
X05122Y07396D01*
X05136Y07429D01*
X05137Y07469D01*
X05137Y07343D01*
X04841Y07343D01*
X04841Y07379D01*
X04841Y07491D01*
X04585Y07491D01*
X04563Y07469D01*
X04564Y07429D01*
X04578Y07396D01*
X04603Y07371D01*
X04636Y07358D01*
X04671Y07358D01*
X04819Y07357D01*
X04841Y07379D01*
X04841Y07343D01*
X04482Y07343D01*
X04152Y07595D01*
X04179Y07606D01*
X04244Y07670D01*
X04257Y07702D01*
X04417Y07567D01*
X04428Y07557D01*
X04451Y07544D01*
X04478Y07526D01*
X04485Y07525D01*
X04492Y07521D01*
X04518Y07519D01*
X04550Y07512D01*
X04582Y07512D01*
X04585Y07509D01*
X04791Y07509D01*
X04841Y07509D01*
X04859Y07509D01*
X04909Y07509D01*
X05115Y07509D01*
X05137Y07531D01*
X05136Y07554D01*
X05156Y07573D01*
X05176Y07621D01*
X05176Y07672D01*
X05176Y07732D01*
X05200Y07732D01*
X05218Y07736D01*
X05238Y07736D01*
X05252Y07743D01*
X05264Y07745D01*
X05280Y07756D01*
X05298Y07764D01*
X05305Y07773D01*
X05319Y07781D01*
X05330Y07800D01*
X05342Y07811D01*
X05388Y07885D01*
X05388Y07165D01*
X05388Y07165D01*
G37*
G54D46*
X05388Y07165D02*
X05369Y07194D01*
X05366Y07196D01*
X05269Y07294D01*
X05214Y07330D01*
X05150Y07343D01*
X05137Y07343D01*
X05137Y07469D01*
X05115Y07491D01*
X04859Y07491D01*
X04859Y07379D01*
X04881Y07357D01*
X05029Y07358D01*
X05064Y07358D01*
X05097Y07371D01*
X05122Y07396D01*
X05136Y07429D01*
X05137Y07469D01*
X05137Y07343D01*
X04841Y07343D01*
X04841Y07379D01*
X04841Y07491D01*
X04585Y07491D01*
X04563Y07469D01*
X04564Y07429D01*
X04578Y07396D01*
X04603Y07371D01*
X04636Y07358D01*
X04671Y07358D01*
X04819Y07357D01*
X04841Y07379D01*
X04841Y07343D01*
X04482Y07343D01*
X04152Y07595D01*
X04179Y07606D01*
X04244Y07670D01*
X04257Y07702D01*
X04417Y07567D01*
X04428Y07557D01*
X04451Y07544D01*
X04478Y07526D01*
X04485Y07525D01*
X04492Y07521D01*
X04518Y07519D01*
X04550Y07512D01*
X04582Y07512D01*
X04585Y07509D01*
X04791Y07509D01*
X04841Y07509D01*
X04859Y07509D01*
X04909Y07509D01*
X05115Y07509D01*
X05137Y07531D01*
X05136Y07554D01*
X05156Y07573D01*
X05176Y07621D01*
X05176Y07672D01*
X05176Y07732D01*
X05200Y07732D01*
X05218Y07736D01*
X05238Y07736D01*
X05252Y07743D01*
X05264Y07745D01*
X05280Y07756D01*
X05298Y07764D01*
X05305Y07773D01*
X05319Y07781D01*
X05330Y07800D01*
X05342Y07811D01*
X05388Y07885D01*
X05388Y07165D01*
G54D10*
G36*
X05574Y05838D02*
X05564Y05768D01*
X05552Y05740D01*
X05483Y05782D01*
X05443Y05900D01*
X05423Y06047D01*
X05422Y06058D01*
X05411Y06090D01*
X05404Y06118D01*
X05401Y06122D01*
X05399Y06128D01*
X05372Y06158D01*
X05358Y06176D01*
X05350Y06183D01*
X05349Y06184D01*
X05223Y06293D01*
X05193Y06310D01*
X05176Y06322D01*
X05176Y06428D01*
X05157Y06475D01*
X05136Y06497D01*
X05137Y06519D01*
X05115Y06541D01*
X04909Y06541D01*
X04859Y06541D01*
X04841Y06541D01*
X04791Y06541D01*
X04585Y06541D01*
X04563Y06519D01*
X04563Y06518D01*
X04550Y06518D01*
X04485Y06505D01*
X04463Y06491D01*
X04431Y06469D01*
X04429Y06467D01*
X04331Y06369D01*
X04295Y06314D01*
X04282Y06250D01*
X04282Y05954D01*
X04088Y05954D01*
X04088Y05975D01*
X04086Y05984D01*
X04087Y05988D01*
X04081Y06009D01*
X04074Y06047D01*
X04069Y06054D01*
X04068Y06059D01*
X04052Y06079D01*
X04033Y06108D01*
X04026Y06113D01*
X04023Y06117D01*
X03833Y06283D01*
X03824Y06291D01*
X03803Y06303D01*
X03772Y06324D01*
X03764Y06326D01*
X03760Y06328D01*
X03730Y06333D01*
X03700Y06338D01*
X03688Y06338D01*
X03589Y06338D01*
X03605Y06361D01*
X03618Y06425D01*
X03618Y06871D01*
X03674Y06847D01*
X03775Y06847D01*
X03794Y06856D01*
X04456Y06727D01*
X04524Y06727D01*
X04524Y06672D01*
X04543Y06625D01*
X04563Y06604D01*
X04563Y06581D01*
X04585Y06559D01*
X04791Y06559D01*
X04841Y06559D01*
X04859Y06559D01*
X04909Y06559D01*
X05115Y06559D01*
X05137Y06581D01*
X05136Y06582D01*
X05150Y06582D01*
X05214Y06595D01*
X05269Y06631D01*
X05366Y06730D01*
X05368Y06731D01*
X05369Y06731D01*
X05388Y06761D01*
X05388Y06348D01*
X05448Y06202D01*
X05559Y06091D01*
X05561Y06091D01*
X05574Y05838D01*
X05574Y05838D01*
G37*
G54D46*
X05574Y05838D02*
X05564Y05768D01*
X05552Y05740D01*
X05483Y05782D01*
X05443Y05900D01*
X05423Y06047D01*
X05422Y06058D01*
X05411Y06090D01*
X05404Y06118D01*
X05401Y06122D01*
X05399Y06128D01*
X05372Y06158D01*
X05358Y06176D01*
X05350Y06183D01*
X05349Y06184D01*
X05223Y06293D01*
X05193Y06310D01*
X05176Y06322D01*
X05176Y06428D01*
X05157Y06475D01*
X05136Y06497D01*
X05137Y06519D01*
X05115Y06541D01*
X04909Y06541D01*
X04859Y06541D01*
X04841Y06541D01*
X04791Y06541D01*
X04585Y06541D01*
X04563Y06519D01*
X04563Y06518D01*
X04550Y06518D01*
X04485Y06505D01*
X04463Y06491D01*
X04431Y06469D01*
X04429Y06467D01*
X04331Y06369D01*
X04295Y06314D01*
X04282Y06250D01*
X04282Y05954D01*
X04088Y05954D01*
X04088Y05975D01*
X04086Y05984D01*
X04087Y05988D01*
X04081Y06009D01*
X04074Y06047D01*
X04069Y06054D01*
X04068Y06059D01*
X04052Y06079D01*
X04033Y06108D01*
X04026Y06113D01*
X04023Y06117D01*
X03833Y06283D01*
X03824Y06291D01*
X03803Y06303D01*
X03772Y06324D01*
X03764Y06326D01*
X03760Y06328D01*
X03730Y06333D01*
X03700Y06338D01*
X03688Y06338D01*
X03589Y06338D01*
X03605Y06361D01*
X03618Y06425D01*
X03618Y06871D01*
X03674Y06847D01*
X03775Y06847D01*
X03794Y06856D01*
X04456Y06727D01*
X04524Y06727D01*
X04524Y06672D01*
X04543Y06625D01*
X04563Y06604D01*
X04563Y06581D01*
X04585Y06559D01*
X04791Y06559D01*
X04841Y06559D01*
X04859Y06559D01*
X04909Y06559D01*
X05115Y06559D01*
X05137Y06581D01*
X05136Y06582D01*
X05150Y06582D01*
X05214Y06595D01*
X05269Y06631D01*
X05366Y06730D01*
X05368Y06731D01*
X05369Y06731D01*
X05388Y06761D01*
X05388Y06348D01*
X05448Y06202D01*
X05559Y06091D01*
X05561Y06091D01*
X05574Y05838D01*
G54D10*
G36*
X06396Y03309D02*
X06394Y03308D01*
X06387Y03306D01*
X06350Y03282D01*
X06340Y03276D01*
X06338Y03275D01*
X06332Y03270D01*
X06316Y03246D01*
X06299Y03224D01*
X06250Y03125D01*
X06248Y03120D01*
X06245Y03114D01*
X06238Y03084D01*
X06233Y03062D01*
X06233Y03058D01*
X06232Y03050D01*
X06232Y02800D01*
X06233Y02792D01*
X06233Y02785D01*
X06257Y02521D01*
X06257Y02481D01*
X06251Y02472D01*
X06237Y02400D01*
X06237Y02329D01*
X06000Y02329D01*
X05953Y02310D01*
X05916Y02274D01*
X05896Y02226D01*
X05896Y02175D01*
X05896Y01771D01*
X05764Y01770D01*
X05765Y01944D01*
X05765Y02006D01*
X05764Y02182D01*
X05764Y02217D01*
X05751Y02250D01*
X05726Y02275D01*
X05693Y02289D01*
X05581Y02290D01*
X05559Y02268D01*
X05559Y01984D01*
X05743Y01984D01*
X05765Y02006D01*
X05765Y01944D01*
X05743Y01966D01*
X05609Y01966D01*
X05559Y01966D01*
X05541Y01966D01*
X05541Y01984D01*
X05541Y02268D01*
X05519Y02290D01*
X05415Y02290D01*
X05415Y02860D01*
X05393Y02882D01*
X05084Y02882D01*
X05084Y02748D01*
X05106Y02726D01*
X05307Y02727D01*
X05342Y02727D01*
X05375Y02740D01*
X05400Y02765D01*
X05414Y02798D01*
X05415Y02860D01*
X05415Y02290D01*
X05407Y02289D01*
X05374Y02275D01*
X05349Y02250D01*
X05336Y02217D01*
X05336Y02182D01*
X05335Y02006D01*
X05357Y01984D01*
X05541Y01984D01*
X05541Y01966D01*
X05491Y01966D01*
X05357Y01966D01*
X05335Y01944D01*
X05335Y01771D01*
X05303Y01779D01*
X05303Y02399D01*
X05303Y02500D01*
X05265Y02593D01*
X05194Y02664D01*
X05101Y02703D01*
X05066Y02703D01*
X05066Y02748D01*
X05066Y02882D01*
X04757Y02882D01*
X04735Y02860D01*
X04736Y02798D01*
X04750Y02765D01*
X04775Y02740D01*
X04808Y02727D01*
X04843Y02727D01*
X05044Y02726D01*
X05066Y02748D01*
X05066Y02703D01*
X05000Y02703D01*
X04907Y02665D01*
X04836Y02594D01*
X04797Y02501D01*
X04797Y02400D01*
X04835Y02307D01*
X04906Y02236D01*
X04999Y02197D01*
X05100Y02197D01*
X05193Y02235D01*
X05264Y02306D01*
X05303Y02399D01*
X05303Y01779D01*
X05187Y01808D01*
X04948Y01938D01*
X04515Y02323D01*
X04512Y02326D01*
X04454Y02394D01*
X04454Y02445D01*
X04419Y02529D01*
X04355Y02594D01*
X04271Y02629D01*
X04180Y02629D01*
X04096Y02594D01*
X04031Y02530D01*
X03996Y02446D01*
X03996Y02363D01*
X03848Y02363D01*
X03853Y02374D01*
X03853Y02475D01*
X03815Y02568D01*
X03770Y02613D01*
X04732Y02982D01*
X04733Y02982D01*
X04735Y02979D01*
X04735Y02922D01*
X04757Y02900D01*
X05016Y02900D01*
X05066Y02900D01*
X05084Y02900D01*
X05134Y02900D01*
X05393Y02900D01*
X05415Y02922D01*
X05414Y02979D01*
X05434Y02998D01*
X05454Y03046D01*
X05454Y03097D01*
X05454Y03228D01*
X05529Y03196D01*
X05620Y03196D01*
X05704Y03231D01*
X05769Y03295D01*
X05804Y03379D01*
X05804Y03470D01*
X05769Y03554D01*
X05705Y03619D01*
X05646Y03644D01*
X05597Y03732D01*
X05582Y03749D01*
X05572Y03766D01*
X05559Y03775D01*
X05554Y03781D01*
X05536Y03791D01*
X05518Y03803D01*
X05508Y03806D01*
X05496Y03812D01*
X05471Y03814D01*
X05454Y03818D01*
X05422Y03819D01*
X05399Y03843D01*
X05351Y03863D01*
X05300Y03863D01*
X04800Y03863D01*
X04753Y03844D01*
X04716Y03808D01*
X04696Y03760D01*
X04696Y03709D01*
X04696Y03583D01*
X04669Y03580D01*
X04556Y03545D01*
X04556Y03752D01*
X04513Y03855D01*
X04434Y03934D01*
X04331Y03977D01*
X04272Y03977D01*
X04276Y03986D01*
X04276Y04037D01*
X04276Y04095D01*
X04278Y04099D01*
X04278Y04200D01*
X04276Y04205D01*
X04276Y04277D01*
X04332Y04187D01*
X04345Y04173D01*
X04358Y04155D01*
X04368Y04149D01*
X04377Y04139D01*
X04394Y04132D01*
X04413Y04119D01*
X04521Y04076D01*
X04521Y03975D01*
X04540Y03928D01*
X04576Y03891D01*
X04624Y03871D01*
X04675Y03871D01*
X04925Y03871D01*
X04972Y03890D01*
X05009Y03926D01*
X05029Y03974D01*
X05029Y04025D01*
X05029Y04448D01*
X05070Y04430D01*
X05121Y04430D01*
X05121Y04425D01*
X05121Y03975D01*
X05140Y03928D01*
X05176Y03891D01*
X05224Y03871D01*
X05275Y03871D01*
X05525Y03871D01*
X05572Y03890D01*
X05609Y03926D01*
X05629Y03974D01*
X05629Y04025D01*
X05629Y04057D01*
X05650Y04057D01*
X05659Y04059D01*
X05669Y04058D01*
X05697Y04062D01*
X05697Y03975D01*
X05735Y03882D01*
X05806Y03811D01*
X05899Y03772D01*
X05930Y03772D01*
X06243Y03515D01*
X06267Y03503D01*
X06288Y03487D01*
X06304Y03484D01*
X06314Y03478D01*
X06333Y03477D01*
X06367Y03468D01*
X06396Y03467D01*
X06396Y03453D01*
X06396Y03309D01*
X06396Y03309D01*
G37*
G54D46*
X06396Y03309D02*
X06394Y03308D01*
X06387Y03306D01*
X06350Y03282D01*
X06340Y03276D01*
X06338Y03275D01*
X06332Y03270D01*
X06316Y03246D01*
X06299Y03224D01*
X06250Y03125D01*
X06248Y03120D01*
X06245Y03114D01*
X06238Y03084D01*
X06233Y03062D01*
X06233Y03058D01*
X06232Y03050D01*
X06232Y02800D01*
X06233Y02792D01*
X06233Y02785D01*
X06257Y02521D01*
X06257Y02481D01*
X06251Y02472D01*
X06237Y02400D01*
X06237Y02329D01*
X06000Y02329D01*
X05953Y02310D01*
X05916Y02274D01*
X05896Y02226D01*
X05896Y02175D01*
X05896Y01771D01*
X05764Y01770D01*
X05765Y01944D01*
X05765Y02006D01*
X05764Y02182D01*
X05764Y02217D01*
X05751Y02250D01*
X05726Y02275D01*
X05693Y02289D01*
X05581Y02290D01*
X05559Y02268D01*
X05559Y01984D01*
X05743Y01984D01*
X05765Y02006D01*
X05765Y01944D01*
X05743Y01966D01*
X05609Y01966D01*
X05559Y01966D01*
X05541Y01966D01*
X05541Y01984D01*
X05541Y02268D01*
X05519Y02290D01*
X05415Y02290D01*
X05415Y02860D01*
X05393Y02882D01*
X05084Y02882D01*
X05084Y02748D01*
X05106Y02726D01*
X05307Y02727D01*
X05342Y02727D01*
X05375Y02740D01*
X05400Y02765D01*
X05414Y02798D01*
X05415Y02860D01*
X05415Y02290D01*
X05407Y02289D01*
X05374Y02275D01*
X05349Y02250D01*
X05336Y02217D01*
X05336Y02182D01*
X05335Y02006D01*
X05357Y01984D01*
X05541Y01984D01*
X05541Y01966D01*
X05491Y01966D01*
X05357Y01966D01*
X05335Y01944D01*
X05335Y01771D01*
X05303Y01779D01*
X05303Y02399D01*
X05303Y02500D01*
X05265Y02593D01*
X05194Y02664D01*
X05101Y02703D01*
X05066Y02703D01*
X05066Y02748D01*
X05066Y02882D01*
X04757Y02882D01*
X04735Y02860D01*
X04736Y02798D01*
X04750Y02765D01*
X04775Y02740D01*
X04808Y02727D01*
X04843Y02727D01*
X05044Y02726D01*
X05066Y02748D01*
X05066Y02703D01*
X05000Y02703D01*
X04907Y02665D01*
X04836Y02594D01*
X04797Y02501D01*
X04797Y02400D01*
X04835Y02307D01*
X04906Y02236D01*
X04999Y02197D01*
X05100Y02197D01*
X05193Y02235D01*
X05264Y02306D01*
X05303Y02399D01*
X05303Y01779D01*
X05187Y01808D01*
X04948Y01938D01*
X04515Y02323D01*
X04512Y02326D01*
X04454Y02394D01*
X04454Y02445D01*
X04419Y02529D01*
X04355Y02594D01*
X04271Y02629D01*
X04180Y02629D01*
X04096Y02594D01*
X04031Y02530D01*
X03996Y02446D01*
X03996Y02363D01*
X03848Y02363D01*
X03853Y02374D01*
X03853Y02475D01*
X03815Y02568D01*
X03770Y02613D01*
X04732Y02982D01*
X04733Y02982D01*
X04735Y02979D01*
X04735Y02922D01*
X04757Y02900D01*
X05016Y02900D01*
X05066Y02900D01*
X05084Y02900D01*
X05134Y02900D01*
X05393Y02900D01*
X05415Y02922D01*
X05414Y02979D01*
X05434Y02998D01*
X05454Y03046D01*
X05454Y03097D01*
X05454Y03228D01*
X05529Y03196D01*
X05620Y03196D01*
X05704Y03231D01*
X05769Y03295D01*
X05804Y03379D01*
X05804Y03470D01*
X05769Y03554D01*
X05705Y03619D01*
X05646Y03644D01*
X05597Y03732D01*
X05582Y03749D01*
X05572Y03766D01*
X05559Y03775D01*
X05554Y03781D01*
X05536Y03791D01*
X05518Y03803D01*
X05508Y03806D01*
X05496Y03812D01*
X05471Y03814D01*
X05454Y03818D01*
X05422Y03819D01*
X05399Y03843D01*
X05351Y03863D01*
X05300Y03863D01*
X04800Y03863D01*
X04753Y03844D01*
X04716Y03808D01*
X04696Y03760D01*
X04696Y03709D01*
X04696Y03583D01*
X04669Y03580D01*
X04556Y03545D01*
X04556Y03752D01*
X04513Y03855D01*
X04434Y03934D01*
X04331Y03977D01*
X04272Y03977D01*
X04276Y03986D01*
X04276Y04037D01*
X04276Y04095D01*
X04278Y04099D01*
X04278Y04200D01*
X04276Y04205D01*
X04276Y04277D01*
X04332Y04187D01*
X04345Y04173D01*
X04358Y04155D01*
X04368Y04149D01*
X04377Y04139D01*
X04394Y04132D01*
X04413Y04119D01*
X04521Y04076D01*
X04521Y03975D01*
X04540Y03928D01*
X04576Y03891D01*
X04624Y03871D01*
X04675Y03871D01*
X04925Y03871D01*
X04972Y03890D01*
X05009Y03926D01*
X05029Y03974D01*
X05029Y04025D01*
X05029Y04448D01*
X05070Y04430D01*
X05121Y04430D01*
X05121Y04425D01*
X05121Y03975D01*
X05140Y03928D01*
X05176Y03891D01*
X05224Y03871D01*
X05275Y03871D01*
X05525Y03871D01*
X05572Y03890D01*
X05609Y03926D01*
X05629Y03974D01*
X05629Y04025D01*
X05629Y04057D01*
X05650Y04057D01*
X05659Y04059D01*
X05669Y04058D01*
X05697Y04062D01*
X05697Y03975D01*
X05735Y03882D01*
X05806Y03811D01*
X05899Y03772D01*
X05930Y03772D01*
X06243Y03515D01*
X06267Y03503D01*
X06288Y03487D01*
X06304Y03484D01*
X06314Y03478D01*
X06333Y03477D01*
X06367Y03468D01*
X06396Y03467D01*
X06396Y03453D01*
X06396Y03309D01*
G54D10*
G36*
X06639Y08257D02*
X06631Y08249D01*
X06570Y08103D01*
X06570Y07946D01*
X06570Y06348D01*
X06629Y06203D01*
X06626Y06204D01*
X06575Y06204D01*
X06325Y06204D01*
X06278Y06185D01*
X06241Y06149D01*
X06221Y06101D01*
X06221Y06050D01*
X06221Y06037D01*
X06205Y06031D01*
X06186Y06027D01*
X06168Y06016D01*
X06153Y06009D01*
X06064Y05951D01*
X06054Y06137D01*
X06119Y06201D01*
X06180Y06347D01*
X06180Y06504D01*
X06180Y08102D01*
X06120Y08248D01*
X06111Y08257D01*
X06639Y08257D01*
X06639Y08257D01*
G37*
G54D46*
X06639Y08257D02*
X06631Y08249D01*
X06570Y08103D01*
X06570Y07946D01*
X06570Y06348D01*
X06629Y06203D01*
X06626Y06204D01*
X06575Y06204D01*
X06325Y06204D01*
X06278Y06185D01*
X06241Y06149D01*
X06221Y06101D01*
X06221Y06050D01*
X06221Y06037D01*
X06205Y06031D01*
X06186Y06027D01*
X06168Y06016D01*
X06153Y06009D01*
X06064Y05951D01*
X06054Y06137D01*
X06119Y06201D01*
X06180Y06347D01*
X06180Y06504D01*
X06180Y08102D01*
X06120Y08248D01*
X06111Y08257D01*
X06639Y08257D01*
G54D10*
G36*
X08331Y05444D02*
X08305Y05380D01*
X08305Y05318D01*
X08201Y05318D01*
X08177Y05314D01*
X08153Y05311D01*
X08144Y05307D01*
X08137Y05305D01*
X08117Y05293D01*
X08095Y05281D01*
X08043Y05240D01*
X08182Y05558D01*
X08314Y05682D01*
X08331Y05640D01*
X08305Y05577D01*
X08305Y05507D01*
X08331Y05444D01*
X08331Y05444D01*
G37*
G54D46*
X08331Y05444D02*
X08305Y05380D01*
X08305Y05318D01*
X08201Y05318D01*
X08177Y05314D01*
X08153Y05311D01*
X08144Y05307D01*
X08137Y05305D01*
X08117Y05293D01*
X08095Y05281D01*
X08043Y05240D01*
X08182Y05558D01*
X08314Y05682D01*
X08331Y05640D01*
X08305Y05577D01*
X08305Y05507D01*
X08331Y05444D01*
G54D10*
G36*
X08748Y04352D02*
X08730Y04352D01*
X08680Y04352D01*
X08372Y04352D01*
X08353Y04331D01*
X08359Y04291D01*
X08332Y04263D01*
X08305Y04199D01*
X08305Y04129D01*
X08331Y04066D01*
X08305Y04002D01*
X08305Y03932D01*
X08331Y03869D01*
X08305Y03805D01*
X08305Y03735D01*
X08331Y03672D01*
X08309Y03619D01*
X08229Y03655D01*
X08229Y03750D01*
X08210Y03797D01*
X08174Y03834D01*
X08128Y03853D01*
X08129Y03854D01*
X08129Y03945D01*
X08094Y04029D01*
X08030Y04094D01*
X07967Y04120D01*
X07998Y04129D01*
X08009Y04132D01*
X08009Y04133D01*
X08015Y04134D01*
X08056Y04170D01*
X08067Y04177D01*
X08069Y04180D01*
X08071Y04181D01*
X08071Y04183D01*
X08324Y04475D01*
X08332Y04458D01*
X08359Y04431D01*
X08353Y04391D01*
X08372Y04370D01*
X08680Y04370D01*
X08730Y04370D01*
X08748Y04370D01*
X08748Y04352D01*
X08748Y04352D01*
G37*
G54D46*
X08748Y04352D02*
X08730Y04352D01*
X08680Y04352D01*
X08372Y04352D01*
X08353Y04331D01*
X08359Y04291D01*
X08332Y04263D01*
X08305Y04199D01*
X08305Y04129D01*
X08331Y04066D01*
X08305Y04002D01*
X08305Y03932D01*
X08331Y03869D01*
X08305Y03805D01*
X08305Y03735D01*
X08331Y03672D01*
X08309Y03619D01*
X08229Y03655D01*
X08229Y03750D01*
X08210Y03797D01*
X08174Y03834D01*
X08128Y03853D01*
X08129Y03854D01*
X08129Y03945D01*
X08094Y04029D01*
X08030Y04094D01*
X07967Y04120D01*
X07998Y04129D01*
X08009Y04132D01*
X08009Y04133D01*
X08015Y04134D01*
X08056Y04170D01*
X08067Y04177D01*
X08069Y04180D01*
X08071Y04181D01*
X08071Y04183D01*
X08324Y04475D01*
X08332Y04458D01*
X08359Y04431D01*
X08353Y04391D01*
X08372Y04370D01*
X08680Y04370D01*
X08730Y04370D01*
X08748Y04370D01*
X08748Y04352D01*
G54D10*
G36*
X08768Y07530D02*
X08730Y07569D01*
X08646Y07604D01*
X08555Y07604D01*
X08471Y07569D01*
X08406Y07505D01*
X08371Y07421D01*
X08371Y07330D01*
X08406Y07246D01*
X08421Y07231D01*
X08420Y07230D01*
X08095Y07130D01*
X08068Y07116D01*
X08049Y07108D01*
X07864Y06990D01*
X07846Y07078D01*
X07788Y07163D01*
X07863Y07163D01*
X07904Y07146D01*
X07995Y07146D01*
X08035Y07163D01*
X08037Y07163D01*
X08079Y07181D01*
X08133Y07203D01*
X08207Y07277D01*
X08247Y07373D01*
X08247Y07477D01*
X08207Y07573D01*
X08133Y07647D01*
X08037Y07687D01*
X07933Y07687D01*
X07563Y07687D01*
X07467Y07647D01*
X07393Y07573D01*
X07362Y07499D01*
X07362Y08071D01*
X07627Y08014D01*
X07639Y08011D01*
X07663Y08011D01*
X07692Y08008D01*
X07704Y08010D01*
X08191Y08058D01*
X08200Y08061D01*
X08208Y08061D01*
X08229Y08070D01*
X08244Y08075D01*
X08256Y08046D01*
X08320Y07981D01*
X08404Y07946D01*
X08421Y07946D01*
X08768Y07530D01*
X08768Y07530D01*
G37*
G54D46*
X08768Y07530D02*
X08730Y07569D01*
X08646Y07604D01*
X08555Y07604D01*
X08471Y07569D01*
X08406Y07505D01*
X08371Y07421D01*
X08371Y07330D01*
X08406Y07246D01*
X08421Y07231D01*
X08420Y07230D01*
X08095Y07130D01*
X08068Y07116D01*
X08049Y07108D01*
X07864Y06990D01*
X07846Y07078D01*
X07788Y07163D01*
X07863Y07163D01*
X07904Y07146D01*
X07995Y07146D01*
X08035Y07163D01*
X08037Y07163D01*
X08079Y07181D01*
X08133Y07203D01*
X08207Y07277D01*
X08247Y07373D01*
X08247Y07477D01*
X08207Y07573D01*
X08133Y07647D01*
X08037Y07687D01*
X07933Y07687D01*
X07563Y07687D01*
X07467Y07647D01*
X07393Y07573D01*
X07362Y07499D01*
X07362Y08071D01*
X07627Y08014D01*
X07639Y08011D01*
X07663Y08011D01*
X07692Y08008D01*
X07704Y08010D01*
X08191Y08058D01*
X08200Y08061D01*
X08208Y08061D01*
X08229Y08070D01*
X08244Y08075D01*
X08256Y08046D01*
X08320Y07981D01*
X08404Y07946D01*
X08421Y07946D01*
X08768Y07530D01*
G54D10*
G36*
X10331Y07795D02*
X10329Y07795D01*
X10265Y07769D01*
X10202Y07795D01*
X10132Y07795D01*
X10068Y07769D01*
X10005Y07795D01*
X09935Y07795D01*
X09871Y07768D01*
X09843Y07741D01*
X09804Y07747D01*
X09783Y07728D01*
X09783Y07420D01*
X09783Y07370D01*
X09783Y07352D01*
X09765Y07352D01*
X09765Y07361D01*
X09765Y07370D01*
X09765Y07420D01*
X09765Y07728D01*
X09765Y07748D01*
X09751Y07820D01*
X09716Y07872D01*
X10213Y07927D01*
X10293Y07882D01*
X10331Y07795D01*
X10331Y07795D01*
G37*
G54D46*
X10331Y07795D02*
X10329Y07795D01*
X10265Y07769D01*
X10202Y07795D01*
X10132Y07795D01*
X10068Y07769D01*
X10005Y07795D01*
X09935Y07795D01*
X09871Y07768D01*
X09843Y07741D01*
X09804Y07747D01*
X09783Y07728D01*
X09783Y07420D01*
X09783Y07370D01*
X09783Y07352D01*
X09765Y07352D01*
X09765Y07361D01*
X09765Y07370D01*
X09765Y07420D01*
X09765Y07728D01*
X09765Y07748D01*
X09751Y07820D01*
X09716Y07872D01*
X10213Y07927D01*
X10293Y07882D01*
X10331Y07795D01*
G54D10*
G36*
X10526Y03442D02*
X10457Y03316D01*
X10455Y03319D01*
X10371Y03354D01*
X10280Y03354D01*
X10196Y03319D01*
X10131Y03255D01*
X10096Y03171D01*
X10096Y03095D01*
X10066Y03083D01*
X10003Y03109D01*
X09933Y03109D01*
X09869Y03082D01*
X09841Y03055D01*
X09801Y03061D01*
X09780Y03042D01*
X09780Y02734D01*
X09780Y02684D01*
X09780Y02666D01*
X09780Y02616D01*
X09780Y02308D01*
X09801Y02289D01*
X09823Y02293D01*
X09834Y02277D01*
X09849Y02251D01*
X10122Y01946D01*
X10122Y01850D01*
X10148Y01785D01*
X09103Y01782D01*
X09114Y01808D01*
X09114Y01843D01*
X09115Y02019D01*
X09093Y02041D01*
X08959Y02041D01*
X08909Y02041D01*
X08891Y02041D01*
X08841Y02041D01*
X08707Y02041D01*
X08685Y02019D01*
X08686Y01843D01*
X08686Y01808D01*
X08697Y01780D01*
X08545Y01780D01*
X08554Y01799D01*
X08554Y01850D01*
X08554Y02300D01*
X08543Y02325D01*
X08554Y02349D01*
X08554Y02400D01*
X08554Y02807D01*
X08646Y02807D01*
X08646Y02800D01*
X08646Y02350D01*
X08665Y02303D01*
X08686Y02282D01*
X08686Y02257D01*
X08685Y02081D01*
X08707Y02059D01*
X08841Y02059D01*
X08891Y02059D01*
X08909Y02059D01*
X08959Y02059D01*
X09093Y02059D01*
X09115Y02081D01*
X09114Y02257D01*
X09114Y02282D01*
X09134Y02301D01*
X09153Y02347D01*
X09250Y02347D01*
X09343Y02385D01*
X09399Y02441D01*
X09399Y02381D01*
X09426Y02317D01*
X09475Y02268D01*
X09539Y02241D01*
X09609Y02241D01*
X09673Y02268D01*
X09700Y02296D01*
X09741Y02289D01*
X09762Y02308D01*
X09762Y02616D01*
X09762Y02666D01*
X09762Y02684D01*
X09762Y02734D01*
X09762Y03042D01*
X09741Y03061D01*
X09700Y03055D01*
X09676Y03079D01*
X09694Y03095D01*
X09729Y03179D01*
X09729Y03257D01*
X09850Y03257D01*
X09873Y03262D01*
X09894Y03263D01*
X10169Y03338D01*
X10177Y03343D01*
X10190Y03345D01*
X10521Y03485D01*
X10521Y03455D01*
X10526Y03442D01*
X10526Y03442D01*
G37*
G54D46*
X10526Y03442D02*
X10457Y03316D01*
X10455Y03319D01*
X10371Y03354D01*
X10280Y03354D01*
X10196Y03319D01*
X10131Y03255D01*
X10096Y03171D01*
X10096Y03095D01*
X10066Y03083D01*
X10003Y03109D01*
X09933Y03109D01*
X09869Y03082D01*
X09841Y03055D01*
X09801Y03061D01*
X09780Y03042D01*
X09780Y02734D01*
X09780Y02684D01*
X09780Y02666D01*
X09780Y02616D01*
X09780Y02308D01*
X09801Y02289D01*
X09823Y02293D01*
X09834Y02277D01*
X09849Y02251D01*
X10122Y01946D01*
X10122Y01850D01*
X10148Y01785D01*
X09103Y01782D01*
X09114Y01808D01*
X09114Y01843D01*
X09115Y02019D01*
X09093Y02041D01*
X08959Y02041D01*
X08909Y02041D01*
X08891Y02041D01*
X08841Y02041D01*
X08707Y02041D01*
X08685Y02019D01*
X08686Y01843D01*
X08686Y01808D01*
X08697Y01780D01*
X08545Y01780D01*
X08554Y01799D01*
X08554Y01850D01*
X08554Y02300D01*
X08543Y02325D01*
X08554Y02349D01*
X08554Y02400D01*
X08554Y02807D01*
X08646Y02807D01*
X08646Y02800D01*
X08646Y02350D01*
X08665Y02303D01*
X08686Y02282D01*
X08686Y02257D01*
X08685Y02081D01*
X08707Y02059D01*
X08841Y02059D01*
X08891Y02059D01*
X08909Y02059D01*
X08959Y02059D01*
X09093Y02059D01*
X09115Y02081D01*
X09114Y02257D01*
X09114Y02282D01*
X09134Y02301D01*
X09153Y02347D01*
X09250Y02347D01*
X09343Y02385D01*
X09399Y02441D01*
X09399Y02381D01*
X09426Y02317D01*
X09475Y02268D01*
X09539Y02241D01*
X09609Y02241D01*
X09673Y02268D01*
X09700Y02296D01*
X09741Y02289D01*
X09762Y02308D01*
X09762Y02616D01*
X09762Y02666D01*
X09762Y02684D01*
X09762Y02734D01*
X09762Y03042D01*
X09741Y03061D01*
X09700Y03055D01*
X09676Y03079D01*
X09694Y03095D01*
X09729Y03179D01*
X09729Y03257D01*
X09850Y03257D01*
X09873Y03262D01*
X09894Y03263D01*
X10169Y03338D01*
X10177Y03343D01*
X10190Y03345D01*
X10521Y03485D01*
X10521Y03455D01*
X10526Y03442D01*
G54D10*
G36*
X10798Y04111D02*
X10525Y04011D01*
X10293Y03947D01*
X10343Y04006D01*
X10470Y04115D01*
X10602Y04131D01*
X10798Y04111D01*
X10798Y04111D01*
G37*
G54D46*
X10798Y04111D02*
X10525Y04011D01*
X10293Y03947D01*
X10343Y04006D01*
X10470Y04115D01*
X10602Y04131D01*
X10798Y04111D01*
G54D10*
G36*
X11014Y05973D02*
X10298Y05711D01*
X10104Y05663D01*
X10104Y05695D01*
X10069Y05779D01*
X10005Y05844D01*
X09921Y05879D01*
X09875Y05879D01*
X09438Y06287D01*
X10448Y05964D01*
X10491Y05960D01*
X10505Y05957D01*
X10511Y05958D01*
X10513Y05957D01*
X10513Y05958D01*
X11014Y05973D01*
X11014Y05973D01*
G37*
G54D46*
X11014Y05973D02*
X10298Y05711D01*
X10104Y05663D01*
X10104Y05695D01*
X10069Y05779D01*
X10005Y05844D01*
X09921Y05879D01*
X09875Y05879D01*
X09438Y06287D01*
X10448Y05964D01*
X10491Y05960D01*
X10505Y05957D01*
X10511Y05958D01*
X10513Y05957D01*
X10513Y05958D01*
X11014Y05973D01*
G54D10*
G36*
X12104Y03546D02*
X11853Y03174D01*
X11852Y03175D01*
X11804Y03219D01*
X11804Y03245D01*
X11769Y03329D01*
X11705Y03394D01*
X11621Y03429D01*
X11530Y03429D01*
X11446Y03394D01*
X11381Y03330D01*
X11346Y03246D01*
X11346Y03155D01*
X11365Y03109D01*
X11311Y03109D01*
X11247Y03083D01*
X11184Y03109D01*
X11114Y03109D01*
X11050Y03083D01*
X11012Y03099D01*
X11294Y03496D01*
X11295Y03496D01*
X11379Y03531D01*
X11444Y03595D01*
X11479Y03679D01*
X11479Y03691D01*
X11486Y03690D01*
X11505Y03683D01*
X11974Y03628D01*
X12020Y03581D01*
X12104Y03546D01*
X12104Y03546D01*
G37*
G54D46*
X12104Y03546D02*
X11853Y03174D01*
X11852Y03175D01*
X11804Y03219D01*
X11804Y03245D01*
X11769Y03329D01*
X11705Y03394D01*
X11621Y03429D01*
X11530Y03429D01*
X11446Y03394D01*
X11381Y03330D01*
X11346Y03246D01*
X11346Y03155D01*
X11365Y03109D01*
X11311Y03109D01*
X11247Y03083D01*
X11184Y03109D01*
X11114Y03109D01*
X11050Y03083D01*
X11012Y03099D01*
X11294Y03496D01*
X11295Y03496D01*
X11379Y03531D01*
X11444Y03595D01*
X11479Y03679D01*
X11479Y03691D01*
X11486Y03690D01*
X11505Y03683D01*
X11974Y03628D01*
X12020Y03581D01*
X12104Y03546D01*
G54D10*
G36*
X15159Y07821D02*
X15133Y07795D01*
X15131Y07793D01*
X15124Y07787D01*
X14524Y07112D01*
X14516Y07099D01*
X14503Y07083D01*
X14157Y06477D01*
X14140Y06518D01*
X14069Y06589D01*
X13976Y06628D01*
X13875Y06628D01*
X13837Y06613D01*
X13832Y06625D01*
X13783Y06674D01*
X13719Y06701D01*
X13649Y06701D01*
X13297Y06701D01*
X13328Y06774D01*
X13328Y06875D01*
X13290Y06968D01*
X13275Y06983D01*
X14286Y07656D01*
X14292Y07660D01*
X14305Y07674D01*
X14334Y07699D01*
X14338Y07706D01*
X14546Y07981D01*
X14546Y07925D01*
X14565Y07878D01*
X14601Y07841D01*
X14649Y07821D01*
X14700Y07821D01*
X15159Y07821D01*
X15159Y07821D01*
G37*
G54D46*
X15159Y07821D02*
X15133Y07795D01*
X15131Y07793D01*
X15124Y07787D01*
X14524Y07112D01*
X14516Y07099D01*
X14503Y07083D01*
X14157Y06477D01*
X14140Y06518D01*
X14069Y06589D01*
X13976Y06628D01*
X13875Y06628D01*
X13837Y06613D01*
X13832Y06625D01*
X13783Y06674D01*
X13719Y06701D01*
X13649Y06701D01*
X13297Y06701D01*
X13328Y06774D01*
X13328Y06875D01*
X13290Y06968D01*
X13275Y06983D01*
X14286Y07656D01*
X14292Y07660D01*
X14305Y07674D01*
X14334Y07699D01*
X14338Y07706D01*
X14546Y07981D01*
X14546Y07925D01*
X14565Y07878D01*
X14601Y07841D01*
X14649Y07821D01*
X14700Y07821D01*
X15159Y07821D01*
G54D10*
G36*
X15704Y04003D02*
X15658Y04003D01*
X15641Y04009D01*
X15639Y04010D01*
X15622Y04015D01*
X15594Y04019D01*
X15555Y04027D01*
X15312Y04033D01*
X15294Y04040D01*
X15243Y04040D01*
X14793Y04040D01*
X14746Y04021D01*
X14709Y03985D01*
X14689Y03937D01*
X14689Y03886D01*
X14689Y03780D01*
X14625Y03793D01*
X14295Y03793D01*
X14268Y03820D01*
X14319Y03870D01*
X14342Y03928D01*
X14716Y04131D01*
X14744Y04102D01*
X14792Y04082D01*
X14843Y04082D01*
X15293Y04082D01*
X15340Y04101D01*
X15377Y04137D01*
X15397Y04185D01*
X15397Y04236D01*
X15397Y04436D01*
X15378Y04483D01*
X15342Y04520D01*
X15294Y04540D01*
X15243Y04540D01*
X14793Y04540D01*
X14746Y04521D01*
X14709Y04485D01*
X14702Y04469D01*
X14670Y04468D01*
X14660Y04466D01*
X14657Y04466D01*
X14641Y04462D01*
X14606Y04453D01*
X14600Y04449D01*
X14594Y04447D01*
X14183Y04224D01*
X14171Y04229D01*
X14080Y04229D01*
X14038Y04212D01*
X14038Y04830D01*
X14025Y04894D01*
X13989Y04949D01*
X13988Y04950D01*
X14219Y04887D01*
X14231Y04883D01*
X14261Y04882D01*
X14271Y04880D01*
X14271Y04855D01*
X14306Y04771D01*
X14370Y04706D01*
X14454Y04671D01*
X14545Y04671D01*
X14574Y04684D01*
X14631Y04658D01*
X14633Y04658D01*
X14636Y04656D01*
X14694Y04645D01*
X14695Y04644D01*
X14700Y04643D01*
X14706Y04643D01*
X14708Y04639D01*
X14744Y04602D01*
X14792Y04582D01*
X14843Y04582D01*
X15293Y04582D01*
X15340Y04601D01*
X15377Y04637D01*
X15397Y04685D01*
X15397Y04736D01*
X15397Y04850D01*
X15567Y04583D01*
X15704Y04003D01*
X15704Y04003D01*
G37*
G54D46*
X15704Y04003D02*
X15658Y04003D01*
X15641Y04009D01*
X15639Y04010D01*
X15622Y04015D01*
X15594Y04019D01*
X15555Y04027D01*
X15312Y04033D01*
X15294Y04040D01*
X15243Y04040D01*
X14793Y04040D01*
X14746Y04021D01*
X14709Y03985D01*
X14689Y03937D01*
X14689Y03886D01*
X14689Y03780D01*
X14625Y03793D01*
X14295Y03793D01*
X14268Y03820D01*
X14319Y03870D01*
X14342Y03928D01*
X14716Y04131D01*
X14744Y04102D01*
X14792Y04082D01*
X14843Y04082D01*
X15293Y04082D01*
X15340Y04101D01*
X15377Y04137D01*
X15397Y04185D01*
X15397Y04236D01*
X15397Y04436D01*
X15378Y04483D01*
X15342Y04520D01*
X15294Y04540D01*
X15243Y04540D01*
X14793Y04540D01*
X14746Y04521D01*
X14709Y04485D01*
X14702Y04469D01*
X14670Y04468D01*
X14660Y04466D01*
X14657Y04466D01*
X14641Y04462D01*
X14606Y04453D01*
X14600Y04449D01*
X14594Y04447D01*
X14183Y04224D01*
X14171Y04229D01*
X14080Y04229D01*
X14038Y04212D01*
X14038Y04830D01*
X14025Y04894D01*
X13989Y04949D01*
X13988Y04950D01*
X14219Y04887D01*
X14231Y04883D01*
X14261Y04882D01*
X14271Y04880D01*
X14271Y04855D01*
X14306Y04771D01*
X14370Y04706D01*
X14454Y04671D01*
X14545Y04671D01*
X14574Y04684D01*
X14631Y04658D01*
X14633Y04658D01*
X14636Y04656D01*
X14694Y04645D01*
X14695Y04644D01*
X14700Y04643D01*
X14706Y04643D01*
X14708Y04639D01*
X14744Y04602D01*
X14792Y04582D01*
X14843Y04582D01*
X15293Y04582D01*
X15340Y04601D01*
X15377Y04637D01*
X15397Y04685D01*
X15397Y04736D01*
X15397Y04850D01*
X15567Y04583D01*
X15704Y04003D01*
G54D10*
G36*
X16030Y00982D02*
X15999Y00908D01*
X15943Y01045D01*
X15796Y01192D01*
X15605Y01272D01*
X15397Y01272D01*
X15367Y01260D01*
X15367Y02119D01*
X15367Y02181D01*
X15366Y02289D01*
X15366Y02324D01*
X15358Y02345D01*
X15358Y03280D01*
X15336Y03302D01*
X15052Y03302D01*
X15052Y03143D01*
X15074Y03121D01*
X15250Y03122D01*
X15285Y03122D01*
X15318Y03135D01*
X15343Y03160D01*
X15357Y03193D01*
X15358Y03280D01*
X15358Y02345D01*
X15353Y02357D01*
X15328Y02382D01*
X15295Y02396D01*
X15151Y02397D01*
X15129Y02375D01*
X15129Y02159D01*
X15345Y02159D01*
X15367Y02181D01*
X15367Y02119D01*
X15345Y02141D01*
X15129Y02141D01*
X15129Y01925D01*
X15151Y01903D01*
X15295Y01904D01*
X15328Y01918D01*
X15353Y01943D01*
X15366Y01976D01*
X15366Y02011D01*
X15367Y02119D01*
X15367Y01260D01*
X15205Y01193D01*
X15191Y01180D01*
X15111Y01238D01*
X15111Y01925D01*
X15111Y02141D01*
X15111Y02159D01*
X15111Y02375D01*
X15089Y02397D01*
X15034Y02397D01*
X15034Y03143D01*
X15034Y03302D01*
X14750Y03302D01*
X14728Y03280D01*
X14729Y03193D01*
X14743Y03160D01*
X14768Y03135D01*
X14801Y03122D01*
X14836Y03122D01*
X15012Y03121D01*
X15034Y03143D01*
X15034Y02397D01*
X14945Y02396D01*
X14912Y02382D01*
X14887Y02357D01*
X14874Y02324D01*
X14874Y02289D01*
X14873Y02181D01*
X14895Y02159D01*
X15111Y02159D01*
X15111Y02141D01*
X14895Y02141D01*
X14873Y02119D01*
X14874Y02011D01*
X14874Y01976D01*
X14887Y01943D01*
X14912Y01918D01*
X14945Y01904D01*
X15089Y01903D01*
X15111Y01925D01*
X15111Y01238D01*
X14724Y01516D01*
X14712Y01522D01*
X14698Y01532D01*
X14245Y01748D01*
X14236Y01751D01*
X14230Y01754D01*
X13738Y01932D01*
X13712Y01937D01*
X13694Y01941D01*
X12995Y01996D01*
X13028Y02074D01*
X13028Y02093D01*
X13173Y02028D01*
X13176Y02028D01*
X13178Y02026D01*
X13206Y02021D01*
X13244Y02012D01*
X13247Y02013D01*
X13250Y02012D01*
X13450Y02012D01*
X13522Y02026D01*
X13583Y02067D01*
X13683Y02167D01*
X13702Y02196D01*
X13800Y02196D01*
X13847Y02215D01*
X13884Y02251D01*
X13904Y02299D01*
X13904Y02350D01*
X13904Y02496D01*
X13925Y02496D01*
X13957Y02496D01*
X13957Y02350D01*
X13970Y02286D01*
X14006Y02231D01*
X14204Y02034D01*
X14206Y02031D01*
X14244Y02007D01*
X14244Y01968D01*
X14263Y01921D01*
X14299Y01884D01*
X14347Y01864D01*
X14398Y01864D01*
X14712Y01864D01*
X14759Y01883D01*
X14796Y01919D01*
X14816Y01967D01*
X14816Y02018D01*
X14816Y02332D01*
X14797Y02379D01*
X14761Y02416D01*
X14713Y02436D01*
X14662Y02436D01*
X14348Y02436D01*
X14301Y02417D01*
X14298Y02415D01*
X14293Y02420D01*
X14293Y02496D01*
X14375Y02496D01*
X14422Y02515D01*
X14459Y02551D01*
X14479Y02599D01*
X14479Y02650D01*
X14479Y02900D01*
X14460Y02947D01*
X14424Y02984D01*
X14376Y03004D01*
X14325Y03004D01*
X13875Y03004D01*
X13864Y03000D01*
X13865Y03019D01*
X13843Y03041D01*
X13559Y03041D01*
X13559Y02857D01*
X13581Y02835D01*
X13757Y02836D01*
X13771Y02836D01*
X13771Y02704D01*
X13750Y02704D01*
X13541Y02704D01*
X13541Y02857D01*
X13541Y03041D01*
X13541Y03059D01*
X13541Y03243D01*
X13519Y03265D01*
X13343Y03264D01*
X13308Y03264D01*
X13275Y03251D01*
X13250Y03226D01*
X13236Y03193D01*
X13235Y03081D01*
X13257Y03059D01*
X13541Y03059D01*
X13541Y03041D01*
X13257Y03041D01*
X13235Y03019D01*
X13236Y02907D01*
X13250Y02874D01*
X13275Y02849D01*
X13308Y02836D01*
X13343Y02836D01*
X13519Y02835D01*
X13541Y02857D01*
X13541Y02704D01*
X13300Y02704D01*
X13253Y02685D01*
X13216Y02649D01*
X13196Y02601D01*
X13196Y02550D01*
X13196Y02430D01*
X12988Y02523D01*
X12988Y02900D01*
X12984Y02921D01*
X12982Y02950D01*
X12976Y02962D01*
X12974Y02972D01*
X12959Y02994D01*
X12948Y03016D01*
X12773Y03240D01*
X12765Y03247D01*
X12758Y03258D01*
X12736Y03273D01*
X12718Y03289D01*
X12706Y03293D01*
X12697Y03299D01*
X12673Y03304D01*
X12648Y03312D01*
X12634Y03312D01*
X12625Y03313D01*
X12604Y03313D01*
X12604Y03370D01*
X12580Y03427D01*
X12720Y03407D01*
X12770Y03356D01*
X12854Y03321D01*
X12945Y03321D01*
X13029Y03356D01*
X13089Y03416D01*
X13131Y03398D01*
X13201Y03398D01*
X13719Y03398D01*
X13735Y03405D01*
X13771Y03405D01*
X13771Y03264D01*
X13757Y03264D01*
X13581Y03265D01*
X13559Y03243D01*
X13559Y03059D01*
X13843Y03059D01*
X13865Y03081D01*
X13864Y03100D01*
X13874Y03096D01*
X13925Y03096D01*
X14375Y03096D01*
X14422Y03115D01*
X14459Y03151D01*
X14479Y03199D01*
X14479Y03250D01*
X14479Y03457D01*
X14555Y03457D01*
X14581Y03431D01*
X14636Y03395D01*
X14700Y03382D01*
X14728Y03382D01*
X14728Y03342D01*
X14750Y03320D01*
X14984Y03320D01*
X15034Y03320D01*
X15052Y03320D01*
X15102Y03320D01*
X15336Y03320D01*
X15358Y03342D01*
X15510Y02863D01*
X15734Y01498D01*
X15741Y01479D01*
X15747Y01455D01*
X15897Y01130D01*
X15912Y01110D01*
X15931Y01081D01*
X16030Y00982D01*
X16030Y00982D01*
G37*
G54D46*
X16030Y00982D02*
X15999Y00908D01*
X15943Y01045D01*
X15796Y01192D01*
X15605Y01272D01*
X15397Y01272D01*
X15367Y01260D01*
X15367Y02119D01*
X15367Y02181D01*
X15366Y02289D01*
X15366Y02324D01*
X15358Y02345D01*
X15358Y03280D01*
X15336Y03302D01*
X15052Y03302D01*
X15052Y03143D01*
X15074Y03121D01*
X15250Y03122D01*
X15285Y03122D01*
X15318Y03135D01*
X15343Y03160D01*
X15357Y03193D01*
X15358Y03280D01*
X15358Y02345D01*
X15353Y02357D01*
X15328Y02382D01*
X15295Y02396D01*
X15151Y02397D01*
X15129Y02375D01*
X15129Y02159D01*
X15345Y02159D01*
X15367Y02181D01*
X15367Y02119D01*
X15345Y02141D01*
X15129Y02141D01*
X15129Y01925D01*
X15151Y01903D01*
X15295Y01904D01*
X15328Y01918D01*
X15353Y01943D01*
X15366Y01976D01*
X15366Y02011D01*
X15367Y02119D01*
X15367Y01260D01*
X15205Y01193D01*
X15191Y01180D01*
X15111Y01238D01*
X15111Y01925D01*
X15111Y02141D01*
X15111Y02159D01*
X15111Y02375D01*
X15089Y02397D01*
X15034Y02397D01*
X15034Y03143D01*
X15034Y03302D01*
X14750Y03302D01*
X14728Y03280D01*
X14729Y03193D01*
X14743Y03160D01*
X14768Y03135D01*
X14801Y03122D01*
X14836Y03122D01*
X15012Y03121D01*
X15034Y03143D01*
X15034Y02397D01*
X14945Y02396D01*
X14912Y02382D01*
X14887Y02357D01*
X14874Y02324D01*
X14874Y02289D01*
X14873Y02181D01*
X14895Y02159D01*
X15111Y02159D01*
X15111Y02141D01*
X14895Y02141D01*
X14873Y02119D01*
X14874Y02011D01*
X14874Y01976D01*
X14887Y01943D01*
X14912Y01918D01*
X14945Y01904D01*
X15089Y01903D01*
X15111Y01925D01*
X15111Y01238D01*
X14724Y01516D01*
X14712Y01522D01*
X14698Y01532D01*
X14245Y01748D01*
X14236Y01751D01*
X14230Y01754D01*
X13738Y01932D01*
X13712Y01937D01*
X13694Y01941D01*
X12995Y01996D01*
X13028Y02074D01*
X13028Y02093D01*
X13173Y02028D01*
X13176Y02028D01*
X13178Y02026D01*
X13206Y02021D01*
X13244Y02012D01*
X13247Y02013D01*
X13250Y02012D01*
X13450Y02012D01*
X13522Y02026D01*
X13583Y02067D01*
X13683Y02167D01*
X13702Y02196D01*
X13800Y02196D01*
X13847Y02215D01*
X13884Y02251D01*
X13904Y02299D01*
X13904Y02350D01*
X13904Y02496D01*
X13925Y02496D01*
X13957Y02496D01*
X13957Y02350D01*
X13970Y02286D01*
X14006Y02231D01*
X14204Y02034D01*
X14206Y02031D01*
X14244Y02007D01*
X14244Y01968D01*
X14263Y01921D01*
X14299Y01884D01*
X14347Y01864D01*
X14398Y01864D01*
X14712Y01864D01*
X14759Y01883D01*
X14796Y01919D01*
X14816Y01967D01*
X14816Y02018D01*
X14816Y02332D01*
X14797Y02379D01*
X14761Y02416D01*
X14713Y02436D01*
X14662Y02436D01*
X14348Y02436D01*
X14301Y02417D01*
X14298Y02415D01*
X14293Y02420D01*
X14293Y02496D01*
X14375Y02496D01*
X14422Y02515D01*
X14459Y02551D01*
X14479Y02599D01*
X14479Y02650D01*
X14479Y02900D01*
X14460Y02947D01*
X14424Y02984D01*
X14376Y03004D01*
X14325Y03004D01*
X13875Y03004D01*
X13864Y03000D01*
X13865Y03019D01*
X13843Y03041D01*
X13559Y03041D01*
X13559Y02857D01*
X13581Y02835D01*
X13757Y02836D01*
X13771Y02836D01*
X13771Y02704D01*
X13750Y02704D01*
X13541Y02704D01*
X13541Y02857D01*
X13541Y03041D01*
X13541Y03059D01*
X13541Y03243D01*
X13519Y03265D01*
X13343Y03264D01*
X13308Y03264D01*
X13275Y03251D01*
X13250Y03226D01*
X13236Y03193D01*
X13235Y03081D01*
X13257Y03059D01*
X13541Y03059D01*
X13541Y03041D01*
X13257Y03041D01*
X13235Y03019D01*
X13236Y02907D01*
X13250Y02874D01*
X13275Y02849D01*
X13308Y02836D01*
X13343Y02836D01*
X13519Y02835D01*
X13541Y02857D01*
X13541Y02704D01*
X13300Y02704D01*
X13253Y02685D01*
X13216Y02649D01*
X13196Y02601D01*
X13196Y02550D01*
X13196Y02430D01*
X12988Y02523D01*
X12988Y02900D01*
X12984Y02921D01*
X12982Y02950D01*
X12976Y02962D01*
X12974Y02972D01*
X12959Y02994D01*
X12948Y03016D01*
X12773Y03240D01*
X12765Y03247D01*
X12758Y03258D01*
X12736Y03273D01*
X12718Y03289D01*
X12706Y03293D01*
X12697Y03299D01*
X12673Y03304D01*
X12648Y03312D01*
X12634Y03312D01*
X12625Y03313D01*
X12604Y03313D01*
X12604Y03370D01*
X12580Y03427D01*
X12720Y03407D01*
X12770Y03356D01*
X12854Y03321D01*
X12945Y03321D01*
X13029Y03356D01*
X13089Y03416D01*
X13131Y03398D01*
X13201Y03398D01*
X13719Y03398D01*
X13735Y03405D01*
X13771Y03405D01*
X13771Y03264D01*
X13757Y03264D01*
X13581Y03265D01*
X13559Y03243D01*
X13559Y03059D01*
X13843Y03059D01*
X13865Y03081D01*
X13864Y03100D01*
X13874Y03096D01*
X13925Y03096D01*
X14375Y03096D01*
X14422Y03115D01*
X14459Y03151D01*
X14479Y03199D01*
X14479Y03250D01*
X14479Y03457D01*
X14555Y03457D01*
X14581Y03431D01*
X14636Y03395D01*
X14700Y03382D01*
X14728Y03382D01*
X14728Y03342D01*
X14750Y03320D01*
X14984Y03320D01*
X15034Y03320D01*
X15052Y03320D01*
X15102Y03320D01*
X15336Y03320D01*
X15358Y03342D01*
X15510Y02863D01*
X15734Y01498D01*
X15741Y01479D01*
X15747Y01455D01*
X15897Y01130D01*
X15912Y01110D01*
X15931Y01081D01*
X16030Y00982D01*
G54D10*
G36*
X19850Y08800D02*
X16979Y08800D01*
X15950Y07771D01*
X15950Y04428D01*
X15890Y04680D01*
X15889Y04688D01*
X15875Y04718D01*
X15866Y04741D01*
X15861Y04748D01*
X15641Y05091D01*
X15630Y05102D01*
X15626Y05110D01*
X15613Y05121D01*
X15596Y05138D01*
X15583Y05144D01*
X15575Y05150D01*
X15425Y05225D01*
X15418Y05227D01*
X15410Y05232D01*
X15397Y05235D01*
X15397Y05236D01*
X15397Y05436D01*
X15397Y05685D01*
X15397Y05736D01*
X15397Y05936D01*
X15378Y05983D01*
X15358Y06004D01*
X15358Y06280D01*
X15358Y06342D01*
X15357Y06429D01*
X15343Y06462D01*
X15318Y06487D01*
X15285Y06500D01*
X15250Y06500D01*
X15074Y06501D01*
X15052Y06479D01*
X15052Y06320D01*
X15336Y06320D01*
X15358Y06342D01*
X15358Y06280D01*
X15336Y06302D01*
X15052Y06302D01*
X15052Y06143D01*
X15074Y06121D01*
X15250Y06122D01*
X15285Y06122D01*
X15318Y06135D01*
X15343Y06160D01*
X15357Y06193D01*
X15358Y06280D01*
X15358Y06004D01*
X15342Y06020D01*
X15294Y06040D01*
X15243Y06040D01*
X15034Y06040D01*
X15034Y06143D01*
X15034Y06302D01*
X15034Y06320D01*
X15034Y06479D01*
X15012Y06501D01*
X14836Y06500D01*
X14801Y06500D01*
X14768Y06487D01*
X14743Y06462D01*
X14729Y06429D01*
X14728Y06342D01*
X14750Y06320D01*
X15034Y06320D01*
X15034Y06302D01*
X14750Y06302D01*
X14728Y06280D01*
X14729Y06193D01*
X14743Y06160D01*
X14768Y06135D01*
X14801Y06122D01*
X14836Y06122D01*
X15012Y06121D01*
X15034Y06143D01*
X15034Y06040D01*
X14793Y06040D01*
X14763Y06029D01*
X14731Y06042D01*
X14640Y06042D01*
X14556Y06007D01*
X14491Y05943D01*
X14456Y05859D01*
X14456Y05768D01*
X14491Y05684D01*
X14555Y05619D01*
X14639Y05584D01*
X14730Y05584D01*
X14758Y05596D01*
X14792Y05582D01*
X14843Y05582D01*
X15293Y05582D01*
X15340Y05601D01*
X15377Y05637D01*
X15397Y05685D01*
X15397Y05436D01*
X15378Y05483D01*
X15342Y05520D01*
X15294Y05540D01*
X15243Y05540D01*
X14793Y05540D01*
X14746Y05521D01*
X14709Y05485D01*
X14705Y05478D01*
X14546Y05477D01*
X14522Y05473D01*
X14503Y05469D01*
X14470Y05548D01*
X14406Y05613D01*
X14322Y05648D01*
X14231Y05648D01*
X14161Y05619D01*
X13853Y05692D01*
X13859Y05703D01*
X13859Y05773D01*
X13832Y05836D01*
X13832Y05837D01*
X13859Y05900D01*
X13859Y05960D01*
X14038Y05958D01*
X14039Y05957D01*
X14039Y05958D01*
X14048Y05957D01*
X14067Y05961D01*
X14104Y05966D01*
X14110Y05970D01*
X14112Y05970D01*
X14125Y05979D01*
X14161Y05999D01*
X14167Y06005D01*
X14168Y06005D01*
X14168Y06006D01*
X14353Y06168D01*
X14360Y06173D01*
X14378Y06198D01*
X14396Y06217D01*
X14400Y06225D01*
X14689Y06732D01*
X14689Y06686D01*
X14708Y06639D01*
X14744Y06602D01*
X14792Y06582D01*
X14843Y06582D01*
X15293Y06582D01*
X15297Y06584D01*
X15324Y06584D01*
X15382Y06560D01*
X15483Y06560D01*
X15576Y06598D01*
X15647Y06669D01*
X15686Y06762D01*
X15686Y06863D01*
X15648Y06956D01*
X15577Y07027D01*
X15484Y07066D01*
X15383Y07066D01*
X15314Y07038D01*
X15298Y07038D01*
X15294Y07040D01*
X15243Y07040D01*
X14910Y07040D01*
X15367Y07555D01*
X15367Y07556D01*
X15375Y07564D01*
X16411Y08574D01*
X16417Y08579D01*
X16417Y08580D01*
X17234Y09296D01*
X17395Y09228D01*
X17603Y09228D01*
X17795Y09307D01*
X17942Y09454D01*
X18000Y09593D01*
X18057Y09455D01*
X18204Y09308D01*
X18395Y09228D01*
X18603Y09228D01*
X18795Y09307D01*
X18942Y09454D01*
X19022Y09645D01*
X19022Y09853D01*
X18943Y10045D01*
X18796Y10192D01*
X18605Y10272D01*
X18397Y10272D01*
X18205Y10193D01*
X18058Y10046D01*
X17999Y09908D01*
X17943Y10045D01*
X17796Y10192D01*
X17605Y10272D01*
X17397Y10272D01*
X17205Y10193D01*
X17058Y10046D01*
X16978Y09855D01*
X16978Y09647D01*
X17017Y09551D01*
X16975Y09515D01*
X16975Y09833D01*
X16907Y10009D01*
X16895Y10026D01*
X16832Y10069D01*
X16819Y10056D01*
X16819Y10082D01*
X16776Y10145D01*
X16605Y10221D01*
X16417Y10225D01*
X16241Y10157D01*
X16224Y10145D01*
X16181Y10082D01*
X16500Y09763D01*
X16819Y10082D01*
X16819Y10056D01*
X16513Y09750D01*
X16832Y09431D01*
X16895Y09474D01*
X16971Y09645D01*
X16975Y09833D01*
X16975Y09515D01*
X16819Y09378D01*
X16819Y09418D01*
X16500Y09737D01*
X16487Y09724D01*
X16487Y09750D01*
X16168Y10069D01*
X16105Y10026D01*
X16029Y09855D01*
X16025Y09667D01*
X16093Y09491D01*
X16105Y09474D01*
X16168Y09431D01*
X16487Y09750D01*
X16487Y09724D01*
X16181Y09418D01*
X16224Y09355D01*
X16395Y09279D01*
X16583Y09275D01*
X16759Y09343D01*
X16776Y09355D01*
X16819Y09418D01*
X16819Y09378D01*
X16189Y08826D01*
X16185Y08822D01*
X16183Y08820D01*
X15845Y08491D01*
X15819Y08554D01*
X15755Y08619D01*
X15671Y08654D01*
X15596Y08654D01*
X15449Y08761D01*
X15429Y08770D01*
X15414Y08780D01*
X15400Y08783D01*
X15389Y08788D01*
X15370Y08789D01*
X15350Y08793D01*
X14550Y08793D01*
X14485Y08780D01*
X14463Y08766D01*
X14431Y08744D01*
X14429Y08742D01*
X14331Y08644D01*
X14310Y08613D01*
X14299Y08597D01*
X14298Y08594D01*
X14295Y08589D01*
X14287Y08551D01*
X14283Y08534D01*
X14282Y08529D01*
X14282Y08525D01*
X14282Y08524D01*
X14278Y08467D01*
X14178Y08567D01*
X14030Y08628D01*
X13895Y08628D01*
X13947Y08676D01*
X14862Y09044D01*
X14881Y09057D01*
X14904Y09068D01*
X14917Y09080D01*
X15207Y09307D01*
X15395Y09228D01*
X15603Y09228D01*
X15795Y09307D01*
X15942Y09454D01*
X16022Y09645D01*
X16022Y09853D01*
X15943Y10045D01*
X15796Y10192D01*
X15605Y10272D01*
X15397Y10272D01*
X15205Y10193D01*
X15058Y10046D01*
X14999Y09908D01*
X14943Y10045D01*
X14796Y10192D01*
X14605Y10272D01*
X14397Y10272D01*
X14205Y10193D01*
X14058Y10046D01*
X13999Y09908D01*
X13943Y10045D01*
X13796Y10192D01*
X13605Y10272D01*
X13397Y10272D01*
X13205Y10193D01*
X13058Y10046D01*
X12999Y09908D01*
X12943Y10045D01*
X12796Y10192D01*
X12605Y10272D01*
X12397Y10272D01*
X12205Y10193D01*
X12058Y10046D01*
X11999Y09908D01*
X11943Y10045D01*
X11796Y10192D01*
X11605Y10272D01*
X11397Y10272D01*
X11205Y10193D01*
X11058Y10046D01*
X10978Y09855D01*
X10978Y09647D01*
X11057Y09455D01*
X11204Y09308D01*
X11276Y09278D01*
X11238Y09262D01*
X10975Y09362D01*
X10975Y09833D01*
X10907Y10009D01*
X10895Y10026D01*
X10832Y10069D01*
X10819Y10056D01*
X10819Y10082D01*
X10776Y10145D01*
X10605Y10221D01*
X10417Y10225D01*
X10241Y10157D01*
X10224Y10145D01*
X10181Y10082D01*
X10500Y09763D01*
X10819Y10082D01*
X10819Y10056D01*
X10513Y09750D01*
X10832Y09431D01*
X10895Y09474D01*
X10971Y09645D01*
X10975Y09833D01*
X10975Y09362D01*
X10934Y09377D01*
X10905Y09382D01*
X10883Y09388D01*
X10801Y09393D01*
X10819Y09418D01*
X10535Y09702D01*
X10500Y09737D01*
X10487Y09750D01*
X10452Y09785D01*
X10168Y10069D01*
X10105Y10026D01*
X10029Y09855D01*
X10025Y09667D01*
X10080Y09524D01*
X10073Y09527D01*
X09991Y09574D01*
X10022Y09645D01*
X10022Y09853D01*
X09943Y10045D01*
X09796Y10192D01*
X09605Y10272D01*
X09397Y10272D01*
X09205Y10193D01*
X09058Y10046D01*
X08999Y09908D01*
X08943Y10045D01*
X08796Y10192D01*
X08605Y10272D01*
X08397Y10272D01*
X08205Y10193D01*
X08058Y10046D01*
X07999Y09908D01*
X07943Y10045D01*
X07796Y10192D01*
X07605Y10272D01*
X07397Y10272D01*
X07205Y10193D01*
X07058Y10046D01*
X06978Y09855D01*
X06978Y09647D01*
X07057Y09455D01*
X07169Y09343D01*
X06975Y09343D01*
X06975Y09833D01*
X06907Y10009D01*
X06895Y10026D01*
X06832Y10069D01*
X06819Y10056D01*
X06819Y10082D01*
X06776Y10145D01*
X06605Y10221D01*
X06417Y10225D01*
X06241Y10157D01*
X06224Y10145D01*
X06181Y10082D01*
X06500Y09763D01*
X06819Y10082D01*
X06819Y10056D01*
X06513Y09750D01*
X06832Y09431D01*
X06895Y09474D01*
X06971Y09645D01*
X06975Y09833D01*
X06975Y09343D01*
X06759Y09343D01*
X06776Y09355D01*
X06819Y09418D01*
X06500Y09737D01*
X06487Y09724D01*
X06487Y09750D01*
X06168Y10069D01*
X06105Y10026D01*
X06029Y09855D01*
X06025Y09667D01*
X06093Y09491D01*
X06105Y09474D01*
X06168Y09431D01*
X06487Y09750D01*
X06487Y09724D01*
X06181Y09418D01*
X06224Y09355D01*
X06251Y09343D01*
X05831Y09343D01*
X05942Y09454D01*
X06022Y09645D01*
X06022Y09853D01*
X05943Y10045D01*
X05796Y10192D01*
X05605Y10272D01*
X05397Y10272D01*
X05205Y10193D01*
X05058Y10046D01*
X04999Y09908D01*
X04943Y10045D01*
X04796Y10192D01*
X04605Y10272D01*
X04397Y10272D01*
X04205Y10193D01*
X04058Y10046D01*
X03978Y09855D01*
X03978Y09647D01*
X04057Y09455D01*
X04169Y09343D01*
X03975Y09343D01*
X03975Y09833D01*
X03907Y10009D01*
X03895Y10026D01*
X03832Y10069D01*
X03819Y10056D01*
X03819Y10082D01*
X03776Y10145D01*
X03605Y10221D01*
X03417Y10225D01*
X03241Y10157D01*
X03224Y10145D01*
X03181Y10082D01*
X03500Y09763D01*
X03819Y10082D01*
X03819Y10056D01*
X03513Y09750D01*
X03832Y09431D01*
X03895Y09474D01*
X03971Y09645D01*
X03975Y09833D01*
X03975Y09343D01*
X03759Y09343D01*
X03776Y09355D01*
X03819Y09418D01*
X03535Y09702D01*
X03500Y09737D01*
X03487Y09750D01*
X03452Y09785D01*
X03168Y10069D01*
X03105Y10026D01*
X03029Y09855D01*
X03025Y09667D01*
X03043Y09620D01*
X03017Y09636D01*
X03022Y09645D01*
X03022Y09853D01*
X02943Y10045D01*
X02796Y10192D01*
X02605Y10272D01*
X02397Y10272D01*
X02205Y10193D01*
X02058Y10046D01*
X01999Y09908D01*
X01943Y10045D01*
X01796Y10192D01*
X01605Y10272D01*
X01397Y10272D01*
X01205Y10193D01*
X01058Y10046D01*
X00978Y09855D01*
X00978Y09647D01*
X01057Y09455D01*
X01204Y09308D01*
X01395Y09228D01*
X01603Y09228D01*
X01795Y09307D01*
X01805Y09318D01*
X02062Y09130D01*
X02022Y09122D01*
X01936Y09064D01*
X01885Y08989D01*
X01885Y09076D01*
X01866Y09123D01*
X01830Y09160D01*
X01782Y09180D01*
X01731Y09180D01*
X01377Y09180D01*
X01330Y09161D01*
X01293Y09125D01*
X01289Y09117D01*
X01250Y09117D01*
X01197Y09117D01*
X01185Y09147D01*
X01149Y09184D01*
X01101Y09204D01*
X01050Y09204D01*
X00975Y09204D01*
X00975Y09833D01*
X00907Y10009D01*
X00895Y10026D01*
X00832Y10069D01*
X00513Y09750D01*
X00832Y09431D01*
X00895Y09474D01*
X00971Y09645D01*
X00975Y09833D01*
X00975Y09204D01*
X00819Y09204D01*
X00800Y09204D01*
X00753Y09185D01*
X00716Y09149D01*
X00696Y09101D01*
X00696Y09050D01*
X00696Y08917D01*
X00683Y08850D01*
X00696Y08784D01*
X00696Y08600D01*
X00715Y08553D01*
X00751Y08516D01*
X00799Y08496D01*
X00850Y08496D01*
X01023Y08496D01*
X01023Y08370D01*
X00830Y08177D01*
X00779Y08177D01*
X00779Y08200D01*
X00760Y08247D01*
X00724Y08284D01*
X00676Y08304D01*
X00625Y08304D01*
X00375Y08304D01*
X00328Y08285D01*
X00291Y08249D01*
X00271Y08201D01*
X00271Y08150D01*
X00271Y07700D01*
X00281Y07675D01*
X00216Y07653D01*
X00212Y07651D01*
X00203Y07649D01*
X00172Y07629D01*
X00152Y07617D01*
X00148Y07613D01*
X00142Y07608D01*
X00140Y07606D01*
X00140Y07919D01*
X00140Y07981D01*
X00139Y08157D01*
X00139Y08192D01*
X00126Y08225D01*
X00101Y08250D01*
X00068Y08264D01*
X-00044Y08265D01*
X-00066Y08243D01*
X-00066Y07959D01*
X00118Y07959D01*
X00140Y07981D01*
X00140Y07919D01*
X00118Y07941D01*
X-00066Y07941D01*
X-00066Y07657D01*
X-00044Y07635D01*
X00068Y07636D01*
X00101Y07650D01*
X00126Y07675D01*
X00139Y07708D01*
X00139Y07743D01*
X00140Y07919D01*
X00140Y07606D01*
X00122Y07579D01*
X00107Y07559D01*
X00105Y07554D01*
X00101Y07547D01*
X00097Y07529D01*
X00025Y07529D01*
X-00022Y07510D01*
X-00059Y07474D01*
X-00079Y07426D01*
X-00079Y07375D01*
X-00079Y07125D01*
X-00060Y07078D01*
X-00024Y07041D01*
X00024Y07021D01*
X00075Y07021D01*
X00525Y07021D01*
X00572Y07040D01*
X00604Y07072D01*
X00596Y07051D01*
X00596Y07000D01*
X00596Y06887D01*
X00574Y06909D01*
X00526Y06929D01*
X00475Y06929D01*
X00025Y06929D01*
X-00005Y06918D01*
X-00057Y07045D01*
X-00084Y07072D01*
X-00084Y07657D01*
X-00084Y07941D01*
X-00084Y07959D01*
X-00084Y08243D01*
X-00106Y08265D01*
X-00135Y08265D01*
X-00135Y08719D01*
X-00157Y08741D01*
X-00491Y08741D01*
X-00491Y08407D01*
X-00469Y08385D01*
X-00207Y08386D01*
X-00174Y08400D01*
X-00149Y08425D01*
X-00136Y08458D01*
X-00136Y08493D01*
X-00135Y08719D01*
X-00135Y08265D01*
X-00218Y08264D01*
X-00251Y08250D01*
X-00276Y08225D01*
X-00289Y08192D01*
X-00289Y08157D01*
X-00290Y07981D01*
X-00268Y07959D01*
X-00084Y07959D01*
X-00084Y07941D01*
X-00268Y07941D01*
X-00290Y07919D01*
X-00289Y07743D01*
X-00289Y07708D01*
X-00276Y07675D01*
X-00251Y07650D01*
X-00218Y07636D01*
X-00106Y07635D01*
X-00084Y07657D01*
X-00084Y07072D01*
X-00204Y07192D01*
X-00395Y07272D01*
X-00509Y07272D01*
X-00509Y08407D01*
X-00509Y08741D01*
X-00843Y08741D01*
X-00865Y08719D01*
X-00864Y08493D01*
X-00864Y08458D01*
X-00851Y08425D01*
X-00826Y08400D01*
X-00793Y08386D01*
X-00531Y08385D01*
X-00509Y08407D01*
X-00509Y07272D01*
X-00603Y07272D01*
X-00795Y07193D01*
X-00942Y07046D01*
X-01022Y06855D01*
X-01022Y06647D01*
X-00943Y06455D01*
X-00796Y06308D01*
X-00658Y06250D01*
X-00795Y06193D01*
X-00942Y06046D01*
X-01022Y05855D01*
X-01022Y05647D01*
X-00943Y05455D01*
X-00796Y05308D01*
X-00658Y05250D01*
X-00795Y05193D01*
X-00942Y05046D01*
X-01022Y04855D01*
X-01022Y04647D01*
X-00943Y04455D01*
X-00796Y04308D01*
X-00658Y04250D01*
X-00795Y04193D01*
X-00942Y04046D01*
X-01022Y03855D01*
X-01022Y03647D01*
X-00943Y03455D01*
X-00796Y03308D01*
X-00605Y03228D01*
X-00397Y03228D01*
X-00368Y03240D01*
X-00313Y03185D01*
X-00395Y03221D01*
X-00583Y03225D01*
X-00759Y03157D01*
X-00776Y03145D01*
X-00819Y03082D01*
X-00535Y02798D01*
X-00500Y02763D01*
X-00487Y02750D01*
X-00452Y02715D01*
X-00168Y02431D01*
X-00105Y02474D01*
X-00029Y02645D01*
X-00025Y02833D01*
X-00093Y03009D01*
X-00105Y03026D01*
X-00126Y03041D01*
X-00120Y03047D01*
X-00050Y03033D01*
X00215Y03033D01*
X00174Y02918D01*
X00174Y02759D01*
X00441Y02759D01*
X00491Y02759D01*
X00509Y02759D01*
X00559Y02759D01*
X00826Y02759D01*
X00826Y02918D01*
X00784Y03033D01*
X00996Y03033D01*
X00996Y03025D01*
X00996Y02775D01*
X01015Y02728D01*
X01051Y02691D01*
X01099Y02671D01*
X01150Y02671D01*
X01283Y02671D01*
X01350Y02658D01*
X01416Y02671D01*
X01600Y02671D01*
X01647Y02690D01*
X01684Y02726D01*
X01687Y02734D01*
X01687Y02700D01*
X01687Y02696D01*
X01687Y02690D01*
X01695Y02658D01*
X01701Y02628D01*
X01703Y02624D01*
X01705Y02619D01*
X01725Y02592D01*
X01742Y02567D01*
X01745Y02565D01*
X01749Y02560D01*
X01963Y02368D01*
X01964Y02367D01*
X01965Y02367D01*
X01971Y02361D01*
X01989Y02350D01*
X02025Y02326D01*
X02030Y02325D01*
X02034Y02323D01*
X02056Y02320D01*
X02088Y02314D01*
X02085Y02314D01*
X02048Y02313D01*
X02015Y02299D01*
X01990Y02274D01*
X01977Y02241D01*
X01977Y02206D01*
X01976Y02157D01*
X01998Y02135D01*
X02085Y02135D01*
X02135Y02135D01*
X02153Y02135D01*
X02203Y02135D01*
X02254Y02135D01*
X02290Y02135D01*
X02341Y02135D01*
X02391Y02135D01*
X02409Y02135D01*
X02409Y02117D01*
X02409Y02067D01*
X02409Y01960D01*
X02431Y01938D01*
X02484Y01939D01*
X02504Y01919D01*
X02552Y01899D01*
X02603Y01899D01*
X02759Y01899D01*
X02806Y01918D01*
X02843Y01954D01*
X02863Y02002D01*
X02863Y02053D01*
X02863Y02121D01*
X02942Y02042D01*
X03003Y02001D01*
X03075Y01987D01*
X03997Y01987D01*
X04101Y01958D01*
X04230Y01829D01*
X04190Y01829D01*
X04189Y01830D01*
X04131Y01842D01*
X04131Y01857D01*
X04112Y01904D01*
X04076Y01941D01*
X04028Y01961D01*
X03977Y01961D01*
X03663Y01961D01*
X03616Y01942D01*
X03579Y01906D01*
X03559Y01858D01*
X03559Y01807D01*
X03559Y01493D01*
X03578Y01446D01*
X03614Y01409D01*
X03662Y01389D01*
X03713Y01389D01*
X04027Y01389D01*
X04069Y01407D01*
X04070Y01406D01*
X04154Y01371D01*
X04245Y01371D01*
X04329Y01406D01*
X04394Y01470D01*
X04429Y01554D01*
X04429Y01638D01*
X04699Y01435D01*
X04712Y01425D01*
X04739Y01412D01*
X04762Y01398D01*
X04776Y01393D01*
X04778Y01392D01*
X04924Y01340D01*
X04801Y01280D01*
X04778Y01263D01*
X04755Y01247D01*
X04728Y01221D01*
X04605Y01272D01*
X04397Y01272D01*
X04205Y01193D01*
X04058Y01046D01*
X03999Y00908D01*
X03943Y01045D01*
X03796Y01192D01*
X03605Y01272D01*
X03397Y01272D01*
X03268Y01220D01*
X03118Y01370D01*
X03118Y01389D01*
X03123Y01389D01*
X03437Y01389D01*
X03484Y01408D01*
X03521Y01444D01*
X03541Y01492D01*
X03541Y01543D01*
X03541Y01857D01*
X03522Y01904D01*
X03486Y01941D01*
X03438Y01961D01*
X03387Y01961D01*
X03073Y01961D01*
X03026Y01942D01*
X02989Y01906D01*
X02969Y01858D01*
X02969Y01837D01*
X02936Y01830D01*
X02881Y01794D01*
X02879Y01792D01*
X02831Y01744D01*
X02795Y01689D01*
X02782Y01625D01*
X02782Y01300D01*
X02795Y01236D01*
X02831Y01181D01*
X03030Y00982D01*
X02978Y00855D01*
X02978Y00647D01*
X03057Y00455D01*
X03204Y00308D01*
X03395Y00228D01*
X03603Y00228D01*
X03795Y00307D01*
X03942Y00454D01*
X04000Y00593D01*
X04057Y00455D01*
X04204Y00308D01*
X04395Y00228D01*
X04603Y00228D01*
X04795Y00307D01*
X04942Y00454D01*
X05000Y00593D01*
X05057Y00455D01*
X05204Y00308D01*
X05395Y00228D01*
X05603Y00228D01*
X05795Y00307D01*
X05942Y00454D01*
X06000Y00593D01*
X06057Y00455D01*
X06204Y00308D01*
X06395Y00228D01*
X06603Y00228D01*
X06795Y00307D01*
X06942Y00454D01*
X07022Y00645D01*
X07022Y00853D01*
X06943Y01045D01*
X06881Y01107D01*
X07198Y01107D01*
X07181Y01082D01*
X07500Y00763D01*
X07819Y01082D01*
X07801Y01107D01*
X08119Y01107D01*
X08058Y01046D01*
X07978Y00855D01*
X07978Y00647D01*
X08057Y00455D01*
X08204Y00308D01*
X08395Y00228D01*
X08603Y00228D01*
X08795Y00307D01*
X08942Y00454D01*
X09000Y00593D01*
X09057Y00455D01*
X09204Y00308D01*
X09395Y00228D01*
X09603Y00228D01*
X09795Y00307D01*
X09942Y00454D01*
X10000Y00593D01*
X10057Y00455D01*
X10204Y00308D01*
X10395Y00228D01*
X10603Y00228D01*
X10795Y00307D01*
X10942Y00454D01*
X11000Y00593D01*
X11057Y00455D01*
X11204Y00308D01*
X11395Y00228D01*
X11603Y00228D01*
X11795Y00307D01*
X11942Y00454D01*
X12022Y00645D01*
X12022Y00853D01*
X11955Y01015D01*
X12048Y01121D01*
X12070Y01121D01*
X12154Y01156D01*
X12219Y01220D01*
X12254Y01304D01*
X12254Y01395D01*
X12239Y01430D01*
X12646Y01474D01*
X12646Y01405D01*
X12681Y01321D01*
X12745Y01256D01*
X12829Y01221D01*
X12854Y01221D01*
X13043Y01011D01*
X12978Y00855D01*
X12978Y00647D01*
X13057Y00455D01*
X13204Y00308D01*
X13395Y00228D01*
X13603Y00228D01*
X13795Y00307D01*
X13942Y00454D01*
X14000Y00593D01*
X14057Y00455D01*
X14204Y00308D01*
X14395Y00228D01*
X14603Y00228D01*
X14795Y00307D01*
X14942Y00454D01*
X15000Y00593D01*
X15057Y00455D01*
X15204Y00308D01*
X15395Y00228D01*
X15603Y00228D01*
X15795Y00307D01*
X15942Y00454D01*
X16000Y00593D01*
X16057Y00455D01*
X16204Y00308D01*
X16395Y00228D01*
X16603Y00228D01*
X16795Y00307D01*
X16942Y00454D01*
X17000Y00593D01*
X17057Y00455D01*
X17204Y00308D01*
X17395Y00228D01*
X17509Y00228D01*
X17459Y00108D01*
X17459Y-00107D01*
X17541Y-00306D01*
X17581Y-00346D01*
X12975Y-00346D01*
X12975Y00833D01*
X12907Y01009D01*
X12895Y01026D01*
X12832Y01069D01*
X12819Y01056D01*
X12819Y01082D01*
X12776Y01145D01*
X12605Y01221D01*
X12417Y01225D01*
X12241Y01157D01*
X12224Y01145D01*
X12181Y01082D01*
X12500Y00763D01*
X12819Y01082D01*
X12819Y01056D01*
X12513Y00750D01*
X12832Y00431D01*
X12895Y00474D01*
X12971Y00645D01*
X12975Y00833D01*
X12975Y-00346D01*
X12819Y-00346D01*
X12819Y00418D01*
X12500Y00737D01*
X12487Y00724D01*
X12487Y00750D01*
X12168Y01069D01*
X12105Y01026D01*
X12029Y00855D01*
X12025Y00667D01*
X12093Y00491D01*
X12105Y00474D01*
X12168Y00431D01*
X12487Y00750D01*
X12487Y00724D01*
X12181Y00418D01*
X12224Y00355D01*
X12395Y00279D01*
X12583Y00275D01*
X12759Y00343D01*
X12776Y00355D01*
X12819Y00418D01*
X12819Y-00346D01*
X07975Y-00346D01*
X07975Y00833D01*
X07907Y01009D01*
X07895Y01026D01*
X07832Y01069D01*
X07513Y00750D01*
X07832Y00431D01*
X07895Y00474D01*
X07971Y00645D01*
X07975Y00833D01*
X07975Y-00346D01*
X07819Y-00346D01*
X07819Y00418D01*
X07500Y00737D01*
X07487Y00724D01*
X07487Y00750D01*
X07168Y01069D01*
X07105Y01026D01*
X07029Y00855D01*
X07025Y00667D01*
X07093Y00491D01*
X07105Y00474D01*
X07168Y00431D01*
X07487Y00750D01*
X07487Y00724D01*
X07181Y00418D01*
X07224Y00355D01*
X07395Y00279D01*
X07583Y00275D01*
X07759Y00343D01*
X07776Y00355D01*
X07819Y00418D01*
X07819Y-00346D01*
X02975Y-00346D01*
X02975Y00833D01*
X02907Y01009D01*
X02895Y01026D01*
X02832Y01069D01*
X02819Y01056D01*
X02819Y01082D01*
X02776Y01145D01*
X02605Y01221D01*
X02417Y01225D01*
X02391Y01215D01*
X02391Y01960D01*
X02391Y02117D01*
X02290Y02117D01*
X02254Y02117D01*
X02153Y02117D01*
X02153Y01960D01*
X02175Y01938D01*
X02240Y01939D01*
X02271Y01953D01*
X02272Y01953D01*
X02273Y01953D01*
X02304Y01939D01*
X02369Y01938D01*
X02391Y01960D01*
X02391Y01215D01*
X02241Y01157D01*
X02224Y01145D01*
X02181Y01082D01*
X02500Y00763D01*
X02819Y01082D01*
X02819Y01056D01*
X02513Y00750D01*
X02832Y00431D01*
X02895Y00474D01*
X02971Y00645D01*
X02975Y00833D01*
X02975Y-00346D01*
X02819Y-00346D01*
X02819Y00418D01*
X02500Y00737D01*
X02487Y00724D01*
X02487Y00750D01*
X02168Y01069D01*
X02135Y01047D01*
X02135Y01960D01*
X02135Y02117D01*
X01998Y02117D01*
X01976Y02095D01*
X01977Y02046D01*
X01977Y02011D01*
X01990Y01978D01*
X02015Y01953D01*
X02048Y01939D01*
X02113Y01938D01*
X02135Y01960D01*
X02135Y01047D01*
X02105Y01026D01*
X02029Y00855D01*
X02025Y00667D01*
X02093Y00491D01*
X02105Y00474D01*
X02168Y00431D01*
X02487Y00750D01*
X02487Y00724D01*
X02181Y00418D01*
X02224Y00355D01*
X02395Y00279D01*
X02583Y00275D01*
X02759Y00343D01*
X02776Y00355D01*
X02819Y00418D01*
X02819Y-00346D01*
X00419Y-00346D01*
X00458Y-00307D01*
X00541Y-00108D01*
X00541Y00107D01*
X00470Y00278D01*
X00583Y00275D01*
X00759Y00343D01*
X00776Y00355D01*
X00819Y00418D01*
X00535Y00702D01*
X00500Y00737D01*
X00487Y00750D01*
X00452Y00785D01*
X00168Y01069D01*
X00105Y01026D01*
X00029Y00855D01*
X00025Y00667D01*
X00073Y00541D01*
X-00022Y00541D01*
X00022Y00645D01*
X00022Y00853D01*
X-00057Y01045D01*
X-00110Y01098D01*
X00191Y01098D01*
X00181Y01082D01*
X00465Y00798D01*
X00500Y00763D01*
X00513Y00750D01*
X00548Y00715D01*
X00832Y00431D01*
X00895Y00474D01*
X00971Y00645D01*
X00975Y00833D01*
X00962Y00867D01*
X00978Y00851D01*
X00978Y00647D01*
X01057Y00455D01*
X01204Y00308D01*
X01395Y00228D01*
X01603Y00228D01*
X01795Y00307D01*
X01942Y00454D01*
X02022Y00645D01*
X02022Y00853D01*
X02015Y00871D01*
X02015Y01594D01*
X02015Y01656D01*
X02014Y01832D01*
X02014Y01867D01*
X02001Y01900D01*
X01976Y01925D01*
X01943Y01939D01*
X01831Y01940D01*
X01809Y01918D01*
X01809Y01634D01*
X01993Y01634D01*
X02015Y01656D01*
X02015Y01594D01*
X01993Y01616D01*
X01809Y01616D01*
X01809Y01332D01*
X01831Y01310D01*
X01943Y01311D01*
X01976Y01325D01*
X02001Y01350D01*
X02014Y01383D01*
X02014Y01418D01*
X02015Y01594D01*
X02015Y00871D01*
X01943Y01045D01*
X01796Y01192D01*
X01791Y01195D01*
X01791Y01332D01*
X01791Y01616D01*
X01791Y01634D01*
X01791Y01918D01*
X01769Y01940D01*
X01657Y01939D01*
X01624Y01925D01*
X01599Y01900D01*
X01586Y01867D01*
X01586Y01832D01*
X01585Y01656D01*
X01607Y01634D01*
X01791Y01634D01*
X01791Y01616D01*
X01607Y01616D01*
X01585Y01594D01*
X01586Y01418D01*
X01586Y01383D01*
X01599Y01350D01*
X01624Y01325D01*
X01657Y01311D01*
X01769Y01310D01*
X01791Y01332D01*
X01791Y01195D01*
X01605Y01272D01*
X01397Y01272D01*
X01257Y01215D01*
X01200Y01271D01*
X01350Y01271D01*
X01397Y01290D01*
X01434Y01326D01*
X01454Y01374D01*
X01454Y01425D01*
X01454Y01875D01*
X01446Y01894D01*
X01466Y01905D01*
X01484Y01922D01*
X01511Y01939D01*
X01521Y01955D01*
X01532Y01964D01*
X01542Y01988D01*
X01560Y02013D01*
X01563Y02032D01*
X01570Y02045D01*
X01571Y02070D01*
X01571Y02071D01*
X01600Y02071D01*
X01647Y02090D01*
X01684Y02126D01*
X01704Y02174D01*
X01704Y02225D01*
X01704Y02475D01*
X01685Y02522D01*
X01649Y02559D01*
X01601Y02579D01*
X01550Y02579D01*
X01100Y02579D01*
X01053Y02560D01*
X01016Y02524D01*
X00996Y02476D01*
X00996Y02425D01*
X00996Y02253D01*
X00913Y02235D01*
X00839Y02186D01*
X00837Y02184D01*
X00826Y02173D01*
X00826Y02582D01*
X00826Y02741D01*
X00509Y02741D01*
X00509Y02329D01*
X00560Y02312D01*
X00695Y02366D01*
X00782Y02461D01*
X00826Y02582D01*
X00826Y02173D01*
X00783Y02130D01*
X00773Y02130D01*
X00491Y02130D01*
X00491Y02329D01*
X00491Y02741D01*
X00174Y02741D01*
X00174Y02582D01*
X00218Y02461D01*
X00305Y02366D01*
X00440Y02312D01*
X00491Y02329D01*
X00491Y02130D01*
X00419Y02130D01*
X00372Y02111D01*
X00335Y02075D01*
X00315Y02027D01*
X00315Y01976D01*
X00315Y01574D01*
X00323Y01552D01*
X-00181Y01552D01*
X-00181Y02418D01*
X-00500Y02737D01*
X-00513Y02724D01*
X-00513Y02750D01*
X-00832Y03069D01*
X-00895Y03026D01*
X-00971Y02855D01*
X-00975Y02667D01*
X-00907Y02491D01*
X-00895Y02474D01*
X-00832Y02431D01*
X-00513Y02750D01*
X-00513Y02724D01*
X-00819Y02418D01*
X-00776Y02355D01*
X-00605Y02279D01*
X-00417Y02275D01*
X-00241Y02343D01*
X-00224Y02355D01*
X-00181Y02418D01*
X-00181Y01552D01*
X-00374Y01552D01*
X-00365Y01573D01*
X-00365Y01624D01*
X-00365Y02026D01*
X-00384Y02073D01*
X-00420Y02110D01*
X-00468Y02130D01*
X-00519Y02130D01*
X-00873Y02130D01*
X-00920Y02111D01*
X-00940Y02092D01*
X-01059Y02212D01*
X-01083Y06864D01*
X-00934Y07068D01*
X-00921Y07097D01*
X-00903Y07123D01*
X-00900Y07143D01*
X-00890Y07162D01*
X-00889Y07196D01*
X-00883Y07225D01*
X-00883Y07253D01*
X-00853Y07265D01*
X-00816Y07301D01*
X-00796Y07349D01*
X-00796Y07400D01*
X-00796Y07650D01*
X-00815Y07697D01*
X-00851Y07734D01*
X-00899Y07754D01*
X-00950Y07754D01*
X-01084Y07754D01*
X-01150Y07767D01*
X-01217Y07754D01*
X-01400Y07754D01*
X-01447Y07735D01*
X-01484Y07699D01*
X-01504Y07651D01*
X-01504Y07600D01*
X-01504Y07350D01*
X-01485Y07303D01*
X-01450Y07267D01*
X-01566Y07107D01*
X-01579Y07081D01*
X-01598Y07051D01*
X-01602Y07031D01*
X-01610Y07013D01*
X-01612Y06980D01*
X-01617Y06949D01*
X-01592Y02099D01*
X-01589Y02083D01*
X-01572Y01997D01*
X-01514Y01911D01*
X-01513Y01910D01*
X-01277Y01675D01*
X-01277Y01575D01*
X-01271Y01544D01*
X-01268Y01512D01*
X-01263Y01502D01*
X-01260Y01488D01*
X-01240Y01457D01*
X-01227Y01433D01*
X-01027Y01183D01*
X-01020Y01177D01*
X-01011Y01164D01*
X-00980Y01143D01*
X-00959Y01126D01*
X-00949Y01123D01*
X-00937Y01115D01*
X-00906Y01109D01*
X-00886Y01103D01*
X-00942Y01046D01*
X-01022Y00855D01*
X-01022Y00647D01*
X-00943Y00455D01*
X-00796Y00308D01*
X-00605Y00228D01*
X-00491Y00228D01*
X-00541Y00108D01*
X-00541Y-00107D01*
X-00459Y-00306D01*
X-00419Y-00346D01*
X-00613Y-00346D01*
X-01896Y01031D01*
X-01896Y09791D01*
X-01643Y10070D01*
X-00966Y10746D01*
X-00484Y10746D01*
X-00541Y10608D01*
X-00541Y10393D01*
X-00492Y10272D01*
X-00603Y10272D01*
X-00795Y10193D01*
X-00942Y10046D01*
X-01022Y09855D01*
X-01022Y09647D01*
X-01010Y09618D01*
X-01339Y09289D01*
X-01397Y09203D01*
X-01417Y09100D01*
X-01417Y08348D01*
X-01447Y08335D01*
X-01484Y08299D01*
X-01504Y08251D01*
X-01504Y08200D01*
X-01504Y07950D01*
X-01485Y07903D01*
X-01449Y07866D01*
X-01401Y07846D01*
X-01350Y07846D01*
X-01217Y07846D01*
X-01150Y07833D01*
X-01084Y07846D01*
X-00900Y07846D01*
X-00853Y07865D01*
X-00816Y07901D01*
X-00796Y07949D01*
X-00796Y08000D01*
X-00796Y08250D01*
X-00815Y08297D01*
X-00851Y08334D01*
X-00883Y08348D01*
X-00883Y08990D01*
X-00864Y09009D01*
X-00864Y09007D01*
X-00865Y08781D01*
X-00843Y08759D01*
X-00509Y08759D01*
X-00509Y09093D01*
X-00531Y09115D01*
X-00759Y09115D01*
X-00633Y09240D01*
X-00605Y09228D01*
X-00397Y09228D01*
X-00391Y09231D01*
X-00286Y09115D01*
X-00469Y09115D01*
X-00491Y09093D01*
X-00491Y08759D01*
X-00157Y08759D01*
X-00148Y08769D01*
X-00039Y08661D01*
X-00038Y08660D01*
X-00009Y08641D01*
X00048Y08603D01*
X00049Y08603D01*
X00098Y08594D01*
X00115Y08553D01*
X00151Y08516D01*
X00199Y08496D01*
X00250Y08496D01*
X00500Y08496D01*
X00547Y08515D01*
X00584Y08551D01*
X00604Y08599D01*
X00604Y08650D01*
X00604Y08784D01*
X00617Y08850D01*
X00604Y08917D01*
X00604Y09100D01*
X00585Y09147D01*
X00549Y09184D01*
X00501Y09204D01*
X00450Y09204D01*
X00281Y09204D01*
X00277Y09226D01*
X00271Y09265D01*
X00268Y09270D01*
X00267Y09277D01*
X00237Y09322D01*
X00218Y09354D01*
X00209Y09364D01*
X00208Y09365D01*
X00203Y09370D01*
X00209Y09376D01*
X00224Y09355D01*
X00395Y09279D01*
X00583Y09275D01*
X00759Y09343D01*
X00776Y09355D01*
X00819Y09418D01*
X00535Y09702D01*
X00500Y09737D01*
X00487Y09750D01*
X00500Y09763D01*
X00535Y09798D01*
X00819Y10082D01*
X00776Y10145D01*
X00605Y10221D01*
X00470Y10224D01*
X00541Y10392D01*
X00541Y10607D01*
X00483Y10746D01*
X18816Y10746D01*
X19850Y09712D01*
X19850Y08800D01*
X19850Y08800D01*
G37*
G54D46*
X19850Y08800D02*
X16979Y08800D01*
X15950Y07771D01*
X15950Y04428D01*
X15890Y04680D01*
X15889Y04688D01*
X15875Y04718D01*
X15866Y04741D01*
X15861Y04748D01*
X15641Y05091D01*
X15630Y05102D01*
X15626Y05110D01*
X15613Y05121D01*
X15596Y05138D01*
X15583Y05144D01*
X15575Y05150D01*
X15425Y05225D01*
X15418Y05227D01*
X15410Y05232D01*
X15397Y05235D01*
X15397Y05236D01*
X15397Y05436D01*
X15397Y05685D01*
X15397Y05736D01*
X15397Y05936D01*
X15378Y05983D01*
X15358Y06004D01*
X15358Y06280D01*
X15358Y06342D01*
X15357Y06429D01*
X15343Y06462D01*
X15318Y06487D01*
X15285Y06500D01*
X15250Y06500D01*
X15074Y06501D01*
X15052Y06479D01*
X15052Y06320D01*
X15336Y06320D01*
X15358Y06342D01*
X15358Y06280D01*
X15336Y06302D01*
X15052Y06302D01*
X15052Y06143D01*
X15074Y06121D01*
X15250Y06122D01*
X15285Y06122D01*
X15318Y06135D01*
X15343Y06160D01*
X15357Y06193D01*
X15358Y06280D01*
X15358Y06004D01*
X15342Y06020D01*
X15294Y06040D01*
X15243Y06040D01*
X15034Y06040D01*
X15034Y06143D01*
X15034Y06302D01*
X15034Y06320D01*
X15034Y06479D01*
X15012Y06501D01*
X14836Y06500D01*
X14801Y06500D01*
X14768Y06487D01*
X14743Y06462D01*
X14729Y06429D01*
X14728Y06342D01*
X14750Y06320D01*
X15034Y06320D01*
X15034Y06302D01*
X14750Y06302D01*
X14728Y06280D01*
X14729Y06193D01*
X14743Y06160D01*
X14768Y06135D01*
X14801Y06122D01*
X14836Y06122D01*
X15012Y06121D01*
X15034Y06143D01*
X15034Y06040D01*
X14793Y06040D01*
X14763Y06029D01*
X14731Y06042D01*
X14640Y06042D01*
X14556Y06007D01*
X14491Y05943D01*
X14456Y05859D01*
X14456Y05768D01*
X14491Y05684D01*
X14555Y05619D01*
X14639Y05584D01*
X14730Y05584D01*
X14758Y05596D01*
X14792Y05582D01*
X14843Y05582D01*
X15293Y05582D01*
X15340Y05601D01*
X15377Y05637D01*
X15397Y05685D01*
X15397Y05436D01*
X15378Y05483D01*
X15342Y05520D01*
X15294Y05540D01*
X15243Y05540D01*
X14793Y05540D01*
X14746Y05521D01*
X14709Y05485D01*
X14705Y05478D01*
X14546Y05477D01*
X14522Y05473D01*
X14503Y05469D01*
X14470Y05548D01*
X14406Y05613D01*
X14322Y05648D01*
X14231Y05648D01*
X14161Y05619D01*
X13853Y05692D01*
X13859Y05703D01*
X13859Y05773D01*
X13832Y05836D01*
X13832Y05837D01*
X13859Y05900D01*
X13859Y05960D01*
X14038Y05958D01*
X14039Y05957D01*
X14039Y05958D01*
X14048Y05957D01*
X14067Y05961D01*
X14104Y05966D01*
X14110Y05970D01*
X14112Y05970D01*
X14125Y05979D01*
X14161Y05999D01*
X14167Y06005D01*
X14168Y06005D01*
X14168Y06006D01*
X14353Y06168D01*
X14360Y06173D01*
X14378Y06198D01*
X14396Y06217D01*
X14400Y06225D01*
X14689Y06732D01*
X14689Y06686D01*
X14708Y06639D01*
X14744Y06602D01*
X14792Y06582D01*
X14843Y06582D01*
X15293Y06582D01*
X15297Y06584D01*
X15324Y06584D01*
X15382Y06560D01*
X15483Y06560D01*
X15576Y06598D01*
X15647Y06669D01*
X15686Y06762D01*
X15686Y06863D01*
X15648Y06956D01*
X15577Y07027D01*
X15484Y07066D01*
X15383Y07066D01*
X15314Y07038D01*
X15298Y07038D01*
X15294Y07040D01*
X15243Y07040D01*
X14910Y07040D01*
X15367Y07555D01*
X15367Y07556D01*
X15375Y07564D01*
X16411Y08574D01*
X16417Y08579D01*
X16417Y08580D01*
X17234Y09296D01*
X17395Y09228D01*
X17603Y09228D01*
X17795Y09307D01*
X17942Y09454D01*
X18000Y09593D01*
X18057Y09455D01*
X18204Y09308D01*
X18395Y09228D01*
X18603Y09228D01*
X18795Y09307D01*
X18942Y09454D01*
X19022Y09645D01*
X19022Y09853D01*
X18943Y10045D01*
X18796Y10192D01*
X18605Y10272D01*
X18397Y10272D01*
X18205Y10193D01*
X18058Y10046D01*
X17999Y09908D01*
X17943Y10045D01*
X17796Y10192D01*
X17605Y10272D01*
X17397Y10272D01*
X17205Y10193D01*
X17058Y10046D01*
X16978Y09855D01*
X16978Y09647D01*
X17017Y09551D01*
X16975Y09515D01*
X16975Y09833D01*
X16907Y10009D01*
X16895Y10026D01*
X16832Y10069D01*
X16819Y10056D01*
X16819Y10082D01*
X16776Y10145D01*
X16605Y10221D01*
X16417Y10225D01*
X16241Y10157D01*
X16224Y10145D01*
X16181Y10082D01*
X16500Y09763D01*
X16819Y10082D01*
X16819Y10056D01*
X16513Y09750D01*
X16832Y09431D01*
X16895Y09474D01*
X16971Y09645D01*
X16975Y09833D01*
X16975Y09515D01*
X16819Y09378D01*
X16819Y09418D01*
X16500Y09737D01*
X16487Y09724D01*
X16487Y09750D01*
X16168Y10069D01*
X16105Y10026D01*
X16029Y09855D01*
X16025Y09667D01*
X16093Y09491D01*
X16105Y09474D01*
X16168Y09431D01*
X16487Y09750D01*
X16487Y09724D01*
X16181Y09418D01*
X16224Y09355D01*
X16395Y09279D01*
X16583Y09275D01*
X16759Y09343D01*
X16776Y09355D01*
X16819Y09418D01*
X16819Y09378D01*
X16189Y08826D01*
X16185Y08822D01*
X16183Y08820D01*
X15845Y08491D01*
X15819Y08554D01*
X15755Y08619D01*
X15671Y08654D01*
X15596Y08654D01*
X15449Y08761D01*
X15429Y08770D01*
X15414Y08780D01*
X15400Y08783D01*
X15389Y08788D01*
X15370Y08789D01*
X15350Y08793D01*
X14550Y08793D01*
X14485Y08780D01*
X14463Y08766D01*
X14431Y08744D01*
X14429Y08742D01*
X14331Y08644D01*
X14310Y08613D01*
X14299Y08597D01*
X14298Y08594D01*
X14295Y08589D01*
X14287Y08551D01*
X14283Y08534D01*
X14282Y08529D01*
X14282Y08525D01*
X14282Y08524D01*
X14278Y08467D01*
X14178Y08567D01*
X14030Y08628D01*
X13895Y08628D01*
X13947Y08676D01*
X14862Y09044D01*
X14881Y09057D01*
X14904Y09068D01*
X14917Y09080D01*
X15207Y09307D01*
X15395Y09228D01*
X15603Y09228D01*
X15795Y09307D01*
X15942Y09454D01*
X16022Y09645D01*
X16022Y09853D01*
X15943Y10045D01*
X15796Y10192D01*
X15605Y10272D01*
X15397Y10272D01*
X15205Y10193D01*
X15058Y10046D01*
X14999Y09908D01*
X14943Y10045D01*
X14796Y10192D01*
X14605Y10272D01*
X14397Y10272D01*
X14205Y10193D01*
X14058Y10046D01*
X13999Y09908D01*
X13943Y10045D01*
X13796Y10192D01*
X13605Y10272D01*
X13397Y10272D01*
X13205Y10193D01*
X13058Y10046D01*
X12999Y09908D01*
X12943Y10045D01*
X12796Y10192D01*
X12605Y10272D01*
X12397Y10272D01*
X12205Y10193D01*
X12058Y10046D01*
X11999Y09908D01*
X11943Y10045D01*
X11796Y10192D01*
X11605Y10272D01*
X11397Y10272D01*
X11205Y10193D01*
X11058Y10046D01*
X10978Y09855D01*
X10978Y09647D01*
X11057Y09455D01*
X11204Y09308D01*
X11276Y09278D01*
X11238Y09262D01*
X10975Y09362D01*
X10975Y09833D01*
X10907Y10009D01*
X10895Y10026D01*
X10832Y10069D01*
X10819Y10056D01*
X10819Y10082D01*
X10776Y10145D01*
X10605Y10221D01*
X10417Y10225D01*
X10241Y10157D01*
X10224Y10145D01*
X10181Y10082D01*
X10500Y09763D01*
X10819Y10082D01*
X10819Y10056D01*
X10513Y09750D01*
X10832Y09431D01*
X10895Y09474D01*
X10971Y09645D01*
X10975Y09833D01*
X10975Y09362D01*
X10934Y09377D01*
X10905Y09382D01*
X10883Y09388D01*
X10801Y09393D01*
X10819Y09418D01*
X10535Y09702D01*
X10500Y09737D01*
X10487Y09750D01*
X10452Y09785D01*
X10168Y10069D01*
X10105Y10026D01*
X10029Y09855D01*
X10025Y09667D01*
X10080Y09524D01*
X10073Y09527D01*
X09991Y09574D01*
X10022Y09645D01*
X10022Y09853D01*
X09943Y10045D01*
X09796Y10192D01*
X09605Y10272D01*
X09397Y10272D01*
X09205Y10193D01*
X09058Y10046D01*
X08999Y09908D01*
X08943Y10045D01*
X08796Y10192D01*
X08605Y10272D01*
X08397Y10272D01*
X08205Y10193D01*
X08058Y10046D01*
X07999Y09908D01*
X07943Y10045D01*
X07796Y10192D01*
X07605Y10272D01*
X07397Y10272D01*
X07205Y10193D01*
X07058Y10046D01*
X06978Y09855D01*
X06978Y09647D01*
X07057Y09455D01*
X07169Y09343D01*
X06975Y09343D01*
X06975Y09833D01*
X06907Y10009D01*
X06895Y10026D01*
X06832Y10069D01*
X06819Y10056D01*
X06819Y10082D01*
X06776Y10145D01*
X06605Y10221D01*
X06417Y10225D01*
X06241Y10157D01*
X06224Y10145D01*
X06181Y10082D01*
X06500Y09763D01*
X06819Y10082D01*
X06819Y10056D01*
X06513Y09750D01*
X06832Y09431D01*
X06895Y09474D01*
X06971Y09645D01*
X06975Y09833D01*
X06975Y09343D01*
X06759Y09343D01*
X06776Y09355D01*
X06819Y09418D01*
X06500Y09737D01*
X06487Y09724D01*
X06487Y09750D01*
X06168Y10069D01*
X06105Y10026D01*
X06029Y09855D01*
X06025Y09667D01*
X06093Y09491D01*
X06105Y09474D01*
X06168Y09431D01*
X06487Y09750D01*
X06487Y09724D01*
X06181Y09418D01*
X06224Y09355D01*
X06251Y09343D01*
X05831Y09343D01*
X05942Y09454D01*
X06022Y09645D01*
X06022Y09853D01*
X05943Y10045D01*
X05796Y10192D01*
X05605Y10272D01*
X05397Y10272D01*
X05205Y10193D01*
X05058Y10046D01*
X04999Y09908D01*
X04943Y10045D01*
X04796Y10192D01*
X04605Y10272D01*
X04397Y10272D01*
X04205Y10193D01*
X04058Y10046D01*
X03978Y09855D01*
X03978Y09647D01*
X04057Y09455D01*
X04169Y09343D01*
X03975Y09343D01*
X03975Y09833D01*
X03907Y10009D01*
X03895Y10026D01*
X03832Y10069D01*
X03819Y10056D01*
X03819Y10082D01*
X03776Y10145D01*
X03605Y10221D01*
X03417Y10225D01*
X03241Y10157D01*
X03224Y10145D01*
X03181Y10082D01*
X03500Y09763D01*
X03819Y10082D01*
X03819Y10056D01*
X03513Y09750D01*
X03832Y09431D01*
X03895Y09474D01*
X03971Y09645D01*
X03975Y09833D01*
X03975Y09343D01*
X03759Y09343D01*
X03776Y09355D01*
X03819Y09418D01*
X03535Y09702D01*
X03500Y09737D01*
X03487Y09750D01*
X03452Y09785D01*
X03168Y10069D01*
X03105Y10026D01*
X03029Y09855D01*
X03025Y09667D01*
X03043Y09620D01*
X03017Y09636D01*
X03022Y09645D01*
X03022Y09853D01*
X02943Y10045D01*
X02796Y10192D01*
X02605Y10272D01*
X02397Y10272D01*
X02205Y10193D01*
X02058Y10046D01*
X01999Y09908D01*
X01943Y10045D01*
X01796Y10192D01*
X01605Y10272D01*
X01397Y10272D01*
X01205Y10193D01*
X01058Y10046D01*
X00978Y09855D01*
X00978Y09647D01*
X01057Y09455D01*
X01204Y09308D01*
X01395Y09228D01*
X01603Y09228D01*
X01795Y09307D01*
X01805Y09318D01*
X02062Y09130D01*
X02022Y09122D01*
X01936Y09064D01*
X01885Y08989D01*
X01885Y09076D01*
X01866Y09123D01*
X01830Y09160D01*
X01782Y09180D01*
X01731Y09180D01*
X01377Y09180D01*
X01330Y09161D01*
X01293Y09125D01*
X01289Y09117D01*
X01250Y09117D01*
X01197Y09117D01*
X01185Y09147D01*
X01149Y09184D01*
X01101Y09204D01*
X01050Y09204D01*
X00975Y09204D01*
X00975Y09833D01*
X00907Y10009D01*
X00895Y10026D01*
X00832Y10069D01*
X00513Y09750D01*
X00832Y09431D01*
X00895Y09474D01*
X00971Y09645D01*
X00975Y09833D01*
X00975Y09204D01*
X00819Y09204D01*
X00800Y09204D01*
X00753Y09185D01*
X00716Y09149D01*
X00696Y09101D01*
X00696Y09050D01*
X00696Y08917D01*
X00683Y08850D01*
X00696Y08784D01*
X00696Y08600D01*
X00715Y08553D01*
X00751Y08516D01*
X00799Y08496D01*
X00850Y08496D01*
X01023Y08496D01*
X01023Y08370D01*
X00830Y08177D01*
X00779Y08177D01*
X00779Y08200D01*
X00760Y08247D01*
X00724Y08284D01*
X00676Y08304D01*
X00625Y08304D01*
X00375Y08304D01*
X00328Y08285D01*
X00291Y08249D01*
X00271Y08201D01*
X00271Y08150D01*
X00271Y07700D01*
X00281Y07675D01*
X00216Y07653D01*
X00212Y07651D01*
X00203Y07649D01*
X00172Y07629D01*
X00152Y07617D01*
X00148Y07613D01*
X00142Y07608D01*
X00140Y07606D01*
X00140Y07919D01*
X00140Y07981D01*
X00139Y08157D01*
X00139Y08192D01*
X00126Y08225D01*
X00101Y08250D01*
X00068Y08264D01*
X-00044Y08265D01*
X-00066Y08243D01*
X-00066Y07959D01*
X00118Y07959D01*
X00140Y07981D01*
X00140Y07919D01*
X00118Y07941D01*
X-00066Y07941D01*
X-00066Y07657D01*
X-00044Y07635D01*
X00068Y07636D01*
X00101Y07650D01*
X00126Y07675D01*
X00139Y07708D01*
X00139Y07743D01*
X00140Y07919D01*
X00140Y07606D01*
X00122Y07579D01*
X00107Y07559D01*
X00105Y07554D01*
X00101Y07547D01*
X00097Y07529D01*
X00025Y07529D01*
X-00022Y07510D01*
X-00059Y07474D01*
X-00079Y07426D01*
X-00079Y07375D01*
X-00079Y07125D01*
X-00060Y07078D01*
X-00024Y07041D01*
X00024Y07021D01*
X00075Y07021D01*
X00525Y07021D01*
X00572Y07040D01*
X00604Y07072D01*
X00596Y07051D01*
X00596Y07000D01*
X00596Y06887D01*
X00574Y06909D01*
X00526Y06929D01*
X00475Y06929D01*
X00025Y06929D01*
X-00005Y06918D01*
X-00057Y07045D01*
X-00084Y07072D01*
X-00084Y07657D01*
X-00084Y07941D01*
X-00084Y07959D01*
X-00084Y08243D01*
X-00106Y08265D01*
X-00135Y08265D01*
X-00135Y08719D01*
X-00157Y08741D01*
X-00491Y08741D01*
X-00491Y08407D01*
X-00469Y08385D01*
X-00207Y08386D01*
X-00174Y08400D01*
X-00149Y08425D01*
X-00136Y08458D01*
X-00136Y08493D01*
X-00135Y08719D01*
X-00135Y08265D01*
X-00218Y08264D01*
X-00251Y08250D01*
X-00276Y08225D01*
X-00289Y08192D01*
X-00289Y08157D01*
X-00290Y07981D01*
X-00268Y07959D01*
X-00084Y07959D01*
X-00084Y07941D01*
X-00268Y07941D01*
X-00290Y07919D01*
X-00289Y07743D01*
X-00289Y07708D01*
X-00276Y07675D01*
X-00251Y07650D01*
X-00218Y07636D01*
X-00106Y07635D01*
X-00084Y07657D01*
X-00084Y07072D01*
X-00204Y07192D01*
X-00395Y07272D01*
X-00509Y07272D01*
X-00509Y08407D01*
X-00509Y08741D01*
X-00843Y08741D01*
X-00865Y08719D01*
X-00864Y08493D01*
X-00864Y08458D01*
X-00851Y08425D01*
X-00826Y08400D01*
X-00793Y08386D01*
X-00531Y08385D01*
X-00509Y08407D01*
X-00509Y07272D01*
X-00603Y07272D01*
X-00795Y07193D01*
X-00942Y07046D01*
X-01022Y06855D01*
X-01022Y06647D01*
X-00943Y06455D01*
X-00796Y06308D01*
X-00658Y06250D01*
X-00795Y06193D01*
X-00942Y06046D01*
X-01022Y05855D01*
X-01022Y05647D01*
X-00943Y05455D01*
X-00796Y05308D01*
X-00658Y05250D01*
X-00795Y05193D01*
X-00942Y05046D01*
X-01022Y04855D01*
X-01022Y04647D01*
X-00943Y04455D01*
X-00796Y04308D01*
X-00658Y04250D01*
X-00795Y04193D01*
X-00942Y04046D01*
X-01022Y03855D01*
X-01022Y03647D01*
X-00943Y03455D01*
X-00796Y03308D01*
X-00605Y03228D01*
X-00397Y03228D01*
X-00368Y03240D01*
X-00313Y03185D01*
X-00395Y03221D01*
X-00583Y03225D01*
X-00759Y03157D01*
X-00776Y03145D01*
X-00819Y03082D01*
X-00535Y02798D01*
X-00500Y02763D01*
X-00487Y02750D01*
X-00452Y02715D01*
X-00168Y02431D01*
X-00105Y02474D01*
X-00029Y02645D01*
X-00025Y02833D01*
X-00093Y03009D01*
X-00105Y03026D01*
X-00126Y03041D01*
X-00120Y03047D01*
X-00050Y03033D01*
X00215Y03033D01*
X00174Y02918D01*
X00174Y02759D01*
X00441Y02759D01*
X00491Y02759D01*
X00509Y02759D01*
X00559Y02759D01*
X00826Y02759D01*
X00826Y02918D01*
X00784Y03033D01*
X00996Y03033D01*
X00996Y03025D01*
X00996Y02775D01*
X01015Y02728D01*
X01051Y02691D01*
X01099Y02671D01*
X01150Y02671D01*
X01283Y02671D01*
X01350Y02658D01*
X01416Y02671D01*
X01600Y02671D01*
X01647Y02690D01*
X01684Y02726D01*
X01687Y02734D01*
X01687Y02700D01*
X01687Y02696D01*
X01687Y02690D01*
X01695Y02658D01*
X01701Y02628D01*
X01703Y02624D01*
X01705Y02619D01*
X01725Y02592D01*
X01742Y02567D01*
X01745Y02565D01*
X01749Y02560D01*
X01963Y02368D01*
X01964Y02367D01*
X01965Y02367D01*
X01971Y02361D01*
X01989Y02350D01*
X02025Y02326D01*
X02030Y02325D01*
X02034Y02323D01*
X02056Y02320D01*
X02088Y02314D01*
X02085Y02314D01*
X02048Y02313D01*
X02015Y02299D01*
X01990Y02274D01*
X01977Y02241D01*
X01977Y02206D01*
X01976Y02157D01*
X01998Y02135D01*
X02085Y02135D01*
X02135Y02135D01*
X02153Y02135D01*
X02203Y02135D01*
X02254Y02135D01*
X02290Y02135D01*
X02341Y02135D01*
X02391Y02135D01*
X02409Y02135D01*
X02409Y02117D01*
X02409Y02067D01*
X02409Y01960D01*
X02431Y01938D01*
X02484Y01939D01*
X02504Y01919D01*
X02552Y01899D01*
X02603Y01899D01*
X02759Y01899D01*
X02806Y01918D01*
X02843Y01954D01*
X02863Y02002D01*
X02863Y02053D01*
X02863Y02121D01*
X02942Y02042D01*
X03003Y02001D01*
X03075Y01987D01*
X03997Y01987D01*
X04101Y01958D01*
X04230Y01829D01*
X04190Y01829D01*
X04189Y01830D01*
X04131Y01842D01*
X04131Y01857D01*
X04112Y01904D01*
X04076Y01941D01*
X04028Y01961D01*
X03977Y01961D01*
X03663Y01961D01*
X03616Y01942D01*
X03579Y01906D01*
X03559Y01858D01*
X03559Y01807D01*
X03559Y01493D01*
X03578Y01446D01*
X03614Y01409D01*
X03662Y01389D01*
X03713Y01389D01*
X04027Y01389D01*
X04069Y01407D01*
X04070Y01406D01*
X04154Y01371D01*
X04245Y01371D01*
X04329Y01406D01*
X04394Y01470D01*
X04429Y01554D01*
X04429Y01638D01*
X04699Y01435D01*
X04712Y01425D01*
X04739Y01412D01*
X04762Y01398D01*
X04776Y01393D01*
X04778Y01392D01*
X04924Y01340D01*
X04801Y01280D01*
X04778Y01263D01*
X04755Y01247D01*
X04728Y01221D01*
X04605Y01272D01*
X04397Y01272D01*
X04205Y01193D01*
X04058Y01046D01*
X03999Y00908D01*
X03943Y01045D01*
X03796Y01192D01*
X03605Y01272D01*
X03397Y01272D01*
X03268Y01220D01*
X03118Y01370D01*
X03118Y01389D01*
X03123Y01389D01*
X03437Y01389D01*
X03484Y01408D01*
X03521Y01444D01*
X03541Y01492D01*
X03541Y01543D01*
X03541Y01857D01*
X03522Y01904D01*
X03486Y01941D01*
X03438Y01961D01*
X03387Y01961D01*
X03073Y01961D01*
X03026Y01942D01*
X02989Y01906D01*
X02969Y01858D01*
X02969Y01837D01*
X02936Y01830D01*
X02881Y01794D01*
X02879Y01792D01*
X02831Y01744D01*
X02795Y01689D01*
X02782Y01625D01*
X02782Y01300D01*
X02795Y01236D01*
X02831Y01181D01*
X03030Y00982D01*
X02978Y00855D01*
X02978Y00647D01*
X03057Y00455D01*
X03204Y00308D01*
X03395Y00228D01*
X03603Y00228D01*
X03795Y00307D01*
X03942Y00454D01*
X04000Y00593D01*
X04057Y00455D01*
X04204Y00308D01*
X04395Y00228D01*
X04603Y00228D01*
X04795Y00307D01*
X04942Y00454D01*
X05000Y00593D01*
X05057Y00455D01*
X05204Y00308D01*
X05395Y00228D01*
X05603Y00228D01*
X05795Y00307D01*
X05942Y00454D01*
X06000Y00593D01*
X06057Y00455D01*
X06204Y00308D01*
X06395Y00228D01*
X06603Y00228D01*
X06795Y00307D01*
X06942Y00454D01*
X07022Y00645D01*
X07022Y00853D01*
X06943Y01045D01*
X06881Y01107D01*
X07198Y01107D01*
X07181Y01082D01*
X07500Y00763D01*
X07819Y01082D01*
X07801Y01107D01*
X08119Y01107D01*
X08058Y01046D01*
X07978Y00855D01*
X07978Y00647D01*
X08057Y00455D01*
X08204Y00308D01*
X08395Y00228D01*
X08603Y00228D01*
X08795Y00307D01*
X08942Y00454D01*
X09000Y00593D01*
X09057Y00455D01*
X09204Y00308D01*
X09395Y00228D01*
X09603Y00228D01*
X09795Y00307D01*
X09942Y00454D01*
X10000Y00593D01*
X10057Y00455D01*
X10204Y00308D01*
X10395Y00228D01*
X10603Y00228D01*
X10795Y00307D01*
X10942Y00454D01*
X11000Y00593D01*
X11057Y00455D01*
X11204Y00308D01*
X11395Y00228D01*
X11603Y00228D01*
X11795Y00307D01*
X11942Y00454D01*
X12022Y00645D01*
X12022Y00853D01*
X11955Y01015D01*
X12048Y01121D01*
X12070Y01121D01*
X12154Y01156D01*
X12219Y01220D01*
X12254Y01304D01*
X12254Y01395D01*
X12239Y01430D01*
X12646Y01474D01*
X12646Y01405D01*
X12681Y01321D01*
X12745Y01256D01*
X12829Y01221D01*
X12854Y01221D01*
X13043Y01011D01*
X12978Y00855D01*
X12978Y00647D01*
X13057Y00455D01*
X13204Y00308D01*
X13395Y00228D01*
X13603Y00228D01*
X13795Y00307D01*
X13942Y00454D01*
X14000Y00593D01*
X14057Y00455D01*
X14204Y00308D01*
X14395Y00228D01*
X14603Y00228D01*
X14795Y00307D01*
X14942Y00454D01*
X15000Y00593D01*
X15057Y00455D01*
X15204Y00308D01*
X15395Y00228D01*
X15603Y00228D01*
X15795Y00307D01*
X15942Y00454D01*
X16000Y00593D01*
X16057Y00455D01*
X16204Y00308D01*
X16395Y00228D01*
X16603Y00228D01*
X16795Y00307D01*
X16942Y00454D01*
X17000Y00593D01*
X17057Y00455D01*
X17204Y00308D01*
X17395Y00228D01*
X17509Y00228D01*
X17459Y00108D01*
X17459Y-00107D01*
X17541Y-00306D01*
X17581Y-00346D01*
X12975Y-00346D01*
X12975Y00833D01*
X12907Y01009D01*
X12895Y01026D01*
X12832Y01069D01*
X12819Y01056D01*
X12819Y01082D01*
X12776Y01145D01*
X12605Y01221D01*
X12417Y01225D01*
X12241Y01157D01*
X12224Y01145D01*
X12181Y01082D01*
X12500Y00763D01*
X12819Y01082D01*
X12819Y01056D01*
X12513Y00750D01*
X12832Y00431D01*
X12895Y00474D01*
X12971Y00645D01*
X12975Y00833D01*
X12975Y-00346D01*
X12819Y-00346D01*
X12819Y00418D01*
X12500Y00737D01*
X12487Y00724D01*
X12487Y00750D01*
X12168Y01069D01*
X12105Y01026D01*
X12029Y00855D01*
X12025Y00667D01*
X12093Y00491D01*
X12105Y00474D01*
X12168Y00431D01*
X12487Y00750D01*
X12487Y00724D01*
X12181Y00418D01*
X12224Y00355D01*
X12395Y00279D01*
X12583Y00275D01*
X12759Y00343D01*
X12776Y00355D01*
X12819Y00418D01*
X12819Y-00346D01*
X07975Y-00346D01*
X07975Y00833D01*
X07907Y01009D01*
X07895Y01026D01*
X07832Y01069D01*
X07513Y00750D01*
X07832Y00431D01*
X07895Y00474D01*
X07971Y00645D01*
X07975Y00833D01*
X07975Y-00346D01*
X07819Y-00346D01*
X07819Y00418D01*
X07500Y00737D01*
X07487Y00724D01*
X07487Y00750D01*
X07168Y01069D01*
X07105Y01026D01*
X07029Y00855D01*
X07025Y00667D01*
X07093Y00491D01*
X07105Y00474D01*
X07168Y00431D01*
X07487Y00750D01*
X07487Y00724D01*
X07181Y00418D01*
X07224Y00355D01*
X07395Y00279D01*
X07583Y00275D01*
X07759Y00343D01*
X07776Y00355D01*
X07819Y00418D01*
X07819Y-00346D01*
X02975Y-00346D01*
X02975Y00833D01*
X02907Y01009D01*
X02895Y01026D01*
X02832Y01069D01*
X02819Y01056D01*
X02819Y01082D01*
X02776Y01145D01*
X02605Y01221D01*
X02417Y01225D01*
X02391Y01215D01*
X02391Y01960D01*
X02391Y02117D01*
X02290Y02117D01*
X02254Y02117D01*
X02153Y02117D01*
X02153Y01960D01*
X02175Y01938D01*
X02240Y01939D01*
X02271Y01953D01*
X02272Y01953D01*
X02273Y01953D01*
X02304Y01939D01*
X02369Y01938D01*
X02391Y01960D01*
X02391Y01215D01*
X02241Y01157D01*
X02224Y01145D01*
X02181Y01082D01*
X02500Y00763D01*
X02819Y01082D01*
X02819Y01056D01*
X02513Y00750D01*
X02832Y00431D01*
X02895Y00474D01*
X02971Y00645D01*
X02975Y00833D01*
X02975Y-00346D01*
X02819Y-00346D01*
X02819Y00418D01*
X02500Y00737D01*
X02487Y00724D01*
X02487Y00750D01*
X02168Y01069D01*
X02135Y01047D01*
X02135Y01960D01*
X02135Y02117D01*
X01998Y02117D01*
X01976Y02095D01*
X01977Y02046D01*
X01977Y02011D01*
X01990Y01978D01*
X02015Y01953D01*
X02048Y01939D01*
X02113Y01938D01*
X02135Y01960D01*
X02135Y01047D01*
X02105Y01026D01*
X02029Y00855D01*
X02025Y00667D01*
X02093Y00491D01*
X02105Y00474D01*
X02168Y00431D01*
X02487Y00750D01*
X02487Y00724D01*
X02181Y00418D01*
X02224Y00355D01*
X02395Y00279D01*
X02583Y00275D01*
X02759Y00343D01*
X02776Y00355D01*
X02819Y00418D01*
X02819Y-00346D01*
X00419Y-00346D01*
X00458Y-00307D01*
X00541Y-00108D01*
X00541Y00107D01*
X00470Y00278D01*
X00583Y00275D01*
X00759Y00343D01*
X00776Y00355D01*
X00819Y00418D01*
X00535Y00702D01*
X00500Y00737D01*
X00487Y00750D01*
X00452Y00785D01*
X00168Y01069D01*
X00105Y01026D01*
X00029Y00855D01*
X00025Y00667D01*
X00073Y00541D01*
X-00022Y00541D01*
X00022Y00645D01*
X00022Y00853D01*
X-00057Y01045D01*
X-00110Y01098D01*
X00191Y01098D01*
X00181Y01082D01*
X00465Y00798D01*
X00500Y00763D01*
X00513Y00750D01*
X00548Y00715D01*
X00832Y00431D01*
X00895Y00474D01*
X00971Y00645D01*
X00975Y00833D01*
X00962Y00867D01*
X00978Y00851D01*
X00978Y00647D01*
X01057Y00455D01*
X01204Y00308D01*
X01395Y00228D01*
X01603Y00228D01*
X01795Y00307D01*
X01942Y00454D01*
X02022Y00645D01*
X02022Y00853D01*
X02015Y00871D01*
X02015Y01594D01*
X02015Y01656D01*
X02014Y01832D01*
X02014Y01867D01*
X02001Y01900D01*
X01976Y01925D01*
X01943Y01939D01*
X01831Y01940D01*
X01809Y01918D01*
X01809Y01634D01*
X01993Y01634D01*
X02015Y01656D01*
X02015Y01594D01*
X01993Y01616D01*
X01809Y01616D01*
X01809Y01332D01*
X01831Y01310D01*
X01943Y01311D01*
X01976Y01325D01*
X02001Y01350D01*
X02014Y01383D01*
X02014Y01418D01*
X02015Y01594D01*
X02015Y00871D01*
X01943Y01045D01*
X01796Y01192D01*
X01791Y01195D01*
X01791Y01332D01*
X01791Y01616D01*
X01791Y01634D01*
X01791Y01918D01*
X01769Y01940D01*
X01657Y01939D01*
X01624Y01925D01*
X01599Y01900D01*
X01586Y01867D01*
X01586Y01832D01*
X01585Y01656D01*
X01607Y01634D01*
X01791Y01634D01*
X01791Y01616D01*
X01607Y01616D01*
X01585Y01594D01*
X01586Y01418D01*
X01586Y01383D01*
X01599Y01350D01*
X01624Y01325D01*
X01657Y01311D01*
X01769Y01310D01*
X01791Y01332D01*
X01791Y01195D01*
X01605Y01272D01*
X01397Y01272D01*
X01257Y01215D01*
X01200Y01271D01*
X01350Y01271D01*
X01397Y01290D01*
X01434Y01326D01*
X01454Y01374D01*
X01454Y01425D01*
X01454Y01875D01*
X01446Y01894D01*
X01466Y01905D01*
X01484Y01922D01*
X01511Y01939D01*
X01521Y01955D01*
X01532Y01964D01*
X01542Y01988D01*
X01560Y02013D01*
X01563Y02032D01*
X01570Y02045D01*
X01571Y02070D01*
X01571Y02071D01*
X01600Y02071D01*
X01647Y02090D01*
X01684Y02126D01*
X01704Y02174D01*
X01704Y02225D01*
X01704Y02475D01*
X01685Y02522D01*
X01649Y02559D01*
X01601Y02579D01*
X01550Y02579D01*
X01100Y02579D01*
X01053Y02560D01*
X01016Y02524D01*
X00996Y02476D01*
X00996Y02425D01*
X00996Y02253D01*
X00913Y02235D01*
X00839Y02186D01*
X00837Y02184D01*
X00826Y02173D01*
X00826Y02582D01*
X00826Y02741D01*
X00509Y02741D01*
X00509Y02329D01*
X00560Y02312D01*
X00695Y02366D01*
X00782Y02461D01*
X00826Y02582D01*
X00826Y02173D01*
X00783Y02130D01*
X00773Y02130D01*
X00491Y02130D01*
X00491Y02329D01*
X00491Y02741D01*
X00174Y02741D01*
X00174Y02582D01*
X00218Y02461D01*
X00305Y02366D01*
X00440Y02312D01*
X00491Y02329D01*
X00491Y02130D01*
X00419Y02130D01*
X00372Y02111D01*
X00335Y02075D01*
X00315Y02027D01*
X00315Y01976D01*
X00315Y01574D01*
X00323Y01552D01*
X-00181Y01552D01*
X-00181Y02418D01*
X-00500Y02737D01*
X-00513Y02724D01*
X-00513Y02750D01*
X-00832Y03069D01*
X-00895Y03026D01*
X-00971Y02855D01*
X-00975Y02667D01*
X-00907Y02491D01*
X-00895Y02474D01*
X-00832Y02431D01*
X-00513Y02750D01*
X-00513Y02724D01*
X-00819Y02418D01*
X-00776Y02355D01*
X-00605Y02279D01*
X-00417Y02275D01*
X-00241Y02343D01*
X-00224Y02355D01*
X-00181Y02418D01*
X-00181Y01552D01*
X-00374Y01552D01*
X-00365Y01573D01*
X-00365Y01624D01*
X-00365Y02026D01*
X-00384Y02073D01*
X-00420Y02110D01*
X-00468Y02130D01*
X-00519Y02130D01*
X-00873Y02130D01*
X-00920Y02111D01*
X-00940Y02092D01*
X-01059Y02212D01*
X-01083Y06864D01*
X-00934Y07068D01*
X-00921Y07097D01*
X-00903Y07123D01*
X-00900Y07143D01*
X-00890Y07162D01*
X-00889Y07196D01*
X-00883Y07225D01*
X-00883Y07253D01*
X-00853Y07265D01*
X-00816Y07301D01*
X-00796Y07349D01*
X-00796Y07400D01*
X-00796Y07650D01*
X-00815Y07697D01*
X-00851Y07734D01*
X-00899Y07754D01*
X-00950Y07754D01*
X-01084Y07754D01*
X-01150Y07767D01*
X-01217Y07754D01*
X-01400Y07754D01*
X-01447Y07735D01*
X-01484Y07699D01*
X-01504Y07651D01*
X-01504Y07600D01*
X-01504Y07350D01*
X-01485Y07303D01*
X-01450Y07267D01*
X-01566Y07107D01*
X-01579Y07081D01*
X-01598Y07051D01*
X-01602Y07031D01*
X-01610Y07013D01*
X-01612Y06980D01*
X-01617Y06949D01*
X-01592Y02099D01*
X-01589Y02083D01*
X-01572Y01997D01*
X-01514Y01911D01*
X-01513Y01910D01*
X-01277Y01675D01*
X-01277Y01575D01*
X-01271Y01544D01*
X-01268Y01512D01*
X-01263Y01502D01*
X-01260Y01488D01*
X-01240Y01457D01*
X-01227Y01433D01*
X-01027Y01183D01*
X-01020Y01177D01*
X-01011Y01164D01*
X-00980Y01143D01*
X-00959Y01126D01*
X-00949Y01123D01*
X-00937Y01115D01*
X-00906Y01109D01*
X-00886Y01103D01*
X-00942Y01046D01*
X-01022Y00855D01*
X-01022Y00647D01*
X-00943Y00455D01*
X-00796Y00308D01*
X-00605Y00228D01*
X-00491Y00228D01*
X-00541Y00108D01*
X-00541Y-00107D01*
X-00459Y-00306D01*
X-00419Y-00346D01*
X-00613Y-00346D01*
X-01896Y01031D01*
X-01896Y09791D01*
X-01643Y10070D01*
X-00966Y10746D01*
X-00484Y10746D01*
X-00541Y10608D01*
X-00541Y10393D01*
X-00492Y10272D01*
X-00603Y10272D01*
X-00795Y10193D01*
X-00942Y10046D01*
X-01022Y09855D01*
X-01022Y09647D01*
X-01010Y09618D01*
X-01339Y09289D01*
X-01397Y09203D01*
X-01417Y09100D01*
X-01417Y08348D01*
X-01447Y08335D01*
X-01484Y08299D01*
X-01504Y08251D01*
X-01504Y08200D01*
X-01504Y07950D01*
X-01485Y07903D01*
X-01449Y07866D01*
X-01401Y07846D01*
X-01350Y07846D01*
X-01217Y07846D01*
X-01150Y07833D01*
X-01084Y07846D01*
X-00900Y07846D01*
X-00853Y07865D01*
X-00816Y07901D01*
X-00796Y07949D01*
X-00796Y08000D01*
X-00796Y08250D01*
X-00815Y08297D01*
X-00851Y08334D01*
X-00883Y08348D01*
X-00883Y08990D01*
X-00864Y09009D01*
X-00864Y09007D01*
X-00865Y08781D01*
X-00843Y08759D01*
X-00509Y08759D01*
X-00509Y09093D01*
X-00531Y09115D01*
X-00759Y09115D01*
X-00633Y09240D01*
X-00605Y09228D01*
X-00397Y09228D01*
X-00391Y09231D01*
X-00286Y09115D01*
X-00469Y09115D01*
X-00491Y09093D01*
X-00491Y08759D01*
X-00157Y08759D01*
X-00148Y08769D01*
X-00039Y08661D01*
X-00038Y08660D01*
X-00009Y08641D01*
X00048Y08603D01*
X00049Y08603D01*
X00098Y08594D01*
X00115Y08553D01*
X00151Y08516D01*
X00199Y08496D01*
X00250Y08496D01*
X00500Y08496D01*
X00547Y08515D01*
X00584Y08551D01*
X00604Y08599D01*
X00604Y08650D01*
X00604Y08784D01*
X00617Y08850D01*
X00604Y08917D01*
X00604Y09100D01*
X00585Y09147D01*
X00549Y09184D01*
X00501Y09204D01*
X00450Y09204D01*
X00281Y09204D01*
X00277Y09226D01*
X00271Y09265D01*
X00268Y09270D01*
X00267Y09277D01*
X00237Y09322D01*
X00218Y09354D01*
X00209Y09364D01*
X00208Y09365D01*
X00203Y09370D01*
X00209Y09376D01*
X00224Y09355D01*
X00395Y09279D01*
X00583Y09275D01*
X00759Y09343D01*
X00776Y09355D01*
X00819Y09418D01*
X00535Y09702D01*
X00500Y09737D01*
X00487Y09750D01*
X00500Y09763D01*
X00535Y09798D01*
X00819Y10082D01*
X00776Y10145D01*
X00605Y10221D01*
X00470Y10224D01*
X00541Y10392D01*
X00541Y10607D01*
X00483Y10746D01*
X18816Y10746D01*
X19850Y09712D01*
X19850Y08800D01*
G54D10*
G36*
X19896Y00935D02*
X19425Y00464D01*
X18975Y00031D01*
X18975Y00833D01*
X18907Y01009D01*
X18895Y01026D01*
X18832Y01069D01*
X18819Y01056D01*
X18819Y01082D01*
X18776Y01145D01*
X18605Y01221D01*
X18417Y01225D01*
X18241Y01157D01*
X18224Y01145D01*
X18181Y01082D01*
X18500Y00763D01*
X18819Y01082D01*
X18819Y01056D01*
X18513Y00750D01*
X18832Y00431D01*
X18895Y00474D01*
X18971Y00645D01*
X18975Y00833D01*
X18975Y00031D01*
X18584Y-00346D01*
X18419Y-00346D01*
X18458Y-00307D01*
X18541Y-00108D01*
X18541Y00107D01*
X18470Y00278D01*
X18583Y00275D01*
X18759Y00343D01*
X18776Y00355D01*
X18819Y00418D01*
X18535Y00702D01*
X18500Y00737D01*
X18487Y00750D01*
X18452Y00785D01*
X18168Y01069D01*
X18105Y01026D01*
X18029Y00855D01*
X18025Y00667D01*
X18073Y00541D01*
X17978Y00541D01*
X18022Y00645D01*
X18022Y00853D01*
X17943Y01045D01*
X17796Y01192D01*
X17605Y01272D01*
X17397Y01272D01*
X17205Y01193D01*
X17178Y01167D01*
X16706Y01482D01*
X16505Y01660D01*
X16377Y01874D01*
X16139Y02588D01*
X17084Y01900D01*
X19896Y01900D01*
X19896Y00935D01*
X19896Y00935D01*
G37*
G54D46*
X19896Y00935D02*
X19425Y00464D01*
X18975Y00031D01*
X18975Y00833D01*
X18907Y01009D01*
X18895Y01026D01*
X18832Y01069D01*
X18819Y01056D01*
X18819Y01082D01*
X18776Y01145D01*
X18605Y01221D01*
X18417Y01225D01*
X18241Y01157D01*
X18224Y01145D01*
X18181Y01082D01*
X18500Y00763D01*
X18819Y01082D01*
X18819Y01056D01*
X18513Y00750D01*
X18832Y00431D01*
X18895Y00474D01*
X18971Y00645D01*
X18975Y00833D01*
X18975Y00031D01*
X18584Y-00346D01*
X18419Y-00346D01*
X18458Y-00307D01*
X18541Y-00108D01*
X18541Y00107D01*
X18470Y00278D01*
X18583Y00275D01*
X18759Y00343D01*
X18776Y00355D01*
X18819Y00418D01*
X18535Y00702D01*
X18500Y00737D01*
X18487Y00750D01*
X18452Y00785D01*
X18168Y01069D01*
X18105Y01026D01*
X18029Y00855D01*
X18025Y00667D01*
X18073Y00541D01*
X17978Y00541D01*
X18022Y00645D01*
X18022Y00853D01*
X17943Y01045D01*
X17796Y01192D01*
X17605Y01272D01*
X17397Y01272D01*
X17205Y01193D01*
X17178Y01167D01*
X16706Y01482D01*
X16505Y01660D01*
X16377Y01874D01*
X16139Y02588D01*
X17084Y01900D01*
X19896Y01900D01*
X19896Y00935D01*
G54D10*
G36*
X18039Y04497D02*
X18014Y04473D01*
X18015Y04494D01*
X17993Y04516D01*
X17709Y04516D01*
X17709Y04332D01*
X17731Y04310D01*
X17845Y04311D01*
X17718Y04189D01*
X17700Y04165D01*
X17696Y04163D01*
X17531Y04163D01*
X17504Y04181D01*
X17487Y04189D01*
X17469Y04200D01*
X17453Y04203D01*
X17437Y04210D01*
X17415Y04210D01*
X17397Y04213D01*
X17397Y04236D01*
X17397Y04357D01*
X17400Y04349D01*
X17425Y04324D01*
X17458Y04311D01*
X17493Y04311D01*
X17669Y04310D01*
X17691Y04332D01*
X17691Y04516D01*
X17407Y04516D01*
X17385Y04494D01*
X17385Y04466D01*
X17378Y04483D01*
X17342Y04520D01*
X17294Y04540D01*
X17243Y04540D01*
X16793Y04540D01*
X16765Y04529D01*
X16763Y04530D01*
X16672Y04530D01*
X16649Y04521D01*
X16615Y04535D01*
X16593Y04572D01*
X16593Y04680D01*
X16703Y05151D01*
X16708Y05139D01*
X16744Y05102D01*
X16792Y05082D01*
X16843Y05082D01*
X17216Y05082D01*
X17216Y05040D01*
X16793Y05040D01*
X16746Y05021D01*
X16709Y04985D01*
X16689Y04937D01*
X16689Y04886D01*
X16689Y04686D01*
X16708Y04639D01*
X16744Y04602D01*
X16792Y04582D01*
X16843Y04582D01*
X17293Y04582D01*
X17340Y04601D01*
X17377Y04637D01*
X17383Y04654D01*
X17385Y04655D01*
X17385Y04556D01*
X17407Y04534D01*
X17691Y04534D01*
X17691Y04718D01*
X17669Y04740D01*
X17493Y04739D01*
X17472Y04739D01*
X17517Y04828D01*
X17518Y04835D01*
X17522Y04839D01*
X17527Y04869D01*
X17528Y04871D01*
X17950Y04871D01*
X17991Y04888D01*
X17978Y04855D01*
X17978Y04723D01*
X17975Y04726D01*
X17942Y04739D01*
X17907Y04739D01*
X17731Y04740D01*
X17709Y04718D01*
X17709Y04534D01*
X17993Y04534D01*
X18015Y04556D01*
X18039Y04497D01*
X18039Y04497D01*
G37*
G54D46*
X18039Y04497D02*
X18014Y04473D01*
X18015Y04494D01*
X17993Y04516D01*
X17709Y04516D01*
X17709Y04332D01*
X17731Y04310D01*
X17845Y04311D01*
X17718Y04189D01*
X17700Y04165D01*
X17696Y04163D01*
X17531Y04163D01*
X17504Y04181D01*
X17487Y04189D01*
X17469Y04200D01*
X17453Y04203D01*
X17437Y04210D01*
X17415Y04210D01*
X17397Y04213D01*
X17397Y04236D01*
X17397Y04357D01*
X17400Y04349D01*
X17425Y04324D01*
X17458Y04311D01*
X17493Y04311D01*
X17669Y04310D01*
X17691Y04332D01*
X17691Y04516D01*
X17407Y04516D01*
X17385Y04494D01*
X17385Y04466D01*
X17378Y04483D01*
X17342Y04520D01*
X17294Y04540D01*
X17243Y04540D01*
X16793Y04540D01*
X16765Y04529D01*
X16763Y04530D01*
X16672Y04530D01*
X16649Y04521D01*
X16615Y04535D01*
X16593Y04572D01*
X16593Y04680D01*
X16703Y05151D01*
X16708Y05139D01*
X16744Y05102D01*
X16792Y05082D01*
X16843Y05082D01*
X17216Y05082D01*
X17216Y05040D01*
X16793Y05040D01*
X16746Y05021D01*
X16709Y04985D01*
X16689Y04937D01*
X16689Y04886D01*
X16689Y04686D01*
X16708Y04639D01*
X16744Y04602D01*
X16792Y04582D01*
X16843Y04582D01*
X17293Y04582D01*
X17340Y04601D01*
X17377Y04637D01*
X17383Y04654D01*
X17385Y04655D01*
X17385Y04556D01*
X17407Y04534D01*
X17691Y04534D01*
X17691Y04718D01*
X17669Y04740D01*
X17493Y04739D01*
X17472Y04739D01*
X17517Y04828D01*
X17518Y04835D01*
X17522Y04839D01*
X17527Y04869D01*
X17528Y04871D01*
X17950Y04871D01*
X17991Y04888D01*
X17978Y04855D01*
X17978Y04723D01*
X17975Y04726D01*
X17942Y04739D01*
X17907Y04739D01*
X17731Y04740D01*
X17709Y04718D01*
X17709Y04534D01*
X17993Y04534D01*
X18015Y04556D01*
X18039Y04497D01*
G54D10*
G36*
X19800Y02200D02*
X19022Y02194D01*
X19022Y03645D01*
X19022Y03853D01*
X18943Y04045D01*
X18796Y04192D01*
X18657Y04251D01*
X18795Y04307D01*
X18942Y04454D01*
X19022Y04645D01*
X19022Y04853D01*
X18943Y05045D01*
X18796Y05192D01*
X18657Y05251D01*
X18795Y05307D01*
X18942Y05454D01*
X19022Y05645D01*
X19022Y05853D01*
X18943Y06045D01*
X18796Y06192D01*
X18657Y06251D01*
X18795Y06307D01*
X18942Y06454D01*
X19022Y06645D01*
X19022Y06853D01*
X18943Y07045D01*
X18796Y07192D01*
X18657Y07251D01*
X18795Y07307D01*
X18942Y07454D01*
X19022Y07645D01*
X19022Y07853D01*
X18943Y08045D01*
X18796Y08192D01*
X18605Y08272D01*
X18397Y08272D01*
X18205Y08193D01*
X18058Y08046D01*
X18045Y08017D01*
X18044Y08019D01*
X18041Y08021D01*
X17944Y08119D01*
X17904Y08146D01*
X17904Y08250D01*
X17885Y08297D01*
X17849Y08334D01*
X17801Y08354D01*
X17750Y08354D01*
X17500Y08354D01*
X17453Y08335D01*
X17416Y08299D01*
X17396Y08251D01*
X17396Y08200D01*
X17396Y07750D01*
X17415Y07703D01*
X17451Y07666D01*
X17499Y07646D01*
X17550Y07646D01*
X17757Y07646D01*
X17757Y07636D01*
X17727Y07636D01*
X17413Y07636D01*
X17366Y07617D01*
X17329Y07581D01*
X17309Y07533D01*
X17309Y07482D01*
X17309Y07168D01*
X17328Y07121D01*
X17364Y07084D01*
X17412Y07064D01*
X17463Y07064D01*
X17759Y07064D01*
X17574Y06812D01*
X17565Y06794D01*
X17554Y06778D01*
X17550Y06763D01*
X17542Y06745D01*
X17541Y06737D01*
X17467Y06737D01*
X17420Y06718D01*
X17397Y06696D01*
X17397Y06736D01*
X17397Y06936D01*
X17378Y06983D01*
X17342Y07020D01*
X17294Y07040D01*
X17243Y07040D01*
X16953Y07040D01*
X16953Y07064D01*
X17187Y07064D01*
X17234Y07083D01*
X17271Y07119D01*
X17291Y07167D01*
X17291Y07218D01*
X17291Y07532D01*
X17272Y07579D01*
X17265Y07587D01*
X17265Y07969D01*
X17265Y08031D01*
X17264Y08207D01*
X17264Y08242D01*
X17251Y08275D01*
X17226Y08300D01*
X17193Y08314D01*
X17081Y08315D01*
X17059Y08293D01*
X17059Y08009D01*
X17243Y08009D01*
X17265Y08031D01*
X17265Y07969D01*
X17243Y07991D01*
X17059Y07991D01*
X17059Y07707D01*
X17081Y07685D01*
X17193Y07686D01*
X17226Y07700D01*
X17251Y07725D01*
X17264Y07758D01*
X17264Y07793D01*
X17265Y07969D01*
X17265Y07587D01*
X17236Y07616D01*
X17188Y07636D01*
X17137Y07636D01*
X17041Y07636D01*
X17041Y07707D01*
X17041Y07991D01*
X16857Y07991D01*
X16835Y07969D01*
X16836Y07793D01*
X16836Y07758D01*
X16849Y07725D01*
X16874Y07700D01*
X16907Y07686D01*
X17019Y07685D01*
X17041Y07707D01*
X17041Y07636D01*
X16823Y07636D01*
X16776Y07617D01*
X16739Y07581D01*
X16719Y07533D01*
X16719Y07518D01*
X16700Y07518D01*
X16699Y07518D01*
X16686Y07516D01*
X16636Y07505D01*
X16581Y07469D01*
X16579Y07467D01*
X16531Y07419D01*
X16495Y07364D01*
X16482Y07300D01*
X16482Y07185D01*
X16447Y07101D01*
X16447Y07000D01*
X16485Y06907D01*
X16493Y06899D01*
X16493Y06875D01*
X16497Y06852D01*
X16498Y06835D01*
X16504Y06820D01*
X16509Y06796D01*
X16520Y06780D01*
X16528Y06760D01*
X16543Y06745D01*
X16554Y06729D01*
X16569Y06719D01*
X16585Y06703D01*
X16660Y06653D01*
X16673Y06648D01*
X16686Y06638D01*
X16713Y06632D01*
X16717Y06630D01*
X16744Y06602D01*
X16792Y06582D01*
X16843Y06582D01*
X17293Y06582D01*
X17340Y06601D01*
X17363Y06624D01*
X17363Y06583D01*
X17363Y06333D01*
X17382Y06286D01*
X17418Y06249D01*
X17466Y06229D01*
X17517Y06229D01*
X17967Y06229D01*
X18014Y06248D01*
X18051Y06284D01*
X18071Y06332D01*
X18071Y06383D01*
X18071Y06441D01*
X18204Y06308D01*
X18342Y06250D01*
X18205Y06193D01*
X18063Y06052D01*
X18052Y06080D01*
X18016Y06117D01*
X17968Y06137D01*
X17917Y06137D01*
X17467Y06137D01*
X17420Y06118D01*
X17383Y06082D01*
X17363Y06034D01*
X17363Y05999D01*
X17358Y06004D01*
X17358Y06280D01*
X17358Y06342D01*
X17357Y06429D01*
X17343Y06462D01*
X17318Y06487D01*
X17285Y06500D01*
X17250Y06500D01*
X17074Y06501D01*
X17052Y06479D01*
X17052Y06320D01*
X17336Y06320D01*
X17358Y06342D01*
X17358Y06280D01*
X17336Y06302D01*
X17052Y06302D01*
X17052Y06143D01*
X17074Y06121D01*
X17250Y06122D01*
X17285Y06122D01*
X17318Y06135D01*
X17343Y06160D01*
X17357Y06193D01*
X17358Y06280D01*
X17358Y06004D01*
X17342Y06020D01*
X17294Y06040D01*
X17243Y06040D01*
X17034Y06040D01*
X17034Y06143D01*
X17034Y06302D01*
X17034Y06320D01*
X17034Y06479D01*
X17012Y06501D01*
X16836Y06500D01*
X16801Y06500D01*
X16768Y06487D01*
X16743Y06462D01*
X16729Y06429D01*
X16728Y06342D01*
X16750Y06320D01*
X17034Y06320D01*
X17034Y06302D01*
X16750Y06302D01*
X16728Y06280D01*
X16729Y06193D01*
X16743Y06160D01*
X16768Y06135D01*
X16801Y06122D01*
X16836Y06122D01*
X17012Y06121D01*
X17034Y06143D01*
X17034Y06040D01*
X16954Y06040D01*
X16921Y06054D01*
X16830Y06054D01*
X16796Y06040D01*
X16793Y06040D01*
X16746Y06021D01*
X16709Y05985D01*
X16707Y05981D01*
X16693Y05968D01*
X16686Y05966D01*
X16678Y05962D01*
X16669Y05958D01*
X16650Y05943D01*
X16631Y05930D01*
X16626Y05923D01*
X16618Y05916D01*
X16606Y05893D01*
X16595Y05875D01*
X16592Y05866D01*
X16589Y05857D01*
X16587Y05836D01*
X16582Y05811D01*
X16583Y05802D01*
X16583Y05792D01*
X16590Y05769D01*
X16595Y05747D01*
X16599Y05740D01*
X16603Y05730D01*
X16618Y05712D01*
X16631Y05692D01*
X16638Y05688D01*
X16645Y05679D01*
X16650Y05677D01*
X16599Y05650D01*
X16580Y05636D01*
X16561Y05623D01*
X16554Y05615D01*
X16548Y05609D01*
X16538Y05592D01*
X16522Y05570D01*
X16398Y05302D01*
X16394Y05288D01*
X16386Y05269D01*
X16261Y04738D01*
X16260Y04717D01*
X16257Y04700D01*
X16257Y04525D01*
X16259Y04513D01*
X16259Y04500D01*
X16266Y04480D01*
X16270Y04461D01*
X16276Y04452D01*
X16281Y04438D01*
X16356Y04314D01*
X16369Y04300D01*
X16383Y04280D01*
X16393Y04273D01*
X16400Y04266D01*
X16415Y04259D01*
X16437Y04244D01*
X16504Y04217D01*
X16523Y04172D01*
X16587Y04107D01*
X16671Y04072D01*
X16762Y04072D01*
X16789Y04084D01*
X16792Y04082D01*
X16843Y04082D01*
X16874Y04082D01*
X16870Y04069D01*
X16863Y04041D01*
X16863Y04040D01*
X16793Y04040D01*
X16746Y04021D01*
X16709Y03985D01*
X16689Y03937D01*
X16689Y03886D01*
X16689Y03686D01*
X16708Y03639D01*
X16744Y03602D01*
X16792Y03582D01*
X16843Y03582D01*
X17293Y03582D01*
X17340Y03601D01*
X17371Y03632D01*
X17371Y03600D01*
X17390Y03553D01*
X17426Y03516D01*
X17474Y03496D01*
X17525Y03496D01*
X17975Y03496D01*
X18022Y03515D01*
X18029Y03523D01*
X18057Y03455D01*
X18204Y03308D01*
X18395Y03228D01*
X18603Y03228D01*
X18795Y03307D01*
X18942Y03454D01*
X19022Y03645D01*
X19022Y02194D01*
X18975Y02193D01*
X18975Y02833D01*
X18907Y03009D01*
X18895Y03026D01*
X18832Y03069D01*
X18819Y03056D01*
X18819Y03082D01*
X18776Y03145D01*
X18605Y03221D01*
X18417Y03225D01*
X18241Y03157D01*
X18224Y03145D01*
X18181Y03082D01*
X18500Y02763D01*
X18819Y03082D01*
X18819Y03056D01*
X18513Y02750D01*
X18832Y02431D01*
X18895Y02474D01*
X18971Y02645D01*
X18975Y02833D01*
X18975Y02193D01*
X18819Y02192D01*
X18819Y02418D01*
X18500Y02737D01*
X18487Y02724D01*
X18487Y02750D01*
X18168Y03069D01*
X18105Y03026D01*
X18040Y02880D01*
X18040Y03119D01*
X18040Y03181D01*
X18039Y03293D01*
X18025Y03326D01*
X18000Y03351D01*
X17967Y03364D01*
X17932Y03364D01*
X17756Y03365D01*
X17734Y03343D01*
X17734Y03159D01*
X18018Y03159D01*
X18040Y03181D01*
X18040Y03119D01*
X18018Y03141D01*
X17734Y03141D01*
X17734Y02957D01*
X17756Y02935D01*
X17932Y02936D01*
X17967Y02936D01*
X18000Y02949D01*
X18025Y02974D01*
X18039Y03007D01*
X18040Y03119D01*
X18040Y02880D01*
X18029Y02855D01*
X18025Y02667D01*
X18093Y02491D01*
X18105Y02474D01*
X18168Y02431D01*
X18487Y02750D01*
X18487Y02724D01*
X18181Y02418D01*
X18224Y02355D01*
X18395Y02279D01*
X18583Y02275D01*
X18759Y02343D01*
X18776Y02355D01*
X18819Y02418D01*
X18819Y02192D01*
X17716Y02183D01*
X17716Y02957D01*
X17716Y03141D01*
X17716Y03159D01*
X17716Y03343D01*
X17694Y03365D01*
X17518Y03364D01*
X17483Y03364D01*
X17450Y03351D01*
X17425Y03326D01*
X17411Y03293D01*
X17410Y03181D01*
X17432Y03159D01*
X17716Y03159D01*
X17716Y03141D01*
X17432Y03141D01*
X17410Y03119D01*
X17411Y03007D01*
X17425Y02974D01*
X17450Y02949D01*
X17483Y02936D01*
X17518Y02936D01*
X17694Y02935D01*
X17716Y02957D01*
X17716Y02183D01*
X17358Y02180D01*
X17358Y03280D01*
X17358Y03342D01*
X17357Y03429D01*
X17343Y03462D01*
X17318Y03487D01*
X17285Y03500D01*
X17250Y03500D01*
X17074Y03501D01*
X17052Y03479D01*
X17052Y03320D01*
X17336Y03320D01*
X17358Y03342D01*
X17358Y03280D01*
X17336Y03302D01*
X17052Y03302D01*
X17052Y03143D01*
X17074Y03121D01*
X17250Y03122D01*
X17285Y03122D01*
X17318Y03135D01*
X17343Y03160D01*
X17357Y03193D01*
X17358Y03280D01*
X17358Y02180D01*
X17239Y02178D01*
X17034Y02318D01*
X17034Y03143D01*
X17034Y03302D01*
X17034Y03320D01*
X17034Y03479D01*
X17012Y03501D01*
X16836Y03500D01*
X16801Y03500D01*
X16768Y03487D01*
X16743Y03462D01*
X16729Y03429D01*
X16728Y03342D01*
X16750Y03320D01*
X17034Y03320D01*
X17034Y03302D01*
X16750Y03302D01*
X16728Y03280D01*
X16729Y03193D01*
X16743Y03160D01*
X16768Y03135D01*
X16801Y03122D01*
X16836Y03122D01*
X17012Y03121D01*
X17034Y03143D01*
X17034Y02318D01*
X16250Y02851D01*
X16250Y07678D01*
X16836Y08223D01*
X16836Y08207D01*
X16835Y08031D01*
X16857Y08009D01*
X17041Y08009D01*
X17041Y08293D01*
X17019Y08315D01*
X16934Y08315D01*
X17087Y08456D01*
X19800Y08450D01*
X19800Y02200D01*
X19800Y02200D01*
G37*
G54D46*
X19800Y02200D02*
X19022Y02194D01*
X19022Y03645D01*
X19022Y03853D01*
X18943Y04045D01*
X18796Y04192D01*
X18657Y04251D01*
X18795Y04307D01*
X18942Y04454D01*
X19022Y04645D01*
X19022Y04853D01*
X18943Y05045D01*
X18796Y05192D01*
X18657Y05251D01*
X18795Y05307D01*
X18942Y05454D01*
X19022Y05645D01*
X19022Y05853D01*
X18943Y06045D01*
X18796Y06192D01*
X18657Y06251D01*
X18795Y06307D01*
X18942Y06454D01*
X19022Y06645D01*
X19022Y06853D01*
X18943Y07045D01*
X18796Y07192D01*
X18657Y07251D01*
X18795Y07307D01*
X18942Y07454D01*
X19022Y07645D01*
X19022Y07853D01*
X18943Y08045D01*
X18796Y08192D01*
X18605Y08272D01*
X18397Y08272D01*
X18205Y08193D01*
X18058Y08046D01*
X18045Y08017D01*
X18044Y08019D01*
X18041Y08021D01*
X17944Y08119D01*
X17904Y08146D01*
X17904Y08250D01*
X17885Y08297D01*
X17849Y08334D01*
X17801Y08354D01*
X17750Y08354D01*
X17500Y08354D01*
X17453Y08335D01*
X17416Y08299D01*
X17396Y08251D01*
X17396Y08200D01*
X17396Y07750D01*
X17415Y07703D01*
X17451Y07666D01*
X17499Y07646D01*
X17550Y07646D01*
X17757Y07646D01*
X17757Y07636D01*
X17727Y07636D01*
X17413Y07636D01*
X17366Y07617D01*
X17329Y07581D01*
X17309Y07533D01*
X17309Y07482D01*
X17309Y07168D01*
X17328Y07121D01*
X17364Y07084D01*
X17412Y07064D01*
X17463Y07064D01*
X17759Y07064D01*
X17574Y06812D01*
X17565Y06794D01*
X17554Y06778D01*
X17550Y06763D01*
X17542Y06745D01*
X17541Y06737D01*
X17467Y06737D01*
X17420Y06718D01*
X17397Y06696D01*
X17397Y06736D01*
X17397Y06936D01*
X17378Y06983D01*
X17342Y07020D01*
X17294Y07040D01*
X17243Y07040D01*
X16953Y07040D01*
X16953Y07064D01*
X17187Y07064D01*
X17234Y07083D01*
X17271Y07119D01*
X17291Y07167D01*
X17291Y07218D01*
X17291Y07532D01*
X17272Y07579D01*
X17265Y07587D01*
X17265Y07969D01*
X17265Y08031D01*
X17264Y08207D01*
X17264Y08242D01*
X17251Y08275D01*
X17226Y08300D01*
X17193Y08314D01*
X17081Y08315D01*
X17059Y08293D01*
X17059Y08009D01*
X17243Y08009D01*
X17265Y08031D01*
X17265Y07969D01*
X17243Y07991D01*
X17059Y07991D01*
X17059Y07707D01*
X17081Y07685D01*
X17193Y07686D01*
X17226Y07700D01*
X17251Y07725D01*
X17264Y07758D01*
X17264Y07793D01*
X17265Y07969D01*
X17265Y07587D01*
X17236Y07616D01*
X17188Y07636D01*
X17137Y07636D01*
X17041Y07636D01*
X17041Y07707D01*
X17041Y07991D01*
X16857Y07991D01*
X16835Y07969D01*
X16836Y07793D01*
X16836Y07758D01*
X16849Y07725D01*
X16874Y07700D01*
X16907Y07686D01*
X17019Y07685D01*
X17041Y07707D01*
X17041Y07636D01*
X16823Y07636D01*
X16776Y07617D01*
X16739Y07581D01*
X16719Y07533D01*
X16719Y07518D01*
X16700Y07518D01*
X16699Y07518D01*
X16686Y07516D01*
X16636Y07505D01*
X16581Y07469D01*
X16579Y07467D01*
X16531Y07419D01*
X16495Y07364D01*
X16482Y07300D01*
X16482Y07185D01*
X16447Y07101D01*
X16447Y07000D01*
X16485Y06907D01*
X16493Y06899D01*
X16493Y06875D01*
X16497Y06852D01*
X16498Y06835D01*
X16504Y06820D01*
X16509Y06796D01*
X16520Y06780D01*
X16528Y06760D01*
X16543Y06745D01*
X16554Y06729D01*
X16569Y06719D01*
X16585Y06703D01*
X16660Y06653D01*
X16673Y06648D01*
X16686Y06638D01*
X16713Y06632D01*
X16717Y06630D01*
X16744Y06602D01*
X16792Y06582D01*
X16843Y06582D01*
X17293Y06582D01*
X17340Y06601D01*
X17363Y06624D01*
X17363Y06583D01*
X17363Y06333D01*
X17382Y06286D01*
X17418Y06249D01*
X17466Y06229D01*
X17517Y06229D01*
X17967Y06229D01*
X18014Y06248D01*
X18051Y06284D01*
X18071Y06332D01*
X18071Y06383D01*
X18071Y06441D01*
X18204Y06308D01*
X18342Y06250D01*
X18205Y06193D01*
X18063Y06052D01*
X18052Y06080D01*
X18016Y06117D01*
X17968Y06137D01*
X17917Y06137D01*
X17467Y06137D01*
X17420Y06118D01*
X17383Y06082D01*
X17363Y06034D01*
X17363Y05999D01*
X17358Y06004D01*
X17358Y06280D01*
X17358Y06342D01*
X17357Y06429D01*
X17343Y06462D01*
X17318Y06487D01*
X17285Y06500D01*
X17250Y06500D01*
X17074Y06501D01*
X17052Y06479D01*
X17052Y06320D01*
X17336Y06320D01*
X17358Y06342D01*
X17358Y06280D01*
X17336Y06302D01*
X17052Y06302D01*
X17052Y06143D01*
X17074Y06121D01*
X17250Y06122D01*
X17285Y06122D01*
X17318Y06135D01*
X17343Y06160D01*
X17357Y06193D01*
X17358Y06280D01*
X17358Y06004D01*
X17342Y06020D01*
X17294Y06040D01*
X17243Y06040D01*
X17034Y06040D01*
X17034Y06143D01*
X17034Y06302D01*
X17034Y06320D01*
X17034Y06479D01*
X17012Y06501D01*
X16836Y06500D01*
X16801Y06500D01*
X16768Y06487D01*
X16743Y06462D01*
X16729Y06429D01*
X16728Y06342D01*
X16750Y06320D01*
X17034Y06320D01*
X17034Y06302D01*
X16750Y06302D01*
X16728Y06280D01*
X16729Y06193D01*
X16743Y06160D01*
X16768Y06135D01*
X16801Y06122D01*
X16836Y06122D01*
X17012Y06121D01*
X17034Y06143D01*
X17034Y06040D01*
X16954Y06040D01*
X16921Y06054D01*
X16830Y06054D01*
X16796Y06040D01*
X16793Y06040D01*
X16746Y06021D01*
X16709Y05985D01*
X16707Y05981D01*
X16693Y05968D01*
X16686Y05966D01*
X16678Y05962D01*
X16669Y05958D01*
X16650Y05943D01*
X16631Y05930D01*
X16626Y05923D01*
X16618Y05916D01*
X16606Y05893D01*
X16595Y05875D01*
X16592Y05866D01*
X16589Y05857D01*
X16587Y05836D01*
X16582Y05811D01*
X16583Y05802D01*
X16583Y05792D01*
X16590Y05769D01*
X16595Y05747D01*
X16599Y05740D01*
X16603Y05730D01*
X16618Y05712D01*
X16631Y05692D01*
X16638Y05688D01*
X16645Y05679D01*
X16650Y05677D01*
X16599Y05650D01*
X16580Y05636D01*
X16561Y05623D01*
X16554Y05615D01*
X16548Y05609D01*
X16538Y05592D01*
X16522Y05570D01*
X16398Y05302D01*
X16394Y05288D01*
X16386Y05269D01*
X16261Y04738D01*
X16260Y04717D01*
X16257Y04700D01*
X16257Y04525D01*
X16259Y04513D01*
X16259Y04500D01*
X16266Y04480D01*
X16270Y04461D01*
X16276Y04452D01*
X16281Y04438D01*
X16356Y04314D01*
X16369Y04300D01*
X16383Y04280D01*
X16393Y04273D01*
X16400Y04266D01*
X16415Y04259D01*
X16437Y04244D01*
X16504Y04217D01*
X16523Y04172D01*
X16587Y04107D01*
X16671Y04072D01*
X16762Y04072D01*
X16789Y04084D01*
X16792Y04082D01*
X16843Y04082D01*
X16874Y04082D01*
X16870Y04069D01*
X16863Y04041D01*
X16863Y04040D01*
X16793Y04040D01*
X16746Y04021D01*
X16709Y03985D01*
X16689Y03937D01*
X16689Y03886D01*
X16689Y03686D01*
X16708Y03639D01*
X16744Y03602D01*
X16792Y03582D01*
X16843Y03582D01*
X17293Y03582D01*
X17340Y03601D01*
X17371Y03632D01*
X17371Y03600D01*
X17390Y03553D01*
X17426Y03516D01*
X17474Y03496D01*
X17525Y03496D01*
X17975Y03496D01*
X18022Y03515D01*
X18029Y03523D01*
X18057Y03455D01*
X18204Y03308D01*
X18395Y03228D01*
X18603Y03228D01*
X18795Y03307D01*
X18942Y03454D01*
X19022Y03645D01*
X19022Y02194D01*
X18975Y02193D01*
X18975Y02833D01*
X18907Y03009D01*
X18895Y03026D01*
X18832Y03069D01*
X18819Y03056D01*
X18819Y03082D01*
X18776Y03145D01*
X18605Y03221D01*
X18417Y03225D01*
X18241Y03157D01*
X18224Y03145D01*
X18181Y03082D01*
X18500Y02763D01*
X18819Y03082D01*
X18819Y03056D01*
X18513Y02750D01*
X18832Y02431D01*
X18895Y02474D01*
X18971Y02645D01*
X18975Y02833D01*
X18975Y02193D01*
X18819Y02192D01*
X18819Y02418D01*
X18500Y02737D01*
X18487Y02724D01*
X18487Y02750D01*
X18168Y03069D01*
X18105Y03026D01*
X18040Y02880D01*
X18040Y03119D01*
X18040Y03181D01*
X18039Y03293D01*
X18025Y03326D01*
X18000Y03351D01*
X17967Y03364D01*
X17932Y03364D01*
X17756Y03365D01*
X17734Y03343D01*
X17734Y03159D01*
X18018Y03159D01*
X18040Y03181D01*
X18040Y03119D01*
X18018Y03141D01*
X17734Y03141D01*
X17734Y02957D01*
X17756Y02935D01*
X17932Y02936D01*
X17967Y02936D01*
X18000Y02949D01*
X18025Y02974D01*
X18039Y03007D01*
X18040Y03119D01*
X18040Y02880D01*
X18029Y02855D01*
X18025Y02667D01*
X18093Y02491D01*
X18105Y02474D01*
X18168Y02431D01*
X18487Y02750D01*
X18487Y02724D01*
X18181Y02418D01*
X18224Y02355D01*
X18395Y02279D01*
X18583Y02275D01*
X18759Y02343D01*
X18776Y02355D01*
X18819Y02418D01*
X18819Y02192D01*
X17716Y02183D01*
X17716Y02957D01*
X17716Y03141D01*
X17716Y03159D01*
X17716Y03343D01*
X17694Y03365D01*
X17518Y03364D01*
X17483Y03364D01*
X17450Y03351D01*
X17425Y03326D01*
X17411Y03293D01*
X17410Y03181D01*
X17432Y03159D01*
X17716Y03159D01*
X17716Y03141D01*
X17432Y03141D01*
X17410Y03119D01*
X17411Y03007D01*
X17425Y02974D01*
X17450Y02949D01*
X17483Y02936D01*
X17518Y02936D01*
X17694Y02935D01*
X17716Y02957D01*
X17716Y02183D01*
X17358Y02180D01*
X17358Y03280D01*
X17358Y03342D01*
X17357Y03429D01*
X17343Y03462D01*
X17318Y03487D01*
X17285Y03500D01*
X17250Y03500D01*
X17074Y03501D01*
X17052Y03479D01*
X17052Y03320D01*
X17336Y03320D01*
X17358Y03342D01*
X17358Y03280D01*
X17336Y03302D01*
X17052Y03302D01*
X17052Y03143D01*
X17074Y03121D01*
X17250Y03122D01*
X17285Y03122D01*
X17318Y03135D01*
X17343Y03160D01*
X17357Y03193D01*
X17358Y03280D01*
X17358Y02180D01*
X17239Y02178D01*
X17034Y02318D01*
X17034Y03143D01*
X17034Y03302D01*
X17034Y03320D01*
X17034Y03479D01*
X17012Y03501D01*
X16836Y03500D01*
X16801Y03500D01*
X16768Y03487D01*
X16743Y03462D01*
X16729Y03429D01*
X16728Y03342D01*
X16750Y03320D01*
X17034Y03320D01*
X17034Y03302D01*
X16750Y03302D01*
X16728Y03280D01*
X16729Y03193D01*
X16743Y03160D01*
X16768Y03135D01*
X16801Y03122D01*
X16836Y03122D01*
X17012Y03121D01*
X17034Y03143D01*
X17034Y02318D01*
X16250Y02851D01*
X16250Y07678D01*
X16836Y08223D01*
X16836Y08207D01*
X16835Y08031D01*
X16857Y08009D01*
X17041Y08009D01*
X17041Y08293D01*
X17019Y08315D01*
X16934Y08315D01*
X17087Y08456D01*
X19800Y08450D01*
X19800Y02200D01*
M02*
