solid OpenSCAD_Model
  facet normal 0 0 -1
    outer loop
      vertex -24 0 0.05
      vertex -23.8108 3.008 0.05
      vertex -23.8108 -3.008 0.05
    endloop
  endfacet
  facet normal 0 0 -1
    outer loop
      vertex -23.8108 -3.008 0.05
      vertex -23.8108 3.008 0.05
      vertex -23.246 5.96856 0.05
    endloop
  endfacet
  facet normal 0 0 -1
    outer loop
      vertex -23.8108 -3.008 0.05
      vertex -23.246 5.96856 0.05
      vertex -22.3146 8.83499 0.05
    endloop
  endfacet
  facet normal 0 0 -1
    outer loop
      vertex -23.8108 -3.008 0.05
      vertex -22.3146 8.83499 0.05
      vertex -21.0314 11.5621 0.05
    endloop
  endfacet
  facet normal 0 0 -1
    outer loop
      vertex -23.8108 -3.008 0.05
      vertex -21.0314 11.5621 0.05
      vertex -19.4164 14.1068 0.05
    endloop
  endfacet
  facet normal 0 0 -1
    outer loop
      vertex -23.8108 -3.008 0.05
      vertex -19.4164 14.1068 0.05
      vertex -17.4952 16.4291 0.05
    endloop
  endfacet
  facet normal 0 0 -1
    outer loop
      vertex -23.8108 -3.008 0.05
      vertex -17.4952 16.4291 0.05
      vertex -15.2982 18.4923 0.05
    endloop
  endfacet
  facet normal 0 0 -1
    outer loop
      vertex -16.9894 12.3435 0.05
      vertex -15.2982 18.4923 0.05
      vertex -12.8598 20.2639 0.05
    endloop
  endfacet
  facet normal 0 0 -1
    outer loop
      vertex -13.3859 16.1808 0.05
      vertex -12.8598 20.2639 0.05
      vertex -10.2187 21.7158 0.05
    endloop
  endfacet
  facet normal 0 0 -1
    outer loop
      vertex -11.2524 17.7309 0.05
      vertex -10.2187 21.7158 0.05
      vertex -7.41641 22.8254 0.05
    endloop
  endfacet
  facet normal 0 0 -1
    outer loop
      vertex -8.94136 19.0014 0.05
      vertex -7.41641 22.8254 0.05
      vertex -4.49715 23.5749 0.05
    endloop
  endfacet
  facet normal 0 0 -1
    outer loop
      vertex -6.48936 19.9722 0.05
      vertex -4.49715 23.5749 0.05
      vertex -1.50697 23.9526 0.05
    endloop
  endfacet
  facet normal 0 0 -1
    outer loop
      vertex -1.3186 20.9586 0.05
      vertex -1.50697 23.9526 0.05
      vertex 1.50697 23.9526 0.05
    endloop
  endfacet
  facet normal 0 0 -1
    outer loop
      vertex 1.3186 20.9586 0.05
      vertex 1.50697 23.9526 0.05
      vertex 4.49715 23.5749 0.05
    endloop
  endfacet
  facet normal 0 0 -1
    outer loop
      vertex 3.93501 20.628 0.05
      vertex 4.49715 23.5749 0.05
      vertex 7.41641 22.8254 0.05
    endloop
  endfacet
  facet normal 0 0 -1
    outer loop
      vertex 6.48936 19.9722 0.05
      vertex 7.41641 22.8254 0.05
      vertex 10.2187 21.7158 0.05
    endloop
  endfacet
  facet normal 0 0 -1
    outer loop
      vertex 8.94136 19.0014 0.05
      vertex 10.2187 21.7158 0.05
      vertex 12.8598 20.2639 0.05
    endloop
  endfacet
  facet normal 0 0 -1
    outer loop
      vertex 11.2524 17.7309 0.05
      vertex 12.8598 20.2639 0.05
      vertex 15.2982 18.4923 0.05
    endloop
  endfacet
  facet normal 0 0 -1
    outer loop
      vertex 13.3859 16.1808 0.05
      vertex 15.2982 18.4923 0.05
      vertex 17.4952 16.4291 0.05
    endloop
  endfacet
  facet normal 0 0 -1
    outer loop
      vertex 15.3083 14.3755 0.05
      vertex 17.4952 16.4291 0.05
      vertex 19.4164 14.1068 0.05
    endloop
  endfacet
  facet normal 0 0 -1
    outer loop
      vertex 16.9894 12.3435 0.05
      vertex 19.4164 14.1068 0.05
      vertex 21.0314 11.5621 0.05
    endloop
  endfacet
  facet normal 0 0 -1
    outer loop
      vertex 18.4024 10.1168 0.05
      vertex 21.0314 11.5621 0.05
      vertex 22.3146 8.83499 0.05
    endloop
  endfacet
  facet normal 0 0 -1
    outer loop
      vertex 19.5253 7.73062 0.05
      vertex 22.3146 8.83499 0.05
      vertex 23.246 5.96856 0.05
    endloop
  endfacet
  facet normal 0 0 -1
    outer loop
      vertex 20.3402 5.22249 0.05
      vertex 23.246 5.96856 0.05
      vertex 23.5056 4.60775 0.05
    endloop
  endfacet
  facet normal 0 0 -1
    outer loop
      vertex 20.8344 2.632 0.05
      vertex 23.5056 4.60775 0.05
      vertex 20.9848 0.24162 0.05
    endloop
  endfacet
  facet normal 0 0 -1
    outer loop
      vertex 19.5253 7.73062 0.05
      vertex 23.246 5.96856 0.05
      vertex 20.3402 5.22249 0.05
    endloop
  endfacet
  facet normal 0 0 -1
    outer loop
      vertex 18.4024 10.1168 0.05
      vertex 22.3146 8.83499 0.05
      vertex 19.5253 7.73062 0.05
    endloop
  endfacet
  facet normal 0 0 -1
    outer loop
      vertex 16.9894 12.3435 0.05
      vertex 21.0314 11.5621 0.05
      vertex 18.4024 10.1168 0.05
    endloop
  endfacet
  facet normal 0 0 -1
    outer loop
      vertex 15.3083 14.3755 0.05
      vertex 19.4164 14.1068 0.05
      vertex 16.9894 12.3435 0.05
    endloop
  endfacet
  facet normal 0 0 -1
    outer loop
      vertex 13.3859 16.1808 0.05
      vertex 17.4952 16.4291 0.05
      vertex 15.3083 14.3755 0.05
    endloop
  endfacet
  facet normal 0 0 -1
    outer loop
      vertex 11.2524 17.7309 0.05
      vertex 15.2982 18.4923 0.05
      vertex 13.3859 16.1808 0.05
    endloop
  endfacet
  facet normal 0 0 -1
    outer loop
      vertex 8.94136 19.0014 0.05
      vertex 12.8598 20.2639 0.05
      vertex 11.2524 17.7309 0.05
    endloop
  endfacet
  facet normal 0 0 -1
    outer loop
      vertex 6.48936 19.9722 0.05
      vertex 10.2187 21.7158 0.05
      vertex 8.94136 19.0014 0.05
    endloop
  endfacet
  facet normal 0 0 -1
    outer loop
      vertex 3.93501 20.628 0.05
      vertex 7.41641 22.8254 0.05
      vertex 6.48936 19.9722 0.05
    endloop
  endfacet
  facet normal 0 0 -1
    outer loop
      vertex 1.3186 20.9586 0.05
      vertex 4.49715 23.5749 0.05
      vertex 3.93501 20.628 0.05
    endloop
  endfacet
  facet normal 0 0 -1
    outer loop
      vertex -1.3186 20.9586 0.05
      vertex 1.50697 23.9526 0.05
      vertex 1.3186 20.9586 0.05
    endloop
  endfacet
  facet normal 0 0 -1
    outer loop
      vertex -3.93501 20.628 0.05
      vertex -1.50697 23.9526 0.05
      vertex -1.3186 20.9586 0.05
    endloop
  endfacet
  facet normal 0 0 -1
    outer loop
      vertex -6.48936 19.9722 0.05
      vertex -1.50697 23.9526 0.05
      vertex -3.93501 20.628 0.05
    endloop
  endfacet
  facet normal 0 0 -1
    outer loop
      vertex -8.94136 19.0014 0.05
      vertex -4.49715 23.5749 0.05
      vertex -6.48936 19.9722 0.05
    endloop
  endfacet
  facet normal 0 0 -1
    outer loop
      vertex -11.2524 17.7309 0.05
      vertex -7.41641 22.8254 0.05
      vertex -8.94136 19.0014 0.05
    endloop
  endfacet
  facet normal 0 0 -1
    outer loop
      vertex -13.3859 16.1808 0.05
      vertex -10.2187 21.7158 0.05
      vertex -11.2524 17.7309 0.05
    endloop
  endfacet
  facet normal 0 0 -1
    outer loop
      vertex -15.3083 14.3755 0.05
      vertex -12.8598 20.2639 0.05
      vertex -13.3859 16.1808 0.05
    endloop
  endfacet
  facet normal 0 0 -1
    outer loop
      vertex -16.9894 12.3435 0.05
      vertex -12.8598 20.2639 0.05
      vertex -15.3083 14.3755 0.05
    endloop
  endfacet
  facet normal 0 0 -1
    outer loop
      vertex -18.4024 10.1168 0.05
      vertex -15.2982 18.4923 0.05
      vertex -16.9894 12.3435 0.05
    endloop
  endfacet
  facet normal 0 0 -1
    outer loop
      vertex -20.3402 5.22249 0.05
      vertex -23.8108 -3.008 0.05
      vertex -19.5253 7.73062 0.05
    endloop
  endfacet
  facet normal 0 0 -1
    outer loop
      vertex -19.5253 7.73062 0.05
      vertex -15.2982 18.4923 0.05
      vertex -18.4024 10.1168 0.05
    endloop
  endfacet
  facet normal 0 0 -1
    outer loop
      vertex -23.8108 -3.008 0.05
      vertex -15.2982 18.4923 0.05
      vertex -19.5253 7.73062 0.05
    endloop
  endfacet
  facet normal 0 0 -1
    outer loop
      vertex -20.8344 2.632 0.05
      vertex -23.8108 -3.008 0.05
      vertex -20.3402 5.22249 0.05
    endloop
  endfacet
  facet normal 0 0 -1
    outer loop
      vertex -21 0 0.05
      vertex -23.8108 -3.008 0.05
      vertex -20.8344 2.632 0.05
    endloop
  endfacet
  facet normal 0 0 -1
    outer loop
      vertex -20.8344 -2.632 0.05
      vertex -23.8108 -3.008 0.05
      vertex -21 0 0.05
    endloop
  endfacet
  facet normal 0 0 -1
    outer loop
      vertex -23.8108 -3.008 0.05
      vertex -20.3402 -5.22249 0.05
      vertex -19.5253 -7.73062 0.05
    endloop
  endfacet
  facet normal 0 0 -1
    outer loop
      vertex -19.5253 -7.73062 0.05
      vertex -18.4024 -10.1168 0.05
      vertex -23.8108 -3.008 0.05
    endloop
  endfacet
  facet normal 0 0 -1
    outer loop
      vertex -18.4024 -10.1168 0.05
      vertex -16.9894 -12.3435 0.05
      vertex -23.8108 -3.008 0.05
    endloop
  endfacet
  facet normal 0 0 -1
    outer loop
      vertex -16.9894 -12.3435 0.05
      vertex -10.2187 -21.7158 0.05
      vertex -23.8108 -3.008 0.05
    endloop
  endfacet
  facet normal 0 0 -1
    outer loop
      vertex 23.9169 1.32023 0.05
      vertex 20.3402 -5.22249 0.05
      vertex 20.4393 -4.7032 0.05
    endloop
  endfacet
  facet normal 0 0 -1
    outer loop
      vertex 19.5253 -7.73062 0.05
      vertex 20.3402 -5.22249 0.05
      vertex 23.9169 1.32023 0.05
    endloop
  endfacet
  facet normal 0 0 -1
    outer loop
      vertex 19.5253 -7.73062 0.05
      vertex 23.9169 1.32023 0.05
      vertex 18.4024 -10.1168 0.05
    endloop
  endfacet
  facet normal 0 0 -1
    outer loop
      vertex 18.4024 -10.1168 0.05
      vertex 23.9169 1.32023 0.05
      vertex 24 0 0.05
    endloop
  endfacet
  facet normal 0 0 -1
    outer loop
      vertex 18.4024 -10.1168 0.05
      vertex 24 0 0.05
      vertex 23.8108 -3.008 0.05
    endloop
  endfacet
  facet normal 0 0 -1
    outer loop
      vertex 18.4024 -10.1168 0.05
      vertex 23.8108 -3.008 0.05
      vertex 16.9894 -12.3435 0.05
    endloop
  endfacet
  facet normal 0 0 -1
    outer loop
      vertex 16.9894 -12.3435 0.05
      vertex 23.8108 -3.008 0.05
      vertex 23.246 -5.96856 0.05
    endloop
  endfacet
  facet normal 0 0 -1
    outer loop
      vertex 16.9894 -12.3435 0.05
      vertex 23.246 -5.96856 0.05
      vertex 15.3083 -14.3755 0.05
    endloop
  endfacet
  facet normal 0 0 -1
    outer loop
      vertex 15.3083 -14.3755 0.05
      vertex 23.246 -5.96856 0.05
      vertex 22.3146 -8.83499 0.05
    endloop
  endfacet
  facet normal 0 0 -1
    outer loop
      vertex 15.3083 -14.3755 0.05
      vertex 22.3146 -8.83499 0.05
      vertex 13.3859 -16.1808 0.05
    endloop
  endfacet
  facet normal 0 0 -1
    outer loop
      vertex 13.3859 -16.1808 0.05
      vertex 22.3146 -8.83499 0.05
      vertex 21.0314 -11.5621 0.05
    endloop
  endfacet
  facet normal 0 0 -1
    outer loop
      vertex 13.3859 -16.1808 0.05
      vertex 21.0314 -11.5621 0.05
      vertex 11.2524 -17.7309 0.05
    endloop
  endfacet
  facet normal 0 0 -1
    outer loop
      vertex 11.2524 -17.7309 0.05
      vertex 21.0314 -11.5621 0.05
      vertex 19.4164 -14.1068 0.05
    endloop
  endfacet
  facet normal 0 0 -1
    outer loop
      vertex 11.2524 -17.7309 0.05
      vertex 19.4164 -14.1068 0.05
      vertex 8.94136 -19.0014 0.05
    endloop
  endfacet
  facet normal 0 0 -1
    outer loop
      vertex 8.94136 -19.0014 0.05
      vertex 19.4164 -14.1068 0.05
      vertex 17.4952 -16.4291 0.05
    endloop
  endfacet
  facet normal 0 0 -1
    outer loop
      vertex 8.94136 -19.0014 0.05
      vertex 17.4952 -16.4291 0.05
      vertex 6.48936 -19.9722 0.05
    endloop
  endfacet
  facet normal 0 0 -1
    outer loop
      vertex 6.48936 -19.9722 0.05
      vertex 17.4952 -16.4291 0.05
      vertex 15.2982 -18.4923 0.05
    endloop
  endfacet
  facet normal 0 0 -1
    outer loop
      vertex 6.48936 -19.9722 0.05
      vertex 15.2982 -18.4923 0.05
      vertex 3.93501 -20.628 0.05
    endloop
  endfacet
  facet normal 0 0 -1
    outer loop
      vertex 3.93501 -20.628 0.05
      vertex 15.2982 -18.4923 0.05
      vertex 12.8598 -20.2639 0.05
    endloop
  endfacet
  facet normal 0 0 -1
    outer loop
      vertex 3.93501 -20.628 0.05
      vertex 12.8598 -20.2639 0.05
      vertex 1.3186 -20.9586 0.05
    endloop
  endfacet
  facet normal 0 0 -1
    outer loop
      vertex 1.3186 -20.9586 0.05
      vertex 12.8598 -20.2639 0.05
      vertex 10.2187 -21.7158 0.05
    endloop
  endfacet
  facet normal 0 0 -1
    outer loop
      vertex 1.3186 -20.9586 0.05
      vertex 10.2187 -21.7158 0.05
      vertex -1.3186 -20.9586 0.05
    endloop
  endfacet
  facet normal 0 0 -1
    outer loop
      vertex -1.3186 -20.9586 0.05
      vertex 10.2187 -21.7158 0.05
      vertex 7.41641 -22.8254 0.05
    endloop
  endfacet
  facet normal 0 0 -1
    outer loop
      vertex -1.3186 -20.9586 0.05
      vertex 7.41641 -22.8254 0.05
      vertex -3.93501 -20.628 0.05
    endloop
  endfacet
  facet normal 0 0 -1
    outer loop
      vertex -3.93501 -20.628 0.05
      vertex 7.41641 -22.8254 0.05
      vertex 4.49715 -23.5749 0.05
    endloop
  endfacet
  facet normal 0 0 -1
    outer loop
      vertex -3.93501 -20.628 0.05
      vertex 4.49715 -23.5749 0.05
      vertex -6.48936 -19.9722 0.05
    endloop
  endfacet
  facet normal 0 0 -1
    outer loop
      vertex -6.48936 -19.9722 0.05
      vertex 4.49715 -23.5749 0.05
      vertex 1.50697 -23.9526 0.05
    endloop
  endfacet
  facet normal 0 0 -1
    outer loop
      vertex -6.48936 -19.9722 0.05
      vertex 1.50697 -23.9526 0.05
      vertex -8.94136 -19.0014 0.05
    endloop
  endfacet
  facet normal 0 0 -1
    outer loop
      vertex -8.94136 -19.0014 0.05
      vertex 1.50697 -23.9526 0.05
      vertex -1.50697 -23.9526 0.05
    endloop
  endfacet
  facet normal 0 0 -1
    outer loop
      vertex -8.94136 -19.0014 0.05
      vertex -1.50697 -23.9526 0.05
      vertex -11.2524 -17.7309 0.05
    endloop
  endfacet
  facet normal 0 0 -1
    outer loop
      vertex -11.2524 -17.7309 0.05
      vertex -1.50697 -23.9526 0.05
      vertex -4.49715 -23.5749 0.05
    endloop
  endfacet
  facet normal 0 0 -1
    outer loop
      vertex -11.2524 -17.7309 0.05
      vertex -4.49715 -23.5749 0.05
      vertex -13.3859 -16.1808 0.05
    endloop
  endfacet
  facet normal 0 0 -1
    outer loop
      vertex -13.3859 -16.1808 0.05
      vertex -4.49715 -23.5749 0.05
      vertex -7.41641 -22.8254 0.05
    endloop
  endfacet
  facet normal 0 0 -1
    outer loop
      vertex -13.3859 -16.1808 0.05
      vertex -7.41641 -22.8254 0.05
      vertex -15.3083 -14.3755 0.05
    endloop
  endfacet
  facet normal 0 0 -1
    outer loop
      vertex -15.3083 -14.3755 0.05
      vertex -7.41641 -22.8254 0.05
      vertex -10.2187 -21.7158 0.05
    endloop
  endfacet
  facet normal 0 0 -1
    outer loop
      vertex -15.3083 -14.3755 0.05
      vertex -10.2187 -21.7158 0.05
      vertex -16.9894 -12.3435 0.05
    endloop
  endfacet
  facet normal 0 0 -1
    outer loop
      vertex -23.8108 -3.008 0.05
      vertex -10.2187 -21.7158 0.05
      vertex -12.8598 -20.2639 0.05
    endloop
  endfacet
  facet normal 0 0 -1
    outer loop
      vertex -23.8108 -3.008 0.05
      vertex -12.8598 -20.2639 0.05
      vertex -15.2982 -18.4923 0.05
    endloop
  endfacet
  facet normal 0 0 -1
    outer loop
      vertex -23.8108 -3.008 0.05
      vertex -15.2982 -18.4923 0.05
      vertex -17.4952 -16.4291 0.05
    endloop
  endfacet
  facet normal 0 0 -1
    outer loop
      vertex -23.8108 -3.008 0.05
      vertex -17.4952 -16.4291 0.05
      vertex -19.4164 -14.1068 0.05
    endloop
  endfacet
  facet normal 0 0 -1
    outer loop
      vertex -23.8108 -3.008 0.05
      vertex -19.4164 -14.1068 0.05
      vertex -21.0314 -11.5621 0.05
    endloop
  endfacet
  facet normal 0 0 -1
    outer loop
      vertex -23.8108 -3.008 0.05
      vertex -21.0314 -11.5621 0.05
      vertex -22.3146 -8.83499 0.05
    endloop
  endfacet
  facet normal 0 0 -1
    outer loop
      vertex -23.8108 -3.008 0.05
      vertex -22.3146 -8.83499 0.05
      vertex -23.246 -5.96856 0.05
    endloop
  endfacet
  facet normal 0 0 -1
    outer loop
      vertex 20.3402 5.22249 0.05
      vertex 23.5056 4.60775 0.05
      vertex 20.8344 2.632 0.05
    endloop
  endfacet
  facet normal 0 0 -1
    outer loop
      vertex -20.3402 -5.22249 0.05
      vertex -23.8108 -3.008 0.05
      vertex -20.8344 -2.632 0.05
    endloop
  endfacet
  facet normal -0.998027 0.0627905 0
    outer loop
      vertex -24 0 0.05
      vertex -24 0 1.75
      vertex -23.8108 3.008 0.05
    endloop
  endfacet
  facet normal -0.998027 0.0627905 0
    outer loop
      vertex -23.8108 3.008 0.05
      vertex -24 0 1.75
      vertex -23.8108 3.008 1.75
    endloop
  endfacet
  facet normal -0.998027 -0.0627905 0
    outer loop
      vertex -24 0 0.05
      vertex -23.8108 -3.008 0.05
      vertex -24 0 1.75
    endloop
  endfacet
  facet normal -0.998027 -0.0627905 0
    outer loop
      vertex -24 0 1.75
      vertex -23.8108 -3.008 0.05
      vertex -23.8108 -3.008 1.75
    endloop
  endfacet
  facet normal -0.982287 -0.187381 0
    outer loop
      vertex -23.8108 -3.008 0.05
      vertex -23.246 -5.96856 0.05
      vertex -23.8108 -3.008 1.75
    endloop
  endfacet
  facet normal -0.982287 -0.187381 0
    outer loop
      vertex -23.8108 -3.008 1.75
      vertex -23.246 -5.96856 0.05
      vertex -23.246 -5.96856 1.75
    endloop
  endfacet
  facet normal -0.951057 -0.309017 0
    outer loop
      vertex -23.246 -5.96856 0.05
      vertex -22.3146 -8.83499 0.05
      vertex -23.246 -5.96856 1.75
    endloop
  endfacet
  facet normal -0.951057 -0.309017 0
    outer loop
      vertex -23.246 -5.96856 1.75
      vertex -22.3146 -8.83499 0.05
      vertex -22.3146 -8.83499 1.75
    endloop
  endfacet
  facet normal -0.904827 -0.425779 0
    outer loop
      vertex -22.3146 -8.83499 0.05
      vertex -21.0314 -11.5621 0.05
      vertex -22.3146 -8.83499 1.75
    endloop
  endfacet
  facet normal -0.904827 -0.425779 0
    outer loop
      vertex -22.3146 -8.83499 1.75
      vertex -21.0314 -11.5621 0.05
      vertex -21.0314 -11.5621 1.75
    endloop
  endfacet
  facet normal -0.844328 -0.535827 0
    outer loop
      vertex -21.0314 -11.5621 0.05
      vertex -19.4164 -14.1068 0.05
      vertex -21.0314 -11.5621 1.75
    endloop
  endfacet
  facet normal -0.844328 -0.535827 0
    outer loop
      vertex -21.0314 -11.5621 1.75
      vertex -19.4164 -14.1068 0.05
      vertex -19.4164 -14.1068 1.75
    endloop
  endfacet
  facet normal -0.770513 -0.637424 0
    outer loop
      vertex -19.4164 -14.1068 0.05
      vertex -17.4952 -16.4291 0.05
      vertex -19.4164 -14.1068 1.75
    endloop
  endfacet
  facet normal -0.770513 -0.637424 0
    outer loop
      vertex -19.4164 -14.1068 1.75
      vertex -17.4952 -16.4291 0.05
      vertex -17.4952 -16.4291 1.75
    endloop
  endfacet
  facet normal -0.684547 -0.728969 0
    outer loop
      vertex -17.4952 -16.4291 1.75
      vertex -17.4952 -16.4291 0.05
      vertex -15.2982 -18.4923 0.05
    endloop
  endfacet
  facet normal -0.684547 -0.728969 0
    outer loop
      vertex -15.2982 -18.4923 1.75
      vertex -17.4952 -16.4291 1.75
      vertex -15.2982 -18.4923 0.05
    endloop
  endfacet
  facet normal -0.587785 -0.809017 0
    outer loop
      vertex -15.2982 -18.4923 1.75
      vertex -15.2982 -18.4923 0.05
      vertex -12.8598 -20.2639 0.05
    endloop
  endfacet
  facet normal -0.587785 -0.809017 0
    outer loop
      vertex -12.8598 -20.2639 1.75
      vertex -15.2982 -18.4923 1.75
      vertex -12.8598 -20.2639 0.05
    endloop
  endfacet
  facet normal -0.481754 -0.876307 0
    outer loop
      vertex -12.8598 -20.2639 1.75
      vertex -12.8598 -20.2639 0.05
      vertex -10.2187 -21.7158 0.05
    endloop
  endfacet
  facet normal -0.481754 -0.876307 0
    outer loop
      vertex -10.2187 -21.7158 1.75
      vertex -12.8598 -20.2639 1.75
      vertex -10.2187 -21.7158 0.05
    endloop
  endfacet
  facet normal -0.368125 -0.929776 0
    outer loop
      vertex -10.2187 -21.7158 1.75
      vertex -10.2187 -21.7158 0.05
      vertex -7.41641 -22.8254 0.05
    endloop
  endfacet
  facet normal -0.368125 -0.929776 0
    outer loop
      vertex -7.41641 -22.8254 1.75
      vertex -10.2187 -21.7158 1.75
      vertex -7.41641 -22.8254 0.05
    endloop
  endfacet
  facet normal -0.24869 -0.968583 0
    outer loop
      vertex -7.41641 -22.8254 1.75
      vertex -7.41641 -22.8254 0.05
      vertex -4.49715 -23.5749 0.05
    endloop
  endfacet
  facet normal -0.24869 -0.968583 0
    outer loop
      vertex -4.49715 -23.5749 1.75
      vertex -7.41641 -22.8254 1.75
      vertex -4.49715 -23.5749 0.05
    endloop
  endfacet
  facet normal -0.125333 -0.992115 0
    outer loop
      vertex -4.49715 -23.5749 1.75
      vertex -4.49715 -23.5749 0.05
      vertex -1.50697 -23.9526 0.05
    endloop
  endfacet
  facet normal -0.125333 -0.992115 0
    outer loop
      vertex -1.50697 -23.9526 1.75
      vertex -4.49715 -23.5749 1.75
      vertex -1.50697 -23.9526 0.05
    endloop
  endfacet
  facet normal 0 -1 0
    outer loop
      vertex -1.50697 -23.9526 1.75
      vertex -1.50697 -23.9526 0.05
      vertex 1.50697 -23.9526 0.05
    endloop
  endfacet
  facet normal 0 -1 0
    outer loop
      vertex 1.50697 -23.9526 1.75
      vertex -1.50697 -23.9526 1.75
      vertex 1.50697 -23.9526 0.05
    endloop
  endfacet
  facet normal 0.125333 -0.992115 0
    outer loop
      vertex 1.50697 -23.9526 1.75
      vertex 1.50697 -23.9526 0.05
      vertex 4.49715 -23.5749 0.05
    endloop
  endfacet
  facet normal 0.125333 -0.992115 0
    outer loop
      vertex 4.49715 -23.5749 1.75
      vertex 1.50697 -23.9526 1.75
      vertex 4.49715 -23.5749 0.05
    endloop
  endfacet
  facet normal 0.24869 -0.968583 0
    outer loop
      vertex 4.49715 -23.5749 1.75
      vertex 4.49715 -23.5749 0.05
      vertex 7.41641 -22.8254 0.05
    endloop
  endfacet
  facet normal 0.24869 -0.968583 0
    outer loop
      vertex 7.41641 -22.8254 1.75
      vertex 4.49715 -23.5749 1.75
      vertex 7.41641 -22.8254 0.05
    endloop
  endfacet
  facet normal 0.368125 -0.929776 0
    outer loop
      vertex 7.41641 -22.8254 1.75
      vertex 7.41641 -22.8254 0.05
      vertex 10.2187 -21.7158 0.05
    endloop
  endfacet
  facet normal 0.368125 -0.929776 0
    outer loop
      vertex 10.2187 -21.7158 1.75
      vertex 7.41641 -22.8254 1.75
      vertex 10.2187 -21.7158 0.05
    endloop
  endfacet
  facet normal 0.481754 -0.876307 0
    outer loop
      vertex 10.2187 -21.7158 1.75
      vertex 10.2187 -21.7158 0.05
      vertex 12.8598 -20.2639 0.05
    endloop
  endfacet
  facet normal 0.481754 -0.876307 0
    outer loop
      vertex 12.8598 -20.2639 1.75
      vertex 10.2187 -21.7158 1.75
      vertex 12.8598 -20.2639 0.05
    endloop
  endfacet
  facet normal 0.587785 -0.809017 0
    outer loop
      vertex 12.8598 -20.2639 1.75
      vertex 12.8598 -20.2639 0.05
      vertex 15.2982 -18.4923 0.05
    endloop
  endfacet
  facet normal 0.587785 -0.809017 0
    outer loop
      vertex 15.2982 -18.4923 1.75
      vertex 12.8598 -20.2639 1.75
      vertex 15.2982 -18.4923 0.05
    endloop
  endfacet
  facet normal 0.684547 -0.728969 0
    outer loop
      vertex 15.2982 -18.4923 1.75
      vertex 15.2982 -18.4923 0.05
      vertex 17.4952 -16.4291 0.05
    endloop
  endfacet
  facet normal 0.684547 -0.728969 0
    outer loop
      vertex 17.4952 -16.4291 1.75
      vertex 15.2982 -18.4923 1.75
      vertex 17.4952 -16.4291 0.05
    endloop
  endfacet
  facet normal 0.770513 -0.637424 0
    outer loop
      vertex 17.4952 -16.4291 1.75
      vertex 17.4952 -16.4291 0.05
      vertex 19.4164 -14.1068 0.05
    endloop
  endfacet
  facet normal 0.770513 -0.637424 0
    outer loop
      vertex 19.4164 -14.1068 1.75
      vertex 17.4952 -16.4291 1.75
      vertex 19.4164 -14.1068 0.05
    endloop
  endfacet
  facet normal 0.844328 -0.535827 0
    outer loop
      vertex 19.4164 -14.1068 1.75
      vertex 19.4164 -14.1068 0.05
      vertex 21.0314 -11.5621 0.05
    endloop
  endfacet
  facet normal 0.844328 -0.535827 0
    outer loop
      vertex 21.0314 -11.5621 1.75
      vertex 19.4164 -14.1068 1.75
      vertex 21.0314 -11.5621 0.05
    endloop
  endfacet
  facet normal 0.904827 -0.425779 0
    outer loop
      vertex 21.0314 -11.5621 1.75
      vertex 21.0314 -11.5621 0.05
      vertex 22.3146 -8.83499 0.05
    endloop
  endfacet
  facet normal 0.904827 -0.425779 0
    outer loop
      vertex 22.3146 -8.83499 1.75
      vertex 21.0314 -11.5621 1.75
      vertex 22.3146 -8.83499 0.05
    endloop
  endfacet
  facet normal 0.951057 -0.309017 0
    outer loop
      vertex 22.3146 -8.83499 1.75
      vertex 22.3146 -8.83499 0.05
      vertex 23.246 -5.96856 0.05
    endloop
  endfacet
  facet normal 0.951057 -0.309017 0
    outer loop
      vertex 23.246 -5.96856 1.75
      vertex 22.3146 -8.83499 1.75
      vertex 23.246 -5.96856 0.05
    endloop
  endfacet
  facet normal 0.982287 -0.187381 0
    outer loop
      vertex 23.246 -5.96856 1.75
      vertex 23.246 -5.96856 0.05
      vertex 23.8108 -3.008 0.05
    endloop
  endfacet
  facet normal 0.982287 -0.187381 0
    outer loop
      vertex 23.8108 -3.008 1.75
      vertex 23.246 -5.96856 1.75
      vertex 23.8108 -3.008 0.05
    endloop
  endfacet
  facet normal 0.998027 -0.0627905 0
    outer loop
      vertex 23.8108 -3.008 1.75
      vertex 23.8108 -3.008 0.05
      vertex 24 0 0.05
    endloop
  endfacet
  facet normal 0.998027 -0.0627905 0
    outer loop
      vertex 24 0 1.75
      vertex 23.8108 -3.008 1.75
      vertex 24 0 0.05
    endloop
  endfacet
  facet normal 0.998027 0.0627905 0
    outer loop
      vertex 24 0 0.05
      vertex 23.9169 1.32023 0.05
      vertex 23.9169 1.32023 1.75
    endloop
  endfacet
  facet normal 0.998027 0.0627905 0
    outer loop
      vertex 24 0 1.75
      vertex 24 0 0.05
      vertex 23.9169 1.32023 1.75
    endloop
  endfacet
  facet normal -0.866025 0.5 0
    outer loop
      vertex 23.9169 1.32023 1.75
      vertex 23.9169 1.32023 0.05
      vertex 20.4393 -4.7032 1.75
    endloop
  endfacet
  facet normal -0.866025 0.5 0
    outer loop
      vertex 20.4393 -4.7032 1.75
      vertex 23.9169 1.32023 0.05
      vertex 20.4393 -4.7032 0.05
    endloop
  endfacet
  facet normal -0.982287 0.187382 0
    outer loop
      vertex 20.4393 -4.7032 1.75
      vertex 20.4393 -4.7032 0.05
      vertex 20.3402 -5.22249 1.75
    endloop
  endfacet
  facet normal -0.982287 0.187382 0
    outer loop
      vertex 20.3402 -5.22249 1.75
      vertex 20.4393 -4.7032 0.05
      vertex 20.3402 -5.22249 0.05
    endloop
  endfacet
  facet normal -0.951057 0.309017 0
    outer loop
      vertex 20.3402 -5.22249 1.75
      vertex 20.3402 -5.22249 0.05
      vertex 19.5253 -7.73062 1.75
    endloop
  endfacet
  facet normal -0.951057 0.309017 0
    outer loop
      vertex 19.5253 -7.73062 1.75
      vertex 20.3402 -5.22249 0.05
      vertex 19.5253 -7.73062 0.05
    endloop
  endfacet
  facet normal -0.904827 0.425779 0
    outer loop
      vertex 19.5253 -7.73062 1.75
      vertex 19.5253 -7.73062 0.05
      vertex 18.4024 -10.1168 1.75
    endloop
  endfacet
  facet normal -0.904827 0.425779 0
    outer loop
      vertex 18.4024 -10.1168 1.75
      vertex 19.5253 -7.73062 0.05
      vertex 18.4024 -10.1168 0.05
    endloop
  endfacet
  facet normal -0.844328 0.535827 0
    outer loop
      vertex 18.4024 -10.1168 1.75
      vertex 18.4024 -10.1168 0.05
      vertex 16.9894 -12.3435 1.75
    endloop
  endfacet
  facet normal -0.844328 0.535827 0
    outer loop
      vertex 16.9894 -12.3435 1.75
      vertex 18.4024 -10.1168 0.05
      vertex 16.9894 -12.3435 0.05
    endloop
  endfacet
  facet normal -0.770513 0.637424 0
    outer loop
      vertex 16.9894 -12.3435 1.75
      vertex 16.9894 -12.3435 0.05
      vertex 15.3083 -14.3755 1.75
    endloop
  endfacet
  facet normal -0.770513 0.637424 0
    outer loop
      vertex 15.3083 -14.3755 1.75
      vertex 16.9894 -12.3435 0.05
      vertex 15.3083 -14.3755 0.05
    endloop
  endfacet
  facet normal -0.684547 0.728969 0
    outer loop
      vertex 15.3083 -14.3755 1.75
      vertex 15.3083 -14.3755 0.05
      vertex 13.3859 -16.1808 1.75
    endloop
  endfacet
  facet normal -0.684547 0.728969 0
    outer loop
      vertex 13.3859 -16.1808 1.75
      vertex 15.3083 -14.3755 0.05
      vertex 13.3859 -16.1808 0.05
    endloop
  endfacet
  facet normal -0.587785 0.809017 0
    outer loop
      vertex 13.3859 -16.1808 1.75
      vertex 13.3859 -16.1808 0.05
      vertex 11.2524 -17.7309 1.75
    endloop
  endfacet
  facet normal -0.587785 0.809017 0
    outer loop
      vertex 11.2524 -17.7309 1.75
      vertex 13.3859 -16.1808 0.05
      vertex 11.2524 -17.7309 0.05
    endloop
  endfacet
  facet normal -0.481754 0.876307 0
    outer loop
      vertex 11.2524 -17.7309 1.75
      vertex 11.2524 -17.7309 0.05
      vertex 8.94136 -19.0014 1.75
    endloop
  endfacet
  facet normal -0.481754 0.876307 0
    outer loop
      vertex 8.94136 -19.0014 1.75
      vertex 11.2524 -17.7309 0.05
      vertex 8.94136 -19.0014 0.05
    endloop
  endfacet
  facet normal -0.368125 0.929776 0
    outer loop
      vertex 8.94136 -19.0014 1.75
      vertex 8.94136 -19.0014 0.05
      vertex 6.48936 -19.9722 1.75
    endloop
  endfacet
  facet normal -0.368125 0.929776 0
    outer loop
      vertex 6.48936 -19.9722 1.75
      vertex 8.94136 -19.0014 0.05
      vertex 6.48936 -19.9722 0.05
    endloop
  endfacet
  facet normal -0.24869 0.968583 0
    outer loop
      vertex 6.48936 -19.9722 1.75
      vertex 6.48936 -19.9722 0.05
      vertex 3.93501 -20.628 1.75
    endloop
  endfacet
  facet normal -0.24869 0.968583 0
    outer loop
      vertex 3.93501 -20.628 1.75
      vertex 6.48936 -19.9722 0.05
      vertex 3.93501 -20.628 0.05
    endloop
  endfacet
  facet normal -0.125333 0.992115 0
    outer loop
      vertex 3.93501 -20.628 1.75
      vertex 3.93501 -20.628 0.05
      vertex 1.3186 -20.9586 1.75
    endloop
  endfacet
  facet normal -0.125333 0.992115 0
    outer loop
      vertex 1.3186 -20.9586 1.75
      vertex 3.93501 -20.628 0.05
      vertex 1.3186 -20.9586 0.05
    endloop
  endfacet
  facet normal 0 1 0
    outer loop
      vertex 1.3186 -20.9586 1.75
      vertex 1.3186 -20.9586 0.05
      vertex -1.3186 -20.9586 1.75
    endloop
  endfacet
  facet normal 0 1 0
    outer loop
      vertex -1.3186 -20.9586 1.75
      vertex 1.3186 -20.9586 0.05
      vertex -1.3186 -20.9586 0.05
    endloop
  endfacet
  facet normal 0.125333 0.992115 0
    outer loop
      vertex -1.3186 -20.9586 1.75
      vertex -1.3186 -20.9586 0.05
      vertex -3.93501 -20.628 1.75
    endloop
  endfacet
  facet normal 0.125333 0.992115 0
    outer loop
      vertex -3.93501 -20.628 1.75
      vertex -1.3186 -20.9586 0.05
      vertex -3.93501 -20.628 0.05
    endloop
  endfacet
  facet normal 0.24869 0.968583 0
    outer loop
      vertex -3.93501 -20.628 1.75
      vertex -3.93501 -20.628 0.05
      vertex -6.48936 -19.9722 1.75
    endloop
  endfacet
  facet normal 0.24869 0.968583 0
    outer loop
      vertex -6.48936 -19.9722 1.75
      vertex -3.93501 -20.628 0.05
      vertex -6.48936 -19.9722 0.05
    endloop
  endfacet
  facet normal 0.368125 0.929776 0
    outer loop
      vertex -6.48936 -19.9722 1.75
      vertex -6.48936 -19.9722 0.05
      vertex -8.94136 -19.0014 1.75
    endloop
  endfacet
  facet normal 0.368125 0.929776 0
    outer loop
      vertex -8.94136 -19.0014 1.75
      vertex -6.48936 -19.9722 0.05
      vertex -8.94136 -19.0014 0.05
    endloop
  endfacet
  facet normal 0.481754 0.876307 0
    outer loop
      vertex -8.94136 -19.0014 1.75
      vertex -8.94136 -19.0014 0.05
      vertex -11.2524 -17.7309 1.75
    endloop
  endfacet
  facet normal 0.481754 0.876307 0
    outer loop
      vertex -11.2524 -17.7309 1.75
      vertex -8.94136 -19.0014 0.05
      vertex -11.2524 -17.7309 0.05
    endloop
  endfacet
  facet normal 0.587785 0.809017 0
    outer loop
      vertex -11.2524 -17.7309 1.75
      vertex -11.2524 -17.7309 0.05
      vertex -13.3859 -16.1808 1.75
    endloop
  endfacet
  facet normal 0.587785 0.809017 0
    outer loop
      vertex -13.3859 -16.1808 1.75
      vertex -11.2524 -17.7309 0.05
      vertex -13.3859 -16.1808 0.05
    endloop
  endfacet
  facet normal 0.684547 0.728969 0
    outer loop
      vertex -13.3859 -16.1808 1.75
      vertex -13.3859 -16.1808 0.05
      vertex -15.3083 -14.3755 1.75
    endloop
  endfacet
  facet normal 0.684547 0.728969 0
    outer loop
      vertex -15.3083 -14.3755 1.75
      vertex -13.3859 -16.1808 0.05
      vertex -15.3083 -14.3755 0.05
    endloop
  endfacet
  facet normal 0.770513 0.637424 0
    outer loop
      vertex -16.9894 -12.3435 1.75
      vertex -15.3083 -14.3755 1.75
      vertex -15.3083 -14.3755 0.05
    endloop
  endfacet
  facet normal 0.770513 0.637424 0
    outer loop
      vertex -16.9894 -12.3435 0.05
      vertex -16.9894 -12.3435 1.75
      vertex -15.3083 -14.3755 0.05
    endloop
  endfacet
  facet normal 0.844328 0.535827 0
    outer loop
      vertex -18.4024 -10.1168 1.75
      vertex -16.9894 -12.3435 1.75
      vertex -16.9894 -12.3435 0.05
    endloop
  endfacet
  facet normal 0.844328 0.535827 0
    outer loop
      vertex -18.4024 -10.1168 0.05
      vertex -18.4024 -10.1168 1.75
      vertex -16.9894 -12.3435 0.05
    endloop
  endfacet
  facet normal 0.904827 0.425779 0
    outer loop
      vertex -19.5253 -7.73062 1.75
      vertex -18.4024 -10.1168 1.75
      vertex -18.4024 -10.1168 0.05
    endloop
  endfacet
  facet normal 0.904827 0.425779 0
    outer loop
      vertex -19.5253 -7.73062 0.05
      vertex -19.5253 -7.73062 1.75
      vertex -18.4024 -10.1168 0.05
    endloop
  endfacet
  facet normal 0.951057 0.309017 0
    outer loop
      vertex -20.3402 -5.22249 1.75
      vertex -19.5253 -7.73062 1.75
      vertex -19.5253 -7.73062 0.05
    endloop
  endfacet
  facet normal 0.951057 0.309017 0
    outer loop
      vertex -20.3402 -5.22249 0.05
      vertex -20.3402 -5.22249 1.75
      vertex -19.5253 -7.73062 0.05
    endloop
  endfacet
  facet normal 0.982287 0.187382 0
    outer loop
      vertex -20.8344 -2.632 1.75
      vertex -20.3402 -5.22249 1.75
      vertex -20.3402 -5.22249 0.05
    endloop
  endfacet
  facet normal 0.982287 0.187382 0
    outer loop
      vertex -20.8344 -2.632 0.05
      vertex -20.8344 -2.632 1.75
      vertex -20.3402 -5.22249 0.05
    endloop
  endfacet
  facet normal 0.998027 0.0627904 0
    outer loop
      vertex -21 0 1.75
      vertex -20.8344 -2.632 1.75
      vertex -20.8344 -2.632 0.05
    endloop
  endfacet
  facet normal 0.998027 0.0627904 0
    outer loop
      vertex -21 0 0.05
      vertex -21 0 1.75
      vertex -20.8344 -2.632 0.05
    endloop
  endfacet
  facet normal 0.998027 -0.0627904 0
    outer loop
      vertex -20.8344 2.632 0.05
      vertex -20.8344 2.632 1.75
      vertex -21 0 1.75
    endloop
  endfacet
  facet normal 0.998027 -0.0627904 0
    outer loop
      vertex -21 0 0.05
      vertex -20.8344 2.632 0.05
      vertex -21 0 1.75
    endloop
  endfacet
  facet normal 0.982287 -0.187382 0
    outer loop
      vertex -20.3402 5.22249 0.05
      vertex -20.3402 5.22249 1.75
      vertex -20.8344 2.632 1.75
    endloop
  endfacet
  facet normal 0.982287 -0.187382 0
    outer loop
      vertex -20.8344 2.632 0.05
      vertex -20.3402 5.22249 0.05
      vertex -20.8344 2.632 1.75
    endloop
  endfacet
  facet normal 0.951057 -0.309017 0
    outer loop
      vertex -19.5253 7.73062 0.05
      vertex -19.5253 7.73062 1.75
      vertex -20.3402 5.22249 1.75
    endloop
  endfacet
  facet normal 0.951057 -0.309017 0
    outer loop
      vertex -20.3402 5.22249 0.05
      vertex -19.5253 7.73062 0.05
      vertex -20.3402 5.22249 1.75
    endloop
  endfacet
  facet normal 0.904827 -0.425779 0
    outer loop
      vertex -18.4024 10.1168 0.05
      vertex -18.4024 10.1168 1.75
      vertex -19.5253 7.73062 1.75
    endloop
  endfacet
  facet normal 0.904827 -0.425779 0
    outer loop
      vertex -19.5253 7.73062 0.05
      vertex -18.4024 10.1168 0.05
      vertex -19.5253 7.73062 1.75
    endloop
  endfacet
  facet normal 0.844328 -0.535827 0
    outer loop
      vertex -16.9894 12.3435 0.05
      vertex -16.9894 12.3435 1.75
      vertex -18.4024 10.1168 1.75
    endloop
  endfacet
  facet normal 0.844328 -0.535827 0
    outer loop
      vertex -18.4024 10.1168 0.05
      vertex -16.9894 12.3435 0.05
      vertex -18.4024 10.1168 1.75
    endloop
  endfacet
  facet normal 0.770513 -0.637424 0
    outer loop
      vertex -15.3083 14.3755 0.05
      vertex -15.3083 14.3755 1.75
      vertex -16.9894 12.3435 1.75
    endloop
  endfacet
  facet normal 0.770513 -0.637424 0
    outer loop
      vertex -16.9894 12.3435 0.05
      vertex -15.3083 14.3755 0.05
      vertex -16.9894 12.3435 1.75
    endloop
  endfacet
  facet normal 0.684547 -0.728969 0
    outer loop
      vertex -13.3859 16.1808 0.05
      vertex -13.3859 16.1808 1.75
      vertex -15.3083 14.3755 1.75
    endloop
  endfacet
  facet normal 0.684547 -0.728969 0
    outer loop
      vertex -15.3083 14.3755 0.05
      vertex -13.3859 16.1808 0.05
      vertex -15.3083 14.3755 1.75
    endloop
  endfacet
  facet normal 0.587785 -0.809017 0
    outer loop
      vertex -11.2524 17.7309 0.05
      vertex -11.2524 17.7309 1.75
      vertex -13.3859 16.1808 1.75
    endloop
  endfacet
  facet normal 0.587785 -0.809017 0
    outer loop
      vertex -13.3859 16.1808 0.05
      vertex -11.2524 17.7309 0.05
      vertex -13.3859 16.1808 1.75
    endloop
  endfacet
  facet normal 0.481754 -0.876307 0
    outer loop
      vertex -8.94136 19.0014 0.05
      vertex -8.94136 19.0014 1.75
      vertex -11.2524 17.7309 1.75
    endloop
  endfacet
  facet normal 0.481754 -0.876307 0
    outer loop
      vertex -11.2524 17.7309 0.05
      vertex -8.94136 19.0014 0.05
      vertex -11.2524 17.7309 1.75
    endloop
  endfacet
  facet normal 0.368125 -0.929776 0
    outer loop
      vertex -6.48936 19.9722 0.05
      vertex -6.48936 19.9722 1.75
      vertex -8.94136 19.0014 1.75
    endloop
  endfacet
  facet normal 0.368125 -0.929776 0
    outer loop
      vertex -8.94136 19.0014 0.05
      vertex -6.48936 19.9722 0.05
      vertex -8.94136 19.0014 1.75
    endloop
  endfacet
  facet normal 0.24869 -0.968583 0
    outer loop
      vertex -3.93501 20.628 0.05
      vertex -3.93501 20.628 1.75
      vertex -6.48936 19.9722 1.75
    endloop
  endfacet
  facet normal 0.24869 -0.968583 0
    outer loop
      vertex -6.48936 19.9722 0.05
      vertex -3.93501 20.628 0.05
      vertex -6.48936 19.9722 1.75
    endloop
  endfacet
  facet normal 0.125333 -0.992115 0
    outer loop
      vertex -1.3186 20.9586 0.05
      vertex -1.3186 20.9586 1.75
      vertex -3.93501 20.628 1.75
    endloop
  endfacet
  facet normal 0.125333 -0.992115 0
    outer loop
      vertex -3.93501 20.628 0.05
      vertex -1.3186 20.9586 0.05
      vertex -3.93501 20.628 1.75
    endloop
  endfacet
  facet normal 0 -1 0
    outer loop
      vertex 1.3186 20.9586 0.05
      vertex 1.3186 20.9586 1.75
      vertex -1.3186 20.9586 1.75
    endloop
  endfacet
  facet normal 0 -1 0
    outer loop
      vertex -1.3186 20.9586 0.05
      vertex 1.3186 20.9586 0.05
      vertex -1.3186 20.9586 1.75
    endloop
  endfacet
  facet normal -0.125333 -0.992115 0
    outer loop
      vertex 3.93501 20.628 0.05
      vertex 3.93501 20.628 1.75
      vertex 1.3186 20.9586 1.75
    endloop
  endfacet
  facet normal -0.125333 -0.992115 0
    outer loop
      vertex 1.3186 20.9586 0.05
      vertex 3.93501 20.628 0.05
      vertex 1.3186 20.9586 1.75
    endloop
  endfacet
  facet normal -0.24869 -0.968583 0
    outer loop
      vertex 6.48936 19.9722 0.05
      vertex 6.48936 19.9722 1.75
      vertex 3.93501 20.628 1.75
    endloop
  endfacet
  facet normal -0.24869 -0.968583 0
    outer loop
      vertex 3.93501 20.628 0.05
      vertex 6.48936 19.9722 0.05
      vertex 3.93501 20.628 1.75
    endloop
  endfacet
  facet normal -0.368125 -0.929776 0
    outer loop
      vertex 8.94136 19.0014 0.05
      vertex 8.94136 19.0014 1.75
      vertex 6.48936 19.9722 1.75
    endloop
  endfacet
  facet normal -0.368125 -0.929776 0
    outer loop
      vertex 6.48936 19.9722 0.05
      vertex 8.94136 19.0014 0.05
      vertex 6.48936 19.9722 1.75
    endloop
  endfacet
  facet normal -0.481754 -0.876307 0
    outer loop
      vertex 11.2524 17.7309 0.05
      vertex 11.2524 17.7309 1.75
      vertex 8.94136 19.0014 1.75
    endloop
  endfacet
  facet normal -0.481754 -0.876307 0
    outer loop
      vertex 8.94136 19.0014 0.05
      vertex 11.2524 17.7309 0.05
      vertex 8.94136 19.0014 1.75
    endloop
  endfacet
  facet normal -0.587785 -0.809017 0
    outer loop
      vertex 13.3859 16.1808 0.05
      vertex 13.3859 16.1808 1.75
      vertex 11.2524 17.7309 1.75
    endloop
  endfacet
  facet normal -0.587785 -0.809017 0
    outer loop
      vertex 11.2524 17.7309 0.05
      vertex 13.3859 16.1808 0.05
      vertex 11.2524 17.7309 1.75
    endloop
  endfacet
  facet normal -0.684547 -0.728969 0
    outer loop
      vertex 15.3083 14.3755 0.05
      vertex 15.3083 14.3755 1.75
      vertex 13.3859 16.1808 1.75
    endloop
  endfacet
  facet normal -0.684547 -0.728969 0
    outer loop
      vertex 13.3859 16.1808 0.05
      vertex 15.3083 14.3755 0.05
      vertex 13.3859 16.1808 1.75
    endloop
  endfacet
  facet normal -0.770513 -0.637424 0
    outer loop
      vertex 16.9894 12.3435 1.75
      vertex 15.3083 14.3755 1.75
      vertex 16.9894 12.3435 0.05
    endloop
  endfacet
  facet normal -0.770513 -0.637424 0
    outer loop
      vertex 16.9894 12.3435 0.05
      vertex 15.3083 14.3755 1.75
      vertex 15.3083 14.3755 0.05
    endloop
  endfacet
  facet normal -0.844328 -0.535827 0
    outer loop
      vertex 18.4024 10.1168 1.75
      vertex 16.9894 12.3435 1.75
      vertex 18.4024 10.1168 0.05
    endloop
  endfacet
  facet normal -0.844328 -0.535827 0
    outer loop
      vertex 18.4024 10.1168 0.05
      vertex 16.9894 12.3435 1.75
      vertex 16.9894 12.3435 0.05
    endloop
  endfacet
  facet normal -0.904827 -0.425779 0
    outer loop
      vertex 19.5253 7.73062 1.75
      vertex 18.4024 10.1168 1.75
      vertex 19.5253 7.73062 0.05
    endloop
  endfacet
  facet normal -0.904827 -0.425779 0
    outer loop
      vertex 19.5253 7.73062 0.05
      vertex 18.4024 10.1168 1.75
      vertex 18.4024 10.1168 0.05
    endloop
  endfacet
  facet normal -0.951057 -0.309017 0
    outer loop
      vertex 20.3402 5.22249 1.75
      vertex 19.5253 7.73062 1.75
      vertex 20.3402 5.22249 0.05
    endloop
  endfacet
  facet normal -0.951057 -0.309017 0
    outer loop
      vertex 20.3402 5.22249 0.05
      vertex 19.5253 7.73062 1.75
      vertex 19.5253 7.73062 0.05
    endloop
  endfacet
  facet normal -0.982287 -0.187382 0
    outer loop
      vertex 20.8344 2.632 1.75
      vertex 20.3402 5.22249 1.75
      vertex 20.8344 2.632 0.05
    endloop
  endfacet
  facet normal -0.982287 -0.187382 0
    outer loop
      vertex 20.8344 2.632 0.05
      vertex 20.3402 5.22249 1.75
      vertex 20.3402 5.22249 0.05
    endloop
  endfacet
  facet normal -0.998027 -0.0627904 0
    outer loop
      vertex 20.9848 0.24162 1.75
      vertex 20.8344 2.632 1.75
      vertex 20.9848 0.24162 0.05
    endloop
  endfacet
  facet normal -0.998027 -0.0627904 0
    outer loop
      vertex 20.9848 0.24162 0.05
      vertex 20.8344 2.632 1.75
      vertex 20.8344 2.632 0.05
    endloop
  endfacet
  facet normal 0.866025 -0.5 0
    outer loop
      vertex 23.5056 4.60775 0.05
      vertex 23.5056 4.60775 1.75
      vertex 20.9848 0.24162 1.75
    endloop
  endfacet
  facet normal 0.866025 -0.5 0
    outer loop
      vertex 20.9848 0.24162 0.05
      vertex 23.5056 4.60775 0.05
      vertex 20.9848 0.24162 1.75
    endloop
  endfacet
  facet normal 0.982287 0.187381 0
    outer loop
      vertex 23.5056 4.60775 0.05
      vertex 23.246 5.96856 0.05
      vertex 23.246 5.96856 1.75
    endloop
  endfacet
  facet normal 0.982287 0.187381 0
    outer loop
      vertex 23.5056 4.60775 1.75
      vertex 23.5056 4.60775 0.05
      vertex 23.246 5.96856 1.75
    endloop
  endfacet
  facet normal 0.951057 0.309017 0
    outer loop
      vertex 23.246 5.96856 0.05
      vertex 22.3146 8.83499 0.05
      vertex 22.3146 8.83499 1.75
    endloop
  endfacet
  facet normal 0.951057 0.309017 0
    outer loop
      vertex 23.246 5.96856 1.75
      vertex 23.246 5.96856 0.05
      vertex 22.3146 8.83499 1.75
    endloop
  endfacet
  facet normal 0.904827 0.425779 0
    outer loop
      vertex 22.3146 8.83499 0.05
      vertex 21.0314 11.5621 0.05
      vertex 21.0314 11.5621 1.75
    endloop
  endfacet
  facet normal 0.904827 0.425779 0
    outer loop
      vertex 22.3146 8.83499 1.75
      vertex 22.3146 8.83499 0.05
      vertex 21.0314 11.5621 1.75
    endloop
  endfacet
  facet normal 0.844328 0.535827 0
    outer loop
      vertex 21.0314 11.5621 0.05
      vertex 19.4164 14.1068 0.05
      vertex 19.4164 14.1068 1.75
    endloop
  endfacet
  facet normal 0.844328 0.535827 0
    outer loop
      vertex 21.0314 11.5621 1.75
      vertex 21.0314 11.5621 0.05
      vertex 19.4164 14.1068 1.75
    endloop
  endfacet
  facet normal 0.770513 0.637424 0
    outer loop
      vertex 19.4164 14.1068 0.05
      vertex 17.4952 16.4291 0.05
      vertex 17.4952 16.4291 1.75
    endloop
  endfacet
  facet normal 0.770513 0.637424 0
    outer loop
      vertex 19.4164 14.1068 1.75
      vertex 19.4164 14.1068 0.05
      vertex 17.4952 16.4291 1.75
    endloop
  endfacet
  facet normal 0.684547 0.728969 0
    outer loop
      vertex 15.2982 18.4923 0.05
      vertex 15.2982 18.4923 1.75
      vertex 17.4952 16.4291 0.05
    endloop
  endfacet
  facet normal 0.684547 0.728969 0
    outer loop
      vertex 17.4952 16.4291 0.05
      vertex 15.2982 18.4923 1.75
      vertex 17.4952 16.4291 1.75
    endloop
  endfacet
  facet normal 0.587785 0.809017 0
    outer loop
      vertex 12.8598 20.2639 0.05
      vertex 12.8598 20.2639 1.75
      vertex 15.2982 18.4923 0.05
    endloop
  endfacet
  facet normal 0.587785 0.809017 0
    outer loop
      vertex 15.2982 18.4923 0.05
      vertex 12.8598 20.2639 1.75
      vertex 15.2982 18.4923 1.75
    endloop
  endfacet
  facet normal 0.481754 0.876307 0
    outer loop
      vertex 10.2187 21.7158 0.05
      vertex 10.2187 21.7158 1.75
      vertex 12.8598 20.2639 0.05
    endloop
  endfacet
  facet normal 0.481754 0.876307 0
    outer loop
      vertex 12.8598 20.2639 0.05
      vertex 10.2187 21.7158 1.75
      vertex 12.8598 20.2639 1.75
    endloop
  endfacet
  facet normal 0.368125 0.929776 0
    outer loop
      vertex 7.41641 22.8254 0.05
      vertex 7.41641 22.8254 1.75
      vertex 10.2187 21.7158 0.05
    endloop
  endfacet
  facet normal 0.368125 0.929776 0
    outer loop
      vertex 10.2187 21.7158 0.05
      vertex 7.41641 22.8254 1.75
      vertex 10.2187 21.7158 1.75
    endloop
  endfacet
  facet normal 0.24869 0.968583 0
    outer loop
      vertex 4.49715 23.5749 0.05
      vertex 4.49715 23.5749 1.75
      vertex 7.41641 22.8254 0.05
    endloop
  endfacet
  facet normal 0.24869 0.968583 0
    outer loop
      vertex 7.41641 22.8254 0.05
      vertex 4.49715 23.5749 1.75
      vertex 7.41641 22.8254 1.75
    endloop
  endfacet
  facet normal 0.125333 0.992115 0
    outer loop
      vertex 1.50697 23.9526 0.05
      vertex 1.50697 23.9526 1.75
      vertex 4.49715 23.5749 0.05
    endloop
  endfacet
  facet normal 0.125333 0.992115 0
    outer loop
      vertex 4.49715 23.5749 0.05
      vertex 1.50697 23.9526 1.75
      vertex 4.49715 23.5749 1.75
    endloop
  endfacet
  facet normal 0 1 0
    outer loop
      vertex -1.50697 23.9526 0.05
      vertex -1.50697 23.9526 1.75
      vertex 1.50697 23.9526 0.05
    endloop
  endfacet
  facet normal 0 1 0
    outer loop
      vertex 1.50697 23.9526 0.05
      vertex -1.50697 23.9526 1.75
      vertex 1.50697 23.9526 1.75
    endloop
  endfacet
  facet normal -0.125333 0.992115 0
    outer loop
      vertex -4.49715 23.5749 0.05
      vertex -4.49715 23.5749 1.75
      vertex -1.50697 23.9526 0.05
    endloop
  endfacet
  facet normal -0.125333 0.992115 0
    outer loop
      vertex -1.50697 23.9526 0.05
      vertex -4.49715 23.5749 1.75
      vertex -1.50697 23.9526 1.75
    endloop
  endfacet
  facet normal -0.24869 0.968583 0
    outer loop
      vertex -7.41641 22.8254 0.05
      vertex -7.41641 22.8254 1.75
      vertex -4.49715 23.5749 0.05
    endloop
  endfacet
  facet normal -0.24869 0.968583 0
    outer loop
      vertex -4.49715 23.5749 0.05
      vertex -7.41641 22.8254 1.75
      vertex -4.49715 23.5749 1.75
    endloop
  endfacet
  facet normal -0.368125 0.929776 0
    outer loop
      vertex -10.2187 21.7158 0.05
      vertex -10.2187 21.7158 1.75
      vertex -7.41641 22.8254 0.05
    endloop
  endfacet
  facet normal -0.368125 0.929776 0
    outer loop
      vertex -7.41641 22.8254 0.05
      vertex -10.2187 21.7158 1.75
      vertex -7.41641 22.8254 1.75
    endloop
  endfacet
  facet normal -0.481754 0.876307 0
    outer loop
      vertex -12.8598 20.2639 0.05
      vertex -12.8598 20.2639 1.75
      vertex -10.2187 21.7158 0.05
    endloop
  endfacet
  facet normal -0.481754 0.876307 0
    outer loop
      vertex -10.2187 21.7158 0.05
      vertex -12.8598 20.2639 1.75
      vertex -10.2187 21.7158 1.75
    endloop
  endfacet
  facet normal -0.587785 0.809017 0
    outer loop
      vertex -15.2982 18.4923 0.05
      vertex -15.2982 18.4923 1.75
      vertex -12.8598 20.2639 0.05
    endloop
  endfacet
  facet normal -0.587785 0.809017 0
    outer loop
      vertex -12.8598 20.2639 0.05
      vertex -15.2982 18.4923 1.75
      vertex -12.8598 20.2639 1.75
    endloop
  endfacet
  facet normal -0.684547 0.728969 0
    outer loop
      vertex -17.4952 16.4291 0.05
      vertex -17.4952 16.4291 1.75
      vertex -15.2982 18.4923 0.05
    endloop
  endfacet
  facet normal -0.684547 0.728969 0
    outer loop
      vertex -15.2982 18.4923 0.05
      vertex -17.4952 16.4291 1.75
      vertex -15.2982 18.4923 1.75
    endloop
  endfacet
  facet normal -0.770513 0.637424 0
    outer loop
      vertex -19.4164 14.1068 0.05
      vertex -19.4164 14.1068 1.75
      vertex -17.4952 16.4291 0.05
    endloop
  endfacet
  facet normal -0.770513 0.637424 0
    outer loop
      vertex -17.4952 16.4291 0.05
      vertex -19.4164 14.1068 1.75
      vertex -17.4952 16.4291 1.75
    endloop
  endfacet
  facet normal -0.844328 0.535827 0
    outer loop
      vertex -21.0314 11.5621 0.05
      vertex -21.0314 11.5621 1.75
      vertex -19.4164 14.1068 0.05
    endloop
  endfacet
  facet normal -0.844328 0.535827 0
    outer loop
      vertex -19.4164 14.1068 0.05
      vertex -21.0314 11.5621 1.75
      vertex -19.4164 14.1068 1.75
    endloop
  endfacet
  facet normal -0.904827 0.425779 0
    outer loop
      vertex -22.3146 8.83499 0.05
      vertex -22.3146 8.83499 1.75
      vertex -21.0314 11.5621 0.05
    endloop
  endfacet
  facet normal -0.904827 0.425779 0
    outer loop
      vertex -21.0314 11.5621 0.05
      vertex -22.3146 8.83499 1.75
      vertex -21.0314 11.5621 1.75
    endloop
  endfacet
  facet normal -0.951057 0.309017 0
    outer loop
      vertex -23.246 5.96856 0.05
      vertex -23.246 5.96856 1.75
      vertex -22.3146 8.83499 0.05
    endloop
  endfacet
  facet normal -0.951057 0.309017 0
    outer loop
      vertex -22.3146 8.83499 0.05
      vertex -23.246 5.96856 1.75
      vertex -22.3146 8.83499 1.75
    endloop
  endfacet
  facet normal -0.982287 0.187381 0
    outer loop
      vertex -23.8108 3.008 0.05
      vertex -23.8108 3.008 1.75
      vertex -23.246 5.96856 0.05
    endloop
  endfacet
  facet normal -0.982287 0.187381 0
    outer loop
      vertex -23.246 5.96856 0.05
      vertex -23.8108 3.008 1.75
      vertex -23.246 5.96856 1.75
    endloop
  endfacet
  facet normal 0 0 1
    outer loop
      vertex -23.8108 3.008 1.75
      vertex -24 0 1.75
      vertex -23.8108 -3.008 1.75
    endloop
  endfacet
  facet normal 0 0 1
    outer loop
      vertex -22.3146 -8.83499 1.75
      vertex -23.8108 3.008 1.75
      vertex -23.246 -5.96856 1.75
    endloop
  endfacet
  facet normal 0 0 1
    outer loop
      vertex -23.246 -5.96856 1.75
      vertex -23.8108 3.008 1.75
      vertex -23.8108 -3.008 1.75
    endloop
  endfacet
  facet normal 0 0 1
    outer loop
      vertex -21.0314 -11.5621 1.75
      vertex -23.8108 3.008 1.75
      vertex -22.3146 -8.83499 1.75
    endloop
  endfacet
  facet normal 0 0 1
    outer loop
      vertex -19.4164 -14.1068 1.75
      vertex -23.8108 3.008 1.75
      vertex -21.0314 -11.5621 1.75
    endloop
  endfacet
  facet normal 0 0 1
    outer loop
      vertex -17.4952 -16.4291 1.75
      vertex -23.8108 3.008 1.75
      vertex -19.4164 -14.1068 1.75
    endloop
  endfacet
  facet normal 0 0 1
    outer loop
      vertex -15.2982 -18.4923 1.75
      vertex -23.8108 3.008 1.75
      vertex -17.4952 -16.4291 1.75
    endloop
  endfacet
  facet normal 0 0 1
    outer loop
      vertex -19.5253 -7.73062 1.75
      vertex -23.8108 3.008 1.75
      vertex -15.2982 -18.4923 1.75
    endloop
  endfacet
  facet normal 0 0 1
    outer loop
      vertex -19.5253 -7.73062 1.75
      vertex -20.3402 -5.22249 1.75
      vertex -23.8108 3.008 1.75
    endloop
  endfacet
  facet normal 0 0 1
    outer loop
      vertex -15.3083 -14.3755 1.75
      vertex -16.9894 -12.3435 1.75
      vertex -12.8598 -20.2639 1.75
    endloop
  endfacet
  facet normal 0 0 1
    outer loop
      vertex -11.2524 -17.7309 1.75
      vertex -13.3859 -16.1808 1.75
      vertex -10.2187 -21.7158 1.75
    endloop
  endfacet
  facet normal 0 0 1
    outer loop
      vertex -8.94136 -19.0014 1.75
      vertex -11.2524 -17.7309 1.75
      vertex -7.41641 -22.8254 1.75
    endloop
  endfacet
  facet normal 0 0 1
    outer loop
      vertex -6.48936 -19.9722 1.75
      vertex -8.94136 -19.0014 1.75
      vertex -4.49715 -23.5749 1.75
    endloop
  endfacet
  facet normal 0 0 1
    outer loop
      vertex -3.93501 -20.628 1.75
      vertex -6.48936 -19.9722 1.75
      vertex -1.50697 -23.9526 1.75
    endloop
  endfacet
  facet normal 0 0 1
    outer loop
      vertex 1.3186 -20.9586 1.75
      vertex -1.3186 -20.9586 1.75
      vertex 1.50697 -23.9526 1.75
    endloop
  endfacet
  facet normal 0 0 1
    outer loop
      vertex 3.93501 -20.628 1.75
      vertex 1.3186 -20.9586 1.75
      vertex 4.49715 -23.5749 1.75
    endloop
  endfacet
  facet normal 0 0 1
    outer loop
      vertex 6.48936 -19.9722 1.75
      vertex 3.93501 -20.628 1.75
      vertex 7.41641 -22.8254 1.75
    endloop
  endfacet
  facet normal 0 0 1
    outer loop
      vertex 8.94136 -19.0014 1.75
      vertex 6.48936 -19.9722 1.75
      vertex 10.2187 -21.7158 1.75
    endloop
  endfacet
  facet normal 0 0 1
    outer loop
      vertex 11.2524 -17.7309 1.75
      vertex 8.94136 -19.0014 1.75
      vertex 12.8598 -20.2639 1.75
    endloop
  endfacet
  facet normal 0 0 1
    outer loop
      vertex 13.3859 -16.1808 1.75
      vertex 11.2524 -17.7309 1.75
      vertex 15.2982 -18.4923 1.75
    endloop
  endfacet
  facet normal 0 0 1
    outer loop
      vertex 15.3083 -14.3755 1.75
      vertex 13.3859 -16.1808 1.75
      vertex 17.4952 -16.4291 1.75
    endloop
  endfacet
  facet normal 0 0 1
    outer loop
      vertex 16.9894 -12.3435 1.75
      vertex 15.3083 -14.3755 1.75
      vertex 19.4164 -14.1068 1.75
    endloop
  endfacet
  facet normal 0 0 1
    outer loop
      vertex 18.4024 -10.1168 1.75
      vertex 16.9894 -12.3435 1.75
      vertex 21.0314 -11.5621 1.75
    endloop
  endfacet
  facet normal 0 0 1
    outer loop
      vertex 19.5253 -7.73062 1.75
      vertex 18.4024 -10.1168 1.75
      vertex 22.3146 -8.83499 1.75
    endloop
  endfacet
  facet normal 0 0 1
    outer loop
      vertex -20.3402 -5.22249 1.75
      vertex -20.8344 -2.632 1.75
      vertex -23.8108 3.008 1.75
    endloop
  endfacet
  facet normal 0 0 1
    outer loop
      vertex 23.8108 -3.008 1.75
      vertex 20.4393 -4.7032 1.75
      vertex 23.246 -5.96856 1.75
    endloop
  endfacet
  facet normal 0 0 1
    outer loop
      vertex 20.4393 -4.7032 1.75
      vertex 20.3402 -5.22249 1.75
      vertex 23.246 -5.96856 1.75
    endloop
  endfacet
  facet normal 0 0 1
    outer loop
      vertex 23.246 -5.96856 1.75
      vertex 19.5253 -7.73062 1.75
      vertex 22.3146 -8.83499 1.75
    endloop
  endfacet
  facet normal 0 0 1
    outer loop
      vertex 22.3146 -8.83499 1.75
      vertex 18.4024 -10.1168 1.75
      vertex 21.0314 -11.5621 1.75
    endloop
  endfacet
  facet normal 0 0 1
    outer loop
      vertex 21.0314 -11.5621 1.75
      vertex 16.9894 -12.3435 1.75
      vertex 19.4164 -14.1068 1.75
    endloop
  endfacet
  facet normal 0 0 1
    outer loop
      vertex 19.4164 -14.1068 1.75
      vertex 15.3083 -14.3755 1.75
      vertex 17.4952 -16.4291 1.75
    endloop
  endfacet
  facet normal 0 0 1
    outer loop
      vertex 17.4952 -16.4291 1.75
      vertex 13.3859 -16.1808 1.75
      vertex 15.2982 -18.4923 1.75
    endloop
  endfacet
  facet normal 0 0 1
    outer loop
      vertex 15.2982 -18.4923 1.75
      vertex 11.2524 -17.7309 1.75
      vertex 12.8598 -20.2639 1.75
    endloop
  endfacet
  facet normal 0 0 1
    outer loop
      vertex 12.8598 -20.2639 1.75
      vertex 8.94136 -19.0014 1.75
      vertex 10.2187 -21.7158 1.75
    endloop
  endfacet
  facet normal 0 0 1
    outer loop
      vertex 10.2187 -21.7158 1.75
      vertex 6.48936 -19.9722 1.75
      vertex 7.41641 -22.8254 1.75
    endloop
  endfacet
  facet normal 0 0 1
    outer loop
      vertex 7.41641 -22.8254 1.75
      vertex 3.93501 -20.628 1.75
      vertex 4.49715 -23.5749 1.75
    endloop
  endfacet
  facet normal 0 0 1
    outer loop
      vertex 4.49715 -23.5749 1.75
      vertex 1.3186 -20.9586 1.75
      vertex 1.50697 -23.9526 1.75
    endloop
  endfacet
  facet normal 0 0 1
    outer loop
      vertex 1.50697 -23.9526 1.75
      vertex -1.3186 -20.9586 1.75
      vertex -1.50697 -23.9526 1.75
    endloop
  endfacet
  facet normal 0 0 1
    outer loop
      vertex -1.3186 -20.9586 1.75
      vertex -3.93501 -20.628 1.75
      vertex -1.50697 -23.9526 1.75
    endloop
  endfacet
  facet normal 0 0 1
    outer loop
      vertex -1.50697 -23.9526 1.75
      vertex -6.48936 -19.9722 1.75
      vertex -4.49715 -23.5749 1.75
    endloop
  endfacet
  facet normal 0 0 1
    outer loop
      vertex -4.49715 -23.5749 1.75
      vertex -8.94136 -19.0014 1.75
      vertex -7.41641 -22.8254 1.75
    endloop
  endfacet
  facet normal 0 0 1
    outer loop
      vertex -7.41641 -22.8254 1.75
      vertex -11.2524 -17.7309 1.75
      vertex -10.2187 -21.7158 1.75
    endloop
  endfacet
  facet normal 0 0 1
    outer loop
      vertex -10.2187 -21.7158 1.75
      vertex -13.3859 -16.1808 1.75
      vertex -12.8598 -20.2639 1.75
    endloop
  endfacet
  facet normal 0 0 1
    outer loop
      vertex -13.3859 -16.1808 1.75
      vertex -15.3083 -14.3755 1.75
      vertex -12.8598 -20.2639 1.75
    endloop
  endfacet
  facet normal 0 0 1
    outer loop
      vertex -12.8598 -20.2639 1.75
      vertex -16.9894 -12.3435 1.75
      vertex -15.2982 -18.4923 1.75
    endloop
  endfacet
  facet normal 0 0 1
    outer loop
      vertex -16.9894 -12.3435 1.75
      vertex -18.4024 -10.1168 1.75
      vertex -15.2982 -18.4923 1.75
    endloop
  endfacet
  facet normal 0 0 1
    outer loop
      vertex -18.4024 -10.1168 1.75
      vertex -19.5253 -7.73062 1.75
      vertex -15.2982 -18.4923 1.75
    endloop
  endfacet
  facet normal 0 0 1
    outer loop
      vertex -20.8344 2.632 1.75
      vertex -20.3402 5.22249 1.75
      vertex -23.8108 3.008 1.75
    endloop
  endfacet
  facet normal 0 0 1
    outer loop
      vertex 20.3402 -5.22249 1.75
      vertex 19.5253 -7.73062 1.75
      vertex 23.246 -5.96856 1.75
    endloop
  endfacet
  facet normal 0 0 1
    outer loop
      vertex 20.3402 5.22249 1.75
      vertex 23.5056 4.60775 1.75
      vertex 19.5253 7.73062 1.75
    endloop
  endfacet
  facet normal 0 0 1
    outer loop
      vertex -19.5253 7.73062 1.75
      vertex -23.8108 3.008 1.75
      vertex -20.3402 5.22249 1.75
    endloop
  endfacet
  facet normal 0 0 1
    outer loop
      vertex 19.5253 7.73062 1.75
      vertex 23.5056 4.60775 1.75
      vertex 18.4024 10.1168 1.75
    endloop
  endfacet
  facet normal 0 0 1
    outer loop
      vertex -18.4024 10.1168 1.75
      vertex -23.8108 3.008 1.75
      vertex -19.5253 7.73062 1.75
    endloop
  endfacet
  facet normal 0 0 1
    outer loop
      vertex 20.8344 2.632 1.75
      vertex 23.5056 4.60775 1.75
      vertex 20.3402 5.22249 1.75
    endloop
  endfacet
  facet normal 0 0 1
    outer loop
      vertex -16.9894 12.3435 1.75
      vertex -23.8108 3.008 1.75
      vertex -18.4024 10.1168 1.75
    endloop
  endfacet
  facet normal 0 0 1
    outer loop
      vertex 20.9848 0.24162 1.75
      vertex 23.5056 4.60775 1.75
      vertex 20.8344 2.632 1.75
    endloop
  endfacet
  facet normal 0 0 1
    outer loop
      vertex -10.2187 21.7158 1.75
      vertex -23.8108 3.008 1.75
      vertex -16.9894 12.3435 1.75
    endloop
  endfacet
  facet normal 0 0 1
    outer loop
      vertex -10.2187 21.7158 1.75
      vertex -16.9894 12.3435 1.75
      vertex -15.3083 14.3755 1.75
    endloop
  endfacet
  facet normal 0 0 1
    outer loop
      vertex -7.41641 22.8254 1.75
      vertex -15.3083 14.3755 1.75
      vertex -13.3859 16.1808 1.75
    endloop
  endfacet
  facet normal 0 0 1
    outer loop
      vertex -4.49715 23.5749 1.75
      vertex -13.3859 16.1808 1.75
      vertex -11.2524 17.7309 1.75
    endloop
  endfacet
  facet normal 0 0 1
    outer loop
      vertex -1.50697 23.9526 1.75
      vertex -11.2524 17.7309 1.75
      vertex -8.94136 19.0014 1.75
    endloop
  endfacet
  facet normal 0 0 1
    outer loop
      vertex 1.50697 23.9526 1.75
      vertex -8.94136 19.0014 1.75
      vertex -6.48936 19.9722 1.75
    endloop
  endfacet
  facet normal 0 0 1
    outer loop
      vertex 4.49715 23.5749 1.75
      vertex -6.48936 19.9722 1.75
      vertex -3.93501 20.628 1.75
    endloop
  endfacet
  facet normal 0 0 1
    outer loop
      vertex 7.41641 22.8254 1.75
      vertex -3.93501 20.628 1.75
      vertex -1.3186 20.9586 1.75
    endloop
  endfacet
  facet normal 0 0 1
    outer loop
      vertex 10.2187 21.7158 1.75
      vertex -1.3186 20.9586 1.75
      vertex 1.3186 20.9586 1.75
    endloop
  endfacet
  facet normal 0 0 1
    outer loop
      vertex 12.8598 20.2639 1.75
      vertex 1.3186 20.9586 1.75
      vertex 3.93501 20.628 1.75
    endloop
  endfacet
  facet normal 0 0 1
    outer loop
      vertex 15.2982 18.4923 1.75
      vertex 3.93501 20.628 1.75
      vertex 6.48936 19.9722 1.75
    endloop
  endfacet
  facet normal 0 0 1
    outer loop
      vertex 17.4952 16.4291 1.75
      vertex 6.48936 19.9722 1.75
      vertex 8.94136 19.0014 1.75
    endloop
  endfacet
  facet normal 0 0 1
    outer loop
      vertex 19.4164 14.1068 1.75
      vertex 8.94136 19.0014 1.75
      vertex 11.2524 17.7309 1.75
    endloop
  endfacet
  facet normal 0 0 1
    outer loop
      vertex 21.0314 11.5621 1.75
      vertex 11.2524 17.7309 1.75
      vertex 13.3859 16.1808 1.75
    endloop
  endfacet
  facet normal 0 0 1
    outer loop
      vertex 22.3146 8.83499 1.75
      vertex 13.3859 16.1808 1.75
      vertex 15.3083 14.3755 1.75
    endloop
  endfacet
  facet normal 0 0 1
    outer loop
      vertex 23.5056 4.60775 1.75
      vertex 15.3083 14.3755 1.75
      vertex 16.9894 12.3435 1.75
    endloop
  endfacet
  facet normal 0 0 1
    outer loop
      vertex 23.5056 4.60775 1.75
      vertex 16.9894 12.3435 1.75
      vertex 18.4024 10.1168 1.75
    endloop
  endfacet
  facet normal 0 0 1
    outer loop
      vertex 23.246 5.96856 1.75
      vertex 15.3083 14.3755 1.75
      vertex 23.5056 4.60775 1.75
    endloop
  endfacet
  facet normal 0 0 1
    outer loop
      vertex 22.3146 8.83499 1.75
      vertex 15.3083 14.3755 1.75
      vertex 23.246 5.96856 1.75
    endloop
  endfacet
  facet normal 0 0 1
    outer loop
      vertex 21.0314 11.5621 1.75
      vertex 13.3859 16.1808 1.75
      vertex 22.3146 8.83499 1.75
    endloop
  endfacet
  facet normal 0 0 1
    outer loop
      vertex 19.4164 14.1068 1.75
      vertex 11.2524 17.7309 1.75
      vertex 21.0314 11.5621 1.75
    endloop
  endfacet
  facet normal 0 0 1
    outer loop
      vertex 17.4952 16.4291 1.75
      vertex 8.94136 19.0014 1.75
      vertex 19.4164 14.1068 1.75
    endloop
  endfacet
  facet normal 0 0 1
    outer loop
      vertex 15.2982 18.4923 1.75
      vertex 6.48936 19.9722 1.75
      vertex 17.4952 16.4291 1.75
    endloop
  endfacet
  facet normal 0 0 1
    outer loop
      vertex 12.8598 20.2639 1.75
      vertex 3.93501 20.628 1.75
      vertex 15.2982 18.4923 1.75
    endloop
  endfacet
  facet normal 0 0 1
    outer loop
      vertex 10.2187 21.7158 1.75
      vertex 1.3186 20.9586 1.75
      vertex 12.8598 20.2639 1.75
    endloop
  endfacet
  facet normal 0 0 1
    outer loop
      vertex 7.41641 22.8254 1.75
      vertex -1.3186 20.9586 1.75
      vertex 10.2187 21.7158 1.75
    endloop
  endfacet
  facet normal 0 0 1
    outer loop
      vertex 4.49715 23.5749 1.75
      vertex -3.93501 20.628 1.75
      vertex 7.41641 22.8254 1.75
    endloop
  endfacet
  facet normal 0 0 1
    outer loop
      vertex 1.50697 23.9526 1.75
      vertex -6.48936 19.9722 1.75
      vertex 4.49715 23.5749 1.75
    endloop
  endfacet
  facet normal 0 0 1
    outer loop
      vertex -1.50697 23.9526 1.75
      vertex -8.94136 19.0014 1.75
      vertex 1.50697 23.9526 1.75
    endloop
  endfacet
  facet normal 0 0 1
    outer loop
      vertex -4.49715 23.5749 1.75
      vertex -11.2524 17.7309 1.75
      vertex -1.50697 23.9526 1.75
    endloop
  endfacet
  facet normal 0 0 1
    outer loop
      vertex -7.41641 22.8254 1.75
      vertex -13.3859 16.1808 1.75
      vertex -4.49715 23.5749 1.75
    endloop
  endfacet
  facet normal 0 0 1
    outer loop
      vertex -10.2187 21.7158 1.75
      vertex -15.3083 14.3755 1.75
      vertex -7.41641 22.8254 1.75
    endloop
  endfacet
  facet normal 0 0 1
    outer loop
      vertex -12.8598 20.2639 1.75
      vertex -23.8108 3.008 1.75
      vertex -10.2187 21.7158 1.75
    endloop
  endfacet
  facet normal 0 0 1
    outer loop
      vertex -15.2982 18.4923 1.75
      vertex -23.8108 3.008 1.75
      vertex -12.8598 20.2639 1.75
    endloop
  endfacet
  facet normal 0 0 1
    outer loop
      vertex -17.4952 16.4291 1.75
      vertex -23.8108 3.008 1.75
      vertex -15.2982 18.4923 1.75
    endloop
  endfacet
  facet normal 0 0 1
    outer loop
      vertex -19.4164 14.1068 1.75
      vertex -23.8108 3.008 1.75
      vertex -17.4952 16.4291 1.75
    endloop
  endfacet
  facet normal 0 0 1
    outer loop
      vertex -21.0314 11.5621 1.75
      vertex -23.8108 3.008 1.75
      vertex -19.4164 14.1068 1.75
    endloop
  endfacet
  facet normal 0 0 1
    outer loop
      vertex -22.3146 8.83499 1.75
      vertex -23.8108 3.008 1.75
      vertex -21.0314 11.5621 1.75
    endloop
  endfacet
  facet normal 0 0 1
    outer loop
      vertex -23.246 5.96856 1.75
      vertex -23.8108 3.008 1.75
      vertex -22.3146 8.83499 1.75
    endloop
  endfacet
  facet normal 0 0 1
    outer loop
      vertex 23.9169 1.32023 1.75
      vertex 23.8108 -3.008 1.75
      vertex 24 0 1.75
    endloop
  endfacet
  facet normal 0 0 1
    outer loop
      vertex 23.9169 1.32023 1.75
      vertex 20.4393 -4.7032 1.75
      vertex 23.8108 -3.008 1.75
    endloop
  endfacet
  facet normal 0 0 1
    outer loop
      vertex -20.8344 -2.632 1.75
      vertex -21 0 1.75
      vertex -23.8108 3.008 1.75
    endloop
  endfacet
  facet normal 0 0 1
    outer loop
      vertex -21 0 1.75
      vertex -20.8344 2.632 1.75
      vertex -23.8108 3.008 1.75
    endloop
  endfacet
endsolid OpenSCAD_Model
