G04 (created by PCBNEW-RS274X (2011-05-25)-stable) date Thu 12 Mar 2015 10:15:44 GMT*
G01*
G70*
G90*
%MOIN*%
G04 Gerber Fmt 3.4, Leading zero omitted, Abs format*
%FSLAX34Y34*%
G04 APERTURE LIST*
%ADD10C,0.006000*%
%ADD11R,0.075100X0.083000*%
%ADD12O,0.067200X0.090900*%
%ADD13O,0.098300X0.071200*%
%ADD14C,0.098700*%
%ADD15R,0.075000X0.075000*%
%ADD16R,0.047600X0.059400*%
%ADD17R,0.040000X0.050000*%
%ADD18R,0.050000X0.040000*%
%ADD19R,0.055000X0.075000*%
%ADD20R,0.045000X0.065000*%
%ADD21R,0.065000X0.045000*%
%ADD22R,0.035000X0.070000*%
%ADD23R,0.055400X0.060200*%
%ADD24O,0.059400X0.098700*%
%ADD25R,0.100000X0.080000*%
%ADD26R,0.075000X0.055000*%
G04 APERTURE END LIST*
G54D10*
G54D11*
X57433Y-34597D03*
X56567Y-33653D03*
X56567Y-34597D03*
X57433Y-33653D03*
G54D12*
X48000Y-38000D03*
G54D13*
X48000Y-37000D03*
G54D14*
X48000Y-36000D03*
G54D15*
X47000Y-32000D03*
G54D14*
X47000Y-38000D03*
X47000Y-37000D03*
X47000Y-36000D03*
X47000Y-35000D03*
X47000Y-34000D03*
X66000Y-38000D03*
X66000Y-37000D03*
X66000Y-36000D03*
X66000Y-35000D03*
X66000Y-34000D03*
X66000Y-33000D03*
X47000Y-40000D03*
X48000Y-40000D03*
X49000Y-40000D03*
X50000Y-40000D03*
X51000Y-40000D03*
X52000Y-40000D03*
X53000Y-40000D03*
X54000Y-40000D03*
X55000Y-40000D03*
X56000Y-40000D03*
X57000Y-40000D03*
X58000Y-40000D03*
X59000Y-40000D03*
X60000Y-40000D03*
X61000Y-40000D03*
X62000Y-40000D03*
X63000Y-40000D03*
X64000Y-40000D03*
X65000Y-40000D03*
X66000Y-40000D03*
X47000Y-31000D03*
X48000Y-31000D03*
X49000Y-31000D03*
X50000Y-31000D03*
X51000Y-31000D03*
X52000Y-31000D03*
X53000Y-31000D03*
X54000Y-31000D03*
X55000Y-31000D03*
X56000Y-31000D03*
X57000Y-31000D03*
X58000Y-31000D03*
X59000Y-31000D03*
X60000Y-31000D03*
X61000Y-31000D03*
X62000Y-31000D03*
X63000Y-31000D03*
X64000Y-31000D03*
X65000Y-31000D03*
X66000Y-31000D03*
X62450Y-32525D03*
X61450Y-32525D03*
G54D16*
X54450Y-32450D03*
X54075Y-32450D03*
X53700Y-32450D03*
X53700Y-33450D03*
X54075Y-33450D03*
X54450Y-33450D03*
G54D17*
X50975Y-37000D03*
X51725Y-37000D03*
X50975Y-38000D03*
X51350Y-37000D03*
X51725Y-38000D03*
G54D18*
X61975Y-37000D03*
X61975Y-36250D03*
X62975Y-37000D03*
X61975Y-36625D03*
X62975Y-36250D03*
G54D19*
X47633Y-33252D03*
X48383Y-33252D03*
X48725Y-35925D03*
X49475Y-35925D03*
G54D20*
X58035Y-38102D03*
X58635Y-38102D03*
X54675Y-34325D03*
X54075Y-34325D03*
X54025Y-36400D03*
X54625Y-36400D03*
X63700Y-31775D03*
X64300Y-31775D03*
X62000Y-33250D03*
X62600Y-33250D03*
X52325Y-36525D03*
X52925Y-36525D03*
G54D21*
X55900Y-34480D03*
X55900Y-35080D03*
G54D20*
X51300Y-39225D03*
X50700Y-39225D03*
X49375Y-31700D03*
X48775Y-31700D03*
X48228Y-32488D03*
X48828Y-32488D03*
G54D21*
X62475Y-33925D03*
X62475Y-34525D03*
X50475Y-37600D03*
X50475Y-37000D03*
X51126Y-35422D03*
X51126Y-34822D03*
G54D20*
X54025Y-35775D03*
X54625Y-35775D03*
G54D21*
X54950Y-33200D03*
X54950Y-32600D03*
X61025Y-38300D03*
X61025Y-37700D03*
G54D20*
X65200Y-31750D03*
X65800Y-31750D03*
X56375Y-32975D03*
X55775Y-32975D03*
X57700Y-38850D03*
X57100Y-38850D03*
G54D21*
X60825Y-34375D03*
X60825Y-34975D03*
G54D20*
X60900Y-33650D03*
X61500Y-33650D03*
X56850Y-32975D03*
X57450Y-32975D03*
X57075Y-36825D03*
X57675Y-36825D03*
G54D21*
X51125Y-33850D03*
X51125Y-34450D03*
X51125Y-32550D03*
X51125Y-33150D03*
G54D20*
X62925Y-37425D03*
X62325Y-37425D03*
X51225Y-36125D03*
X50625Y-36125D03*
G54D21*
X53475Y-36950D03*
X53475Y-37550D03*
G54D20*
X49500Y-36725D03*
X48900Y-36725D03*
G54D21*
X48550Y-33925D03*
X48550Y-34525D03*
X56375Y-37475D03*
X56375Y-36875D03*
X49618Y-37905D03*
X49618Y-38505D03*
G54D22*
X50124Y-34826D03*
X49868Y-34826D03*
X49612Y-34826D03*
X49356Y-34826D03*
X49356Y-33126D03*
X49612Y-33126D03*
X49868Y-33126D03*
X50124Y-33126D03*
G54D23*
X53779Y-35000D03*
X55071Y-35000D03*
X47094Y-38740D03*
X48386Y-38740D03*
X49066Y-39240D03*
X47774Y-39240D03*
G54D21*
X56900Y-36275D03*
X56900Y-35675D03*
G54D20*
X64594Y-37224D03*
X65194Y-37224D03*
G54D21*
X64725Y-36525D03*
X64725Y-35925D03*
G54D20*
X65280Y-34016D03*
X64680Y-34016D03*
G54D21*
X65039Y-34759D03*
X65039Y-35359D03*
G54D24*
X59475Y-33900D03*
G54D25*
X53025Y-35775D03*
X53025Y-34475D03*
G54D26*
X52550Y-38000D03*
X52550Y-37250D03*
G54D25*
X52075Y-35775D03*
X52075Y-34475D03*
X52075Y-32425D03*
X52075Y-33725D03*
G54D20*
X50575Y-32275D03*
X49975Y-32275D03*
G54D25*
X53025Y-32425D03*
X53025Y-33725D03*
G54D21*
X60450Y-38300D03*
X60450Y-37700D03*
X64602Y-33469D03*
X64602Y-32869D03*
X47850Y-33950D03*
X47850Y-34550D03*
M02*
