G04 (created by PCBNEW-RS274X (2011-05-25)-stable) date Thu 12 Mar 2015 10:15:44 GMT*
G01*
G70*
G90*
%MOIN*%
G04 Gerber Fmt 3.4, Leading zero omitted, Abs format*
%FSLAX34Y34*%
G04 APERTURE LIST*
%ADD10C,0.006000*%
%ADD11C,0.004900*%
%ADD12C,0.015000*%
%ADD13C,0.004300*%
%ADD14C,0.005000*%
%ADD15C,0.008000*%
G04 APERTURE END LIST*
G54D10*
G54D11*
X49750Y-39138D02*
X49731Y-39124D01*
X49703Y-39124D01*
X49675Y-39138D01*
X49656Y-39166D01*
X49647Y-39194D01*
X49638Y-39250D01*
X49638Y-39292D01*
X49647Y-39349D01*
X49656Y-39377D01*
X49675Y-39405D01*
X49703Y-39419D01*
X49722Y-39419D01*
X49750Y-39405D01*
X49759Y-39391D01*
X49759Y-39292D01*
X49722Y-39292D01*
X49844Y-39419D02*
X49844Y-39124D01*
X49956Y-39419D01*
X49956Y-39124D01*
X50050Y-39419D02*
X50050Y-39124D01*
X50097Y-39124D01*
X50125Y-39138D01*
X50144Y-39166D01*
X50153Y-39194D01*
X50162Y-39250D01*
X50162Y-39292D01*
X50153Y-39349D01*
X50144Y-39377D01*
X50125Y-39405D01*
X50097Y-39419D01*
X50050Y-39419D01*
X46050Y-31838D02*
X46031Y-31824D01*
X46003Y-31824D01*
X45975Y-31838D01*
X45956Y-31866D01*
X45947Y-31894D01*
X45938Y-31950D01*
X45938Y-31992D01*
X45947Y-32049D01*
X45956Y-32077D01*
X45975Y-32105D01*
X46003Y-32119D01*
X46022Y-32119D01*
X46050Y-32105D01*
X46059Y-32091D01*
X46059Y-31992D01*
X46022Y-31992D01*
X46144Y-32119D02*
X46144Y-31824D01*
X46256Y-32119D01*
X46256Y-31824D01*
X46350Y-32119D02*
X46350Y-31824D01*
X46397Y-31824D01*
X46425Y-31838D01*
X46444Y-31866D01*
X46453Y-31894D01*
X46462Y-31950D01*
X46462Y-31992D01*
X46453Y-32049D01*
X46444Y-32077D01*
X46425Y-32105D01*
X46397Y-32119D01*
X46350Y-32119D01*
X46013Y-30824D02*
X46078Y-31119D01*
X46144Y-30824D01*
X46210Y-31007D02*
X46360Y-31007D01*
X46285Y-31119D02*
X46285Y-30894D01*
G54D12*
X64000Y-32100D02*
X64100Y-32200D01*
X63900Y-32200D02*
X64000Y-32100D01*
X64000Y-32100D02*
X63900Y-32200D01*
X64000Y-32500D02*
X64000Y-32100D01*
X64000Y-32100D02*
X64000Y-32500D01*
G54D13*
X50131Y-31538D02*
X50148Y-31524D01*
X50172Y-31524D01*
X50197Y-31538D01*
X50214Y-31566D01*
X50222Y-31594D01*
X50230Y-31650D01*
X50230Y-31692D01*
X50222Y-31749D01*
X50214Y-31777D01*
X50197Y-31805D01*
X50172Y-31819D01*
X50156Y-31819D01*
X50131Y-31805D01*
X50123Y-31791D01*
X50123Y-31692D01*
X50156Y-31692D01*
X50049Y-31819D02*
X50049Y-31524D01*
X49950Y-31819D01*
X49950Y-31524D01*
X49868Y-31819D02*
X49868Y-31524D01*
X49827Y-31524D01*
X49802Y-31538D01*
X49785Y-31566D01*
X49777Y-31594D01*
X49769Y-31650D01*
X49769Y-31692D01*
X49777Y-31749D01*
X49785Y-31777D01*
X49802Y-31805D01*
X49827Y-31819D01*
X49868Y-31819D01*
X51182Y-31518D02*
X50887Y-31518D01*
X50887Y-31584D01*
X50901Y-31601D01*
X50915Y-31609D01*
X50943Y-31617D01*
X50985Y-31617D01*
X51013Y-31609D01*
X51027Y-31601D01*
X51041Y-31584D01*
X51041Y-31518D01*
X51027Y-31749D02*
X51041Y-31774D01*
X51055Y-31782D01*
X51084Y-31790D01*
X51126Y-31790D01*
X51154Y-31782D01*
X51168Y-31774D01*
X51182Y-31757D01*
X51182Y-31691D01*
X50887Y-31691D01*
X50887Y-31749D01*
X50901Y-31765D01*
X50915Y-31774D01*
X50943Y-31782D01*
X50971Y-31782D01*
X50999Y-31774D01*
X51013Y-31765D01*
X51027Y-31749D01*
X51027Y-31691D01*
X51182Y-31872D02*
X51182Y-31905D01*
X51168Y-31922D01*
X51154Y-31930D01*
X51112Y-31947D01*
X51055Y-31955D01*
X50943Y-31955D01*
X50915Y-31947D01*
X50901Y-31938D01*
X50887Y-31922D01*
X50887Y-31889D01*
X50901Y-31872D01*
X50915Y-31864D01*
X50943Y-31856D01*
X51013Y-31856D01*
X51041Y-31864D01*
X51055Y-31872D01*
X51070Y-31889D01*
X51070Y-31922D01*
X51055Y-31938D01*
X51041Y-31947D01*
X51013Y-31955D01*
G54D11*
X61416Y-35695D02*
X61453Y-35667D01*
X61491Y-35611D01*
X61547Y-35526D01*
X61584Y-35498D01*
X61622Y-35498D01*
X61603Y-35639D02*
X61641Y-35611D01*
X61678Y-35554D01*
X61697Y-35442D01*
X61697Y-35245D01*
X61678Y-35132D01*
X61641Y-35076D01*
X61603Y-35048D01*
X61528Y-35048D01*
X61491Y-35076D01*
X61453Y-35132D01*
X61434Y-35245D01*
X61434Y-35442D01*
X61453Y-35554D01*
X61491Y-35611D01*
X61528Y-35639D01*
X61603Y-35639D01*
X61096Y-35245D02*
X61096Y-35639D01*
X61265Y-35245D02*
X61265Y-35554D01*
X61246Y-35611D01*
X61209Y-35639D01*
X61153Y-35639D01*
X61115Y-35611D01*
X61096Y-35582D01*
X60740Y-35639D02*
X60740Y-35329D01*
X60759Y-35273D01*
X60797Y-35245D01*
X60872Y-35245D01*
X60909Y-35273D01*
X60740Y-35611D02*
X60778Y-35639D01*
X60872Y-35639D01*
X60909Y-35611D01*
X60928Y-35554D01*
X60928Y-35498D01*
X60909Y-35442D01*
X60872Y-35414D01*
X60778Y-35414D01*
X60740Y-35385D01*
X60553Y-35245D02*
X60553Y-35639D01*
X60553Y-35301D02*
X60534Y-35273D01*
X60497Y-35245D01*
X60441Y-35245D01*
X60403Y-35273D01*
X60384Y-35329D01*
X60384Y-35639D01*
X60253Y-35245D02*
X60103Y-35245D01*
X60197Y-35048D02*
X60197Y-35554D01*
X60178Y-35611D01*
X60141Y-35639D01*
X60103Y-35639D01*
X59972Y-35639D02*
X59972Y-35245D01*
X59972Y-35357D02*
X59953Y-35301D01*
X59935Y-35273D01*
X59897Y-35245D01*
X59860Y-35245D01*
X59559Y-35639D02*
X59559Y-35329D01*
X59578Y-35273D01*
X59616Y-35245D01*
X59691Y-35245D01*
X59728Y-35273D01*
X59559Y-35611D02*
X59597Y-35639D01*
X59691Y-35639D01*
X59728Y-35611D01*
X59747Y-35554D01*
X59747Y-35498D01*
X59728Y-35442D01*
X59691Y-35414D01*
X59597Y-35414D01*
X59559Y-35385D01*
X59203Y-35611D02*
X59241Y-35639D01*
X59316Y-35639D01*
X59353Y-35611D01*
X59372Y-35582D01*
X59391Y-35526D01*
X59391Y-35357D01*
X59372Y-35301D01*
X59353Y-35273D01*
X59316Y-35245D01*
X59241Y-35245D01*
X59203Y-35273D01*
X59034Y-35639D02*
X59034Y-35048D01*
X58997Y-35414D02*
X58884Y-35639D01*
X58884Y-35245D02*
X59034Y-35470D01*
X58565Y-35611D02*
X58603Y-35639D01*
X58678Y-35639D01*
X58715Y-35611D01*
X58734Y-35554D01*
X58734Y-35329D01*
X58715Y-35273D01*
X58678Y-35245D01*
X58603Y-35245D01*
X58565Y-35273D01*
X58546Y-35329D01*
X58546Y-35385D01*
X58734Y-35442D01*
X58377Y-35639D02*
X58377Y-35245D01*
X58377Y-35357D02*
X58358Y-35301D01*
X58340Y-35273D01*
X58302Y-35245D01*
X58265Y-35245D01*
X61201Y-36346D02*
X61013Y-36346D01*
X61238Y-36515D02*
X61107Y-35924D01*
X60976Y-36515D01*
X60844Y-36515D02*
X60844Y-36121D01*
X60844Y-35924D02*
X60863Y-35952D01*
X60844Y-35980D01*
X60825Y-35952D01*
X60844Y-35924D01*
X60844Y-35980D01*
X60656Y-36515D02*
X60656Y-36121D01*
X60656Y-36233D02*
X60637Y-36177D01*
X60619Y-36149D01*
X60581Y-36121D01*
X60544Y-36121D01*
X59737Y-35924D02*
X59662Y-35924D01*
X59625Y-35952D01*
X59587Y-36008D01*
X59568Y-36121D01*
X59568Y-36318D01*
X59587Y-36430D01*
X59625Y-36487D01*
X59662Y-36515D01*
X59737Y-36515D01*
X59775Y-36487D01*
X59812Y-36430D01*
X59831Y-36318D01*
X59831Y-36121D01*
X59812Y-36008D01*
X59775Y-35952D01*
X59737Y-35924D01*
X59418Y-36487D02*
X59362Y-36515D01*
X59268Y-36515D01*
X59230Y-36487D01*
X59212Y-36458D01*
X59193Y-36402D01*
X59193Y-36346D01*
X59212Y-36290D01*
X59230Y-36261D01*
X59268Y-36233D01*
X59343Y-36205D01*
X59380Y-36177D01*
X59399Y-36149D01*
X59418Y-36093D01*
X59418Y-36036D01*
X59399Y-35980D01*
X59380Y-35952D01*
X59343Y-35924D01*
X59249Y-35924D01*
X59193Y-35952D01*
X59024Y-36515D02*
X59024Y-35924D01*
X58930Y-35924D01*
X58874Y-35952D01*
X58837Y-36008D01*
X58818Y-36064D01*
X58799Y-36177D01*
X58799Y-36261D01*
X58818Y-36374D01*
X58837Y-36430D01*
X58874Y-36487D01*
X58930Y-36515D01*
X59024Y-36515D01*
X60600Y-36800D02*
X60469Y-37391D01*
X60338Y-36800D01*
X60225Y-36856D02*
X60206Y-36828D01*
X60169Y-36800D01*
X60075Y-36800D01*
X60037Y-36828D01*
X60019Y-36856D01*
X60000Y-36912D01*
X60000Y-36969D01*
X60019Y-37053D01*
X60244Y-37391D01*
X60000Y-37391D01*
X59831Y-37334D02*
X59812Y-37363D01*
X59831Y-37391D01*
X59850Y-37363D01*
X59831Y-37334D01*
X59831Y-37391D01*
X59568Y-36800D02*
X59531Y-36800D01*
X59493Y-36828D01*
X59474Y-36856D01*
X59456Y-36912D01*
X59437Y-37025D01*
X59437Y-37166D01*
X59456Y-37278D01*
X59474Y-37334D01*
X59493Y-37363D01*
X59531Y-37391D01*
X59568Y-37391D01*
X59606Y-37363D01*
X59624Y-37334D01*
X59643Y-37278D01*
X59662Y-37166D01*
X59662Y-37025D01*
X59643Y-36912D01*
X59624Y-36856D01*
X59606Y-36828D01*
X59568Y-36800D01*
G54D12*
X63000Y-38500D02*
X62500Y-39000D01*
X63000Y-32500D02*
X63000Y-38500D01*
X62500Y-32000D02*
X63000Y-32500D01*
X64500Y-38500D02*
X66500Y-38500D01*
X63500Y-37500D02*
X64500Y-38500D01*
X64500Y-32500D02*
X66500Y-32500D01*
X63500Y-33500D02*
X64500Y-32500D01*
X63500Y-33500D02*
X63500Y-37500D01*
G54D13*
X64135Y-33854D02*
X63840Y-33854D01*
X63840Y-33895D01*
X63854Y-33920D01*
X63882Y-33937D01*
X63910Y-33945D01*
X63966Y-33953D01*
X64008Y-33953D01*
X64065Y-33945D01*
X64093Y-33937D01*
X64121Y-33920D01*
X64135Y-33895D01*
X64135Y-33854D01*
X64135Y-34027D02*
X63840Y-34027D01*
X63854Y-34200D02*
X63840Y-34183D01*
X63840Y-34159D01*
X63854Y-34134D01*
X63882Y-34117D01*
X63910Y-34109D01*
X63966Y-34101D01*
X64008Y-34101D01*
X64065Y-34109D01*
X64093Y-34117D01*
X64121Y-34134D01*
X64135Y-34159D01*
X64135Y-34175D01*
X64121Y-34200D01*
X64107Y-34208D01*
X64008Y-34208D01*
X64008Y-34175D01*
X64135Y-34282D02*
X63840Y-34282D01*
X63840Y-34339D02*
X63840Y-34438D01*
X64135Y-34389D02*
X63840Y-34389D01*
X64051Y-34488D02*
X64051Y-34570D01*
X64135Y-34471D02*
X63840Y-34529D01*
X64135Y-34587D01*
X64135Y-34727D02*
X64135Y-34644D01*
X63840Y-34644D01*
X64135Y-34867D02*
X64135Y-34784D01*
X63840Y-34784D01*
X63994Y-34957D02*
X64135Y-34957D01*
X63840Y-34899D02*
X63994Y-34957D01*
X63840Y-35015D01*
X64135Y-35204D02*
X63840Y-35204D01*
X64121Y-35278D02*
X64135Y-35303D01*
X64135Y-35344D01*
X64121Y-35360D01*
X64107Y-35369D01*
X64079Y-35377D01*
X64051Y-35377D01*
X64023Y-35369D01*
X64008Y-35360D01*
X63994Y-35344D01*
X63980Y-35311D01*
X63966Y-35294D01*
X63952Y-35286D01*
X63924Y-35278D01*
X63896Y-35278D01*
X63868Y-35286D01*
X63854Y-35294D01*
X63840Y-35311D01*
X63840Y-35352D01*
X63854Y-35377D01*
X63840Y-35484D02*
X63840Y-35517D01*
X63854Y-35534D01*
X63882Y-35550D01*
X63938Y-35558D01*
X64037Y-35558D01*
X64093Y-35550D01*
X64121Y-35534D01*
X64135Y-35517D01*
X64135Y-35484D01*
X64121Y-35468D01*
X64093Y-35451D01*
X64037Y-35443D01*
X63938Y-35443D01*
X63882Y-35451D01*
X63854Y-35468D01*
X63840Y-35484D01*
X64135Y-35715D02*
X64135Y-35632D01*
X63840Y-35632D01*
X64051Y-35764D02*
X64051Y-35846D01*
X64135Y-35747D02*
X63840Y-35805D01*
X64135Y-35863D01*
X63840Y-35895D02*
X63840Y-35994D01*
X64135Y-35945D02*
X63840Y-35945D01*
X63980Y-36052D02*
X63980Y-36110D01*
X64135Y-36135D02*
X64135Y-36052D01*
X63840Y-36052D01*
X63840Y-36135D01*
X64135Y-36209D02*
X63840Y-36209D01*
X63840Y-36250D01*
X63854Y-36275D01*
X63882Y-36292D01*
X63910Y-36300D01*
X63966Y-36308D01*
X64008Y-36308D01*
X64065Y-36300D01*
X64093Y-36292D01*
X64121Y-36275D01*
X64135Y-36250D01*
X64135Y-36209D01*
X64135Y-36514D02*
X63840Y-36514D01*
X63840Y-36580D01*
X63854Y-36597D01*
X63868Y-36605D01*
X63896Y-36613D01*
X63938Y-36613D01*
X63966Y-36605D01*
X63980Y-36597D01*
X63994Y-36580D01*
X63994Y-36514D01*
X63840Y-36720D02*
X63840Y-36753D01*
X63854Y-36770D01*
X63882Y-36786D01*
X63938Y-36794D01*
X64037Y-36794D01*
X64093Y-36786D01*
X64121Y-36770D01*
X64135Y-36753D01*
X64135Y-36720D01*
X64121Y-36704D01*
X64093Y-36687D01*
X64037Y-36679D01*
X63938Y-36679D01*
X63882Y-36687D01*
X63854Y-36704D01*
X63840Y-36720D01*
X64135Y-36967D02*
X63994Y-36909D01*
X64135Y-36868D02*
X63840Y-36868D01*
X63840Y-36934D01*
X63854Y-36951D01*
X63868Y-36959D01*
X63896Y-36967D01*
X63938Y-36967D01*
X63966Y-36959D01*
X63980Y-36951D01*
X63994Y-36934D01*
X63994Y-36868D01*
X63840Y-37016D02*
X63840Y-37115D01*
X64135Y-37066D02*
X63840Y-37066D01*
X65529Y-32874D02*
X65414Y-33169D01*
X65414Y-32874D02*
X65529Y-33169D01*
X65373Y-32874D02*
X65274Y-32874D01*
X65323Y-33169D02*
X65323Y-32874D01*
X65232Y-32874D02*
X65117Y-33169D01*
X65117Y-32874D02*
X65232Y-33169D01*
X65018Y-32874D02*
X64985Y-32874D01*
X64968Y-32888D01*
X64952Y-32916D01*
X64944Y-32972D01*
X64944Y-33071D01*
X64952Y-33127D01*
X64968Y-33155D01*
X64985Y-33169D01*
X65018Y-33169D01*
X65034Y-33155D01*
X65051Y-33127D01*
X65059Y-33071D01*
X65059Y-32972D01*
X65051Y-32916D01*
X65034Y-32888D01*
X65018Y-32874D01*
X64878Y-32902D02*
X64870Y-32888D01*
X64853Y-32874D01*
X64812Y-32874D01*
X64796Y-32888D01*
X64787Y-32902D01*
X64779Y-32930D01*
X64779Y-32958D01*
X64787Y-33000D01*
X64886Y-33169D01*
X64779Y-33169D01*
X65529Y-33774D02*
X65414Y-34069D01*
X65414Y-33774D02*
X65529Y-34069D01*
X65373Y-33774D02*
X65274Y-33774D01*
X65323Y-34069D02*
X65323Y-33774D01*
X65232Y-33774D02*
X65117Y-34069D01*
X65117Y-33774D02*
X65232Y-34069D01*
X65018Y-33774D02*
X64985Y-33774D01*
X64968Y-33788D01*
X64952Y-33816D01*
X64944Y-33872D01*
X64944Y-33971D01*
X64952Y-34027D01*
X64968Y-34055D01*
X64985Y-34069D01*
X65018Y-34069D01*
X65034Y-34055D01*
X65051Y-34027D01*
X65059Y-33971D01*
X65059Y-33872D01*
X65051Y-33816D01*
X65034Y-33788D01*
X65018Y-33774D01*
X64779Y-34069D02*
X64878Y-34069D01*
X64829Y-34069D02*
X64829Y-33774D01*
X64845Y-33816D01*
X64862Y-33844D01*
X64878Y-33858D01*
X65566Y-34874D02*
X65451Y-35169D01*
X65451Y-34874D02*
X65566Y-35169D01*
X65154Y-35169D02*
X65212Y-35028D01*
X65253Y-35169D02*
X65253Y-34874D01*
X65187Y-34874D01*
X65170Y-34888D01*
X65162Y-34902D01*
X65154Y-34930D01*
X65154Y-34972D01*
X65162Y-35000D01*
X65170Y-35014D01*
X65187Y-35028D01*
X65253Y-35028D01*
X65096Y-34874D02*
X64981Y-35169D01*
X64981Y-34874D02*
X65096Y-35169D01*
X64915Y-35169D02*
X64915Y-34874D01*
X64742Y-35169D02*
X64841Y-35169D01*
X64792Y-35169D02*
X64792Y-34874D01*
X64808Y-34916D01*
X64825Y-34944D01*
X64841Y-34958D01*
X65529Y-37774D02*
X65414Y-38069D01*
X65414Y-37774D02*
X65529Y-38069D01*
X65373Y-37774D02*
X65274Y-37774D01*
X65323Y-38069D02*
X65323Y-37774D01*
X65232Y-37774D02*
X65117Y-38069D01*
X65117Y-37774D02*
X65232Y-38069D01*
X65018Y-37774D02*
X64985Y-37774D01*
X64968Y-37788D01*
X64952Y-37816D01*
X64944Y-37872D01*
X64944Y-37971D01*
X64952Y-38027D01*
X64968Y-38055D01*
X64985Y-38069D01*
X65018Y-38069D01*
X65034Y-38055D01*
X65051Y-38027D01*
X65059Y-37971D01*
X65059Y-37872D01*
X65051Y-37816D01*
X65034Y-37788D01*
X65018Y-37774D01*
X64878Y-37802D02*
X64870Y-37788D01*
X64853Y-37774D01*
X64812Y-37774D01*
X64796Y-37788D01*
X64787Y-37802D01*
X64779Y-37830D01*
X64779Y-37858D01*
X64787Y-37900D01*
X64886Y-38069D01*
X64779Y-38069D01*
X65471Y-35774D02*
X65356Y-36069D01*
X65356Y-35774D02*
X65471Y-36069D01*
X65290Y-35957D02*
X65158Y-35957D01*
X65224Y-36069D02*
X65224Y-35844D01*
X64993Y-35774D02*
X65076Y-35774D01*
X65084Y-35914D01*
X65076Y-35900D01*
X65059Y-35886D01*
X65018Y-35886D01*
X65002Y-35900D01*
X64993Y-35914D01*
X64985Y-35942D01*
X64985Y-36013D01*
X64993Y-36041D01*
X65002Y-36055D01*
X65018Y-36069D01*
X65059Y-36069D01*
X65076Y-36055D01*
X65084Y-36041D01*
X64936Y-35774D02*
X64878Y-36069D01*
X64820Y-35774D01*
X65521Y-36724D02*
X65406Y-37019D01*
X65406Y-36724D02*
X65521Y-37019D01*
X65249Y-36738D02*
X65266Y-36724D01*
X65290Y-36724D01*
X65315Y-36738D01*
X65332Y-36766D01*
X65340Y-36794D01*
X65348Y-36850D01*
X65348Y-36892D01*
X65340Y-36949D01*
X65332Y-36977D01*
X65315Y-37005D01*
X65290Y-37019D01*
X65274Y-37019D01*
X65249Y-37005D01*
X65241Y-36991D01*
X65241Y-36892D01*
X65274Y-36892D01*
X65167Y-37019D02*
X65167Y-36724D01*
X65068Y-37019D01*
X65068Y-36724D01*
X64986Y-37019D02*
X64986Y-36724D01*
X64945Y-36724D01*
X64920Y-36738D01*
X64903Y-36766D01*
X64895Y-36794D01*
X64887Y-36850D01*
X64887Y-36892D01*
X64895Y-36949D01*
X64903Y-36977D01*
X64920Y-37005D01*
X64945Y-37019D01*
X64986Y-37019D01*
X46069Y-38062D02*
X46052Y-38076D01*
X46028Y-38076D01*
X46003Y-38062D01*
X45986Y-38034D01*
X45978Y-38006D01*
X45970Y-37950D01*
X45970Y-37908D01*
X45978Y-37851D01*
X45986Y-37823D01*
X46003Y-37795D01*
X46028Y-37781D01*
X46044Y-37781D01*
X46069Y-37795D01*
X46077Y-37809D01*
X46077Y-37908D01*
X46044Y-37908D01*
X46151Y-37781D02*
X46151Y-38076D01*
X46250Y-37781D01*
X46250Y-38076D01*
X46332Y-37781D02*
X46332Y-38076D01*
X46373Y-38076D01*
X46398Y-38062D01*
X46415Y-38034D01*
X46423Y-38006D01*
X46431Y-37950D01*
X46431Y-37908D01*
X46423Y-37851D01*
X46415Y-37823D01*
X46398Y-37795D01*
X46373Y-37781D01*
X46332Y-37781D01*
X48469Y-38162D02*
X48452Y-38176D01*
X48428Y-38176D01*
X48403Y-38162D01*
X48386Y-38134D01*
X48378Y-38106D01*
X48370Y-38050D01*
X48370Y-38008D01*
X48378Y-37951D01*
X48386Y-37923D01*
X48403Y-37895D01*
X48428Y-37881D01*
X48444Y-37881D01*
X48469Y-37895D01*
X48477Y-37909D01*
X48477Y-38008D01*
X48444Y-38008D01*
X48551Y-37881D02*
X48551Y-38176D01*
X48650Y-37881D01*
X48650Y-38176D01*
X48732Y-37881D02*
X48732Y-38176D01*
X48773Y-38176D01*
X48798Y-38162D01*
X48815Y-38134D01*
X48823Y-38106D01*
X48831Y-38050D01*
X48831Y-38008D01*
X48823Y-37951D01*
X48815Y-37923D01*
X48798Y-37895D01*
X48773Y-37881D01*
X48732Y-37881D01*
X49348Y-37124D02*
X49290Y-37419D01*
X49232Y-37124D01*
X49175Y-37419D02*
X49175Y-37124D01*
X49093Y-37419D02*
X49093Y-37124D01*
X49052Y-37124D01*
X49027Y-37138D01*
X49010Y-37166D01*
X49002Y-37194D01*
X48994Y-37250D01*
X48994Y-37292D01*
X49002Y-37349D01*
X49010Y-37377D01*
X49027Y-37405D01*
X49052Y-37419D01*
X49093Y-37419D01*
X48920Y-37419D02*
X48920Y-37124D01*
X48838Y-37307D02*
X48706Y-37307D01*
X48772Y-37419D02*
X48772Y-37194D01*
X48649Y-37124D02*
X48591Y-37419D01*
X48533Y-37124D01*
X48476Y-37419D02*
X48476Y-37124D01*
X45553Y-37176D02*
X45611Y-36881D01*
X45669Y-37176D01*
X45726Y-36881D02*
X45726Y-37176D01*
X45808Y-36881D02*
X45808Y-37176D01*
X45849Y-37176D01*
X45874Y-37162D01*
X45891Y-37134D01*
X45899Y-37106D01*
X45907Y-37050D01*
X45907Y-37008D01*
X45899Y-36951D01*
X45891Y-36923D01*
X45874Y-36895D01*
X45849Y-36881D01*
X45808Y-36881D01*
X46014Y-37176D02*
X46047Y-37176D01*
X46064Y-37162D01*
X46080Y-37134D01*
X46088Y-37078D01*
X46088Y-36979D01*
X46080Y-36923D01*
X46064Y-36895D01*
X46047Y-36881D01*
X46014Y-36881D01*
X45998Y-36895D01*
X45981Y-36923D01*
X45973Y-36979D01*
X45973Y-37078D01*
X45981Y-37134D01*
X45998Y-37162D01*
X46014Y-37176D01*
X46162Y-36993D02*
X46294Y-36993D01*
X46228Y-36881D02*
X46228Y-37106D01*
X46351Y-37176D02*
X46409Y-36881D01*
X46467Y-37176D01*
X46557Y-37176D02*
X46590Y-37176D01*
X46607Y-37162D01*
X46623Y-37134D01*
X46631Y-37078D01*
X46631Y-36979D01*
X46623Y-36923D01*
X46607Y-36895D01*
X46590Y-36881D01*
X46557Y-36881D01*
X46541Y-36895D01*
X46524Y-36923D01*
X46516Y-36979D01*
X46516Y-37078D01*
X46524Y-37134D01*
X46541Y-37162D01*
X46557Y-37176D01*
X48326Y-35224D02*
X48268Y-35519D01*
X48210Y-35224D01*
X48153Y-35519D02*
X48153Y-35224D01*
X48071Y-35519D02*
X48071Y-35224D01*
X48030Y-35224D01*
X48005Y-35238D01*
X47988Y-35266D01*
X47980Y-35294D01*
X47972Y-35350D01*
X47972Y-35392D01*
X47980Y-35449D01*
X47988Y-35477D01*
X48005Y-35505D01*
X48030Y-35519D01*
X48071Y-35519D01*
X47898Y-35519D02*
X47898Y-35224D01*
X46476Y-35924D02*
X46418Y-36219D01*
X46360Y-35924D01*
X46303Y-36219D02*
X46303Y-35924D01*
X46221Y-36219D02*
X46221Y-35924D01*
X46180Y-35924D01*
X46155Y-35938D01*
X46138Y-35966D01*
X46130Y-35994D01*
X46122Y-36050D01*
X46122Y-36092D01*
X46130Y-36149D01*
X46138Y-36177D01*
X46155Y-36205D01*
X46180Y-36219D01*
X46221Y-36219D01*
X46015Y-35924D02*
X45982Y-35924D01*
X45965Y-35938D01*
X45949Y-35966D01*
X45941Y-36022D01*
X45941Y-36121D01*
X45949Y-36177D01*
X45965Y-36205D01*
X45982Y-36219D01*
X46015Y-36219D01*
X46031Y-36205D01*
X46048Y-36177D01*
X46056Y-36121D01*
X46056Y-36022D01*
X46048Y-35966D01*
X46031Y-35938D01*
X46015Y-35924D01*
X46404Y-35035D02*
X46322Y-35035D01*
X46421Y-35119D02*
X46363Y-34824D01*
X46305Y-35119D01*
X46248Y-34824D02*
X46248Y-35063D01*
X46240Y-35091D01*
X46231Y-35105D01*
X46215Y-35119D01*
X46182Y-35119D01*
X46165Y-35105D01*
X46157Y-35091D01*
X46149Y-35063D01*
X46149Y-34824D01*
X46067Y-35119D02*
X46067Y-34824D01*
X46026Y-34824D01*
X46001Y-34838D01*
X45984Y-34866D01*
X45976Y-34894D01*
X45968Y-34950D01*
X45968Y-34992D01*
X45976Y-35049D01*
X45984Y-35077D01*
X46001Y-35105D01*
X46026Y-35119D01*
X46067Y-35119D01*
X45795Y-35119D02*
X45853Y-34978D01*
X45894Y-35119D02*
X45894Y-34824D01*
X45828Y-34824D01*
X45811Y-34838D01*
X45803Y-34852D01*
X45795Y-34880D01*
X45795Y-34922D01*
X45803Y-34950D01*
X45811Y-34964D01*
X45828Y-34978D01*
X45894Y-34978D01*
X46388Y-34135D02*
X46306Y-34135D01*
X46405Y-34219D02*
X46347Y-33924D01*
X46289Y-34219D01*
X46232Y-33924D02*
X46232Y-34163D01*
X46224Y-34191D01*
X46215Y-34205D01*
X46199Y-34219D01*
X46166Y-34219D01*
X46149Y-34205D01*
X46141Y-34191D01*
X46133Y-34163D01*
X46133Y-33924D01*
X46051Y-34219D02*
X46051Y-33924D01*
X46010Y-33924D01*
X45985Y-33938D01*
X45968Y-33966D01*
X45960Y-33994D01*
X45952Y-34050D01*
X45952Y-34092D01*
X45960Y-34149D01*
X45968Y-34177D01*
X45985Y-34205D01*
X46010Y-34219D01*
X46051Y-34219D01*
X45795Y-34219D02*
X45878Y-34219D01*
X45878Y-33924D01*
X66012Y-39381D02*
X66026Y-39398D01*
X66026Y-39422D01*
X66012Y-39447D01*
X65984Y-39464D01*
X65956Y-39472D01*
X65900Y-39480D01*
X65858Y-39480D01*
X65801Y-39472D01*
X65773Y-39464D01*
X65745Y-39447D01*
X65731Y-39422D01*
X65731Y-39406D01*
X65745Y-39381D01*
X65759Y-39373D01*
X65858Y-39373D01*
X65858Y-39406D01*
X65731Y-39299D02*
X66026Y-39299D01*
X65731Y-39200D01*
X66026Y-39200D01*
X65731Y-39118D02*
X66026Y-39118D01*
X66026Y-39077D01*
X66012Y-39052D01*
X65984Y-39035D01*
X65956Y-39027D01*
X65900Y-39019D01*
X65858Y-39019D01*
X65801Y-39027D01*
X65773Y-39035D01*
X65745Y-39052D01*
X65731Y-39077D01*
X65731Y-39118D01*
X64831Y-39452D02*
X65126Y-39452D01*
X65126Y-39386D01*
X65112Y-39369D01*
X65098Y-39361D01*
X65070Y-39353D01*
X65028Y-39353D01*
X65000Y-39361D01*
X64986Y-39369D01*
X64972Y-39386D01*
X64972Y-39452D01*
X64915Y-39287D02*
X64915Y-39205D01*
X64831Y-39304D02*
X65126Y-39246D01*
X64831Y-39188D01*
X65000Y-39106D02*
X65014Y-39123D01*
X65028Y-39131D01*
X65056Y-39139D01*
X65070Y-39139D01*
X65098Y-39131D01*
X65112Y-39123D01*
X65126Y-39106D01*
X65126Y-39073D01*
X65112Y-39057D01*
X65098Y-39048D01*
X65070Y-39040D01*
X65056Y-39040D01*
X65028Y-39048D01*
X65014Y-39057D01*
X65000Y-39073D01*
X65000Y-39106D01*
X64986Y-39123D01*
X64972Y-39131D01*
X64943Y-39139D01*
X64887Y-39139D01*
X64859Y-39131D01*
X64845Y-39123D01*
X64831Y-39106D01*
X64831Y-39073D01*
X64845Y-39057D01*
X64859Y-39048D01*
X64887Y-39040D01*
X64943Y-39040D01*
X64972Y-39048D01*
X64986Y-39057D01*
X65000Y-39073D01*
X63831Y-39464D02*
X64126Y-39464D01*
X64126Y-39398D01*
X64112Y-39381D01*
X64098Y-39373D01*
X64070Y-39365D01*
X64028Y-39365D01*
X64000Y-39373D01*
X63986Y-39381D01*
X63972Y-39398D01*
X63972Y-39464D01*
X63859Y-39192D02*
X63845Y-39200D01*
X63831Y-39225D01*
X63831Y-39241D01*
X63845Y-39266D01*
X63873Y-39283D01*
X63901Y-39291D01*
X63958Y-39299D01*
X64000Y-39299D01*
X64056Y-39291D01*
X64084Y-39283D01*
X64112Y-39266D01*
X64126Y-39241D01*
X64126Y-39225D01*
X64112Y-39200D01*
X64098Y-39192D01*
X63831Y-39110D02*
X63831Y-39077D01*
X63845Y-39060D01*
X63859Y-39052D01*
X63901Y-39035D01*
X63958Y-39027D01*
X64070Y-39027D01*
X64098Y-39035D01*
X64112Y-39044D01*
X64126Y-39060D01*
X64126Y-39093D01*
X64112Y-39110D01*
X64098Y-39118D01*
X64070Y-39126D01*
X64000Y-39126D01*
X63972Y-39118D01*
X63958Y-39110D01*
X63943Y-39093D01*
X63943Y-39060D01*
X63958Y-39044D01*
X63972Y-39035D01*
X64000Y-39027D01*
X62831Y-39564D02*
X63126Y-39564D01*
X63126Y-39498D01*
X63112Y-39481D01*
X63098Y-39473D01*
X63070Y-39465D01*
X63028Y-39465D01*
X63000Y-39473D01*
X62986Y-39481D01*
X62972Y-39498D01*
X62972Y-39564D01*
X62859Y-39292D02*
X62845Y-39300D01*
X62831Y-39325D01*
X62831Y-39341D01*
X62845Y-39366D01*
X62873Y-39383D01*
X62901Y-39391D01*
X62958Y-39399D01*
X63000Y-39399D01*
X63056Y-39391D01*
X63084Y-39383D01*
X63112Y-39366D01*
X63126Y-39341D01*
X63126Y-39325D01*
X63112Y-39300D01*
X63098Y-39292D01*
X63126Y-39135D02*
X63126Y-39218D01*
X62986Y-39226D01*
X63000Y-39218D01*
X63014Y-39201D01*
X63014Y-39160D01*
X63000Y-39144D01*
X62986Y-39135D01*
X62958Y-39127D01*
X62887Y-39127D01*
X62859Y-39135D01*
X62845Y-39144D01*
X62831Y-39160D01*
X62831Y-39201D01*
X62845Y-39218D01*
X62859Y-39226D01*
X61831Y-39564D02*
X62126Y-39564D01*
X62126Y-39498D01*
X62112Y-39481D01*
X62098Y-39473D01*
X62070Y-39465D01*
X62028Y-39465D01*
X62000Y-39473D01*
X61986Y-39481D01*
X61972Y-39498D01*
X61972Y-39564D01*
X61859Y-39292D02*
X61845Y-39300D01*
X61831Y-39325D01*
X61831Y-39341D01*
X61845Y-39366D01*
X61873Y-39383D01*
X61901Y-39391D01*
X61958Y-39399D01*
X62000Y-39399D01*
X62056Y-39391D01*
X62084Y-39383D01*
X62112Y-39366D01*
X62126Y-39341D01*
X62126Y-39325D01*
X62112Y-39300D01*
X62098Y-39292D01*
X62028Y-39144D02*
X61831Y-39144D01*
X62140Y-39185D02*
X61929Y-39226D01*
X61929Y-39119D01*
X60686Y-39281D02*
X60686Y-39576D01*
X60752Y-39576D01*
X60769Y-39562D01*
X60777Y-39548D01*
X60785Y-39520D01*
X60785Y-39478D01*
X60777Y-39450D01*
X60769Y-39436D01*
X60752Y-39422D01*
X60686Y-39422D01*
X60958Y-39309D02*
X60950Y-39295D01*
X60925Y-39281D01*
X60909Y-39281D01*
X60884Y-39295D01*
X60867Y-39323D01*
X60859Y-39351D01*
X60851Y-39408D01*
X60851Y-39450D01*
X60859Y-39506D01*
X60867Y-39534D01*
X60884Y-39562D01*
X60909Y-39576D01*
X60925Y-39576D01*
X60950Y-39562D01*
X60958Y-39548D01*
X61016Y-39576D02*
X61123Y-39576D01*
X61065Y-39464D01*
X61090Y-39464D01*
X61106Y-39450D01*
X61115Y-39436D01*
X61123Y-39408D01*
X61123Y-39337D01*
X61115Y-39309D01*
X61106Y-39295D01*
X61090Y-39281D01*
X61040Y-39281D01*
X61024Y-39295D01*
X61016Y-39309D01*
X59748Y-39331D02*
X59748Y-39626D01*
X59814Y-39626D01*
X59831Y-39612D01*
X59839Y-39598D01*
X59847Y-39570D01*
X59847Y-39528D01*
X59839Y-39500D01*
X59831Y-39486D01*
X59814Y-39472D01*
X59748Y-39472D01*
X59913Y-39415D02*
X59995Y-39415D01*
X59896Y-39331D02*
X59954Y-39626D01*
X60012Y-39331D01*
X60102Y-39626D02*
X60119Y-39626D01*
X60135Y-39612D01*
X60143Y-39598D01*
X60152Y-39570D01*
X60160Y-39514D01*
X60160Y-39443D01*
X60152Y-39387D01*
X60143Y-39359D01*
X60135Y-39345D01*
X60119Y-39331D01*
X60102Y-39331D01*
X60086Y-39345D01*
X60077Y-39359D01*
X60069Y-39387D01*
X60061Y-39443D01*
X60061Y-39514D01*
X60069Y-39570D01*
X60077Y-39598D01*
X60086Y-39612D01*
X60102Y-39626D01*
X58748Y-39331D02*
X58748Y-39626D01*
X58814Y-39626D01*
X58831Y-39612D01*
X58839Y-39598D01*
X58847Y-39570D01*
X58847Y-39528D01*
X58839Y-39500D01*
X58831Y-39486D01*
X58814Y-39472D01*
X58748Y-39472D01*
X58913Y-39415D02*
X58995Y-39415D01*
X58896Y-39331D02*
X58954Y-39626D01*
X59012Y-39331D01*
X59160Y-39331D02*
X59061Y-39331D01*
X59110Y-39331D02*
X59110Y-39626D01*
X59094Y-39584D01*
X59077Y-39556D01*
X59061Y-39542D01*
X57736Y-39331D02*
X57736Y-39626D01*
X57802Y-39626D01*
X57819Y-39612D01*
X57827Y-39598D01*
X57835Y-39570D01*
X57835Y-39528D01*
X57827Y-39500D01*
X57819Y-39486D01*
X57802Y-39472D01*
X57736Y-39472D01*
X58008Y-39359D02*
X58000Y-39345D01*
X57975Y-39331D01*
X57959Y-39331D01*
X57934Y-39345D01*
X57917Y-39373D01*
X57909Y-39401D01*
X57901Y-39458D01*
X57901Y-39500D01*
X57909Y-39556D01*
X57917Y-39584D01*
X57934Y-39612D01*
X57959Y-39626D01*
X57975Y-39626D01*
X58000Y-39612D01*
X58008Y-39598D01*
X58173Y-39331D02*
X58074Y-39331D01*
X58123Y-39331D02*
X58123Y-39626D01*
X58107Y-39584D01*
X58090Y-39556D01*
X58074Y-39542D01*
G54D11*
X56831Y-39594D02*
X57126Y-39594D01*
X57126Y-39519D01*
X57112Y-39500D01*
X57098Y-39491D01*
X57070Y-39482D01*
X57028Y-39482D01*
X57000Y-39491D01*
X56986Y-39500D01*
X56972Y-39519D01*
X56972Y-39594D01*
X56859Y-39285D02*
X56845Y-39294D01*
X56831Y-39322D01*
X56831Y-39341D01*
X56845Y-39369D01*
X56873Y-39388D01*
X56901Y-39397D01*
X56958Y-39406D01*
X57000Y-39406D01*
X57056Y-39397D01*
X57084Y-39388D01*
X57112Y-39369D01*
X57126Y-39341D01*
X57126Y-39322D01*
X57112Y-39294D01*
X57098Y-39285D01*
X57126Y-39163D02*
X57126Y-39144D01*
X57112Y-39125D01*
X57098Y-39116D01*
X57070Y-39106D01*
X57014Y-39097D01*
X56943Y-39097D01*
X56887Y-39106D01*
X56859Y-39116D01*
X56845Y-39125D01*
X56831Y-39144D01*
X56831Y-39163D01*
X56845Y-39181D01*
X56859Y-39191D01*
X56887Y-39200D01*
X56943Y-39209D01*
X57014Y-39209D01*
X57070Y-39200D01*
X57098Y-39191D01*
X57112Y-39181D01*
X57126Y-39163D01*
G54D13*
X56112Y-39481D02*
X56126Y-39498D01*
X56126Y-39522D01*
X56112Y-39547D01*
X56084Y-39564D01*
X56056Y-39572D01*
X56000Y-39580D01*
X55958Y-39580D01*
X55901Y-39572D01*
X55873Y-39564D01*
X55845Y-39547D01*
X55831Y-39522D01*
X55831Y-39506D01*
X55845Y-39481D01*
X55859Y-39473D01*
X55958Y-39473D01*
X55958Y-39506D01*
X55831Y-39399D02*
X56126Y-39399D01*
X55831Y-39300D01*
X56126Y-39300D01*
X55831Y-39218D02*
X56126Y-39218D01*
X56126Y-39177D01*
X56112Y-39152D01*
X56084Y-39135D01*
X56056Y-39127D01*
X56000Y-39119D01*
X55958Y-39119D01*
X55901Y-39127D01*
X55873Y-39135D01*
X55845Y-39152D01*
X55831Y-39177D01*
X55831Y-39218D01*
X54869Y-39512D02*
X54852Y-39526D01*
X54828Y-39526D01*
X54803Y-39512D01*
X54786Y-39484D01*
X54778Y-39456D01*
X54770Y-39400D01*
X54770Y-39358D01*
X54778Y-39301D01*
X54786Y-39273D01*
X54803Y-39245D01*
X54828Y-39231D01*
X54844Y-39231D01*
X54869Y-39245D01*
X54877Y-39259D01*
X54877Y-39358D01*
X54844Y-39358D01*
X54951Y-39231D02*
X54951Y-39526D01*
X55050Y-39231D01*
X55050Y-39526D01*
X55132Y-39231D02*
X55132Y-39526D01*
X55173Y-39526D01*
X55198Y-39512D01*
X55215Y-39484D01*
X55223Y-39456D01*
X55231Y-39400D01*
X55231Y-39358D01*
X55223Y-39301D01*
X55215Y-39273D01*
X55198Y-39245D01*
X55173Y-39231D01*
X55132Y-39231D01*
X53831Y-39597D02*
X54126Y-39597D01*
X54126Y-39531D01*
X54112Y-39514D01*
X54098Y-39506D01*
X54070Y-39498D01*
X54028Y-39498D01*
X54000Y-39506D01*
X53986Y-39514D01*
X53972Y-39531D01*
X53972Y-39597D01*
X53859Y-39325D02*
X53845Y-39333D01*
X53831Y-39358D01*
X53831Y-39374D01*
X53845Y-39399D01*
X53873Y-39416D01*
X53901Y-39424D01*
X53958Y-39432D01*
X54000Y-39432D01*
X54056Y-39424D01*
X54084Y-39416D01*
X54112Y-39399D01*
X54126Y-39374D01*
X54126Y-39358D01*
X54112Y-39333D01*
X54098Y-39325D01*
X53831Y-39160D02*
X53831Y-39259D01*
X53831Y-39210D02*
X54126Y-39210D01*
X54084Y-39226D01*
X54056Y-39243D01*
X54042Y-39259D01*
X54126Y-39003D02*
X54126Y-39086D01*
X53986Y-39094D01*
X54000Y-39086D01*
X54014Y-39069D01*
X54014Y-39028D01*
X54000Y-39012D01*
X53986Y-39003D01*
X53958Y-38995D01*
X53887Y-38995D01*
X53859Y-39003D01*
X53845Y-39012D01*
X53831Y-39028D01*
X53831Y-39069D01*
X53845Y-39086D01*
X53859Y-39094D01*
X52831Y-39597D02*
X53126Y-39597D01*
X53126Y-39531D01*
X53112Y-39514D01*
X53098Y-39506D01*
X53070Y-39498D01*
X53028Y-39498D01*
X53000Y-39506D01*
X52986Y-39514D01*
X52972Y-39531D01*
X52972Y-39597D01*
X52859Y-39325D02*
X52845Y-39333D01*
X52831Y-39358D01*
X52831Y-39374D01*
X52845Y-39399D01*
X52873Y-39416D01*
X52901Y-39424D01*
X52958Y-39432D01*
X53000Y-39432D01*
X53056Y-39424D01*
X53084Y-39416D01*
X53112Y-39399D01*
X53126Y-39374D01*
X53126Y-39358D01*
X53112Y-39333D01*
X53098Y-39325D01*
X52831Y-39160D02*
X52831Y-39259D01*
X52831Y-39210D02*
X53126Y-39210D01*
X53084Y-39226D01*
X53056Y-39243D01*
X53042Y-39259D01*
X53028Y-39012D02*
X52831Y-39012D01*
X53140Y-39053D02*
X52929Y-39094D01*
X52929Y-38987D01*
X51981Y-39514D02*
X52276Y-39514D01*
X52276Y-39448D01*
X52262Y-39431D01*
X52248Y-39423D01*
X52220Y-39415D01*
X52178Y-39415D01*
X52150Y-39423D01*
X52136Y-39431D01*
X52122Y-39448D01*
X52122Y-39514D01*
X52136Y-39283D02*
X52122Y-39258D01*
X52108Y-39250D01*
X52079Y-39242D01*
X52037Y-39242D01*
X52009Y-39250D01*
X51995Y-39258D01*
X51981Y-39275D01*
X51981Y-39341D01*
X52276Y-39341D01*
X52276Y-39283D01*
X52262Y-39267D01*
X52248Y-39258D01*
X52220Y-39250D01*
X52192Y-39250D01*
X52164Y-39258D01*
X52150Y-39267D01*
X52136Y-39283D01*
X52136Y-39341D01*
X51981Y-39077D02*
X51981Y-39176D01*
X51981Y-39127D02*
X52276Y-39127D01*
X52234Y-39143D01*
X52206Y-39160D01*
X52192Y-39176D01*
X46576Y-39448D02*
X46281Y-39390D01*
X46576Y-39332D01*
X46281Y-39275D02*
X46576Y-39275D01*
X46281Y-39193D02*
X46576Y-39193D01*
X46576Y-39152D01*
X46562Y-39127D01*
X46534Y-39110D01*
X46506Y-39102D01*
X46450Y-39094D01*
X46408Y-39094D01*
X46351Y-39102D01*
X46323Y-39110D01*
X46295Y-39127D01*
X46281Y-39152D01*
X46281Y-39193D01*
X46281Y-39020D02*
X46576Y-39020D01*
X46393Y-38938D02*
X46393Y-38806D01*
X46281Y-38872D02*
X46506Y-38872D01*
X46576Y-38749D02*
X46281Y-38691D01*
X46576Y-38633D01*
X46281Y-38576D02*
X46576Y-38576D01*
X66138Y-31569D02*
X66124Y-31552D01*
X66124Y-31528D01*
X66138Y-31503D01*
X66166Y-31486D01*
X66194Y-31478D01*
X66250Y-31470D01*
X66292Y-31470D01*
X66349Y-31478D01*
X66377Y-31486D01*
X66405Y-31503D01*
X66419Y-31528D01*
X66419Y-31544D01*
X66405Y-31569D01*
X66391Y-31577D01*
X66292Y-31577D01*
X66292Y-31544D01*
X66419Y-31651D02*
X66124Y-31651D01*
X66419Y-31750D01*
X66124Y-31750D01*
X66419Y-31832D02*
X66124Y-31832D01*
X66124Y-31873D01*
X66138Y-31898D01*
X66166Y-31915D01*
X66194Y-31923D01*
X66250Y-31931D01*
X66292Y-31931D01*
X66349Y-31923D01*
X66377Y-31915D01*
X66405Y-31898D01*
X66419Y-31873D01*
X66419Y-31832D01*
X64919Y-31616D02*
X64624Y-31616D01*
X64919Y-31715D01*
X64624Y-31715D01*
X64919Y-31896D02*
X64778Y-31838D01*
X64919Y-31797D02*
X64624Y-31797D01*
X64624Y-31863D01*
X64638Y-31880D01*
X64652Y-31888D01*
X64680Y-31896D01*
X64722Y-31896D01*
X64750Y-31888D01*
X64764Y-31880D01*
X64778Y-31863D01*
X64778Y-31797D01*
X64905Y-31962D02*
X64919Y-31987D01*
X64919Y-32028D01*
X64905Y-32044D01*
X64891Y-32053D01*
X64863Y-32061D01*
X64835Y-32061D01*
X64807Y-32053D01*
X64792Y-32044D01*
X64778Y-32028D01*
X64764Y-31995D01*
X64750Y-31978D01*
X64736Y-31970D01*
X64708Y-31962D01*
X64680Y-31962D01*
X64652Y-31970D01*
X64638Y-31978D01*
X64624Y-31995D01*
X64624Y-32036D01*
X64638Y-32061D01*
X64624Y-32110D02*
X64624Y-32209D01*
X64919Y-32160D02*
X64624Y-32160D01*
X63719Y-32116D02*
X63424Y-32116D01*
X63424Y-32182D01*
X63438Y-32199D01*
X63452Y-32207D01*
X63480Y-32215D01*
X63522Y-32215D01*
X63550Y-32207D01*
X63564Y-32199D01*
X63578Y-32182D01*
X63578Y-32116D01*
X63635Y-32281D02*
X63635Y-32363D01*
X63719Y-32264D02*
X63424Y-32322D01*
X63719Y-32380D01*
X63719Y-32528D02*
X63719Y-32429D01*
X63719Y-32478D02*
X63424Y-32478D01*
X63466Y-32462D01*
X63494Y-32445D01*
X63508Y-32429D01*
X63424Y-32586D02*
X63424Y-32693D01*
X63536Y-32635D01*
X63536Y-32660D01*
X63550Y-32676D01*
X63564Y-32685D01*
X63592Y-32693D01*
X63663Y-32693D01*
X63691Y-32685D01*
X63705Y-32676D01*
X63719Y-32660D01*
X63719Y-32610D01*
X63705Y-32594D01*
X63691Y-32586D01*
X62869Y-31523D02*
X62855Y-31506D01*
X62855Y-31482D01*
X62869Y-31457D01*
X62897Y-31440D01*
X62925Y-31432D01*
X62981Y-31424D01*
X63023Y-31424D01*
X63080Y-31432D01*
X63108Y-31440D01*
X63136Y-31457D01*
X63150Y-31482D01*
X63150Y-31498D01*
X63136Y-31523D01*
X63122Y-31531D01*
X63023Y-31531D01*
X63023Y-31498D01*
X63150Y-31605D02*
X62855Y-31605D01*
X63150Y-31704D01*
X62855Y-31704D01*
X63150Y-31786D02*
X62855Y-31786D01*
X62855Y-31827D01*
X62869Y-31852D01*
X62897Y-31869D01*
X62925Y-31877D01*
X62981Y-31885D01*
X63023Y-31885D01*
X63080Y-31877D01*
X63108Y-31869D01*
X63136Y-31852D01*
X63150Y-31827D01*
X63150Y-31786D01*
X62186Y-31389D02*
X61891Y-31389D01*
X61891Y-31455D01*
X61905Y-31472D01*
X61919Y-31480D01*
X61947Y-31488D01*
X61989Y-31488D01*
X62017Y-31480D01*
X62031Y-31472D01*
X62045Y-31455D01*
X62045Y-31389D01*
X62102Y-31554D02*
X62102Y-31636D01*
X62186Y-31537D02*
X61891Y-31595D01*
X62186Y-31653D01*
X62186Y-31801D02*
X62186Y-31702D01*
X62186Y-31751D02*
X61891Y-31751D01*
X61933Y-31735D01*
X61961Y-31718D01*
X61975Y-31702D01*
X61989Y-31949D02*
X62186Y-31949D01*
X61877Y-31908D02*
X62088Y-31867D01*
X62088Y-31974D01*
X60848Y-31418D02*
X60848Y-31525D01*
X60960Y-31467D01*
X60960Y-31492D01*
X60974Y-31508D01*
X60988Y-31517D01*
X61016Y-31525D01*
X61087Y-31525D01*
X61115Y-31517D01*
X61129Y-31508D01*
X61143Y-31492D01*
X61143Y-31442D01*
X61129Y-31426D01*
X61115Y-31418D01*
X61115Y-31599D02*
X61129Y-31607D01*
X61143Y-31599D01*
X61129Y-31591D01*
X61115Y-31599D01*
X61143Y-31599D01*
X60848Y-31665D02*
X60848Y-31772D01*
X60960Y-31714D01*
X60960Y-31739D01*
X60974Y-31755D01*
X60988Y-31764D01*
X61016Y-31772D01*
X61087Y-31772D01*
X61115Y-31764D01*
X61129Y-31755D01*
X61143Y-31739D01*
X61143Y-31689D01*
X61129Y-31673D01*
X61115Y-31665D01*
X60848Y-31821D02*
X61143Y-31879D01*
X60848Y-31937D01*
X60178Y-31370D02*
X59883Y-31370D01*
X59883Y-31436D01*
X59897Y-31453D01*
X59911Y-31461D01*
X59939Y-31469D01*
X59981Y-31469D01*
X60009Y-31461D01*
X60023Y-31453D01*
X60037Y-31436D01*
X60037Y-31370D01*
X60094Y-31535D02*
X60094Y-31617D01*
X60178Y-31518D02*
X59883Y-31576D01*
X60178Y-31634D01*
X60178Y-31782D02*
X60178Y-31683D01*
X60178Y-31732D02*
X59883Y-31732D01*
X59925Y-31716D01*
X59953Y-31699D01*
X59967Y-31683D01*
X59911Y-31848D02*
X59897Y-31856D01*
X59883Y-31873D01*
X59883Y-31914D01*
X59897Y-31930D01*
X59911Y-31939D01*
X59939Y-31947D01*
X59967Y-31947D01*
X60009Y-31939D01*
X60178Y-31840D01*
X60178Y-31947D01*
X59154Y-31350D02*
X58859Y-31350D01*
X58859Y-31416D01*
X58873Y-31433D01*
X58887Y-31441D01*
X58915Y-31449D01*
X58957Y-31449D01*
X58985Y-31441D01*
X58999Y-31433D01*
X59013Y-31416D01*
X59013Y-31350D01*
X59070Y-31515D02*
X59070Y-31597D01*
X59154Y-31498D02*
X58859Y-31556D01*
X59154Y-31614D01*
X59154Y-31762D02*
X59154Y-31663D01*
X59154Y-31712D02*
X58859Y-31712D01*
X58901Y-31696D01*
X58929Y-31679D01*
X58943Y-31663D01*
X59154Y-31927D02*
X59154Y-31828D01*
X59154Y-31877D02*
X58859Y-31877D01*
X58901Y-31861D01*
X58929Y-31844D01*
X58943Y-31828D01*
X58170Y-31376D02*
X57875Y-31376D01*
X57875Y-31442D01*
X57889Y-31459D01*
X57903Y-31467D01*
X57931Y-31475D01*
X57973Y-31475D01*
X58001Y-31467D01*
X58015Y-31459D01*
X58029Y-31442D01*
X58029Y-31376D01*
X58142Y-31648D02*
X58156Y-31640D01*
X58170Y-31615D01*
X58170Y-31599D01*
X58156Y-31574D01*
X58128Y-31557D01*
X58100Y-31549D01*
X58043Y-31541D01*
X58001Y-31541D01*
X57945Y-31549D01*
X57917Y-31557D01*
X57889Y-31574D01*
X57875Y-31599D01*
X57875Y-31615D01*
X57889Y-31640D01*
X57903Y-31648D01*
X58170Y-31813D02*
X58170Y-31714D01*
X58170Y-31763D02*
X57875Y-31763D01*
X57917Y-31747D01*
X57945Y-31730D01*
X57959Y-31714D01*
X57903Y-31879D02*
X57889Y-31887D01*
X57875Y-31904D01*
X57875Y-31945D01*
X57889Y-31961D01*
X57903Y-31970D01*
X57931Y-31978D01*
X57959Y-31978D01*
X58001Y-31970D01*
X58170Y-31871D01*
X58170Y-31978D01*
X57127Y-31479D02*
X56832Y-31479D01*
X56832Y-31545D01*
X56846Y-31562D01*
X56860Y-31570D01*
X56888Y-31578D01*
X56930Y-31578D01*
X56958Y-31570D01*
X56972Y-31562D01*
X56986Y-31545D01*
X56986Y-31479D01*
X56972Y-31710D02*
X56986Y-31735D01*
X57000Y-31743D01*
X57029Y-31751D01*
X57071Y-31751D01*
X57099Y-31743D01*
X57113Y-31735D01*
X57127Y-31718D01*
X57127Y-31652D01*
X56832Y-31652D01*
X56832Y-31710D01*
X56846Y-31726D01*
X56860Y-31735D01*
X56888Y-31743D01*
X56916Y-31743D01*
X56944Y-31735D01*
X56958Y-31726D01*
X56972Y-31710D01*
X56972Y-31652D01*
X56832Y-31809D02*
X56832Y-31916D01*
X56944Y-31858D01*
X56944Y-31883D01*
X56958Y-31899D01*
X56972Y-31908D01*
X57000Y-31916D01*
X57071Y-31916D01*
X57099Y-31908D01*
X57113Y-31899D01*
X57127Y-31883D01*
X57127Y-31833D01*
X57113Y-31817D01*
X57099Y-31809D01*
X56202Y-31538D02*
X55907Y-31538D01*
X55907Y-31604D01*
X55921Y-31621D01*
X55935Y-31629D01*
X55963Y-31637D01*
X56005Y-31637D01*
X56033Y-31629D01*
X56047Y-31621D01*
X56061Y-31604D01*
X56061Y-31538D01*
X56047Y-31769D02*
X56061Y-31794D01*
X56075Y-31802D01*
X56104Y-31810D01*
X56146Y-31810D01*
X56174Y-31802D01*
X56188Y-31794D01*
X56202Y-31777D01*
X56202Y-31711D01*
X55907Y-31711D01*
X55907Y-31769D01*
X55921Y-31785D01*
X55935Y-31794D01*
X55963Y-31802D01*
X55991Y-31802D01*
X56019Y-31794D01*
X56033Y-31785D01*
X56047Y-31769D01*
X56047Y-31711D01*
X56005Y-31958D02*
X56202Y-31958D01*
X55893Y-31917D02*
X56104Y-31876D01*
X56104Y-31983D01*
X55253Y-31792D02*
X55253Y-31497D01*
X55187Y-31497D01*
X55170Y-31511D01*
X55162Y-31525D01*
X55154Y-31553D01*
X55154Y-31595D01*
X55162Y-31623D01*
X55170Y-31637D01*
X55187Y-31651D01*
X55253Y-31651D01*
X55022Y-31637D02*
X54997Y-31651D01*
X54989Y-31665D01*
X54981Y-31694D01*
X54981Y-31736D01*
X54989Y-31764D01*
X54997Y-31778D01*
X55014Y-31792D01*
X55080Y-31792D01*
X55080Y-31497D01*
X55022Y-31497D01*
X55006Y-31511D01*
X54997Y-31525D01*
X54989Y-31553D01*
X54989Y-31581D01*
X54997Y-31609D01*
X55006Y-31623D01*
X55022Y-31637D01*
X55080Y-31637D01*
X54824Y-31497D02*
X54907Y-31497D01*
X54915Y-31637D01*
X54907Y-31623D01*
X54890Y-31609D01*
X54849Y-31609D01*
X54833Y-31623D01*
X54824Y-31637D01*
X54816Y-31665D01*
X54816Y-31736D01*
X54824Y-31764D01*
X54833Y-31778D01*
X54849Y-31792D01*
X54890Y-31792D01*
X54907Y-31778D01*
X54915Y-31764D01*
X54154Y-31479D02*
X53859Y-31479D01*
X53859Y-31545D01*
X53873Y-31562D01*
X53887Y-31570D01*
X53915Y-31578D01*
X53957Y-31578D01*
X53985Y-31570D01*
X53999Y-31562D01*
X54013Y-31545D01*
X54013Y-31479D01*
X53999Y-31710D02*
X54013Y-31735D01*
X54027Y-31743D01*
X54056Y-31751D01*
X54098Y-31751D01*
X54126Y-31743D01*
X54140Y-31735D01*
X54154Y-31718D01*
X54154Y-31652D01*
X53859Y-31652D01*
X53859Y-31710D01*
X53873Y-31726D01*
X53887Y-31735D01*
X53915Y-31743D01*
X53943Y-31743D01*
X53971Y-31735D01*
X53985Y-31726D01*
X53999Y-31710D01*
X53999Y-31652D01*
X53859Y-31899D02*
X53859Y-31866D01*
X53873Y-31850D01*
X53887Y-31842D01*
X53929Y-31825D01*
X53985Y-31817D01*
X54098Y-31817D01*
X54126Y-31825D01*
X54140Y-31833D01*
X54154Y-31850D01*
X54154Y-31883D01*
X54140Y-31899D01*
X54126Y-31908D01*
X54098Y-31916D01*
X54027Y-31916D01*
X53999Y-31908D01*
X53985Y-31899D01*
X53971Y-31883D01*
X53971Y-31850D01*
X53985Y-31833D01*
X53999Y-31825D01*
X54027Y-31817D01*
X53245Y-31773D02*
X53245Y-31478D01*
X53179Y-31478D01*
X53162Y-31492D01*
X53154Y-31506D01*
X53146Y-31534D01*
X53146Y-31576D01*
X53154Y-31604D01*
X53162Y-31618D01*
X53179Y-31632D01*
X53245Y-31632D01*
X53014Y-31618D02*
X52989Y-31632D01*
X52981Y-31646D01*
X52973Y-31675D01*
X52973Y-31717D01*
X52981Y-31745D01*
X52989Y-31759D01*
X53006Y-31773D01*
X53072Y-31773D01*
X53072Y-31478D01*
X53014Y-31478D01*
X52998Y-31492D01*
X52989Y-31506D01*
X52981Y-31534D01*
X52981Y-31562D01*
X52989Y-31590D01*
X52998Y-31604D01*
X53014Y-31618D01*
X53072Y-31618D01*
X52915Y-31478D02*
X52800Y-31478D01*
X52874Y-31773D01*
X52186Y-31499D02*
X51891Y-31499D01*
X51891Y-31565D01*
X51905Y-31582D01*
X51919Y-31590D01*
X51947Y-31598D01*
X51989Y-31598D01*
X52017Y-31590D01*
X52031Y-31582D01*
X52045Y-31565D01*
X52045Y-31499D01*
X52031Y-31730D02*
X52045Y-31755D01*
X52059Y-31763D01*
X52088Y-31771D01*
X52130Y-31771D01*
X52158Y-31763D01*
X52172Y-31755D01*
X52186Y-31738D01*
X52186Y-31672D01*
X51891Y-31672D01*
X51891Y-31730D01*
X51905Y-31746D01*
X51919Y-31755D01*
X51947Y-31763D01*
X51975Y-31763D01*
X52003Y-31755D01*
X52017Y-31746D01*
X52031Y-31730D01*
X52031Y-31672D01*
X52017Y-31870D02*
X52003Y-31853D01*
X51989Y-31845D01*
X51961Y-31837D01*
X51947Y-31837D01*
X51919Y-31845D01*
X51905Y-31853D01*
X51891Y-31870D01*
X51891Y-31903D01*
X51905Y-31919D01*
X51919Y-31928D01*
X51947Y-31936D01*
X51961Y-31936D01*
X51989Y-31928D01*
X52003Y-31919D01*
X52017Y-31903D01*
X52017Y-31870D01*
X52031Y-31853D01*
X52045Y-31845D01*
X52074Y-31837D01*
X52130Y-31837D01*
X52158Y-31845D01*
X52172Y-31853D01*
X52186Y-31870D01*
X52186Y-31903D01*
X52172Y-31919D01*
X52158Y-31928D01*
X52130Y-31936D01*
X52074Y-31936D01*
X52045Y-31928D01*
X52031Y-31919D01*
X52017Y-31903D01*
X60909Y-32619D02*
X60909Y-32324D01*
X60843Y-32324D01*
X60826Y-32338D01*
X60818Y-32352D01*
X60810Y-32380D01*
X60810Y-32422D01*
X60818Y-32450D01*
X60826Y-32464D01*
X60843Y-32478D01*
X60909Y-32478D01*
X60637Y-32619D02*
X60695Y-32478D01*
X60736Y-32619D02*
X60736Y-32324D01*
X60670Y-32324D01*
X60653Y-32338D01*
X60645Y-32352D01*
X60637Y-32380D01*
X60637Y-32422D01*
X60645Y-32450D01*
X60653Y-32464D01*
X60670Y-32478D01*
X60736Y-32478D01*
X60530Y-32324D02*
X60497Y-32324D01*
X60480Y-32338D01*
X60464Y-32366D01*
X60456Y-32422D01*
X60456Y-32521D01*
X60464Y-32577D01*
X60480Y-32605D01*
X60497Y-32619D01*
X60530Y-32619D01*
X60546Y-32605D01*
X60563Y-32577D01*
X60571Y-32521D01*
X60571Y-32422D01*
X60563Y-32366D01*
X60546Y-32338D01*
X60530Y-32324D01*
X60291Y-32338D02*
X60308Y-32324D01*
X60332Y-32324D01*
X60357Y-32338D01*
X60374Y-32366D01*
X60382Y-32394D01*
X60390Y-32450D01*
X60390Y-32492D01*
X60382Y-32549D01*
X60374Y-32577D01*
X60357Y-32605D01*
X60332Y-32619D01*
X60316Y-32619D01*
X60291Y-32605D01*
X60283Y-32591D01*
X60283Y-32492D01*
X60316Y-32492D01*
G54D12*
X57689Y-33141D02*
X56114Y-33141D01*
X56114Y-33141D02*
X56114Y-35109D01*
X56114Y-35109D02*
X57886Y-35109D01*
X57886Y-35109D02*
X57886Y-33338D01*
X58024Y-33141D02*
X58021Y-33167D01*
X58013Y-33193D01*
X58000Y-33217D01*
X57983Y-33238D01*
X57963Y-33255D01*
X57939Y-33268D01*
X57913Y-33276D01*
X57886Y-33278D01*
X57861Y-33276D01*
X57835Y-33268D01*
X57811Y-33256D01*
X57790Y-33239D01*
X57773Y-33218D01*
X57760Y-33195D01*
X57752Y-33169D01*
X57749Y-33142D01*
X57751Y-33117D01*
X57758Y-33091D01*
X57771Y-33067D01*
X57787Y-33046D01*
X57808Y-33028D01*
X57831Y-33015D01*
X57857Y-33007D01*
X57884Y-33004D01*
X57909Y-33006D01*
X57935Y-33013D01*
X57959Y-33025D01*
X57981Y-33042D01*
X57998Y-33062D01*
X58012Y-33085D01*
X58020Y-33111D01*
X58023Y-33138D01*
X58024Y-33141D01*
G54D14*
X54275Y-33250D02*
X54575Y-33050D01*
X53575Y-33250D02*
X54600Y-33250D01*
X54600Y-33250D02*
X54600Y-32650D01*
X54600Y-32650D02*
X53575Y-32650D01*
X53575Y-32650D02*
X53575Y-33250D01*
X51950Y-37850D02*
X51950Y-37150D01*
X51950Y-37150D02*
X50750Y-37150D01*
X50750Y-37150D02*
X50750Y-37850D01*
X50750Y-37850D02*
X51950Y-37850D01*
X62825Y-36025D02*
X62125Y-36025D01*
X62125Y-36025D02*
X62125Y-37225D01*
X62125Y-37225D02*
X62825Y-37225D01*
X62825Y-37225D02*
X62825Y-36025D01*
X47408Y-32952D02*
X47407Y-32961D01*
X47404Y-32971D01*
X47399Y-32979D01*
X47393Y-32987D01*
X47385Y-32993D01*
X47377Y-32998D01*
X47368Y-33000D01*
X47358Y-33001D01*
X47349Y-33001D01*
X47340Y-32998D01*
X47331Y-32993D01*
X47324Y-32987D01*
X47317Y-32980D01*
X47313Y-32971D01*
X47310Y-32962D01*
X47309Y-32952D01*
X47309Y-32943D01*
X47312Y-32934D01*
X47316Y-32925D01*
X47323Y-32918D01*
X47330Y-32911D01*
X47338Y-32907D01*
X47348Y-32904D01*
X47357Y-32903D01*
X47366Y-32903D01*
X47376Y-32906D01*
X47384Y-32910D01*
X47392Y-32916D01*
X47398Y-32924D01*
X47403Y-32932D01*
X47406Y-32941D01*
X47407Y-32951D01*
X47408Y-32952D01*
X47808Y-32952D02*
X47408Y-32952D01*
X47408Y-32952D02*
X47408Y-33552D01*
X47408Y-33552D02*
X47808Y-33552D01*
X48208Y-33552D02*
X48608Y-33552D01*
X48608Y-33552D02*
X48608Y-32952D01*
X48608Y-32952D02*
X48208Y-32952D01*
X48500Y-35625D02*
X48499Y-35634D01*
X48496Y-35644D01*
X48491Y-35652D01*
X48485Y-35660D01*
X48477Y-35666D01*
X48469Y-35671D01*
X48460Y-35673D01*
X48450Y-35674D01*
X48441Y-35674D01*
X48432Y-35671D01*
X48423Y-35666D01*
X48416Y-35660D01*
X48409Y-35653D01*
X48405Y-35644D01*
X48402Y-35635D01*
X48401Y-35625D01*
X48401Y-35616D01*
X48404Y-35607D01*
X48408Y-35598D01*
X48415Y-35591D01*
X48422Y-35584D01*
X48430Y-35580D01*
X48440Y-35577D01*
X48449Y-35576D01*
X48458Y-35576D01*
X48468Y-35579D01*
X48476Y-35583D01*
X48484Y-35589D01*
X48490Y-35597D01*
X48495Y-35605D01*
X48498Y-35614D01*
X48499Y-35624D01*
X48500Y-35625D01*
X48900Y-35625D02*
X48500Y-35625D01*
X48500Y-35625D02*
X48500Y-36225D01*
X48500Y-36225D02*
X48900Y-36225D01*
X49300Y-36225D02*
X49700Y-36225D01*
X49700Y-36225D02*
X49700Y-35625D01*
X49700Y-35625D02*
X49300Y-35625D01*
X57885Y-38352D02*
X58785Y-38352D01*
X58785Y-38352D02*
X58785Y-37852D01*
X58785Y-37852D02*
X57885Y-37852D01*
X57885Y-37852D02*
X57885Y-38352D01*
X54825Y-34075D02*
X53925Y-34075D01*
X53925Y-34075D02*
X53925Y-34575D01*
X53925Y-34575D02*
X54825Y-34575D01*
X54825Y-34575D02*
X54825Y-34075D01*
X53875Y-36650D02*
X54775Y-36650D01*
X54775Y-36650D02*
X54775Y-36150D01*
X54775Y-36150D02*
X53875Y-36150D01*
X53875Y-36150D02*
X53875Y-36650D01*
X63550Y-32025D02*
X64450Y-32025D01*
X64450Y-32025D02*
X64450Y-31525D01*
X64450Y-31525D02*
X63550Y-31525D01*
X63550Y-31525D02*
X63550Y-32025D01*
X61850Y-33500D02*
X62750Y-33500D01*
X62750Y-33500D02*
X62750Y-33000D01*
X62750Y-33000D02*
X61850Y-33000D01*
X61850Y-33000D02*
X61850Y-33500D01*
X52175Y-36775D02*
X53075Y-36775D01*
X53075Y-36775D02*
X53075Y-36275D01*
X53075Y-36275D02*
X52175Y-36275D01*
X52175Y-36275D02*
X52175Y-36775D01*
X55650Y-34330D02*
X55650Y-35230D01*
X55650Y-35230D02*
X56150Y-35230D01*
X56150Y-35230D02*
X56150Y-34330D01*
X56150Y-34330D02*
X55650Y-34330D01*
X51450Y-38975D02*
X50550Y-38975D01*
X50550Y-38975D02*
X50550Y-39475D01*
X50550Y-39475D02*
X51450Y-39475D01*
X51450Y-39475D02*
X51450Y-38975D01*
X49525Y-31450D02*
X48625Y-31450D01*
X48625Y-31450D02*
X48625Y-31950D01*
X48625Y-31950D02*
X49525Y-31950D01*
X49525Y-31950D02*
X49525Y-31450D01*
X48078Y-32738D02*
X48978Y-32738D01*
X48978Y-32738D02*
X48978Y-32238D01*
X48978Y-32238D02*
X48078Y-32238D01*
X48078Y-32238D02*
X48078Y-32738D01*
X62225Y-33775D02*
X62225Y-34675D01*
X62225Y-34675D02*
X62725Y-34675D01*
X62725Y-34675D02*
X62725Y-33775D01*
X62725Y-33775D02*
X62225Y-33775D01*
X50725Y-37750D02*
X50725Y-36850D01*
X50725Y-36850D02*
X50225Y-36850D01*
X50225Y-36850D02*
X50225Y-37750D01*
X50225Y-37750D02*
X50725Y-37750D01*
X51376Y-35572D02*
X51376Y-34672D01*
X51376Y-34672D02*
X50876Y-34672D01*
X50876Y-34672D02*
X50876Y-35572D01*
X50876Y-35572D02*
X51376Y-35572D01*
X53875Y-36025D02*
X54775Y-36025D01*
X54775Y-36025D02*
X54775Y-35525D01*
X54775Y-35525D02*
X53875Y-35525D01*
X53875Y-35525D02*
X53875Y-36025D01*
X55200Y-33350D02*
X55200Y-32450D01*
X55200Y-32450D02*
X54700Y-32450D01*
X54700Y-32450D02*
X54700Y-33350D01*
X54700Y-33350D02*
X55200Y-33350D01*
X61275Y-38450D02*
X61275Y-37550D01*
X61275Y-37550D02*
X60775Y-37550D01*
X60775Y-37550D02*
X60775Y-38450D01*
X60775Y-38450D02*
X61275Y-38450D01*
X65050Y-32000D02*
X65950Y-32000D01*
X65950Y-32000D02*
X65950Y-31500D01*
X65950Y-31500D02*
X65050Y-31500D01*
X65050Y-31500D02*
X65050Y-32000D01*
X56525Y-32725D02*
X55625Y-32725D01*
X55625Y-32725D02*
X55625Y-33225D01*
X55625Y-33225D02*
X56525Y-33225D01*
X56525Y-33225D02*
X56525Y-32725D01*
X57850Y-38600D02*
X56950Y-38600D01*
X56950Y-38600D02*
X56950Y-39100D01*
X56950Y-39100D02*
X57850Y-39100D01*
X57850Y-39100D02*
X57850Y-38600D01*
X60575Y-34225D02*
X60575Y-35125D01*
X60575Y-35125D02*
X61075Y-35125D01*
X61075Y-35125D02*
X61075Y-34225D01*
X61075Y-34225D02*
X60575Y-34225D01*
X60750Y-33900D02*
X61650Y-33900D01*
X61650Y-33900D02*
X61650Y-33400D01*
X61650Y-33400D02*
X60750Y-33400D01*
X60750Y-33400D02*
X60750Y-33900D01*
X56700Y-33225D02*
X57600Y-33225D01*
X57600Y-33225D02*
X57600Y-32725D01*
X57600Y-32725D02*
X56700Y-32725D01*
X56700Y-32725D02*
X56700Y-33225D01*
X56925Y-37075D02*
X57825Y-37075D01*
X57825Y-37075D02*
X57825Y-36575D01*
X57825Y-36575D02*
X56925Y-36575D01*
X56925Y-36575D02*
X56925Y-37075D01*
X50875Y-33700D02*
X50875Y-34600D01*
X50875Y-34600D02*
X51375Y-34600D01*
X51375Y-34600D02*
X51375Y-33700D01*
X51375Y-33700D02*
X50875Y-33700D01*
X50875Y-32400D02*
X50875Y-33300D01*
X50875Y-33300D02*
X51375Y-33300D01*
X51375Y-33300D02*
X51375Y-32400D01*
X51375Y-32400D02*
X50875Y-32400D01*
X63075Y-37175D02*
X62175Y-37175D01*
X62175Y-37175D02*
X62175Y-37675D01*
X62175Y-37675D02*
X63075Y-37675D01*
X63075Y-37675D02*
X63075Y-37175D01*
X51375Y-35875D02*
X50475Y-35875D01*
X50475Y-35875D02*
X50475Y-36375D01*
X50475Y-36375D02*
X51375Y-36375D01*
X51375Y-36375D02*
X51375Y-35875D01*
X53225Y-36800D02*
X53225Y-37700D01*
X53225Y-37700D02*
X53725Y-37700D01*
X53725Y-37700D02*
X53725Y-36800D01*
X53725Y-36800D02*
X53225Y-36800D01*
X49650Y-36475D02*
X48750Y-36475D01*
X48750Y-36475D02*
X48750Y-36975D01*
X48750Y-36975D02*
X49650Y-36975D01*
X49650Y-36975D02*
X49650Y-36475D01*
X48300Y-33775D02*
X48300Y-34675D01*
X48300Y-34675D02*
X48800Y-34675D01*
X48800Y-34675D02*
X48800Y-33775D01*
X48800Y-33775D02*
X48300Y-33775D01*
X56625Y-37625D02*
X56625Y-36725D01*
X56625Y-36725D02*
X56125Y-36725D01*
X56125Y-36725D02*
X56125Y-37625D01*
X56125Y-37625D02*
X56625Y-37625D01*
X49368Y-37755D02*
X49368Y-38655D01*
X49368Y-38655D02*
X49868Y-38655D01*
X49868Y-38655D02*
X49868Y-37755D01*
X49868Y-37755D02*
X49368Y-37755D01*
G54D15*
X49865Y-34601D02*
X50365Y-34126D01*
X50365Y-34601D02*
X49115Y-34601D01*
X49115Y-34601D02*
X49115Y-33351D01*
X49115Y-33351D02*
X50365Y-33351D01*
X50365Y-33351D02*
X50365Y-34601D01*
G54D12*
X53756Y-34606D02*
X53756Y-34685D01*
X55134Y-34606D02*
X55134Y-34685D01*
X53756Y-34606D02*
X55134Y-34606D01*
X55134Y-35315D02*
X55134Y-35394D01*
X55134Y-35394D02*
X53756Y-35394D01*
X53756Y-35394D02*
X53756Y-35315D01*
X47071Y-38346D02*
X47071Y-38425D01*
X48449Y-38346D02*
X48449Y-38425D01*
X47071Y-38346D02*
X48449Y-38346D01*
X48449Y-39055D02*
X48449Y-39134D01*
X48449Y-39134D02*
X47071Y-39134D01*
X47071Y-39134D02*
X47071Y-39055D01*
X49089Y-39634D02*
X49089Y-39555D01*
X47711Y-39634D02*
X47711Y-39555D01*
X49089Y-39634D02*
X47711Y-39634D01*
X47711Y-38925D02*
X47711Y-38846D01*
X47711Y-38846D02*
X49089Y-38846D01*
X49089Y-38846D02*
X49089Y-38925D01*
G54D14*
X57150Y-36425D02*
X57150Y-35525D01*
X57150Y-35525D02*
X56650Y-35525D01*
X56650Y-35525D02*
X56650Y-36425D01*
X56650Y-36425D02*
X57150Y-36425D01*
X64444Y-37474D02*
X65344Y-37474D01*
X65344Y-37474D02*
X65344Y-36974D01*
X65344Y-36974D02*
X64444Y-36974D01*
X64444Y-36974D02*
X64444Y-37474D01*
X64975Y-36675D02*
X64975Y-35775D01*
X64975Y-35775D02*
X64475Y-35775D01*
X64475Y-35775D02*
X64475Y-36675D01*
X64475Y-36675D02*
X64975Y-36675D01*
X65430Y-33766D02*
X64530Y-33766D01*
X64530Y-33766D02*
X64530Y-34266D01*
X64530Y-34266D02*
X65430Y-34266D01*
X65430Y-34266D02*
X65430Y-33766D01*
X64789Y-34609D02*
X64789Y-35509D01*
X64789Y-35509D02*
X65289Y-35509D01*
X65289Y-35509D02*
X65289Y-34609D01*
X65289Y-34609D02*
X64789Y-34609D01*
X53475Y-36125D02*
X52575Y-36125D01*
X52575Y-36125D02*
X52575Y-35475D01*
X53475Y-34775D02*
X53475Y-34125D01*
X53475Y-34125D02*
X52575Y-34125D01*
X52575Y-34125D02*
X52575Y-34775D01*
X53475Y-35475D02*
X53475Y-36125D01*
X52300Y-38275D02*
X52299Y-38284D01*
X52296Y-38294D01*
X52291Y-38302D01*
X52285Y-38310D01*
X52277Y-38316D01*
X52269Y-38321D01*
X52260Y-38323D01*
X52250Y-38324D01*
X52241Y-38324D01*
X52232Y-38321D01*
X52223Y-38316D01*
X52216Y-38310D01*
X52209Y-38303D01*
X52205Y-38294D01*
X52202Y-38285D01*
X52201Y-38275D01*
X52201Y-38266D01*
X52204Y-38257D01*
X52208Y-38248D01*
X52215Y-38241D01*
X52222Y-38234D01*
X52230Y-38230D01*
X52240Y-38227D01*
X52249Y-38226D01*
X52258Y-38226D01*
X52268Y-38229D01*
X52276Y-38233D01*
X52284Y-38239D01*
X52290Y-38247D01*
X52295Y-38255D01*
X52298Y-38264D01*
X52299Y-38274D01*
X52300Y-38275D01*
X52250Y-37825D02*
X52250Y-38225D01*
X52250Y-38225D02*
X52850Y-38225D01*
X52850Y-38225D02*
X52850Y-37825D01*
X52850Y-37425D02*
X52850Y-37025D01*
X52850Y-37025D02*
X52250Y-37025D01*
X52250Y-37025D02*
X52250Y-37425D01*
X52525Y-36125D02*
X51625Y-36125D01*
X51625Y-36125D02*
X51625Y-35475D01*
X52525Y-34775D02*
X52525Y-34125D01*
X52525Y-34125D02*
X51625Y-34125D01*
X51625Y-34125D02*
X51625Y-34775D01*
X52525Y-35475D02*
X52525Y-36125D01*
X51625Y-32075D02*
X52525Y-32075D01*
X52525Y-32075D02*
X52525Y-32725D01*
X51625Y-33425D02*
X51625Y-34075D01*
X51625Y-34075D02*
X52525Y-34075D01*
X52525Y-34075D02*
X52525Y-33425D01*
X51625Y-32725D02*
X51625Y-32075D01*
X50725Y-32025D02*
X49825Y-32025D01*
X49825Y-32025D02*
X49825Y-32525D01*
X49825Y-32525D02*
X50725Y-32525D01*
X50725Y-32525D02*
X50725Y-32025D01*
X52575Y-32075D02*
X53475Y-32075D01*
X53475Y-32075D02*
X53475Y-32725D01*
X52575Y-33425D02*
X52575Y-34075D01*
X52575Y-34075D02*
X53475Y-34075D01*
X53475Y-34075D02*
X53475Y-33425D01*
X52575Y-32725D02*
X52575Y-32075D01*
X60700Y-38450D02*
X60700Y-37550D01*
X60700Y-37550D02*
X60200Y-37550D01*
X60200Y-37550D02*
X60200Y-38450D01*
X60200Y-38450D02*
X60700Y-38450D01*
X64852Y-33619D02*
X64852Y-32719D01*
X64852Y-32719D02*
X64352Y-32719D01*
X64352Y-32719D02*
X64352Y-33619D01*
X64352Y-33619D02*
X64852Y-33619D01*
X47600Y-33800D02*
X47600Y-34700D01*
X47600Y-34700D02*
X48100Y-34700D01*
X48100Y-34700D02*
X48100Y-33800D01*
X48100Y-33800D02*
X47600Y-33800D01*
M02*
