G04 (created by PCBNEW-RS274X (2011-05-25)-stable) date Thu 12 Mar 2015 10:15:44 GMT*
G01*
G70*
G90*
%MOIN*%
G04 Gerber Fmt 3.4, Leading zero omitted, Abs format*
%FSLAX34Y34*%
G04 APERTURE LIST*
%ADD10C,0.006000*%
%ADD11C,0.004900*%
%ADD12C,0.015000*%
%ADD13C,0.003900*%
%ADD14C,0.004400*%
%ADD15C,0.008000*%
%ADD16C,0.005000*%
%ADD17C,0.002600*%
%ADD18C,0.004000*%
G04 APERTURE END LIST*
G54D10*
G54D11*
X58507Y-32897D02*
X58480Y-32878D01*
X58454Y-32841D01*
X58415Y-32784D01*
X58388Y-32766D01*
X58362Y-32766D01*
X58375Y-32859D02*
X58349Y-32841D01*
X58323Y-32803D01*
X58310Y-32728D01*
X58310Y-32597D01*
X58323Y-32522D01*
X58349Y-32484D01*
X58375Y-32465D01*
X58428Y-32465D01*
X58454Y-32484D01*
X58480Y-32522D01*
X58494Y-32597D01*
X58494Y-32728D01*
X58480Y-32803D01*
X58454Y-32841D01*
X58428Y-32859D01*
X58375Y-32859D01*
X58730Y-32597D02*
X58730Y-32859D01*
X58612Y-32597D02*
X58612Y-32803D01*
X58625Y-32841D01*
X58651Y-32859D01*
X58691Y-32859D01*
X58717Y-32841D01*
X58730Y-32822D01*
X58980Y-32859D02*
X58980Y-32653D01*
X58967Y-32616D01*
X58941Y-32597D01*
X58888Y-32597D01*
X58862Y-32616D01*
X58980Y-32841D02*
X58954Y-32859D01*
X58888Y-32859D01*
X58862Y-32841D01*
X58849Y-32803D01*
X58849Y-32766D01*
X58862Y-32728D01*
X58888Y-32709D01*
X58954Y-32709D01*
X58980Y-32691D01*
X59112Y-32597D02*
X59112Y-32859D01*
X59112Y-32634D02*
X59125Y-32616D01*
X59151Y-32597D01*
X59191Y-32597D01*
X59217Y-32616D01*
X59230Y-32653D01*
X59230Y-32859D01*
X59322Y-32597D02*
X59427Y-32597D01*
X59362Y-32465D02*
X59362Y-32803D01*
X59375Y-32841D01*
X59401Y-32859D01*
X59427Y-32859D01*
X59520Y-32859D02*
X59520Y-32597D01*
X59520Y-32672D02*
X59533Y-32634D01*
X59546Y-32616D01*
X59572Y-32597D01*
X59599Y-32597D01*
X59809Y-32859D02*
X59809Y-32653D01*
X59796Y-32616D01*
X59770Y-32597D01*
X59717Y-32597D01*
X59691Y-32616D01*
X59809Y-32841D02*
X59783Y-32859D01*
X59717Y-32859D01*
X59691Y-32841D01*
X59678Y-32803D01*
X59678Y-32766D01*
X59691Y-32728D01*
X59717Y-32709D01*
X59783Y-32709D01*
X59809Y-32691D01*
X60059Y-32841D02*
X60033Y-32859D01*
X59980Y-32859D01*
X59954Y-32841D01*
X59941Y-32822D01*
X59928Y-32784D01*
X59928Y-32672D01*
X59941Y-32634D01*
X59954Y-32616D01*
X59980Y-32597D01*
X60033Y-32597D01*
X60059Y-32616D01*
X60178Y-32859D02*
X60178Y-32465D01*
X60204Y-32709D02*
X60283Y-32859D01*
X60283Y-32597D02*
X60178Y-32747D01*
X60506Y-32841D02*
X60480Y-32859D01*
X60427Y-32859D01*
X60401Y-32841D01*
X60388Y-32803D01*
X60388Y-32653D01*
X60401Y-32616D01*
X60427Y-32597D01*
X60480Y-32597D01*
X60506Y-32616D01*
X60519Y-32653D01*
X60519Y-32691D01*
X60388Y-32728D01*
X60638Y-32859D02*
X60638Y-32597D01*
X60638Y-32672D02*
X60651Y-32634D01*
X60664Y-32616D01*
X60690Y-32597D01*
X60717Y-32597D01*
X61565Y-34043D02*
X61565Y-34136D01*
X61481Y-34024D02*
X61776Y-34089D01*
X61481Y-34155D01*
X61481Y-34221D02*
X61776Y-34221D01*
X61481Y-34427D02*
X61622Y-34362D01*
X61481Y-34315D02*
X61776Y-34315D01*
X61776Y-34390D01*
X61762Y-34409D01*
X61748Y-34418D01*
X61720Y-34427D01*
X61678Y-34427D01*
X61650Y-34418D01*
X61636Y-34409D01*
X61622Y-34390D01*
X61622Y-34315D01*
X61776Y-34699D02*
X61776Y-34737D01*
X61762Y-34756D01*
X61734Y-34774D01*
X61678Y-34784D01*
X61579Y-34784D01*
X61523Y-34774D01*
X61495Y-34756D01*
X61481Y-34737D01*
X61481Y-34699D01*
X61495Y-34681D01*
X61523Y-34662D01*
X61579Y-34653D01*
X61678Y-34653D01*
X61734Y-34662D01*
X61762Y-34681D01*
X61776Y-34699D01*
X61495Y-34859D02*
X61481Y-34887D01*
X61481Y-34934D01*
X61495Y-34952D01*
X61509Y-34962D01*
X61537Y-34971D01*
X61565Y-34971D01*
X61593Y-34962D01*
X61608Y-34952D01*
X61622Y-34934D01*
X61636Y-34896D01*
X61650Y-34877D01*
X61664Y-34868D01*
X61692Y-34859D01*
X61720Y-34859D01*
X61748Y-34868D01*
X61762Y-34877D01*
X61776Y-34896D01*
X61776Y-34943D01*
X61762Y-34971D01*
X61481Y-35056D02*
X61776Y-35056D01*
X61776Y-35103D01*
X61762Y-35131D01*
X61734Y-35150D01*
X61706Y-35159D01*
X61650Y-35168D01*
X61608Y-35168D01*
X61551Y-35159D01*
X61523Y-35150D01*
X61495Y-35131D01*
X61481Y-35103D01*
X61481Y-35056D01*
X61776Y-35375D02*
X61481Y-35440D01*
X61776Y-35506D01*
X61748Y-35563D02*
X61762Y-35572D01*
X61776Y-35591D01*
X61776Y-35638D01*
X61762Y-35656D01*
X61748Y-35666D01*
X61720Y-35675D01*
X61692Y-35675D01*
X61650Y-35666D01*
X61481Y-35553D01*
X61481Y-35675D01*
X61509Y-35760D02*
X61495Y-35769D01*
X61481Y-35760D01*
X61495Y-35751D01*
X61509Y-35760D01*
X61481Y-35760D01*
X61776Y-35891D02*
X61776Y-35910D01*
X61762Y-35929D01*
X61748Y-35938D01*
X61720Y-35948D01*
X61664Y-35957D01*
X61593Y-35957D01*
X61537Y-35948D01*
X61509Y-35938D01*
X61495Y-35929D01*
X61481Y-35910D01*
X61481Y-35891D01*
X61495Y-35873D01*
X61509Y-35863D01*
X61537Y-35854D01*
X61593Y-35845D01*
X61664Y-35845D01*
X61720Y-35854D01*
X61748Y-35863D01*
X61762Y-35873D01*
X61776Y-35891D01*
X62949Y-32719D02*
X62949Y-32424D01*
X63024Y-32424D01*
X63043Y-32438D01*
X63052Y-32452D01*
X63061Y-32480D01*
X63061Y-32522D01*
X63052Y-32550D01*
X63043Y-32564D01*
X63024Y-32578D01*
X62949Y-32578D01*
X63258Y-32719D02*
X63193Y-32578D01*
X63146Y-32719D02*
X63146Y-32424D01*
X63221Y-32424D01*
X63240Y-32438D01*
X63249Y-32452D01*
X63258Y-32480D01*
X63258Y-32522D01*
X63249Y-32550D01*
X63240Y-32564D01*
X63221Y-32578D01*
X63146Y-32578D01*
X63380Y-32424D02*
X63418Y-32424D01*
X63437Y-32438D01*
X63455Y-32466D01*
X63465Y-32522D01*
X63465Y-32621D01*
X63455Y-32677D01*
X63437Y-32705D01*
X63418Y-32719D01*
X63380Y-32719D01*
X63362Y-32705D01*
X63343Y-32677D01*
X63334Y-32621D01*
X63334Y-32522D01*
X63343Y-32466D01*
X63362Y-32438D01*
X63380Y-32424D01*
X63652Y-32438D02*
X63633Y-32424D01*
X63605Y-32424D01*
X63577Y-32438D01*
X63558Y-32466D01*
X63549Y-32494D01*
X63540Y-32550D01*
X63540Y-32592D01*
X63549Y-32649D01*
X63558Y-32677D01*
X63577Y-32705D01*
X63605Y-32719D01*
X63624Y-32719D01*
X63652Y-32705D01*
X63661Y-32691D01*
X63661Y-32592D01*
X63624Y-32592D01*
G54D12*
X66800Y-37000D02*
X66550Y-37200D01*
X66800Y-37000D02*
X66550Y-36800D01*
X66450Y-37000D02*
X66800Y-37000D01*
X66450Y-35000D02*
X66700Y-35200D01*
X66700Y-34800D02*
X66700Y-34850D01*
X66450Y-35000D02*
X66700Y-34800D01*
X66800Y-35000D02*
X66450Y-35000D01*
X66750Y-34050D02*
X66550Y-34200D01*
X66750Y-34000D02*
X66550Y-33800D01*
X66700Y-34000D02*
X66750Y-34000D01*
X66500Y-34000D02*
X66700Y-34000D01*
X66550Y-33050D02*
X66700Y-33250D01*
X66700Y-32900D02*
X66550Y-33050D01*
X66550Y-33050D02*
X66700Y-32900D01*
X66550Y-33050D02*
X66750Y-33050D01*
G54D11*
X67219Y-33224D02*
X67078Y-33289D01*
X67219Y-33336D02*
X66924Y-33336D01*
X66924Y-33261D01*
X66938Y-33242D01*
X66952Y-33233D01*
X66980Y-33224D01*
X67022Y-33224D01*
X67050Y-33233D01*
X67064Y-33242D01*
X67078Y-33261D01*
X67078Y-33336D01*
X66924Y-33158D02*
X67219Y-33027D01*
X66924Y-33027D02*
X67219Y-33158D01*
X67219Y-32951D02*
X66924Y-32951D01*
X66952Y-32866D02*
X66938Y-32857D01*
X66924Y-32838D01*
X66924Y-32791D01*
X66938Y-32773D01*
X66952Y-32763D01*
X66980Y-32754D01*
X67008Y-32754D01*
X67050Y-32763D01*
X67219Y-32876D01*
X67219Y-32754D01*
X66924Y-34253D02*
X66924Y-34141D01*
X67219Y-34197D02*
X66924Y-34197D01*
X66924Y-34094D02*
X67219Y-33963D01*
X66924Y-33963D02*
X67219Y-34094D01*
X66924Y-33850D02*
X66924Y-33812D01*
X66938Y-33793D01*
X66966Y-33775D01*
X67022Y-33765D01*
X67121Y-33765D01*
X67177Y-33775D01*
X67205Y-33793D01*
X67219Y-33812D01*
X67219Y-33850D01*
X67205Y-33868D01*
X67177Y-33887D01*
X67121Y-33896D01*
X67022Y-33896D01*
X66966Y-33887D01*
X66938Y-33868D01*
X66924Y-33850D01*
X67219Y-35030D02*
X67078Y-35095D01*
X67219Y-35142D02*
X66924Y-35142D01*
X66924Y-35067D01*
X66938Y-35048D01*
X66952Y-35039D01*
X66980Y-35030D01*
X67022Y-35030D01*
X67050Y-35039D01*
X67064Y-35048D01*
X67078Y-35067D01*
X67078Y-35142D01*
X66924Y-34964D02*
X67219Y-34833D01*
X66924Y-34833D02*
X67219Y-34964D01*
X67219Y-34757D02*
X66924Y-34757D01*
X66924Y-37347D02*
X66924Y-37235D01*
X67219Y-37291D02*
X66924Y-37291D01*
X66924Y-37188D02*
X67219Y-37057D01*
X66924Y-37057D02*
X67219Y-37188D01*
X66924Y-36944D02*
X66924Y-36906D01*
X66938Y-36887D01*
X66966Y-36869D01*
X67022Y-36859D01*
X67121Y-36859D01*
X67177Y-36869D01*
X67205Y-36887D01*
X67219Y-36906D01*
X67219Y-36944D01*
X67205Y-36962D01*
X67177Y-36981D01*
X67121Y-36990D01*
X67022Y-36990D01*
X66966Y-36981D01*
X66938Y-36962D01*
X66924Y-36944D01*
X66952Y-36784D02*
X66938Y-36775D01*
X66924Y-36756D01*
X66924Y-36709D01*
X66938Y-36691D01*
X66952Y-36681D01*
X66980Y-36672D01*
X67008Y-36672D01*
X67050Y-36681D01*
X67219Y-36794D01*
X67219Y-36672D01*
X66474Y-36137D02*
X66769Y-36072D01*
X66474Y-36006D01*
X66657Y-35940D02*
X66657Y-35790D01*
X66769Y-35865D02*
X66544Y-35865D01*
X66936Y-36297D02*
X66936Y-36175D01*
X67048Y-36241D01*
X67048Y-36212D01*
X67062Y-36194D01*
X67076Y-36184D01*
X67104Y-36175D01*
X67175Y-36175D01*
X67203Y-36184D01*
X67217Y-36194D01*
X67231Y-36212D01*
X67231Y-36269D01*
X67217Y-36287D01*
X67203Y-36297D01*
X66922Y-35949D02*
X67301Y-36118D01*
X66936Y-35790D02*
X66936Y-35884D01*
X67076Y-35893D01*
X67062Y-35884D01*
X67048Y-35865D01*
X67048Y-35818D01*
X67062Y-35800D01*
X67076Y-35790D01*
X67104Y-35781D01*
X67175Y-35781D01*
X67203Y-35790D01*
X67217Y-35800D01*
X67231Y-35818D01*
X67231Y-35865D01*
X67217Y-35884D01*
X67203Y-35893D01*
X66936Y-35724D02*
X67231Y-35659D01*
X66936Y-35593D01*
X66524Y-38187D02*
X66819Y-38122D01*
X66524Y-38056D01*
X66707Y-37990D02*
X66707Y-37840D01*
X67126Y-38163D02*
X67140Y-38135D01*
X67154Y-38126D01*
X67183Y-38117D01*
X67225Y-38117D01*
X67253Y-38126D01*
X67267Y-38135D01*
X67281Y-38154D01*
X67281Y-38229D01*
X66986Y-38229D01*
X66986Y-38163D01*
X67000Y-38145D01*
X67014Y-38135D01*
X67042Y-38126D01*
X67070Y-38126D01*
X67098Y-38135D01*
X67112Y-38145D01*
X67126Y-38163D01*
X67126Y-38229D01*
X67281Y-37938D02*
X67281Y-38032D01*
X66986Y-38032D01*
X67281Y-37873D02*
X66986Y-37873D01*
X67281Y-37761D02*
X67112Y-37845D01*
X66986Y-37761D02*
X67154Y-37873D01*
G54D12*
X63500Y-33850D02*
X63500Y-37450D01*
X65000Y-32350D02*
X67500Y-32350D01*
X64750Y-38750D02*
X63550Y-37450D01*
X67400Y-38750D02*
X64750Y-38750D01*
G54D11*
X65850Y-39163D02*
X65831Y-39149D01*
X65803Y-39149D01*
X65775Y-39163D01*
X65756Y-39191D01*
X65747Y-39219D01*
X65738Y-39275D01*
X65738Y-39317D01*
X65747Y-39374D01*
X65756Y-39402D01*
X65775Y-39430D01*
X65803Y-39444D01*
X65822Y-39444D01*
X65850Y-39430D01*
X65859Y-39416D01*
X65859Y-39317D01*
X65822Y-39317D01*
X65944Y-39444D02*
X65944Y-39149D01*
X66056Y-39444D01*
X66056Y-39149D01*
X66150Y-39444D02*
X66150Y-39149D01*
X66197Y-39149D01*
X66225Y-39163D01*
X66244Y-39191D01*
X66253Y-39219D01*
X66262Y-39275D01*
X66262Y-39317D01*
X66253Y-39374D01*
X66244Y-39402D01*
X66225Y-39430D01*
X66197Y-39444D01*
X66150Y-39444D01*
X64770Y-39444D02*
X64770Y-39149D01*
X64845Y-39149D01*
X64864Y-39163D01*
X64873Y-39177D01*
X64882Y-39205D01*
X64882Y-39247D01*
X64873Y-39275D01*
X64864Y-39289D01*
X64845Y-39303D01*
X64770Y-39303D01*
X64958Y-39360D02*
X65051Y-39360D01*
X64939Y-39444D02*
X65004Y-39149D01*
X65070Y-39444D01*
X65164Y-39275D02*
X65145Y-39261D01*
X65136Y-39247D01*
X65127Y-39219D01*
X65127Y-39205D01*
X65136Y-39177D01*
X65145Y-39163D01*
X65164Y-39149D01*
X65202Y-39149D01*
X65220Y-39163D01*
X65230Y-39177D01*
X65239Y-39205D01*
X65239Y-39219D01*
X65230Y-39247D01*
X65220Y-39261D01*
X65202Y-39275D01*
X65164Y-39275D01*
X65145Y-39289D01*
X65136Y-39303D01*
X65127Y-39332D01*
X65127Y-39388D01*
X65136Y-39416D01*
X65145Y-39430D01*
X65164Y-39444D01*
X65202Y-39444D01*
X65220Y-39430D01*
X65230Y-39416D01*
X65239Y-39388D01*
X65239Y-39332D01*
X65230Y-39303D01*
X65220Y-39289D01*
X65202Y-39275D01*
X64119Y-39394D02*
X63824Y-39394D01*
X63824Y-39319D01*
X63838Y-39300D01*
X63852Y-39291D01*
X63880Y-39282D01*
X63922Y-39282D01*
X63950Y-39291D01*
X63964Y-39300D01*
X63978Y-39319D01*
X63978Y-39394D01*
X64091Y-39085D02*
X64105Y-39094D01*
X64119Y-39122D01*
X64119Y-39141D01*
X64105Y-39169D01*
X64077Y-39188D01*
X64049Y-39197D01*
X63992Y-39206D01*
X63950Y-39206D01*
X63894Y-39197D01*
X63866Y-39188D01*
X63838Y-39169D01*
X63824Y-39141D01*
X63824Y-39122D01*
X63838Y-39094D01*
X63852Y-39085D01*
X64119Y-38991D02*
X64119Y-38953D01*
X64105Y-38934D01*
X64091Y-38925D01*
X64049Y-38906D01*
X63992Y-38897D01*
X63880Y-38897D01*
X63852Y-38906D01*
X63838Y-38916D01*
X63824Y-38934D01*
X63824Y-38972D01*
X63838Y-38991D01*
X63852Y-39000D01*
X63880Y-39009D01*
X63950Y-39009D01*
X63978Y-39000D01*
X63992Y-38991D01*
X64007Y-38972D01*
X64007Y-38934D01*
X63992Y-38916D01*
X63978Y-38906D01*
X63950Y-38897D01*
X63119Y-39394D02*
X62824Y-39394D01*
X62824Y-39319D01*
X62838Y-39300D01*
X62852Y-39291D01*
X62880Y-39282D01*
X62922Y-39282D01*
X62950Y-39291D01*
X62964Y-39300D01*
X62978Y-39319D01*
X62978Y-39394D01*
X63091Y-39085D02*
X63105Y-39094D01*
X63119Y-39122D01*
X63119Y-39141D01*
X63105Y-39169D01*
X63077Y-39188D01*
X63049Y-39197D01*
X62992Y-39206D01*
X62950Y-39206D01*
X62894Y-39197D01*
X62866Y-39188D01*
X62838Y-39169D01*
X62824Y-39141D01*
X62824Y-39122D01*
X62838Y-39094D01*
X62852Y-39085D01*
X62824Y-38906D02*
X62824Y-39000D01*
X62964Y-39009D01*
X62950Y-39000D01*
X62936Y-38981D01*
X62936Y-38934D01*
X62950Y-38916D01*
X62964Y-38906D01*
X62992Y-38897D01*
X63063Y-38897D01*
X63091Y-38906D01*
X63105Y-38916D01*
X63119Y-38934D01*
X63119Y-38981D01*
X63105Y-39000D01*
X63091Y-39009D01*
X62144Y-39419D02*
X61849Y-39419D01*
X61849Y-39344D01*
X61863Y-39325D01*
X61877Y-39316D01*
X61905Y-39307D01*
X61947Y-39307D01*
X61975Y-39316D01*
X61989Y-39325D01*
X62003Y-39344D01*
X62003Y-39419D01*
X62116Y-39110D02*
X62130Y-39119D01*
X62144Y-39147D01*
X62144Y-39166D01*
X62130Y-39194D01*
X62102Y-39213D01*
X62074Y-39222D01*
X62017Y-39231D01*
X61975Y-39231D01*
X61919Y-39222D01*
X61891Y-39213D01*
X61863Y-39194D01*
X61849Y-39166D01*
X61849Y-39147D01*
X61863Y-39119D01*
X61877Y-39110D01*
X61947Y-38941D02*
X62144Y-38941D01*
X61835Y-38988D02*
X62046Y-39034D01*
X62046Y-38913D01*
X61144Y-39444D02*
X60849Y-39444D01*
X60849Y-39369D01*
X60863Y-39350D01*
X60877Y-39341D01*
X60905Y-39332D01*
X60947Y-39332D01*
X60975Y-39341D01*
X60989Y-39350D01*
X61003Y-39369D01*
X61003Y-39444D01*
X61116Y-39135D02*
X61130Y-39144D01*
X61144Y-39172D01*
X61144Y-39191D01*
X61130Y-39219D01*
X61102Y-39238D01*
X61074Y-39247D01*
X61017Y-39256D01*
X60975Y-39256D01*
X60919Y-39247D01*
X60891Y-39238D01*
X60863Y-39219D01*
X60849Y-39191D01*
X60849Y-39172D01*
X60863Y-39144D01*
X60877Y-39135D01*
X60849Y-39069D02*
X60849Y-38947D01*
X60961Y-39013D01*
X60961Y-38984D01*
X60975Y-38966D01*
X60989Y-38956D01*
X61017Y-38947D01*
X61088Y-38947D01*
X61116Y-38956D01*
X61130Y-38966D01*
X61144Y-38984D01*
X61144Y-39041D01*
X61130Y-39059D01*
X61116Y-39069D01*
X60094Y-39455D02*
X59799Y-39455D01*
X59799Y-39380D01*
X59813Y-39361D01*
X59827Y-39352D01*
X59855Y-39343D01*
X59897Y-39343D01*
X59925Y-39352D01*
X59939Y-39361D01*
X59953Y-39380D01*
X59953Y-39455D01*
X60010Y-39267D02*
X60010Y-39174D01*
X60094Y-39286D02*
X59799Y-39221D01*
X60094Y-39155D01*
X59799Y-39052D02*
X59799Y-39033D01*
X59813Y-39014D01*
X59827Y-39005D01*
X59855Y-38995D01*
X59911Y-38986D01*
X59982Y-38986D01*
X60038Y-38995D01*
X60066Y-39005D01*
X60080Y-39014D01*
X60094Y-39033D01*
X60094Y-39052D01*
X60080Y-39070D01*
X60066Y-39080D01*
X60038Y-39089D01*
X59982Y-39098D01*
X59911Y-39098D01*
X59855Y-39089D01*
X59827Y-39080D01*
X59813Y-39070D01*
X59799Y-39052D01*
X59219Y-39455D02*
X58924Y-39455D01*
X58924Y-39380D01*
X58938Y-39361D01*
X58952Y-39352D01*
X58980Y-39343D01*
X59022Y-39343D01*
X59050Y-39352D01*
X59064Y-39361D01*
X59078Y-39380D01*
X59078Y-39455D01*
X59135Y-39267D02*
X59135Y-39174D01*
X59219Y-39286D02*
X58924Y-39221D01*
X59219Y-39155D01*
X59219Y-38986D02*
X59219Y-39098D01*
X59219Y-39042D02*
X58924Y-39042D01*
X58966Y-39061D01*
X58994Y-39080D01*
X59008Y-39098D01*
X58119Y-39469D02*
X57824Y-39469D01*
X57824Y-39394D01*
X57838Y-39375D01*
X57852Y-39366D01*
X57880Y-39357D01*
X57922Y-39357D01*
X57950Y-39366D01*
X57964Y-39375D01*
X57978Y-39394D01*
X57978Y-39469D01*
X58091Y-39160D02*
X58105Y-39169D01*
X58119Y-39197D01*
X58119Y-39216D01*
X58105Y-39244D01*
X58077Y-39263D01*
X58049Y-39272D01*
X57992Y-39281D01*
X57950Y-39281D01*
X57894Y-39272D01*
X57866Y-39263D01*
X57838Y-39244D01*
X57824Y-39216D01*
X57824Y-39197D01*
X57838Y-39169D01*
X57852Y-39160D01*
X58119Y-38972D02*
X58119Y-39084D01*
X58119Y-39028D02*
X57824Y-39028D01*
X57866Y-39047D01*
X57894Y-39066D01*
X57908Y-39084D01*
X57219Y-39444D02*
X56924Y-39444D01*
X56924Y-39369D01*
X56938Y-39350D01*
X56952Y-39341D01*
X56980Y-39332D01*
X57022Y-39332D01*
X57050Y-39341D01*
X57064Y-39350D01*
X57078Y-39369D01*
X57078Y-39444D01*
X57191Y-39135D02*
X57205Y-39144D01*
X57219Y-39172D01*
X57219Y-39191D01*
X57205Y-39219D01*
X57177Y-39238D01*
X57149Y-39247D01*
X57092Y-39256D01*
X57050Y-39256D01*
X56994Y-39247D01*
X56966Y-39238D01*
X56938Y-39219D01*
X56924Y-39191D01*
X56924Y-39172D01*
X56938Y-39144D01*
X56952Y-39135D01*
X56924Y-39013D02*
X56924Y-38994D01*
X56938Y-38975D01*
X56952Y-38966D01*
X56980Y-38956D01*
X57036Y-38947D01*
X57107Y-38947D01*
X57163Y-38956D01*
X57191Y-38966D01*
X57205Y-38975D01*
X57219Y-38994D01*
X57219Y-39013D01*
X57205Y-39031D01*
X57191Y-39041D01*
X57163Y-39050D01*
X57107Y-39059D01*
X57036Y-39059D01*
X56980Y-39050D01*
X56952Y-39041D01*
X56938Y-39031D01*
X56924Y-39013D01*
X55825Y-39138D02*
X55806Y-39124D01*
X55778Y-39124D01*
X55750Y-39138D01*
X55731Y-39166D01*
X55722Y-39194D01*
X55713Y-39250D01*
X55713Y-39292D01*
X55722Y-39349D01*
X55731Y-39377D01*
X55750Y-39405D01*
X55778Y-39419D01*
X55797Y-39419D01*
X55825Y-39405D01*
X55834Y-39391D01*
X55834Y-39292D01*
X55797Y-39292D01*
X55919Y-39419D02*
X55919Y-39124D01*
X56031Y-39419D01*
X56031Y-39124D01*
X56125Y-39419D02*
X56125Y-39124D01*
X56172Y-39124D01*
X56200Y-39138D01*
X56219Y-39166D01*
X56228Y-39194D01*
X56237Y-39250D01*
X56237Y-39292D01*
X56228Y-39349D01*
X56219Y-39377D01*
X56200Y-39405D01*
X56172Y-39419D01*
X56125Y-39419D01*
X54825Y-39163D02*
X54806Y-39149D01*
X54778Y-39149D01*
X54750Y-39163D01*
X54731Y-39191D01*
X54722Y-39219D01*
X54713Y-39275D01*
X54713Y-39317D01*
X54722Y-39374D01*
X54731Y-39402D01*
X54750Y-39430D01*
X54778Y-39444D01*
X54797Y-39444D01*
X54825Y-39430D01*
X54834Y-39416D01*
X54834Y-39317D01*
X54797Y-39317D01*
X54919Y-39444D02*
X54919Y-39149D01*
X55031Y-39444D01*
X55031Y-39149D01*
X55125Y-39444D02*
X55125Y-39149D01*
X55172Y-39149D01*
X55200Y-39163D01*
X55219Y-39191D01*
X55228Y-39219D01*
X55237Y-39275D01*
X55237Y-39317D01*
X55228Y-39374D01*
X55219Y-39402D01*
X55200Y-39430D01*
X55172Y-39444D01*
X55125Y-39444D01*
X53612Y-39469D02*
X53612Y-39174D01*
X53687Y-39174D01*
X53706Y-39188D01*
X53715Y-39202D01*
X53724Y-39230D01*
X53724Y-39272D01*
X53715Y-39300D01*
X53706Y-39314D01*
X53687Y-39328D01*
X53612Y-39328D01*
X53921Y-39441D02*
X53912Y-39455D01*
X53884Y-39469D01*
X53865Y-39469D01*
X53837Y-39455D01*
X53818Y-39427D01*
X53809Y-39399D01*
X53800Y-39342D01*
X53800Y-39300D01*
X53809Y-39244D01*
X53818Y-39216D01*
X53837Y-39188D01*
X53865Y-39174D01*
X53884Y-39174D01*
X53912Y-39188D01*
X53921Y-39202D01*
X54109Y-39469D02*
X53997Y-39469D01*
X54053Y-39469D02*
X54053Y-39174D01*
X54034Y-39216D01*
X54015Y-39244D01*
X53997Y-39258D01*
X54288Y-39174D02*
X54194Y-39174D01*
X54185Y-39314D01*
X54194Y-39300D01*
X54213Y-39286D01*
X54260Y-39286D01*
X54278Y-39300D01*
X54288Y-39314D01*
X54297Y-39342D01*
X54297Y-39413D01*
X54288Y-39441D01*
X54278Y-39455D01*
X54260Y-39469D01*
X54213Y-39469D01*
X54194Y-39455D01*
X54185Y-39441D01*
X52681Y-39469D02*
X52681Y-39174D01*
X52756Y-39174D01*
X52775Y-39188D01*
X52784Y-39202D01*
X52793Y-39230D01*
X52793Y-39272D01*
X52784Y-39300D01*
X52775Y-39314D01*
X52756Y-39328D01*
X52681Y-39328D01*
X52990Y-39441D02*
X52981Y-39455D01*
X52953Y-39469D01*
X52934Y-39469D01*
X52906Y-39455D01*
X52887Y-39427D01*
X52878Y-39399D01*
X52869Y-39342D01*
X52869Y-39300D01*
X52878Y-39244D01*
X52887Y-39216D01*
X52906Y-39188D01*
X52934Y-39174D01*
X52953Y-39174D01*
X52981Y-39188D01*
X52990Y-39202D01*
X53159Y-39272D02*
X53159Y-39469D01*
X53112Y-39160D02*
X53066Y-39371D01*
X53187Y-39371D01*
X50619Y-39382D02*
X50769Y-39382D01*
X50694Y-39494D02*
X50694Y-39269D01*
X50957Y-39199D02*
X50863Y-39199D01*
X50854Y-39339D01*
X50863Y-39325D01*
X50882Y-39311D01*
X50929Y-39311D01*
X50947Y-39325D01*
X50957Y-39339D01*
X50966Y-39367D01*
X50966Y-39438D01*
X50957Y-39466D01*
X50947Y-39480D01*
X50929Y-39494D01*
X50882Y-39494D01*
X50863Y-39480D01*
X50854Y-39466D01*
X51023Y-39199D02*
X51088Y-39494D01*
X51154Y-39199D01*
X51257Y-39199D02*
X51295Y-39199D01*
X51314Y-39213D01*
X51332Y-39241D01*
X51342Y-39297D01*
X51342Y-39396D01*
X51332Y-39452D01*
X51314Y-39480D01*
X51295Y-39494D01*
X51257Y-39494D01*
X51239Y-39480D01*
X51220Y-39452D01*
X51211Y-39396D01*
X51211Y-39297D01*
X51220Y-39241D01*
X51239Y-39213D01*
X51257Y-39199D01*
X49875Y-39188D02*
X49856Y-39174D01*
X49828Y-39174D01*
X49800Y-39188D01*
X49781Y-39216D01*
X49772Y-39244D01*
X49763Y-39300D01*
X49763Y-39342D01*
X49772Y-39399D01*
X49781Y-39427D01*
X49800Y-39455D01*
X49828Y-39469D01*
X49847Y-39469D01*
X49875Y-39455D01*
X49884Y-39441D01*
X49884Y-39342D01*
X49847Y-39342D01*
X49969Y-39469D02*
X49969Y-39174D01*
X50081Y-39469D01*
X50081Y-39174D01*
X50175Y-39469D02*
X50175Y-39174D01*
X50222Y-39174D01*
X50250Y-39188D01*
X50269Y-39216D01*
X50278Y-39244D01*
X50287Y-39300D01*
X50287Y-39342D01*
X50278Y-39399D01*
X50269Y-39427D01*
X50250Y-39455D01*
X50222Y-39469D01*
X50175Y-39469D01*
X47838Y-39375D02*
X47824Y-39394D01*
X47824Y-39422D01*
X47838Y-39450D01*
X47866Y-39469D01*
X47894Y-39478D01*
X47950Y-39487D01*
X47992Y-39487D01*
X48049Y-39478D01*
X48077Y-39469D01*
X48105Y-39450D01*
X48119Y-39422D01*
X48119Y-39403D01*
X48105Y-39375D01*
X48091Y-39366D01*
X47992Y-39366D01*
X47992Y-39403D01*
X48119Y-39281D02*
X47824Y-39281D01*
X48119Y-39169D01*
X47824Y-39169D01*
X48119Y-39075D02*
X47824Y-39075D01*
X47824Y-39028D01*
X47838Y-39000D01*
X47866Y-38981D01*
X47894Y-38972D01*
X47950Y-38963D01*
X47992Y-38963D01*
X48049Y-38972D01*
X48077Y-38981D01*
X48105Y-39000D01*
X48119Y-39028D01*
X48119Y-39075D01*
X48408Y-39199D02*
X48473Y-39494D01*
X48539Y-39199D01*
X48605Y-39494D02*
X48605Y-39199D01*
X48699Y-39494D02*
X48699Y-39199D01*
X48746Y-39199D01*
X48774Y-39213D01*
X48793Y-39241D01*
X48802Y-39269D01*
X48811Y-39325D01*
X48811Y-39367D01*
X48802Y-39424D01*
X48793Y-39452D01*
X48774Y-39480D01*
X48746Y-39494D01*
X48699Y-39494D01*
X48933Y-39199D02*
X48971Y-39199D01*
X48990Y-39213D01*
X49008Y-39241D01*
X49018Y-39297D01*
X49018Y-39396D01*
X49008Y-39452D01*
X48990Y-39480D01*
X48971Y-39494D01*
X48933Y-39494D01*
X48915Y-39480D01*
X48896Y-39452D01*
X48887Y-39396D01*
X48887Y-39297D01*
X48896Y-39241D01*
X48915Y-39213D01*
X48933Y-39199D01*
X49102Y-39382D02*
X49252Y-39382D01*
X49177Y-39494D02*
X49177Y-39269D01*
X49318Y-39199D02*
X49383Y-39494D01*
X49449Y-39199D01*
X49515Y-39494D02*
X49515Y-39199D01*
X46086Y-39124D02*
X46151Y-39419D01*
X46217Y-39124D01*
X46283Y-39419D02*
X46283Y-39124D01*
X46377Y-39419D02*
X46377Y-39124D01*
X46424Y-39124D01*
X46452Y-39138D01*
X46471Y-39166D01*
X46480Y-39194D01*
X46489Y-39250D01*
X46489Y-39292D01*
X46480Y-39349D01*
X46471Y-39377D01*
X46452Y-39405D01*
X46424Y-39419D01*
X46377Y-39419D01*
X46574Y-39419D02*
X46574Y-39124D01*
X46668Y-39419D02*
X46668Y-39124D01*
X46780Y-39419D01*
X46780Y-39124D01*
X46874Y-39307D02*
X47024Y-39307D01*
X46949Y-39419D02*
X46949Y-39194D01*
X47090Y-39124D02*
X47155Y-39419D01*
X47221Y-39124D01*
X47287Y-39419D02*
X47287Y-39124D01*
G54D12*
X47675Y-38650D02*
X47575Y-38650D01*
G54D11*
X46326Y-36427D02*
X46031Y-36492D01*
X46326Y-36558D01*
X46031Y-36624D02*
X46326Y-36624D01*
X46031Y-36718D02*
X46326Y-36718D01*
X46326Y-36765D01*
X46312Y-36793D01*
X46284Y-36812D01*
X46256Y-36821D01*
X46200Y-36830D01*
X46158Y-36830D01*
X46101Y-36821D01*
X46073Y-36812D01*
X46045Y-36793D01*
X46031Y-36765D01*
X46031Y-36718D01*
X46326Y-36952D02*
X46326Y-36990D01*
X46312Y-37009D01*
X46284Y-37027D01*
X46228Y-37037D01*
X46129Y-37037D01*
X46073Y-37027D01*
X46045Y-37009D01*
X46031Y-36990D01*
X46031Y-36952D01*
X46045Y-36934D01*
X46073Y-36915D01*
X46129Y-36906D01*
X46228Y-36906D01*
X46284Y-36915D01*
X46312Y-36934D01*
X46326Y-36952D01*
X46143Y-37121D02*
X46143Y-37271D01*
X46031Y-37196D02*
X46256Y-37196D01*
X46326Y-37337D02*
X46031Y-37402D01*
X46326Y-37468D01*
X46326Y-37571D02*
X46326Y-37609D01*
X46312Y-37628D01*
X46284Y-37646D01*
X46228Y-37656D01*
X46129Y-37656D01*
X46073Y-37646D01*
X46045Y-37628D01*
X46031Y-37609D01*
X46031Y-37571D01*
X46045Y-37553D01*
X46073Y-37534D01*
X46129Y-37525D01*
X46228Y-37525D01*
X46284Y-37534D01*
X46312Y-37553D01*
X46326Y-37571D01*
X48499Y-37692D02*
X48794Y-37627D01*
X48499Y-37561D01*
X48794Y-37495D02*
X48499Y-37495D01*
X48794Y-37401D02*
X48499Y-37401D01*
X48499Y-37354D01*
X48513Y-37326D01*
X48541Y-37307D01*
X48569Y-37298D01*
X48625Y-37289D01*
X48667Y-37289D01*
X48724Y-37298D01*
X48752Y-37307D01*
X48780Y-37326D01*
X48794Y-37354D01*
X48794Y-37401D01*
X48794Y-37204D02*
X48499Y-37204D01*
X48682Y-37110D02*
X48682Y-36960D01*
X48794Y-37035D02*
X48569Y-37035D01*
X48499Y-36894D02*
X48794Y-36829D01*
X48499Y-36763D01*
X48499Y-36660D02*
X48499Y-36622D01*
X48513Y-36603D01*
X48541Y-36585D01*
X48597Y-36575D01*
X48696Y-36575D01*
X48752Y-36585D01*
X48780Y-36603D01*
X48794Y-36622D01*
X48794Y-36660D01*
X48780Y-36678D01*
X48752Y-36697D01*
X48696Y-36706D01*
X48597Y-36706D01*
X48541Y-36697D01*
X48513Y-36678D01*
X48499Y-36660D01*
X48400Y-38288D02*
X48381Y-38274D01*
X48353Y-38274D01*
X48325Y-38288D01*
X48306Y-38316D01*
X48297Y-38344D01*
X48288Y-38400D01*
X48288Y-38442D01*
X48297Y-38499D01*
X48306Y-38527D01*
X48325Y-38555D01*
X48353Y-38569D01*
X48372Y-38569D01*
X48400Y-38555D01*
X48409Y-38541D01*
X48409Y-38442D01*
X48372Y-38442D01*
X48494Y-38569D02*
X48494Y-38274D01*
X48606Y-38569D01*
X48606Y-38274D01*
X48700Y-38569D02*
X48700Y-38274D01*
X48747Y-38274D01*
X48775Y-38288D01*
X48794Y-38316D01*
X48803Y-38344D01*
X48812Y-38400D01*
X48812Y-38442D01*
X48803Y-38499D01*
X48794Y-38527D01*
X48775Y-38555D01*
X48747Y-38569D01*
X48700Y-38569D01*
X46100Y-38288D02*
X46081Y-38274D01*
X46053Y-38274D01*
X46025Y-38288D01*
X46006Y-38316D01*
X45997Y-38344D01*
X45988Y-38400D01*
X45988Y-38442D01*
X45997Y-38499D01*
X46006Y-38527D01*
X46025Y-38555D01*
X46053Y-38569D01*
X46072Y-38569D01*
X46100Y-38555D01*
X46109Y-38541D01*
X46109Y-38442D01*
X46072Y-38442D01*
X46194Y-38569D02*
X46194Y-38274D01*
X46306Y-38569D01*
X46306Y-38274D01*
X46400Y-38569D02*
X46400Y-38274D01*
X46447Y-38274D01*
X46475Y-38288D01*
X46494Y-38316D01*
X46503Y-38344D01*
X46512Y-38400D01*
X46512Y-38442D01*
X46503Y-38499D01*
X46494Y-38527D01*
X46475Y-38555D01*
X46447Y-38569D01*
X46400Y-38569D01*
G54D12*
X47375Y-35600D02*
X47550Y-35600D01*
X47375Y-35600D02*
X47375Y-35425D01*
X47525Y-35425D02*
X47375Y-35600D01*
G54D11*
X45786Y-35724D02*
X45851Y-36019D01*
X45917Y-35724D01*
X45983Y-36019D02*
X45983Y-35724D01*
X46077Y-36019D02*
X46077Y-35724D01*
X46124Y-35724D01*
X46152Y-35738D01*
X46171Y-35766D01*
X46180Y-35794D01*
X46189Y-35850D01*
X46189Y-35892D01*
X46180Y-35949D01*
X46171Y-35977D01*
X46152Y-36005D01*
X46124Y-36019D01*
X46077Y-36019D01*
X46311Y-35724D02*
X46349Y-35724D01*
X46368Y-35738D01*
X46386Y-35766D01*
X46396Y-35822D01*
X46396Y-35921D01*
X46386Y-35977D01*
X46368Y-36005D01*
X46349Y-36019D01*
X46311Y-36019D01*
X46293Y-36005D01*
X46274Y-35977D01*
X46265Y-35921D01*
X46265Y-35822D01*
X46274Y-35766D01*
X46293Y-35738D01*
X46311Y-35724D01*
X48499Y-36208D02*
X48794Y-36143D01*
X48499Y-36077D01*
X48794Y-36011D02*
X48499Y-36011D01*
X48794Y-35917D02*
X48499Y-35917D01*
X48499Y-35870D01*
X48513Y-35842D01*
X48541Y-35823D01*
X48569Y-35814D01*
X48625Y-35805D01*
X48667Y-35805D01*
X48724Y-35814D01*
X48752Y-35823D01*
X48780Y-35842D01*
X48794Y-35870D01*
X48794Y-35917D01*
X48794Y-35720D02*
X48499Y-35720D01*
X45758Y-35035D02*
X45851Y-35035D01*
X45739Y-35119D02*
X45804Y-34824D01*
X45870Y-35119D01*
X45936Y-34824D02*
X45936Y-35063D01*
X45945Y-35091D01*
X45955Y-35105D01*
X45973Y-35119D01*
X46011Y-35119D01*
X46030Y-35105D01*
X46039Y-35091D01*
X46048Y-35063D01*
X46048Y-34824D01*
X46142Y-35119D02*
X46142Y-34824D01*
X46189Y-34824D01*
X46217Y-34838D01*
X46236Y-34866D01*
X46245Y-34894D01*
X46254Y-34950D01*
X46254Y-34992D01*
X46245Y-35049D01*
X46236Y-35077D01*
X46217Y-35105D01*
X46189Y-35119D01*
X46142Y-35119D01*
X46330Y-34852D02*
X46339Y-34838D01*
X46358Y-34824D01*
X46405Y-34824D01*
X46423Y-34838D01*
X46433Y-34852D01*
X46442Y-34880D01*
X46442Y-34908D01*
X46433Y-34950D01*
X46320Y-35119D01*
X46442Y-35119D01*
X45758Y-34085D02*
X45851Y-34085D01*
X45739Y-34169D02*
X45804Y-33874D01*
X45870Y-34169D01*
X45936Y-33874D02*
X45936Y-34113D01*
X45945Y-34141D01*
X45955Y-34155D01*
X45973Y-34169D01*
X46011Y-34169D01*
X46030Y-34155D01*
X46039Y-34141D01*
X46048Y-34113D01*
X46048Y-33874D01*
X46142Y-34169D02*
X46142Y-33874D01*
X46189Y-33874D01*
X46217Y-33888D01*
X46236Y-33916D01*
X46245Y-33944D01*
X46254Y-34000D01*
X46254Y-34042D01*
X46245Y-34099D01*
X46236Y-34127D01*
X46217Y-34155D01*
X46189Y-34169D01*
X46142Y-34169D01*
X46442Y-34169D02*
X46330Y-34169D01*
X46386Y-34169D02*
X46386Y-33874D01*
X46367Y-33916D01*
X46348Y-33944D01*
X46330Y-33958D01*
X51731Y-39469D02*
X51731Y-39174D01*
X51806Y-39174D01*
X51825Y-39188D01*
X51834Y-39202D01*
X51843Y-39230D01*
X51843Y-39272D01*
X51834Y-39300D01*
X51825Y-39314D01*
X51806Y-39328D01*
X51731Y-39328D01*
X51994Y-39314D02*
X52022Y-39328D01*
X52031Y-39342D01*
X52040Y-39371D01*
X52040Y-39413D01*
X52031Y-39441D01*
X52022Y-39455D01*
X52003Y-39469D01*
X51928Y-39469D01*
X51928Y-39174D01*
X51994Y-39174D01*
X52012Y-39188D01*
X52022Y-39202D01*
X52031Y-39230D01*
X52031Y-39258D01*
X52022Y-39286D01*
X52012Y-39300D01*
X51994Y-39314D01*
X51928Y-39314D01*
X52228Y-39469D02*
X52116Y-39469D01*
X52172Y-39469D02*
X52172Y-39174D01*
X52153Y-39216D01*
X52134Y-39244D01*
X52116Y-39258D01*
X49250Y-31438D02*
X49231Y-31424D01*
X49203Y-31424D01*
X49175Y-31438D01*
X49156Y-31466D01*
X49147Y-31494D01*
X49138Y-31550D01*
X49138Y-31592D01*
X49147Y-31649D01*
X49156Y-31677D01*
X49175Y-31705D01*
X49203Y-31719D01*
X49222Y-31719D01*
X49250Y-31705D01*
X49259Y-31691D01*
X49259Y-31592D01*
X49222Y-31592D01*
X49344Y-31719D02*
X49344Y-31424D01*
X49456Y-31719D01*
X49456Y-31424D01*
X49550Y-31719D02*
X49550Y-31424D01*
X49597Y-31424D01*
X49625Y-31438D01*
X49644Y-31466D01*
X49653Y-31494D01*
X49662Y-31550D01*
X49662Y-31592D01*
X49653Y-31649D01*
X49644Y-31677D01*
X49625Y-31705D01*
X49597Y-31719D01*
X49550Y-31719D01*
X65888Y-32000D02*
X65874Y-32019D01*
X65874Y-32047D01*
X65888Y-32075D01*
X65916Y-32094D01*
X65944Y-32103D01*
X66000Y-32112D01*
X66042Y-32112D01*
X66099Y-32103D01*
X66127Y-32094D01*
X66155Y-32075D01*
X66169Y-32047D01*
X66169Y-32028D01*
X66155Y-32000D01*
X66141Y-31991D01*
X66042Y-31991D01*
X66042Y-32028D01*
X66169Y-31906D02*
X65874Y-31906D01*
X66169Y-31794D01*
X65874Y-31794D01*
X66169Y-31700D02*
X65874Y-31700D01*
X65874Y-31653D01*
X65888Y-31625D01*
X65916Y-31606D01*
X65944Y-31597D01*
X66000Y-31588D01*
X66042Y-31588D01*
X66099Y-31597D01*
X66127Y-31606D01*
X66155Y-31625D01*
X66169Y-31653D01*
X66169Y-31700D01*
X65219Y-32148D02*
X64924Y-32148D01*
X65219Y-32036D01*
X64924Y-32036D01*
X65219Y-31830D02*
X65078Y-31895D01*
X65219Y-31942D02*
X64924Y-31942D01*
X64924Y-31867D01*
X64938Y-31848D01*
X64952Y-31839D01*
X64980Y-31830D01*
X65022Y-31830D01*
X65050Y-31839D01*
X65064Y-31848D01*
X65078Y-31867D01*
X65078Y-31942D01*
X65205Y-31754D02*
X65219Y-31726D01*
X65219Y-31679D01*
X65205Y-31661D01*
X65191Y-31651D01*
X65163Y-31642D01*
X65135Y-31642D01*
X65107Y-31651D01*
X65092Y-31661D01*
X65078Y-31679D01*
X65064Y-31717D01*
X65050Y-31736D01*
X65036Y-31745D01*
X65008Y-31754D01*
X64980Y-31754D01*
X64952Y-31745D01*
X64938Y-31736D01*
X64924Y-31717D01*
X64924Y-31670D01*
X64938Y-31642D01*
X64924Y-31585D02*
X64924Y-31473D01*
X65219Y-31529D02*
X64924Y-31529D01*
X64194Y-32199D02*
X63899Y-32199D01*
X63899Y-32124D01*
X63913Y-32105D01*
X63927Y-32096D01*
X63955Y-32087D01*
X63997Y-32087D01*
X64025Y-32096D01*
X64039Y-32105D01*
X64053Y-32124D01*
X64053Y-32199D01*
X64110Y-32011D02*
X64110Y-31918D01*
X64194Y-32030D02*
X63899Y-31965D01*
X64194Y-31899D01*
X64194Y-31730D02*
X64194Y-31842D01*
X64194Y-31786D02*
X63899Y-31786D01*
X63941Y-31805D01*
X63969Y-31824D01*
X63983Y-31842D01*
X63899Y-31664D02*
X63899Y-31542D01*
X64011Y-31608D01*
X64011Y-31579D01*
X64025Y-31561D01*
X64039Y-31551D01*
X64067Y-31542D01*
X64138Y-31542D01*
X64166Y-31551D01*
X64180Y-31561D01*
X64194Y-31579D01*
X64194Y-31636D01*
X64180Y-31654D01*
X64166Y-31664D01*
X62888Y-31975D02*
X62874Y-31994D01*
X62874Y-32022D01*
X62888Y-32050D01*
X62916Y-32069D01*
X62944Y-32078D01*
X63000Y-32087D01*
X63042Y-32087D01*
X63099Y-32078D01*
X63127Y-32069D01*
X63155Y-32050D01*
X63169Y-32022D01*
X63169Y-32003D01*
X63155Y-31975D01*
X63141Y-31966D01*
X63042Y-31966D01*
X63042Y-32003D01*
X63169Y-31881D02*
X62874Y-31881D01*
X63169Y-31769D01*
X62874Y-31769D01*
X63169Y-31675D02*
X62874Y-31675D01*
X62874Y-31628D01*
X62888Y-31600D01*
X62916Y-31581D01*
X62944Y-31572D01*
X63000Y-31563D01*
X63042Y-31563D01*
X63099Y-31572D01*
X63127Y-31581D01*
X63155Y-31600D01*
X63169Y-31628D01*
X63169Y-31675D01*
X62169Y-32149D02*
X61874Y-32149D01*
X61874Y-32074D01*
X61888Y-32055D01*
X61902Y-32046D01*
X61930Y-32037D01*
X61972Y-32037D01*
X62000Y-32046D01*
X62014Y-32055D01*
X62028Y-32074D01*
X62028Y-32149D01*
X62085Y-31961D02*
X62085Y-31868D01*
X62169Y-31980D02*
X61874Y-31915D01*
X62169Y-31849D01*
X62169Y-31680D02*
X62169Y-31792D01*
X62169Y-31736D02*
X61874Y-31736D01*
X61916Y-31755D01*
X61944Y-31774D01*
X61958Y-31792D01*
X61972Y-31511D02*
X62169Y-31511D01*
X61860Y-31558D02*
X62071Y-31604D01*
X62071Y-31483D01*
X60774Y-32141D02*
X60774Y-32019D01*
X60886Y-32085D01*
X60886Y-32056D01*
X60900Y-32038D01*
X60914Y-32028D01*
X60942Y-32019D01*
X61013Y-32019D01*
X61041Y-32028D01*
X61055Y-32038D01*
X61069Y-32056D01*
X61069Y-32113D01*
X61055Y-32131D01*
X61041Y-32141D01*
X61041Y-31934D02*
X61055Y-31925D01*
X61069Y-31934D01*
X61055Y-31943D01*
X61041Y-31934D01*
X61069Y-31934D01*
X60774Y-31859D02*
X60774Y-31737D01*
X60886Y-31803D01*
X60886Y-31774D01*
X60900Y-31756D01*
X60914Y-31746D01*
X60942Y-31737D01*
X61013Y-31737D01*
X61041Y-31746D01*
X61055Y-31756D01*
X61069Y-31774D01*
X61069Y-31831D01*
X61055Y-31849D01*
X61041Y-31859D01*
X60774Y-31680D02*
X61069Y-31615D01*
X60774Y-31549D01*
X60194Y-32199D02*
X59899Y-32199D01*
X59899Y-32124D01*
X59913Y-32105D01*
X59927Y-32096D01*
X59955Y-32087D01*
X59997Y-32087D01*
X60025Y-32096D01*
X60039Y-32105D01*
X60053Y-32124D01*
X60053Y-32199D01*
X60110Y-32011D02*
X60110Y-31918D01*
X60194Y-32030D02*
X59899Y-31965D01*
X60194Y-31899D01*
X60194Y-31730D02*
X60194Y-31842D01*
X60194Y-31786D02*
X59899Y-31786D01*
X59941Y-31805D01*
X59969Y-31824D01*
X59983Y-31842D01*
X59927Y-31654D02*
X59913Y-31645D01*
X59899Y-31626D01*
X59899Y-31579D01*
X59913Y-31561D01*
X59927Y-31551D01*
X59955Y-31542D01*
X59983Y-31542D01*
X60025Y-31551D01*
X60194Y-31664D01*
X60194Y-31542D01*
X59144Y-32174D02*
X58849Y-32174D01*
X58849Y-32099D01*
X58863Y-32080D01*
X58877Y-32071D01*
X58905Y-32062D01*
X58947Y-32062D01*
X58975Y-32071D01*
X58989Y-32080D01*
X59003Y-32099D01*
X59003Y-32174D01*
X59060Y-31986D02*
X59060Y-31893D01*
X59144Y-32005D02*
X58849Y-31940D01*
X59144Y-31874D01*
X59144Y-31705D02*
X59144Y-31817D01*
X59144Y-31761D02*
X58849Y-31761D01*
X58891Y-31780D01*
X58919Y-31799D01*
X58933Y-31817D01*
X59144Y-31517D02*
X59144Y-31629D01*
X59144Y-31573D02*
X58849Y-31573D01*
X58891Y-31592D01*
X58919Y-31611D01*
X58933Y-31629D01*
X58194Y-32213D02*
X57899Y-32213D01*
X57899Y-32138D01*
X57913Y-32119D01*
X57927Y-32110D01*
X57955Y-32101D01*
X57997Y-32101D01*
X58025Y-32110D01*
X58039Y-32119D01*
X58053Y-32138D01*
X58053Y-32213D01*
X58166Y-31904D02*
X58180Y-31913D01*
X58194Y-31941D01*
X58194Y-31960D01*
X58180Y-31988D01*
X58152Y-32007D01*
X58124Y-32016D01*
X58067Y-32025D01*
X58025Y-32025D01*
X57969Y-32016D01*
X57941Y-32007D01*
X57913Y-31988D01*
X57899Y-31960D01*
X57899Y-31941D01*
X57913Y-31913D01*
X57927Y-31904D01*
X58194Y-31716D02*
X58194Y-31828D01*
X58194Y-31772D02*
X57899Y-31772D01*
X57941Y-31791D01*
X57969Y-31810D01*
X57983Y-31828D01*
X57927Y-31640D02*
X57913Y-31631D01*
X57899Y-31612D01*
X57899Y-31565D01*
X57913Y-31547D01*
X57927Y-31537D01*
X57955Y-31528D01*
X57983Y-31528D01*
X58025Y-31537D01*
X58194Y-31650D01*
X58194Y-31528D01*
X57169Y-32044D02*
X56874Y-32044D01*
X56874Y-31969D01*
X56888Y-31950D01*
X56902Y-31941D01*
X56930Y-31932D01*
X56972Y-31932D01*
X57000Y-31941D01*
X57014Y-31950D01*
X57028Y-31969D01*
X57028Y-32044D01*
X57014Y-31781D02*
X57028Y-31753D01*
X57042Y-31744D01*
X57071Y-31735D01*
X57113Y-31735D01*
X57141Y-31744D01*
X57155Y-31753D01*
X57169Y-31772D01*
X57169Y-31847D01*
X56874Y-31847D01*
X56874Y-31781D01*
X56888Y-31763D01*
X56902Y-31753D01*
X56930Y-31744D01*
X56958Y-31744D01*
X56986Y-31753D01*
X57000Y-31763D01*
X57014Y-31781D01*
X57014Y-31847D01*
X56874Y-31669D02*
X56874Y-31547D01*
X56986Y-31613D01*
X56986Y-31584D01*
X57000Y-31566D01*
X57014Y-31556D01*
X57042Y-31547D01*
X57113Y-31547D01*
X57141Y-31556D01*
X57155Y-31566D01*
X57169Y-31584D01*
X57169Y-31641D01*
X57155Y-31659D01*
X57141Y-31669D01*
X56169Y-31994D02*
X55874Y-31994D01*
X55874Y-31919D01*
X55888Y-31900D01*
X55902Y-31891D01*
X55930Y-31882D01*
X55972Y-31882D01*
X56000Y-31891D01*
X56014Y-31900D01*
X56028Y-31919D01*
X56028Y-31994D01*
X56014Y-31731D02*
X56028Y-31703D01*
X56042Y-31694D01*
X56071Y-31685D01*
X56113Y-31685D01*
X56141Y-31694D01*
X56155Y-31703D01*
X56169Y-31722D01*
X56169Y-31797D01*
X55874Y-31797D01*
X55874Y-31731D01*
X55888Y-31713D01*
X55902Y-31703D01*
X55930Y-31694D01*
X55958Y-31694D01*
X55986Y-31703D01*
X56000Y-31713D01*
X56014Y-31731D01*
X56014Y-31797D01*
X55972Y-31516D02*
X56169Y-31516D01*
X55860Y-31563D02*
X56071Y-31609D01*
X56071Y-31488D01*
X55169Y-32019D02*
X54874Y-32019D01*
X54874Y-31944D01*
X54888Y-31925D01*
X54902Y-31916D01*
X54930Y-31907D01*
X54972Y-31907D01*
X55000Y-31916D01*
X55014Y-31925D01*
X55028Y-31944D01*
X55028Y-32019D01*
X55014Y-31756D02*
X55028Y-31728D01*
X55042Y-31719D01*
X55071Y-31710D01*
X55113Y-31710D01*
X55141Y-31719D01*
X55155Y-31728D01*
X55169Y-31747D01*
X55169Y-31822D01*
X54874Y-31822D01*
X54874Y-31756D01*
X54888Y-31738D01*
X54902Y-31728D01*
X54930Y-31719D01*
X54958Y-31719D01*
X54986Y-31728D01*
X55000Y-31738D01*
X55014Y-31756D01*
X55014Y-31822D01*
X54874Y-31531D02*
X54874Y-31625D01*
X55014Y-31634D01*
X55000Y-31625D01*
X54986Y-31606D01*
X54986Y-31559D01*
X55000Y-31541D01*
X55014Y-31531D01*
X55042Y-31522D01*
X55113Y-31522D01*
X55141Y-31531D01*
X55155Y-31541D01*
X55169Y-31559D01*
X55169Y-31606D01*
X55155Y-31625D01*
X55141Y-31634D01*
X54144Y-31994D02*
X53849Y-31994D01*
X53849Y-31919D01*
X53863Y-31900D01*
X53877Y-31891D01*
X53905Y-31882D01*
X53947Y-31882D01*
X53975Y-31891D01*
X53989Y-31900D01*
X54003Y-31919D01*
X54003Y-31994D01*
X53989Y-31731D02*
X54003Y-31703D01*
X54017Y-31694D01*
X54046Y-31685D01*
X54088Y-31685D01*
X54116Y-31694D01*
X54130Y-31703D01*
X54144Y-31722D01*
X54144Y-31797D01*
X53849Y-31797D01*
X53849Y-31731D01*
X53863Y-31713D01*
X53877Y-31703D01*
X53905Y-31694D01*
X53933Y-31694D01*
X53961Y-31703D01*
X53975Y-31713D01*
X53989Y-31731D01*
X53989Y-31797D01*
X53849Y-31516D02*
X53849Y-31553D01*
X53863Y-31572D01*
X53877Y-31581D01*
X53919Y-31600D01*
X53975Y-31609D01*
X54088Y-31609D01*
X54116Y-31600D01*
X54130Y-31591D01*
X54144Y-31572D01*
X54144Y-31534D01*
X54130Y-31516D01*
X54116Y-31506D01*
X54088Y-31497D01*
X54017Y-31497D01*
X53989Y-31506D01*
X53975Y-31516D01*
X53961Y-31534D01*
X53961Y-31572D01*
X53975Y-31591D01*
X53989Y-31600D01*
X54017Y-31609D01*
X53194Y-31969D02*
X52899Y-31969D01*
X52899Y-31894D01*
X52913Y-31875D01*
X52927Y-31866D01*
X52955Y-31857D01*
X52997Y-31857D01*
X53025Y-31866D01*
X53039Y-31875D01*
X53053Y-31894D01*
X53053Y-31969D01*
X53039Y-31706D02*
X53053Y-31678D01*
X53067Y-31669D01*
X53096Y-31660D01*
X53138Y-31660D01*
X53166Y-31669D01*
X53180Y-31678D01*
X53194Y-31697D01*
X53194Y-31772D01*
X52899Y-31772D01*
X52899Y-31706D01*
X52913Y-31688D01*
X52927Y-31678D01*
X52955Y-31669D01*
X52983Y-31669D01*
X53011Y-31678D01*
X53025Y-31688D01*
X53039Y-31706D01*
X53039Y-31772D01*
X52899Y-31594D02*
X52899Y-31463D01*
X53194Y-31547D01*
X52169Y-32019D02*
X51874Y-32019D01*
X51874Y-31944D01*
X51888Y-31925D01*
X51902Y-31916D01*
X51930Y-31907D01*
X51972Y-31907D01*
X52000Y-31916D01*
X52014Y-31925D01*
X52028Y-31944D01*
X52028Y-32019D01*
X52014Y-31756D02*
X52028Y-31728D01*
X52042Y-31719D01*
X52071Y-31710D01*
X52113Y-31710D01*
X52141Y-31719D01*
X52155Y-31728D01*
X52169Y-31747D01*
X52169Y-31822D01*
X51874Y-31822D01*
X51874Y-31756D01*
X51888Y-31738D01*
X51902Y-31728D01*
X51930Y-31719D01*
X51958Y-31719D01*
X51986Y-31728D01*
X52000Y-31738D01*
X52014Y-31756D01*
X52014Y-31822D01*
X52000Y-31597D02*
X51986Y-31616D01*
X51972Y-31625D01*
X51944Y-31634D01*
X51930Y-31634D01*
X51902Y-31625D01*
X51888Y-31616D01*
X51874Y-31597D01*
X51874Y-31559D01*
X51888Y-31541D01*
X51902Y-31531D01*
X51930Y-31522D01*
X51944Y-31522D01*
X51972Y-31531D01*
X51986Y-31541D01*
X52000Y-31559D01*
X52000Y-31597D01*
X52014Y-31616D01*
X52028Y-31625D01*
X52057Y-31634D01*
X52113Y-31634D01*
X52141Y-31625D01*
X52155Y-31616D01*
X52169Y-31597D01*
X52169Y-31559D01*
X52155Y-31541D01*
X52141Y-31531D01*
X52113Y-31522D01*
X52057Y-31522D01*
X52028Y-31531D01*
X52014Y-31541D01*
X52000Y-31559D01*
X51144Y-31994D02*
X50849Y-31994D01*
X50849Y-31919D01*
X50863Y-31900D01*
X50877Y-31891D01*
X50905Y-31882D01*
X50947Y-31882D01*
X50975Y-31891D01*
X50989Y-31900D01*
X51003Y-31919D01*
X51003Y-31994D01*
X50989Y-31731D02*
X51003Y-31703D01*
X51017Y-31694D01*
X51046Y-31685D01*
X51088Y-31685D01*
X51116Y-31694D01*
X51130Y-31703D01*
X51144Y-31722D01*
X51144Y-31797D01*
X50849Y-31797D01*
X50849Y-31731D01*
X50863Y-31713D01*
X50877Y-31703D01*
X50905Y-31694D01*
X50933Y-31694D01*
X50961Y-31703D01*
X50975Y-31713D01*
X50989Y-31731D01*
X50989Y-31797D01*
X51144Y-31591D02*
X51144Y-31553D01*
X51130Y-31534D01*
X51116Y-31525D01*
X51074Y-31506D01*
X51017Y-31497D01*
X50905Y-31497D01*
X50877Y-31506D01*
X50863Y-31516D01*
X50849Y-31534D01*
X50849Y-31572D01*
X50863Y-31591D01*
X50877Y-31600D01*
X50905Y-31609D01*
X50975Y-31609D01*
X51003Y-31600D01*
X51017Y-31591D01*
X51032Y-31572D01*
X51032Y-31534D01*
X51017Y-31516D01*
X51003Y-31506D01*
X50975Y-31497D01*
X49913Y-31975D02*
X49899Y-31994D01*
X49899Y-32022D01*
X49913Y-32050D01*
X49941Y-32069D01*
X49969Y-32078D01*
X50025Y-32087D01*
X50067Y-32087D01*
X50124Y-32078D01*
X50152Y-32069D01*
X50180Y-32050D01*
X50194Y-32022D01*
X50194Y-32003D01*
X50180Y-31975D01*
X50166Y-31966D01*
X50067Y-31966D01*
X50067Y-32003D01*
X50194Y-31881D02*
X49899Y-31881D01*
X50194Y-31769D01*
X49899Y-31769D01*
X50194Y-31675D02*
X49899Y-31675D01*
X49899Y-31628D01*
X49913Y-31600D01*
X49941Y-31581D01*
X49969Y-31572D01*
X50025Y-31563D01*
X50067Y-31563D01*
X50124Y-31572D01*
X50152Y-31581D01*
X50180Y-31600D01*
X50194Y-31628D01*
X50194Y-31675D01*
G54D13*
X46150Y-32038D02*
X46131Y-32024D01*
X46103Y-32024D01*
X46075Y-32038D01*
X46056Y-32066D01*
X46047Y-32094D01*
X46038Y-32150D01*
X46038Y-32192D01*
X46047Y-32249D01*
X46056Y-32277D01*
X46075Y-32305D01*
X46103Y-32319D01*
X46122Y-32319D01*
X46150Y-32305D01*
X46159Y-32291D01*
X46159Y-32192D01*
X46122Y-32192D01*
X46244Y-32319D02*
X46244Y-32024D01*
X46356Y-32319D01*
X46356Y-32024D01*
X46450Y-32319D02*
X46450Y-32024D01*
X46497Y-32024D01*
X46525Y-32038D01*
X46544Y-32066D01*
X46553Y-32094D01*
X46562Y-32150D01*
X46562Y-32192D01*
X46553Y-32249D01*
X46544Y-32277D01*
X46525Y-32305D01*
X46497Y-32319D01*
X46450Y-32319D01*
G54D14*
X46476Y-30863D02*
X46181Y-30928D01*
X46476Y-30994D01*
X46181Y-31060D02*
X46476Y-31060D01*
X46181Y-31154D02*
X46476Y-31154D01*
X46181Y-31266D01*
X46476Y-31266D01*
X46293Y-31360D02*
X46293Y-31510D01*
X46181Y-31435D02*
X46406Y-31435D01*
X46019Y-30862D02*
X46019Y-30825D01*
X46005Y-30806D01*
X45991Y-30797D01*
X45949Y-30778D01*
X45893Y-30769D01*
X45780Y-30769D01*
X45752Y-30778D01*
X45738Y-30787D01*
X45724Y-30806D01*
X45724Y-30844D01*
X45738Y-30862D01*
X45752Y-30872D01*
X45780Y-30881D01*
X45851Y-30881D01*
X45879Y-30872D01*
X45893Y-30862D01*
X45907Y-30844D01*
X45907Y-30806D01*
X45893Y-30787D01*
X45879Y-30778D01*
X45851Y-30769D01*
X46033Y-31107D02*
X45654Y-30938D01*
X45991Y-31163D02*
X46005Y-31172D01*
X46019Y-31191D01*
X46019Y-31238D01*
X46005Y-31256D01*
X45991Y-31266D01*
X45963Y-31275D01*
X45935Y-31275D01*
X45893Y-31266D01*
X45724Y-31153D01*
X45724Y-31275D01*
X46019Y-31454D02*
X46019Y-31360D01*
X45879Y-31351D01*
X45893Y-31360D01*
X45907Y-31379D01*
X45907Y-31426D01*
X45893Y-31444D01*
X45879Y-31454D01*
X45851Y-31463D01*
X45780Y-31463D01*
X45752Y-31454D01*
X45738Y-31444D01*
X45724Y-31426D01*
X45724Y-31379D01*
X45738Y-31360D01*
X45752Y-31351D01*
X46019Y-31520D02*
X45724Y-31585D01*
X46019Y-31651D01*
G54D12*
X64975Y-32325D02*
X63475Y-33825D01*
G54D15*
X57132Y-34132D02*
X57129Y-34161D01*
X57120Y-34189D01*
X57106Y-34215D01*
X57088Y-34237D01*
X57065Y-34256D01*
X57040Y-34270D01*
X57012Y-34278D01*
X56983Y-34281D01*
X56954Y-34279D01*
X56926Y-34271D01*
X56900Y-34257D01*
X56878Y-34239D01*
X56859Y-34216D01*
X56845Y-34191D01*
X56836Y-34163D01*
X56833Y-34134D01*
X56835Y-34105D01*
X56843Y-34077D01*
X56856Y-34051D01*
X56875Y-34028D01*
X56897Y-34009D01*
X56922Y-33995D01*
X56950Y-33986D01*
X56979Y-33983D01*
X57008Y-33985D01*
X57036Y-33993D01*
X57062Y-34006D01*
X57085Y-34024D01*
X57104Y-34046D01*
X57119Y-34071D01*
X57128Y-34099D01*
X57131Y-34128D01*
X57132Y-34132D01*
X60582Y-37732D02*
X60582Y-33732D01*
X60582Y-33732D02*
X56832Y-33732D01*
X56832Y-33732D02*
X56582Y-33982D01*
X56582Y-33982D02*
X56582Y-37732D01*
X56582Y-37732D02*
X60582Y-37732D01*
G54D16*
X50650Y-36025D02*
X50850Y-35725D01*
X50650Y-36725D02*
X50650Y-35700D01*
X50650Y-35700D02*
X51250Y-35700D01*
X51250Y-35700D02*
X51250Y-36725D01*
X51250Y-36725D02*
X50650Y-36725D01*
X49300Y-34025D02*
X49300Y-34725D01*
X49300Y-34725D02*
X48100Y-34725D01*
X48100Y-34725D02*
X48100Y-34025D01*
X48100Y-34025D02*
X49300Y-34025D01*
G54D15*
X64243Y-33539D02*
X64243Y-37839D01*
X64243Y-37839D02*
X62843Y-37839D01*
X62843Y-37839D02*
X62843Y-33539D01*
X62843Y-33539D02*
X64243Y-33539D01*
X63743Y-33539D02*
X63743Y-33839D01*
X63743Y-33839D02*
X63343Y-33839D01*
X63343Y-33839D02*
X63343Y-33539D01*
G54D16*
X53825Y-35875D02*
X54725Y-35875D01*
X54725Y-35875D02*
X54725Y-36375D01*
X54725Y-36375D02*
X53825Y-36375D01*
X53825Y-36375D02*
X53825Y-35875D01*
X53825Y-34650D02*
X54725Y-34650D01*
X54725Y-34650D02*
X54725Y-35150D01*
X54725Y-35150D02*
X53825Y-35150D01*
X53825Y-35150D02*
X53825Y-34650D01*
X53825Y-35250D02*
X54725Y-35250D01*
X54725Y-35250D02*
X54725Y-35750D01*
X54725Y-35750D02*
X53825Y-35750D01*
X53825Y-35750D02*
X53825Y-35250D01*
X61875Y-37250D02*
X61875Y-38150D01*
X61875Y-38150D02*
X61375Y-38150D01*
X61375Y-38150D02*
X61375Y-37250D01*
X61375Y-37250D02*
X61875Y-37250D01*
X56550Y-38400D02*
X55650Y-38400D01*
X55650Y-38400D02*
X55650Y-37900D01*
X55650Y-37900D02*
X56550Y-37900D01*
X56550Y-37900D02*
X56550Y-38400D01*
X49625Y-35475D02*
X49625Y-36375D01*
X49625Y-36375D02*
X49125Y-36375D01*
X49125Y-36375D02*
X49125Y-35475D01*
X49125Y-35475D02*
X49625Y-35475D01*
X51050Y-37600D02*
X50150Y-37600D01*
X50150Y-37600D02*
X50150Y-37100D01*
X50150Y-37100D02*
X51050Y-37100D01*
X51050Y-37100D02*
X51050Y-37600D01*
X53800Y-38475D02*
X52900Y-38475D01*
X52900Y-38475D02*
X52900Y-37975D01*
X52900Y-37975D02*
X53800Y-37975D01*
X53800Y-37975D02*
X53800Y-38475D01*
X55650Y-38450D02*
X56550Y-38450D01*
X56550Y-38450D02*
X56550Y-38950D01*
X56550Y-38950D02*
X55650Y-38950D01*
X55650Y-38950D02*
X55650Y-38450D01*
X51750Y-35400D02*
X50850Y-35400D01*
X50850Y-35400D02*
X50850Y-34900D01*
X50850Y-34900D02*
X51750Y-34900D01*
X51750Y-34900D02*
X51750Y-35400D01*
X53025Y-36775D02*
X52125Y-36775D01*
X52125Y-36775D02*
X52125Y-36275D01*
X52125Y-36275D02*
X53025Y-36275D01*
X53025Y-36275D02*
X53025Y-36775D01*
X55275Y-37875D02*
X55275Y-38775D01*
X55275Y-38775D02*
X54775Y-38775D01*
X54775Y-38775D02*
X54775Y-37875D01*
X54775Y-37875D02*
X55275Y-37875D01*
X55625Y-37500D02*
X54725Y-37500D01*
X54725Y-37500D02*
X54725Y-37000D01*
X54725Y-37000D02*
X55625Y-37000D01*
X55625Y-37000D02*
X55625Y-37500D01*
X49475Y-34900D02*
X50375Y-34900D01*
X50375Y-34900D02*
X50375Y-35400D01*
X50375Y-35400D02*
X49475Y-35400D01*
X49475Y-35400D02*
X49475Y-34900D01*
X49275Y-34800D02*
X49275Y-33900D01*
X49275Y-33900D02*
X49775Y-33900D01*
X49775Y-33900D02*
X49775Y-34800D01*
X49775Y-34800D02*
X49275Y-34800D01*
X47525Y-34075D02*
X47525Y-33175D01*
X47525Y-33175D02*
X48025Y-33175D01*
X48025Y-33175D02*
X48025Y-34075D01*
X48025Y-34075D02*
X47525Y-34075D01*
X47525Y-35125D02*
X47525Y-34225D01*
X47525Y-34225D02*
X48025Y-34225D01*
X48025Y-34225D02*
X48025Y-35125D01*
X48025Y-35125D02*
X47525Y-35125D01*
X49125Y-37425D02*
X49125Y-36525D01*
X49125Y-36525D02*
X49625Y-36525D01*
X49625Y-36525D02*
X49625Y-37425D01*
X49625Y-37425D02*
X49125Y-37425D01*
X49825Y-33175D02*
X48925Y-33175D01*
X48925Y-33175D02*
X48925Y-32675D01*
X48925Y-32675D02*
X49825Y-32675D01*
X49825Y-32675D02*
X49825Y-33175D01*
X65475Y-36850D02*
X65475Y-37750D01*
X65475Y-37750D02*
X64975Y-37750D01*
X64975Y-37750D02*
X64975Y-36850D01*
X64975Y-36850D02*
X65475Y-36850D01*
X60300Y-37550D02*
X61200Y-37550D01*
X61200Y-37550D02*
X61200Y-38050D01*
X61200Y-38050D02*
X60300Y-38050D01*
X60300Y-38050D02*
X60300Y-37550D01*
X53800Y-39025D02*
X52900Y-39025D01*
X52900Y-39025D02*
X52900Y-38525D01*
X52900Y-38525D02*
X53800Y-38525D01*
X53800Y-38525D02*
X53800Y-39025D01*
G54D15*
X52800Y-37350D02*
X53275Y-36850D01*
X52800Y-36850D02*
X52800Y-38100D01*
X52800Y-38100D02*
X54050Y-38100D01*
X54050Y-38100D02*
X54050Y-36850D01*
X54050Y-36850D02*
X52800Y-36850D01*
X51975Y-34600D02*
X51973Y-34619D01*
X51967Y-34638D01*
X51958Y-34655D01*
X51945Y-34670D01*
X51930Y-34682D01*
X51913Y-34692D01*
X51895Y-34697D01*
X51875Y-34699D01*
X51857Y-34698D01*
X51838Y-34692D01*
X51821Y-34683D01*
X51806Y-34671D01*
X51793Y-34656D01*
X51784Y-34639D01*
X51778Y-34620D01*
X51776Y-34601D01*
X51777Y-34582D01*
X51783Y-34564D01*
X51791Y-34546D01*
X51804Y-34531D01*
X51818Y-34518D01*
X51835Y-34509D01*
X51854Y-34503D01*
X51873Y-34501D01*
X51892Y-34502D01*
X51911Y-34507D01*
X51928Y-34516D01*
X51943Y-34528D01*
X51956Y-34543D01*
X51966Y-34560D01*
X51972Y-34578D01*
X51974Y-34598D01*
X51975Y-34600D01*
X52075Y-33600D02*
X52075Y-34800D01*
X52075Y-34800D02*
X50875Y-34800D01*
X50875Y-34800D02*
X50875Y-33600D01*
X50875Y-33600D02*
X52075Y-33600D01*
X50950Y-32375D02*
X50948Y-32394D01*
X50942Y-32413D01*
X50933Y-32430D01*
X50920Y-32445D01*
X50905Y-32457D01*
X50888Y-32467D01*
X50870Y-32472D01*
X50850Y-32474D01*
X50832Y-32473D01*
X50813Y-32467D01*
X50796Y-32458D01*
X50781Y-32446D01*
X50768Y-32431D01*
X50759Y-32414D01*
X50753Y-32395D01*
X50751Y-32376D01*
X50752Y-32357D01*
X50758Y-32339D01*
X50766Y-32321D01*
X50779Y-32306D01*
X50793Y-32293D01*
X50810Y-32284D01*
X50829Y-32278D01*
X50848Y-32276D01*
X50867Y-32277D01*
X50886Y-32282D01*
X50903Y-32291D01*
X50918Y-32303D01*
X50931Y-32318D01*
X50941Y-32335D01*
X50947Y-32353D01*
X50949Y-32373D01*
X50950Y-32375D01*
X50650Y-33375D02*
X50650Y-32175D01*
X50650Y-32175D02*
X51850Y-32175D01*
X51850Y-32175D02*
X51850Y-33375D01*
X51850Y-33375D02*
X50650Y-33375D01*
G54D17*
X62627Y-38223D02*
X62627Y-38577D01*
X62627Y-38577D02*
X62784Y-38577D01*
X62784Y-38223D02*
X62784Y-38577D01*
X62627Y-38223D02*
X62784Y-38223D01*
X62116Y-38223D02*
X62116Y-38577D01*
X62116Y-38577D02*
X62273Y-38577D01*
X62273Y-38223D02*
X62273Y-38577D01*
X62116Y-38223D02*
X62273Y-38223D01*
X62450Y-38223D02*
X62450Y-38282D01*
X62450Y-38282D02*
X62568Y-38282D01*
X62568Y-38223D02*
X62568Y-38282D01*
X62450Y-38223D02*
X62568Y-38223D01*
X62450Y-38518D02*
X62450Y-38577D01*
X62450Y-38577D02*
X62568Y-38577D01*
X62568Y-38518D02*
X62568Y-38577D01*
X62450Y-38518D02*
X62568Y-38518D01*
X62450Y-38341D02*
X62450Y-38459D01*
X62450Y-38459D02*
X62568Y-38459D01*
X62568Y-38341D02*
X62568Y-38459D01*
X62450Y-38341D02*
X62568Y-38341D01*
G54D18*
X62627Y-38243D02*
X62273Y-38243D01*
X62627Y-38557D02*
X62273Y-38557D01*
G54D17*
X51227Y-38623D02*
X51227Y-38977D01*
X51227Y-38977D02*
X51384Y-38977D01*
X51384Y-38623D02*
X51384Y-38977D01*
X51227Y-38623D02*
X51384Y-38623D01*
X50716Y-38623D02*
X50716Y-38977D01*
X50716Y-38977D02*
X50873Y-38977D01*
X50873Y-38623D02*
X50873Y-38977D01*
X50716Y-38623D02*
X50873Y-38623D01*
X51050Y-38623D02*
X51050Y-38682D01*
X51050Y-38682D02*
X51168Y-38682D01*
X51168Y-38623D02*
X51168Y-38682D01*
X51050Y-38623D02*
X51168Y-38623D01*
X51050Y-38918D02*
X51050Y-38977D01*
X51050Y-38977D02*
X51168Y-38977D01*
X51168Y-38918D02*
X51168Y-38977D01*
X51050Y-38918D02*
X51168Y-38918D01*
X51050Y-38741D02*
X51050Y-38859D01*
X51050Y-38859D02*
X51168Y-38859D01*
X51168Y-38741D02*
X51168Y-38859D01*
X51050Y-38741D02*
X51168Y-38741D01*
G54D18*
X51227Y-38643D02*
X50873Y-38643D01*
X51227Y-38957D02*
X50873Y-38957D01*
G54D12*
X53245Y-32580D02*
X54466Y-32580D01*
X54466Y-32580D02*
X54938Y-33053D01*
X54938Y-33053D02*
X54938Y-33919D01*
X54938Y-33919D02*
X54544Y-34470D01*
X54544Y-34470D02*
X53245Y-34470D01*
X53245Y-34470D02*
X52812Y-34037D01*
X52812Y-34037D02*
X52812Y-33013D01*
X52812Y-33013D02*
X53245Y-32580D01*
X49058Y-37659D02*
X50042Y-37659D01*
X50042Y-37659D02*
X50042Y-38841D01*
X50042Y-38841D02*
X49058Y-38841D01*
X49058Y-38841D02*
X49058Y-37659D01*
X47831Y-32494D02*
X47831Y-32415D01*
X49209Y-32494D02*
X49209Y-32415D01*
X47831Y-32494D02*
X49209Y-32494D01*
X49209Y-31785D02*
X49209Y-31706D01*
X49209Y-31706D02*
X47831Y-31706D01*
X47831Y-31706D02*
X47831Y-31785D01*
G54D16*
X65450Y-35475D02*
X65450Y-36375D01*
X65450Y-36375D02*
X64950Y-36375D01*
X64950Y-36375D02*
X64950Y-35475D01*
X64950Y-35475D02*
X65450Y-35475D01*
X65467Y-34117D02*
X65467Y-35017D01*
X65467Y-35017D02*
X64967Y-35017D01*
X64967Y-35017D02*
X64967Y-34117D01*
X64967Y-34117D02*
X65467Y-34117D01*
X47875Y-32975D02*
X46975Y-32975D01*
X46975Y-32975D02*
X46975Y-32475D01*
X46975Y-32475D02*
X47875Y-32475D01*
X47875Y-32475D02*
X47875Y-32975D01*
X64275Y-32700D02*
X65175Y-32700D01*
X65175Y-32700D02*
X65175Y-33200D01*
X65175Y-33200D02*
X64275Y-33200D01*
X64275Y-33200D02*
X64275Y-32700D01*
G54D17*
X64877Y-33273D02*
X64877Y-33627D01*
X64877Y-33627D02*
X65034Y-33627D01*
X65034Y-33273D02*
X65034Y-33627D01*
X64877Y-33273D02*
X65034Y-33273D01*
X64366Y-33273D02*
X64366Y-33627D01*
X64366Y-33627D02*
X64523Y-33627D01*
X64523Y-33273D02*
X64523Y-33627D01*
X64366Y-33273D02*
X64523Y-33273D01*
X64700Y-33273D02*
X64700Y-33332D01*
X64700Y-33332D02*
X64818Y-33332D01*
X64818Y-33273D02*
X64818Y-33332D01*
X64700Y-33273D02*
X64818Y-33273D01*
X64700Y-33568D02*
X64700Y-33627D01*
X64700Y-33627D02*
X64818Y-33627D01*
X64818Y-33568D02*
X64818Y-33627D01*
X64700Y-33568D02*
X64818Y-33568D01*
X64700Y-33391D02*
X64700Y-33509D01*
X64700Y-33509D02*
X64818Y-33509D01*
X64818Y-33391D02*
X64818Y-33509D01*
X64700Y-33391D02*
X64818Y-33391D01*
G54D18*
X64877Y-33293D02*
X64523Y-33293D01*
X64877Y-33607D02*
X64523Y-33607D01*
M02*
