G04 (created by PCBNEW-RS274X (2011-05-25)-stable) date Fri 13 Mar 2015 11:37:05 GMT*
G01*
G70*
G90*
%MOIN*%
G04 Gerber Fmt 3.4, Leading zero omitted, Abs format*
%FSLAX34Y34*%
G04 APERTURE LIST*
%ADD10C,0.006000*%
%ADD11O,0.047200X0.070900*%
%ADD12O,0.078300X0.051200*%
%ADD13C,0.078700*%
%ADD14R,0.055000X0.055000*%
%ADD15R,0.060000X0.009800*%
%ADD16O,0.060000X0.009800*%
%ADD17O,0.009800X0.060000*%
%ADD18R,0.039400X0.027600*%
%ADD19R,0.020000X0.030000*%
%ADD20R,0.045000X0.020000*%
%ADD21R,0.025000X0.045000*%
%ADD22R,0.045000X0.025000*%
%ADD23R,0.050000X0.015000*%
%ADD24R,0.039400X0.010600*%
%ADD25R,0.031400X0.031400*%
%ADD26O,0.055100X0.210200*%
%ADD27R,0.015700X0.019700*%
%ADD28R,0.035400X0.040200*%
%ADD29O,0.070900X0.039400*%
%ADD30O,0.063000X0.027600*%
%ADD31O,0.039400X0.055100*%
%ADD32O,0.031500X0.059100*%
%ADD33O,0.039400X0.019700*%
%ADD34C,0.025000*%
%ADD35C,0.020000*%
%ADD36C,0.011800*%
%ADD37C,0.005000*%
%ADD38C,0.007900*%
%ADD39C,0.019700*%
%ADD40C,0.015700*%
%ADD41C,0.027600*%
%ADD42C,0.023600*%
G04 APERTURE END LIST*
G54D10*
G54D11*
X48000Y-38000D03*
G54D12*
X48000Y-37000D03*
G54D13*
X48000Y-36000D03*
G54D14*
X47000Y-32000D03*
G54D13*
X47000Y-38000D03*
X47000Y-37000D03*
X47000Y-36000D03*
X47000Y-35000D03*
X47000Y-34000D03*
X66000Y-38000D03*
X66000Y-37000D03*
X66000Y-36000D03*
X66000Y-35000D03*
X66000Y-34000D03*
X66000Y-33000D03*
X47000Y-40000D03*
X48000Y-40000D03*
X49000Y-40000D03*
X50000Y-40000D03*
X51000Y-40000D03*
X52000Y-40000D03*
X53000Y-40000D03*
X54000Y-40000D03*
X55000Y-40000D03*
X56000Y-40000D03*
X57000Y-40000D03*
X58000Y-40000D03*
X59000Y-40000D03*
X60000Y-40000D03*
X61000Y-40000D03*
X62000Y-40000D03*
X63000Y-40000D03*
X64000Y-40000D03*
X65000Y-40000D03*
X66000Y-40000D03*
X47000Y-31000D03*
X48000Y-31000D03*
X49000Y-31000D03*
X50000Y-31000D03*
X51000Y-31000D03*
X52000Y-31000D03*
X53000Y-31000D03*
X54000Y-31000D03*
X55000Y-31000D03*
X56000Y-31000D03*
X57000Y-31000D03*
X58000Y-31000D03*
X59000Y-31000D03*
X60000Y-31000D03*
X61000Y-31000D03*
X62000Y-31000D03*
X63000Y-31000D03*
X64000Y-31000D03*
X65000Y-31000D03*
X66000Y-31000D03*
X62450Y-32525D03*
X61450Y-32525D03*
G54D15*
X56239Y-34224D03*
G54D16*
X56239Y-34421D03*
X56239Y-34618D03*
X56239Y-34815D03*
X56239Y-35012D03*
X56239Y-35208D03*
X56239Y-35405D03*
X56239Y-35602D03*
X56239Y-35799D03*
X56239Y-35996D03*
X56239Y-36193D03*
X56239Y-36389D03*
X56239Y-36586D03*
X56239Y-36783D03*
X56239Y-36980D03*
X56239Y-37177D03*
G54D17*
X57074Y-38075D03*
X57271Y-38075D03*
X57468Y-38075D03*
X57665Y-38075D03*
X57862Y-38075D03*
X58058Y-38075D03*
X58255Y-38075D03*
X58452Y-38075D03*
X58649Y-38075D03*
X58846Y-38075D03*
X59043Y-38075D03*
X59239Y-38075D03*
X59436Y-38075D03*
X59633Y-38075D03*
X59830Y-38075D03*
X60027Y-38075D03*
G54D16*
X60925Y-37177D03*
X60925Y-36980D03*
X60925Y-36783D03*
X60925Y-36586D03*
X60925Y-36389D03*
X60925Y-36193D03*
X60925Y-35996D03*
X60925Y-35799D03*
X60925Y-35602D03*
X60925Y-35405D03*
X60925Y-35208D03*
X60925Y-35012D03*
X60925Y-34815D03*
X60925Y-34618D03*
X60925Y-34421D03*
X60925Y-34224D03*
G54D17*
X60027Y-33389D03*
X59830Y-33389D03*
X59436Y-33389D03*
X59633Y-33382D03*
X59239Y-33389D03*
X59043Y-33389D03*
X58846Y-33389D03*
X58649Y-33389D03*
X58452Y-33389D03*
X58255Y-33389D03*
X58061Y-33389D03*
X57864Y-33389D03*
X57667Y-33389D03*
X57470Y-33389D03*
X57274Y-33389D03*
X57077Y-33389D03*
G54D18*
X51450Y-35850D03*
X51450Y-36225D03*
X51450Y-36600D03*
X50450Y-36600D03*
X50450Y-36225D03*
X50450Y-35850D03*
G54D19*
X48325Y-34875D03*
X49075Y-34875D03*
X48325Y-33875D03*
X48700Y-34875D03*
X49075Y-33875D03*
G54D20*
X62543Y-33939D03*
X62543Y-34439D03*
X62543Y-34939D03*
X62543Y-35439D03*
X62543Y-35939D03*
X62543Y-36439D03*
X62543Y-36939D03*
X62543Y-37439D03*
X64543Y-37439D03*
X64543Y-36939D03*
X64543Y-36439D03*
X64543Y-35939D03*
X64543Y-35439D03*
X64543Y-34939D03*
X64543Y-34439D03*
X64543Y-33939D03*
G54D21*
X53975Y-36125D03*
X54575Y-36125D03*
X53975Y-34900D03*
X54575Y-34900D03*
X53975Y-35500D03*
X54575Y-35500D03*
G54D22*
X61625Y-37400D03*
X61625Y-38000D03*
G54D21*
X56400Y-38150D03*
X55800Y-38150D03*
G54D22*
X49375Y-35625D03*
X49375Y-36225D03*
G54D21*
X50900Y-37350D03*
X50300Y-37350D03*
X53650Y-38225D03*
X53050Y-38225D03*
X55800Y-38700D03*
X56400Y-38700D03*
X51600Y-35150D03*
X51000Y-35150D03*
X52875Y-36525D03*
X52275Y-36525D03*
G54D22*
X55025Y-38025D03*
X55025Y-38625D03*
G54D21*
X55475Y-37250D03*
X54875Y-37250D03*
X49625Y-35150D03*
X50225Y-35150D03*
G54D22*
X49525Y-34650D03*
X49525Y-34050D03*
X47775Y-33925D03*
X47775Y-33325D03*
X47775Y-34975D03*
X47775Y-34375D03*
X49375Y-37275D03*
X49375Y-36675D03*
G54D21*
X49675Y-32925D03*
X49075Y-32925D03*
G54D22*
X65225Y-37000D03*
X65225Y-37600D03*
G54D21*
X60450Y-37800D03*
X61050Y-37800D03*
X53650Y-38775D03*
X53050Y-38775D03*
G54D23*
X52575Y-37091D03*
X52575Y-37347D03*
X52575Y-37603D03*
X52575Y-37859D03*
X54275Y-37859D03*
X54275Y-37603D03*
X54275Y-37347D03*
X54275Y-37091D03*
G54D24*
X52350Y-34600D03*
X52350Y-34400D03*
X52350Y-34200D03*
X52350Y-34000D03*
X52350Y-33800D03*
X50600Y-33800D03*
X50600Y-34000D03*
X50600Y-34200D03*
X50600Y-34400D03*
X50600Y-34600D03*
X50375Y-32375D03*
X50375Y-32575D03*
X50375Y-32775D03*
X50375Y-32975D03*
X50375Y-33175D03*
X52125Y-33175D03*
X52125Y-32975D03*
X52125Y-32775D03*
X52125Y-32575D03*
X52125Y-32375D03*
G54D25*
X62155Y-38400D03*
X62745Y-38400D03*
X50755Y-38800D03*
X51345Y-38800D03*
G54D26*
X53284Y-33525D03*
X54466Y-33525D03*
G54D27*
X49806Y-37876D03*
X49294Y-37876D03*
X49294Y-38624D03*
X49550Y-38624D03*
X49806Y-38624D03*
G54D28*
X47854Y-32100D03*
X49146Y-32100D03*
G54D22*
X65200Y-35625D03*
X65200Y-36225D03*
X65217Y-34267D03*
X65217Y-34867D03*
G54D29*
X52800Y-36000D03*
G54D30*
X55250Y-33325D03*
G54D31*
X54275Y-38350D03*
G54D21*
X47725Y-32725D03*
X47125Y-32725D03*
G54D32*
X51775Y-37200D03*
G54D33*
X54875Y-37675D03*
G54D21*
X64425Y-32950D03*
X65025Y-32950D03*
G54D25*
X64405Y-33450D03*
X64995Y-33450D03*
G54D34*
X54475Y-38875D03*
G54D35*
X58100Y-32450D03*
X58750Y-37025D03*
X57000Y-37525D03*
X58025Y-36075D03*
X55450Y-36850D03*
X55450Y-37850D03*
X58825Y-34600D03*
X59575Y-35625D03*
X55500Y-34000D03*
X55325Y-33350D03*
X57875Y-33800D03*
X58100Y-34300D03*
X59075Y-37550D03*
X59650Y-36975D03*
X59775Y-36300D03*
X59000Y-33825D03*
X60400Y-35225D03*
X58050Y-35550D03*
X57375Y-35100D03*
X59525Y-39400D03*
X58825Y-35975D03*
X59025Y-36475D03*
X59850Y-34950D03*
X60275Y-32100D03*
X60575Y-32525D03*
X60350Y-34375D03*
X59275Y-32250D03*
X58750Y-31550D03*
X57375Y-31575D03*
X58700Y-32250D03*
X58450Y-33000D03*
X56275Y-31575D03*
X57100Y-32525D03*
X56475Y-32475D03*
X56100Y-33375D03*
X55550Y-31850D03*
X55950Y-32575D03*
X55075Y-31900D03*
X55375Y-36075D03*
X55875Y-35800D03*
X59800Y-31900D03*
X59300Y-32950D03*
X55100Y-35600D03*
X55475Y-35225D03*
X60375Y-39300D03*
X59025Y-35425D03*
X59050Y-39225D03*
X58375Y-39000D03*
X58625Y-38575D03*
X59250Y-38750D03*
G54D34*
X56775Y-36600D03*
G54D35*
X63125Y-32325D03*
X56700Y-34975D03*
X59625Y-34550D03*
X57325Y-36350D03*
X57375Y-37100D03*
X59650Y-33950D03*
X51375Y-38075D03*
X49450Y-32500D03*
X57825Y-37625D03*
X58275Y-31750D03*
X60400Y-37200D03*
G54D34*
X61425Y-34375D03*
G54D35*
X64100Y-33700D03*
G54D34*
X64175Y-36175D03*
X65200Y-36500D03*
X64075Y-32900D03*
X64125Y-34425D03*
G54D35*
X59950Y-37450D03*
X61625Y-36750D03*
X62000Y-34750D03*
G54D34*
X62933Y-33937D03*
X56625Y-32975D03*
X50975Y-38225D03*
X60425Y-38625D03*
X63200Y-37000D03*
X56700Y-38150D03*
X51525Y-36600D03*
X57875Y-38850D03*
X60575Y-33925D03*
X56900Y-35425D03*
X56025Y-34150D03*
X52550Y-38300D03*
X53450Y-36725D03*
X51320Y-32240D03*
X51315Y-33626D03*
X50850Y-33625D03*
G54D35*
X61800Y-35200D03*
X62000Y-35850D03*
X51800Y-38975D03*
G54D34*
X48550Y-36675D03*
G54D35*
X57950Y-34850D03*
G54D34*
X61675Y-36200D03*
X60750Y-37450D03*
X55850Y-36400D03*
X55450Y-32900D03*
X52825Y-33200D03*
X49900Y-33775D03*
G54D35*
X52175Y-36925D03*
G54D34*
X50110Y-39270D03*
X51228Y-34575D03*
X53750Y-34325D03*
X53900Y-32950D03*
X62925Y-33225D03*
X62925Y-34450D03*
X49300Y-35300D03*
X61450Y-34975D03*
X61850Y-33725D03*
X52075Y-34950D03*
X53025Y-34925D03*
X49725Y-32275D03*
X51350Y-37325D03*
X50350Y-36225D03*
X57975Y-36700D03*
X56800Y-38850D03*
X62050Y-37425D03*
X55725Y-35375D03*
X48764Y-32921D03*
X52075Y-33225D03*
X53475Y-37800D03*
X48675Y-35225D03*
X49425Y-38850D03*
X51150Y-32875D03*
X57725Y-32900D03*
X53300Y-35075D03*
X54475Y-32900D03*
X54975Y-33750D03*
X49925Y-34287D03*
X49975Y-32700D03*
G54D35*
X50050Y-35625D03*
G54D34*
X50875Y-35725D03*
X49500Y-37650D03*
X48775Y-33575D03*
X48340Y-31840D03*
G54D35*
X60200Y-35625D03*
X60025Y-32700D03*
X58300Y-37175D03*
X57450Y-32175D03*
X50300Y-38125D03*
X50100Y-33575D03*
X51600Y-32975D03*
X51500Y-35050D03*
X53075Y-37325D03*
X52675Y-38550D03*
X65425Y-35275D03*
X64375Y-34925D03*
X64575Y-35425D03*
X64217Y-36449D03*
G54D36*
X58375Y-39275D02*
X58600Y-39100D01*
X52000Y-38650D02*
X52125Y-38800D01*
X52125Y-38800D02*
X52250Y-39075D01*
X52250Y-39075D02*
X52450Y-39250D01*
X52450Y-39250D02*
X52675Y-39300D01*
X52675Y-39300D02*
X58150Y-39300D01*
X58375Y-39275D02*
X58150Y-39300D01*
X50171Y-38475D02*
X51767Y-38475D01*
X51767Y-38475D02*
X52000Y-38650D01*
X50025Y-38040D02*
X50025Y-38350D01*
X50025Y-38350D02*
X50075Y-38425D01*
X50075Y-38425D02*
X50171Y-38475D01*
X58825Y-38700D02*
X58850Y-38475D01*
X58600Y-39100D02*
X58750Y-38900D01*
X58750Y-38900D02*
X58825Y-38700D01*
X58850Y-38475D02*
X58846Y-38075D01*
G54D37*
X51775Y-37200D02*
X51775Y-37325D01*
X51775Y-37325D02*
X51850Y-37400D01*
G54D36*
X49875Y-36125D02*
X49925Y-36425D01*
X49806Y-37876D02*
X50024Y-37876D01*
X50025Y-37875D02*
X50025Y-38040D01*
X50024Y-37876D02*
X50025Y-37875D01*
X49806Y-37876D02*
X49806Y-37656D01*
X49800Y-37650D02*
X49850Y-37475D01*
X49850Y-37475D02*
X49925Y-36425D01*
X49806Y-37656D02*
X49800Y-37650D01*
X50050Y-36175D02*
X50075Y-35975D01*
X50075Y-35975D02*
X50200Y-35850D01*
X50200Y-35850D02*
X50450Y-35850D01*
X49925Y-36425D02*
X50050Y-36175D01*
X49825Y-35575D02*
X49825Y-35700D01*
X49825Y-35700D02*
X49875Y-36125D01*
X49825Y-35575D02*
X49900Y-35475D01*
X50303Y-34000D02*
X50173Y-34122D01*
X50600Y-34000D02*
X50303Y-34000D01*
G54D38*
X50150Y-34375D02*
X50173Y-34122D01*
G54D36*
X49900Y-35475D02*
X49900Y-34825D01*
X49900Y-34825D02*
X50150Y-34375D01*
X50020Y-37880D02*
X50025Y-38040D01*
X50020Y-37880D02*
X50125Y-37775D01*
X50125Y-37775D02*
X50250Y-37725D01*
X50250Y-37725D02*
X51075Y-37725D01*
X51075Y-37725D02*
X51400Y-37650D01*
X51400Y-37650D02*
X51850Y-37400D01*
X51850Y-37400D02*
X52225Y-37350D01*
X52225Y-37350D02*
X52575Y-37347D01*
G54D38*
X58255Y-38075D02*
X58255Y-37725D01*
X57125Y-32300D02*
X57325Y-32375D01*
X57500Y-32375D02*
X57750Y-32275D01*
X57325Y-32375D02*
X57500Y-32375D01*
X57750Y-32275D02*
X58100Y-32450D01*
X57125Y-32300D02*
X56575Y-32250D01*
X56575Y-32250D02*
X56375Y-32275D01*
X56375Y-32275D02*
X55900Y-32375D01*
X55900Y-32375D02*
X55450Y-32675D01*
X54575Y-32325D02*
X53175Y-32325D01*
X55450Y-32675D02*
X54900Y-32625D01*
X54900Y-32625D02*
X54750Y-32437D01*
X54750Y-32437D02*
X54575Y-32325D01*
X52700Y-32675D02*
X52470Y-32773D01*
X52925Y-32449D02*
X52700Y-32675D01*
X53175Y-32325D02*
X52925Y-32449D01*
X52470Y-32773D02*
X52125Y-32775D01*
X58255Y-37725D02*
X58750Y-37025D01*
X53150Y-36525D02*
X53150Y-36225D01*
X53150Y-36225D02*
X53075Y-36025D01*
X53075Y-36025D02*
X52800Y-36000D01*
X52875Y-36525D02*
X53150Y-36525D01*
X55175Y-37525D02*
X55275Y-37625D01*
X55275Y-37625D02*
X56375Y-37625D01*
X56375Y-37625D02*
X57000Y-37525D01*
X58025Y-36075D02*
X58850Y-35725D01*
X58850Y-35725D02*
X59175Y-35600D01*
X59175Y-35600D02*
X59450Y-35400D01*
X59600Y-35400D02*
X59750Y-35475D01*
X59450Y-35400D02*
X59600Y-35400D01*
X59750Y-35475D02*
X60050Y-35875D01*
X60050Y-35875D02*
X60275Y-36075D01*
X60275Y-36075D02*
X60550Y-36200D01*
X60550Y-36200D02*
X60925Y-36193D01*
X55175Y-36925D02*
X55175Y-37525D01*
X55025Y-36825D02*
X55175Y-36925D01*
X54050Y-36825D02*
X55025Y-36825D01*
X53150Y-36525D02*
X53300Y-36475D01*
X53300Y-36475D02*
X53525Y-36475D01*
X53525Y-36475D02*
X53800Y-36725D01*
X53800Y-36725D02*
X54050Y-36825D01*
X53275Y-35825D02*
X53375Y-36125D01*
X53375Y-36125D02*
X53575Y-36275D01*
X56950Y-38075D02*
X57074Y-38075D01*
X54975Y-36575D02*
X55450Y-36850D01*
X55450Y-37850D02*
X55600Y-37775D01*
X55600Y-37775D02*
X56625Y-37775D01*
X56625Y-37775D02*
X56950Y-38075D01*
X52100Y-35725D02*
X52425Y-35625D01*
X52425Y-35625D02*
X52950Y-35650D01*
X52950Y-35650D02*
X53125Y-35675D01*
X51725Y-35850D02*
X51925Y-35800D01*
X51925Y-35800D02*
X52100Y-35725D01*
X51450Y-35850D02*
X51725Y-35850D01*
X53125Y-35675D02*
X53275Y-35825D01*
X53850Y-36575D02*
X54975Y-36575D01*
X53575Y-36275D02*
X53575Y-36275D01*
X53575Y-36275D02*
X53850Y-36575D01*
X56775Y-34250D02*
X57350Y-34525D01*
X57350Y-34525D02*
X57975Y-34550D01*
X59825Y-35975D02*
X60150Y-36219D01*
X60150Y-36219D02*
X60350Y-36350D01*
X60350Y-36350D02*
X60550Y-36375D01*
X60550Y-36375D02*
X60925Y-36389D01*
X59575Y-35625D02*
X59825Y-35975D01*
X57975Y-34550D02*
X58825Y-34600D01*
X55500Y-34000D02*
X55775Y-33900D01*
X55775Y-33900D02*
X56075Y-33925D01*
X56075Y-33925D02*
X56625Y-34075D01*
X56625Y-34075D02*
X56775Y-34250D01*
X55250Y-33325D02*
X55325Y-33350D01*
X54575Y-35500D02*
X54775Y-35500D01*
X55025Y-35075D02*
X55217Y-34783D01*
X54925Y-35325D02*
X55025Y-35075D01*
X54775Y-35500D02*
X54925Y-35325D01*
X55375Y-34250D02*
X55500Y-34000D01*
X55217Y-34783D02*
X55375Y-34250D01*
X60400Y-33575D02*
X61450Y-32525D01*
X57864Y-33389D02*
X57875Y-33800D01*
X59750Y-34150D02*
X60200Y-33775D01*
X60200Y-33775D02*
X60400Y-33575D01*
X58100Y-34300D02*
X59050Y-34300D01*
X59050Y-34300D02*
X59750Y-34150D01*
X59239Y-38075D02*
X59240Y-37700D01*
X59240Y-37700D02*
X59075Y-37550D01*
X58780Y-36811D02*
X59075Y-36900D01*
X59075Y-36900D02*
X59650Y-36975D01*
X56004Y-37402D02*
X56594Y-37402D01*
X55650Y-37244D02*
X56004Y-37402D01*
X55475Y-37250D02*
X55650Y-37244D01*
X58250Y-36975D02*
X58525Y-36875D01*
X58525Y-36875D02*
X58780Y-36811D01*
X57850Y-37250D02*
X58100Y-37073D01*
X58100Y-37073D02*
X58250Y-36975D01*
X56975Y-37325D02*
X57350Y-37325D01*
X57350Y-37325D02*
X57850Y-37250D01*
X56594Y-37402D02*
X56975Y-37325D01*
G54D10*
X59043Y-33389D02*
X59043Y-33007D01*
X59830Y-33030D02*
X59830Y-33389D01*
X59775Y-32925D02*
X59830Y-33030D01*
X59275Y-32750D02*
X59400Y-32750D01*
X59400Y-32750D02*
X59575Y-32825D01*
X59575Y-32825D02*
X59775Y-32925D01*
X59043Y-33007D02*
X59150Y-32825D01*
X59150Y-32825D02*
X59275Y-32750D01*
X59043Y-33389D02*
X59050Y-33700D01*
G54D38*
X60125Y-36550D02*
X60450Y-36675D01*
X59775Y-36300D02*
X60125Y-36550D01*
G54D10*
X59050Y-33700D02*
X59000Y-33825D01*
G54D38*
X60450Y-36675D02*
X60500Y-36750D01*
X60500Y-36750D02*
X60533Y-36783D01*
X60533Y-36783D02*
X60925Y-36783D01*
X60614Y-36586D02*
X60925Y-36586D01*
X60525Y-36625D02*
X60614Y-36586D01*
X60450Y-36675D02*
X60525Y-36625D01*
X56239Y-34421D02*
X56646Y-34421D01*
X59725Y-35150D02*
X60400Y-35225D01*
X58050Y-35550D02*
X59100Y-35175D01*
X59100Y-35175D02*
X59475Y-35124D01*
X59475Y-35124D02*
X59725Y-35150D01*
X56646Y-34421D02*
X57375Y-35100D01*
X60925Y-37177D02*
X61348Y-37177D01*
X61625Y-37225D02*
X61625Y-37400D01*
X61550Y-37150D02*
X61625Y-37225D01*
X61375Y-37150D02*
X61550Y-37150D01*
X61348Y-37177D02*
X61375Y-37150D01*
X59025Y-39975D02*
X59000Y-40000D01*
X59525Y-39400D02*
X59025Y-39975D01*
X56600Y-36775D02*
X56800Y-36850D01*
X56800Y-36850D02*
X57500Y-36725D01*
X57650Y-36480D02*
X57850Y-36325D01*
X57500Y-36725D02*
X57650Y-36480D01*
X57850Y-36325D02*
X58425Y-36300D01*
X58425Y-36300D02*
X58825Y-35975D01*
X56600Y-36775D02*
X56239Y-36783D01*
X58825Y-36475D02*
X59025Y-36475D01*
X58825Y-36475D02*
X58475Y-36450D01*
X58475Y-36450D02*
X57900Y-36475D01*
X57900Y-36475D02*
X57750Y-36600D01*
X57750Y-36600D02*
X57625Y-36850D01*
X57625Y-36850D02*
X56775Y-37000D01*
X56775Y-37000D02*
X56600Y-36972D01*
X56600Y-36972D02*
X56239Y-36980D01*
X60925Y-35012D02*
X60575Y-35025D01*
X60575Y-35025D02*
X59850Y-34950D01*
X60000Y-31025D02*
X60000Y-31000D01*
X60275Y-32100D02*
X60000Y-31025D01*
X60575Y-32525D02*
X61000Y-31000D01*
X60600Y-34825D02*
X60450Y-34743D01*
X60450Y-34743D02*
X60350Y-34375D01*
X60925Y-34815D02*
X60600Y-34825D01*
X65000Y-31000D02*
X64825Y-31375D01*
X64825Y-31375D02*
X64450Y-31625D01*
X64450Y-31625D02*
X63925Y-31660D01*
X63925Y-31660D02*
X63725Y-31725D01*
X63725Y-31725D02*
X63575Y-31883D01*
X63575Y-31883D02*
X63400Y-32175D01*
X63400Y-32175D02*
X63275Y-32975D01*
X61550Y-34625D02*
X61750Y-34450D01*
X61750Y-34450D02*
X62100Y-33750D01*
X62100Y-33750D02*
X62200Y-33675D01*
X62875Y-33575D02*
X63175Y-33325D01*
X62200Y-33675D02*
X62875Y-33575D01*
X63175Y-33325D02*
X63275Y-32975D01*
X61550Y-34625D02*
X60925Y-34618D01*
X63000Y-31000D02*
X62650Y-31425D01*
X60775Y-32650D02*
X60625Y-32800D01*
X60625Y-32800D02*
X60375Y-32875D01*
X61075Y-32100D02*
X60875Y-32400D01*
X60875Y-32400D02*
X60775Y-32650D01*
X61450Y-31825D02*
X61075Y-32100D01*
X62650Y-31425D02*
X61450Y-31825D01*
X60027Y-33389D02*
X60025Y-33075D01*
X60100Y-32950D02*
X60375Y-32875D01*
X60375Y-32875D02*
X60375Y-32875D01*
X60025Y-33075D02*
X60100Y-32950D01*
X65000Y-40000D02*
X64100Y-39400D01*
X62127Y-35602D02*
X62200Y-35675D01*
X62850Y-35675D02*
X63000Y-35750D01*
X63000Y-35750D02*
X63225Y-36100D01*
X62200Y-35675D02*
X62850Y-35675D01*
X63225Y-36100D02*
X63575Y-36775D01*
X63575Y-36775D02*
X63675Y-38700D01*
X63725Y-38950D02*
X63875Y-39200D01*
X63875Y-39200D02*
X64100Y-39400D01*
X63675Y-38700D02*
X63725Y-38950D01*
X62127Y-35602D02*
X60925Y-35602D01*
X59043Y-38075D02*
X59050Y-38425D01*
X59050Y-38425D02*
X59000Y-38825D01*
X52675Y-39475D02*
X52375Y-39621D01*
X52375Y-39621D02*
X52000Y-40000D01*
X59000Y-38825D02*
X58775Y-39212D01*
X58775Y-39212D02*
X58425Y-39475D01*
X58425Y-39475D02*
X52675Y-39475D01*
X58846Y-33025D02*
X59075Y-32650D01*
X59075Y-32650D02*
X59275Y-32250D01*
X58846Y-33389D02*
X58846Y-33025D01*
X57150Y-31175D02*
X57000Y-31000D01*
X57500Y-31375D02*
X57150Y-31175D01*
X57800Y-31500D02*
X57500Y-31375D01*
X58750Y-31550D02*
X57800Y-31500D01*
X58725Y-32710D02*
X58700Y-32250D01*
X58649Y-33025D02*
X58725Y-32710D01*
X58649Y-33389D02*
X58649Y-33025D01*
X56050Y-31175D02*
X56000Y-31000D01*
X56425Y-31375D02*
X56050Y-31175D01*
X56800Y-31525D02*
X56425Y-31375D01*
X57375Y-31575D02*
X56800Y-31525D01*
X58452Y-33389D02*
X58452Y-32927D01*
X58452Y-32927D02*
X58450Y-33000D01*
X55075Y-31125D02*
X55000Y-31000D01*
X55175Y-31250D02*
X55075Y-31125D01*
X55450Y-31500D02*
X55175Y-31250D01*
X55875Y-31625D02*
X55450Y-31500D01*
X56275Y-31575D02*
X55875Y-31625D01*
X57275Y-32550D02*
X57100Y-32525D01*
X58250Y-33050D02*
X58175Y-32800D01*
X57425Y-32525D02*
X57275Y-32550D01*
X57750Y-32475D02*
X57425Y-32525D01*
X58000Y-32625D02*
X57750Y-32475D01*
X58175Y-32800D02*
X58000Y-32625D01*
X58250Y-33050D02*
X58255Y-33389D01*
X56825Y-32750D02*
X56475Y-32475D01*
X57375Y-32750D02*
X56825Y-32750D01*
X57750Y-32650D02*
X57375Y-32750D01*
X57925Y-32750D02*
X57750Y-32650D01*
X58061Y-33061D02*
X57925Y-32750D01*
X58061Y-33061D02*
X58061Y-33389D01*
X50300Y-31425D02*
X50000Y-31000D01*
X54875Y-31575D02*
X50875Y-31575D01*
X50875Y-31575D02*
X50300Y-31425D01*
X55550Y-31850D02*
X54875Y-31575D01*
X57667Y-33389D02*
X57675Y-33725D01*
X56750Y-33750D02*
X56100Y-33375D01*
X56100Y-33375D02*
X56100Y-33375D01*
X56100Y-33375D02*
X56100Y-33375D01*
X56750Y-33750D02*
X56750Y-33750D01*
X56953Y-33933D02*
X56750Y-33750D01*
X57465Y-33933D02*
X56953Y-33933D01*
X57675Y-33725D02*
X57465Y-33933D01*
X57475Y-33700D02*
X57406Y-33795D01*
X57406Y-33795D02*
X57024Y-33787D01*
X57024Y-33787D02*
X56825Y-33625D01*
X56825Y-33625D02*
X55950Y-32575D01*
X57470Y-33389D02*
X57475Y-33700D01*
X49375Y-31425D02*
X49000Y-31000D01*
X49975Y-31725D02*
X49375Y-31425D01*
X54775Y-31725D02*
X49975Y-31725D01*
X55075Y-31900D02*
X54775Y-31725D01*
X55725Y-35625D02*
X55875Y-35601D01*
X55875Y-35601D02*
X56239Y-35602D01*
X55725Y-35625D02*
X55500Y-35775D01*
X55500Y-35775D02*
X55375Y-36075D01*
X55875Y-35800D02*
X56239Y-35799D01*
X59475Y-31525D02*
X59000Y-31000D01*
X59750Y-31725D02*
X59475Y-31525D01*
X59800Y-31900D02*
X59750Y-31725D01*
X59250Y-33050D02*
X59300Y-32950D01*
X59250Y-33050D02*
X59239Y-33389D01*
X55800Y-34600D02*
X55501Y-34761D01*
X55162Y-35226D02*
X55100Y-35600D01*
X55501Y-34761D02*
X55162Y-35226D01*
X56239Y-34618D02*
X55800Y-34600D01*
X56239Y-34815D02*
X55844Y-34821D01*
G54D10*
X55550Y-35100D02*
X55475Y-35225D01*
X55844Y-34821D02*
X55550Y-35100D01*
G54D38*
X60375Y-39300D02*
X61000Y-40000D01*
X56239Y-36193D02*
X56600Y-36200D01*
X57900Y-35900D02*
X59025Y-35425D01*
X57550Y-36350D02*
X57900Y-35900D01*
X57425Y-36550D02*
X57550Y-36350D01*
X57225Y-36575D02*
X57425Y-36550D01*
X57075Y-36525D02*
X57225Y-36575D01*
X56600Y-36200D02*
X57075Y-36525D01*
X58450Y-38400D02*
X58452Y-38075D01*
X58325Y-38675D02*
X58375Y-39000D01*
X58375Y-38525D02*
X58325Y-38675D01*
X58450Y-38400D02*
X58375Y-38525D01*
X62000Y-40000D02*
X61700Y-39475D01*
X61700Y-39475D02*
X61525Y-39300D01*
X61275Y-39175D02*
X61525Y-39300D01*
X59050Y-39225D02*
X59450Y-39042D01*
X59450Y-39042D02*
X60925Y-39100D01*
X60925Y-39100D02*
X61275Y-39175D01*
X63000Y-40000D02*
X62775Y-39475D01*
X62775Y-39475D02*
X62775Y-39450D01*
X58650Y-38425D02*
X58650Y-38425D01*
X58650Y-38425D02*
X58625Y-38575D01*
X59250Y-38750D02*
X60200Y-38900D01*
X60200Y-38900D02*
X61910Y-38980D01*
X61910Y-38980D02*
X62425Y-39150D01*
X62425Y-39150D02*
X62775Y-39450D01*
X62775Y-39450D02*
X62775Y-39450D01*
X58649Y-38075D02*
X58650Y-38425D01*
X64000Y-40000D02*
X63725Y-39600D01*
X63725Y-39600D02*
X63725Y-39646D01*
X61649Y-35799D02*
X60925Y-35799D01*
X63425Y-38650D02*
X63525Y-39075D01*
X63525Y-39075D02*
X63725Y-39646D01*
X63725Y-39646D02*
X63700Y-39575D01*
X63425Y-36850D02*
X63425Y-38650D01*
X63150Y-36350D02*
X63425Y-36850D01*
X62225Y-36200D02*
X62900Y-36200D01*
X62900Y-36200D02*
X63150Y-36350D01*
X61950Y-36100D02*
X62225Y-36200D01*
X61950Y-36100D02*
X61950Y-36100D01*
X61649Y-35799D02*
X61950Y-36100D01*
G54D10*
X56239Y-36586D02*
X56761Y-36586D01*
X56761Y-36586D02*
X56775Y-36600D01*
G54D38*
X62825Y-32925D02*
X63125Y-32325D01*
X62825Y-32925D02*
X62675Y-33025D01*
X59075Y-34700D02*
X59275Y-34475D01*
X59275Y-34475D02*
X59500Y-34350D01*
X59500Y-34350D02*
X59650Y-34325D01*
X59650Y-34325D02*
X59850Y-34300D01*
X60450Y-33725D02*
X60650Y-33650D01*
X60650Y-33650D02*
X62675Y-33025D01*
X59850Y-34300D02*
X60450Y-33725D01*
X56600Y-35400D02*
X56725Y-35175D01*
X56725Y-35175D02*
X56925Y-35100D01*
X56925Y-35100D02*
X57350Y-35325D01*
X57350Y-35325D02*
X57850Y-35200D01*
X57850Y-35200D02*
X58875Y-34825D01*
X58875Y-34825D02*
X59075Y-34700D01*
X56239Y-35405D02*
X56600Y-35400D01*
X56239Y-35012D02*
X56525Y-35000D01*
X56525Y-35000D02*
X56700Y-34975D01*
X57850Y-35425D02*
X57750Y-35575D01*
X57750Y-35575D02*
X57325Y-36350D01*
X57850Y-35425D02*
X57975Y-35350D01*
X57975Y-35350D02*
X58950Y-35025D01*
X58950Y-35025D02*
X59625Y-34550D01*
G54D10*
X59650Y-33950D02*
X59633Y-33382D01*
G54D38*
X56239Y-37177D02*
X56650Y-37175D01*
X56650Y-37175D02*
X57375Y-37100D01*
X58800Y-36650D02*
X59100Y-36700D01*
X58275Y-36750D02*
X58500Y-36650D01*
X58500Y-36650D02*
X58800Y-36650D01*
X57950Y-37000D02*
X58275Y-36750D01*
X57375Y-37100D02*
X57950Y-37000D01*
X59100Y-36700D02*
X59825Y-36725D01*
X59825Y-36725D02*
X60250Y-36925D01*
X60250Y-36925D02*
X60525Y-36975D01*
X60525Y-36975D02*
X60925Y-36980D01*
X51375Y-38075D02*
X51675Y-38075D01*
X51675Y-38075D02*
X51975Y-38225D01*
X51975Y-38225D02*
X52150Y-38475D01*
X52150Y-38475D02*
X52250Y-38650D01*
X52250Y-38650D02*
X52375Y-38900D01*
X52375Y-38900D02*
X52525Y-39050D01*
X52525Y-39050D02*
X52825Y-39150D01*
X52825Y-39150D02*
X57960Y-39135D01*
X58080Y-39060D02*
X58090Y-39060D01*
X57960Y-39135D02*
X58080Y-39060D01*
X57665Y-38075D02*
X57665Y-38375D01*
X57850Y-38525D02*
X57665Y-38375D01*
X58080Y-38620D02*
X57850Y-38525D01*
X58125Y-38750D02*
X58080Y-38620D01*
X58125Y-38925D02*
X58125Y-38750D01*
X58090Y-39060D02*
X58125Y-38925D01*
X49775Y-32500D02*
X49875Y-32475D01*
X49875Y-32475D02*
X49950Y-32400D01*
X49950Y-32400D02*
X50000Y-32275D01*
X50000Y-32275D02*
X50100Y-32175D01*
X49450Y-32500D02*
X49775Y-32500D01*
X57862Y-38075D02*
X57850Y-38050D01*
X57850Y-37750D02*
X57850Y-38050D01*
X57825Y-37625D02*
X57850Y-37750D01*
X57475Y-31800D02*
X58275Y-31750D01*
X56725Y-31750D02*
X57475Y-31800D01*
X55350Y-32225D02*
X55750Y-31950D01*
X55750Y-31950D02*
X55875Y-31859D01*
X55875Y-31859D02*
X56725Y-31750D01*
X54725Y-31875D02*
X55000Y-32100D01*
X55000Y-32100D02*
X55125Y-32200D01*
X55125Y-32200D02*
X55350Y-32225D01*
X51300Y-32000D02*
X52300Y-32000D01*
X52300Y-32000D02*
X53000Y-31875D01*
X53000Y-31875D02*
X54725Y-31875D01*
X50100Y-32175D02*
X50275Y-32100D01*
X50275Y-32100D02*
X51300Y-32000D01*
X59436Y-38075D02*
X59429Y-37750D01*
G54D10*
X59429Y-37750D02*
X59875Y-37225D01*
G54D38*
X59875Y-37225D02*
X60050Y-37150D01*
X60050Y-37150D02*
X60400Y-37200D01*
X62155Y-38400D02*
X61825Y-38400D01*
X61625Y-38200D02*
X61625Y-38000D01*
X61825Y-38400D02*
X61625Y-38200D01*
G54D36*
X54575Y-36125D02*
X54800Y-36125D01*
X54800Y-36125D02*
X55050Y-36175D01*
X55050Y-36175D02*
X55275Y-36294D01*
X55275Y-36294D02*
X55475Y-36294D01*
X56235Y-36000D02*
X56239Y-35996D01*
G54D38*
X55904Y-36000D02*
X56235Y-36000D01*
G54D36*
X55475Y-36294D02*
X55700Y-36050D01*
G54D38*
X55700Y-36050D02*
X55904Y-36000D01*
G54D36*
X54575Y-34900D02*
X54725Y-34900D01*
X56700Y-33925D02*
X56875Y-34100D01*
X59425Y-33700D02*
X59436Y-33389D01*
X59225Y-33950D02*
X59425Y-33700D01*
X59050Y-34050D02*
X59225Y-33950D01*
X55300Y-33850D02*
X55525Y-33700D01*
X55125Y-34100D02*
X55300Y-33850D01*
X55039Y-34646D02*
X55125Y-34100D01*
X54725Y-34900D02*
X54921Y-34843D01*
X54921Y-34843D02*
X55039Y-34646D01*
X55975Y-33700D02*
X56700Y-33925D01*
X55725Y-33675D02*
X55975Y-33700D01*
X55525Y-33700D02*
X55725Y-33675D01*
X57717Y-34106D02*
X59050Y-34050D01*
X56875Y-34100D02*
X57200Y-34225D01*
X57200Y-34225D02*
X57500Y-34175D01*
X57500Y-34175D02*
X57717Y-34106D01*
G54D38*
X60450Y-37800D02*
X60275Y-37800D01*
X59825Y-38075D02*
X59830Y-38075D01*
X59825Y-37775D02*
X59825Y-38075D01*
X59925Y-37675D02*
X59825Y-37775D01*
X60150Y-37675D02*
X59925Y-37675D01*
X60275Y-37800D02*
X60150Y-37675D01*
X61429Y-34421D02*
X61425Y-34375D01*
X60925Y-34421D02*
X61429Y-34421D01*
G54D36*
X48000Y-36000D02*
X49075Y-36475D01*
X49075Y-36475D02*
X49375Y-36475D01*
X49375Y-36675D02*
X49375Y-36475D01*
X49375Y-36475D02*
X49375Y-36225D01*
G54D39*
X66000Y-36000D02*
X65950Y-36175D01*
G54D36*
X65375Y-36725D02*
X65225Y-36775D01*
G54D39*
X65950Y-36175D02*
X65375Y-36725D01*
G54D36*
X64100Y-33700D02*
X64100Y-33450D01*
X64100Y-33450D02*
X64100Y-33450D01*
X64100Y-33450D02*
X64405Y-33450D01*
X64543Y-36939D02*
X64550Y-36725D01*
X64550Y-36725D02*
X64475Y-36725D01*
X64475Y-36725D02*
X64225Y-36700D01*
X65225Y-37000D02*
X65225Y-36775D01*
X65225Y-36775D02*
X64975Y-36775D01*
X64610Y-36730D02*
X64550Y-36725D01*
X64900Y-36725D02*
X64610Y-36730D01*
X64975Y-36775D02*
X64900Y-36725D01*
X64100Y-33700D02*
X64450Y-33725D01*
X64450Y-33725D02*
X64550Y-33775D01*
X64550Y-33775D02*
X64543Y-33939D01*
X66000Y-33000D02*
X65225Y-34050D01*
X65225Y-34050D02*
X65217Y-34267D01*
X65200Y-36450D02*
X65200Y-36500D01*
X65200Y-36450D02*
X65200Y-36225D01*
X64225Y-32950D02*
X64425Y-32950D01*
X64075Y-32900D02*
X64225Y-32950D01*
X64550Y-34175D02*
X64543Y-34439D01*
X64125Y-34425D02*
X64200Y-34175D01*
X64200Y-34175D02*
X64550Y-34175D01*
X65225Y-37850D02*
X64875Y-37850D01*
X64875Y-37850D02*
X64550Y-37650D01*
X64550Y-37650D02*
X64543Y-37439D01*
X65225Y-37600D02*
X65225Y-37850D01*
X65225Y-37850D02*
X66000Y-38000D01*
G54D38*
X59633Y-38075D02*
X59633Y-37742D01*
X59633Y-37742D02*
X59950Y-37450D01*
X61625Y-36750D02*
X62175Y-36425D01*
X62175Y-36425D02*
X62543Y-36439D01*
X62000Y-34750D02*
X62164Y-34939D01*
X62164Y-34939D02*
X62543Y-34939D01*
G54D39*
X62931Y-33939D02*
X62933Y-33937D01*
X62931Y-33939D02*
X62543Y-33939D01*
G54D36*
X57077Y-33389D02*
X57077Y-33002D01*
X57050Y-32975D02*
X56625Y-32975D01*
X57077Y-33002D02*
X57050Y-32975D01*
G54D38*
X60027Y-38075D02*
X60027Y-38452D01*
X60200Y-38625D02*
X60425Y-38625D01*
X60027Y-38452D02*
X60200Y-38625D01*
G54D39*
X62543Y-36939D02*
X63214Y-36939D01*
X63214Y-36939D02*
X63200Y-37000D01*
X56700Y-38150D02*
X56700Y-38150D01*
G54D36*
X56400Y-38150D02*
X56700Y-38150D01*
G54D39*
X51525Y-36600D02*
X51450Y-36600D01*
G54D10*
X57468Y-38075D02*
X57468Y-38393D01*
X57468Y-38393D02*
X57875Y-38850D01*
G54D38*
X60624Y-34224D02*
X60925Y-34224D01*
X60575Y-33925D02*
X60624Y-34224D01*
G54D10*
X56239Y-34224D02*
X55824Y-34224D01*
X55824Y-34224D02*
X56025Y-34150D01*
G54D40*
X53875Y-37075D02*
X54275Y-37091D01*
X53450Y-36725D02*
X53875Y-37075D01*
G54D36*
X52125Y-32975D02*
X51831Y-32976D01*
X51475Y-32325D02*
X51320Y-32240D01*
X51768Y-32827D02*
X51475Y-32325D01*
X51831Y-32976D02*
X51768Y-32827D01*
X50650Y-32375D02*
X50375Y-32375D01*
X51320Y-32240D02*
X50650Y-32375D01*
X52350Y-33800D02*
X52025Y-33800D01*
G54D40*
X52025Y-33800D02*
X51325Y-33625D01*
G54D39*
X51325Y-33625D02*
X51315Y-33626D01*
G54D36*
X50850Y-33625D02*
X50875Y-33700D01*
X50875Y-33700D02*
X50825Y-33800D01*
X50825Y-33800D02*
X50600Y-33800D01*
G54D38*
X60925Y-35208D02*
X61642Y-35208D01*
X61642Y-35208D02*
X61800Y-35200D01*
X62000Y-35850D02*
X62200Y-35939D01*
X62200Y-35939D02*
X62543Y-35939D01*
X60925Y-35405D02*
X61925Y-35400D01*
X61925Y-35400D02*
X62175Y-35450D01*
X62175Y-35450D02*
X62543Y-35439D01*
G54D37*
X51375Y-38800D02*
X51345Y-38800D01*
X51625Y-38800D02*
X51375Y-38800D01*
X51700Y-38875D02*
X51625Y-38800D01*
X51800Y-38975D02*
X51700Y-38875D01*
G54D36*
X48700Y-35200D02*
X48675Y-35225D01*
X53050Y-38775D02*
X52875Y-38775D01*
X52575Y-37875D02*
X52575Y-37859D01*
X52450Y-38000D02*
X52575Y-37875D01*
X52450Y-38050D02*
X52450Y-38000D01*
X52300Y-38200D02*
X52450Y-38050D01*
X52325Y-38450D02*
X52300Y-38200D01*
X52425Y-38600D02*
X52325Y-38450D01*
X52425Y-38600D02*
X52425Y-38600D01*
X52575Y-38800D02*
X52425Y-38600D01*
X52775Y-38800D02*
X52575Y-38800D01*
X52875Y-38775D02*
X52775Y-38800D01*
G54D38*
X62543Y-37439D02*
X62543Y-37693D01*
X62543Y-37693D02*
X62550Y-37700D01*
X62550Y-37700D02*
X62550Y-37697D01*
X62745Y-38400D02*
X62925Y-38400D01*
X62925Y-38400D02*
X63000Y-38350D01*
X62675Y-37850D02*
X62550Y-37697D01*
X62875Y-38000D02*
X62675Y-37850D01*
X63000Y-38150D02*
X62875Y-38000D01*
X63000Y-38350D02*
X63000Y-38150D01*
X61225Y-37800D02*
X61050Y-37800D01*
X61275Y-37700D02*
X61225Y-37800D01*
X61275Y-37500D02*
X61275Y-37700D01*
X61250Y-37475D02*
X61275Y-37500D01*
X60775Y-37475D02*
X61250Y-37475D01*
X60750Y-37450D02*
X60775Y-37475D01*
G54D10*
X56239Y-36389D02*
X55850Y-36400D01*
G54D38*
X52125Y-33175D02*
X52075Y-33225D01*
G54D36*
X52350Y-34200D02*
X51975Y-34200D01*
G54D40*
X51228Y-34583D02*
X51228Y-34575D01*
X51975Y-34200D02*
X51228Y-34583D01*
G54D39*
X62543Y-34439D02*
X62925Y-34450D01*
G54D36*
X56400Y-38700D02*
X56625Y-38700D01*
X56819Y-38800D02*
X56850Y-38831D01*
X56850Y-38831D02*
X56800Y-38850D01*
X56625Y-38700D02*
X56819Y-38800D01*
G54D39*
X50350Y-36225D02*
X50450Y-36225D01*
G54D10*
X57271Y-38075D02*
X57271Y-38404D01*
X57271Y-38404D02*
X56800Y-38850D01*
G54D39*
X62543Y-37693D02*
X62550Y-37697D01*
X62550Y-37697D02*
X62200Y-37700D01*
X62200Y-37700D02*
X62050Y-37425D01*
G54D36*
X49075Y-32925D02*
X49050Y-32925D01*
X49050Y-32925D02*
X48764Y-32921D01*
G54D39*
X48700Y-34875D02*
X48700Y-35200D01*
X48700Y-35200D02*
X48925Y-35300D01*
X48925Y-35300D02*
X49300Y-35300D01*
X49300Y-35300D02*
X49375Y-35500D01*
X49375Y-35500D02*
X49375Y-35625D01*
G54D40*
X53000Y-37850D02*
X52575Y-37859D01*
X53475Y-37800D02*
X53000Y-37850D01*
G54D41*
X47125Y-32725D02*
X46975Y-32725D01*
X46975Y-32725D02*
X46799Y-32705D01*
X46799Y-32705D02*
X46791Y-32153D01*
X46791Y-32153D02*
X47000Y-32000D01*
G54D39*
X49425Y-38624D02*
X49425Y-38850D01*
X49550Y-38624D02*
X49425Y-38624D01*
X49425Y-38624D02*
X49294Y-38624D01*
G54D36*
X51150Y-32875D02*
X51500Y-33200D01*
X51748Y-33175D02*
X52125Y-33175D01*
X51696Y-33206D02*
X51748Y-33175D01*
X51500Y-33200D02*
X51696Y-33206D01*
G54D38*
X57274Y-33389D02*
X57275Y-33050D01*
X57400Y-32925D02*
X57725Y-32900D01*
X57275Y-33050D02*
X57400Y-32925D01*
G54D42*
X53284Y-33525D02*
X53287Y-34256D01*
X53323Y-34921D02*
X53300Y-35075D01*
X53287Y-34256D02*
X53323Y-34921D01*
G54D41*
X54475Y-32900D02*
X54466Y-32909D01*
X54466Y-32909D02*
X54466Y-33525D01*
X54466Y-33525D02*
X54600Y-33525D01*
X54600Y-33525D02*
X54975Y-33750D01*
G54D37*
X50755Y-38800D02*
X50500Y-38800D01*
X50450Y-39450D02*
X51000Y-40000D01*
X50450Y-38850D02*
X50450Y-39450D01*
X50500Y-38800D02*
X50450Y-38850D01*
G54D39*
X49925Y-34287D02*
X49850Y-34350D01*
X48775Y-34225D02*
X48775Y-33575D01*
X48950Y-34350D02*
X48775Y-34225D01*
X49850Y-34350D02*
X48950Y-34350D01*
G54D36*
X49675Y-32925D02*
X49900Y-32925D01*
X49975Y-32750D02*
X49975Y-32700D01*
X49900Y-32925D02*
X49975Y-32750D01*
G54D40*
X50125Y-35525D02*
X50750Y-35525D01*
X50125Y-35525D02*
X50050Y-35625D01*
X50750Y-35525D02*
X50875Y-35725D01*
G54D36*
X49294Y-37876D02*
X49300Y-37675D01*
X49300Y-37675D02*
X49500Y-37650D01*
X48325Y-33875D02*
X48325Y-33650D01*
X48325Y-33650D02*
X48775Y-33575D01*
G54D42*
X47725Y-32725D02*
X48225Y-32725D01*
X48225Y-32725D02*
X48250Y-32225D01*
X48250Y-32225D02*
X48125Y-32100D01*
X48125Y-32100D02*
X47854Y-32100D01*
G54D41*
X47000Y-31000D02*
X47000Y-31025D01*
X47000Y-31025D02*
X47475Y-31500D01*
X47475Y-31500D02*
X47475Y-31925D01*
X47475Y-31925D02*
X47650Y-32100D01*
X47650Y-32100D02*
X47854Y-32100D01*
X49375Y-31725D02*
X48500Y-31725D01*
X49375Y-31725D02*
X49500Y-31780D01*
X49500Y-31780D02*
X49520Y-32000D01*
X49520Y-32000D02*
X49450Y-32100D01*
X49450Y-32100D02*
X49146Y-32100D01*
X48500Y-31725D02*
X48340Y-31840D01*
G54D38*
X54675Y-32025D02*
X53125Y-32025D01*
X60575Y-36000D02*
X60200Y-35625D01*
X52125Y-32375D02*
X52528Y-32378D01*
X59600Y-32075D02*
X60025Y-32700D01*
X59550Y-31850D02*
X59600Y-32075D01*
X59350Y-31675D02*
X59550Y-31850D01*
X59075Y-31725D02*
X59350Y-31675D01*
X58900Y-31975D02*
X59075Y-31725D01*
X58525Y-32025D02*
X58900Y-31975D01*
X58350Y-32000D02*
X58525Y-32025D01*
X57600Y-31975D02*
X58350Y-32000D01*
X56725Y-31925D02*
X57600Y-31975D01*
X55375Y-32375D02*
X55800Y-32075D01*
X55800Y-32075D02*
X56725Y-31925D01*
X55075Y-32350D02*
X55375Y-32375D01*
X54675Y-32025D02*
X54925Y-32208D01*
X54925Y-32208D02*
X55075Y-32350D01*
X52775Y-32170D02*
X53125Y-32025D01*
X52528Y-32378D02*
X52775Y-32170D01*
X60575Y-36000D02*
X60925Y-35996D01*
X58058Y-38075D02*
X58058Y-37602D01*
X58058Y-37602D02*
X58300Y-37175D01*
X52425Y-32575D02*
X52125Y-32575D01*
X52875Y-32300D02*
X52600Y-32508D01*
X52600Y-32508D02*
X52425Y-32575D01*
X54625Y-32175D02*
X53175Y-32175D01*
X53175Y-32175D02*
X52875Y-32300D01*
X56650Y-32075D02*
X55850Y-32225D01*
X55850Y-32225D02*
X55425Y-32525D01*
X55425Y-32525D02*
X55000Y-32500D01*
X55000Y-32500D02*
X54850Y-32350D01*
X54850Y-32350D02*
X54625Y-32175D01*
X56800Y-32075D02*
X56650Y-32075D01*
X57450Y-32175D02*
X56800Y-32075D01*
X50375Y-32975D02*
X50700Y-32975D01*
X50700Y-32975D02*
X51089Y-33364D01*
X51087Y-34173D02*
X50875Y-34400D01*
X51089Y-33364D02*
X51087Y-34173D01*
X50875Y-34400D02*
X50600Y-34400D01*
X55025Y-38025D02*
X55025Y-37800D01*
X55025Y-37800D02*
X54875Y-37675D01*
X54647Y-37347D02*
X54647Y-37497D01*
X54647Y-37497D02*
X54750Y-37625D01*
X54750Y-37625D02*
X54900Y-37625D01*
X54900Y-37625D02*
X55025Y-37725D01*
X55025Y-37725D02*
X55025Y-38025D01*
G54D10*
X54275Y-37347D02*
X54647Y-37347D01*
G54D38*
X54675Y-37250D02*
X54875Y-37250D01*
X54647Y-37347D02*
X54675Y-37250D01*
G54D36*
X55500Y-38700D02*
X55500Y-38260D01*
X55500Y-38260D02*
X55600Y-38150D01*
X55600Y-38150D02*
X55800Y-38150D01*
G54D38*
X55025Y-38625D02*
X55025Y-38875D01*
X54560Y-37860D02*
X54640Y-37940D01*
X54750Y-38875D02*
X55025Y-38875D01*
X54650Y-38750D02*
X54750Y-38875D01*
X54640Y-37940D02*
X54650Y-38750D01*
X54275Y-37859D02*
X54560Y-37860D01*
X55025Y-38875D02*
X55300Y-38875D01*
X55300Y-38875D02*
X55500Y-38700D01*
G54D36*
X55500Y-38700D02*
X55800Y-38700D01*
X54275Y-38350D02*
X53925Y-38350D01*
X53925Y-38700D02*
X53850Y-38775D01*
X53850Y-38775D02*
X53650Y-38775D01*
X53925Y-38350D02*
X53925Y-38700D01*
G54D38*
X54275Y-37603D02*
X53950Y-37600D01*
X53950Y-37600D02*
X53900Y-37700D01*
X53900Y-37700D02*
X53900Y-37950D01*
X53900Y-37950D02*
X53900Y-37950D01*
X53900Y-37950D02*
X53925Y-38225D01*
X53650Y-38225D02*
X53925Y-38225D01*
X53925Y-38225D02*
X53925Y-38225D01*
X53925Y-38225D02*
X53925Y-38350D01*
X52200Y-37600D02*
X51850Y-37800D01*
X51850Y-37800D02*
X51475Y-37850D01*
X51475Y-37850D02*
X51200Y-37900D01*
X51200Y-37900D02*
X50950Y-37950D01*
X50950Y-37950D02*
X50600Y-37950D01*
X50600Y-37950D02*
X50300Y-38125D01*
X52575Y-37603D02*
X52200Y-37600D01*
X50094Y-33248D02*
X50181Y-33174D01*
X50181Y-33174D02*
X50375Y-33175D01*
X50100Y-33575D02*
X50094Y-33248D01*
X50375Y-32575D02*
X51200Y-32575D01*
X51200Y-32575D02*
X51600Y-32975D01*
X51500Y-35050D02*
X51600Y-35150D01*
X51600Y-35150D02*
X51775Y-35150D01*
X51775Y-35150D02*
X51825Y-35083D01*
X51825Y-35083D02*
X51825Y-34625D01*
X51825Y-34625D02*
X52050Y-34400D01*
X52050Y-34400D02*
X52350Y-34400D01*
G54D36*
X50600Y-34600D02*
X50800Y-34600D01*
X50800Y-34600D02*
X50975Y-34775D01*
G54D38*
X50975Y-34775D02*
X51142Y-34775D01*
G54D36*
X53750Y-36125D02*
X53975Y-36125D01*
X53425Y-35700D02*
X53550Y-35975D01*
X53550Y-35975D02*
X53750Y-36125D01*
X51800Y-35525D02*
X52050Y-35475D01*
X52050Y-35475D02*
X52375Y-35375D01*
X52375Y-35375D02*
X52725Y-35350D01*
X52725Y-35350D02*
X53150Y-35492D01*
X53150Y-35492D02*
X53425Y-35700D01*
X51300Y-35450D02*
X51375Y-35525D01*
X51375Y-35525D02*
X51800Y-35525D01*
G54D38*
X51300Y-34925D02*
X51300Y-35450D01*
X51142Y-34775D02*
X51300Y-34925D01*
G54D36*
X53675Y-35500D02*
X53975Y-35500D01*
X53492Y-35299D02*
X53675Y-35500D01*
X52350Y-34600D02*
X52600Y-34600D01*
X52600Y-34600D02*
X52736Y-34717D01*
X52736Y-34717D02*
X52760Y-34894D01*
X52760Y-34894D02*
X52827Y-35094D01*
X52827Y-35094D02*
X53205Y-35319D01*
X53205Y-35319D02*
X53492Y-35299D01*
X53756Y-34898D02*
X53975Y-34900D01*
X53600Y-35000D02*
X53756Y-34898D01*
X53492Y-35299D02*
X53600Y-35000D01*
G54D38*
X52575Y-37091D02*
X52950Y-37100D01*
X52950Y-37100D02*
X53075Y-37325D01*
X52675Y-38550D02*
X52850Y-38225D01*
X52850Y-38225D02*
X53050Y-38225D01*
G54D36*
X47775Y-34150D02*
X48075Y-34150D01*
X48325Y-34575D02*
X48325Y-34875D01*
X48075Y-34150D02*
X48325Y-34575D01*
X47775Y-33925D02*
X47775Y-34150D01*
X47775Y-34150D02*
X47775Y-34375D01*
G54D10*
X51000Y-35150D02*
X51000Y-35400D01*
X51125Y-35900D02*
X50750Y-36600D01*
X51125Y-35500D02*
X51125Y-35900D01*
X51000Y-35400D02*
X51125Y-35500D01*
X50300Y-37350D02*
X50125Y-37350D01*
X50750Y-36825D02*
X50750Y-36600D01*
X50650Y-36900D02*
X50750Y-36825D01*
X50200Y-36900D02*
X50650Y-36900D01*
X50075Y-37025D02*
X50200Y-36900D01*
X50125Y-37350D02*
X50075Y-37250D01*
X50075Y-37250D02*
X50075Y-37025D01*
X50750Y-36600D02*
X50450Y-36600D01*
X51450Y-36225D02*
X51225Y-36225D01*
X51050Y-37350D02*
X50900Y-37350D01*
X51150Y-37250D02*
X51050Y-37350D01*
X51150Y-36475D02*
X51150Y-37250D01*
X51225Y-36225D02*
X51150Y-36300D01*
X51150Y-36300D02*
X51150Y-36475D01*
G54D38*
X51450Y-36225D02*
X51725Y-36225D01*
X52100Y-36525D02*
X52275Y-36525D01*
X51725Y-36225D02*
X51850Y-36275D01*
X51850Y-36275D02*
X51975Y-36475D01*
X51975Y-36475D02*
X52100Y-36525D01*
G54D36*
X49375Y-37275D02*
X49375Y-37450D01*
X49375Y-37450D02*
X49100Y-37575D01*
X49100Y-37575D02*
X48975Y-37775D01*
X48975Y-37775D02*
X48975Y-38135D01*
X48975Y-38135D02*
X49120Y-38280D01*
X49120Y-38280D02*
X49700Y-38280D01*
X49700Y-38280D02*
X49806Y-38386D01*
X49806Y-38386D02*
X49806Y-38624D01*
G54D40*
X47775Y-34975D02*
X47775Y-35175D01*
X47775Y-35175D02*
X47000Y-36000D01*
G54D36*
X47775Y-33325D02*
X47775Y-33125D01*
X48950Y-33375D02*
X49075Y-33600D01*
X48179Y-33075D02*
X48950Y-33375D01*
X47975Y-33075D02*
X48179Y-33075D01*
X47775Y-33125D02*
X47975Y-33075D01*
X49075Y-33600D02*
X49075Y-33875D01*
X49525Y-33850D02*
X49525Y-34050D01*
X49275Y-33600D02*
X49525Y-33850D01*
X49075Y-33600D02*
X49275Y-33600D01*
G54D38*
X50600Y-34200D02*
X50366Y-34194D01*
X50366Y-34194D02*
X50303Y-34268D01*
X50303Y-34268D02*
X50303Y-34728D01*
X50303Y-34728D02*
X50425Y-34800D01*
X50425Y-34800D02*
X50525Y-34900D01*
X50525Y-34900D02*
X50525Y-35075D01*
X50525Y-35075D02*
X50450Y-35150D01*
X50450Y-35150D02*
X50225Y-35150D01*
G54D10*
X49350Y-35000D02*
X49350Y-34925D01*
X49525Y-34800D02*
X49525Y-34650D01*
X49475Y-34850D02*
X49525Y-34800D01*
X49425Y-34850D02*
X49475Y-34850D01*
X49350Y-34925D02*
X49425Y-34850D01*
X49625Y-35150D02*
X49475Y-35150D01*
X49225Y-34875D02*
X49075Y-34875D01*
X49350Y-35000D02*
X49225Y-34875D01*
X49350Y-35025D02*
X49350Y-35000D01*
X49475Y-35150D02*
X49350Y-35025D01*
G54D38*
X52350Y-34000D02*
X52650Y-34000D01*
X51450Y-33375D02*
X51775Y-33400D01*
X51350Y-33350D02*
X51450Y-33375D01*
X50700Y-32775D02*
X51350Y-33350D01*
X52125Y-33550D02*
X52500Y-33550D01*
X52500Y-33550D02*
X52645Y-33570D01*
X51775Y-33400D02*
X52125Y-33550D01*
X50375Y-32775D02*
X50700Y-32775D01*
X52650Y-34000D02*
X52750Y-33900D01*
X52750Y-33900D02*
X52750Y-33675D01*
X52750Y-33675D02*
X52645Y-33570D01*
G54D36*
X64995Y-33450D02*
X65275Y-33450D01*
X65275Y-33450D02*
X65275Y-32950D01*
X65275Y-32950D02*
X65025Y-32950D01*
X65425Y-35275D02*
X65200Y-35375D01*
X65200Y-35375D02*
X65200Y-35625D01*
G54D10*
X64543Y-35939D02*
X64825Y-35950D01*
X64875Y-35850D02*
X64875Y-35375D01*
X64875Y-35375D02*
X65200Y-35375D01*
X64825Y-35950D02*
X64875Y-35850D01*
G54D38*
X64375Y-34925D02*
X64250Y-34939D01*
X64250Y-34939D02*
X64543Y-34939D01*
X64543Y-35439D02*
X64575Y-35425D01*
X64575Y-35425D02*
X64575Y-35425D01*
X64220Y-36439D02*
X64000Y-36350D01*
X64000Y-36350D02*
X63925Y-36225D01*
X63925Y-36225D02*
X63925Y-36050D01*
X63925Y-36050D02*
X64050Y-35519D01*
X64050Y-35519D02*
X64175Y-35250D01*
X64175Y-35250D02*
X64275Y-35199D01*
X64275Y-35199D02*
X65000Y-35200D01*
X65000Y-35200D02*
X65217Y-35059D01*
X65217Y-35059D02*
X65217Y-34867D01*
X64217Y-36449D02*
X64227Y-36439D01*
X64227Y-36439D02*
X64220Y-36439D01*
G54D10*
X64220Y-36439D02*
X64543Y-36439D01*
M02*
