G04 (created by PCBNEW-RS274X (2011-05-25)-stable) date Fri 13 Mar 2015 11:37:05 GMT*
G01*
G70*
G90*
%MOIN*%
G04 Gerber Fmt 3.4, Leading zero omitted, Abs format*
%FSLAX34Y34*%
G04 APERTURE LIST*
%ADD10C,0.006000*%
%ADD11R,0.055100X0.063000*%
%ADD12O,0.047200X0.070900*%
%ADD13O,0.078300X0.051200*%
%ADD14C,0.078700*%
%ADD15R,0.055000X0.055000*%
%ADD16R,0.027600X0.039400*%
%ADD17R,0.020000X0.030000*%
%ADD18R,0.030000X0.020000*%
%ADD19R,0.035000X0.055000*%
%ADD20R,0.025000X0.045000*%
%ADD21R,0.045000X0.025000*%
%ADD22R,0.015000X0.050000*%
%ADD23R,0.035400X0.040200*%
%ADD24O,0.039400X0.078700*%
%ADD25R,0.080000X0.060000*%
%ADD26R,0.055000X0.035000*%
%ADD27C,0.025000*%
%ADD28C,0.020000*%
%ADD29C,0.011800*%
%ADD30C,0.007900*%
%ADD31C,0.005000*%
%ADD32C,0.019700*%
%ADD33C,0.027600*%
%ADD34C,0.015700*%
%ADD35C,0.023600*%
G04 APERTURE END LIST*
G54D10*
G54D11*
X57433Y-34597D03*
X56567Y-33653D03*
X56567Y-34597D03*
X57433Y-33653D03*
G54D12*
X48000Y-38000D03*
G54D13*
X48000Y-37000D03*
G54D14*
X48000Y-36000D03*
G54D15*
X47000Y-32000D03*
G54D14*
X47000Y-38000D03*
X47000Y-37000D03*
X47000Y-36000D03*
X47000Y-35000D03*
X47000Y-34000D03*
X66000Y-38000D03*
X66000Y-37000D03*
X66000Y-36000D03*
X66000Y-35000D03*
X66000Y-34000D03*
X66000Y-33000D03*
X47000Y-40000D03*
X48000Y-40000D03*
X49000Y-40000D03*
X50000Y-40000D03*
X51000Y-40000D03*
X52000Y-40000D03*
X53000Y-40000D03*
X54000Y-40000D03*
X55000Y-40000D03*
X56000Y-40000D03*
X57000Y-40000D03*
X58000Y-40000D03*
X59000Y-40000D03*
X60000Y-40000D03*
X61000Y-40000D03*
X62000Y-40000D03*
X63000Y-40000D03*
X64000Y-40000D03*
X65000Y-40000D03*
X66000Y-40000D03*
X47000Y-31000D03*
X48000Y-31000D03*
X49000Y-31000D03*
X50000Y-31000D03*
X51000Y-31000D03*
X52000Y-31000D03*
X53000Y-31000D03*
X54000Y-31000D03*
X55000Y-31000D03*
X56000Y-31000D03*
X57000Y-31000D03*
X58000Y-31000D03*
X59000Y-31000D03*
X60000Y-31000D03*
X61000Y-31000D03*
X62000Y-31000D03*
X63000Y-31000D03*
X64000Y-31000D03*
X65000Y-31000D03*
X66000Y-31000D03*
X62450Y-32525D03*
X61450Y-32525D03*
G54D16*
X54450Y-32450D03*
X54075Y-32450D03*
X53700Y-32450D03*
X53700Y-33450D03*
X54075Y-33450D03*
X54450Y-33450D03*
G54D17*
X50975Y-37000D03*
X51725Y-37000D03*
X50975Y-38000D03*
X51350Y-37000D03*
X51725Y-38000D03*
G54D18*
X61975Y-37000D03*
X61975Y-36250D03*
X62975Y-37000D03*
X61975Y-36625D03*
X62975Y-36250D03*
G54D19*
X47633Y-33252D03*
X48383Y-33252D03*
X48725Y-35925D03*
X49475Y-35925D03*
G54D20*
X58035Y-38102D03*
X58635Y-38102D03*
X54675Y-34325D03*
X54075Y-34325D03*
X54025Y-36400D03*
X54625Y-36400D03*
X62225Y-31750D03*
X62825Y-31750D03*
X62000Y-33250D03*
X62600Y-33250D03*
X52325Y-36525D03*
X52925Y-36525D03*
G54D21*
X55900Y-34480D03*
X55900Y-35080D03*
G54D20*
X51300Y-39225D03*
X50700Y-39225D03*
X49300Y-31850D03*
X48700Y-31850D03*
X48228Y-32488D03*
X48828Y-32488D03*
G54D21*
X62475Y-33925D03*
X62475Y-34525D03*
X50475Y-37600D03*
X50475Y-37000D03*
X51126Y-35422D03*
X51126Y-34822D03*
G54D20*
X54025Y-35775D03*
X54625Y-35775D03*
G54D21*
X54950Y-33200D03*
X54950Y-32600D03*
X61025Y-38300D03*
X61025Y-37700D03*
G54D20*
X63400Y-31750D03*
X64000Y-31750D03*
X56375Y-32975D03*
X55775Y-32975D03*
X57700Y-38850D03*
X57100Y-38850D03*
G54D21*
X60825Y-34375D03*
X60825Y-34975D03*
G54D20*
X60900Y-33650D03*
X61500Y-33650D03*
X56850Y-32975D03*
X57450Y-32975D03*
X57075Y-36825D03*
X57675Y-36825D03*
G54D21*
X51125Y-33850D03*
X51125Y-34450D03*
X51125Y-32550D03*
X51125Y-33150D03*
G54D20*
X62925Y-37425D03*
X62325Y-37425D03*
X51225Y-36125D03*
X50625Y-36125D03*
G54D21*
X53475Y-36950D03*
X53475Y-37550D03*
G54D20*
X49500Y-36725D03*
X48900Y-36725D03*
G54D21*
X48550Y-33925D03*
X48550Y-34525D03*
X56375Y-37475D03*
X56375Y-36875D03*
X49618Y-37905D03*
X49618Y-38505D03*
G54D22*
X50124Y-34826D03*
X49868Y-34826D03*
X49612Y-34826D03*
X49356Y-34826D03*
X49356Y-33126D03*
X49612Y-33126D03*
X49868Y-33126D03*
X50124Y-33126D03*
G54D23*
X53779Y-35000D03*
X55071Y-35000D03*
X47094Y-38740D03*
X48386Y-38740D03*
X49066Y-39240D03*
X47774Y-39240D03*
G54D21*
X56900Y-36275D03*
X56900Y-35675D03*
G54D20*
X64594Y-37224D03*
X65194Y-37224D03*
G54D21*
X64725Y-36525D03*
X64725Y-35925D03*
G54D20*
X65280Y-34016D03*
X64680Y-34016D03*
G54D21*
X65039Y-34759D03*
X65039Y-35359D03*
G54D24*
X59475Y-33900D03*
G54D25*
X53025Y-35775D03*
X53025Y-34475D03*
G54D26*
X52550Y-38000D03*
X52550Y-37250D03*
G54D25*
X52075Y-35775D03*
X52075Y-34475D03*
X52075Y-32425D03*
X52075Y-33725D03*
G54D20*
X50575Y-32275D03*
X49975Y-32275D03*
G54D25*
X53025Y-32425D03*
X53025Y-33725D03*
G54D21*
X60450Y-38300D03*
X60450Y-37700D03*
X64602Y-33469D03*
X64602Y-32869D03*
X47850Y-33950D03*
X47850Y-34550D03*
G54D27*
X54475Y-38875D03*
G54D28*
X58100Y-32450D03*
X58750Y-37025D03*
X57000Y-37525D03*
X58025Y-36075D03*
X55450Y-36850D03*
X55450Y-37850D03*
X58825Y-34600D03*
X59575Y-35625D03*
X55500Y-34000D03*
X55325Y-33350D03*
X57875Y-33800D03*
X58100Y-34300D03*
X59075Y-37550D03*
X59650Y-36975D03*
X59775Y-36300D03*
X59000Y-33825D03*
X60400Y-35225D03*
X58050Y-35550D03*
X57375Y-35100D03*
X59525Y-39400D03*
X58825Y-35975D03*
X59025Y-36475D03*
X59850Y-34950D03*
X60275Y-32100D03*
X60575Y-32525D03*
X60350Y-34375D03*
X59275Y-32250D03*
X58750Y-31550D03*
X57375Y-31575D03*
X58700Y-32250D03*
X58450Y-33000D03*
X56275Y-31575D03*
X57100Y-32525D03*
X56475Y-32475D03*
X56100Y-33375D03*
X55550Y-31850D03*
X55950Y-32575D03*
X55075Y-31900D03*
X55375Y-36075D03*
X55875Y-35800D03*
X59800Y-31900D03*
X59300Y-32950D03*
X55100Y-35600D03*
X55475Y-35225D03*
X60375Y-39300D03*
X59025Y-35425D03*
X59050Y-39225D03*
X58375Y-39000D03*
X58625Y-38575D03*
X59250Y-38750D03*
G54D27*
X56775Y-36600D03*
G54D28*
X63125Y-32325D03*
X56700Y-34975D03*
X59625Y-34550D03*
X57325Y-36350D03*
X57375Y-37100D03*
X59650Y-33950D03*
X51375Y-38075D03*
X49450Y-32500D03*
X57825Y-37625D03*
X58275Y-31750D03*
X60400Y-37200D03*
G54D27*
X61425Y-34375D03*
G54D28*
X64100Y-33700D03*
G54D27*
X64175Y-36175D03*
X65200Y-36500D03*
X64075Y-32900D03*
X64125Y-34425D03*
G54D28*
X59950Y-37450D03*
X61625Y-36750D03*
X62000Y-34750D03*
G54D27*
X62933Y-33937D03*
X56625Y-32975D03*
X50975Y-38225D03*
X60425Y-38625D03*
X63200Y-37000D03*
X56700Y-38150D03*
X51525Y-36600D03*
X57875Y-38850D03*
X60575Y-33925D03*
X56900Y-35425D03*
X56025Y-34150D03*
X52550Y-38300D03*
X53450Y-36725D03*
X51320Y-32240D03*
X51315Y-33626D03*
X50850Y-33625D03*
G54D28*
X61800Y-35200D03*
X62000Y-35850D03*
X51800Y-38975D03*
G54D27*
X48550Y-36675D03*
G54D28*
X57950Y-34850D03*
G54D27*
X61675Y-36200D03*
X60750Y-37450D03*
X55850Y-36400D03*
X55450Y-32900D03*
X52825Y-33200D03*
X49900Y-33775D03*
G54D28*
X52175Y-36925D03*
G54D27*
X50110Y-39270D03*
X51228Y-34575D03*
X53750Y-34325D03*
X53900Y-32950D03*
X62925Y-33225D03*
X62925Y-34450D03*
X49300Y-35300D03*
X61450Y-34975D03*
X61850Y-33725D03*
X52075Y-34950D03*
X53025Y-34925D03*
X49725Y-32275D03*
X51350Y-37325D03*
X50350Y-36225D03*
X57975Y-36700D03*
X56800Y-38850D03*
X62050Y-37425D03*
X55725Y-35375D03*
X48764Y-32921D03*
X52075Y-33225D03*
X53475Y-37800D03*
X48675Y-35225D03*
X49425Y-38850D03*
X51150Y-32875D03*
X57725Y-32900D03*
X53300Y-35075D03*
X54475Y-32900D03*
X54975Y-33750D03*
X49925Y-34287D03*
X49975Y-32700D03*
G54D28*
X50050Y-35625D03*
G54D27*
X50875Y-35725D03*
X49500Y-37650D03*
X48775Y-33575D03*
X48340Y-31840D03*
G54D28*
X60200Y-35625D03*
X60025Y-32700D03*
X58300Y-37175D03*
X57450Y-32175D03*
X50300Y-38125D03*
X50100Y-33575D03*
X51600Y-32975D03*
X51500Y-35050D03*
X53075Y-37325D03*
X52675Y-38550D03*
X65425Y-35275D03*
X64375Y-34925D03*
X64575Y-35425D03*
X64217Y-36449D03*
G54D29*
X53725Y-38150D02*
X53975Y-38150D01*
X53275Y-38650D02*
X53725Y-38150D01*
X54825Y-38150D02*
X54575Y-38150D01*
X54475Y-38875D02*
X54825Y-38450D01*
X54825Y-38450D02*
X54825Y-38150D01*
X54375Y-38950D02*
X54175Y-38950D01*
X54475Y-38875D02*
X54375Y-38950D01*
G54D30*
X58425Y-33825D02*
X58100Y-32450D01*
X58750Y-37025D02*
X58445Y-36063D01*
X58445Y-36063D02*
X58450Y-34300D01*
X58450Y-34300D02*
X58425Y-33825D01*
X57000Y-37525D02*
X57425Y-37400D01*
X57425Y-37400D02*
X58025Y-37100D01*
X58025Y-37100D02*
X58125Y-36944D01*
X58125Y-36944D02*
X58200Y-36725D01*
X58200Y-36725D02*
X58150Y-36375D01*
X58150Y-36375D02*
X58025Y-36075D01*
X55450Y-36850D02*
X55450Y-37850D01*
X58825Y-34600D02*
X59575Y-35625D01*
X55325Y-33350D02*
X55500Y-34000D01*
G54D29*
X62000Y-33250D02*
X61700Y-33250D01*
X61700Y-33250D02*
X61450Y-32525D01*
G54D30*
X57875Y-33800D02*
X58100Y-34300D01*
X58820Y-38080D02*
X58635Y-38102D01*
X58880Y-38020D02*
X58820Y-38080D01*
X59075Y-37550D02*
X58880Y-38020D01*
G54D10*
X59650Y-36975D02*
X59775Y-36300D01*
X59000Y-33825D02*
X59800Y-35650D01*
X59800Y-35650D02*
X59775Y-36300D01*
G54D30*
X61800Y-36625D02*
X61975Y-36625D01*
X61175Y-36175D02*
X61800Y-36625D01*
X60400Y-35225D02*
X61175Y-36175D01*
X57375Y-35100D02*
X58050Y-35550D01*
X59525Y-39346D02*
X59525Y-39400D01*
X59300Y-37050D02*
X59400Y-37400D01*
X59225Y-36450D02*
X59300Y-37050D01*
X59150Y-36300D02*
X59225Y-36450D01*
X58825Y-35975D02*
X59150Y-36300D01*
X59675Y-38725D02*
X59400Y-37400D01*
X59500Y-39400D02*
X59525Y-39346D01*
X59525Y-39346D02*
X59650Y-39075D01*
X59650Y-39075D02*
X59675Y-38725D01*
X58000Y-40000D02*
X58475Y-39600D01*
X59375Y-39075D02*
X59500Y-38700D01*
X59025Y-36475D02*
X59275Y-37525D01*
X59275Y-37525D02*
X59500Y-38700D01*
X59325Y-39250D02*
X59375Y-39075D01*
X58850Y-39475D02*
X59175Y-39400D01*
X59175Y-39400D02*
X59325Y-39250D01*
X58475Y-39600D02*
X58850Y-39475D01*
X59900Y-32275D02*
X60275Y-32100D01*
X59850Y-34950D02*
X59850Y-33975D01*
X59750Y-32650D02*
X59900Y-32275D01*
X59850Y-33975D02*
X59750Y-32650D01*
X60450Y-32700D02*
X60575Y-32525D01*
X60325Y-33875D02*
X60450Y-32700D01*
X60350Y-34375D02*
X60325Y-33875D01*
X58950Y-31600D02*
X58750Y-31550D01*
X59275Y-32250D02*
X58950Y-31600D01*
X58225Y-31975D02*
X57375Y-31575D01*
X58450Y-32075D02*
X58225Y-31975D01*
X58700Y-32250D02*
X58450Y-32075D01*
X56400Y-31600D02*
X56275Y-31575D01*
X58275Y-32275D02*
X57925Y-32100D01*
X58450Y-33000D02*
X58450Y-32650D01*
X58450Y-32650D02*
X58400Y-32431D01*
X58400Y-32431D02*
X58275Y-32275D01*
X57925Y-32100D02*
X57450Y-31900D01*
X57450Y-31900D02*
X56400Y-31600D01*
X53000Y-31000D02*
X53200Y-31325D01*
X54975Y-31507D02*
X53525Y-31501D01*
X53525Y-31501D02*
X53200Y-31325D01*
X55550Y-31475D02*
X54975Y-31507D01*
X56100Y-31775D02*
X55875Y-31550D01*
X55875Y-31550D02*
X55550Y-31475D01*
X57100Y-32525D02*
X56100Y-31775D01*
X52000Y-31000D02*
X52300Y-31425D01*
X52875Y-31625D02*
X52550Y-31544D01*
X52550Y-31544D02*
X52300Y-31425D01*
X54975Y-31663D02*
X52875Y-31625D01*
X55550Y-31650D02*
X54975Y-31663D01*
X56225Y-32150D02*
X55775Y-31675D01*
X55775Y-31675D02*
X55550Y-31650D01*
X56475Y-32475D02*
X56225Y-32150D01*
X56100Y-33375D02*
X56100Y-32725D01*
X55600Y-31975D02*
X55550Y-31850D01*
X56150Y-32500D02*
X56075Y-32375D01*
X56075Y-32375D02*
X55600Y-31975D01*
X56100Y-32725D02*
X56150Y-32625D01*
X56150Y-32625D02*
X56150Y-32500D01*
X55625Y-32375D02*
X55075Y-31900D01*
X55950Y-32575D02*
X55625Y-32375D01*
X56000Y-40000D02*
X55900Y-39275D01*
X55900Y-39275D02*
X55900Y-39250D01*
X55900Y-39250D02*
X55900Y-39250D01*
X55900Y-39250D02*
X55775Y-38450D01*
X55775Y-38450D02*
X55675Y-38025D01*
X55675Y-36750D02*
X55675Y-38025D01*
X55375Y-36075D02*
X55500Y-36625D01*
X55500Y-36625D02*
X55675Y-36750D01*
X57000Y-40000D02*
X56850Y-39650D01*
X56100Y-38325D02*
X56850Y-39650D01*
X55850Y-37725D02*
X56100Y-38325D01*
X55850Y-36700D02*
X55850Y-37725D01*
X55650Y-36567D02*
X55850Y-36700D01*
X55625Y-36350D02*
X55650Y-36567D01*
X55875Y-35800D02*
X55625Y-36350D01*
X59300Y-32950D02*
X59800Y-31900D01*
X53000Y-40000D02*
X53000Y-39900D01*
X53000Y-39900D02*
X53825Y-39450D01*
X54275Y-39400D02*
X53825Y-39450D01*
X55000Y-38825D02*
X54825Y-39100D01*
X54825Y-39100D02*
X54550Y-39300D01*
X54550Y-39300D02*
X54275Y-39400D01*
X55020Y-36673D02*
X55000Y-38825D01*
X55025Y-35950D02*
X55020Y-36673D01*
X55100Y-35600D02*
X55025Y-35950D01*
X54000Y-40000D02*
X55075Y-39175D01*
X55075Y-39175D02*
X55200Y-38925D01*
X55200Y-36700D02*
X55200Y-38925D01*
X55175Y-35975D02*
X55200Y-36700D01*
X55475Y-35225D02*
X55375Y-35675D01*
X55375Y-35675D02*
X55175Y-35975D01*
X60375Y-39325D02*
X60375Y-39300D01*
X60375Y-39325D02*
X60375Y-39325D01*
X60375Y-39325D02*
X60250Y-39075D01*
X59975Y-38550D02*
X59975Y-38550D01*
X59975Y-38550D02*
X60250Y-39075D01*
X60250Y-39075D02*
X60250Y-39075D01*
X59475Y-37150D02*
X59975Y-38550D01*
X59450Y-37000D02*
X59475Y-37150D01*
X59400Y-36350D02*
X59450Y-36775D01*
X59450Y-36775D02*
X59450Y-37000D01*
X59025Y-35425D02*
X59400Y-36350D01*
X58750Y-39075D02*
X59050Y-39225D01*
X58375Y-39000D02*
X58750Y-39075D01*
X58625Y-38575D02*
X58625Y-38575D01*
X58625Y-38575D02*
X59250Y-38750D01*
G54D29*
X56900Y-36275D02*
X56900Y-36475D01*
X56900Y-36475D02*
X56775Y-36600D01*
X56825Y-36825D02*
X57075Y-36825D01*
X56832Y-36654D02*
X56825Y-36825D01*
X56775Y-36600D02*
X56832Y-36654D01*
G54D30*
X63125Y-32325D02*
X63125Y-32075D01*
X62825Y-31750D02*
X63125Y-31750D01*
X66000Y-31000D02*
X65125Y-31525D01*
X65125Y-31525D02*
X64425Y-31550D01*
X64425Y-31550D02*
X64225Y-32075D01*
X63125Y-31750D02*
X63400Y-31750D01*
X63125Y-32075D02*
X63125Y-31750D01*
X64225Y-32075D02*
X63125Y-32075D01*
X56567Y-34597D02*
X56567Y-34842D01*
X56567Y-34842D02*
X56700Y-34975D01*
X56700Y-34975D02*
X56700Y-34975D01*
X56700Y-34975D02*
X56700Y-34975D01*
X57375Y-36650D02*
X57375Y-37100D01*
X57325Y-36350D02*
X57375Y-36650D01*
G54D31*
X57375Y-37100D02*
X57375Y-37100D01*
G54D10*
X59475Y-33900D02*
X59650Y-33950D01*
G54D30*
X59650Y-33950D02*
X59625Y-34550D01*
X59625Y-34550D02*
X59625Y-34550D01*
X50275Y-35800D02*
X50125Y-36075D01*
X49614Y-35177D02*
X49612Y-34826D01*
X51225Y-37725D02*
X51300Y-37900D01*
X51300Y-37900D02*
X51375Y-38075D01*
X50150Y-37300D02*
X50775Y-37300D01*
X50775Y-37300D02*
X51075Y-37450D01*
X51075Y-37450D02*
X51225Y-37725D01*
X50251Y-35556D02*
X50275Y-35800D01*
X50050Y-35350D02*
X50251Y-35556D01*
X49738Y-35325D02*
X50050Y-35350D01*
X49614Y-35177D02*
X49738Y-35325D01*
X50050Y-37200D02*
X50150Y-37300D01*
X50125Y-36075D02*
X50050Y-37200D01*
X49400Y-32500D02*
X49450Y-32500D01*
X49360Y-32640D02*
X49400Y-32500D01*
X49360Y-32640D02*
X49356Y-33126D01*
X58625Y-37375D02*
X57825Y-37625D01*
X58875Y-37200D02*
X58625Y-37375D01*
X58622Y-36024D02*
X58950Y-36900D01*
X58950Y-36900D02*
X58950Y-37050D01*
X58275Y-31750D02*
X58850Y-32075D01*
X58850Y-32075D02*
X58925Y-32250D01*
X58625Y-33825D02*
X58622Y-36024D01*
X58900Y-32425D02*
X58625Y-33825D01*
X58925Y-32250D02*
X58900Y-32425D01*
X58950Y-37050D02*
X58875Y-37200D01*
X60400Y-37200D02*
X61654Y-37008D01*
X61654Y-37008D02*
X61975Y-37000D01*
G54D32*
X60825Y-34075D02*
X60825Y-34375D01*
X61175Y-34075D02*
X60825Y-34075D01*
X61425Y-34375D02*
X61175Y-34075D01*
G54D33*
X47000Y-40000D02*
X47000Y-38834D01*
X47000Y-38834D02*
X47094Y-38740D01*
X49066Y-39240D02*
X49461Y-39240D01*
X49453Y-39531D02*
X49000Y-40000D01*
X49461Y-39240D02*
X49453Y-39531D01*
G54D30*
X64602Y-33469D02*
X64600Y-33700D01*
X64600Y-33700D02*
X64100Y-33700D01*
X64725Y-36525D02*
X64725Y-36650D01*
X64725Y-36650D02*
X64825Y-36750D01*
X64825Y-36750D02*
X65325Y-36750D01*
X65325Y-36750D02*
X66000Y-37000D01*
G54D29*
X64175Y-36175D02*
X64125Y-34425D01*
X64075Y-32900D02*
X64075Y-32625D01*
X64075Y-32625D02*
X64238Y-32429D01*
X64238Y-32429D02*
X64503Y-32429D01*
X64503Y-32429D02*
X64602Y-32653D01*
X64602Y-32653D02*
X64602Y-32869D01*
G54D30*
X66000Y-38000D02*
X66000Y-37953D01*
X65400Y-37225D02*
X65194Y-37224D01*
X66000Y-37953D02*
X65400Y-37225D01*
G54D29*
X66000Y-35000D02*
X65350Y-34500D01*
X65350Y-34500D02*
X65050Y-34500D01*
X65050Y-34500D02*
X65039Y-34759D01*
X66000Y-34000D02*
X65280Y-34016D01*
G54D30*
X59950Y-37450D02*
X60056Y-37290D01*
X60056Y-37290D02*
X60250Y-37025D01*
X60250Y-37025D02*
X60525Y-36875D01*
X60525Y-36875D02*
X61625Y-36750D01*
X62975Y-36250D02*
X62750Y-36250D01*
X62750Y-36250D02*
X62675Y-36200D01*
X62675Y-36200D02*
X62250Y-35150D01*
X62250Y-35150D02*
X62000Y-34750D01*
X62475Y-33925D02*
X62475Y-33775D01*
X62925Y-33925D02*
X62933Y-33937D01*
X62925Y-33775D02*
X62925Y-33925D01*
X62825Y-33675D02*
X62925Y-33775D01*
X62575Y-33675D02*
X62825Y-33675D01*
X62475Y-33775D02*
X62575Y-33675D01*
X62225Y-31750D02*
X62075Y-31750D01*
X62000Y-31650D02*
X62000Y-31000D01*
X62075Y-31750D02*
X62000Y-31650D01*
G54D29*
X57433Y-33653D02*
X56578Y-33653D01*
X56575Y-33650D02*
X56567Y-33653D01*
X56578Y-33653D02*
X56575Y-33650D01*
X56567Y-33653D02*
X56567Y-33458D01*
X56567Y-33458D02*
X56625Y-33400D01*
X56625Y-33400D02*
X56625Y-32975D01*
X50975Y-38000D02*
X50975Y-38225D01*
G54D32*
X50600Y-38025D02*
X50975Y-38000D01*
X50600Y-38025D02*
X50475Y-37875D01*
X50475Y-37875D02*
X50475Y-37600D01*
G54D30*
X60425Y-38625D02*
X60900Y-38625D01*
X61000Y-38300D02*
X61025Y-38300D01*
X61000Y-38525D02*
X61000Y-38300D01*
X60900Y-38625D02*
X61000Y-38525D01*
X60450Y-38600D02*
X60450Y-38300D01*
X60425Y-38625D02*
X60450Y-38600D01*
G54D29*
X56375Y-37475D02*
X56375Y-37725D01*
X56375Y-37725D02*
X56725Y-38225D01*
X56725Y-38225D02*
X56700Y-38150D01*
X56375Y-32975D02*
X56625Y-32975D01*
X62925Y-37425D02*
X63200Y-37425D01*
X63200Y-37425D02*
X63201Y-37009D01*
X63201Y-37009D02*
X63220Y-36953D01*
G54D32*
X63173Y-37000D02*
X62975Y-37000D01*
X63200Y-37000D02*
X63220Y-36953D01*
X63220Y-36953D02*
X63173Y-37000D01*
X51225Y-36125D02*
X51525Y-36125D01*
X51525Y-36125D02*
X51529Y-36447D01*
X51529Y-36447D02*
X51525Y-36600D01*
X57875Y-38850D02*
X57700Y-38850D01*
X60900Y-33650D02*
X60600Y-33650D01*
X60600Y-33650D02*
X60575Y-33925D01*
G54D29*
X56900Y-35675D02*
X56900Y-35425D01*
G54D32*
X55900Y-34480D02*
X55900Y-34225D01*
X55900Y-34225D02*
X56025Y-34150D01*
X52550Y-38000D02*
X52550Y-38300D01*
X53475Y-36950D02*
X53475Y-36825D01*
X53475Y-36825D02*
X53450Y-36725D01*
X51125Y-32550D02*
X51125Y-32250D01*
X51125Y-32250D02*
X51320Y-32240D01*
X51315Y-33626D02*
X51125Y-33725D01*
X51125Y-33725D02*
X51125Y-33850D01*
G54D29*
X51125Y-33850D02*
X51125Y-33675D01*
X51125Y-33675D02*
X51075Y-33625D01*
X51075Y-33625D02*
X50850Y-33625D01*
X56625Y-32975D02*
X56850Y-32975D01*
G54D30*
X61800Y-35200D02*
X62000Y-35850D01*
G54D31*
X51300Y-39225D02*
X51550Y-39225D01*
X51550Y-39225D02*
X51800Y-38975D01*
G54D32*
X48600Y-36725D02*
X48550Y-36675D01*
X48600Y-36725D02*
X48900Y-36725D01*
G54D30*
X64000Y-31750D02*
X64175Y-31750D01*
X64175Y-31750D02*
X64225Y-31675D01*
X64225Y-31675D02*
X64225Y-31450D01*
X64225Y-31450D02*
X64000Y-31000D01*
G54D34*
X57433Y-34597D02*
X57750Y-34600D01*
X57950Y-34850D02*
X57750Y-34600D01*
G54D29*
X47850Y-34550D02*
X47850Y-34800D01*
G54D32*
X48000Y-34900D02*
X48675Y-35225D01*
G54D34*
X47850Y-34800D02*
X48000Y-34900D01*
G54D30*
X62325Y-37425D02*
X62050Y-37425D01*
X61975Y-36250D02*
X61725Y-36250D01*
X61725Y-36250D02*
X61675Y-36200D01*
X60750Y-37425D02*
X60750Y-37450D01*
X61025Y-37700D02*
X61025Y-37525D01*
X60450Y-37550D02*
X60575Y-37425D01*
X60575Y-37425D02*
X60750Y-37425D01*
X60450Y-37550D02*
X60450Y-37700D01*
X60925Y-37425D02*
X60750Y-37425D01*
X61025Y-37525D02*
X60925Y-37425D01*
G54D32*
X50475Y-37000D02*
X50475Y-36750D01*
X50350Y-36225D02*
X50350Y-36225D01*
X50475Y-36750D02*
X50350Y-36225D01*
G54D29*
X55850Y-36400D02*
X56375Y-36650D01*
X56375Y-36650D02*
X56375Y-36875D01*
X55450Y-32900D02*
X55650Y-32975D01*
X55650Y-32975D02*
X55775Y-32975D01*
G54D32*
X53779Y-35000D02*
X53625Y-35000D01*
X53625Y-35000D02*
X53400Y-34775D01*
X53400Y-34775D02*
X53175Y-34775D01*
X53175Y-34775D02*
X53025Y-34925D01*
G54D33*
X53025Y-33725D02*
X53025Y-33400D01*
X53025Y-33400D02*
X52825Y-33200D01*
X52075Y-33725D02*
X52075Y-33225D01*
G54D32*
X52550Y-37250D02*
X52550Y-37025D01*
X52550Y-37025D02*
X52500Y-36975D01*
X52500Y-36975D02*
X52175Y-36925D01*
X58035Y-38102D02*
X57550Y-38100D01*
X57550Y-38100D02*
X56800Y-38550D01*
X56800Y-38550D02*
X56800Y-38850D01*
X50112Y-39272D02*
X50700Y-39225D01*
X50110Y-39270D02*
X50112Y-39272D01*
X51125Y-34472D02*
X51228Y-34575D01*
X51125Y-34472D02*
X51125Y-34450D01*
X53750Y-34325D02*
X54075Y-34325D01*
G54D33*
X54075Y-33125D02*
X53900Y-32950D01*
X54075Y-33450D02*
X54075Y-33125D01*
G54D29*
X62875Y-33250D02*
X62925Y-33225D01*
X62600Y-33250D02*
X62875Y-33250D01*
G54D32*
X62925Y-34450D02*
X62875Y-34825D01*
X62875Y-34825D02*
X62500Y-34825D01*
X62500Y-34825D02*
X62475Y-34525D01*
X49356Y-34826D02*
X49356Y-35144D01*
X49356Y-35144D02*
X49300Y-35300D01*
X60825Y-34975D02*
X60825Y-35275D01*
X60825Y-35275D02*
X61275Y-35275D01*
X61275Y-35275D02*
X61450Y-34950D01*
X61450Y-34950D02*
X61450Y-34975D01*
X61850Y-33725D02*
X61800Y-33650D01*
X61800Y-33650D02*
X61500Y-33650D01*
X50000Y-40000D02*
X50000Y-39371D01*
X50000Y-39371D02*
X50099Y-39272D01*
X50099Y-39272D02*
X50700Y-39225D01*
X49618Y-38505D02*
X49625Y-38775D01*
X49429Y-38850D02*
X49421Y-38850D01*
X49625Y-38775D02*
X49429Y-38850D01*
X49421Y-38850D02*
X49421Y-38846D01*
G54D33*
X52075Y-34475D02*
X52075Y-34950D01*
G54D32*
X53025Y-34475D02*
X53025Y-34925D01*
G54D29*
X49975Y-32275D02*
X49725Y-32275D01*
G54D32*
X51350Y-37000D02*
X51350Y-37325D01*
X50625Y-36125D02*
X50350Y-36125D01*
X50350Y-36125D02*
X50350Y-36225D01*
G54D29*
X57675Y-36825D02*
X57925Y-36825D01*
X57925Y-36825D02*
X57975Y-36700D01*
G54D32*
X56800Y-38850D02*
X57100Y-38850D01*
X55900Y-35080D02*
X55900Y-35375D01*
X55900Y-35375D02*
X55725Y-35375D01*
G54D34*
X49106Y-32476D02*
X48828Y-32488D01*
X49102Y-32854D02*
X49106Y-32476D01*
X48764Y-32921D02*
X49102Y-32854D01*
G54D33*
X53025Y-33725D02*
X53025Y-34475D01*
G54D32*
X51126Y-34822D02*
X50975Y-34925D01*
X51125Y-34775D02*
X51125Y-34450D01*
X50975Y-34925D02*
X51125Y-34775D01*
G54D34*
X53475Y-37550D02*
X53475Y-37800D01*
G54D29*
X48550Y-34525D02*
X48555Y-34858D01*
G54D32*
X48555Y-34858D02*
X48675Y-35225D01*
X49425Y-38850D02*
X49421Y-38846D01*
X51125Y-33150D02*
X51125Y-32925D01*
X51125Y-32925D02*
X51150Y-32875D01*
G54D29*
X57725Y-32900D02*
X57600Y-32975D01*
X57600Y-32975D02*
X57450Y-32975D01*
G54D35*
X53300Y-35075D02*
X53025Y-35375D01*
X53025Y-35375D02*
X53025Y-35775D01*
G54D33*
X52925Y-36525D02*
X53175Y-36525D01*
X53250Y-36450D02*
X53250Y-36275D01*
X53175Y-36525D02*
X53250Y-36450D01*
G54D29*
X53725Y-36200D02*
X53725Y-36275D01*
X53850Y-36400D02*
X54025Y-36400D01*
X53725Y-36275D02*
X53850Y-36400D01*
G54D33*
X53025Y-35775D02*
X53025Y-36100D01*
X53225Y-36100D02*
X53250Y-36275D01*
X53025Y-36100D02*
X53225Y-36100D01*
G54D29*
X53775Y-35775D02*
X54025Y-35775D01*
X53725Y-35825D02*
X53775Y-35775D01*
X53725Y-36200D02*
X53725Y-35825D01*
X53661Y-36281D02*
X53725Y-36200D01*
X53250Y-36275D02*
X53661Y-36281D01*
G54D30*
X54450Y-33450D02*
X54950Y-33450D01*
X54950Y-33450D02*
X54950Y-33200D01*
X54625Y-36400D02*
X54843Y-36398D01*
X54843Y-36398D02*
X54882Y-36358D01*
X54882Y-36358D02*
X54880Y-35775D01*
X54900Y-34325D02*
X54900Y-34600D01*
X54900Y-34600D02*
X54775Y-34750D01*
X54775Y-34750D02*
X54775Y-35250D01*
X54880Y-35475D02*
X54880Y-35775D01*
X54775Y-35250D02*
X54880Y-35475D01*
X54880Y-35775D02*
X54625Y-35775D01*
X53700Y-33450D02*
X53700Y-33750D01*
X53700Y-33750D02*
X53875Y-33900D01*
X53875Y-33900D02*
X54675Y-33900D01*
X54675Y-33900D02*
X54900Y-34050D01*
X54900Y-34050D02*
X54900Y-34325D01*
X54900Y-34325D02*
X54675Y-34325D01*
G54D33*
X54450Y-32450D02*
X54450Y-32875D01*
X54450Y-32875D02*
X54475Y-32900D01*
X54950Y-32600D02*
X54950Y-32450D01*
X54950Y-32450D02*
X54450Y-32450D01*
X54975Y-33750D02*
X55125Y-33900D01*
X55125Y-33900D02*
X55425Y-34700D01*
X55425Y-34700D02*
X55429Y-34882D01*
X55275Y-35000D02*
X55071Y-35000D01*
X55429Y-34882D02*
X55275Y-35000D01*
X52100Y-31925D02*
X53025Y-31925D01*
X54075Y-32035D02*
X54075Y-32450D01*
G54D35*
X53575Y-31950D02*
X54075Y-32035D01*
G54D33*
X53025Y-32425D02*
X53025Y-31925D01*
X53700Y-32125D02*
X53700Y-32450D01*
G54D35*
X53575Y-31950D02*
X53700Y-32125D01*
G54D33*
X53025Y-31925D02*
X53575Y-31950D01*
G54D34*
X50875Y-32150D02*
X50800Y-32275D01*
X50800Y-32275D02*
X50575Y-32275D01*
G54D32*
X50925Y-31925D02*
X50875Y-32150D01*
G54D33*
X49300Y-31850D02*
X50800Y-31850D01*
X50800Y-31850D02*
X50925Y-31925D01*
X50925Y-31925D02*
X52100Y-31925D01*
X52100Y-31925D02*
X52075Y-32425D01*
G54D29*
X47850Y-33950D02*
X47850Y-33750D01*
X48675Y-33675D02*
X48775Y-33575D01*
X47925Y-33675D02*
X48675Y-33675D01*
X47850Y-33750D02*
X47925Y-33675D01*
G54D30*
X51725Y-37000D02*
X51725Y-37250D01*
X51825Y-37350D02*
X51950Y-37350D01*
X51725Y-37250D02*
X51825Y-37350D01*
G54D32*
X51000Y-40000D02*
X51000Y-38800D01*
X51000Y-38800D02*
X51225Y-38575D01*
X51225Y-38575D02*
X51825Y-38575D01*
X51825Y-38575D02*
X52050Y-38350D01*
X52050Y-38350D02*
X52050Y-37425D01*
X52050Y-37425D02*
X51950Y-37350D01*
X52075Y-35950D02*
X52075Y-35800D01*
G54D29*
X51950Y-37350D02*
X51950Y-36613D01*
G54D32*
X51950Y-36525D02*
X51950Y-36075D01*
X51950Y-36613D02*
X51950Y-36525D01*
X51950Y-36075D02*
X52075Y-35950D01*
G54D30*
X52075Y-35800D02*
X52075Y-35775D01*
G54D35*
X52075Y-35775D02*
X51525Y-35775D01*
X51525Y-35775D02*
X51450Y-35725D01*
X51450Y-35725D02*
X50900Y-35725D01*
X50900Y-35725D02*
X50875Y-35725D01*
G54D32*
X50975Y-37000D02*
X50975Y-36775D01*
X50925Y-35825D02*
X50875Y-35725D01*
X50925Y-36650D02*
X50925Y-35825D01*
X50975Y-36775D02*
X50925Y-36650D01*
G54D30*
X51725Y-37000D02*
X51725Y-36775D01*
G54D35*
X51850Y-36025D02*
X52075Y-35800D01*
X51850Y-36650D02*
X51850Y-36025D01*
G54D30*
X51725Y-36775D02*
X51850Y-36650D01*
X52075Y-35800D02*
X52075Y-35775D01*
G54D32*
X52325Y-36525D02*
X52125Y-36525D01*
X52125Y-36525D02*
X52000Y-36450D01*
X52000Y-36450D02*
X52000Y-35900D01*
X52000Y-35900D02*
X52075Y-35775D01*
X50875Y-35725D02*
X50700Y-35550D01*
X50300Y-34375D02*
X49925Y-34287D01*
X50396Y-34513D02*
X50300Y-34375D01*
X50450Y-35375D02*
X50396Y-34513D01*
X50700Y-35550D02*
X50450Y-35375D01*
X49500Y-36725D02*
X49825Y-36725D01*
X49850Y-36700D02*
X49850Y-36675D01*
X49825Y-36725D02*
X49850Y-36700D01*
X49618Y-37905D02*
X49618Y-37818D01*
X49618Y-37818D02*
X49500Y-37650D01*
X50125Y-32875D02*
X50124Y-33126D01*
X50125Y-32700D02*
X50125Y-32875D01*
X49975Y-32700D02*
X50125Y-32700D01*
X50500Y-33000D02*
X50375Y-32700D01*
X50625Y-34100D02*
X50488Y-33646D01*
X50488Y-33646D02*
X50500Y-33000D01*
X50375Y-32700D02*
X49975Y-32700D01*
X50675Y-34725D02*
X50625Y-34100D01*
X50675Y-35375D02*
X50675Y-34725D01*
X50700Y-35550D02*
X50675Y-35375D01*
X50875Y-35725D02*
X50700Y-35550D01*
X50050Y-35625D02*
X49900Y-36100D01*
X49900Y-36100D02*
X49850Y-36675D01*
X50875Y-35725D02*
X51100Y-35700D01*
X51126Y-35422D02*
X51100Y-35700D01*
X49850Y-36675D02*
X49825Y-37075D01*
X49825Y-37075D02*
X49775Y-37400D01*
X49775Y-37400D02*
X49500Y-37650D01*
G54D29*
X48775Y-33575D02*
X48551Y-33787D01*
X48551Y-33787D02*
X48550Y-33925D01*
G54D34*
X48228Y-32488D02*
X47875Y-32475D01*
G54D33*
X48340Y-31700D02*
X48700Y-31850D01*
X48340Y-31840D02*
X48340Y-31700D01*
X48340Y-31840D02*
X47886Y-32134D01*
X47886Y-32134D02*
X47875Y-32475D01*
G54D30*
X60200Y-35625D02*
X60100Y-35275D01*
X60100Y-35275D02*
X60100Y-33625D01*
X60100Y-33625D02*
X60025Y-32700D01*
X58300Y-37175D02*
X58375Y-36950D01*
X58375Y-36950D02*
X58400Y-36675D01*
X58400Y-36675D02*
X58268Y-36063D01*
X58250Y-33960D02*
X57975Y-32800D01*
X57975Y-32800D02*
X57750Y-32425D01*
X57750Y-32425D02*
X57450Y-32175D01*
X58300Y-34300D02*
X58250Y-33960D01*
X58300Y-35325D02*
X58300Y-34300D01*
X58268Y-36063D02*
X58300Y-35325D01*
X49075Y-35650D02*
X49075Y-36250D01*
X49392Y-38200D02*
X49950Y-38202D01*
X49950Y-38202D02*
X50300Y-38125D01*
X49134Y-37898D02*
X49200Y-38075D01*
X49200Y-38075D02*
X49392Y-38200D01*
X49209Y-36406D02*
X49209Y-37050D01*
X49209Y-37050D02*
X49134Y-37300D01*
X49134Y-37300D02*
X49134Y-37898D01*
X49075Y-36250D02*
X49209Y-36406D01*
X48895Y-35396D02*
X48988Y-35559D01*
X48988Y-35559D02*
X49075Y-35650D01*
X48895Y-35396D02*
X48895Y-35200D01*
X48895Y-35200D02*
X48929Y-35050D01*
X48929Y-35050D02*
X48929Y-34317D01*
X48929Y-34317D02*
X48988Y-34173D01*
X48988Y-34173D02*
X49256Y-33953D01*
X49256Y-33953D02*
X49807Y-33559D01*
X49807Y-33559D02*
X49988Y-33559D01*
X49988Y-33559D02*
X50100Y-33575D01*
X51600Y-32975D02*
X51551Y-33094D01*
X51551Y-34858D02*
X51500Y-35050D01*
X51551Y-33094D02*
X51551Y-34858D01*
X53075Y-37325D02*
X53075Y-38250D01*
X53075Y-38250D02*
X52675Y-38550D01*
G54D10*
X49612Y-33126D02*
X49868Y-33126D01*
G54D30*
X48383Y-33252D02*
X48800Y-33250D01*
X49610Y-33429D02*
X49612Y-33126D01*
X49475Y-33550D02*
X49610Y-33429D01*
X49225Y-33575D02*
X49475Y-33550D01*
X48800Y-33250D02*
X49225Y-33575D01*
X49475Y-35925D02*
X49725Y-35925D01*
X49725Y-35925D02*
X49725Y-35625D01*
X49725Y-35625D02*
X49675Y-35550D01*
X49675Y-35550D02*
X49250Y-35550D01*
X49250Y-35550D02*
X49146Y-35513D01*
X49146Y-35513D02*
X49050Y-35375D01*
X49862Y-34528D02*
X49868Y-34826D01*
X49050Y-35200D02*
X49050Y-35375D01*
X49100Y-35000D02*
X49050Y-35200D01*
X49100Y-34550D02*
X49100Y-35000D01*
X49225Y-34425D02*
X49100Y-34550D01*
X49725Y-34425D02*
X49225Y-34425D01*
X49862Y-34528D02*
X49725Y-34425D01*
G54D10*
X49868Y-34826D02*
X50124Y-34826D01*
G54D29*
X47000Y-34000D02*
X47000Y-33625D01*
X47375Y-33250D02*
X47633Y-33252D01*
X47000Y-33625D02*
X47375Y-33250D01*
G54D10*
X48725Y-35925D02*
X48475Y-35925D01*
G54D30*
X48250Y-35300D02*
X47650Y-35000D01*
X48475Y-35725D02*
X48250Y-35300D01*
G54D10*
X48475Y-35925D02*
X48475Y-35725D01*
G54D30*
X47650Y-35000D02*
X47000Y-35000D01*
G54D33*
X47774Y-39240D02*
X47774Y-38525D01*
X47580Y-37564D02*
X47000Y-37000D01*
G54D35*
X47580Y-38315D02*
X47580Y-37564D01*
G54D33*
X47774Y-38525D02*
X47580Y-38315D01*
G54D29*
X65039Y-35359D02*
X65050Y-35625D01*
X65375Y-35625D02*
X65425Y-35275D01*
X65050Y-35625D02*
X65375Y-35625D01*
G54D30*
X64725Y-35925D02*
X64725Y-35700D01*
X64725Y-35700D02*
X64525Y-35675D01*
X64525Y-35675D02*
X64375Y-35500D01*
X64375Y-35500D02*
X64375Y-34925D01*
X64575Y-35425D02*
X64575Y-34375D01*
X64575Y-34375D02*
X64475Y-34275D01*
X64475Y-34025D02*
X64680Y-34016D01*
X64475Y-34275D02*
X64475Y-34025D01*
X64594Y-37224D02*
X64342Y-37224D01*
X64342Y-37224D02*
X64217Y-37099D01*
X64217Y-37099D02*
X64217Y-36449D01*
G54D33*
X48386Y-38740D02*
X48380Y-38520D01*
X48488Y-37398D02*
X48000Y-37000D01*
X48488Y-38274D02*
X48488Y-37398D01*
X48380Y-38520D02*
X48488Y-38274D01*
M02*
