G04 (created by PCBNEW-RS274X (2011-05-25)-stable) date Fri 13 Mar 2015 11:37:05 GMT*
G01*
G70*
G90*
%MOIN*%
G04 Gerber Fmt 3.4, Leading zero omitted, Abs format*
%FSLAX34Y34*%
G04 APERTURE LIST*
%ADD10C,0.006000*%
%ADD11C,0.004900*%
%ADD12C,0.004300*%
%ADD13C,0.015000*%
%ADD14C,0.005000*%
%ADD15C,0.008000*%
G04 APERTURE END LIST*
G54D10*
G54D11*
X66524Y-37738D02*
X66819Y-37803D01*
X66524Y-37869D01*
X66707Y-37935D02*
X66707Y-38085D01*
X67126Y-37762D02*
X67140Y-37790D01*
X67154Y-37799D01*
X67183Y-37808D01*
X67225Y-37808D01*
X67253Y-37799D01*
X67267Y-37790D01*
X67281Y-37771D01*
X67281Y-37696D01*
X66986Y-37696D01*
X66986Y-37762D01*
X67000Y-37780D01*
X67014Y-37790D01*
X67042Y-37799D01*
X67070Y-37799D01*
X67098Y-37790D01*
X67112Y-37780D01*
X67126Y-37762D01*
X67126Y-37696D01*
X67281Y-37987D02*
X67281Y-37893D01*
X66986Y-37893D01*
X67281Y-38052D02*
X66986Y-38052D01*
X67281Y-38164D02*
X67112Y-38080D01*
X66986Y-38164D02*
X67154Y-38052D01*
X66724Y-36662D02*
X66724Y-36774D01*
X67019Y-36718D02*
X66724Y-36718D01*
X66724Y-36821D02*
X67019Y-36952D01*
X66724Y-36952D02*
X67019Y-36821D01*
X66724Y-37065D02*
X66724Y-37084D01*
X66738Y-37103D01*
X66752Y-37112D01*
X66780Y-37122D01*
X66836Y-37131D01*
X66907Y-37131D01*
X66963Y-37122D01*
X66991Y-37112D01*
X67005Y-37103D01*
X67019Y-37084D01*
X67019Y-37065D01*
X67005Y-37047D01*
X66991Y-37037D01*
X66963Y-37028D01*
X66907Y-37019D01*
X66836Y-37019D01*
X66780Y-37028D01*
X66752Y-37037D01*
X66738Y-37047D01*
X66724Y-37065D01*
X66752Y-37207D02*
X66738Y-37216D01*
X66724Y-37235D01*
X66724Y-37282D01*
X66738Y-37300D01*
X66752Y-37310D01*
X66780Y-37319D01*
X66808Y-37319D01*
X66850Y-37310D01*
X67019Y-37197D01*
X67019Y-37319D01*
X66699Y-35753D02*
X66699Y-35875D01*
X66811Y-35809D01*
X66811Y-35838D01*
X66825Y-35856D01*
X66839Y-35866D01*
X66867Y-35875D01*
X66938Y-35875D01*
X66966Y-35866D01*
X66980Y-35856D01*
X66994Y-35838D01*
X66994Y-35781D01*
X66980Y-35763D01*
X66966Y-35753D01*
X66685Y-36101D02*
X67064Y-35932D01*
X66699Y-36260D02*
X66699Y-36166D01*
X66839Y-36157D01*
X66825Y-36166D01*
X66811Y-36185D01*
X66811Y-36232D01*
X66825Y-36250D01*
X66839Y-36260D01*
X66867Y-36269D01*
X66938Y-36269D01*
X66966Y-36260D01*
X66980Y-36250D01*
X66994Y-36232D01*
X66994Y-36185D01*
X66980Y-36166D01*
X66966Y-36157D01*
X66699Y-36326D02*
X66994Y-36391D01*
X66699Y-36457D01*
X51353Y-40782D02*
X51203Y-40782D01*
X51278Y-40894D02*
X51278Y-40669D01*
X51015Y-40599D02*
X51109Y-40599D01*
X51118Y-40739D01*
X51109Y-40725D01*
X51090Y-40711D01*
X51043Y-40711D01*
X51025Y-40725D01*
X51015Y-40739D01*
X51006Y-40767D01*
X51006Y-40838D01*
X51015Y-40866D01*
X51025Y-40880D01*
X51043Y-40894D01*
X51090Y-40894D01*
X51109Y-40880D01*
X51118Y-40866D01*
X50949Y-40599D02*
X50884Y-40894D01*
X50818Y-40599D01*
X50250Y-40663D02*
X50269Y-40649D01*
X50297Y-40649D01*
X50325Y-40663D01*
X50344Y-40691D01*
X50353Y-40719D01*
X50362Y-40775D01*
X50362Y-40817D01*
X50353Y-40874D01*
X50344Y-40902D01*
X50325Y-40930D01*
X50297Y-40944D01*
X50278Y-40944D01*
X50250Y-40930D01*
X50241Y-40916D01*
X50241Y-40817D01*
X50278Y-40817D01*
X50156Y-40944D02*
X50156Y-40649D01*
X50044Y-40944D01*
X50044Y-40649D01*
X49950Y-40944D02*
X49950Y-40649D01*
X49903Y-40649D01*
X49875Y-40663D01*
X49856Y-40691D01*
X49847Y-40719D01*
X49838Y-40775D01*
X49838Y-40817D01*
X49847Y-40874D01*
X49856Y-40902D01*
X49875Y-40930D01*
X49903Y-40944D01*
X49950Y-40944D01*
X49617Y-40624D02*
X49552Y-40919D01*
X49486Y-40624D01*
X49420Y-40919D02*
X49420Y-40624D01*
X49326Y-40919D02*
X49326Y-40624D01*
X49279Y-40624D01*
X49251Y-40638D01*
X49232Y-40666D01*
X49223Y-40694D01*
X49214Y-40750D01*
X49214Y-40792D01*
X49223Y-40849D01*
X49232Y-40877D01*
X49251Y-40905D01*
X49279Y-40919D01*
X49326Y-40919D01*
X49092Y-40624D02*
X49054Y-40624D01*
X49035Y-40638D01*
X49017Y-40666D01*
X49007Y-40722D01*
X49007Y-40821D01*
X49017Y-40877D01*
X49035Y-40905D01*
X49054Y-40919D01*
X49092Y-40919D01*
X49110Y-40905D01*
X49129Y-40877D01*
X49138Y-40821D01*
X49138Y-40722D01*
X49129Y-40666D01*
X49110Y-40638D01*
X49092Y-40624D01*
X48923Y-40807D02*
X48773Y-40807D01*
X48848Y-40919D02*
X48848Y-40694D01*
X48707Y-40624D02*
X48642Y-40919D01*
X48576Y-40624D01*
X48510Y-40919D02*
X48510Y-40624D01*
X57875Y-30462D02*
X57856Y-30476D01*
X57828Y-30476D01*
X57800Y-30462D01*
X57781Y-30434D01*
X57772Y-30406D01*
X57763Y-30350D01*
X57763Y-30308D01*
X57772Y-30251D01*
X57781Y-30223D01*
X57800Y-30195D01*
X57828Y-30181D01*
X57847Y-30181D01*
X57875Y-30195D01*
X57884Y-30209D01*
X57884Y-30308D01*
X57847Y-30308D01*
X57969Y-30181D02*
X57969Y-30476D01*
X58081Y-30181D01*
X58081Y-30476D01*
X58175Y-30181D02*
X58175Y-30476D01*
X58222Y-30476D01*
X58250Y-30462D01*
X58269Y-30434D01*
X58278Y-30406D01*
X58287Y-30350D01*
X58287Y-30308D01*
X58278Y-30251D01*
X58269Y-30223D01*
X58250Y-30195D01*
X58222Y-30181D01*
X58175Y-30181D01*
X53850Y-30437D02*
X53831Y-30451D01*
X53803Y-30451D01*
X53775Y-30437D01*
X53756Y-30409D01*
X53747Y-30381D01*
X53738Y-30325D01*
X53738Y-30283D01*
X53747Y-30226D01*
X53756Y-30198D01*
X53775Y-30170D01*
X53803Y-30156D01*
X53822Y-30156D01*
X53850Y-30170D01*
X53859Y-30184D01*
X53859Y-30283D01*
X53822Y-30283D01*
X53944Y-30156D02*
X53944Y-30451D01*
X54056Y-30156D01*
X54056Y-30451D01*
X54150Y-30156D02*
X54150Y-30451D01*
X54197Y-30451D01*
X54225Y-30437D01*
X54244Y-30409D01*
X54253Y-30381D01*
X54262Y-30325D01*
X54262Y-30283D01*
X54253Y-30226D01*
X54244Y-30198D01*
X54225Y-30170D01*
X54197Y-30156D01*
X54150Y-30156D01*
X50825Y-30437D02*
X50806Y-30451D01*
X50778Y-30451D01*
X50750Y-30437D01*
X50731Y-30409D01*
X50722Y-30381D01*
X50713Y-30325D01*
X50713Y-30283D01*
X50722Y-30226D01*
X50731Y-30198D01*
X50750Y-30170D01*
X50778Y-30156D01*
X50797Y-30156D01*
X50825Y-30170D01*
X50834Y-30184D01*
X50834Y-30283D01*
X50797Y-30283D01*
X50919Y-30156D02*
X50919Y-30451D01*
X51031Y-30156D01*
X51031Y-30451D01*
X51125Y-30156D02*
X51125Y-30451D01*
X51172Y-30451D01*
X51200Y-30437D01*
X51219Y-30409D01*
X51228Y-30381D01*
X51237Y-30325D01*
X51237Y-30283D01*
X51228Y-30226D01*
X51219Y-30198D01*
X51200Y-30170D01*
X51172Y-30156D01*
X51125Y-30156D01*
X48150Y-40638D02*
X48169Y-40624D01*
X48197Y-40624D01*
X48225Y-40638D01*
X48244Y-40666D01*
X48253Y-40694D01*
X48262Y-40750D01*
X48262Y-40792D01*
X48253Y-40849D01*
X48244Y-40877D01*
X48225Y-40905D01*
X48197Y-40919D01*
X48178Y-40919D01*
X48150Y-40905D01*
X48141Y-40891D01*
X48141Y-40792D01*
X48178Y-40792D01*
X48056Y-40919D02*
X48056Y-40624D01*
X47944Y-40919D01*
X47944Y-40624D01*
X47850Y-40919D02*
X47850Y-40624D01*
X47803Y-40624D01*
X47775Y-40638D01*
X47756Y-40666D01*
X47747Y-40694D01*
X47738Y-40750D01*
X47738Y-40792D01*
X47747Y-40849D01*
X47756Y-40877D01*
X47775Y-40905D01*
X47803Y-40919D01*
X47850Y-40919D01*
X46462Y-32150D02*
X46476Y-32169D01*
X46476Y-32197D01*
X46462Y-32225D01*
X46434Y-32244D01*
X46406Y-32253D01*
X46350Y-32262D01*
X46308Y-32262D01*
X46251Y-32253D01*
X46223Y-32244D01*
X46195Y-32225D01*
X46181Y-32197D01*
X46181Y-32178D01*
X46195Y-32150D01*
X46209Y-32141D01*
X46308Y-32141D01*
X46308Y-32178D01*
X46181Y-32056D02*
X46476Y-32056D01*
X46181Y-31944D01*
X46476Y-31944D01*
X46181Y-31850D02*
X46476Y-31850D01*
X46476Y-31803D01*
X46462Y-31775D01*
X46434Y-31756D01*
X46406Y-31747D01*
X46350Y-31738D01*
X46308Y-31738D01*
X46251Y-31747D01*
X46223Y-31756D01*
X46195Y-31775D01*
X46181Y-31803D01*
X46181Y-31850D01*
X46351Y-31212D02*
X46056Y-31147D01*
X46351Y-31081D01*
X46168Y-31015D02*
X46168Y-30865D01*
X46056Y-30940D02*
X46281Y-30940D01*
G54D12*
X47869Y-30412D02*
X47852Y-30426D01*
X47828Y-30426D01*
X47803Y-30412D01*
X47786Y-30384D01*
X47778Y-30356D01*
X47770Y-30300D01*
X47770Y-30258D01*
X47778Y-30201D01*
X47786Y-30173D01*
X47803Y-30145D01*
X47828Y-30131D01*
X47844Y-30131D01*
X47869Y-30145D01*
X47877Y-30159D01*
X47877Y-30258D01*
X47844Y-30258D01*
X47951Y-30131D02*
X47951Y-30426D01*
X48050Y-30131D01*
X48050Y-30426D01*
X48132Y-30131D02*
X48132Y-30426D01*
X48173Y-30426D01*
X48198Y-30412D01*
X48215Y-30384D01*
X48223Y-30356D01*
X48231Y-30300D01*
X48231Y-30258D01*
X48223Y-30201D01*
X48215Y-30173D01*
X48198Y-30145D01*
X48173Y-30131D01*
X48132Y-30131D01*
X48786Y-30156D02*
X48786Y-30451D01*
X48852Y-30451D01*
X48869Y-30437D01*
X48877Y-30423D01*
X48885Y-30395D01*
X48885Y-30353D01*
X48877Y-30325D01*
X48869Y-30311D01*
X48852Y-30297D01*
X48786Y-30297D01*
X49017Y-30311D02*
X49042Y-30297D01*
X49050Y-30283D01*
X49058Y-30254D01*
X49058Y-30212D01*
X49050Y-30184D01*
X49042Y-30170D01*
X49025Y-30156D01*
X48959Y-30156D01*
X48959Y-30451D01*
X49017Y-30451D01*
X49033Y-30437D01*
X49042Y-30423D01*
X49050Y-30395D01*
X49050Y-30367D01*
X49042Y-30339D01*
X49033Y-30325D01*
X49017Y-30311D01*
X48959Y-30311D01*
X49140Y-30156D02*
X49173Y-30156D01*
X49190Y-30170D01*
X49198Y-30184D01*
X49215Y-30226D01*
X49223Y-30283D01*
X49223Y-30395D01*
X49215Y-30423D01*
X49206Y-30437D01*
X49190Y-30451D01*
X49157Y-30451D01*
X49140Y-30437D01*
X49132Y-30423D01*
X49124Y-30395D01*
X49124Y-30325D01*
X49132Y-30297D01*
X49140Y-30283D01*
X49157Y-30268D01*
X49190Y-30268D01*
X49206Y-30283D01*
X49215Y-30297D01*
X49223Y-30325D01*
G54D11*
X61416Y-35695D02*
X61453Y-35667D01*
X61491Y-35611D01*
X61547Y-35526D01*
X61584Y-35498D01*
X61622Y-35498D01*
X61603Y-35639D02*
X61641Y-35611D01*
X61678Y-35554D01*
X61697Y-35442D01*
X61697Y-35245D01*
X61678Y-35132D01*
X61641Y-35076D01*
X61603Y-35048D01*
X61528Y-35048D01*
X61491Y-35076D01*
X61453Y-35132D01*
X61434Y-35245D01*
X61434Y-35442D01*
X61453Y-35554D01*
X61491Y-35611D01*
X61528Y-35639D01*
X61603Y-35639D01*
X61096Y-35245D02*
X61096Y-35639D01*
X61265Y-35245D02*
X61265Y-35554D01*
X61246Y-35611D01*
X61209Y-35639D01*
X61153Y-35639D01*
X61115Y-35611D01*
X61096Y-35582D01*
X60740Y-35639D02*
X60740Y-35329D01*
X60759Y-35273D01*
X60797Y-35245D01*
X60872Y-35245D01*
X60909Y-35273D01*
X60740Y-35611D02*
X60778Y-35639D01*
X60872Y-35639D01*
X60909Y-35611D01*
X60928Y-35554D01*
X60928Y-35498D01*
X60909Y-35442D01*
X60872Y-35414D01*
X60778Y-35414D01*
X60740Y-35385D01*
X60553Y-35245D02*
X60553Y-35639D01*
X60553Y-35301D02*
X60534Y-35273D01*
X60497Y-35245D01*
X60441Y-35245D01*
X60403Y-35273D01*
X60384Y-35329D01*
X60384Y-35639D01*
X60253Y-35245D02*
X60103Y-35245D01*
X60197Y-35048D02*
X60197Y-35554D01*
X60178Y-35611D01*
X60141Y-35639D01*
X60103Y-35639D01*
X59972Y-35639D02*
X59972Y-35245D01*
X59972Y-35357D02*
X59953Y-35301D01*
X59935Y-35273D01*
X59897Y-35245D01*
X59860Y-35245D01*
X59559Y-35639D02*
X59559Y-35329D01*
X59578Y-35273D01*
X59616Y-35245D01*
X59691Y-35245D01*
X59728Y-35273D01*
X59559Y-35611D02*
X59597Y-35639D01*
X59691Y-35639D01*
X59728Y-35611D01*
X59747Y-35554D01*
X59747Y-35498D01*
X59728Y-35442D01*
X59691Y-35414D01*
X59597Y-35414D01*
X59559Y-35385D01*
X59203Y-35611D02*
X59241Y-35639D01*
X59316Y-35639D01*
X59353Y-35611D01*
X59372Y-35582D01*
X59391Y-35526D01*
X59391Y-35357D01*
X59372Y-35301D01*
X59353Y-35273D01*
X59316Y-35245D01*
X59241Y-35245D01*
X59203Y-35273D01*
X59034Y-35639D02*
X59034Y-35048D01*
X58997Y-35414D02*
X58884Y-35639D01*
X58884Y-35245D02*
X59034Y-35470D01*
X58565Y-35611D02*
X58603Y-35639D01*
X58678Y-35639D01*
X58715Y-35611D01*
X58734Y-35554D01*
X58734Y-35329D01*
X58715Y-35273D01*
X58678Y-35245D01*
X58603Y-35245D01*
X58565Y-35273D01*
X58546Y-35329D01*
X58546Y-35385D01*
X58734Y-35442D01*
X58377Y-35639D02*
X58377Y-35245D01*
X58377Y-35357D02*
X58358Y-35301D01*
X58340Y-35273D01*
X58302Y-35245D01*
X58265Y-35245D01*
X61201Y-36346D02*
X61013Y-36346D01*
X61238Y-36515D02*
X61107Y-35924D01*
X60976Y-36515D01*
X60844Y-36515D02*
X60844Y-36121D01*
X60844Y-35924D02*
X60863Y-35952D01*
X60844Y-35980D01*
X60825Y-35952D01*
X60844Y-35924D01*
X60844Y-35980D01*
X60656Y-36515D02*
X60656Y-36121D01*
X60656Y-36233D02*
X60637Y-36177D01*
X60619Y-36149D01*
X60581Y-36121D01*
X60544Y-36121D01*
X59737Y-35924D02*
X59662Y-35924D01*
X59625Y-35952D01*
X59587Y-36008D01*
X59568Y-36121D01*
X59568Y-36318D01*
X59587Y-36430D01*
X59625Y-36487D01*
X59662Y-36515D01*
X59737Y-36515D01*
X59775Y-36487D01*
X59812Y-36430D01*
X59831Y-36318D01*
X59831Y-36121D01*
X59812Y-36008D01*
X59775Y-35952D01*
X59737Y-35924D01*
X59418Y-36487D02*
X59362Y-36515D01*
X59268Y-36515D01*
X59230Y-36487D01*
X59212Y-36458D01*
X59193Y-36402D01*
X59193Y-36346D01*
X59212Y-36290D01*
X59230Y-36261D01*
X59268Y-36233D01*
X59343Y-36205D01*
X59380Y-36177D01*
X59399Y-36149D01*
X59418Y-36093D01*
X59418Y-36036D01*
X59399Y-35980D01*
X59380Y-35952D01*
X59343Y-35924D01*
X59249Y-35924D01*
X59193Y-35952D01*
X59024Y-36515D02*
X59024Y-35924D01*
X58930Y-35924D01*
X58874Y-35952D01*
X58837Y-36008D01*
X58818Y-36064D01*
X58799Y-36177D01*
X58799Y-36261D01*
X58818Y-36374D01*
X58837Y-36430D01*
X58874Y-36487D01*
X58930Y-36515D01*
X59024Y-36515D01*
X60600Y-36800D02*
X60469Y-37391D01*
X60338Y-36800D01*
X60225Y-36856D02*
X60206Y-36828D01*
X60169Y-36800D01*
X60075Y-36800D01*
X60037Y-36828D01*
X60019Y-36856D01*
X60000Y-36912D01*
X60000Y-36969D01*
X60019Y-37053D01*
X60244Y-37391D01*
X60000Y-37391D01*
X59831Y-37334D02*
X59812Y-37363D01*
X59831Y-37391D01*
X59850Y-37363D01*
X59831Y-37334D01*
X59831Y-37391D01*
X59437Y-37391D02*
X59662Y-37391D01*
X59549Y-37391D02*
X59549Y-36800D01*
X59587Y-36884D01*
X59624Y-36940D01*
X59662Y-36969D01*
G54D13*
X63000Y-38500D02*
X62500Y-39000D01*
X63000Y-32500D02*
X63000Y-38500D01*
X62500Y-32000D02*
X63000Y-32500D01*
X64500Y-38500D02*
X66500Y-38500D01*
X63500Y-37500D02*
X64500Y-38500D01*
X64500Y-32500D02*
X66500Y-32500D01*
X63500Y-33500D02*
X64500Y-32500D01*
X63500Y-33500D02*
X63500Y-37500D01*
G54D12*
X64135Y-33854D02*
X63840Y-33854D01*
X63840Y-33895D01*
X63854Y-33920D01*
X63882Y-33937D01*
X63910Y-33945D01*
X63966Y-33953D01*
X64008Y-33953D01*
X64065Y-33945D01*
X64093Y-33937D01*
X64121Y-33920D01*
X64135Y-33895D01*
X64135Y-33854D01*
X64135Y-34027D02*
X63840Y-34027D01*
X63854Y-34200D02*
X63840Y-34183D01*
X63840Y-34159D01*
X63854Y-34134D01*
X63882Y-34117D01*
X63910Y-34109D01*
X63966Y-34101D01*
X64008Y-34101D01*
X64065Y-34109D01*
X64093Y-34117D01*
X64121Y-34134D01*
X64135Y-34159D01*
X64135Y-34175D01*
X64121Y-34200D01*
X64107Y-34208D01*
X64008Y-34208D01*
X64008Y-34175D01*
X64135Y-34282D02*
X63840Y-34282D01*
X63840Y-34339D02*
X63840Y-34438D01*
X64135Y-34389D02*
X63840Y-34389D01*
X64051Y-34488D02*
X64051Y-34570D01*
X64135Y-34471D02*
X63840Y-34529D01*
X64135Y-34587D01*
X64135Y-34727D02*
X64135Y-34644D01*
X63840Y-34644D01*
X64135Y-34867D02*
X64135Y-34784D01*
X63840Y-34784D01*
X63994Y-34957D02*
X64135Y-34957D01*
X63840Y-34899D02*
X63994Y-34957D01*
X63840Y-35015D01*
X64135Y-35204D02*
X63840Y-35204D01*
X64121Y-35278D02*
X64135Y-35303D01*
X64135Y-35344D01*
X64121Y-35360D01*
X64107Y-35369D01*
X64079Y-35377D01*
X64051Y-35377D01*
X64023Y-35369D01*
X64008Y-35360D01*
X63994Y-35344D01*
X63980Y-35311D01*
X63966Y-35294D01*
X63952Y-35286D01*
X63924Y-35278D01*
X63896Y-35278D01*
X63868Y-35286D01*
X63854Y-35294D01*
X63840Y-35311D01*
X63840Y-35352D01*
X63854Y-35377D01*
X63840Y-35484D02*
X63840Y-35517D01*
X63854Y-35534D01*
X63882Y-35550D01*
X63938Y-35558D01*
X64037Y-35558D01*
X64093Y-35550D01*
X64121Y-35534D01*
X64135Y-35517D01*
X64135Y-35484D01*
X64121Y-35468D01*
X64093Y-35451D01*
X64037Y-35443D01*
X63938Y-35443D01*
X63882Y-35451D01*
X63854Y-35468D01*
X63840Y-35484D01*
X64135Y-35715D02*
X64135Y-35632D01*
X63840Y-35632D01*
X64051Y-35764D02*
X64051Y-35846D01*
X64135Y-35747D02*
X63840Y-35805D01*
X64135Y-35863D01*
X63840Y-35895D02*
X63840Y-35994D01*
X64135Y-35945D02*
X63840Y-35945D01*
X63980Y-36052D02*
X63980Y-36110D01*
X64135Y-36135D02*
X64135Y-36052D01*
X63840Y-36052D01*
X63840Y-36135D01*
X64135Y-36209D02*
X63840Y-36209D01*
X63840Y-36250D01*
X63854Y-36275D01*
X63882Y-36292D01*
X63910Y-36300D01*
X63966Y-36308D01*
X64008Y-36308D01*
X64065Y-36300D01*
X64093Y-36292D01*
X64121Y-36275D01*
X64135Y-36250D01*
X64135Y-36209D01*
X64135Y-36514D02*
X63840Y-36514D01*
X63840Y-36580D01*
X63854Y-36597D01*
X63868Y-36605D01*
X63896Y-36613D01*
X63938Y-36613D01*
X63966Y-36605D01*
X63980Y-36597D01*
X63994Y-36580D01*
X63994Y-36514D01*
X63840Y-36720D02*
X63840Y-36753D01*
X63854Y-36770D01*
X63882Y-36786D01*
X63938Y-36794D01*
X64037Y-36794D01*
X64093Y-36786D01*
X64121Y-36770D01*
X64135Y-36753D01*
X64135Y-36720D01*
X64121Y-36704D01*
X64093Y-36687D01*
X64037Y-36679D01*
X63938Y-36679D01*
X63882Y-36687D01*
X63854Y-36704D01*
X63840Y-36720D01*
X64135Y-36967D02*
X63994Y-36909D01*
X64135Y-36868D02*
X63840Y-36868D01*
X63840Y-36934D01*
X63854Y-36951D01*
X63868Y-36959D01*
X63896Y-36967D01*
X63938Y-36967D01*
X63966Y-36959D01*
X63980Y-36951D01*
X63994Y-36934D01*
X63994Y-36868D01*
X63840Y-37016D02*
X63840Y-37115D01*
X64135Y-37066D02*
X63840Y-37066D01*
X66699Y-32745D02*
X66699Y-32844D01*
X66994Y-32795D02*
X66699Y-32795D01*
X66699Y-32886D02*
X66994Y-33001D01*
X66699Y-33001D02*
X66994Y-32886D01*
X66699Y-33100D02*
X66699Y-33133D01*
X66713Y-33150D01*
X66741Y-33166D01*
X66797Y-33174D01*
X66896Y-33174D01*
X66952Y-33166D01*
X66980Y-33150D01*
X66994Y-33133D01*
X66994Y-33100D01*
X66980Y-33084D01*
X66952Y-33067D01*
X66896Y-33059D01*
X66797Y-33059D01*
X66741Y-33067D01*
X66713Y-33084D01*
X66699Y-33100D01*
X66727Y-33240D02*
X66713Y-33248D01*
X66699Y-33265D01*
X66699Y-33306D01*
X66713Y-33322D01*
X66727Y-33331D01*
X66755Y-33339D01*
X66783Y-33339D01*
X66825Y-33331D01*
X66994Y-33232D01*
X66994Y-33339D01*
X66699Y-33852D02*
X66699Y-33951D01*
X66994Y-33902D02*
X66699Y-33902D01*
X66699Y-33993D02*
X66994Y-34108D01*
X66699Y-34108D02*
X66994Y-33993D01*
X66699Y-34207D02*
X66699Y-34240D01*
X66713Y-34257D01*
X66741Y-34273D01*
X66797Y-34281D01*
X66896Y-34281D01*
X66952Y-34273D01*
X66980Y-34257D01*
X66994Y-34240D01*
X66994Y-34207D01*
X66980Y-34191D01*
X66952Y-34174D01*
X66896Y-34166D01*
X66797Y-34166D01*
X66741Y-34174D01*
X66713Y-34191D01*
X66699Y-34207D01*
X66994Y-34955D02*
X66853Y-34897D01*
X66994Y-34856D02*
X66699Y-34856D01*
X66699Y-34922D01*
X66713Y-34939D01*
X66727Y-34947D01*
X66755Y-34955D01*
X66797Y-34955D01*
X66825Y-34947D01*
X66839Y-34939D01*
X66853Y-34922D01*
X66853Y-34856D01*
X66699Y-35013D02*
X66994Y-35128D01*
X66699Y-35128D02*
X66994Y-35013D01*
X66994Y-35194D02*
X66699Y-35194D01*
X46362Y-38156D02*
X46376Y-38173D01*
X46376Y-38197D01*
X46362Y-38222D01*
X46334Y-38239D01*
X46306Y-38247D01*
X46250Y-38255D01*
X46208Y-38255D01*
X46151Y-38247D01*
X46123Y-38239D01*
X46095Y-38222D01*
X46081Y-38197D01*
X46081Y-38181D01*
X46095Y-38156D01*
X46109Y-38148D01*
X46208Y-38148D01*
X46208Y-38181D01*
X46081Y-38074D02*
X46376Y-38074D01*
X46081Y-37975D01*
X46376Y-37975D01*
X46081Y-37893D02*
X46376Y-37893D01*
X46376Y-37852D01*
X46362Y-37827D01*
X46334Y-37810D01*
X46306Y-37802D01*
X46250Y-37794D01*
X46208Y-37794D01*
X46151Y-37802D01*
X46123Y-37810D01*
X46095Y-37827D01*
X46081Y-37852D01*
X46081Y-37893D01*
X48469Y-38162D02*
X48452Y-38176D01*
X48428Y-38176D01*
X48403Y-38162D01*
X48386Y-38134D01*
X48378Y-38106D01*
X48370Y-38050D01*
X48370Y-38008D01*
X48378Y-37951D01*
X48386Y-37923D01*
X48403Y-37895D01*
X48428Y-37881D01*
X48444Y-37881D01*
X48469Y-37895D01*
X48477Y-37909D01*
X48477Y-38008D01*
X48444Y-38008D01*
X48551Y-37881D02*
X48551Y-38176D01*
X48650Y-37881D01*
X48650Y-38176D01*
X48732Y-37881D02*
X48732Y-38176D01*
X48773Y-38176D01*
X48798Y-38162D01*
X48815Y-38134D01*
X48823Y-38106D01*
X48831Y-38050D01*
X48831Y-38008D01*
X48823Y-37951D01*
X48815Y-37923D01*
X48798Y-37895D01*
X48773Y-37881D01*
X48732Y-37881D01*
X49348Y-37124D02*
X49290Y-37419D01*
X49232Y-37124D01*
X49175Y-37419D02*
X49175Y-37124D01*
X49093Y-37419D02*
X49093Y-37124D01*
X49052Y-37124D01*
X49027Y-37138D01*
X49010Y-37166D01*
X49002Y-37194D01*
X48994Y-37250D01*
X48994Y-37292D01*
X49002Y-37349D01*
X49010Y-37377D01*
X49027Y-37405D01*
X49052Y-37419D01*
X49093Y-37419D01*
X48920Y-37419D02*
X48920Y-37124D01*
X48838Y-37307D02*
X48706Y-37307D01*
X48772Y-37419D02*
X48772Y-37194D01*
X48649Y-37124D02*
X48591Y-37419D01*
X48533Y-37124D01*
X48476Y-37419D02*
X48476Y-37124D01*
X46376Y-37572D02*
X46081Y-37514D01*
X46376Y-37456D01*
X46081Y-37399D02*
X46376Y-37399D01*
X46081Y-37317D02*
X46376Y-37317D01*
X46376Y-37276D01*
X46362Y-37251D01*
X46334Y-37234D01*
X46306Y-37226D01*
X46250Y-37218D01*
X46208Y-37218D01*
X46151Y-37226D01*
X46123Y-37234D01*
X46095Y-37251D01*
X46081Y-37276D01*
X46081Y-37317D01*
X46376Y-37111D02*
X46376Y-37078D01*
X46362Y-37061D01*
X46334Y-37045D01*
X46278Y-37037D01*
X46179Y-37037D01*
X46123Y-37045D01*
X46095Y-37061D01*
X46081Y-37078D01*
X46081Y-37111D01*
X46095Y-37127D01*
X46123Y-37144D01*
X46179Y-37152D01*
X46278Y-37152D01*
X46334Y-37144D01*
X46362Y-37127D01*
X46376Y-37111D01*
X46193Y-36963D02*
X46193Y-36831D01*
X46081Y-36897D02*
X46306Y-36897D01*
X46376Y-36774D02*
X46081Y-36716D01*
X46376Y-36658D01*
X46376Y-36568D02*
X46376Y-36535D01*
X46362Y-36518D01*
X46334Y-36502D01*
X46278Y-36494D01*
X46179Y-36494D01*
X46123Y-36502D01*
X46095Y-36518D01*
X46081Y-36535D01*
X46081Y-36568D01*
X46095Y-36584D01*
X46123Y-36601D01*
X46179Y-36609D01*
X46278Y-36609D01*
X46334Y-36601D01*
X46362Y-36584D01*
X46376Y-36568D01*
X48326Y-35224D02*
X48268Y-35519D01*
X48210Y-35224D01*
X48153Y-35519D02*
X48153Y-35224D01*
X48071Y-35519D02*
X48071Y-35224D01*
X48030Y-35224D01*
X48005Y-35238D01*
X47988Y-35266D01*
X47980Y-35294D01*
X47972Y-35350D01*
X47972Y-35392D01*
X47980Y-35449D01*
X47988Y-35477D01*
X48005Y-35505D01*
X48030Y-35519D01*
X48071Y-35519D01*
X47898Y-35519D02*
X47898Y-35224D01*
X46351Y-36251D02*
X46056Y-36193D01*
X46351Y-36135D01*
X46056Y-36078D02*
X46351Y-36078D01*
X46056Y-35996D02*
X46351Y-35996D01*
X46351Y-35955D01*
X46337Y-35930D01*
X46309Y-35913D01*
X46281Y-35905D01*
X46225Y-35897D01*
X46183Y-35897D01*
X46126Y-35905D01*
X46098Y-35913D01*
X46070Y-35930D01*
X46056Y-35955D01*
X46056Y-35996D01*
X46351Y-35790D02*
X46351Y-35757D01*
X46337Y-35740D01*
X46309Y-35724D01*
X46253Y-35716D01*
X46154Y-35716D01*
X46098Y-35724D01*
X46070Y-35740D01*
X46056Y-35757D01*
X46056Y-35790D01*
X46070Y-35806D01*
X46098Y-35823D01*
X46154Y-35831D01*
X46253Y-35831D01*
X46309Y-35823D01*
X46337Y-35806D01*
X46351Y-35790D01*
X46090Y-35304D02*
X46090Y-35222D01*
X46006Y-35321D02*
X46301Y-35263D01*
X46006Y-35205D01*
X46301Y-35148D02*
X46062Y-35148D01*
X46034Y-35140D01*
X46020Y-35131D01*
X46006Y-35115D01*
X46006Y-35082D01*
X46020Y-35065D01*
X46034Y-35057D01*
X46062Y-35049D01*
X46301Y-35049D01*
X46006Y-34967D02*
X46301Y-34967D01*
X46301Y-34926D01*
X46287Y-34901D01*
X46259Y-34884D01*
X46231Y-34876D01*
X46175Y-34868D01*
X46133Y-34868D01*
X46076Y-34876D01*
X46048Y-34884D01*
X46020Y-34901D01*
X46006Y-34926D01*
X46006Y-34967D01*
X46006Y-34695D02*
X46147Y-34753D01*
X46006Y-34794D02*
X46301Y-34794D01*
X46301Y-34728D01*
X46287Y-34711D01*
X46273Y-34703D01*
X46245Y-34695D01*
X46203Y-34695D01*
X46175Y-34703D01*
X46161Y-34711D01*
X46147Y-34728D01*
X46147Y-34794D01*
X46090Y-34263D02*
X46090Y-34181D01*
X46006Y-34280D02*
X46301Y-34222D01*
X46006Y-34164D01*
X46301Y-34107D02*
X46062Y-34107D01*
X46034Y-34099D01*
X46020Y-34090D01*
X46006Y-34074D01*
X46006Y-34041D01*
X46020Y-34024D01*
X46034Y-34016D01*
X46062Y-34008D01*
X46301Y-34008D01*
X46006Y-33926D02*
X46301Y-33926D01*
X46301Y-33885D01*
X46287Y-33860D01*
X46259Y-33843D01*
X46231Y-33835D01*
X46175Y-33827D01*
X46133Y-33827D01*
X46076Y-33835D01*
X46048Y-33843D01*
X46020Y-33860D01*
X46006Y-33885D01*
X46006Y-33926D01*
X46006Y-33670D02*
X46006Y-33753D01*
X46301Y-33753D01*
X66131Y-40613D02*
X66148Y-40599D01*
X66172Y-40599D01*
X66197Y-40613D01*
X66214Y-40641D01*
X66222Y-40669D01*
X66230Y-40725D01*
X66230Y-40767D01*
X66222Y-40824D01*
X66214Y-40852D01*
X66197Y-40880D01*
X66172Y-40894D01*
X66156Y-40894D01*
X66131Y-40880D01*
X66123Y-40866D01*
X66123Y-40767D01*
X66156Y-40767D01*
X66049Y-40894D02*
X66049Y-40599D01*
X65950Y-40894D01*
X65950Y-40599D01*
X65868Y-40894D02*
X65868Y-40599D01*
X65827Y-40599D01*
X65802Y-40613D01*
X65785Y-40641D01*
X65777Y-40669D01*
X65769Y-40725D01*
X65769Y-40767D01*
X65777Y-40824D01*
X65785Y-40852D01*
X65802Y-40880D01*
X65827Y-40894D01*
X65868Y-40894D01*
X65252Y-40894D02*
X65252Y-40599D01*
X65186Y-40599D01*
X65169Y-40613D01*
X65161Y-40627D01*
X65153Y-40655D01*
X65153Y-40697D01*
X65161Y-40725D01*
X65169Y-40739D01*
X65186Y-40753D01*
X65252Y-40753D01*
X65087Y-40810D02*
X65005Y-40810D01*
X65104Y-40894D02*
X65046Y-40599D01*
X64988Y-40894D01*
X64906Y-40725D02*
X64923Y-40711D01*
X64931Y-40697D01*
X64939Y-40669D01*
X64939Y-40655D01*
X64931Y-40627D01*
X64923Y-40613D01*
X64906Y-40599D01*
X64873Y-40599D01*
X64857Y-40613D01*
X64848Y-40627D01*
X64840Y-40655D01*
X64840Y-40669D01*
X64848Y-40697D01*
X64857Y-40711D01*
X64873Y-40725D01*
X64906Y-40725D01*
X64923Y-40739D01*
X64931Y-40753D01*
X64939Y-40782D01*
X64939Y-40838D01*
X64931Y-40866D01*
X64923Y-40880D01*
X64906Y-40894D01*
X64873Y-40894D01*
X64857Y-40880D01*
X64848Y-40866D01*
X64840Y-40838D01*
X64840Y-40782D01*
X64848Y-40753D01*
X64857Y-40739D01*
X64873Y-40725D01*
X64189Y-40894D02*
X64189Y-40599D01*
X64123Y-40599D01*
X64106Y-40613D01*
X64098Y-40627D01*
X64090Y-40655D01*
X64090Y-40697D01*
X64098Y-40725D01*
X64106Y-40739D01*
X64123Y-40753D01*
X64189Y-40753D01*
X63917Y-40866D02*
X63925Y-40880D01*
X63950Y-40894D01*
X63966Y-40894D01*
X63991Y-40880D01*
X64008Y-40852D01*
X64016Y-40824D01*
X64024Y-40767D01*
X64024Y-40725D01*
X64016Y-40669D01*
X64008Y-40641D01*
X63991Y-40613D01*
X63966Y-40599D01*
X63950Y-40599D01*
X63925Y-40613D01*
X63917Y-40627D01*
X63835Y-40894D02*
X63802Y-40894D01*
X63785Y-40880D01*
X63777Y-40866D01*
X63760Y-40824D01*
X63752Y-40767D01*
X63752Y-40655D01*
X63760Y-40627D01*
X63769Y-40613D01*
X63785Y-40599D01*
X63818Y-40599D01*
X63835Y-40613D01*
X63843Y-40627D01*
X63851Y-40655D01*
X63851Y-40725D01*
X63843Y-40753D01*
X63835Y-40767D01*
X63818Y-40782D01*
X63785Y-40782D01*
X63769Y-40767D01*
X63760Y-40753D01*
X63752Y-40725D01*
X63214Y-40894D02*
X63214Y-40599D01*
X63148Y-40599D01*
X63131Y-40613D01*
X63123Y-40627D01*
X63115Y-40655D01*
X63115Y-40697D01*
X63123Y-40725D01*
X63131Y-40739D01*
X63148Y-40753D01*
X63214Y-40753D01*
X62942Y-40866D02*
X62950Y-40880D01*
X62975Y-40894D01*
X62991Y-40894D01*
X63016Y-40880D01*
X63033Y-40852D01*
X63041Y-40824D01*
X63049Y-40767D01*
X63049Y-40725D01*
X63041Y-40669D01*
X63033Y-40641D01*
X63016Y-40613D01*
X62991Y-40599D01*
X62975Y-40599D01*
X62950Y-40613D01*
X62942Y-40627D01*
X62785Y-40599D02*
X62868Y-40599D01*
X62876Y-40739D01*
X62868Y-40725D01*
X62851Y-40711D01*
X62810Y-40711D01*
X62794Y-40725D01*
X62785Y-40739D01*
X62777Y-40767D01*
X62777Y-40838D01*
X62785Y-40866D01*
X62794Y-40880D01*
X62810Y-40894D01*
X62851Y-40894D01*
X62868Y-40880D01*
X62876Y-40866D01*
X62189Y-40894D02*
X62189Y-40599D01*
X62123Y-40599D01*
X62106Y-40613D01*
X62098Y-40627D01*
X62090Y-40655D01*
X62090Y-40697D01*
X62098Y-40725D01*
X62106Y-40739D01*
X62123Y-40753D01*
X62189Y-40753D01*
X61917Y-40866D02*
X61925Y-40880D01*
X61950Y-40894D01*
X61966Y-40894D01*
X61991Y-40880D01*
X62008Y-40852D01*
X62016Y-40824D01*
X62024Y-40767D01*
X62024Y-40725D01*
X62016Y-40669D01*
X62008Y-40641D01*
X61991Y-40613D01*
X61966Y-40599D01*
X61950Y-40599D01*
X61925Y-40613D01*
X61917Y-40627D01*
X61769Y-40697D02*
X61769Y-40894D01*
X61810Y-40585D02*
X61851Y-40796D01*
X61744Y-40796D01*
X61214Y-40869D02*
X61214Y-40574D01*
X61148Y-40574D01*
X61131Y-40588D01*
X61123Y-40602D01*
X61115Y-40630D01*
X61115Y-40672D01*
X61123Y-40700D01*
X61131Y-40714D01*
X61148Y-40728D01*
X61214Y-40728D01*
X60942Y-40841D02*
X60950Y-40855D01*
X60975Y-40869D01*
X60991Y-40869D01*
X61016Y-40855D01*
X61033Y-40827D01*
X61041Y-40799D01*
X61049Y-40742D01*
X61049Y-40700D01*
X61041Y-40644D01*
X61033Y-40616D01*
X61016Y-40588D01*
X60991Y-40574D01*
X60975Y-40574D01*
X60950Y-40588D01*
X60942Y-40602D01*
X60884Y-40574D02*
X60777Y-40574D01*
X60835Y-40686D01*
X60810Y-40686D01*
X60794Y-40700D01*
X60785Y-40714D01*
X60777Y-40742D01*
X60777Y-40813D01*
X60785Y-40841D01*
X60794Y-40855D01*
X60810Y-40869D01*
X60860Y-40869D01*
X60876Y-40855D01*
X60884Y-40841D01*
X59227Y-40869D02*
X59227Y-40574D01*
X59161Y-40574D01*
X59144Y-40588D01*
X59136Y-40602D01*
X59128Y-40630D01*
X59128Y-40672D01*
X59136Y-40700D01*
X59144Y-40714D01*
X59161Y-40728D01*
X59227Y-40728D01*
X59062Y-40785D02*
X58980Y-40785D01*
X59079Y-40869D02*
X59021Y-40574D01*
X58963Y-40869D01*
X58873Y-40574D02*
X58856Y-40574D01*
X58840Y-40588D01*
X58832Y-40602D01*
X58823Y-40630D01*
X58815Y-40686D01*
X58815Y-40757D01*
X58823Y-40813D01*
X58832Y-40841D01*
X58840Y-40855D01*
X58856Y-40869D01*
X58873Y-40869D01*
X58889Y-40855D01*
X58898Y-40841D01*
X58906Y-40813D01*
X58914Y-40757D01*
X58914Y-40686D01*
X58906Y-40630D01*
X58898Y-40602D01*
X58889Y-40588D01*
X58873Y-40574D01*
X58202Y-40869D02*
X58202Y-40574D01*
X58136Y-40574D01*
X58119Y-40588D01*
X58111Y-40602D01*
X58103Y-40630D01*
X58103Y-40672D01*
X58111Y-40700D01*
X58119Y-40714D01*
X58136Y-40728D01*
X58202Y-40728D01*
X58037Y-40785D02*
X57955Y-40785D01*
X58054Y-40869D02*
X57996Y-40574D01*
X57938Y-40869D01*
X57790Y-40869D02*
X57889Y-40869D01*
X57840Y-40869D02*
X57840Y-40574D01*
X57856Y-40616D01*
X57873Y-40644D01*
X57889Y-40658D01*
X57239Y-40869D02*
X57239Y-40574D01*
X57173Y-40574D01*
X57156Y-40588D01*
X57148Y-40602D01*
X57140Y-40630D01*
X57140Y-40672D01*
X57148Y-40700D01*
X57156Y-40714D01*
X57173Y-40728D01*
X57239Y-40728D01*
X56967Y-40841D02*
X56975Y-40855D01*
X57000Y-40869D01*
X57016Y-40869D01*
X57041Y-40855D01*
X57058Y-40827D01*
X57066Y-40799D01*
X57074Y-40742D01*
X57074Y-40700D01*
X57066Y-40644D01*
X57058Y-40616D01*
X57041Y-40588D01*
X57016Y-40574D01*
X57000Y-40574D01*
X56975Y-40588D01*
X56967Y-40602D01*
X56802Y-40869D02*
X56901Y-40869D01*
X56852Y-40869D02*
X56852Y-40574D01*
X56868Y-40616D01*
X56885Y-40644D01*
X56901Y-40658D01*
G54D11*
X56294Y-40869D02*
X56294Y-40574D01*
X56219Y-40574D01*
X56200Y-40588D01*
X56191Y-40602D01*
X56182Y-40630D01*
X56182Y-40672D01*
X56191Y-40700D01*
X56200Y-40714D01*
X56219Y-40728D01*
X56294Y-40728D01*
X55985Y-40841D02*
X55994Y-40855D01*
X56022Y-40869D01*
X56041Y-40869D01*
X56069Y-40855D01*
X56088Y-40827D01*
X56097Y-40799D01*
X56106Y-40742D01*
X56106Y-40700D01*
X56097Y-40644D01*
X56088Y-40616D01*
X56069Y-40588D01*
X56041Y-40574D01*
X56022Y-40574D01*
X55994Y-40588D01*
X55985Y-40602D01*
X55863Y-40574D02*
X55844Y-40574D01*
X55825Y-40588D01*
X55816Y-40602D01*
X55806Y-40630D01*
X55797Y-40686D01*
X55797Y-40757D01*
X55806Y-40813D01*
X55816Y-40841D01*
X55825Y-40855D01*
X55844Y-40869D01*
X55863Y-40869D01*
X55881Y-40855D01*
X55891Y-40841D01*
X55900Y-40813D01*
X55909Y-40757D01*
X55909Y-40686D01*
X55900Y-40630D01*
X55891Y-40602D01*
X55881Y-40588D01*
X55863Y-40574D01*
G54D12*
X60156Y-40588D02*
X60173Y-40574D01*
X60197Y-40574D01*
X60222Y-40588D01*
X60239Y-40616D01*
X60247Y-40644D01*
X60255Y-40700D01*
X60255Y-40742D01*
X60247Y-40799D01*
X60239Y-40827D01*
X60222Y-40855D01*
X60197Y-40869D01*
X60181Y-40869D01*
X60156Y-40855D01*
X60148Y-40841D01*
X60148Y-40742D01*
X60181Y-40742D01*
X60074Y-40869D02*
X60074Y-40574D01*
X59975Y-40869D01*
X59975Y-40574D01*
X59893Y-40869D02*
X59893Y-40574D01*
X59852Y-40574D01*
X59827Y-40588D01*
X59810Y-40616D01*
X59802Y-40644D01*
X59794Y-40700D01*
X59794Y-40742D01*
X59802Y-40799D01*
X59810Y-40827D01*
X59827Y-40855D01*
X59852Y-40869D01*
X59893Y-40869D01*
X55181Y-40613D02*
X55198Y-40599D01*
X55222Y-40599D01*
X55247Y-40613D01*
X55264Y-40641D01*
X55272Y-40669D01*
X55280Y-40725D01*
X55280Y-40767D01*
X55272Y-40824D01*
X55264Y-40852D01*
X55247Y-40880D01*
X55222Y-40894D01*
X55206Y-40894D01*
X55181Y-40880D01*
X55173Y-40866D01*
X55173Y-40767D01*
X55206Y-40767D01*
X55099Y-40894D02*
X55099Y-40599D01*
X55000Y-40894D01*
X55000Y-40599D01*
X54918Y-40894D02*
X54918Y-40599D01*
X54877Y-40599D01*
X54852Y-40613D01*
X54835Y-40641D01*
X54827Y-40669D01*
X54819Y-40725D01*
X54819Y-40767D01*
X54827Y-40824D01*
X54835Y-40852D01*
X54852Y-40880D01*
X54877Y-40894D01*
X54918Y-40894D01*
X54297Y-40894D02*
X54297Y-40599D01*
X54231Y-40599D01*
X54214Y-40613D01*
X54206Y-40627D01*
X54198Y-40655D01*
X54198Y-40697D01*
X54206Y-40725D01*
X54214Y-40739D01*
X54231Y-40753D01*
X54297Y-40753D01*
X54025Y-40866D02*
X54033Y-40880D01*
X54058Y-40894D01*
X54074Y-40894D01*
X54099Y-40880D01*
X54116Y-40852D01*
X54124Y-40824D01*
X54132Y-40767D01*
X54132Y-40725D01*
X54124Y-40669D01*
X54116Y-40641D01*
X54099Y-40613D01*
X54074Y-40599D01*
X54058Y-40599D01*
X54033Y-40613D01*
X54025Y-40627D01*
X53860Y-40894D02*
X53959Y-40894D01*
X53910Y-40894D02*
X53910Y-40599D01*
X53926Y-40641D01*
X53943Y-40669D01*
X53959Y-40683D01*
X53703Y-40599D02*
X53786Y-40599D01*
X53794Y-40739D01*
X53786Y-40725D01*
X53769Y-40711D01*
X53728Y-40711D01*
X53712Y-40725D01*
X53703Y-40739D01*
X53695Y-40767D01*
X53695Y-40838D01*
X53703Y-40866D01*
X53712Y-40880D01*
X53728Y-40894D01*
X53769Y-40894D01*
X53786Y-40880D01*
X53794Y-40866D01*
X53272Y-40894D02*
X53272Y-40599D01*
X53206Y-40599D01*
X53189Y-40613D01*
X53181Y-40627D01*
X53173Y-40655D01*
X53173Y-40697D01*
X53181Y-40725D01*
X53189Y-40739D01*
X53206Y-40753D01*
X53272Y-40753D01*
X53000Y-40866D02*
X53008Y-40880D01*
X53033Y-40894D01*
X53049Y-40894D01*
X53074Y-40880D01*
X53091Y-40852D01*
X53099Y-40824D01*
X53107Y-40767D01*
X53107Y-40725D01*
X53099Y-40669D01*
X53091Y-40641D01*
X53074Y-40613D01*
X53049Y-40599D01*
X53033Y-40599D01*
X53008Y-40613D01*
X53000Y-40627D01*
X52835Y-40894D02*
X52934Y-40894D01*
X52885Y-40894D02*
X52885Y-40599D01*
X52901Y-40641D01*
X52918Y-40669D01*
X52934Y-40683D01*
X52687Y-40697D02*
X52687Y-40894D01*
X52728Y-40585D02*
X52769Y-40796D01*
X52662Y-40796D01*
X52189Y-40894D02*
X52189Y-40599D01*
X52123Y-40599D01*
X52106Y-40613D01*
X52098Y-40627D01*
X52090Y-40655D01*
X52090Y-40697D01*
X52098Y-40725D01*
X52106Y-40739D01*
X52123Y-40753D01*
X52189Y-40753D01*
X51958Y-40739D02*
X51933Y-40753D01*
X51925Y-40767D01*
X51917Y-40796D01*
X51917Y-40838D01*
X51925Y-40866D01*
X51933Y-40880D01*
X51950Y-40894D01*
X52016Y-40894D01*
X52016Y-40599D01*
X51958Y-40599D01*
X51942Y-40613D01*
X51933Y-40627D01*
X51925Y-40655D01*
X51925Y-40683D01*
X51933Y-40711D01*
X51942Y-40725D01*
X51958Y-40739D01*
X52016Y-40739D01*
X51752Y-40894D02*
X51851Y-40894D01*
X51802Y-40894D02*
X51802Y-40599D01*
X51818Y-40641D01*
X51835Y-40669D01*
X51851Y-40683D01*
X47523Y-40624D02*
X47465Y-40919D01*
X47407Y-40624D01*
X47350Y-40919D02*
X47350Y-40624D01*
X47268Y-40919D02*
X47268Y-40624D01*
X47227Y-40624D01*
X47202Y-40638D01*
X47185Y-40666D01*
X47177Y-40694D01*
X47169Y-40750D01*
X47169Y-40792D01*
X47177Y-40849D01*
X47185Y-40877D01*
X47202Y-40905D01*
X47227Y-40919D01*
X47268Y-40919D01*
X47095Y-40919D02*
X47095Y-40624D01*
X47013Y-40807D02*
X46881Y-40807D01*
X46947Y-40919D02*
X46947Y-40694D01*
X46824Y-40624D02*
X46766Y-40919D01*
X46708Y-40624D01*
X46651Y-40919D02*
X46651Y-40624D01*
X63819Y-30412D02*
X63802Y-30426D01*
X63778Y-30426D01*
X63753Y-30412D01*
X63736Y-30384D01*
X63728Y-30356D01*
X63720Y-30300D01*
X63720Y-30258D01*
X63728Y-30201D01*
X63736Y-30173D01*
X63753Y-30145D01*
X63778Y-30131D01*
X63794Y-30131D01*
X63819Y-30145D01*
X63827Y-30159D01*
X63827Y-30258D01*
X63794Y-30258D01*
X63901Y-30131D02*
X63901Y-30426D01*
X64000Y-30131D01*
X64000Y-30426D01*
X64082Y-30131D02*
X64082Y-30426D01*
X64123Y-30426D01*
X64148Y-30412D01*
X64165Y-30384D01*
X64173Y-30356D01*
X64181Y-30300D01*
X64181Y-30258D01*
X64173Y-30201D01*
X64165Y-30173D01*
X64148Y-30145D01*
X64123Y-30131D01*
X64082Y-30131D01*
X65666Y-30156D02*
X65666Y-30451D01*
X65765Y-30156D01*
X65765Y-30451D01*
X65946Y-30156D02*
X65888Y-30297D01*
X65847Y-30156D02*
X65847Y-30451D01*
X65913Y-30451D01*
X65930Y-30437D01*
X65938Y-30423D01*
X65946Y-30395D01*
X65946Y-30353D01*
X65938Y-30325D01*
X65930Y-30311D01*
X65913Y-30297D01*
X65847Y-30297D01*
X66012Y-30170D02*
X66037Y-30156D01*
X66078Y-30156D01*
X66094Y-30170D01*
X66103Y-30184D01*
X66111Y-30212D01*
X66111Y-30240D01*
X66103Y-30268D01*
X66094Y-30283D01*
X66078Y-30297D01*
X66045Y-30311D01*
X66028Y-30325D01*
X66020Y-30339D01*
X66012Y-30367D01*
X66012Y-30395D01*
X66020Y-30423D01*
X66028Y-30437D01*
X66045Y-30451D01*
X66086Y-30451D01*
X66111Y-30437D01*
X66160Y-30451D02*
X66259Y-30451D01*
X66210Y-30156D02*
X66210Y-30451D01*
X64716Y-30156D02*
X64716Y-30451D01*
X64782Y-30451D01*
X64799Y-30437D01*
X64807Y-30423D01*
X64815Y-30395D01*
X64815Y-30353D01*
X64807Y-30325D01*
X64799Y-30311D01*
X64782Y-30297D01*
X64716Y-30297D01*
X64881Y-30240D02*
X64963Y-30240D01*
X64864Y-30156D02*
X64922Y-30451D01*
X64980Y-30156D01*
X65128Y-30156D02*
X65029Y-30156D01*
X65078Y-30156D02*
X65078Y-30451D01*
X65062Y-30409D01*
X65045Y-30381D01*
X65029Y-30367D01*
X65186Y-30451D02*
X65293Y-30451D01*
X65235Y-30339D01*
X65260Y-30339D01*
X65276Y-30325D01*
X65285Y-30311D01*
X65293Y-30283D01*
X65293Y-30212D01*
X65285Y-30184D01*
X65276Y-30170D01*
X65260Y-30156D01*
X65210Y-30156D01*
X65194Y-30170D01*
X65186Y-30184D01*
X62869Y-31523D02*
X62855Y-31506D01*
X62855Y-31482D01*
X62869Y-31457D01*
X62897Y-31440D01*
X62925Y-31432D01*
X62981Y-31424D01*
X63023Y-31424D01*
X63080Y-31432D01*
X63108Y-31440D01*
X63136Y-31457D01*
X63150Y-31482D01*
X63150Y-31498D01*
X63136Y-31523D01*
X63122Y-31531D01*
X63023Y-31531D01*
X63023Y-31498D01*
X63150Y-31605D02*
X62855Y-31605D01*
X63150Y-31704D01*
X62855Y-31704D01*
X63150Y-31786D02*
X62855Y-31786D01*
X62855Y-31827D01*
X62869Y-31852D01*
X62897Y-31869D01*
X62925Y-31877D01*
X62981Y-31885D01*
X63023Y-31885D01*
X63080Y-31877D01*
X63108Y-31869D01*
X63136Y-31852D01*
X63150Y-31827D01*
X63150Y-31786D01*
X62741Y-30156D02*
X62741Y-30451D01*
X62807Y-30451D01*
X62824Y-30437D01*
X62832Y-30423D01*
X62840Y-30395D01*
X62840Y-30353D01*
X62832Y-30325D01*
X62824Y-30311D01*
X62807Y-30297D01*
X62741Y-30297D01*
X62906Y-30240D02*
X62988Y-30240D01*
X62889Y-30156D02*
X62947Y-30451D01*
X63005Y-30156D01*
X63153Y-30156D02*
X63054Y-30156D01*
X63103Y-30156D02*
X63103Y-30451D01*
X63087Y-30409D01*
X63070Y-30381D01*
X63054Y-30367D01*
X63301Y-30353D02*
X63301Y-30156D01*
X63260Y-30465D02*
X63219Y-30254D01*
X63326Y-30254D01*
X61745Y-30476D02*
X61852Y-30476D01*
X61794Y-30364D01*
X61819Y-30364D01*
X61835Y-30350D01*
X61844Y-30336D01*
X61852Y-30308D01*
X61852Y-30237D01*
X61844Y-30209D01*
X61835Y-30195D01*
X61819Y-30181D01*
X61769Y-30181D01*
X61753Y-30195D01*
X61745Y-30209D01*
X61926Y-30209D02*
X61934Y-30195D01*
X61926Y-30181D01*
X61918Y-30195D01*
X61926Y-30209D01*
X61926Y-30181D01*
X61992Y-30476D02*
X62099Y-30476D01*
X62041Y-30364D01*
X62066Y-30364D01*
X62082Y-30350D01*
X62091Y-30336D01*
X62099Y-30308D01*
X62099Y-30237D01*
X62091Y-30209D01*
X62082Y-30195D01*
X62066Y-30181D01*
X62016Y-30181D01*
X62000Y-30195D01*
X61992Y-30209D01*
X62148Y-30476D02*
X62206Y-30181D01*
X62264Y-30476D01*
X60741Y-30181D02*
X60741Y-30476D01*
X60807Y-30476D01*
X60824Y-30462D01*
X60832Y-30448D01*
X60840Y-30420D01*
X60840Y-30378D01*
X60832Y-30350D01*
X60824Y-30336D01*
X60807Y-30322D01*
X60741Y-30322D01*
X60906Y-30265D02*
X60988Y-30265D01*
X60889Y-30181D02*
X60947Y-30476D01*
X61005Y-30181D01*
X61153Y-30181D02*
X61054Y-30181D01*
X61103Y-30181D02*
X61103Y-30476D01*
X61087Y-30434D01*
X61070Y-30406D01*
X61054Y-30392D01*
X61219Y-30448D02*
X61227Y-30462D01*
X61244Y-30476D01*
X61285Y-30476D01*
X61301Y-30462D01*
X61310Y-30448D01*
X61318Y-30420D01*
X61318Y-30392D01*
X61310Y-30350D01*
X61211Y-30181D01*
X61318Y-30181D01*
X59716Y-30156D02*
X59716Y-30451D01*
X59782Y-30451D01*
X59799Y-30437D01*
X59807Y-30423D01*
X59815Y-30395D01*
X59815Y-30353D01*
X59807Y-30325D01*
X59799Y-30311D01*
X59782Y-30297D01*
X59716Y-30297D01*
X59881Y-30240D02*
X59963Y-30240D01*
X59864Y-30156D02*
X59922Y-30451D01*
X59980Y-30156D01*
X60128Y-30156D02*
X60029Y-30156D01*
X60078Y-30156D02*
X60078Y-30451D01*
X60062Y-30409D01*
X60045Y-30381D01*
X60029Y-30367D01*
X60293Y-30156D02*
X60194Y-30156D01*
X60243Y-30156D02*
X60243Y-30451D01*
X60227Y-30409D01*
X60210Y-30381D01*
X60194Y-30367D01*
X58728Y-30181D02*
X58728Y-30476D01*
X58794Y-30476D01*
X58811Y-30462D01*
X58819Y-30448D01*
X58827Y-30420D01*
X58827Y-30378D01*
X58819Y-30350D01*
X58811Y-30336D01*
X58794Y-30322D01*
X58728Y-30322D01*
X59000Y-30209D02*
X58992Y-30195D01*
X58967Y-30181D01*
X58951Y-30181D01*
X58926Y-30195D01*
X58909Y-30223D01*
X58901Y-30251D01*
X58893Y-30308D01*
X58893Y-30350D01*
X58901Y-30406D01*
X58909Y-30434D01*
X58926Y-30462D01*
X58951Y-30476D01*
X58967Y-30476D01*
X58992Y-30462D01*
X59000Y-30448D01*
X59165Y-30181D02*
X59066Y-30181D01*
X59115Y-30181D02*
X59115Y-30476D01*
X59099Y-30434D01*
X59082Y-30406D01*
X59066Y-30392D01*
X59231Y-30448D02*
X59239Y-30462D01*
X59256Y-30476D01*
X59297Y-30476D01*
X59313Y-30462D01*
X59322Y-30448D01*
X59330Y-30420D01*
X59330Y-30392D01*
X59322Y-30350D01*
X59223Y-30181D01*
X59330Y-30181D01*
X56786Y-30156D02*
X56786Y-30451D01*
X56852Y-30451D01*
X56869Y-30437D01*
X56877Y-30423D01*
X56885Y-30395D01*
X56885Y-30353D01*
X56877Y-30325D01*
X56869Y-30311D01*
X56852Y-30297D01*
X56786Y-30297D01*
X57017Y-30311D02*
X57042Y-30297D01*
X57050Y-30283D01*
X57058Y-30254D01*
X57058Y-30212D01*
X57050Y-30184D01*
X57042Y-30170D01*
X57025Y-30156D01*
X56959Y-30156D01*
X56959Y-30451D01*
X57017Y-30451D01*
X57033Y-30437D01*
X57042Y-30423D01*
X57050Y-30395D01*
X57050Y-30367D01*
X57042Y-30339D01*
X57033Y-30325D01*
X57017Y-30311D01*
X56959Y-30311D01*
X57116Y-30451D02*
X57223Y-30451D01*
X57165Y-30339D01*
X57190Y-30339D01*
X57206Y-30325D01*
X57215Y-30311D01*
X57223Y-30283D01*
X57223Y-30212D01*
X57215Y-30184D01*
X57206Y-30170D01*
X57190Y-30156D01*
X57140Y-30156D01*
X57124Y-30170D01*
X57116Y-30184D01*
X55811Y-30156D02*
X55811Y-30451D01*
X55877Y-30451D01*
X55894Y-30437D01*
X55902Y-30423D01*
X55910Y-30395D01*
X55910Y-30353D01*
X55902Y-30325D01*
X55894Y-30311D01*
X55877Y-30297D01*
X55811Y-30297D01*
X56042Y-30311D02*
X56067Y-30297D01*
X56075Y-30283D01*
X56083Y-30254D01*
X56083Y-30212D01*
X56075Y-30184D01*
X56067Y-30170D01*
X56050Y-30156D01*
X55984Y-30156D01*
X55984Y-30451D01*
X56042Y-30451D01*
X56058Y-30437D01*
X56067Y-30423D01*
X56075Y-30395D01*
X56075Y-30367D01*
X56067Y-30339D01*
X56058Y-30325D01*
X56042Y-30311D01*
X55984Y-30311D01*
X56231Y-30353D02*
X56231Y-30156D01*
X56190Y-30465D02*
X56149Y-30254D01*
X56256Y-30254D01*
X54761Y-30156D02*
X54761Y-30451D01*
X54827Y-30451D01*
X54844Y-30437D01*
X54852Y-30423D01*
X54860Y-30395D01*
X54860Y-30353D01*
X54852Y-30325D01*
X54844Y-30311D01*
X54827Y-30297D01*
X54761Y-30297D01*
X54992Y-30311D02*
X55017Y-30297D01*
X55025Y-30283D01*
X55033Y-30254D01*
X55033Y-30212D01*
X55025Y-30184D01*
X55017Y-30170D01*
X55000Y-30156D01*
X54934Y-30156D01*
X54934Y-30451D01*
X54992Y-30451D01*
X55008Y-30437D01*
X55017Y-30423D01*
X55025Y-30395D01*
X55025Y-30367D01*
X55017Y-30339D01*
X55008Y-30325D01*
X54992Y-30311D01*
X54934Y-30311D01*
X55190Y-30451D02*
X55107Y-30451D01*
X55099Y-30311D01*
X55107Y-30325D01*
X55124Y-30339D01*
X55165Y-30339D01*
X55181Y-30325D01*
X55190Y-30311D01*
X55198Y-30283D01*
X55198Y-30212D01*
X55190Y-30184D01*
X55181Y-30170D01*
X55165Y-30156D01*
X55124Y-30156D01*
X55107Y-30170D01*
X55099Y-30184D01*
X52786Y-30181D02*
X52786Y-30476D01*
X52852Y-30476D01*
X52869Y-30462D01*
X52877Y-30448D01*
X52885Y-30420D01*
X52885Y-30378D01*
X52877Y-30350D01*
X52869Y-30336D01*
X52852Y-30322D01*
X52786Y-30322D01*
X53017Y-30336D02*
X53042Y-30322D01*
X53050Y-30308D01*
X53058Y-30279D01*
X53058Y-30237D01*
X53050Y-30209D01*
X53042Y-30195D01*
X53025Y-30181D01*
X52959Y-30181D01*
X52959Y-30476D01*
X53017Y-30476D01*
X53033Y-30462D01*
X53042Y-30448D01*
X53050Y-30420D01*
X53050Y-30392D01*
X53042Y-30364D01*
X53033Y-30350D01*
X53017Y-30336D01*
X52959Y-30336D01*
X53206Y-30476D02*
X53173Y-30476D01*
X53157Y-30462D01*
X53149Y-30448D01*
X53132Y-30406D01*
X53124Y-30350D01*
X53124Y-30237D01*
X53132Y-30209D01*
X53140Y-30195D01*
X53157Y-30181D01*
X53190Y-30181D01*
X53206Y-30195D01*
X53215Y-30209D01*
X53223Y-30237D01*
X53223Y-30308D01*
X53215Y-30336D01*
X53206Y-30350D01*
X53190Y-30364D01*
X53157Y-30364D01*
X53140Y-30350D01*
X53132Y-30336D01*
X53124Y-30308D01*
X51786Y-30156D02*
X51786Y-30451D01*
X51852Y-30451D01*
X51869Y-30437D01*
X51877Y-30423D01*
X51885Y-30395D01*
X51885Y-30353D01*
X51877Y-30325D01*
X51869Y-30311D01*
X51852Y-30297D01*
X51786Y-30297D01*
X52017Y-30311D02*
X52042Y-30297D01*
X52050Y-30283D01*
X52058Y-30254D01*
X52058Y-30212D01*
X52050Y-30184D01*
X52042Y-30170D01*
X52025Y-30156D01*
X51959Y-30156D01*
X51959Y-30451D01*
X52017Y-30451D01*
X52033Y-30437D01*
X52042Y-30423D01*
X52050Y-30395D01*
X52050Y-30367D01*
X52042Y-30339D01*
X52033Y-30325D01*
X52017Y-30311D01*
X51959Y-30311D01*
X52116Y-30451D02*
X52231Y-30451D01*
X52157Y-30156D01*
X49786Y-30131D02*
X49786Y-30426D01*
X49852Y-30426D01*
X49869Y-30412D01*
X49877Y-30398D01*
X49885Y-30370D01*
X49885Y-30328D01*
X49877Y-30300D01*
X49869Y-30286D01*
X49852Y-30272D01*
X49786Y-30272D01*
X50017Y-30286D02*
X50042Y-30272D01*
X50050Y-30258D01*
X50058Y-30229D01*
X50058Y-30187D01*
X50050Y-30159D01*
X50042Y-30145D01*
X50025Y-30131D01*
X49959Y-30131D01*
X49959Y-30426D01*
X50017Y-30426D01*
X50033Y-30412D01*
X50042Y-30398D01*
X50050Y-30370D01*
X50050Y-30342D01*
X50042Y-30314D01*
X50033Y-30300D01*
X50017Y-30286D01*
X49959Y-30286D01*
X50157Y-30300D02*
X50140Y-30314D01*
X50132Y-30328D01*
X50124Y-30356D01*
X50124Y-30370D01*
X50132Y-30398D01*
X50140Y-30412D01*
X50157Y-30426D01*
X50190Y-30426D01*
X50206Y-30412D01*
X50215Y-30398D01*
X50223Y-30370D01*
X50223Y-30356D01*
X50215Y-30328D01*
X50206Y-30314D01*
X50190Y-30300D01*
X50157Y-30300D01*
X50140Y-30286D01*
X50132Y-30272D01*
X50124Y-30243D01*
X50124Y-30187D01*
X50132Y-30159D01*
X50140Y-30145D01*
X50157Y-30131D01*
X50190Y-30131D01*
X50206Y-30145D01*
X50215Y-30159D01*
X50223Y-30187D01*
X50223Y-30243D01*
X50215Y-30272D01*
X50206Y-30286D01*
X50190Y-30300D01*
X60909Y-32619D02*
X60909Y-32324D01*
X60843Y-32324D01*
X60826Y-32338D01*
X60818Y-32352D01*
X60810Y-32380D01*
X60810Y-32422D01*
X60818Y-32450D01*
X60826Y-32464D01*
X60843Y-32478D01*
X60909Y-32478D01*
X60637Y-32619D02*
X60695Y-32478D01*
X60736Y-32619D02*
X60736Y-32324D01*
X60670Y-32324D01*
X60653Y-32338D01*
X60645Y-32352D01*
X60637Y-32380D01*
X60637Y-32422D01*
X60645Y-32450D01*
X60653Y-32464D01*
X60670Y-32478D01*
X60736Y-32478D01*
X60530Y-32324D02*
X60497Y-32324D01*
X60480Y-32338D01*
X60464Y-32366D01*
X60456Y-32422D01*
X60456Y-32521D01*
X60464Y-32577D01*
X60480Y-32605D01*
X60497Y-32619D01*
X60530Y-32619D01*
X60546Y-32605D01*
X60563Y-32577D01*
X60571Y-32521D01*
X60571Y-32422D01*
X60563Y-32366D01*
X60546Y-32338D01*
X60530Y-32324D01*
X60291Y-32338D02*
X60308Y-32324D01*
X60332Y-32324D01*
X60357Y-32338D01*
X60374Y-32366D01*
X60382Y-32394D01*
X60390Y-32450D01*
X60390Y-32492D01*
X60382Y-32549D01*
X60374Y-32577D01*
X60357Y-32605D01*
X60332Y-32619D01*
X60316Y-32619D01*
X60291Y-32605D01*
X60283Y-32591D01*
X60283Y-32492D01*
X60316Y-32492D01*
G54D13*
X57689Y-33141D02*
X56114Y-33141D01*
X56114Y-33141D02*
X56114Y-35109D01*
X56114Y-35109D02*
X57886Y-35109D01*
X57886Y-35109D02*
X57886Y-33338D01*
X58024Y-33141D02*
X58021Y-33167D01*
X58013Y-33193D01*
X58000Y-33217D01*
X57983Y-33238D01*
X57963Y-33255D01*
X57939Y-33268D01*
X57913Y-33276D01*
X57886Y-33278D01*
X57861Y-33276D01*
X57835Y-33268D01*
X57811Y-33256D01*
X57790Y-33239D01*
X57773Y-33218D01*
X57760Y-33195D01*
X57752Y-33169D01*
X57749Y-33142D01*
X57751Y-33117D01*
X57758Y-33091D01*
X57771Y-33067D01*
X57787Y-33046D01*
X57808Y-33028D01*
X57831Y-33015D01*
X57857Y-33007D01*
X57884Y-33004D01*
X57909Y-33006D01*
X57935Y-33013D01*
X57959Y-33025D01*
X57981Y-33042D01*
X57998Y-33062D01*
X58012Y-33085D01*
X58020Y-33111D01*
X58023Y-33138D01*
X58024Y-33141D01*
G54D14*
X54275Y-33250D02*
X54575Y-33050D01*
X53575Y-33250D02*
X54600Y-33250D01*
X54600Y-33250D02*
X54600Y-32650D01*
X54600Y-32650D02*
X53575Y-32650D01*
X53575Y-32650D02*
X53575Y-33250D01*
X51950Y-37850D02*
X51950Y-37150D01*
X51950Y-37150D02*
X50750Y-37150D01*
X50750Y-37150D02*
X50750Y-37850D01*
X50750Y-37850D02*
X51950Y-37850D01*
X62825Y-36025D02*
X62125Y-36025D01*
X62125Y-36025D02*
X62125Y-37225D01*
X62125Y-37225D02*
X62825Y-37225D01*
X62825Y-37225D02*
X62825Y-36025D01*
X47408Y-32952D02*
X47407Y-32961D01*
X47404Y-32971D01*
X47399Y-32979D01*
X47393Y-32987D01*
X47385Y-32993D01*
X47377Y-32998D01*
X47368Y-33000D01*
X47358Y-33001D01*
X47349Y-33001D01*
X47340Y-32998D01*
X47331Y-32993D01*
X47324Y-32987D01*
X47317Y-32980D01*
X47313Y-32971D01*
X47310Y-32962D01*
X47309Y-32952D01*
X47309Y-32943D01*
X47312Y-32934D01*
X47316Y-32925D01*
X47323Y-32918D01*
X47330Y-32911D01*
X47338Y-32907D01*
X47348Y-32904D01*
X47357Y-32903D01*
X47366Y-32903D01*
X47376Y-32906D01*
X47384Y-32910D01*
X47392Y-32916D01*
X47398Y-32924D01*
X47403Y-32932D01*
X47406Y-32941D01*
X47407Y-32951D01*
X47408Y-32952D01*
X47808Y-32952D02*
X47408Y-32952D01*
X47408Y-32952D02*
X47408Y-33552D01*
X47408Y-33552D02*
X47808Y-33552D01*
X48208Y-33552D02*
X48608Y-33552D01*
X48608Y-33552D02*
X48608Y-32952D01*
X48608Y-32952D02*
X48208Y-32952D01*
X48500Y-35625D02*
X48499Y-35634D01*
X48496Y-35644D01*
X48491Y-35652D01*
X48485Y-35660D01*
X48477Y-35666D01*
X48469Y-35671D01*
X48460Y-35673D01*
X48450Y-35674D01*
X48441Y-35674D01*
X48432Y-35671D01*
X48423Y-35666D01*
X48416Y-35660D01*
X48409Y-35653D01*
X48405Y-35644D01*
X48402Y-35635D01*
X48401Y-35625D01*
X48401Y-35616D01*
X48404Y-35607D01*
X48408Y-35598D01*
X48415Y-35591D01*
X48422Y-35584D01*
X48430Y-35580D01*
X48440Y-35577D01*
X48449Y-35576D01*
X48458Y-35576D01*
X48468Y-35579D01*
X48476Y-35583D01*
X48484Y-35589D01*
X48490Y-35597D01*
X48495Y-35605D01*
X48498Y-35614D01*
X48499Y-35624D01*
X48500Y-35625D01*
X48900Y-35625D02*
X48500Y-35625D01*
X48500Y-35625D02*
X48500Y-36225D01*
X48500Y-36225D02*
X48900Y-36225D01*
X49300Y-36225D02*
X49700Y-36225D01*
X49700Y-36225D02*
X49700Y-35625D01*
X49700Y-35625D02*
X49300Y-35625D01*
X57885Y-38352D02*
X58785Y-38352D01*
X58785Y-38352D02*
X58785Y-37852D01*
X58785Y-37852D02*
X57885Y-37852D01*
X57885Y-37852D02*
X57885Y-38352D01*
X54825Y-34075D02*
X53925Y-34075D01*
X53925Y-34075D02*
X53925Y-34575D01*
X53925Y-34575D02*
X54825Y-34575D01*
X54825Y-34575D02*
X54825Y-34075D01*
X53875Y-36650D02*
X54775Y-36650D01*
X54775Y-36650D02*
X54775Y-36150D01*
X54775Y-36150D02*
X53875Y-36150D01*
X53875Y-36150D02*
X53875Y-36650D01*
X62075Y-32000D02*
X62975Y-32000D01*
X62975Y-32000D02*
X62975Y-31500D01*
X62975Y-31500D02*
X62075Y-31500D01*
X62075Y-31500D02*
X62075Y-32000D01*
X61850Y-33500D02*
X62750Y-33500D01*
X62750Y-33500D02*
X62750Y-33000D01*
X62750Y-33000D02*
X61850Y-33000D01*
X61850Y-33000D02*
X61850Y-33500D01*
X52175Y-36775D02*
X53075Y-36775D01*
X53075Y-36775D02*
X53075Y-36275D01*
X53075Y-36275D02*
X52175Y-36275D01*
X52175Y-36275D02*
X52175Y-36775D01*
X55650Y-34330D02*
X55650Y-35230D01*
X55650Y-35230D02*
X56150Y-35230D01*
X56150Y-35230D02*
X56150Y-34330D01*
X56150Y-34330D02*
X55650Y-34330D01*
X51450Y-38975D02*
X50550Y-38975D01*
X50550Y-38975D02*
X50550Y-39475D01*
X50550Y-39475D02*
X51450Y-39475D01*
X51450Y-39475D02*
X51450Y-38975D01*
X49450Y-31600D02*
X48550Y-31600D01*
X48550Y-31600D02*
X48550Y-32100D01*
X48550Y-32100D02*
X49450Y-32100D01*
X49450Y-32100D02*
X49450Y-31600D01*
X48078Y-32738D02*
X48978Y-32738D01*
X48978Y-32738D02*
X48978Y-32238D01*
X48978Y-32238D02*
X48078Y-32238D01*
X48078Y-32238D02*
X48078Y-32738D01*
X62225Y-33775D02*
X62225Y-34675D01*
X62225Y-34675D02*
X62725Y-34675D01*
X62725Y-34675D02*
X62725Y-33775D01*
X62725Y-33775D02*
X62225Y-33775D01*
X50725Y-37750D02*
X50725Y-36850D01*
X50725Y-36850D02*
X50225Y-36850D01*
X50225Y-36850D02*
X50225Y-37750D01*
X50225Y-37750D02*
X50725Y-37750D01*
X51376Y-35572D02*
X51376Y-34672D01*
X51376Y-34672D02*
X50876Y-34672D01*
X50876Y-34672D02*
X50876Y-35572D01*
X50876Y-35572D02*
X51376Y-35572D01*
X53875Y-36025D02*
X54775Y-36025D01*
X54775Y-36025D02*
X54775Y-35525D01*
X54775Y-35525D02*
X53875Y-35525D01*
X53875Y-35525D02*
X53875Y-36025D01*
X55200Y-33350D02*
X55200Y-32450D01*
X55200Y-32450D02*
X54700Y-32450D01*
X54700Y-32450D02*
X54700Y-33350D01*
X54700Y-33350D02*
X55200Y-33350D01*
X61275Y-38450D02*
X61275Y-37550D01*
X61275Y-37550D02*
X60775Y-37550D01*
X60775Y-37550D02*
X60775Y-38450D01*
X60775Y-38450D02*
X61275Y-38450D01*
X63250Y-32000D02*
X64150Y-32000D01*
X64150Y-32000D02*
X64150Y-31500D01*
X64150Y-31500D02*
X63250Y-31500D01*
X63250Y-31500D02*
X63250Y-32000D01*
X56525Y-32725D02*
X55625Y-32725D01*
X55625Y-32725D02*
X55625Y-33225D01*
X55625Y-33225D02*
X56525Y-33225D01*
X56525Y-33225D02*
X56525Y-32725D01*
X57850Y-38600D02*
X56950Y-38600D01*
X56950Y-38600D02*
X56950Y-39100D01*
X56950Y-39100D02*
X57850Y-39100D01*
X57850Y-39100D02*
X57850Y-38600D01*
X60575Y-34225D02*
X60575Y-35125D01*
X60575Y-35125D02*
X61075Y-35125D01*
X61075Y-35125D02*
X61075Y-34225D01*
X61075Y-34225D02*
X60575Y-34225D01*
X60750Y-33900D02*
X61650Y-33900D01*
X61650Y-33900D02*
X61650Y-33400D01*
X61650Y-33400D02*
X60750Y-33400D01*
X60750Y-33400D02*
X60750Y-33900D01*
X56700Y-33225D02*
X57600Y-33225D01*
X57600Y-33225D02*
X57600Y-32725D01*
X57600Y-32725D02*
X56700Y-32725D01*
X56700Y-32725D02*
X56700Y-33225D01*
X56925Y-37075D02*
X57825Y-37075D01*
X57825Y-37075D02*
X57825Y-36575D01*
X57825Y-36575D02*
X56925Y-36575D01*
X56925Y-36575D02*
X56925Y-37075D01*
X50875Y-33700D02*
X50875Y-34600D01*
X50875Y-34600D02*
X51375Y-34600D01*
X51375Y-34600D02*
X51375Y-33700D01*
X51375Y-33700D02*
X50875Y-33700D01*
X50875Y-32400D02*
X50875Y-33300D01*
X50875Y-33300D02*
X51375Y-33300D01*
X51375Y-33300D02*
X51375Y-32400D01*
X51375Y-32400D02*
X50875Y-32400D01*
X63075Y-37175D02*
X62175Y-37175D01*
X62175Y-37175D02*
X62175Y-37675D01*
X62175Y-37675D02*
X63075Y-37675D01*
X63075Y-37675D02*
X63075Y-37175D01*
X51375Y-35875D02*
X50475Y-35875D01*
X50475Y-35875D02*
X50475Y-36375D01*
X50475Y-36375D02*
X51375Y-36375D01*
X51375Y-36375D02*
X51375Y-35875D01*
X53225Y-36800D02*
X53225Y-37700D01*
X53225Y-37700D02*
X53725Y-37700D01*
X53725Y-37700D02*
X53725Y-36800D01*
X53725Y-36800D02*
X53225Y-36800D01*
X49650Y-36475D02*
X48750Y-36475D01*
X48750Y-36475D02*
X48750Y-36975D01*
X48750Y-36975D02*
X49650Y-36975D01*
X49650Y-36975D02*
X49650Y-36475D01*
X48300Y-33775D02*
X48300Y-34675D01*
X48300Y-34675D02*
X48800Y-34675D01*
X48800Y-34675D02*
X48800Y-33775D01*
X48800Y-33775D02*
X48300Y-33775D01*
X56625Y-37625D02*
X56625Y-36725D01*
X56625Y-36725D02*
X56125Y-36725D01*
X56125Y-36725D02*
X56125Y-37625D01*
X56125Y-37625D02*
X56625Y-37625D01*
X49368Y-37755D02*
X49368Y-38655D01*
X49368Y-38655D02*
X49868Y-38655D01*
X49868Y-38655D02*
X49868Y-37755D01*
X49868Y-37755D02*
X49368Y-37755D01*
G54D15*
X49865Y-34601D02*
X50365Y-34126D01*
X50365Y-34601D02*
X49115Y-34601D01*
X49115Y-34601D02*
X49115Y-33351D01*
X49115Y-33351D02*
X50365Y-33351D01*
X50365Y-33351D02*
X50365Y-34601D01*
G54D13*
X53756Y-34606D02*
X53756Y-34685D01*
X55134Y-34606D02*
X55134Y-34685D01*
X53756Y-34606D02*
X55134Y-34606D01*
X55134Y-35315D02*
X55134Y-35394D01*
X55134Y-35394D02*
X53756Y-35394D01*
X53756Y-35394D02*
X53756Y-35315D01*
X47071Y-38346D02*
X47071Y-38425D01*
X48449Y-38346D02*
X48449Y-38425D01*
X47071Y-38346D02*
X48449Y-38346D01*
X48449Y-39055D02*
X48449Y-39134D01*
X48449Y-39134D02*
X47071Y-39134D01*
X47071Y-39134D02*
X47071Y-39055D01*
X49089Y-39634D02*
X49089Y-39555D01*
X47711Y-39634D02*
X47711Y-39555D01*
X49089Y-39634D02*
X47711Y-39634D01*
X47711Y-38925D02*
X47711Y-38846D01*
X47711Y-38846D02*
X49089Y-38846D01*
X49089Y-38846D02*
X49089Y-38925D01*
G54D14*
X57150Y-36425D02*
X57150Y-35525D01*
X57150Y-35525D02*
X56650Y-35525D01*
X56650Y-35525D02*
X56650Y-36425D01*
X56650Y-36425D02*
X57150Y-36425D01*
X64444Y-37474D02*
X65344Y-37474D01*
X65344Y-37474D02*
X65344Y-36974D01*
X65344Y-36974D02*
X64444Y-36974D01*
X64444Y-36974D02*
X64444Y-37474D01*
X64975Y-36675D02*
X64975Y-35775D01*
X64975Y-35775D02*
X64475Y-35775D01*
X64475Y-35775D02*
X64475Y-36675D01*
X64475Y-36675D02*
X64975Y-36675D01*
X65430Y-33766D02*
X64530Y-33766D01*
X64530Y-33766D02*
X64530Y-34266D01*
X64530Y-34266D02*
X65430Y-34266D01*
X65430Y-34266D02*
X65430Y-33766D01*
X64789Y-34609D02*
X64789Y-35509D01*
X64789Y-35509D02*
X65289Y-35509D01*
X65289Y-35509D02*
X65289Y-34609D01*
X65289Y-34609D02*
X64789Y-34609D01*
X53475Y-36125D02*
X52575Y-36125D01*
X52575Y-36125D02*
X52575Y-35475D01*
X53475Y-34775D02*
X53475Y-34125D01*
X53475Y-34125D02*
X52575Y-34125D01*
X52575Y-34125D02*
X52575Y-34775D01*
X53475Y-35475D02*
X53475Y-36125D01*
X52300Y-38275D02*
X52299Y-38284D01*
X52296Y-38294D01*
X52291Y-38302D01*
X52285Y-38310D01*
X52277Y-38316D01*
X52269Y-38321D01*
X52260Y-38323D01*
X52250Y-38324D01*
X52241Y-38324D01*
X52232Y-38321D01*
X52223Y-38316D01*
X52216Y-38310D01*
X52209Y-38303D01*
X52205Y-38294D01*
X52202Y-38285D01*
X52201Y-38275D01*
X52201Y-38266D01*
X52204Y-38257D01*
X52208Y-38248D01*
X52215Y-38241D01*
X52222Y-38234D01*
X52230Y-38230D01*
X52240Y-38227D01*
X52249Y-38226D01*
X52258Y-38226D01*
X52268Y-38229D01*
X52276Y-38233D01*
X52284Y-38239D01*
X52290Y-38247D01*
X52295Y-38255D01*
X52298Y-38264D01*
X52299Y-38274D01*
X52300Y-38275D01*
X52250Y-37825D02*
X52250Y-38225D01*
X52250Y-38225D02*
X52850Y-38225D01*
X52850Y-38225D02*
X52850Y-37825D01*
X52850Y-37425D02*
X52850Y-37025D01*
X52850Y-37025D02*
X52250Y-37025D01*
X52250Y-37025D02*
X52250Y-37425D01*
X52525Y-36125D02*
X51625Y-36125D01*
X51625Y-36125D02*
X51625Y-35475D01*
X52525Y-34775D02*
X52525Y-34125D01*
X52525Y-34125D02*
X51625Y-34125D01*
X51625Y-34125D02*
X51625Y-34775D01*
X52525Y-35475D02*
X52525Y-36125D01*
X51625Y-32075D02*
X52525Y-32075D01*
X52525Y-32075D02*
X52525Y-32725D01*
X51625Y-33425D02*
X51625Y-34075D01*
X51625Y-34075D02*
X52525Y-34075D01*
X52525Y-34075D02*
X52525Y-33425D01*
X51625Y-32725D02*
X51625Y-32075D01*
X50725Y-32025D02*
X49825Y-32025D01*
X49825Y-32025D02*
X49825Y-32525D01*
X49825Y-32525D02*
X50725Y-32525D01*
X50725Y-32525D02*
X50725Y-32025D01*
X52575Y-32075D02*
X53475Y-32075D01*
X53475Y-32075D02*
X53475Y-32725D01*
X52575Y-33425D02*
X52575Y-34075D01*
X52575Y-34075D02*
X53475Y-34075D01*
X53475Y-34075D02*
X53475Y-33425D01*
X52575Y-32725D02*
X52575Y-32075D01*
X60700Y-38450D02*
X60700Y-37550D01*
X60700Y-37550D02*
X60200Y-37550D01*
X60200Y-37550D02*
X60200Y-38450D01*
X60200Y-38450D02*
X60700Y-38450D01*
X64852Y-33619D02*
X64852Y-32719D01*
X64852Y-32719D02*
X64352Y-32719D01*
X64352Y-32719D02*
X64352Y-33619D01*
X64352Y-33619D02*
X64852Y-33619D01*
X47600Y-33800D02*
X47600Y-34700D01*
X47600Y-34700D02*
X48100Y-34700D01*
X48100Y-34700D02*
X48100Y-33800D01*
X48100Y-33800D02*
X47600Y-33800D01*
M02*
