G04 (created by PCBNEW-RS274X (2011-05-25)-stable) date Fri 13 Mar 2015 11:37:05 GMT*
G01*
G70*
G90*
%MOIN*%
G04 Gerber Fmt 3.4, Leading zero omitted, Abs format*
%FSLAX34Y34*%
G04 APERTURE LIST*
%ADD10C,0.006000*%
%ADD11O,0.067200X0.090900*%
%ADD12O,0.098300X0.071200*%
%ADD13C,0.098700*%
%ADD14R,0.075000X0.075000*%
%ADD15R,0.080000X0.029800*%
%ADD16O,0.080000X0.029800*%
%ADD17O,0.029800X0.080000*%
%ADD18R,0.059400X0.047600*%
%ADD19R,0.040000X0.050000*%
%ADD20R,0.065000X0.040000*%
%ADD21R,0.045000X0.065000*%
%ADD22R,0.065000X0.045000*%
%ADD23R,0.070000X0.035000*%
%ADD24R,0.059400X0.030600*%
%ADD25R,0.051400X0.051400*%
%ADD26O,0.075100X0.230200*%
%ADD27R,0.035700X0.039700*%
%ADD28R,0.055400X0.060200*%
%ADD29O,0.090900X0.059400*%
%ADD30O,0.083000X0.047600*%
%ADD31O,0.059400X0.075100*%
%ADD32O,0.051500X0.079100*%
%ADD33O,0.059400X0.039700*%
G04 APERTURE END LIST*
G54D10*
G54D11*
X48000Y-38000D03*
G54D12*
X48000Y-37000D03*
G54D13*
X48000Y-36000D03*
G54D14*
X47000Y-32000D03*
G54D13*
X47000Y-38000D03*
X47000Y-37000D03*
X47000Y-36000D03*
X47000Y-35000D03*
X47000Y-34000D03*
X66000Y-38000D03*
X66000Y-37000D03*
X66000Y-36000D03*
X66000Y-35000D03*
X66000Y-34000D03*
X66000Y-33000D03*
X47000Y-40000D03*
X48000Y-40000D03*
X49000Y-40000D03*
X50000Y-40000D03*
X51000Y-40000D03*
X52000Y-40000D03*
X53000Y-40000D03*
X54000Y-40000D03*
X55000Y-40000D03*
X56000Y-40000D03*
X57000Y-40000D03*
X58000Y-40000D03*
X59000Y-40000D03*
X60000Y-40000D03*
X61000Y-40000D03*
X62000Y-40000D03*
X63000Y-40000D03*
X64000Y-40000D03*
X65000Y-40000D03*
X66000Y-40000D03*
X47000Y-31000D03*
X48000Y-31000D03*
X49000Y-31000D03*
X50000Y-31000D03*
X51000Y-31000D03*
X52000Y-31000D03*
X53000Y-31000D03*
X54000Y-31000D03*
X55000Y-31000D03*
X56000Y-31000D03*
X57000Y-31000D03*
X58000Y-31000D03*
X59000Y-31000D03*
X60000Y-31000D03*
X61000Y-31000D03*
X62000Y-31000D03*
X63000Y-31000D03*
X64000Y-31000D03*
X65000Y-31000D03*
X66000Y-31000D03*
X62450Y-32525D03*
X61450Y-32525D03*
G54D15*
X56239Y-34224D03*
G54D16*
X56239Y-34421D03*
X56239Y-34618D03*
X56239Y-34815D03*
X56239Y-35012D03*
X56239Y-35208D03*
X56239Y-35405D03*
X56239Y-35602D03*
X56239Y-35799D03*
X56239Y-35996D03*
X56239Y-36193D03*
X56239Y-36389D03*
X56239Y-36586D03*
X56239Y-36783D03*
X56239Y-36980D03*
X56239Y-37177D03*
G54D17*
X57074Y-38075D03*
X57271Y-38075D03*
X57468Y-38075D03*
X57665Y-38075D03*
X57862Y-38075D03*
X58058Y-38075D03*
X58255Y-38075D03*
X58452Y-38075D03*
X58649Y-38075D03*
X58846Y-38075D03*
X59043Y-38075D03*
X59239Y-38075D03*
X59436Y-38075D03*
X59633Y-38075D03*
X59830Y-38075D03*
X60027Y-38075D03*
G54D16*
X60925Y-37177D03*
X60925Y-36980D03*
X60925Y-36783D03*
X60925Y-36586D03*
X60925Y-36389D03*
X60925Y-36193D03*
X60925Y-35996D03*
X60925Y-35799D03*
X60925Y-35602D03*
X60925Y-35405D03*
X60925Y-35208D03*
X60925Y-35012D03*
X60925Y-34815D03*
X60925Y-34618D03*
X60925Y-34421D03*
X60925Y-34224D03*
G54D17*
X60027Y-33389D03*
X59830Y-33389D03*
X59436Y-33389D03*
X59633Y-33382D03*
X59239Y-33389D03*
X59043Y-33389D03*
X58846Y-33389D03*
X58649Y-33389D03*
X58452Y-33389D03*
X58255Y-33389D03*
X58061Y-33389D03*
X57864Y-33389D03*
X57667Y-33389D03*
X57470Y-33389D03*
X57274Y-33389D03*
X57077Y-33389D03*
G54D18*
X51450Y-35850D03*
X51450Y-36225D03*
X51450Y-36600D03*
X50450Y-36600D03*
X50450Y-36225D03*
X50450Y-35850D03*
G54D19*
X48325Y-34875D03*
X49075Y-34875D03*
X48325Y-33875D03*
X48700Y-34875D03*
X49075Y-33875D03*
G54D20*
X62543Y-33939D03*
X62543Y-34439D03*
X62543Y-34939D03*
X62543Y-35439D03*
X62543Y-35939D03*
X62543Y-36439D03*
X62543Y-36939D03*
X62543Y-37439D03*
X64543Y-37439D03*
X64543Y-36939D03*
X64543Y-36439D03*
X64543Y-35939D03*
X64543Y-35439D03*
X64543Y-34939D03*
X64543Y-34439D03*
X64543Y-33939D03*
G54D21*
X53975Y-36125D03*
X54575Y-36125D03*
X53975Y-34900D03*
X54575Y-34900D03*
X53975Y-35500D03*
X54575Y-35500D03*
G54D22*
X61625Y-37400D03*
X61625Y-38000D03*
G54D21*
X56400Y-38150D03*
X55800Y-38150D03*
G54D22*
X49375Y-35625D03*
X49375Y-36225D03*
G54D21*
X50900Y-37350D03*
X50300Y-37350D03*
X53650Y-38225D03*
X53050Y-38225D03*
X55800Y-38700D03*
X56400Y-38700D03*
X51600Y-35150D03*
X51000Y-35150D03*
X52875Y-36525D03*
X52275Y-36525D03*
G54D22*
X55025Y-38025D03*
X55025Y-38625D03*
G54D21*
X55475Y-37250D03*
X54875Y-37250D03*
X49625Y-35150D03*
X50225Y-35150D03*
G54D22*
X49525Y-34650D03*
X49525Y-34050D03*
X47775Y-33925D03*
X47775Y-33325D03*
X47775Y-34975D03*
X47775Y-34375D03*
X49375Y-37275D03*
X49375Y-36675D03*
G54D21*
X49675Y-32925D03*
X49075Y-32925D03*
G54D22*
X65225Y-37000D03*
X65225Y-37600D03*
G54D21*
X60450Y-37800D03*
X61050Y-37800D03*
X53650Y-38775D03*
X53050Y-38775D03*
G54D23*
X52575Y-37091D03*
X52575Y-37347D03*
X52575Y-37603D03*
X52575Y-37859D03*
X54275Y-37859D03*
X54275Y-37603D03*
X54275Y-37347D03*
X54275Y-37091D03*
G54D24*
X52350Y-34600D03*
X52350Y-34400D03*
X52350Y-34200D03*
X52350Y-34000D03*
X52350Y-33800D03*
X50600Y-33800D03*
X50600Y-34000D03*
X50600Y-34200D03*
X50600Y-34400D03*
X50600Y-34600D03*
X50375Y-32375D03*
X50375Y-32575D03*
X50375Y-32775D03*
X50375Y-32975D03*
X50375Y-33175D03*
X52125Y-33175D03*
X52125Y-32975D03*
X52125Y-32775D03*
X52125Y-32575D03*
X52125Y-32375D03*
G54D25*
X62155Y-38400D03*
X62745Y-38400D03*
X50755Y-38800D03*
X51345Y-38800D03*
G54D26*
X53284Y-33525D03*
X54466Y-33525D03*
G54D27*
X49806Y-37876D03*
X49294Y-37876D03*
X49294Y-38624D03*
X49550Y-38624D03*
X49806Y-38624D03*
G54D28*
X47854Y-32100D03*
X49146Y-32100D03*
G54D22*
X65200Y-35625D03*
X65200Y-36225D03*
X65217Y-34267D03*
X65217Y-34867D03*
G54D29*
X52800Y-36000D03*
G54D30*
X55250Y-33325D03*
G54D31*
X54275Y-38350D03*
G54D21*
X47725Y-32725D03*
X47125Y-32725D03*
G54D32*
X51775Y-37200D03*
G54D33*
X54875Y-37675D03*
G54D21*
X64425Y-32950D03*
X65025Y-32950D03*
G54D25*
X64405Y-33450D03*
X64995Y-33450D03*
M02*
