M48
INCH,TZ
T1C0.010
T2C0.013
T3C0.032
T4C0.039
%
G90
G05
T1
X48550Y-36675
X48775Y-33575
X49450Y-32500
X49500Y-37650
X49900Y-33775
X49925Y-34287
X49975Y-32700
X50050Y-35625
X50100Y-33575
X50300Y-38125
X50875Y-35725
X51375Y-38075
X51500Y-35050
X51600Y-32975
X51800Y-38975
X52075Y-34950
X52175Y-36925
X52675Y-38550
X52825Y-33200
X53075Y-37325
X53475Y-37800
X54475Y-38875
X55075Y-31900
X55100Y-35600
X55325Y-33350
X55375Y-36075
X55450Y-32900
X55450Y-36850
X55450Y-37850
X55475Y-35225
X55500Y-34000
X55550Y-31850
X55875Y-35800
X55950Y-32575
X56100Y-33375
X56275Y-31575
X56475Y-32475
X56700Y-34975
X57000Y-37525
X57100Y-32525
X57325Y-36350
X57375Y-31575
X57375Y-35100
X57375Y-37100
X57450Y-32175
X57825Y-37625
X57875Y-33800
X57950Y-34850
X57975Y-36700
X58025Y-36075
X58050Y-35550
X58100Y-32450
X58100Y-34300
X58275Y-31750
X58300Y-37175
X58375Y-39000
X58450Y-33000
X58625Y-38575
X58700Y-32250
X58750Y-31550
X58750Y-37025
X58825Y-34600
X58825Y-35975
X59000Y-33825
X59025Y-35425
X59025Y-36475
X59050Y-39225
X59075Y-37550
X59250Y-38750
X59275Y-32250
X59300Y-32950
X59525Y-39400
X59575Y-35625
X59625Y-34550
X59650Y-33950
X59650Y-36975
X59775Y-36300
X59800Y-31900
X59850Y-34950
X59950Y-37450
X60025Y-32700
X60200Y-35625
X60275Y-32100
X60350Y-34375
X60375Y-39300
X60400Y-35225
X60400Y-37200
X60575Y-32525
X60750Y-37450
X61625Y-36750
X61675Y-36200
X61800Y-35200
X62000Y-34750
X62000Y-35850
X62925Y-33225
X63125Y-32325
X64217Y-36449
X64375Y-34925
X64575Y-35425
X65425Y-35275
T2
X48340Y-31840
X48675Y-35225
X48764Y-32921
X49300Y-35300
X49425Y-38850
X49725Y-32275
X50110Y-39270
X50350Y-36225
X50850Y-33625
X50975Y-38225
X51150Y-32875
X51228Y-34575
X51315Y-33626
X51320Y-32240
X51350Y-37325
X51525Y-36600
X52075Y-33225
X52550Y-38300
X53025Y-34925
X53300Y-35075
X53450Y-36725
X53750Y-34325
X53900Y-32950
X54475Y-32900
X54975Y-33750
X55725Y-35375
X55850Y-36400
X56025Y-34150
X56625Y-32975
X56700Y-38150
X56775Y-36600
X56800Y-38850
X56900Y-35425
X57725Y-32900
X57875Y-38850
X60425Y-38625
X60575Y-33925
X61425Y-34375
X61450Y-34975
X61850Y-33725
X62050Y-37425
X62925Y-34450
X62933Y-33937
X63200Y-37000
X64075Y-32900
X64100Y-33700
X64125Y-34425
X64175Y-36175
X65200Y-36500
T3
X47000Y-32000
T4
X47000Y-31000
X47000Y-34000
X47000Y-35000
X47000Y-36000
X47000Y-37000
X47000Y-38000
X47000Y-40000
X48000Y-31000
X48000Y-36000
X48000Y-37000
X48000Y-38000
X48000Y-40000
X49000Y-31000
X49000Y-40000
X50000Y-31000
X50000Y-40000
X51000Y-31000
X51000Y-40000
X52000Y-31000
X52000Y-40000
X53000Y-31000
X53000Y-40000
X54000Y-31000
X54000Y-40000
X55000Y-31000
X55000Y-40000
X56000Y-31000
X56000Y-40000
X57000Y-31000
X57000Y-40000
X58000Y-31000
X58000Y-40000
X59000Y-31000
X59000Y-40000
X60000Y-31000
X60000Y-40000
X61000Y-31000
X61000Y-40000
X61450Y-32525
X62000Y-31000
X62000Y-40000
X62450Y-32525
X63000Y-31000
X63000Y-40000
X64000Y-31000
X64000Y-40000
X65000Y-31000
X65000Y-40000
X66000Y-31000
X66000Y-33000
X66000Y-34000
X66000Y-35000
X66000Y-36000
X66000Y-37000
X66000Y-38000
X66000Y-40000
T0
M30
