solid OpenSCAD_Model
  facet normal 0 0 -1
    outer loop
      vertex -6.3 0 -19.3
      vertex -6.16233 1.30984 -19.3
      vertex -6.16233 -1.30984 -19.3
    endloop
  endfacet
  facet normal 0 0 -1
    outer loop
      vertex -6.16233 -1.30984 -19.3
      vertex -6.16233 1.30984 -19.3
      vertex -5.75534 2.56244 -19.3
    endloop
  endfacet
  facet normal 0 0 -1
    outer loop
      vertex -6.16233 -1.30984 -19.3
      vertex -5.75534 2.56244 -19.3
      vertex -5.09681 3.70305 -19.3
    endloop
  endfacet
  facet normal 0 0 -1
    outer loop
      vertex -6.16233 -1.30984 -19.3
      vertex -5.09681 3.70305 -19.3
      vertex -4.21552 4.68181 -19.3
    endloop
  endfacet
  facet normal 0 0 -1
    outer loop
      vertex -6.16233 -1.30984 -19.3
      vertex -4.21552 4.68181 -19.3
      vertex -3.15 5.45596 -19.3
    endloop
  endfacet
  facet normal 0 0 -1
    outer loop
      vertex -6.16233 -1.30984 -19.3
      vertex -3.15 5.45596 -19.3
      vertex -1.94681 5.99166 -19.3
    endloop
  endfacet
  facet normal 0 0 -1
    outer loop
      vertex -6.16233 -1.30984 -19.3
      vertex -1.94681 5.99166 -19.3
      vertex -0.658529 6.26549 -19.3
    endloop
  endfacet
  facet normal 0 0 -1
    outer loop
      vertex -6.16233 -1.30984 -19.3
      vertex -0.658529 6.26549 -19.3
      vertex 0.658529 6.26549 -19.3
    endloop
  endfacet
  facet normal 0 0 -1
    outer loop
      vertex -6.16233 -1.30984 -19.3
      vertex 0.658529 6.26549 -19.3
      vertex 1.94681 5.99166 -19.3
    endloop
  endfacet
  facet normal 0 0 -1
    outer loop
      vertex -6.16233 -1.30984 -19.3
      vertex 1.94681 5.99166 -19.3
      vertex 3.15 5.45596 -19.3
    endloop
  endfacet
  facet normal 0 0 -1
    outer loop
      vertex -6.16233 -1.30984 -19.3
      vertex 3.15 5.45596 -19.3
      vertex 4.21552 4.68181 -19.3
    endloop
  endfacet
  facet normal 0 0 -1
    outer loop
      vertex -6.16233 -1.30984 -19.3
      vertex 4.21552 4.68181 -19.3
      vertex 5.09681 3.70305 -19.3
    endloop
  endfacet
  facet normal 0 0 -1
    outer loop
      vertex -6.16233 -1.30984 -19.3
      vertex 5.09681 3.70305 -19.3
      vertex 5.75534 2.56244 -19.3
    endloop
  endfacet
  facet normal 0 0 -1
    outer loop
      vertex -6.16233 -1.30984 -19.3
      vertex 5.75534 2.56244 -19.3
      vertex 6.16233 1.30984 -19.3
    endloop
  endfacet
  facet normal 0 0 -1
    outer loop
      vertex -6.16233 -1.30984 -19.3
      vertex 6.16233 1.30984 -19.3
      vertex 6.3 0 -19.3
    endloop
  endfacet
  facet normal 0 0 -1
    outer loop
      vertex -6.16233 -1.30984 -19.3
      vertex 6.3 0 -19.3
      vertex 6.16233 -1.30984 -19.3
    endloop
  endfacet
  facet normal 0 0 -1
    outer loop
      vertex -6.16233 -1.30984 -19.3
      vertex 6.16233 -1.30984 -19.3
      vertex 5.75534 -2.56244 -19.3
    endloop
  endfacet
  facet normal 0 0 -1
    outer loop
      vertex -6.16233 -1.30984 -19.3
      vertex 5.75534 -2.56244 -19.3
      vertex 5.09681 -3.70305 -19.3
    endloop
  endfacet
  facet normal 0 0 -1
    outer loop
      vertex -6.16233 -1.30984 -19.3
      vertex 5.09681 -3.70305 -19.3
      vertex 4.21552 -4.68181 -19.3
    endloop
  endfacet
  facet normal 0 0 -1
    outer loop
      vertex -6.16233 -1.30984 -19.3
      vertex 4.21552 -4.68181 -19.3
      vertex 3.15 -5.45596 -19.3
    endloop
  endfacet
  facet normal 0 0 -1
    outer loop
      vertex -6.16233 -1.30984 -19.3
      vertex 3.15 -5.45596 -19.3
      vertex 1.94681 -5.99166 -19.3
    endloop
  endfacet
  facet normal 0 0 -1
    outer loop
      vertex -6.16233 -1.30984 -19.3
      vertex 1.94681 -5.99166 -19.3
      vertex 0.658529 -6.26549 -19.3
    endloop
  endfacet
  facet normal 0 0 -1
    outer loop
      vertex -6.16233 -1.30984 -19.3
      vertex 0.658529 -6.26549 -19.3
      vertex -0.658529 -6.26549 -19.3
    endloop
  endfacet
  facet normal 0 0 -1
    outer loop
      vertex -6.16233 -1.30984 -19.3
      vertex -0.658529 -6.26549 -19.3
      vertex -1.94681 -5.99166 -19.3
    endloop
  endfacet
  facet normal 0 0 -1
    outer loop
      vertex -6.16233 -1.30984 -19.3
      vertex -1.94681 -5.99166 -19.3
      vertex -3.15 -5.45596 -19.3
    endloop
  endfacet
  facet normal 0 0 -1
    outer loop
      vertex -6.16233 -1.30984 -19.3
      vertex -3.15 -5.45596 -19.3
      vertex -4.21552 -4.68181 -19.3
    endloop
  endfacet
  facet normal 0 0 -1
    outer loop
      vertex -6.16233 -1.30984 -19.3
      vertex -4.21552 -4.68181 -19.3
      vertex -5.09681 -3.70305 -19.3
    endloop
  endfacet
  facet normal 0 0 -1
    outer loop
      vertex -6.16233 -1.30984 -19.3
      vertex -5.09681 -3.70305 -19.3
      vertex -5.75534 -2.56244 -19.3
    endloop
  endfacet
  facet normal -0.994522 0.104528 0
    outer loop
      vertex -6.3 0 -19.3
      vertex -6.3 0 6.2
      vertex -6.16233 1.30984 -19.3
    endloop
  endfacet
  facet normal -0.994522 0.104528 0
    outer loop
      vertex -6.16233 1.30984 -19.3
      vertex -6.3 0 6.2
      vertex -6.16233 1.30984 6.2
    endloop
  endfacet
  facet normal -0.994522 -0.104528 0
    outer loop
      vertex -6.3 0 -19.3
      vertex -6.16233 -1.30984 -19.3
      vertex -6.3 0 6.2
    endloop
  endfacet
  facet normal -0.994522 -0.104528 0
    outer loop
      vertex -6.3 0 6.2
      vertex -6.16233 -1.30984 -19.3
      vertex -6.16233 -1.30984 6.2
    endloop
  endfacet
  facet normal -0.951056 -0.309017 0
    outer loop
      vertex -6.16233 -1.30984 -19.3
      vertex -5.75534 -2.56244 -19.3
      vertex -6.16233 -1.30984 6.2
    endloop
  endfacet
  facet normal -0.951056 -0.309017 0
    outer loop
      vertex -6.16233 -1.30984 6.2
      vertex -5.75534 -2.56244 -19.3
      vertex -5.75534 -2.56244 6.2
    endloop
  endfacet
  facet normal -0.866025 -0.5 0
    outer loop
      vertex -5.75534 -2.56244 -19.3
      vertex -5.09681 -3.70305 -19.3
      vertex -5.75534 -2.56244 6.2
    endloop
  endfacet
  facet normal -0.866025 -0.5 0
    outer loop
      vertex -5.75534 -2.56244 6.2
      vertex -5.09681 -3.70305 -19.3
      vertex -5.09681 -3.70305 6.2
    endloop
  endfacet
  facet normal -0.743145 -0.669131 0
    outer loop
      vertex -5.09681 -3.70305 -19.3
      vertex -4.21552 -4.68181 -19.3
      vertex -5.09681 -3.70305 6.2
    endloop
  endfacet
  facet normal -0.743145 -0.669131 0
    outer loop
      vertex -5.09681 -3.70305 6.2
      vertex -4.21552 -4.68181 -19.3
      vertex -4.21552 -4.68181 6.2
    endloop
  endfacet
  facet normal -0.587785 -0.809017 0
    outer loop
      vertex -4.21552 -4.68181 6.2
      vertex -4.21552 -4.68181 -19.3
      vertex -3.15 -5.45596 -19.3
    endloop
  endfacet
  facet normal -0.587785 -0.809017 0
    outer loop
      vertex -3.15 -5.45596 6.2
      vertex -4.21552 -4.68181 6.2
      vertex -3.15 -5.45596 -19.3
    endloop
  endfacet
  facet normal -0.406737 -0.913545 0
    outer loop
      vertex -3.15 -5.45596 6.2
      vertex -3.15 -5.45596 -19.3
      vertex -1.94681 -5.99166 -19.3
    endloop
  endfacet
  facet normal -0.406737 -0.913545 0
    outer loop
      vertex -1.94681 -5.99166 6.2
      vertex -3.15 -5.45596 6.2
      vertex -1.94681 -5.99166 -19.3
    endloop
  endfacet
  facet normal -0.207912 -0.978148 0
    outer loop
      vertex -1.94681 -5.99166 6.2
      vertex -1.94681 -5.99166 -19.3
      vertex -0.658529 -6.26549 -19.3
    endloop
  endfacet
  facet normal -0.207912 -0.978148 0
    outer loop
      vertex -0.658529 -6.26549 6.2
      vertex -1.94681 -5.99166 6.2
      vertex -0.658529 -6.26549 -19.3
    endloop
  endfacet
  facet normal 0 -1 0
    outer loop
      vertex -0.658529 -6.26549 6.2
      vertex -0.658529 -6.26549 -19.3
      vertex 0.658529 -6.26549 -19.3
    endloop
  endfacet
  facet normal 0 -1 0
    outer loop
      vertex 0.658529 -6.26549 6.2
      vertex -0.658529 -6.26549 6.2
      vertex 0.658529 -6.26549 -19.3
    endloop
  endfacet
  facet normal 0.207912 -0.978148 0
    outer loop
      vertex 0.658529 -6.26549 6.2
      vertex 0.658529 -6.26549 -19.3
      vertex 1.94681 -5.99166 -19.3
    endloop
  endfacet
  facet normal 0.207912 -0.978148 0
    outer loop
      vertex 1.94681 -5.99166 6.2
      vertex 0.658529 -6.26549 6.2
      vertex 1.94681 -5.99166 -19.3
    endloop
  endfacet
  facet normal 0.406737 -0.913545 0
    outer loop
      vertex 1.94681 -5.99166 6.2
      vertex 1.94681 -5.99166 -19.3
      vertex 3.15 -5.45596 -19.3
    endloop
  endfacet
  facet normal 0.406737 -0.913545 0
    outer loop
      vertex 3.15 -5.45596 6.2
      vertex 1.94681 -5.99166 6.2
      vertex 3.15 -5.45596 -19.3
    endloop
  endfacet
  facet normal 0.587785 -0.809017 0
    outer loop
      vertex 3.15 -5.45596 6.2
      vertex 3.15 -5.45596 -19.3
      vertex 4.21552 -4.68181 -19.3
    endloop
  endfacet
  facet normal 0.587785 -0.809017 0
    outer loop
      vertex 4.21552 -4.68181 6.2
      vertex 3.15 -5.45596 6.2
      vertex 4.21552 -4.68181 -19.3
    endloop
  endfacet
  facet normal 0.743145 -0.669131 0
    outer loop
      vertex 4.21552 -4.68181 6.2
      vertex 4.21552 -4.68181 -19.3
      vertex 5.09681 -3.70305 -19.3
    endloop
  endfacet
  facet normal 0.743145 -0.669131 0
    outer loop
      vertex 5.09681 -3.70305 6.2
      vertex 4.21552 -4.68181 6.2
      vertex 5.09681 -3.70305 -19.3
    endloop
  endfacet
  facet normal 0.866025 -0.5 0
    outer loop
      vertex 5.09681 -3.70305 6.2
      vertex 5.09681 -3.70305 -19.3
      vertex 5.75534 -2.56244 -19.3
    endloop
  endfacet
  facet normal 0.866025 -0.5 0
    outer loop
      vertex 5.75534 -2.56244 6.2
      vertex 5.09681 -3.70305 6.2
      vertex 5.75534 -2.56244 -19.3
    endloop
  endfacet
  facet normal 0.951056 -0.309017 0
    outer loop
      vertex 5.75534 -2.56244 6.2
      vertex 5.75534 -2.56244 -19.3
      vertex 6.16233 -1.30984 -19.3
    endloop
  endfacet
  facet normal 0.951056 -0.309017 0
    outer loop
      vertex 6.16233 -1.30984 6.2
      vertex 5.75534 -2.56244 6.2
      vertex 6.16233 -1.30984 -19.3
    endloop
  endfacet
  facet normal 0.994522 -0.104528 0
    outer loop
      vertex 6.16233 -1.30984 6.2
      vertex 6.16233 -1.30984 -19.3
      vertex 6.3 0 -19.3
    endloop
  endfacet
  facet normal 0.994522 -0.104528 0
    outer loop
      vertex 6.3 0 6.2
      vertex 6.16233 -1.30984 6.2
      vertex 6.3 0 -19.3
    endloop
  endfacet
  facet normal 0.994522 0.104528 0
    outer loop
      vertex 6.3 0 -19.3
      vertex 6.16233 1.30984 -19.3
      vertex 6.16233 1.30984 6.2
    endloop
  endfacet
  facet normal 0.994522 0.104528 0
    outer loop
      vertex 6.3 0 6.2
      vertex 6.3 0 -19.3
      vertex 6.16233 1.30984 6.2
    endloop
  endfacet
  facet normal 0.951056 0.309017 0
    outer loop
      vertex 6.16233 1.30984 -19.3
      vertex 5.75534 2.56244 -19.3
      vertex 5.75534 2.56244 6.2
    endloop
  endfacet
  facet normal 0.951056 0.309017 0
    outer loop
      vertex 6.16233 1.30984 6.2
      vertex 6.16233 1.30984 -19.3
      vertex 5.75534 2.56244 6.2
    endloop
  endfacet
  facet normal 0.866025 0.5 0
    outer loop
      vertex 5.75534 2.56244 -19.3
      vertex 5.09681 3.70305 -19.3
      vertex 5.09681 3.70305 6.2
    endloop
  endfacet
  facet normal 0.866025 0.5 0
    outer loop
      vertex 5.75534 2.56244 6.2
      vertex 5.75534 2.56244 -19.3
      vertex 5.09681 3.70305 6.2
    endloop
  endfacet
  facet normal 0.743145 0.669131 0
    outer loop
      vertex 5.09681 3.70305 -19.3
      vertex 4.21552 4.68181 -19.3
      vertex 4.21552 4.68181 6.2
    endloop
  endfacet
  facet normal 0.743145 0.669131 0
    outer loop
      vertex 5.09681 3.70305 6.2
      vertex 5.09681 3.70305 -19.3
      vertex 4.21552 4.68181 6.2
    endloop
  endfacet
  facet normal 0.587785 0.809017 0
    outer loop
      vertex 3.15 5.45596 -19.3
      vertex 3.15 5.45596 6.2
      vertex 4.21552 4.68181 -19.3
    endloop
  endfacet
  facet normal 0.587785 0.809017 0
    outer loop
      vertex 4.21552 4.68181 -19.3
      vertex 3.15 5.45596 6.2
      vertex 4.21552 4.68181 6.2
    endloop
  endfacet
  facet normal 0.406737 0.913545 0
    outer loop
      vertex 1.94681 5.99166 -19.3
      vertex 1.94681 5.99166 6.2
      vertex 3.15 5.45596 -19.3
    endloop
  endfacet
  facet normal 0.406737 0.913545 0
    outer loop
      vertex 3.15 5.45596 -19.3
      vertex 1.94681 5.99166 6.2
      vertex 3.15 5.45596 6.2
    endloop
  endfacet
  facet normal 0.207912 0.978148 0
    outer loop
      vertex 0.658529 6.26549 -19.3
      vertex 0.658529 6.26549 6.2
      vertex 1.94681 5.99166 -19.3
    endloop
  endfacet
  facet normal 0.207912 0.978148 0
    outer loop
      vertex 1.94681 5.99166 -19.3
      vertex 0.658529 6.26549 6.2
      vertex 1.94681 5.99166 6.2
    endloop
  endfacet
  facet normal 0 1 0
    outer loop
      vertex -0.658529 6.26549 -19.3
      vertex -0.658529 6.26549 6.2
      vertex 0.658529 6.26549 -19.3
    endloop
  endfacet
  facet normal 0 1 0
    outer loop
      vertex 0.658529 6.26549 -19.3
      vertex -0.658529 6.26549 6.2
      vertex 0.658529 6.26549 6.2
    endloop
  endfacet
  facet normal -0.207912 0.978148 0
    outer loop
      vertex -1.94681 5.99166 -19.3
      vertex -1.94681 5.99166 6.2
      vertex -0.658529 6.26549 -19.3
    endloop
  endfacet
  facet normal -0.207912 0.978148 0
    outer loop
      vertex -0.658529 6.26549 -19.3
      vertex -1.94681 5.99166 6.2
      vertex -0.658529 6.26549 6.2
    endloop
  endfacet
  facet normal -0.406737 0.913545 0
    outer loop
      vertex -3.15 5.45596 -19.3
      vertex -3.15 5.45596 6.2
      vertex -1.94681 5.99166 -19.3
    endloop
  endfacet
  facet normal -0.406737 0.913545 0
    outer loop
      vertex -1.94681 5.99166 -19.3
      vertex -3.15 5.45596 6.2
      vertex -1.94681 5.99166 6.2
    endloop
  endfacet
  facet normal -0.587785 0.809017 0
    outer loop
      vertex -4.21552 4.68181 -19.3
      vertex -4.21552 4.68181 6.2
      vertex -3.15 5.45596 -19.3
    endloop
  endfacet
  facet normal -0.587785 0.809017 0
    outer loop
      vertex -3.15 5.45596 -19.3
      vertex -4.21552 4.68181 6.2
      vertex -3.15 5.45596 6.2
    endloop
  endfacet
  facet normal -0.743145 0.669131 0
    outer loop
      vertex -5.09681 3.70305 -19.3
      vertex -5.09681 3.70305 6.2
      vertex -4.21552 4.68181 -19.3
    endloop
  endfacet
  facet normal -0.743145 0.669131 0
    outer loop
      vertex -4.21552 4.68181 -19.3
      vertex -5.09681 3.70305 6.2
      vertex -4.21552 4.68181 6.2
    endloop
  endfacet
  facet normal -0.866025 0.5 0
    outer loop
      vertex -5.75534 2.56244 -19.3
      vertex -5.75534 2.56244 6.2
      vertex -5.09681 3.70305 -19.3
    endloop
  endfacet
  facet normal -0.866025 0.5 0
    outer loop
      vertex -5.09681 3.70305 -19.3
      vertex -5.75534 2.56244 6.2
      vertex -5.09681 3.70305 6.2
    endloop
  endfacet
  facet normal -0.951056 0.309017 0
    outer loop
      vertex -6.16233 1.30984 -19.3
      vertex -6.16233 1.30984 6.2
      vertex -5.75534 2.56244 -19.3
    endloop
  endfacet
  facet normal -0.951056 0.309017 0
    outer loop
      vertex -5.75534 2.56244 -19.3
      vertex -6.16233 1.30984 6.2
      vertex -5.75534 2.56244 6.2
    endloop
  endfacet
  facet normal 0 0 1
    outer loop
      vertex -6.16233 1.30984 6.2
      vertex -6.3 0 6.2
      vertex -6.16233 -1.30984 6.2
    endloop
  endfacet
  facet normal 0 0 1
    outer loop
      vertex -5.09681 -3.70305 6.2
      vertex -6.16233 1.30984 6.2
      vertex -5.75534 -2.56244 6.2
    endloop
  endfacet
  facet normal 0 0 1
    outer loop
      vertex -5.75534 -2.56244 6.2
      vertex -6.16233 1.30984 6.2
      vertex -6.16233 -1.30984 6.2
    endloop
  endfacet
  facet normal 0 0 1
    outer loop
      vertex -4.21552 -4.68181 6.2
      vertex -6.16233 1.30984 6.2
      vertex -5.09681 -3.70305 6.2
    endloop
  endfacet
  facet normal 0 0 1
    outer loop
      vertex -3.15 -5.45596 6.2
      vertex -6.16233 1.30984 6.2
      vertex -4.21552 -4.68181 6.2
    endloop
  endfacet
  facet normal 0 0 1
    outer loop
      vertex -1.94681 -5.99166 6.2
      vertex -6.16233 1.30984 6.2
      vertex -3.15 -5.45596 6.2
    endloop
  endfacet
  facet normal 0 0 1
    outer loop
      vertex -0.658529 -6.26549 6.2
      vertex -6.16233 1.30984 6.2
      vertex -1.94681 -5.99166 6.2
    endloop
  endfacet
  facet normal 0 0 1
    outer loop
      vertex 0.658529 -6.26549 6.2
      vertex -6.16233 1.30984 6.2
      vertex -0.658529 -6.26549 6.2
    endloop
  endfacet
  facet normal 0 0 1
    outer loop
      vertex 1.94681 -5.99166 6.2
      vertex -6.16233 1.30984 6.2
      vertex 0.658529 -6.26549 6.2
    endloop
  endfacet
  facet normal 0 0 1
    outer loop
      vertex 3.15 -5.45596 6.2
      vertex -6.16233 1.30984 6.2
      vertex 1.94681 -5.99166 6.2
    endloop
  endfacet
  facet normal 0 0 1
    outer loop
      vertex 4.21552 -4.68181 6.2
      vertex -6.16233 1.30984 6.2
      vertex 3.15 -5.45596 6.2
    endloop
  endfacet
  facet normal 0 0 1
    outer loop
      vertex 5.09681 -3.70305 6.2
      vertex -6.16233 1.30984 6.2
      vertex 4.21552 -4.68181 6.2
    endloop
  endfacet
  facet normal 0 0 1
    outer loop
      vertex 5.75534 -2.56244 6.2
      vertex -6.16233 1.30984 6.2
      vertex 5.09681 -3.70305 6.2
    endloop
  endfacet
  facet normal 0 0 1
    outer loop
      vertex 6.16233 -1.30984 6.2
      vertex -6.16233 1.30984 6.2
      vertex 5.75534 -2.56244 6.2
    endloop
  endfacet
  facet normal 0 0 1
    outer loop
      vertex 6.3 0 6.2
      vertex -6.16233 1.30984 6.2
      vertex 6.16233 -1.30984 6.2
    endloop
  endfacet
  facet normal 0 0 1
    outer loop
      vertex 6.16233 1.30984 6.2
      vertex -6.16233 1.30984 6.2
      vertex 6.3 0 6.2
    endloop
  endfacet
  facet normal 0 0 1
    outer loop
      vertex 5.75534 2.56244 6.2
      vertex -6.16233 1.30984 6.2
      vertex 6.16233 1.30984 6.2
    endloop
  endfacet
  facet normal 0 0 1
    outer loop
      vertex 5.09681 3.70305 6.2
      vertex -6.16233 1.30984 6.2
      vertex 5.75534 2.56244 6.2
    endloop
  endfacet
  facet normal 0 0 1
    outer loop
      vertex 4.21552 4.68181 6.2
      vertex -6.16233 1.30984 6.2
      vertex 5.09681 3.70305 6.2
    endloop
  endfacet
  facet normal 0 0 1
    outer loop
      vertex 3.15 5.45596 6.2
      vertex -6.16233 1.30984 6.2
      vertex 4.21552 4.68181 6.2
    endloop
  endfacet
  facet normal 0 0 1
    outer loop
      vertex 1.94681 5.99166 6.2
      vertex -6.16233 1.30984 6.2
      vertex 3.15 5.45596 6.2
    endloop
  endfacet
  facet normal 0 0 1
    outer loop
      vertex 0.658529 6.26549 6.2
      vertex -6.16233 1.30984 6.2
      vertex 1.94681 5.99166 6.2
    endloop
  endfacet
  facet normal 0 0 1
    outer loop
      vertex -0.658529 6.26549 6.2
      vertex -6.16233 1.30984 6.2
      vertex 0.658529 6.26549 6.2
    endloop
  endfacet
  facet normal 0 0 1
    outer loop
      vertex -1.94681 5.99166 6.2
      vertex -6.16233 1.30984 6.2
      vertex -0.658529 6.26549 6.2
    endloop
  endfacet
  facet normal 0 0 1
    outer loop
      vertex -3.15 5.45596 6.2
      vertex -6.16233 1.30984 6.2
      vertex -1.94681 5.99166 6.2
    endloop
  endfacet
  facet normal 0 0 1
    outer loop
      vertex -4.21552 4.68181 6.2
      vertex -6.16233 1.30984 6.2
      vertex -3.15 5.45596 6.2
    endloop
  endfacet
  facet normal 0 0 1
    outer loop
      vertex -5.09681 3.70305 6.2
      vertex -6.16233 1.30984 6.2
      vertex -4.21552 4.68181 6.2
    endloop
  endfacet
  facet normal 0 0 1
    outer loop
      vertex -5.75534 2.56244 6.2
      vertex -6.16233 1.30984 6.2
      vertex -5.09681 3.70305 6.2
    endloop
  endfacet
  facet normal 0 0 -1
    outer loop
      vertex -2.5 0 6.2
      vertex -2.16506 1.25 6.2
      vertex -2.16506 -1.25 6.2
    endloop
  endfacet
  facet normal 0 0 -1
    outer loop
      vertex -2.16506 -1.25 6.2
      vertex -2.16506 1.25 6.2
      vertex -1.25 2.16506 6.2
    endloop
  endfacet
  facet normal 0 0 -1
    outer loop
      vertex -2.16506 -1.25 6.2
      vertex -1.25 2.16506 6.2
      vertex 0 2.5 6.2
    endloop
  endfacet
  facet normal 0 0 -1
    outer loop
      vertex -2.16506 -1.25 6.2
      vertex 0 2.5 6.2
      vertex 1.25 2.16506 6.2
    endloop
  endfacet
  facet normal 0 0 -1
    outer loop
      vertex -2.16506 -1.25 6.2
      vertex 1.25 2.16506 6.2
      vertex 2.16506 1.25 6.2
    endloop
  endfacet
  facet normal 0 0 -1
    outer loop
      vertex -2.16506 -1.25 6.2
      vertex 2.16506 1.25 6.2
      vertex 2.5 0 6.2
    endloop
  endfacet
  facet normal 0 0 -1
    outer loop
      vertex -2.16506 -1.25 6.2
      vertex 2.5 0 6.2
      vertex 2.16506 -1.25 6.2
    endloop
  endfacet
  facet normal 0 0 -1
    outer loop
      vertex -2.16506 -1.25 6.2
      vertex 2.16506 -1.25 6.2
      vertex 1.25 -2.16506 6.2
    endloop
  endfacet
  facet normal 0 0 -1
    outer loop
      vertex -2.16506 -1.25 6.2
      vertex 1.25 -2.16506 6.2
      vertex 0 -2.5 6.2
    endloop
  endfacet
  facet normal 0 0 -1
    outer loop
      vertex -2.16506 -1.25 6.2
      vertex 0 -2.5 6.2
      vertex -1.25 -2.16506 6.2
    endloop
  endfacet
  facet normal -0.965926 0.258819 0
    outer loop
      vertex -2.5 0 6.2
      vertex -2.5 0 9.2
      vertex -2.16506 1.25 6.2
    endloop
  endfacet
  facet normal -0.965926 0.258819 0
    outer loop
      vertex -2.16506 1.25 6.2
      vertex -2.5 0 9.2
      vertex -2.16506 1.25 9.2
    endloop
  endfacet
  facet normal -0.965926 -0.258819 0
    outer loop
      vertex -2.5 0 6.2
      vertex -2.16506 -1.25 6.2
      vertex -2.5 0 9.2
    endloop
  endfacet
  facet normal -0.965926 -0.258819 0
    outer loop
      vertex -2.5 0 9.2
      vertex -2.16506 -1.25 6.2
      vertex -2.16506 -1.25 9.2
    endloop
  endfacet
  facet normal -0.707107 -0.707107 0
    outer loop
      vertex -2.16506 -1.25 9.2
      vertex -2.16506 -1.25 6.2
      vertex -1.25 -2.16506 6.2
    endloop
  endfacet
  facet normal -0.707107 -0.707107 0
    outer loop
      vertex -1.25 -2.16506 9.2
      vertex -2.16506 -1.25 9.2
      vertex -1.25 -2.16506 6.2
    endloop
  endfacet
  facet normal -0.258819 -0.965926 0
    outer loop
      vertex -1.25 -2.16506 9.2
      vertex -1.25 -2.16506 6.2
      vertex 0 -2.5 6.2
    endloop
  endfacet
  facet normal -0.258819 -0.965926 0
    outer loop
      vertex 0 -2.5 9.2
      vertex -1.25 -2.16506 9.2
      vertex 0 -2.5 6.2
    endloop
  endfacet
  facet normal 0.258819 -0.965926 0
    outer loop
      vertex 0 -2.5 9.2
      vertex 0 -2.5 6.2
      vertex 1.25 -2.16506 6.2
    endloop
  endfacet
  facet normal 0.258819 -0.965926 0
    outer loop
      vertex 1.25 -2.16506 9.2
      vertex 0 -2.5 9.2
      vertex 1.25 -2.16506 6.2
    endloop
  endfacet
  facet normal 0.707107 -0.707107 0
    outer loop
      vertex 1.25 -2.16506 9.2
      vertex 1.25 -2.16506 6.2
      vertex 2.16506 -1.25 6.2
    endloop
  endfacet
  facet normal 0.707107 -0.707107 0
    outer loop
      vertex 2.16506 -1.25 9.2
      vertex 1.25 -2.16506 9.2
      vertex 2.16506 -1.25 6.2
    endloop
  endfacet
  facet normal 0.965926 -0.258819 0
    outer loop
      vertex 2.16506 -1.25 9.2
      vertex 2.16506 -1.25 6.2
      vertex 2.5 0 6.2
    endloop
  endfacet
  facet normal 0.965926 -0.258819 0
    outer loop
      vertex 2.5 0 9.2
      vertex 2.16506 -1.25 9.2
      vertex 2.5 0 6.2
    endloop
  endfacet
  facet normal 0.965926 0.258819 0
    outer loop
      vertex 2.5 0 6.2
      vertex 2.16506 1.25 6.2
      vertex 2.16506 1.25 9.2
    endloop
  endfacet
  facet normal 0.965926 0.258819 0
    outer loop
      vertex 2.5 0 9.2
      vertex 2.5 0 6.2
      vertex 2.16506 1.25 9.2
    endloop
  endfacet
  facet normal 0.707107 0.707107 0
    outer loop
      vertex 1.25 2.16506 6.2
      vertex 1.25 2.16506 9.2
      vertex 2.16506 1.25 6.2
    endloop
  endfacet
  facet normal 0.707107 0.707107 0
    outer loop
      vertex 2.16506 1.25 6.2
      vertex 1.25 2.16506 9.2
      vertex 2.16506 1.25 9.2
    endloop
  endfacet
  facet normal 0.258819 0.965926 0
    outer loop
      vertex 0 2.5 6.2
      vertex 0 2.5 9.2
      vertex 1.25 2.16506 6.2
    endloop
  endfacet
  facet normal 0.258819 0.965926 0
    outer loop
      vertex 1.25 2.16506 6.2
      vertex 0 2.5 9.2
      vertex 1.25 2.16506 9.2
    endloop
  endfacet
  facet normal -0.258819 0.965926 0
    outer loop
      vertex -1.25 2.16506 6.2
      vertex -1.25 2.16506 9.2
      vertex 0 2.5 6.2
    endloop
  endfacet
  facet normal -0.258819 0.965926 0
    outer loop
      vertex 0 2.5 6.2
      vertex -1.25 2.16506 9.2
      vertex 0 2.5 9.2
    endloop
  endfacet
  facet normal -0.707107 0.707107 0
    outer loop
      vertex -2.16506 1.25 6.2
      vertex -2.16506 1.25 9.2
      vertex -1.25 2.16506 6.2
    endloop
  endfacet
  facet normal -0.707107 0.707107 0
    outer loop
      vertex -1.25 2.16506 6.2
      vertex -2.16506 1.25 9.2
      vertex -1.25 2.16506 9.2
    endloop
  endfacet
  facet normal 0 0 1
    outer loop
      vertex -2.16506 1.25 9.2
      vertex -2.5 0 9.2
      vertex -2.16506 -1.25 9.2
    endloop
  endfacet
  facet normal 0 0 1
    outer loop
      vertex 0 -2.5 9.2
      vertex -2.16506 1.25 9.2
      vertex -1.25 -2.16506 9.2
    endloop
  endfacet
  facet normal 0 0 1
    outer loop
      vertex -1.25 -2.16506 9.2
      vertex -2.16506 1.25 9.2
      vertex -2.16506 -1.25 9.2
    endloop
  endfacet
  facet normal 0 0 1
    outer loop
      vertex 1.25 -2.16506 9.2
      vertex -2.16506 1.25 9.2
      vertex 0 -2.5 9.2
    endloop
  endfacet
  facet normal 0 0 1
    outer loop
      vertex 2.16506 -1.25 9.2
      vertex -2.16506 1.25 9.2
      vertex 1.25 -2.16506 9.2
    endloop
  endfacet
  facet normal 0 0 1
    outer loop
      vertex 2.5 0 9.2
      vertex -2.16506 1.25 9.2
      vertex 2.16506 -1.25 9.2
    endloop
  endfacet
  facet normal 0 0 1
    outer loop
      vertex 2.16506 1.25 9.2
      vertex -2.16506 1.25 9.2
      vertex 2.5 0 9.2
    endloop
  endfacet
  facet normal 0 0 1
    outer loop
      vertex 1.25 2.16506 9.2
      vertex -2.16506 1.25 9.2
      vertex 2.16506 1.25 9.2
    endloop
  endfacet
  facet normal 0 0 1
    outer loop
      vertex 0 2.5 9.2
      vertex -2.16506 1.25 9.2
      vertex 1.25 2.16506 9.2
    endloop
  endfacet
  facet normal 0 0 1
    outer loop
      vertex -1.25 2.16506 9.2
      vertex -2.16506 1.25 9.2
      vertex 0 2.5 9.2
    endloop
  endfacet
endsolid OpenSCAD_Model
