solid OpenSCAD_Model
  facet normal 0.998027 0.0627905 0
    outer loop
      vertex -22.3 0 0
      vertex -22.3 0 8
      vertex -22.1242 -2.79493 8
    endloop
  endfacet
  facet normal 0.998027 0.0627905 0
    outer loop
      vertex -22.1242 -2.79493 0
      vertex -22.3 0 0
      vertex -22.1242 -2.79493 8
    endloop
  endfacet
  facet normal 0.998027 -0.0627905 0
    outer loop
      vertex -22.3 0 0
      vertex -22.1242 2.79493 0
      vertex -22.1242 2.79493 8
    endloop
  endfacet
  facet normal 0.998027 -0.0627905 0
    outer loop
      vertex -22.3 0 8
      vertex -22.3 0 0
      vertex -22.1242 2.79493 8
    endloop
  endfacet
  facet normal 0 0 -1
    outer loop
      vertex -23.6123 2.98293 0
      vertex -23.0523 5.91882 0
      vertex -23.8 0 0
    endloop
  endfacet
  facet normal 0 0 -1
    outer loop
      vertex -23.8 0 0
      vertex -23.0523 5.91882 0
      vertex -22.1287 8.76136 0
    endloop
  endfacet
  facet normal 0 0 -1
    outer loop
      vertex -23.8 0 0
      vertex -22.1287 8.76136 0
      vertex -20.8561 11.4657 0
    endloop
  endfacet
  facet normal 0 0 -1
    outer loop
      vertex -23.8 0 0
      vertex -20.8561 11.4657 0
      vertex -19.2546 13.9893 0
    endloop
  endfacet
  facet normal 0 0 -1
    outer loop
      vertex -20.734 8.20918 0
      vertex -19.2546 13.9893 0
      vertex -17.3495 16.2922 0
    endloop
  endfacet
  facet normal 0 0 -1
    outer loop
      vertex -18.0411 13.1076 0
      vertex -17.3495 16.2922 0
      vertex -15.1707 18.3382 0
    endloop
  endfacet
  facet normal 0 0 -1
    outer loop
      vertex -16.256 15.2654 0
      vertex -15.1707 18.3382 0
      vertex -12.7527 20.095 0
    endloop
  endfacet
  facet normal 0 0 -1
    outer loop
      vertex -11.9489 18.8285 0
      vertex -12.7527 20.095 0
      vertex -10.1335 21.5349 0
    endloop
  endfacet
  facet normal 0 0 -1
    outer loop
      vertex -9.49488 20.1776 0
      vertex -10.1335 21.5349 0
      vertex -7.3546 22.6351 0
    endloop
  endfacet
  facet normal 0 0 -1
    outer loop
      vertex -6.89108 21.2086 0
      vertex -7.3546 22.6351 0
      vertex -4.45967 23.3784 0
    endloop
  endfacet
  facet normal 0 0 -1
    outer loop
      vertex -4.1786 21.905 0
      vertex -4.45967 23.3784 0
      vertex -1.49441 23.753 0
    endloop
  endfacet
  facet normal 0 0 -1
    outer loop
      vertex -1.40023 22.256 0
      vertex -1.49441 23.753 0
      vertex 1.49441 23.753 0
    endloop
  endfacet
  facet normal 0 0 -1
    outer loop
      vertex 1.40023 22.256 0
      vertex 1.49441 23.753 0
      vertex 4.45967 23.3784 0
    endloop
  endfacet
  facet normal 0 0 -1
    outer loop
      vertex 4.1786 21.905 0
      vertex 4.45967 23.3784 0
      vertex 7.3546 22.6351 0
    endloop
  endfacet
  facet normal 0 0 -1
    outer loop
      vertex 6.89108 21.2086 0
      vertex 7.3546 22.6351 0
      vertex 10.1335 21.5349 0
    endloop
  endfacet
  facet normal 0 0 -1
    outer loop
      vertex 9.49488 20.1776 0
      vertex 10.1335 21.5349 0
      vertex 12.7527 20.095 0
    endloop
  endfacet
  facet normal 0 0 -1
    outer loop
      vertex 11.9489 18.8285 0
      vertex 12.7527 20.095 0
      vertex 15.1707 18.3382 0
    endloop
  endfacet
  facet normal 0 0 -1
    outer loop
      vertex 14.2146 17.1824 0
      vertex 15.1707 18.3382 0
      vertex 17.3495 16.2922 0
    endloop
  endfacet
  facet normal 0 0 -1
    outer loop
      vertex 16.256 15.2654 0
      vertex 17.3495 16.2922 0
      vertex 19.2546 13.9893 0
    endloop
  endfacet
  facet normal 0 0 -1
    outer loop
      vertex 18.0411 13.1076 0
      vertex 19.2546 13.9893 0
      vertex 20.8561 11.4657 0
    endloop
  endfacet
  facet normal 0 0 -1
    outer loop
      vertex 19.5416 10.7431 0
      vertex 20.8561 11.4657 0
      vertex 22.1287 8.76136 0
    endloop
  endfacet
  facet normal 0 0 -1
    outer loop
      vertex 20.734 8.20918 0
      vertex 22.1287 8.76136 0
      vertex 23.0523 5.91882 0
    endloop
  endfacet
  facet normal 0 0 -1
    outer loop
      vertex 21.5994 5.54578 0
      vertex 23.0523 5.91882 0
      vertex 23.6123 2.98293 0
    endloop
  endfacet
  facet normal 0 0 -1
    outer loop
      vertex -22.1242 -2.79493 0
      vertex -23.8 0 0
      vertex -22.3 0 0
    endloop
  endfacet
  facet normal 0 0 -1
    outer loop
      vertex 22.1242 -2.79493 0
      vertex 23.8 0 0
      vertex 23.6123 -2.98293 0
    endloop
  endfacet
  facet normal 0 0 -1
    outer loop
      vertex 21.5994 -5.54578 0
      vertex 23.6123 -2.98293 0
      vertex 23.0523 -5.91882 0
    endloop
  endfacet
  facet normal 0 0 -1
    outer loop
      vertex 20.734 -8.20918 0
      vertex 23.0523 -5.91882 0
      vertex 22.1287 -8.76136 0
    endloop
  endfacet
  facet normal 0 0 -1
    outer loop
      vertex 19.5416 -10.7431 0
      vertex 22.1287 -8.76136 0
      vertex 20.8561 -11.4657 0
    endloop
  endfacet
  facet normal 0 0 -1
    outer loop
      vertex 18.0411 -13.1076 0
      vertex 20.8561 -11.4657 0
      vertex 19.2546 -13.9893 0
    endloop
  endfacet
  facet normal 0 0 -1
    outer loop
      vertex 16.256 -15.2654 0
      vertex 19.2546 -13.9893 0
      vertex 17.3495 -16.2922 0
    endloop
  endfacet
  facet normal 0 0 -1
    outer loop
      vertex 14.2146 -17.1824 0
      vertex 17.3495 -16.2922 0
      vertex 15.1707 -18.3382 0
    endloop
  endfacet
  facet normal 0 0 -1
    outer loop
      vertex 11.9489 -18.8285 0
      vertex 15.1707 -18.3382 0
      vertex 12.7527 -20.095 0
    endloop
  endfacet
  facet normal 0 0 -1
    outer loop
      vertex 9.49488 -20.1776 0
      vertex 12.7527 -20.095 0
      vertex 10.1335 -21.5349 0
    endloop
  endfacet
  facet normal 0 0 -1
    outer loop
      vertex 6.89108 -21.2086 0
      vertex 10.1335 -21.5349 0
      vertex 7.3546 -22.6351 0
    endloop
  endfacet
  facet normal 0 0 -1
    outer loop
      vertex 4.1786 -21.905 0
      vertex 7.3546 -22.6351 0
      vertex 4.45967 -23.3784 0
    endloop
  endfacet
  facet normal 0 0 -1
    outer loop
      vertex 1.40023 -22.256 0
      vertex 4.45967 -23.3784 0
      vertex 1.49441 -23.753 0
    endloop
  endfacet
  facet normal 0 0 -1
    outer loop
      vertex -1.40023 -22.256 0
      vertex 1.49441 -23.753 0
      vertex -1.49441 -23.753 0
    endloop
  endfacet
  facet normal 0 0 -1
    outer loop
      vertex -4.1786 -21.905 0
      vertex -1.49441 -23.753 0
      vertex -4.45967 -23.3784 0
    endloop
  endfacet
  facet normal 0 0 -1
    outer loop
      vertex -6.89108 -21.2086 0
      vertex -4.45967 -23.3784 0
      vertex -7.3546 -22.6351 0
    endloop
  endfacet
  facet normal 0 0 -1
    outer loop
      vertex -9.49488 -20.1776 0
      vertex -7.3546 -22.6351 0
      vertex -10.1335 -21.5349 0
    endloop
  endfacet
  facet normal 0 0 -1
    outer loop
      vertex -14.2146 -17.1824 0
      vertex -10.1335 -21.5349 0
      vertex -12.7527 -20.095 0
    endloop
  endfacet
  facet normal 0 0 -1
    outer loop
      vertex -16.256 -15.2654 0
      vertex -12.7527 -20.095 0
      vertex -15.1707 -18.3382 0
    endloop
  endfacet
  facet normal 0 0 -1
    outer loop
      vertex -19.5416 -10.7431 0
      vertex -15.1707 -18.3382 0
      vertex -17.3495 -16.2922 0
    endloop
  endfacet
  facet normal 0 0 -1
    outer loop
      vertex -20.734 -8.20918 0
      vertex -17.3495 -16.2922 0
      vertex -19.2546 -13.9893 0
    endloop
  endfacet
  facet normal 0 0 -1
    outer loop
      vertex -23.8 0 0
      vertex -19.2546 -13.9893 0
      vertex -20.8561 -11.4657 0
    endloop
  endfacet
  facet normal 0 0 -1
    outer loop
      vertex -23.8 0 0
      vertex -20.8561 -11.4657 0
      vertex -22.1287 -8.76136 0
    endloop
  endfacet
  facet normal 0 0 -1
    outer loop
      vertex -23.8 0 0
      vertex -22.1287 -8.76136 0
      vertex -23.0523 -5.91882 0
    endloop
  endfacet
  facet normal 0 0 -1
    outer loop
      vertex -23.8 0 0
      vertex -23.0523 -5.91882 0
      vertex -23.6123 -2.98293 0
    endloop
  endfacet
  facet normal 0 0 -1
    outer loop
      vertex -21.5994 -5.54578 0
      vertex -23.8 0 0
      vertex -22.1242 -2.79493 0
    endloop
  endfacet
  facet normal 0 0 -1
    outer loop
      vertex -20.734 -8.20918 0
      vertex -23.8 0 0
      vertex -21.5994 -5.54578 0
    endloop
  endfacet
  facet normal 0 0 -1
    outer loop
      vertex -19.5416 -10.7431 0
      vertex -17.3495 -16.2922 0
      vertex -20.734 -8.20918 0
    endloop
  endfacet
  facet normal 0 0 -1
    outer loop
      vertex -23.8 0 0
      vertex -20.734 -8.20918 0
      vertex -19.2546 -13.9893 0
    endloop
  endfacet
  facet normal 0 0 -1
    outer loop
      vertex -18.0411 -13.1076 0
      vertex -15.1707 -18.3382 0
      vertex -19.5416 -10.7431 0
    endloop
  endfacet
  facet normal 0 0 -1
    outer loop
      vertex -16.256 -15.2654 0
      vertex -15.1707 -18.3382 0
      vertex -18.0411 -13.1076 0
    endloop
  endfacet
  facet normal 0 0 -1
    outer loop
      vertex -11.9489 -18.8285 0
      vertex -10.1335 -21.5349 0
      vertex -14.2146 -17.1824 0
    endloop
  endfacet
  facet normal 0 0 -1
    outer loop
      vertex -9.49488 -20.1776 0
      vertex -10.1335 -21.5349 0
      vertex -11.9489 -18.8285 0
    endloop
  endfacet
  facet normal 0 0 -1
    outer loop
      vertex -14.2146 -17.1824 0
      vertex -12.7527 -20.095 0
      vertex -16.256 -15.2654 0
    endloop
  endfacet
  facet normal 0 0 -1
    outer loop
      vertex 22.3 0 0
      vertex 23.8 0 0
      vertex 22.1242 -2.79493 0
    endloop
  endfacet
  facet normal 0 0 -1
    outer loop
      vertex 21.5994 5.54578 0
      vertex 23.6123 2.98293 0
      vertex 22.1242 2.79493 0
    endloop
  endfacet
  facet normal 0 0 -1
    outer loop
      vertex 23.6123 2.98293 0
      vertex 23.8 0 0
      vertex 22.3 0 0
    endloop
  endfacet
  facet normal 0 0 -1
    outer loop
      vertex 23.6123 2.98293 0
      vertex 22.3 0 0
      vertex 22.1242 2.79493 0
    endloop
  endfacet
  facet normal 0 0 -1
    outer loop
      vertex 22.1242 -2.79493 0
      vertex 23.6123 -2.98293 0
      vertex 21.5994 -5.54578 0
    endloop
  endfacet
  facet normal 0 0 -1
    outer loop
      vertex 21.5994 -5.54578 0
      vertex 23.0523 -5.91882 0
      vertex 20.734 -8.20918 0
    endloop
  endfacet
  facet normal 0 0 -1
    outer loop
      vertex 20.734 -8.20918 0
      vertex 22.1287 -8.76136 0
      vertex 19.5416 -10.7431 0
    endloop
  endfacet
  facet normal 0 0 -1
    outer loop
      vertex 19.5416 -10.7431 0
      vertex 20.8561 -11.4657 0
      vertex 18.0411 -13.1076 0
    endloop
  endfacet
  facet normal 0 0 -1
    outer loop
      vertex 18.0411 -13.1076 0
      vertex 19.2546 -13.9893 0
      vertex 16.256 -15.2654 0
    endloop
  endfacet
  facet normal 0 0 -1
    outer loop
      vertex 16.256 -15.2654 0
      vertex 17.3495 -16.2922 0
      vertex 14.2146 -17.1824 0
    endloop
  endfacet
  facet normal 0 0 -1
    outer loop
      vertex 14.2146 -17.1824 0
      vertex 15.1707 -18.3382 0
      vertex 11.9489 -18.8285 0
    endloop
  endfacet
  facet normal 0 0 -1
    outer loop
      vertex 11.9489 -18.8285 0
      vertex 12.7527 -20.095 0
      vertex 9.49488 -20.1776 0
    endloop
  endfacet
  facet normal 0 0 -1
    outer loop
      vertex 9.49488 -20.1776 0
      vertex 10.1335 -21.5349 0
      vertex 6.89108 -21.2086 0
    endloop
  endfacet
  facet normal 0 0 -1
    outer loop
      vertex 6.89108 -21.2086 0
      vertex 7.3546 -22.6351 0
      vertex 4.1786 -21.905 0
    endloop
  endfacet
  facet normal 0 0 -1
    outer loop
      vertex 4.1786 -21.905 0
      vertex 4.45967 -23.3784 0
      vertex 1.40023 -22.256 0
    endloop
  endfacet
  facet normal 0 0 -1
    outer loop
      vertex 1.40023 -22.256 0
      vertex 1.49441 -23.753 0
      vertex -1.40023 -22.256 0
    endloop
  endfacet
  facet normal 0 0 -1
    outer loop
      vertex -1.40023 -22.256 0
      vertex -1.49441 -23.753 0
      vertex -4.1786 -21.905 0
    endloop
  endfacet
  facet normal 0 0 -1
    outer loop
      vertex -4.1786 -21.905 0
      vertex -4.45967 -23.3784 0
      vertex -6.89108 -21.2086 0
    endloop
  endfacet
  facet normal 0 0 -1
    outer loop
      vertex -6.89108 -21.2086 0
      vertex -7.3546 -22.6351 0
      vertex -9.49488 -20.1776 0
    endloop
  endfacet
  facet normal 0 0 -1
    outer loop
      vertex -14.2146 17.1824 0
      vertex -12.7527 20.095 0
      vertex -11.9489 18.8285 0
    endloop
  endfacet
  facet normal 0 0 -1
    outer loop
      vertex -18.0411 13.1076 0
      vertex -15.1707 18.3382 0
      vertex -16.256 15.2654 0
    endloop
  endfacet
  facet normal 0 0 -1
    outer loop
      vertex -19.5416 10.7431 0
      vertex -17.3495 16.2922 0
      vertex -18.0411 13.1076 0
    endloop
  endfacet
  facet normal 0 0 -1
    outer loop
      vertex -20.734 8.20918 0
      vertex -17.3495 16.2922 0
      vertex -19.5416 10.7431 0
    endloop
  endfacet
  facet normal 0 0 -1
    outer loop
      vertex -23.8 0 0
      vertex -19.2546 13.9893 0
      vertex -20.734 8.20918 0
    endloop
  endfacet
  facet normal 0 0 -1
    outer loop
      vertex -21.5994 5.54578 0
      vertex -23.8 0 0
      vertex -20.734 8.20918 0
    endloop
  endfacet
  facet normal 0 0 -1
    outer loop
      vertex -22.1242 2.79493 0
      vertex -23.8 0 0
      vertex -21.5994 5.54578 0
    endloop
  endfacet
  facet normal 0 0 -1
    outer loop
      vertex -22.3 0 0
      vertex -23.8 0 0
      vertex -22.1242 2.79493 0
    endloop
  endfacet
  facet normal 0 0 -1
    outer loop
      vertex -16.256 15.2654 0
      vertex -12.7527 20.095 0
      vertex -14.2146 17.1824 0
    endloop
  endfacet
  facet normal 0 0 -1
    outer loop
      vertex -11.9489 18.8285 0
      vertex -10.1335 21.5349 0
      vertex -9.49488 20.1776 0
    endloop
  endfacet
  facet normal 0 0 -1
    outer loop
      vertex -9.49488 20.1776 0
      vertex -7.3546 22.6351 0
      vertex -6.89108 21.2086 0
    endloop
  endfacet
  facet normal 0 0 -1
    outer loop
      vertex -6.89108 21.2086 0
      vertex -4.45967 23.3784 0
      vertex -4.1786 21.905 0
    endloop
  endfacet
  facet normal 0 0 -1
    outer loop
      vertex -4.1786 21.905 0
      vertex -1.49441 23.753 0
      vertex -1.40023 22.256 0
    endloop
  endfacet
  facet normal 0 0 -1
    outer loop
      vertex -1.40023 22.256 0
      vertex 1.49441 23.753 0
      vertex 1.40023 22.256 0
    endloop
  endfacet
  facet normal 0 0 -1
    outer loop
      vertex 1.40023 22.256 0
      vertex 4.45967 23.3784 0
      vertex 4.1786 21.905 0
    endloop
  endfacet
  facet normal 0 0 -1
    outer loop
      vertex 4.1786 21.905 0
      vertex 7.3546 22.6351 0
      vertex 6.89108 21.2086 0
    endloop
  endfacet
  facet normal 0 0 -1
    outer loop
      vertex 6.89108 21.2086 0
      vertex 10.1335 21.5349 0
      vertex 9.49488 20.1776 0
    endloop
  endfacet
  facet normal 0 0 -1
    outer loop
      vertex 9.49488 20.1776 0
      vertex 12.7527 20.095 0
      vertex 11.9489 18.8285 0
    endloop
  endfacet
  facet normal 0 0 -1
    outer loop
      vertex 11.9489 18.8285 0
      vertex 15.1707 18.3382 0
      vertex 14.2146 17.1824 0
    endloop
  endfacet
  facet normal 0 0 -1
    outer loop
      vertex 14.2146 17.1824 0
      vertex 17.3495 16.2922 0
      vertex 16.256 15.2654 0
    endloop
  endfacet
  facet normal 0 0 -1
    outer loop
      vertex 16.256 15.2654 0
      vertex 19.2546 13.9893 0
      vertex 18.0411 13.1076 0
    endloop
  endfacet
  facet normal 0 0 -1
    outer loop
      vertex 18.0411 13.1076 0
      vertex 20.8561 11.4657 0
      vertex 19.5416 10.7431 0
    endloop
  endfacet
  facet normal 0 0 -1
    outer loop
      vertex 19.5416 10.7431 0
      vertex 22.1287 8.76136 0
      vertex 20.734 8.20918 0
    endloop
  endfacet
  facet normal 0 0 -1
    outer loop
      vertex 20.734 8.20918 0
      vertex 23.0523 5.91882 0
      vertex 21.5994 5.54578 0
    endloop
  endfacet
  facet normal 0.982287 0.187382 0
    outer loop
      vertex -22.1242 -2.79493 0
      vertex -22.1242 -2.79493 8
      vertex -21.5994 -5.54578 8
    endloop
  endfacet
  facet normal 0.982287 0.187382 0
    outer loop
      vertex -21.5994 -5.54578 0
      vertex -22.1242 -2.79493 0
      vertex -21.5994 -5.54578 8
    endloop
  endfacet
  facet normal 0 0 1
    outer loop
      vertex -23.8 0 8
      vertex -23.6123 -2.98293 8
      vertex -23.0523 -5.91882 8
    endloop
  endfacet
  facet normal 0 0 1
    outer loop
      vertex -20.8561 -11.4657 8
      vertex -23.8 0 8
      vertex -22.1287 -8.76136 8
    endloop
  endfacet
  facet normal 0 0 1
    outer loop
      vertex -22.1287 -8.76136 8
      vertex -23.8 0 8
      vertex -23.0523 -5.91882 8
    endloop
  endfacet
  facet normal 0 0 1
    outer loop
      vertex -19.2546 -13.9893 8
      vertex -23.8 0 8
      vertex -20.8561 -11.4657 8
    endloop
  endfacet
  facet normal 0 0 1
    outer loop
      vertex -20.734 -8.20918 8
      vertex -23.8 0 8
      vertex -19.2546 -13.9893 8
    endloop
  endfacet
  facet normal 0 0 1
    outer loop
      vertex -20.734 -8.20918 8
      vertex -21.5994 -5.54578 8
      vertex -23.8 0 8
    endloop
  endfacet
  facet normal 0 0 1
    outer loop
      vertex -19.5416 -10.7431 8
      vertex -20.734 -8.20918 8
      vertex -17.3495 -16.2922 8
    endloop
  endfacet
  facet normal 0 0 1
    outer loop
      vertex -16.256 -15.2654 8
      vertex -18.0411 -13.1076 8
      vertex -15.1707 -18.3382 8
    endloop
  endfacet
  facet normal 0 0 1
    outer loop
      vertex 22.1242 -2.79493 8
      vertex 21.5994 -5.54578 8
      vertex 23.6123 -2.98293 8
    endloop
  endfacet
  facet normal 0 0 1
    outer loop
      vertex 23.8 0 8
      vertex 22.3 0 8
      vertex 23.6123 -2.98293 8
    endloop
  endfacet
  facet normal 0 0 1
    outer loop
      vertex -11.9489 18.8285 8
      vertex -9.49488 20.1776 8
      vertex -10.1335 21.5349 8
    endloop
  endfacet
  facet normal 0 0 1
    outer loop
      vertex -16.256 15.2654 8
      vertex -14.2146 17.1824 8
      vertex -12.7527 20.095 8
    endloop
  endfacet
  facet normal 0 0 1
    outer loop
      vertex -18.0411 13.1076 8
      vertex -16.256 15.2654 8
      vertex -15.1707 18.3382 8
    endloop
  endfacet
  facet normal 0 0 1
    outer loop
      vertex -20.8561 11.4657 8
      vertex -23.8 0 8
      vertex -19.2546 13.9893 8
    endloop
  endfacet
  facet normal 0 0 1
    outer loop
      vertex -22.1287 8.76136 8
      vertex -23.8 0 8
      vertex -20.8561 11.4657 8
    endloop
  endfacet
  facet normal 0 0 1
    outer loop
      vertex -23.0523 5.91882 8
      vertex -23.8 0 8
      vertex -22.1287 8.76136 8
    endloop
  endfacet
  facet normal 0 0 1
    outer loop
      vertex -23.6123 2.98293 8
      vertex -23.8 0 8
      vertex -23.0523 5.91882 8
    endloop
  endfacet
  facet normal 0 0 1
    outer loop
      vertex 21.5994 -5.54578 8
      vertex 20.734 -8.20918 8
      vertex 23.0523 -5.91882 8
    endloop
  endfacet
  facet normal 0 0 1
    outer loop
      vertex -9.49488 20.1776 8
      vertex -6.89108 21.2086 8
      vertex -7.3546 22.6351 8
    endloop
  endfacet
  facet normal 0 0 1
    outer loop
      vertex -21.5994 -5.54578 8
      vertex -22.1242 -2.79493 8
      vertex -23.8 0 8
    endloop
  endfacet
  facet normal 0 0 1
    outer loop
      vertex -20.734 8.20918 8
      vertex -19.5416 10.7431 8
      vertex -17.3495 16.2922 8
    endloop
  endfacet
  facet normal 0 0 1
    outer loop
      vertex -19.2546 13.9893 8
      vertex -20.734 8.20918 8
      vertex -17.3495 16.2922 8
    endloop
  endfacet
  facet normal 0 0 1
    outer loop
      vertex -19.2546 13.9893 8
      vertex -23.8 0 8
      vertex -20.734 8.20918 8
    endloop
  endfacet
  facet normal 0 0 1
    outer loop
      vertex -17.3495 16.2922 8
      vertex -19.5416 10.7431 8
      vertex -15.1707 18.3382 8
    endloop
  endfacet
  facet normal 0 0 1
    outer loop
      vertex -19.5416 10.7431 8
      vertex -18.0411 13.1076 8
      vertex -15.1707 18.3382 8
    endloop
  endfacet
  facet normal 0 0 1
    outer loop
      vertex -15.1707 18.3382 8
      vertex -16.256 15.2654 8
      vertex -12.7527 20.095 8
    endloop
  endfacet
  facet normal 0 0 1
    outer loop
      vertex -21.5994 5.54578 8
      vertex -20.734 8.20918 8
      vertex -23.8 0 8
    endloop
  endfacet
  facet normal 0 0 1
    outer loop
      vertex -12.7527 20.095 8
      vertex -14.2146 17.1824 8
      vertex -10.1335 21.5349 8
    endloop
  endfacet
  facet normal 0 0 1
    outer loop
      vertex -14.2146 17.1824 8
      vertex -11.9489 18.8285 8
      vertex -10.1335 21.5349 8
    endloop
  endfacet
  facet normal 0 0 1
    outer loop
      vertex -10.1335 21.5349 8
      vertex -9.49488 20.1776 8
      vertex -7.3546 22.6351 8
    endloop
  endfacet
  facet normal 0 0 1
    outer loop
      vertex 21.5994 5.54578 8
      vertex 22.1242 2.79493 8
      vertex 23.6123 2.98293 8
    endloop
  endfacet
  facet normal 0 0 1
    outer loop
      vertex -7.3546 22.6351 8
      vertex -6.89108 21.2086 8
      vertex -4.45967 23.3784 8
    endloop
  endfacet
  facet normal 0 0 1
    outer loop
      vertex -22.1242 2.79493 8
      vertex -21.5994 5.54578 8
      vertex -23.8 0 8
    endloop
  endfacet
  facet normal 0 0 1
    outer loop
      vertex -4.45967 23.3784 8
      vertex -4.1786 21.905 8
      vertex -1.49441 23.753 8
    endloop
  endfacet
  facet normal 0 0 1
    outer loop
      vertex -1.49441 23.753 8
      vertex -1.40023 22.256 8
      vertex 1.49441 23.753 8
    endloop
  endfacet
  facet normal 0 0 1
    outer loop
      vertex 1.49441 23.753 8
      vertex 1.40023 22.256 8
      vertex 4.45967 23.3784 8
    endloop
  endfacet
  facet normal 0 0 1
    outer loop
      vertex 4.45967 23.3784 8
      vertex 4.1786 21.905 8
      vertex 7.3546 22.6351 8
    endloop
  endfacet
  facet normal 0 0 1
    outer loop
      vertex 7.3546 22.6351 8
      vertex 6.89108 21.2086 8
      vertex 10.1335 21.5349 8
    endloop
  endfacet
  facet normal 0 0 1
    outer loop
      vertex 10.1335 21.5349 8
      vertex 9.49488 20.1776 8
      vertex 12.7527 20.095 8
    endloop
  endfacet
  facet normal 0 0 1
    outer loop
      vertex 12.7527 20.095 8
      vertex 11.9489 18.8285 8
      vertex 15.1707 18.3382 8
    endloop
  endfacet
  facet normal 0 0 1
    outer loop
      vertex 15.1707 18.3382 8
      vertex 14.2146 17.1824 8
      vertex 17.3495 16.2922 8
    endloop
  endfacet
  facet normal 0 0 1
    outer loop
      vertex 17.3495 16.2922 8
      vertex 16.256 15.2654 8
      vertex 19.2546 13.9893 8
    endloop
  endfacet
  facet normal 0 0 1
    outer loop
      vertex 19.2546 13.9893 8
      vertex 18.0411 13.1076 8
      vertex 20.8561 11.4657 8
    endloop
  endfacet
  facet normal 0 0 1
    outer loop
      vertex 20.8561 11.4657 8
      vertex 19.5416 10.7431 8
      vertex 22.1287 8.76136 8
    endloop
  endfacet
  facet normal 0 0 1
    outer loop
      vertex 22.1287 8.76136 8
      vertex 20.734 8.20918 8
      vertex 23.0523 5.91882 8
    endloop
  endfacet
  facet normal 0 0 1
    outer loop
      vertex 23.0523 5.91882 8
      vertex 21.5994 5.54578 8
      vertex 23.6123 2.98293 8
    endloop
  endfacet
  facet normal 0 0 1
    outer loop
      vertex 23.6123 2.98293 8
      vertex 22.1242 2.79493 8
      vertex 23.8 0 8
    endloop
  endfacet
  facet normal 0 0 1
    outer loop
      vertex 22.1242 2.79493 8
      vertex 22.3 0 8
      vertex 23.8 0 8
    endloop
  endfacet
  facet normal 0 0 1
    outer loop
      vertex 22.3 0 8
      vertex 22.1242 -2.79493 8
      vertex 23.6123 -2.98293 8
    endloop
  endfacet
  facet normal 0 0 1
    outer loop
      vertex 23.6123 -2.98293 8
      vertex 21.5994 -5.54578 8
      vertex 23.0523 -5.91882 8
    endloop
  endfacet
  facet normal 0 0 1
    outer loop
      vertex -6.89108 21.2086 8
      vertex -4.1786 21.905 8
      vertex -4.45967 23.3784 8
    endloop
  endfacet
  facet normal 0 0 1
    outer loop
      vertex 23.0523 -5.91882 8
      vertex 20.734 -8.20918 8
      vertex 22.1287 -8.76136 8
    endloop
  endfacet
  facet normal 0 0 1
    outer loop
      vertex -4.1786 21.905 8
      vertex -1.40023 22.256 8
      vertex -1.49441 23.753 8
    endloop
  endfacet
  facet normal 0 0 1
    outer loop
      vertex 22.1287 -8.76136 8
      vertex 19.5416 -10.7431 8
      vertex 20.8561 -11.4657 8
    endloop
  endfacet
  facet normal 0 0 1
    outer loop
      vertex -1.40023 22.256 8
      vertex 1.40023 22.256 8
      vertex 1.49441 23.753 8
    endloop
  endfacet
  facet normal 0 0 1
    outer loop
      vertex 20.8561 -11.4657 8
      vertex 18.0411 -13.1076 8
      vertex 19.2546 -13.9893 8
    endloop
  endfacet
  facet normal 0 0 1
    outer loop
      vertex 1.40023 22.256 8
      vertex 4.1786 21.905 8
      vertex 4.45967 23.3784 8
    endloop
  endfacet
  facet normal 0 0 1
    outer loop
      vertex 19.2546 -13.9893 8
      vertex 16.256 -15.2654 8
      vertex 17.3495 -16.2922 8
    endloop
  endfacet
  facet normal 0 0 1
    outer loop
      vertex 4.1786 21.905 8
      vertex 6.89108 21.2086 8
      vertex 7.3546 22.6351 8
    endloop
  endfacet
  facet normal 0 0 1
    outer loop
      vertex 17.3495 -16.2922 8
      vertex 14.2146 -17.1824 8
      vertex 15.1707 -18.3382 8
    endloop
  endfacet
  facet normal 0 0 1
    outer loop
      vertex 6.89108 21.2086 8
      vertex 9.49488 20.1776 8
      vertex 10.1335 21.5349 8
    endloop
  endfacet
  facet normal 0 0 1
    outer loop
      vertex 15.1707 -18.3382 8
      vertex 11.9489 -18.8285 8
      vertex 12.7527 -20.095 8
    endloop
  endfacet
  facet normal 0 0 1
    outer loop
      vertex 9.49488 20.1776 8
      vertex 11.9489 18.8285 8
      vertex 12.7527 20.095 8
    endloop
  endfacet
  facet normal 0 0 1
    outer loop
      vertex 12.7527 -20.095 8
      vertex 9.49488 -20.1776 8
      vertex 10.1335 -21.5349 8
    endloop
  endfacet
  facet normal 0 0 1
    outer loop
      vertex 11.9489 18.8285 8
      vertex 14.2146 17.1824 8
      vertex 15.1707 18.3382 8
    endloop
  endfacet
  facet normal 0 0 1
    outer loop
      vertex 10.1335 -21.5349 8
      vertex 6.89108 -21.2086 8
      vertex 7.3546 -22.6351 8
    endloop
  endfacet
  facet normal 0 0 1
    outer loop
      vertex 14.2146 17.1824 8
      vertex 16.256 15.2654 8
      vertex 17.3495 16.2922 8
    endloop
  endfacet
  facet normal 0 0 1
    outer loop
      vertex 7.3546 -22.6351 8
      vertex 4.1786 -21.905 8
      vertex 4.45967 -23.3784 8
    endloop
  endfacet
  facet normal 0 0 1
    outer loop
      vertex 16.256 15.2654 8
      vertex 18.0411 13.1076 8
      vertex 19.2546 13.9893 8
    endloop
  endfacet
  facet normal 0 0 1
    outer loop
      vertex 4.45967 -23.3784 8
      vertex 1.40023 -22.256 8
      vertex 1.49441 -23.753 8
    endloop
  endfacet
  facet normal 0 0 1
    outer loop
      vertex 18.0411 13.1076 8
      vertex 19.5416 10.7431 8
      vertex 20.8561 11.4657 8
    endloop
  endfacet
  facet normal 0 0 1
    outer loop
      vertex 1.49441 -23.753 8
      vertex -1.40023 -22.256 8
      vertex -1.49441 -23.753 8
    endloop
  endfacet
  facet normal 0 0 1
    outer loop
      vertex 19.5416 10.7431 8
      vertex 20.734 8.20918 8
      vertex 22.1287 8.76136 8
    endloop
  endfacet
  facet normal 0 0 1
    outer loop
      vertex -1.49441 -23.753 8
      vertex -4.1786 -21.905 8
      vertex -4.45967 -23.3784 8
    endloop
  endfacet
  facet normal 0 0 1
    outer loop
      vertex 20.734 8.20918 8
      vertex 21.5994 5.54578 8
      vertex 23.0523 5.91882 8
    endloop
  endfacet
  facet normal 0 0 1
    outer loop
      vertex -4.45967 -23.3784 8
      vertex -6.89108 -21.2086 8
      vertex -7.3546 -22.6351 8
    endloop
  endfacet
  facet normal 0 0 1
    outer loop
      vertex -7.3546 -22.6351 8
      vertex -9.49488 -20.1776 8
      vertex -10.1335 -21.5349 8
    endloop
  endfacet
  facet normal 0 0 1
    outer loop
      vertex -10.1335 -21.5349 8
      vertex -11.9489 -18.8285 8
      vertex -12.7527 -20.095 8
    endloop
  endfacet
  facet normal 0 0 1
    outer loop
      vertex -22.3 0 8
      vertex -22.1242 2.79493 8
      vertex -23.8 0 8
    endloop
  endfacet
  facet normal 0 0 1
    outer loop
      vertex -11.9489 -18.8285 8
      vertex -14.2146 -17.1824 8
      vertex -12.7527 -20.095 8
    endloop
  endfacet
  facet normal 0 0 1
    outer loop
      vertex -12.7527 -20.095 8
      vertex -16.256 -15.2654 8
      vertex -15.1707 -18.3382 8
    endloop
  endfacet
  facet normal 0 0 1
    outer loop
      vertex -15.1707 -18.3382 8
      vertex -18.0411 -13.1076 8
      vertex -17.3495 -16.2922 8
    endloop
  endfacet
  facet normal 0 0 1
    outer loop
      vertex -18.0411 -13.1076 8
      vertex -19.5416 -10.7431 8
      vertex -17.3495 -16.2922 8
    endloop
  endfacet
  facet normal 0 0 1
    outer loop
      vertex -17.3495 -16.2922 8
      vertex -20.734 -8.20918 8
      vertex -19.2546 -13.9893 8
    endloop
  endfacet
  facet normal 0 0 1
    outer loop
      vertex 20.734 -8.20918 8
      vertex 19.5416 -10.7431 8
      vertex 22.1287 -8.76136 8
    endloop
  endfacet
  facet normal 0 0 1
    outer loop
      vertex 19.5416 -10.7431 8
      vertex 18.0411 -13.1076 8
      vertex 20.8561 -11.4657 8
    endloop
  endfacet
  facet normal 0 0 1
    outer loop
      vertex 18.0411 -13.1076 8
      vertex 16.256 -15.2654 8
      vertex 19.2546 -13.9893 8
    endloop
  endfacet
  facet normal 0 0 1
    outer loop
      vertex 16.256 -15.2654 8
      vertex 14.2146 -17.1824 8
      vertex 17.3495 -16.2922 8
    endloop
  endfacet
  facet normal 0 0 1
    outer loop
      vertex 14.2146 -17.1824 8
      vertex 11.9489 -18.8285 8
      vertex 15.1707 -18.3382 8
    endloop
  endfacet
  facet normal 0 0 1
    outer loop
      vertex 11.9489 -18.8285 8
      vertex 9.49488 -20.1776 8
      vertex 12.7527 -20.095 8
    endloop
  endfacet
  facet normal 0 0 1
    outer loop
      vertex 9.49488 -20.1776 8
      vertex 6.89108 -21.2086 8
      vertex 10.1335 -21.5349 8
    endloop
  endfacet
  facet normal 0 0 1
    outer loop
      vertex 6.89108 -21.2086 8
      vertex 4.1786 -21.905 8
      vertex 7.3546 -22.6351 8
    endloop
  endfacet
  facet normal 0 0 1
    outer loop
      vertex 4.1786 -21.905 8
      vertex 1.40023 -22.256 8
      vertex 4.45967 -23.3784 8
    endloop
  endfacet
  facet normal 0 0 1
    outer loop
      vertex 1.40023 -22.256 8
      vertex -1.40023 -22.256 8
      vertex 1.49441 -23.753 8
    endloop
  endfacet
  facet normal 0 0 1
    outer loop
      vertex -1.40023 -22.256 8
      vertex -4.1786 -21.905 8
      vertex -1.49441 -23.753 8
    endloop
  endfacet
  facet normal 0 0 1
    outer loop
      vertex -4.1786 -21.905 8
      vertex -6.89108 -21.2086 8
      vertex -4.45967 -23.3784 8
    endloop
  endfacet
  facet normal 0 0 1
    outer loop
      vertex -6.89108 -21.2086 8
      vertex -9.49488 -20.1776 8
      vertex -7.3546 -22.6351 8
    endloop
  endfacet
  facet normal 0 0 1
    outer loop
      vertex -9.49488 -20.1776 8
      vertex -11.9489 -18.8285 8
      vertex -10.1335 -21.5349 8
    endloop
  endfacet
  facet normal 0 0 1
    outer loop
      vertex -14.2146 -17.1824 8
      vertex -16.256 -15.2654 8
      vertex -12.7527 -20.095 8
    endloop
  endfacet
  facet normal 0 0 1
    outer loop
      vertex -22.1242 -2.79493 8
      vertex -22.3 0 8
      vertex -23.8 0 8
    endloop
  endfacet
  facet normal 0.982287 -0.187382 0
    outer loop
      vertex -22.1242 2.79493 0
      vertex -21.5994 5.54578 0
      vertex -21.5994 5.54578 8
    endloop
  endfacet
  facet normal 0.982287 -0.187382 0
    outer loop
      vertex -22.1242 2.79493 8
      vertex -22.1242 2.79493 0
      vertex -21.5994 5.54578 8
    endloop
  endfacet
  facet normal -0.998027 0.0627905 0
    outer loop
      vertex -23.8 0 8
      vertex -23.6123 2.98293 8
      vertex -23.8 0 0
    endloop
  endfacet
  facet normal -0.998027 0.0627905 0
    outer loop
      vertex -23.8 0 0
      vertex -23.6123 2.98293 8
      vertex -23.6123 2.98293 0
    endloop
  endfacet
  facet normal -0.998027 -0.0627905 0
    outer loop
      vertex -23.6123 -2.98293 0
      vertex -23.6123 -2.98293 8
      vertex -23.8 0 0
    endloop
  endfacet
  facet normal -0.998027 -0.0627905 0
    outer loop
      vertex -23.8 0 0
      vertex -23.6123 -2.98293 8
      vertex -23.8 0 8
    endloop
  endfacet
  facet normal -0.982287 -0.187381 0
    outer loop
      vertex -23.0523 -5.91882 0
      vertex -23.0523 -5.91882 8
      vertex -23.6123 -2.98293 0
    endloop
  endfacet
  facet normal -0.982287 -0.187381 0
    outer loop
      vertex -23.6123 -2.98293 0
      vertex -23.0523 -5.91882 8
      vertex -23.6123 -2.98293 8
    endloop
  endfacet
  facet normal -0.951057 -0.309017 0
    outer loop
      vertex -22.1287 -8.76136 0
      vertex -22.1287 -8.76136 8
      vertex -23.0523 -5.91882 0
    endloop
  endfacet
  facet normal -0.951057 -0.309017 0
    outer loop
      vertex -23.0523 -5.91882 0
      vertex -22.1287 -8.76136 8
      vertex -23.0523 -5.91882 8
    endloop
  endfacet
  facet normal -0.904827 -0.425779 0
    outer loop
      vertex -20.8561 -11.4657 0
      vertex -20.8561 -11.4657 8
      vertex -22.1287 -8.76136 0
    endloop
  endfacet
  facet normal -0.904827 -0.425779 0
    outer loop
      vertex -22.1287 -8.76136 0
      vertex -20.8561 -11.4657 8
      vertex -22.1287 -8.76136 8
    endloop
  endfacet
  facet normal -0.844328 -0.535827 0
    outer loop
      vertex -19.2546 -13.9893 0
      vertex -19.2546 -13.9893 8
      vertex -20.8561 -11.4657 0
    endloop
  endfacet
  facet normal -0.844328 -0.535827 0
    outer loop
      vertex -20.8561 -11.4657 0
      vertex -19.2546 -13.9893 8
      vertex -20.8561 -11.4657 8
    endloop
  endfacet
  facet normal -0.770513 -0.637424 0
    outer loop
      vertex -17.3495 -16.2922 0
      vertex -17.3495 -16.2922 8
      vertex -19.2546 -13.9893 0
    endloop
  endfacet
  facet normal -0.770513 -0.637424 0
    outer loop
      vertex -19.2546 -13.9893 0
      vertex -17.3495 -16.2922 8
      vertex -19.2546 -13.9893 8
    endloop
  endfacet
  facet normal -0.684547 -0.728969 0
    outer loop
      vertex -17.3495 -16.2922 0
      vertex -15.1707 -18.3382 0
      vertex -15.1707 -18.3382 8
    endloop
  endfacet
  facet normal -0.684547 -0.728969 0
    outer loop
      vertex -17.3495 -16.2922 8
      vertex -17.3495 -16.2922 0
      vertex -15.1707 -18.3382 8
    endloop
  endfacet
  facet normal -0.587785 -0.809017 0
    outer loop
      vertex -15.1707 -18.3382 0
      vertex -12.7527 -20.095 0
      vertex -12.7527 -20.095 8
    endloop
  endfacet
  facet normal -0.587785 -0.809017 0
    outer loop
      vertex -15.1707 -18.3382 8
      vertex -15.1707 -18.3382 0
      vertex -12.7527 -20.095 8
    endloop
  endfacet
  facet normal -0.481754 -0.876307 0
    outer loop
      vertex -12.7527 -20.095 0
      vertex -10.1335 -21.5349 0
      vertex -10.1335 -21.5349 8
    endloop
  endfacet
  facet normal -0.481754 -0.876307 0
    outer loop
      vertex -12.7527 -20.095 8
      vertex -12.7527 -20.095 0
      vertex -10.1335 -21.5349 8
    endloop
  endfacet
  facet normal -0.368124 -0.929777 0
    outer loop
      vertex -10.1335 -21.5349 0
      vertex -7.3546 -22.6351 0
      vertex -7.3546 -22.6351 8
    endloop
  endfacet
  facet normal -0.368124 -0.929777 0
    outer loop
      vertex -10.1335 -21.5349 8
      vertex -10.1335 -21.5349 0
      vertex -7.3546 -22.6351 8
    endloop
  endfacet
  facet normal -0.24869 -0.968583 0
    outer loop
      vertex -7.3546 -22.6351 0
      vertex -4.45967 -23.3784 0
      vertex -4.45967 -23.3784 8
    endloop
  endfacet
  facet normal -0.24869 -0.968583 0
    outer loop
      vertex -7.3546 -22.6351 8
      vertex -7.3546 -22.6351 0
      vertex -4.45967 -23.3784 8
    endloop
  endfacet
  facet normal -0.125333 -0.992115 0
    outer loop
      vertex -4.45967 -23.3784 0
      vertex -1.49441 -23.753 0
      vertex -1.49441 -23.753 8
    endloop
  endfacet
  facet normal -0.125333 -0.992115 0
    outer loop
      vertex -4.45967 -23.3784 8
      vertex -4.45967 -23.3784 0
      vertex -1.49441 -23.753 8
    endloop
  endfacet
  facet normal 0 -1 0
    outer loop
      vertex -1.49441 -23.753 0
      vertex 1.49441 -23.753 0
      vertex 1.49441 -23.753 8
    endloop
  endfacet
  facet normal 0 -1 0
    outer loop
      vertex -1.49441 -23.753 8
      vertex -1.49441 -23.753 0
      vertex 1.49441 -23.753 8
    endloop
  endfacet
  facet normal 0.125333 -0.992115 0
    outer loop
      vertex 1.49441 -23.753 0
      vertex 4.45967 -23.3784 0
      vertex 4.45967 -23.3784 8
    endloop
  endfacet
  facet normal 0.125333 -0.992115 0
    outer loop
      vertex 1.49441 -23.753 8
      vertex 1.49441 -23.753 0
      vertex 4.45967 -23.3784 8
    endloop
  endfacet
  facet normal 0.24869 -0.968583 0
    outer loop
      vertex 4.45967 -23.3784 0
      vertex 7.3546 -22.6351 0
      vertex 7.3546 -22.6351 8
    endloop
  endfacet
  facet normal 0.24869 -0.968583 0
    outer loop
      vertex 4.45967 -23.3784 8
      vertex 4.45967 -23.3784 0
      vertex 7.3546 -22.6351 8
    endloop
  endfacet
  facet normal 0.368124 -0.929777 0
    outer loop
      vertex 7.3546 -22.6351 0
      vertex 10.1335 -21.5349 0
      vertex 10.1335 -21.5349 8
    endloop
  endfacet
  facet normal 0.368124 -0.929777 0
    outer loop
      vertex 7.3546 -22.6351 8
      vertex 7.3546 -22.6351 0
      vertex 10.1335 -21.5349 8
    endloop
  endfacet
  facet normal 0.481754 -0.876307 0
    outer loop
      vertex 10.1335 -21.5349 0
      vertex 12.7527 -20.095 0
      vertex 12.7527 -20.095 8
    endloop
  endfacet
  facet normal 0.481754 -0.876307 0
    outer loop
      vertex 10.1335 -21.5349 8
      vertex 10.1335 -21.5349 0
      vertex 12.7527 -20.095 8
    endloop
  endfacet
  facet normal 0.587785 -0.809017 0
    outer loop
      vertex 12.7527 -20.095 0
      vertex 15.1707 -18.3382 0
      vertex 15.1707 -18.3382 8
    endloop
  endfacet
  facet normal 0.587785 -0.809017 0
    outer loop
      vertex 12.7527 -20.095 8
      vertex 12.7527 -20.095 0
      vertex 15.1707 -18.3382 8
    endloop
  endfacet
  facet normal 0.684547 -0.728969 0
    outer loop
      vertex 15.1707 -18.3382 0
      vertex 17.3495 -16.2922 0
      vertex 17.3495 -16.2922 8
    endloop
  endfacet
  facet normal 0.684547 -0.728969 0
    outer loop
      vertex 15.1707 -18.3382 8
      vertex 15.1707 -18.3382 0
      vertex 17.3495 -16.2922 8
    endloop
  endfacet
  facet normal 0.770513 -0.637424 0
    outer loop
      vertex 17.3495 -16.2922 0
      vertex 19.2546 -13.9893 0
      vertex 19.2546 -13.9893 8
    endloop
  endfacet
  facet normal 0.770513 -0.637424 0
    outer loop
      vertex 17.3495 -16.2922 8
      vertex 17.3495 -16.2922 0
      vertex 19.2546 -13.9893 8
    endloop
  endfacet
  facet normal 0.844328 -0.535827 0
    outer loop
      vertex 19.2546 -13.9893 0
      vertex 20.8561 -11.4657 0
      vertex 20.8561 -11.4657 8
    endloop
  endfacet
  facet normal 0.844328 -0.535827 0
    outer loop
      vertex 19.2546 -13.9893 8
      vertex 19.2546 -13.9893 0
      vertex 20.8561 -11.4657 8
    endloop
  endfacet
  facet normal 0.904827 -0.425779 0
    outer loop
      vertex 20.8561 -11.4657 0
      vertex 22.1287 -8.76136 0
      vertex 22.1287 -8.76136 8
    endloop
  endfacet
  facet normal 0.904827 -0.425779 0
    outer loop
      vertex 20.8561 -11.4657 8
      vertex 20.8561 -11.4657 0
      vertex 22.1287 -8.76136 8
    endloop
  endfacet
  facet normal 0.951057 -0.309017 0
    outer loop
      vertex 22.1287 -8.76136 0
      vertex 23.0523 -5.91882 0
      vertex 23.0523 -5.91882 8
    endloop
  endfacet
  facet normal 0.951057 -0.309017 0
    outer loop
      vertex 22.1287 -8.76136 8
      vertex 22.1287 -8.76136 0
      vertex 23.0523 -5.91882 8
    endloop
  endfacet
  facet normal 0.982287 -0.187381 0
    outer loop
      vertex 23.0523 -5.91882 0
      vertex 23.6123 -2.98293 0
      vertex 23.6123 -2.98293 8
    endloop
  endfacet
  facet normal 0.982287 -0.187381 0
    outer loop
      vertex 23.0523 -5.91882 8
      vertex 23.0523 -5.91882 0
      vertex 23.6123 -2.98293 8
    endloop
  endfacet
  facet normal 0.998027 -0.0627905 0
    outer loop
      vertex 23.6123 -2.98293 0
      vertex 23.8 0 0
      vertex 23.8 0 8
    endloop
  endfacet
  facet normal 0.998027 -0.0627905 0
    outer loop
      vertex 23.6123 -2.98293 8
      vertex 23.6123 -2.98293 0
      vertex 23.8 0 8
    endloop
  endfacet
  facet normal 0.998027 0.0627905 0
    outer loop
      vertex 23.6123 2.98293 0
      vertex 23.6123 2.98293 8
      vertex 23.8 0 8
    endloop
  endfacet
  facet normal 0.998027 0.0627905 0
    outer loop
      vertex 23.8 0 0
      vertex 23.6123 2.98293 0
      vertex 23.8 0 8
    endloop
  endfacet
  facet normal 0.982287 0.187381 0
    outer loop
      vertex 23.0523 5.91882 0
      vertex 23.0523 5.91882 8
      vertex 23.6123 2.98293 8
    endloop
  endfacet
  facet normal 0.982287 0.187381 0
    outer loop
      vertex 23.6123 2.98293 0
      vertex 23.0523 5.91882 0
      vertex 23.6123 2.98293 8
    endloop
  endfacet
  facet normal 0.951057 0.309017 0
    outer loop
      vertex 22.1287 8.76136 0
      vertex 22.1287 8.76136 8
      vertex 23.0523 5.91882 8
    endloop
  endfacet
  facet normal 0.951057 0.309017 0
    outer loop
      vertex 23.0523 5.91882 0
      vertex 22.1287 8.76136 0
      vertex 23.0523 5.91882 8
    endloop
  endfacet
  facet normal 0.904827 0.425779 0
    outer loop
      vertex 20.8561 11.4657 0
      vertex 20.8561 11.4657 8
      vertex 22.1287 8.76136 8
    endloop
  endfacet
  facet normal 0.904827 0.425779 0
    outer loop
      vertex 22.1287 8.76136 0
      vertex 20.8561 11.4657 0
      vertex 22.1287 8.76136 8
    endloop
  endfacet
  facet normal 0.844328 0.535827 0
    outer loop
      vertex 19.2546 13.9893 0
      vertex 19.2546 13.9893 8
      vertex 20.8561 11.4657 8
    endloop
  endfacet
  facet normal 0.844328 0.535827 0
    outer loop
      vertex 20.8561 11.4657 0
      vertex 19.2546 13.9893 0
      vertex 20.8561 11.4657 8
    endloop
  endfacet
  facet normal 0.770513 0.637424 0
    outer loop
      vertex 17.3495 16.2922 0
      vertex 17.3495 16.2922 8
      vertex 19.2546 13.9893 8
    endloop
  endfacet
  facet normal 0.770513 0.637424 0
    outer loop
      vertex 19.2546 13.9893 0
      vertex 17.3495 16.2922 0
      vertex 19.2546 13.9893 8
    endloop
  endfacet
  facet normal 0.684547 0.728969 0
    outer loop
      vertex 15.1707 18.3382 8
      vertex 17.3495 16.2922 8
      vertex 15.1707 18.3382 0
    endloop
  endfacet
  facet normal 0.684547 0.728969 0
    outer loop
      vertex 15.1707 18.3382 0
      vertex 17.3495 16.2922 8
      vertex 17.3495 16.2922 0
    endloop
  endfacet
  facet normal 0.587785 0.809017 0
    outer loop
      vertex 12.7527 20.095 8
      vertex 15.1707 18.3382 8
      vertex 12.7527 20.095 0
    endloop
  endfacet
  facet normal 0.587785 0.809017 0
    outer loop
      vertex 12.7527 20.095 0
      vertex 15.1707 18.3382 8
      vertex 15.1707 18.3382 0
    endloop
  endfacet
  facet normal 0.481754 0.876307 0
    outer loop
      vertex 10.1335 21.5349 8
      vertex 12.7527 20.095 8
      vertex 10.1335 21.5349 0
    endloop
  endfacet
  facet normal 0.481754 0.876307 0
    outer loop
      vertex 10.1335 21.5349 0
      vertex 12.7527 20.095 8
      vertex 12.7527 20.095 0
    endloop
  endfacet
  facet normal 0.368124 0.929777 0
    outer loop
      vertex 7.3546 22.6351 8
      vertex 10.1335 21.5349 8
      vertex 7.3546 22.6351 0
    endloop
  endfacet
  facet normal 0.368124 0.929777 0
    outer loop
      vertex 7.3546 22.6351 0
      vertex 10.1335 21.5349 8
      vertex 10.1335 21.5349 0
    endloop
  endfacet
  facet normal 0.24869 0.968583 0
    outer loop
      vertex 4.45967 23.3784 8
      vertex 7.3546 22.6351 8
      vertex 4.45967 23.3784 0
    endloop
  endfacet
  facet normal 0.24869 0.968583 0
    outer loop
      vertex 4.45967 23.3784 0
      vertex 7.3546 22.6351 8
      vertex 7.3546 22.6351 0
    endloop
  endfacet
  facet normal 0.125333 0.992115 0
    outer loop
      vertex 1.49441 23.753 8
      vertex 4.45967 23.3784 8
      vertex 1.49441 23.753 0
    endloop
  endfacet
  facet normal 0.125333 0.992115 0
    outer loop
      vertex 1.49441 23.753 0
      vertex 4.45967 23.3784 8
      vertex 4.45967 23.3784 0
    endloop
  endfacet
  facet normal 0 1 0
    outer loop
      vertex -1.49441 23.753 8
      vertex 1.49441 23.753 8
      vertex -1.49441 23.753 0
    endloop
  endfacet
  facet normal 0 1 0
    outer loop
      vertex -1.49441 23.753 0
      vertex 1.49441 23.753 8
      vertex 1.49441 23.753 0
    endloop
  endfacet
  facet normal -0.125333 0.992115 0
    outer loop
      vertex -4.45967 23.3784 8
      vertex -1.49441 23.753 8
      vertex -4.45967 23.3784 0
    endloop
  endfacet
  facet normal -0.125333 0.992115 0
    outer loop
      vertex -4.45967 23.3784 0
      vertex -1.49441 23.753 8
      vertex -1.49441 23.753 0
    endloop
  endfacet
  facet normal -0.24869 0.968583 0
    outer loop
      vertex -7.3546 22.6351 8
      vertex -4.45967 23.3784 8
      vertex -7.3546 22.6351 0
    endloop
  endfacet
  facet normal -0.24869 0.968583 0
    outer loop
      vertex -7.3546 22.6351 0
      vertex -4.45967 23.3784 8
      vertex -4.45967 23.3784 0
    endloop
  endfacet
  facet normal -0.368124 0.929777 0
    outer loop
      vertex -10.1335 21.5349 8
      vertex -7.3546 22.6351 8
      vertex -10.1335 21.5349 0
    endloop
  endfacet
  facet normal -0.368124 0.929777 0
    outer loop
      vertex -10.1335 21.5349 0
      vertex -7.3546 22.6351 8
      vertex -7.3546 22.6351 0
    endloop
  endfacet
  facet normal -0.481754 0.876307 0
    outer loop
      vertex -12.7527 20.095 8
      vertex -10.1335 21.5349 8
      vertex -12.7527 20.095 0
    endloop
  endfacet
  facet normal -0.481754 0.876307 0
    outer loop
      vertex -12.7527 20.095 0
      vertex -10.1335 21.5349 8
      vertex -10.1335 21.5349 0
    endloop
  endfacet
  facet normal -0.587785 0.809017 0
    outer loop
      vertex -15.1707 18.3382 8
      vertex -12.7527 20.095 8
      vertex -15.1707 18.3382 0
    endloop
  endfacet
  facet normal -0.587785 0.809017 0
    outer loop
      vertex -15.1707 18.3382 0
      vertex -12.7527 20.095 8
      vertex -12.7527 20.095 0
    endloop
  endfacet
  facet normal -0.684547 0.728969 0
    outer loop
      vertex -17.3495 16.2922 8
      vertex -15.1707 18.3382 8
      vertex -17.3495 16.2922 0
    endloop
  endfacet
  facet normal -0.684547 0.728969 0
    outer loop
      vertex -17.3495 16.2922 0
      vertex -15.1707 18.3382 8
      vertex -15.1707 18.3382 0
    endloop
  endfacet
  facet normal -0.770513 0.637424 0
    outer loop
      vertex -19.2546 13.9893 8
      vertex -17.3495 16.2922 8
      vertex -19.2546 13.9893 0
    endloop
  endfacet
  facet normal -0.770513 0.637424 0
    outer loop
      vertex -19.2546 13.9893 0
      vertex -17.3495 16.2922 8
      vertex -17.3495 16.2922 0
    endloop
  endfacet
  facet normal -0.844328 0.535827 0
    outer loop
      vertex -20.8561 11.4657 8
      vertex -19.2546 13.9893 8
      vertex -20.8561 11.4657 0
    endloop
  endfacet
  facet normal -0.844328 0.535827 0
    outer loop
      vertex -20.8561 11.4657 0
      vertex -19.2546 13.9893 8
      vertex -19.2546 13.9893 0
    endloop
  endfacet
  facet normal -0.904827 0.425779 0
    outer loop
      vertex -22.1287 8.76136 8
      vertex -20.8561 11.4657 8
      vertex -22.1287 8.76136 0
    endloop
  endfacet
  facet normal -0.904827 0.425779 0
    outer loop
      vertex -22.1287 8.76136 0
      vertex -20.8561 11.4657 8
      vertex -20.8561 11.4657 0
    endloop
  endfacet
  facet normal -0.951057 0.309017 0
    outer loop
      vertex -23.0523 5.91882 8
      vertex -22.1287 8.76136 8
      vertex -23.0523 5.91882 0
    endloop
  endfacet
  facet normal -0.951057 0.309017 0
    outer loop
      vertex -23.0523 5.91882 0
      vertex -22.1287 8.76136 8
      vertex -22.1287 8.76136 0
    endloop
  endfacet
  facet normal -0.982287 0.187381 0
    outer loop
      vertex -23.6123 2.98293 8
      vertex -23.0523 5.91882 8
      vertex -23.6123 2.98293 0
    endloop
  endfacet
  facet normal -0.982287 0.187381 0
    outer loop
      vertex -23.6123 2.98293 0
      vertex -23.0523 5.91882 8
      vertex -23.0523 5.91882 0
    endloop
  endfacet
  facet normal 0.951057 -0.309017 0
    outer loop
      vertex -21.5994 5.54578 0
      vertex -20.734 8.20918 0
      vertex -20.734 8.20918 8
    endloop
  endfacet
  facet normal 0.951057 -0.309017 0
    outer loop
      vertex -21.5994 5.54578 8
      vertex -21.5994 5.54578 0
      vertex -20.734 8.20918 8
    endloop
  endfacet
  facet normal 0.904827 -0.425779 0
    outer loop
      vertex -20.734 8.20918 0
      vertex -19.5416 10.7431 0
      vertex -19.5416 10.7431 8
    endloop
  endfacet
  facet normal 0.904827 -0.425779 0
    outer loop
      vertex -20.734 8.20918 8
      vertex -20.734 8.20918 0
      vertex -19.5416 10.7431 8
    endloop
  endfacet
  facet normal 0.844328 -0.535827 0
    outer loop
      vertex -19.5416 10.7431 0
      vertex -18.0411 13.1076 0
      vertex -18.0411 13.1076 8
    endloop
  endfacet
  facet normal 0.844328 -0.535827 0
    outer loop
      vertex -19.5416 10.7431 8
      vertex -19.5416 10.7431 0
      vertex -18.0411 13.1076 8
    endloop
  endfacet
  facet normal 0.770513 -0.637424 0
    outer loop
      vertex -18.0411 13.1076 0
      vertex -16.256 15.2654 0
      vertex -16.256 15.2654 8
    endloop
  endfacet
  facet normal 0.770513 -0.637424 0
    outer loop
      vertex -18.0411 13.1076 8
      vertex -18.0411 13.1076 0
      vertex -16.256 15.2654 8
    endloop
  endfacet
  facet normal 0.684547 -0.728969 0
    outer loop
      vertex -16.256 15.2654 0
      vertex -14.2146 17.1824 0
      vertex -14.2146 17.1824 8
    endloop
  endfacet
  facet normal 0.684547 -0.728969 0
    outer loop
      vertex -16.256 15.2654 8
      vertex -16.256 15.2654 0
      vertex -14.2146 17.1824 8
    endloop
  endfacet
  facet normal 0.587785 -0.809017 0
    outer loop
      vertex -14.2146 17.1824 0
      vertex -11.9489 18.8285 0
      vertex -11.9489 18.8285 8
    endloop
  endfacet
  facet normal 0.587785 -0.809017 0
    outer loop
      vertex -14.2146 17.1824 8
      vertex -14.2146 17.1824 0
      vertex -11.9489 18.8285 8
    endloop
  endfacet
  facet normal 0.481753 -0.876307 0
    outer loop
      vertex -11.9489 18.8285 0
      vertex -9.49488 20.1776 0
      vertex -9.49488 20.1776 8
    endloop
  endfacet
  facet normal 0.481753 -0.876307 0
    outer loop
      vertex -11.9489 18.8285 8
      vertex -11.9489 18.8285 0
      vertex -9.49488 20.1776 8
    endloop
  endfacet
  facet normal 0.368125 -0.929776 0
    outer loop
      vertex -9.49488 20.1776 0
      vertex -6.89108 21.2086 0
      vertex -6.89108 21.2086 8
    endloop
  endfacet
  facet normal 0.368125 -0.929776 0
    outer loop
      vertex -9.49488 20.1776 8
      vertex -9.49488 20.1776 0
      vertex -6.89108 21.2086 8
    endloop
  endfacet
  facet normal 0.24869 -0.968583 0
    outer loop
      vertex -6.89108 21.2086 0
      vertex -4.1786 21.905 0
      vertex -4.1786 21.905 8
    endloop
  endfacet
  facet normal 0.24869 -0.968583 0
    outer loop
      vertex -6.89108 21.2086 8
      vertex -6.89108 21.2086 0
      vertex -4.1786 21.905 8
    endloop
  endfacet
  facet normal 0.125333 -0.992115 0
    outer loop
      vertex -4.1786 21.905 0
      vertex -1.40023 22.256 0
      vertex -1.40023 22.256 8
    endloop
  endfacet
  facet normal 0.125333 -0.992115 0
    outer loop
      vertex -4.1786 21.905 8
      vertex -4.1786 21.905 0
      vertex -1.40023 22.256 8
    endloop
  endfacet
  facet normal 0 -1 0
    outer loop
      vertex -1.40023 22.256 0
      vertex 1.40023 22.256 0
      vertex 1.40023 22.256 8
    endloop
  endfacet
  facet normal 0 -1 0
    outer loop
      vertex -1.40023 22.256 8
      vertex -1.40023 22.256 0
      vertex 1.40023 22.256 8
    endloop
  endfacet
  facet normal -0.125333 -0.992115 0
    outer loop
      vertex 1.40023 22.256 0
      vertex 4.1786 21.905 0
      vertex 4.1786 21.905 8
    endloop
  endfacet
  facet normal -0.125333 -0.992115 0
    outer loop
      vertex 1.40023 22.256 8
      vertex 1.40023 22.256 0
      vertex 4.1786 21.905 8
    endloop
  endfacet
  facet normal -0.24869 -0.968583 0
    outer loop
      vertex 4.1786 21.905 0
      vertex 6.89108 21.2086 0
      vertex 6.89108 21.2086 8
    endloop
  endfacet
  facet normal -0.24869 -0.968583 0
    outer loop
      vertex 4.1786 21.905 8
      vertex 4.1786 21.905 0
      vertex 6.89108 21.2086 8
    endloop
  endfacet
  facet normal -0.368125 -0.929776 0
    outer loop
      vertex 6.89108 21.2086 0
      vertex 9.49488 20.1776 0
      vertex 9.49488 20.1776 8
    endloop
  endfacet
  facet normal -0.368125 -0.929776 0
    outer loop
      vertex 6.89108 21.2086 8
      vertex 6.89108 21.2086 0
      vertex 9.49488 20.1776 8
    endloop
  endfacet
  facet normal -0.481753 -0.876307 0
    outer loop
      vertex 9.49488 20.1776 0
      vertex 11.9489 18.8285 0
      vertex 11.9489 18.8285 8
    endloop
  endfacet
  facet normal -0.481753 -0.876307 0
    outer loop
      vertex 9.49488 20.1776 8
      vertex 9.49488 20.1776 0
      vertex 11.9489 18.8285 8
    endloop
  endfacet
  facet normal -0.587785 -0.809017 0
    outer loop
      vertex 11.9489 18.8285 0
      vertex 14.2146 17.1824 0
      vertex 14.2146 17.1824 8
    endloop
  endfacet
  facet normal -0.587785 -0.809017 0
    outer loop
      vertex 11.9489 18.8285 8
      vertex 11.9489 18.8285 0
      vertex 14.2146 17.1824 8
    endloop
  endfacet
  facet normal -0.684547 -0.728969 0
    outer loop
      vertex 14.2146 17.1824 0
      vertex 16.256 15.2654 0
      vertex 16.256 15.2654 8
    endloop
  endfacet
  facet normal -0.684547 -0.728969 0
    outer loop
      vertex 14.2146 17.1824 8
      vertex 14.2146 17.1824 0
      vertex 16.256 15.2654 8
    endloop
  endfacet
  facet normal -0.770513 -0.637424 0
    outer loop
      vertex 18.0411 13.1076 0
      vertex 18.0411 13.1076 8
      vertex 16.256 15.2654 0
    endloop
  endfacet
  facet normal -0.770513 -0.637424 0
    outer loop
      vertex 16.256 15.2654 0
      vertex 18.0411 13.1076 8
      vertex 16.256 15.2654 8
    endloop
  endfacet
  facet normal -0.844328 -0.535827 0
    outer loop
      vertex 19.5416 10.7431 0
      vertex 19.5416 10.7431 8
      vertex 18.0411 13.1076 0
    endloop
  endfacet
  facet normal -0.844328 -0.535827 0
    outer loop
      vertex 18.0411 13.1076 0
      vertex 19.5416 10.7431 8
      vertex 18.0411 13.1076 8
    endloop
  endfacet
  facet normal -0.904827 -0.425779 0
    outer loop
      vertex 20.734 8.20918 0
      vertex 20.734 8.20918 8
      vertex 19.5416 10.7431 0
    endloop
  endfacet
  facet normal -0.904827 -0.425779 0
    outer loop
      vertex 19.5416 10.7431 0
      vertex 20.734 8.20918 8
      vertex 19.5416 10.7431 8
    endloop
  endfacet
  facet normal -0.951057 -0.309017 0
    outer loop
      vertex 21.5994 5.54578 0
      vertex 21.5994 5.54578 8
      vertex 20.734 8.20918 0
    endloop
  endfacet
  facet normal -0.951057 -0.309017 0
    outer loop
      vertex 20.734 8.20918 0
      vertex 21.5994 5.54578 8
      vertex 20.734 8.20918 8
    endloop
  endfacet
  facet normal -0.982287 -0.187382 0
    outer loop
      vertex 22.1242 2.79493 0
      vertex 22.1242 2.79493 8
      vertex 21.5994 5.54578 0
    endloop
  endfacet
  facet normal -0.982287 -0.187382 0
    outer loop
      vertex 21.5994 5.54578 0
      vertex 22.1242 2.79493 8
      vertex 21.5994 5.54578 8
    endloop
  endfacet
  facet normal -0.998027 -0.0627905 0
    outer loop
      vertex 22.3 0 0
      vertex 22.3 0 8
      vertex 22.1242 2.79493 0
    endloop
  endfacet
  facet normal -0.998027 -0.0627905 0
    outer loop
      vertex 22.1242 2.79493 0
      vertex 22.3 0 8
      vertex 22.1242 2.79493 8
    endloop
  endfacet
  facet normal -0.998027 0.0627905 0
    outer loop
      vertex 22.1242 -2.79493 8
      vertex 22.3 0 8
      vertex 22.1242 -2.79493 0
    endloop
  endfacet
  facet normal -0.998027 0.0627905 0
    outer loop
      vertex 22.1242 -2.79493 0
      vertex 22.3 0 8
      vertex 22.3 0 0
    endloop
  endfacet
  facet normal -0.982287 0.187382 0
    outer loop
      vertex 21.5994 -5.54578 8
      vertex 22.1242 -2.79493 8
      vertex 21.5994 -5.54578 0
    endloop
  endfacet
  facet normal -0.982287 0.187382 0
    outer loop
      vertex 21.5994 -5.54578 0
      vertex 22.1242 -2.79493 8
      vertex 22.1242 -2.79493 0
    endloop
  endfacet
  facet normal -0.951057 0.309017 0
    outer loop
      vertex 20.734 -8.20918 8
      vertex 21.5994 -5.54578 8
      vertex 20.734 -8.20918 0
    endloop
  endfacet
  facet normal -0.951057 0.309017 0
    outer loop
      vertex 20.734 -8.20918 0
      vertex 21.5994 -5.54578 8
      vertex 21.5994 -5.54578 0
    endloop
  endfacet
  facet normal -0.904827 0.425779 0
    outer loop
      vertex 19.5416 -10.7431 8
      vertex 20.734 -8.20918 8
      vertex 19.5416 -10.7431 0
    endloop
  endfacet
  facet normal -0.904827 0.425779 0
    outer loop
      vertex 19.5416 -10.7431 0
      vertex 20.734 -8.20918 8
      vertex 20.734 -8.20918 0
    endloop
  endfacet
  facet normal -0.844328 0.535827 0
    outer loop
      vertex 18.0411 -13.1076 8
      vertex 19.5416 -10.7431 8
      vertex 18.0411 -13.1076 0
    endloop
  endfacet
  facet normal -0.844328 0.535827 0
    outer loop
      vertex 18.0411 -13.1076 0
      vertex 19.5416 -10.7431 8
      vertex 19.5416 -10.7431 0
    endloop
  endfacet
  facet normal -0.770513 0.637424 0
    outer loop
      vertex 16.256 -15.2654 8
      vertex 18.0411 -13.1076 8
      vertex 16.256 -15.2654 0
    endloop
  endfacet
  facet normal -0.770513 0.637424 0
    outer loop
      vertex 16.256 -15.2654 0
      vertex 18.0411 -13.1076 8
      vertex 18.0411 -13.1076 0
    endloop
  endfacet
  facet normal -0.684547 0.728969 0
    outer loop
      vertex 14.2146 -17.1824 8
      vertex 16.256 -15.2654 8
      vertex 14.2146 -17.1824 0
    endloop
  endfacet
  facet normal -0.684547 0.728969 0
    outer loop
      vertex 14.2146 -17.1824 0
      vertex 16.256 -15.2654 8
      vertex 16.256 -15.2654 0
    endloop
  endfacet
  facet normal -0.587785 0.809017 0
    outer loop
      vertex 11.9489 -18.8285 8
      vertex 14.2146 -17.1824 8
      vertex 11.9489 -18.8285 0
    endloop
  endfacet
  facet normal -0.587785 0.809017 0
    outer loop
      vertex 11.9489 -18.8285 0
      vertex 14.2146 -17.1824 8
      vertex 14.2146 -17.1824 0
    endloop
  endfacet
  facet normal -0.481753 0.876307 0
    outer loop
      vertex 9.49488 -20.1776 8
      vertex 11.9489 -18.8285 8
      vertex 9.49488 -20.1776 0
    endloop
  endfacet
  facet normal -0.481753 0.876307 0
    outer loop
      vertex 9.49488 -20.1776 0
      vertex 11.9489 -18.8285 8
      vertex 11.9489 -18.8285 0
    endloop
  endfacet
  facet normal -0.368125 0.929776 0
    outer loop
      vertex 6.89108 -21.2086 8
      vertex 9.49488 -20.1776 8
      vertex 6.89108 -21.2086 0
    endloop
  endfacet
  facet normal -0.368125 0.929776 0
    outer loop
      vertex 6.89108 -21.2086 0
      vertex 9.49488 -20.1776 8
      vertex 9.49488 -20.1776 0
    endloop
  endfacet
  facet normal -0.24869 0.968583 0
    outer loop
      vertex 4.1786 -21.905 8
      vertex 6.89108 -21.2086 8
      vertex 4.1786 -21.905 0
    endloop
  endfacet
  facet normal -0.24869 0.968583 0
    outer loop
      vertex 4.1786 -21.905 0
      vertex 6.89108 -21.2086 8
      vertex 6.89108 -21.2086 0
    endloop
  endfacet
  facet normal -0.125333 0.992115 0
    outer loop
      vertex 1.40023 -22.256 8
      vertex 4.1786 -21.905 8
      vertex 1.40023 -22.256 0
    endloop
  endfacet
  facet normal -0.125333 0.992115 0
    outer loop
      vertex 1.40023 -22.256 0
      vertex 4.1786 -21.905 8
      vertex 4.1786 -21.905 0
    endloop
  endfacet
  facet normal 0 1 0
    outer loop
      vertex -1.40023 -22.256 8
      vertex 1.40023 -22.256 8
      vertex -1.40023 -22.256 0
    endloop
  endfacet
  facet normal 0 1 0
    outer loop
      vertex -1.40023 -22.256 0
      vertex 1.40023 -22.256 8
      vertex 1.40023 -22.256 0
    endloop
  endfacet
  facet normal 0.125333 0.992115 0
    outer loop
      vertex -4.1786 -21.905 8
      vertex -1.40023 -22.256 8
      vertex -4.1786 -21.905 0
    endloop
  endfacet
  facet normal 0.125333 0.992115 0
    outer loop
      vertex -4.1786 -21.905 0
      vertex -1.40023 -22.256 8
      vertex -1.40023 -22.256 0
    endloop
  endfacet
  facet normal 0.24869 0.968583 0
    outer loop
      vertex -6.89108 -21.2086 8
      vertex -4.1786 -21.905 8
      vertex -6.89108 -21.2086 0
    endloop
  endfacet
  facet normal 0.24869 0.968583 0
    outer loop
      vertex -6.89108 -21.2086 0
      vertex -4.1786 -21.905 8
      vertex -4.1786 -21.905 0
    endloop
  endfacet
  facet normal 0.368125 0.929776 0
    outer loop
      vertex -9.49488 -20.1776 8
      vertex -6.89108 -21.2086 8
      vertex -9.49488 -20.1776 0
    endloop
  endfacet
  facet normal 0.368125 0.929776 0
    outer loop
      vertex -9.49488 -20.1776 0
      vertex -6.89108 -21.2086 8
      vertex -6.89108 -21.2086 0
    endloop
  endfacet
  facet normal 0.481753 0.876307 0
    outer loop
      vertex -11.9489 -18.8285 8
      vertex -9.49488 -20.1776 8
      vertex -11.9489 -18.8285 0
    endloop
  endfacet
  facet normal 0.481753 0.876307 0
    outer loop
      vertex -11.9489 -18.8285 0
      vertex -9.49488 -20.1776 8
      vertex -9.49488 -20.1776 0
    endloop
  endfacet
  facet normal 0.587785 0.809017 0
    outer loop
      vertex -14.2146 -17.1824 8
      vertex -11.9489 -18.8285 8
      vertex -14.2146 -17.1824 0
    endloop
  endfacet
  facet normal 0.587785 0.809017 0
    outer loop
      vertex -14.2146 -17.1824 0
      vertex -11.9489 -18.8285 8
      vertex -11.9489 -18.8285 0
    endloop
  endfacet
  facet normal 0.684547 0.728969 0
    outer loop
      vertex -16.256 -15.2654 8
      vertex -14.2146 -17.1824 8
      vertex -16.256 -15.2654 0
    endloop
  endfacet
  facet normal 0.684547 0.728969 0
    outer loop
      vertex -16.256 -15.2654 0
      vertex -14.2146 -17.1824 8
      vertex -14.2146 -17.1824 0
    endloop
  endfacet
  facet normal 0.770513 0.637424 0
    outer loop
      vertex -18.0411 -13.1076 0
      vertex -18.0411 -13.1076 8
      vertex -16.256 -15.2654 8
    endloop
  endfacet
  facet normal 0.770513 0.637424 0
    outer loop
      vertex -16.256 -15.2654 0
      vertex -18.0411 -13.1076 0
      vertex -16.256 -15.2654 8
    endloop
  endfacet
  facet normal 0.844328 0.535827 0
    outer loop
      vertex -19.5416 -10.7431 0
      vertex -19.5416 -10.7431 8
      vertex -18.0411 -13.1076 8
    endloop
  endfacet
  facet normal 0.844328 0.535827 0
    outer loop
      vertex -18.0411 -13.1076 0
      vertex -19.5416 -10.7431 0
      vertex -18.0411 -13.1076 8
    endloop
  endfacet
  facet normal 0.904827 0.425779 0
    outer loop
      vertex -20.734 -8.20918 0
      vertex -20.734 -8.20918 8
      vertex -19.5416 -10.7431 8
    endloop
  endfacet
  facet normal 0.904827 0.425779 0
    outer loop
      vertex -19.5416 -10.7431 0
      vertex -20.734 -8.20918 0
      vertex -19.5416 -10.7431 8
    endloop
  endfacet
  facet normal 0.951057 0.309017 0
    outer loop
      vertex -21.5994 -5.54578 0
      vertex -21.5994 -5.54578 8
      vertex -20.734 -8.20918 8
    endloop
  endfacet
  facet normal 0.951057 0.309017 0
    outer loop
      vertex -20.734 -8.20918 0
      vertex -21.5994 -5.54578 0
      vertex -20.734 -8.20918 8
    endloop
  endfacet
endsolid OpenSCAD_Model
